<svg width="24" height="24" viewBox="0 0 24 24" fill="none" xmlns="http://www.w3.org/2000/svg">
<path d="M4 3.99976V19.9998C4 20.5302 4.21071 21.0389 4.58579 21.414C4.96086 21.789 5.46957 21.9998 6 21.9998H18C18.5304 21.9998 19.0391 21.789 19.4142 21.414C19.7893 21.0389 20 20.5302 20 19.9998V8.34176C20 8.07532 19.9467 7.81157 19.8433 7.566C19.7399 7.32043 19.5885 7.098 19.398 6.91176L14.958 2.56976C14.5844 2.20441 14.0826 1.99982 13.56 1.99976H6C5.46957 1.99976 4.96086 2.21047 4.58579 2.58554C4.21071 2.96061 4 3.46932 4 3.99976V3.99976Z" stroke="#1D1F2C" stroke-width="2" stroke-linecap="round" stroke-linejoin="round"/>
<path d="M9 12.9998H15" stroke="#1D1F2C" stroke-width="2" stroke-linecap="round" stroke-linejoin="round"/>
<path d="M9 16.9998H12" stroke="#1D1F2C" stroke-width="2" stroke-linecap="round" stroke-linejoin="round"/>
<path d="M14 1.99976V5.99976C14 6.53019 14.2107 7.0389 14.5858 7.41397C14.9609 7.78904 15.4696 7.99976 16 7.99976H20" stroke="#1D1F2C" stroke-width="2" stroke-linejoin="round"/>
</svg>
