<svg width="22" height="22" viewBox="0 0 22 22" fill="none" xmlns="http://www.w3.org/2000/svg">
<path fill-rule="evenodd" clip-rule="evenodd" d="M10.9992 19.7999C13.3331 19.7999 15.5714 18.8728 17.2218 17.2225C18.8721 15.5722 19.7992 13.3339 19.7992 11C19.7992 8.66605 18.8721 6.42773 17.2218 4.77741C15.5714 3.12709 13.3331 2.19995 10.9992 2.19995C8.66531 2.19995 6.427 3.12709 4.77668 4.77741C3.12636 6.42773 2.19922 8.66605 2.19922 11C2.19922 13.3339 3.12636 15.5722 4.77668 17.2225C6.427 18.8728 8.66531 19.7999 10.9992 19.7999ZM15.0769 10.2223L11.7769 6.92225C11.5695 6.72188 11.2916 6.611 11.0032 6.61351C10.7148 6.61602 10.4389 6.7317 10.2349 6.93565C10.031 7.1396 9.91528 7.41549 9.91278 7.70391C9.91027 7.99233 10.0211 8.27019 10.2215 8.47765L11.6438 9.89995H7.69922C7.40748 9.89995 7.12769 10.0158 6.9214 10.2221C6.71511 10.4284 6.59922 10.7082 6.59922 11C6.59922 11.2917 6.71511 11.5715 6.9214 11.7778C7.12769 11.9841 7.40748 12.1 7.69922 12.1H11.6438L10.2215 13.5223C10.1165 13.6237 10.0327 13.7451 9.97501 13.8793C9.91736 14.0135 9.88701 14.1579 9.88574 14.3039C9.88447 14.45 9.91231 14.5948 9.96761 14.73C10.0229 14.8652 10.1046 14.988 10.2079 15.0913C10.3112 15.1946 10.434 15.2762 10.5692 15.3316C10.7044 15.3869 10.8492 15.4147 10.9953 15.4134C11.1413 15.4122 11.2857 15.3818 11.4199 15.3242C11.5541 15.2665 11.6754 15.1827 11.7769 15.0777L15.0769 11.7776C15.2831 11.5714 15.399 11.2916 15.399 11C15.399 10.7083 15.2831 10.4285 15.0769 10.2223Z" fill="#75767E"/>
</svg>
