<svg width="50" height="50" viewBox="0 0 50 50" fill="none" xmlns="http://www.w3.org/2000/svg">
<circle cx="25" cy="25" r="25" fill="#A6A9AD"/>
<path d="M17.125 18.25C17.1722 20.4768 17.9399 22.3341 19.4279 23.8221C20.9159 25.3101 22.7732 26.0778 25 26.125C27.2268 26.0778 29.0841 25.3101 30.5721 23.8221C32.0601 22.3341 32.8277 20.4768 32.875 18.25C32.8277 16.0233 32.0601 14.1659 30.5721 12.6779C29.0841 11.1899 27.2268 10.4222 25 10.375C22.7732 10.4222 20.9159 11.1899 19.4279 12.6779C17.9399 14.1659 17.1722 16.0233 17.125 18.25ZM36.25 39.625H12.625C12.2965 39.625 12.0269 39.5196 11.8161 39.3089C11.6054 39.0981 11.5 38.8285 11.5 38.5V35.125C11.5472 33.5312 12.0981 32.2071 13.1526 31.1526C14.2071 30.0981 15.5312 29.5473 17.125 29.5H32.875C34.4688 29.5473 35.7929 30.0981 36.8474 31.1526C37.9019 32.2071 38.4527 33.5312 38.5 35.125V38.5C38.5 38.8285 38.3946 39.0981 38.1839 39.3089C37.9731 39.5196 37.7035 39.625 37.375 39.625H36.25Z" fill="white"/>
</svg>
