<svg width="296" height="278" viewBox="0 0 296 278" fill="none" xmlns="http://www.w3.org/2000/svg">
<g clip-path="url(#clip0_4112_126710)">
<ellipse cx="148" cy="145.338" rx="147.515" ry="138.42" fill="#336CCE"/>
<path d="M133.826 117.948C133.826 117.948 139.946 176.338 136.806 195.028C134.196 210.578 99.0762 211.698 99.0762 211.698V129.938L133.826 117.948Z" fill="#BF743C"/>
<path d="M85.0961 296.128H25.4961C21.3361 296.128 17.9561 292.758 17.9561 288.588V199.168C17.9561 186.358 28.3361 175.978 41.1461 175.978H85.0961C97.9061 175.978 108.286 186.358 108.286 199.168V267.278C108.286 280.088 97.9061 296.128 85.0961 296.128Z" fill="#FFCC22"/>
<path d="M109.706 182.578C109.706 182.578 141.706 179.678 139.946 201.838C138.186 223.998 129.426 296.128 129.426 296.128H39.9061L44.5561 250.508L35.8661 238.498L12.2261 226.738L27.2261 199.748C35.3261 191.198 45.7161 185.428 57.0161 183.188L67.3661 181.138L109.706 182.578Z" fill="white"/>
<path d="M70.4664 191.668C70.4664 191.668 108.646 218.988 105.946 184.878L104.606 150.658L72.3164 151.918L72.6765 161.018C73.0565 170.668 70.2964 180.168 64.8164 188.118L70.4664 191.668Z" fill="#FFBEAC"/>
<path d="M49.1561 296.128H36.0361L39.6961 289.858C54.7161 264.118 59.1761 227.788 51.5961 198.968C49.3361 190.378 47.2661 186.568 47.2161 186.488C46.2861 184.858 47.2561 182.808 49.1061 182.488L57.0961 181.108C58.3061 180.898 59.4961 181.518 60.0061 182.638C60.9861 184.768 62.6061 188.778 64.2761 195.058C72.4661 225.788 67.7861 264.198 51.7661 291.668L49.1561 296.128Z" fill="#FFCC22"/>
<path d="M62.0165 94.1775C62.0165 94.1775 54.8665 107.297 51.8865 124.077C49.3765 138.167 50.7165 154.298 52.8565 172.678C57.5565 212.948 80.0765 211.637 80.0765 211.637C80.0765 211.637 82.6365 212.578 80.0765 207.688C77.5165 202.798 71.9265 178.678 75.1965 164.038L62.0165 94.1775Z" fill="#BF743C"/>
<path d="M41.8064 220.608C41.8064 220.608 46.5564 212.398 52.6264 210.018C56.7864 208.388 64.0364 208.248 68.1864 208.328C69.9464 208.358 71.3364 209.788 71.3364 211.548C71.3364 213.218 70.0564 214.618 68.3864 214.758L56.5664 215.758L53.4064 218.498C53.4064 218.498 68.4564 215.858 72.2764 218.238C76.0964 220.608 72.2764 226.148 72.2764 226.148C72.2764 226.148 75.5464 229.578 73.9764 231.158C72.4064 232.738 72.2764 234.328 72.2764 234.328C72.2764 234.328 74.7864 237.498 72.2764 239.868C69.7664 242.238 68.1864 242.238 68.1864 242.238C68.1864 242.238 70.7664 247.248 66.3064 248.568C61.8564 249.888 58.9464 255.428 50.5064 255.158C42.0664 254.898 37.3264 246.458 41.8064 220.608Z" fill="#FFBEAC"/>
<path d="M125.426 296.128C126.146 265.858 126.146 245.888 126.146 227.958C126.146 204.208 119.246 188.128 117.956 183.878C117.706 183.058 118.246 182.228 119.086 182.118C122.596 181.638 130.436 180.878 131.216 183.518C133.896 192.538 137.426 204.458 136.696 226.368C136.086 244.528 134.396 288.018 130.616 296.128H125.426Z" fill="#FFCC22"/>
<path d="M128.006 217.178C128.006 217.178 112.956 214.538 109.136 216.918C105.316 219.288 109.136 224.828 109.136 224.828C109.136 224.828 105.866 228.258 107.436 229.838C109.006 231.418 109.136 233.008 109.136 233.008C109.136 233.008 106.626 236.178 109.136 238.548C111.646 240.918 113.226 240.918 113.226 240.918C113.226 240.918 110.646 245.928 115.106 247.248C119.556 248.568 122.466 254.108 130.906 253.838C139.346 253.578 144.096 245.128 139.616 219.278C139.616 219.278 137.676 212.118 132.746 210.538C127.816 208.958 121.746 206.848 121.216 210.538C120.676 214.238 128.006 217.178 128.006 217.178Z" fill="#FFBEAC"/>
<path d="M52.1862 254.818C52.1862 254.818 25.6862 277.548 13.5962 272.268C1.49625 266.988 14.6762 227.958 14.6762 227.958L35.8662 238.498L44.5762 235.848L52.1862 254.818Z" fill="#FFBEAC"/>
<path d="M130.906 253.838C130.906 253.838 127.696 273.058 142.986 274.638C158.276 276.218 140.846 227.958 140.846 227.958L130.906 253.838Z" fill="#FFBEAC"/>
<path d="M61.3159 133.778C61.3159 133.778 62.7959 144.308 66.6659 154.298C67.9759 157.688 70.056 160.778 72.736 163.358C79.626 169.988 94.8259 181.448 113.786 176.488C130.186 172.198 131.906 147.758 131.776 129.778C131.656 113.638 131.026 104.178 121.786 94.4376C102.246 73.8476 71.6759 89.1176 65.4759 101.158C61.6259 108.628 57.9159 118.528 61.3159 133.778Z" fill="#FFBEAC"/>
<path d="M96.9849 156.418C101.485 159.084 112.485 162.818 120.485 156.418" stroke="#513F33" stroke-width="2" stroke-linecap="round"/>
<path d="M85.2361 136.208C85.6261 138.568 87.4361 140.228 89.2761 139.918C91.1161 139.618 92.2961 137.458 91.9061 135.098C91.5161 132.738 89.7061 131.078 87.8661 131.388C86.0261 131.688 84.8461 133.848 85.2361 136.208Z" fill="#513F33"/>
<path d="M115.856 133.828C115.996 136.208 117.616 138.058 119.486 137.948C121.356 137.838 122.756 135.818 122.616 133.438C122.476 131.058 120.856 129.208 118.986 129.318C117.116 129.428 115.716 131.448 115.856 133.828Z" fill="#513F33"/>
<path d="M81.526 126.898C81.696 126.898 81.876 126.818 82.016 126.668C82.176 126.488 86.016 122.438 90.066 124.968C90.446 125.198 90.896 125.008 91.076 124.528C91.256 124.048 91.1061 123.478 90.7261 123.238C85.7861 120.158 81.216 124.998 81.026 125.208C80.706 125.558 80.666 126.158 80.946 126.568C81.096 126.788 81.316 126.898 81.526 126.898Z" fill="#513F33"/>
<path d="M116.386 124.128C116.556 124.168 116.746 124.138 116.916 124.028C117.116 123.898 121.816 120.888 125.136 124.308C125.446 124.628 125.936 124.548 126.226 124.128C126.516 123.708 126.506 123.108 126.196 122.798C122.136 118.618 116.546 122.218 116.306 122.368C115.916 122.628 115.736 123.208 115.896 123.668C115.996 123.918 116.176 124.078 116.386 124.128Z" fill="#513F33"/>
<path d="M72.9089 153.081C76.2526 150.21 75.5948 143.959 71.4396 139.12C67.2844 134.28 61.2053 132.684 57.8615 135.555C54.5178 138.426 55.1756 144.676 59.3308 149.516C63.486 154.356 69.5651 155.952 72.9089 153.081Z" fill="#FFBEAC"/>
<path d="M121.136 88.1576C107.436 79.9776 98.3562 81.4376 98.3562 81.4376C98.3562 81.4376 60.4261 76.4576 55.0161 111.428C50.5961 140.008 61.3761 133.968 61.3761 133.968C61.7961 129.118 64.6262 124.738 68.9762 122.568C84.9362 114.588 101.246 90.2676 101.246 90.2676C101.246 90.2676 126.226 86.7076 131.776 129.768C131.786 129.768 140.936 99.9776 121.136 88.1576Z" fill="#BF743C"/>
<path d="M210.796 296.128H275.266C279.766 296.128 283.416 292.478 283.416 287.978V197.378C283.416 183.528 272.186 172.298 258.336 172.298H210.806C196.956 172.298 185.726 183.528 185.726 197.378V271.038C185.716 284.898 196.946 296.128 210.796 296.128Z" fill="#3588CC"/>
<path d="M176.586 187.417C176.586 187.417 170.236 190.167 165.086 208.487C159.936 226.807 158.416 239.177 158.416 239.177H183.716C183.726 239.177 196.576 187.417 176.586 187.417Z" fill="#C9DB57"/>
<path d="M282.316 229.548L287.746 265.948L258.066 264.598L251.696 229.548H282.316Z" fill="#BF743C"/>
<path d="M234.566 173.907C234.566 173.907 270.996 181.247 276.256 195.037C281.506 208.817 285.956 229.547 285.956 229.547H251.696L266.956 296.137H174.386L176.586 187.427L198.436 175.217L234.566 173.907Z" fill="#C9DB57"/>
<path d="M234.566 150.968V173.908C234.566 173.908 234.586 192.548 216.336 192.548C198.086 192.548 198.446 186.928 198.446 175.208V157.098L234.566 150.968Z" fill="#BF743C"/>
<path d="M240.636 128.388C240.636 128.388 238.606 143.338 234.566 150.978C234.566 150.978 220.086 176.458 195.046 171.898C163.616 166.178 165.536 109.068 184.186 88.4776C202.826 67.8876 231.416 83.4176 237.106 95.5576C240.636 103.088 244.016 113.068 240.636 128.388Z" fill="#BF743C"/>
<path d="M233.256 134.798C231.756 140.888 233.876 146.648 237.996 147.668C242.116 148.678 246.666 144.568 248.166 138.478C249.666 132.388 247.546 126.628 243.426 125.608C239.306 124.598 234.756 128.708 233.256 134.798Z" fill="#BF743C"/>
<path d="M187.286 130.098C187.056 132.608 185.276 134.508 183.306 134.328C181.336 134.148 179.926 131.968 180.156 129.448C180.386 126.938 182.166 125.038 184.136 125.218C186.106 125.398 187.516 127.578 187.286 130.098Z" fill="#513F33"/>
<path d="M219.886 131.967C219.656 134.477 217.876 136.377 215.906 136.197C213.936 136.017 212.526 133.837 212.756 131.317C212.986 128.807 214.766 126.907 216.736 127.087C218.706 127.277 220.116 129.457 219.886 131.967Z" fill="#513F33"/>
<path d="M219.496 123.738C219.336 123.748 219.166 123.698 219.016 123.558C218.856 123.408 214.946 119.897 211.336 122.567C210.996 122.817 210.556 122.668 210.346 122.228C210.136 121.798 210.236 121.238 210.576 120.998C214.986 117.738 219.626 121.928 219.826 122.108C220.146 122.408 220.236 122.968 220.006 123.378C219.886 123.598 219.696 123.728 219.496 123.738Z" fill="#513F33"/>
<path d="M186.316 121.038C186.196 121.078 186.046 121.048 185.896 120.948C185.726 120.828 181.826 118.058 179.626 121.238C179.426 121.528 179.036 121.458 178.776 121.068C178.506 120.678 178.456 120.128 178.666 119.838C181.346 115.958 185.996 119.268 186.196 119.408C186.526 119.648 186.716 120.178 186.636 120.608C186.596 120.838 186.476 120.988 186.316 121.038Z" fill="#513F33"/>
<path d="M212.861 149.203C212.861 149.203 208.748 162.42 198.172 160.777C187.597 159.134 184.835 149.124 184.835 149.124L212.861 149.203Z" fill="white"/>
<path d="M241.216 93.2876C241.216 93.2876 236.276 81.6576 220.766 78.0176C205.246 74.3676 192.436 74.9576 179.106 83.9476C165.786 92.9376 173.476 109.058 175.016 104.348C176.556 99.6276 181.396 97.4375 181.396 97.4375C181.376 97.4975 178.546 101.668 178.526 101.728C177.356 105.048 177.526 107.308 180.126 104.938C181.346 103.828 183.566 99.9075 188.876 97.3375C192.696 95.4875 200.246 94.6276 200.246 94.6276L203.626 95.8476C206.326 96.8276 208.206 99.4476 207.976 102.308C207.846 103.928 207.076 105.548 204.946 106.598C199.626 109.218 215.756 110.848 218.586 104.458C222.966 107.948 226.216 111.038 226.216 111.038L235.716 119.768C235.716 119.768 234.666 134.718 236.256 130.018C237.846 125.318 242.136 125.658 242.136 125.658C242.136 125.658 245.076 126.478 246.276 127.418L246.396 127.518C246.396 127.518 250.036 125.708 251.556 112.398C253.086 99.0875 241.216 93.2876 241.216 93.2876Z" fill="#513F33"/>
<path d="M267.096 292.848L262.186 267.718C252.096 256.668 233.306 250.148 249.526 192.818C251.946 184.268 253.856 180.418 253.906 180.338C254.836 178.708 253.866 176.658 252.016 176.338L244.026 174.958C242.816 174.748 241.626 175.378 241.116 176.488C240.136 178.618 238.516 182.628 236.846 188.908C231.606 208.568 226.226 228.978 231.116 248.368C235.406 265.398 267.096 292.848 267.096 292.848Z" fill="#3588CC"/>
<path d="M174.926 269.498C174.926 269.498 173.956 241.738 186.526 196.748C188.916 188.188 194.626 177.338 194.626 177.338L183.316 178.598C182.106 178.388 180.916 179.018 180.406 180.128C179.426 182.258 175.406 192.698 174.386 199.108C165.116 257.428 174.926 269.498 174.926 269.498Z" fill="#3588CC"/>
<path d="M239.666 226.967C239.666 226.967 223.026 218.517 218.516 220.167C214.006 221.817 216.606 230.997 216.606 230.997C216.606 230.997 211.926 234.817 214.876 238.927C214.876 238.927 211.236 242.837 215.566 245.097C215.566 245.097 213.486 249.427 219.556 251.077C225.626 252.727 230.016 259.317 236.836 258.287C243.656 257.257 246.776 241.487 246.076 239.177C245.386 236.857 246.166 222.257 240.496 222.567C238.856 222.657 239.666 226.967 239.666 226.967Z" fill="#BF743C"/>
<path d="M173.306 220.172L162.368 222.971L163.085 225.771L174.022 222.972L173.306 220.172Z" fill="white"/>
<path d="M166.546 224.898C166.266 223.788 166.926 222.658 168.036 222.378C169.146 222.098 170.276 222.758 170.556 223.868L166.546 224.898Z" fill="#B3B3B3"/>
<path d="M173.256 220.048L173.306 220.248C173.156 220.338 172.996 220.398 172.816 220.448L162.886 222.988C162.716 223.028 162.546 223.048 162.376 223.048L162.326 222.848L173.256 220.048Z" fill="#B8E3DD"/>
<path d="M170.176 190.288L174.216 218.348C174.326 219.118 173.956 219.858 173.306 220.238C173.156 220.328 172.996 220.388 172.816 220.438L162.886 222.978C162.716 223.018 162.546 223.038 162.376 223.038C161.626 223.018 160.936 222.548 160.666 221.818L150.716 195.268C150.326 194.218 150.926 193.068 152.006 192.788L167.846 188.738C168.926 188.458 170.016 189.178 170.176 190.288Z" fill="#63D3E5"/>
<path d="M174.006 222.978L163.066 225.778L163.416 227.148C163.556 227.708 164.126 228.048 164.686 227.898L173.596 225.618C174.156 225.478 174.496 224.908 174.346 224.348L174.006 222.978Z" fill="white"/>
<path d="M167.496 196.047L163.626 197.037L162.636 193.167L158.716 194.167L159.706 198.037L155.836 199.027L156.836 202.957L160.706 201.967L161.696 205.837L165.626 204.827L164.636 200.957L168.506 199.967L167.496 196.047Z" fill="white"/>
<path d="M163.246 226.967C163.246 226.967 179.886 218.517 184.396 220.167C188.906 221.817 186.306 230.997 186.306 230.997C186.306 230.997 190.986 234.817 188.036 238.927C188.036 238.927 191.676 242.837 187.346 245.097C187.346 245.097 189.426 249.427 183.356 251.077C177.286 252.727 172.896 259.317 166.076 258.287C159.256 257.257 156.136 241.487 156.836 239.177C157.526 236.857 156.746 222.257 162.416 222.567C164.066 222.657 163.246 226.967 163.246 226.967Z" fill="#BF743C"/>
<path d="M280.366 255.847L241.816 239.177L236.836 258.287L271.066 280.657C277.876 284.557 286.046 280.047 287.686 271.457C288.956 264.877 285.836 258.207 280.366 255.847Z" fill="#BF743C"/>
</g>
<defs>
<clipPath id="clip0_4112_126710">
<rect x="0.484863" y="0.917725" width="295.03" height="276.84" rx="138.42" fill="white"/>
</clipPath>
</defs>
</svg>
