<svg width="16" height="17" viewBox="0 0 16 17" fill="none" xmlns="http://www.w3.org/2000/svg">
<path fill-rule="evenodd" clip-rule="evenodd" d="M3.19961 4.49999C2.77526 4.49999 2.3683 4.66856 2.06824 4.96862C1.76818 5.26868 1.59961 5.67565 1.59961 6.09999V12.5C1.59961 12.9243 1.76818 13.3313 2.06824 13.6314C2.3683 13.9314 2.77526 14.1 3.19961 14.1H12.7996C13.224 14.1 13.6309 13.9314 13.931 13.6314C14.231 13.3313 14.3996 12.9243 14.3996 12.5V6.09999C14.3996 5.67565 14.231 5.26868 13.931 4.96862C13.6309 4.66856 13.224 4.49999 12.7996 4.49999H11.5308C11.3187 4.49995 11.1152 4.41563 10.9652 4.26559L10.0684 3.36879C9.76842 3.06871 9.36152 2.90008 8.93721 2.89999H7.06201C6.6377 2.90008 6.2308 3.06871 5.93081 3.36879L5.03401 4.26559C4.88402 4.41563 4.68057 4.49995 4.46841 4.49999H3.19961ZM7.99961 11.7C8.31478 11.7 8.62687 11.6379 8.91805 11.5173C9.20923 11.3967 9.4738 11.2199 9.69667 10.9971C9.91953 10.7742 10.0963 10.5096 10.2169 10.2184C10.3375 9.92725 10.3996 9.61517 10.3996 9.29999C10.3996 8.98482 10.3375 8.67274 10.2169 8.38155C10.0963 8.09037 9.91953 7.8258 9.69667 7.60294C9.4738 7.38008 9.20923 7.20329 8.91805 7.08268C8.62687 6.96207 8.31478 6.89999 7.99961 6.89999C7.36309 6.89999 6.75264 7.15285 6.30255 7.60294C5.85247 8.05303 5.59961 8.66348 5.59961 9.29999C5.59961 9.93651 5.85247 10.547 6.30255 10.9971C6.75264 11.4471 7.36309 11.7 7.99961 11.7Z" fill="#75767E"/>
</svg>
