<svg width="24" height="24" viewBox="0 0 24 24" fill="none" xmlns="http://www.w3.org/2000/svg">
<path fill-rule="evenodd" clip-rule="evenodd" d="M17.44 6.23616C17.48 6.30608 17.55 6.35603 17.64 6.35603C20.04 6.35603 22 8.31385 22 10.7112V16.6446C22 19.0419 20.04 20.9998 17.64 20.9998H6.36C3.95 20.9998 2 19.0419 2 16.6446V10.7112C2 8.31385 3.95 6.35603 6.36 6.35603C6.44 6.35603 6.52 6.31607 6.55 6.23616L6.61 6.11629C6.64448 6.04372 6.67987 5.96919 6.71579 5.89352C6.97161 5.35468 7.25463 4.75855 7.43 4.40819C7.89 3.50919 8.67 3.00974 9.64 2.99976H14.35C15.32 3.00974 16.11 3.50919 16.57 4.40819C16.7275 4.72283 16.9674 5.22965 17.1987 5.71814C17.2464 5.81896 17.2938 5.919 17.34 6.0164L17.44 6.23616ZM16.71 10.0719C16.71 10.5713 17.11 10.9709 17.61 10.9709C18.11 10.9709 18.52 10.5713 18.52 10.0719C18.52 9.57245 18.11 9.16291 17.61 9.16291C17.11 9.16291 16.71 9.57245 16.71 10.0719ZM10.27 11.6202C10.74 11.1507 11.35 10.901 12 10.901C12.65 10.901 13.26 11.1507 13.72 11.6102C14.18 12.0697 14.43 12.679 14.43 13.3283C14.42 14.6668 13.34 15.7556 12 15.7556C11.35 15.7556 10.74 15.5059 10.28 15.0464C9.82 14.5869 9.57 13.9776 9.57 13.3283V13.3183C9.56 12.689 9.81 12.0797 10.27 11.6202ZM14.77 16.1052C14.06 16.8144 13.08 17.2539 12 17.2539C10.95 17.2539 9.97 16.8444 9.22 16.1052C8.48 15.356 8.07 14.3771 8.07 13.3283C8.06 12.2894 8.47 11.3105 9.21 10.5614C9.96 9.81219 10.95 9.40264 12 9.40264C13.05 9.40264 14.04 9.81219 14.78 10.5514C15.52 11.3005 15.93 12.2894 15.93 13.3283C15.92 14.4171 15.48 15.396 14.77 16.1052Z" fill="#3488ED"/>
</svg>
