<svg width="24" height="24" viewBox="0 0 24 24" fill="none" xmlns="http://www.w3.org/2000/svg">
<mask id="mask0_8447_30334" style="mask-type:alpha" maskUnits="userSpaceOnUse" x="1" y="1" width="22" height="22">
<path fill-rule="evenodd" clip-rule="evenodd" d="M1 1.00006H22.493V22.4939H1V1.00006Z" fill="white"/>
</mask>
<g mask="url(#mask0_8447_30334)">
<path fill-rule="evenodd" clip-rule="evenodd" d="M6.10844 19.6751C6.68844 19.6751 7.23544 19.8951 7.81444 20.1281C11.3614 21.7681 15.5564 21.0221 18.2894 18.2901C21.8954 14.6821 21.8954 8.81306 18.2894 5.20706C16.5434 3.46106 14.2214 2.50006 11.7494 2.50006C9.27644 2.50006 6.95344 3.46206 5.20844 5.20806C2.47444 7.94006 1.73044 12.1351 3.35544 15.6481C3.58944 16.2271 3.81544 16.7911 3.81544 17.3771C3.81544 17.9621 3.61444 18.5511 3.43744 19.0711C3.29144 19.4991 3.07044 20.1451 3.21244 20.2871C3.35144 20.4311 4.00144 20.2041 4.43044 20.0571C4.94544 19.8811 5.52944 19.6791 6.10844 19.6751ZM11.7244 22.4941C10.1964 22.4941 8.65844 22.1711 7.21944 21.5051C6.79544 21.3351 6.39844 21.1751 6.11344 21.1751C5.78544 21.1771 5.34444 21.3291 4.91844 21.4761C4.04444 21.7761 2.95644 22.1501 2.15144 21.3481C1.34944 20.5451 1.71944 19.4601 2.01744 18.5871C2.16444 18.1571 2.31544 17.7131 2.31544 17.3771C2.31544 17.1011 2.18244 16.7491 1.97844 16.2421C0.105437 12.1971 0.971437 7.32206 4.14844 4.14706C6.17644 2.11806 8.87544 1.00006 11.7484 1.00006C14.6214 1.00006 17.3214 2.11706 19.3494 4.14606C23.5414 8.33806 23.5414 15.1581 19.3494 19.3501C17.2944 21.4061 14.5274 22.4941 11.7244 22.4941Z" fill="#1D1F2C"/>
</g>
<path fill-rule="evenodd" clip-rule="evenodd" d="M15.6964 13.1628C15.1444 13.1628 14.6924 12.7158 14.6924 12.1628C14.6924 11.6098 15.1354 11.1628 15.6874 11.1628H15.6964C16.2484 11.1628 16.6964 11.6098 16.6964 12.1628C16.6964 12.7158 16.2484 13.1628 15.6964 13.1628Z" fill="#1D1F2C"/>
<path fill-rule="evenodd" clip-rule="evenodd" d="M11.6876 13.1628C11.1356 13.1628 10.6836 12.7158 10.6836 12.1628C10.6836 11.6098 11.1256 11.1628 11.6786 11.1628H11.6876C12.2396 11.1628 12.6876 11.6098 12.6876 12.1628C12.6876 12.7158 12.2396 13.1628 11.6876 13.1628Z" fill="#1D1F2C"/>
<path fill-rule="evenodd" clip-rule="evenodd" d="M7.67783 13.1628C7.12583 13.1628 6.67383 12.7158 6.67383 12.1628C6.67383 11.6098 7.11683 11.1628 7.66883 11.1628H7.67783C8.22983 11.1628 8.67783 11.6098 8.67783 12.1628C8.67783 12.7158 8.22983 13.1628 7.67783 13.1628Z" fill="#1D1F2C"/>
</svg>
