<svg id="svg" version="1.1" xmlns="http://www.w3.org/2000/svg" xmlns:xlink="http://www.w3.org/1999/xlink" width="400" height="256.1679790026247" viewBox="0, 0, 400,256.1679790026247"><g id="svgg"><path id="path0" d="M200.897 19.586 C 190.800 20.668,179.602 24.385,172.538 28.998 C 156.548 39.441,149.415 62.295,153.517 89.942 C 154.244 94.841,154.258 94.434,153.361 94.347 C 149.940 94.017,148.293 97.753,148.868 104.538 C 149.923 116.965,152.721 124.002,157.435 126.087 C 158.529 126.571,158.595 126.662,158.873 128.063 C 161.646 142.046,164.760 148.592,171.808 155.258 L 173.252 156.623 172.964 161.143 C 171.260 187.943,170.298 189.347,144.779 202.295 C 142.145 203.632,135.965 206.828,132.864 208.457 C 131.454 209.198,129.033 210.466,127.482 211.276 C 118.927 215.747,113.647 218.680,108.905 221.596 C 93.079 231.328,86.333 240.378,83.695 255.413 L 83.549 256.246 203.855 256.246 L 324.161 256.246 324.040 255.669 C 320.298 237.899,313.975 230.202,293.530 218.529 C 288.136 215.450,288.522 215.660,281.871 212.183 C 278.559 210.452,274.772 208.469,273.455 207.776 C 272.138 207.083,268.564 205.235,265.511 203.669 C 236.521 188.801,236.502 188.774,234.517 159.385 L 234.301 156.182 235.728 154.554 C 242.421 146.921,243.946 143.484,247.184 128.739 L 247.639 126.664 249.237 125.836 C 253.794 123.474,256.521 116.884,257.280 106.400 C 257.886 98.039,256.081 93.559,252.471 94.464 C 251.841 94.623,251.834 94.608,251.991 93.373 C 253.713 79.821,253.869 65.147,252.385 56.320 C 250.153 43.036,240.891 33.034,230.502 32.688 L 228.205 32.612 227.331 30.976 C 222.213 21.400,214.593 18.117,200.897 19.586 " stroke="none" fill="#fbfbfb" fill-rule="evenodd"></path><path id="path1" d="M0.000 128.123 L 0.000 256.246 41.585 256.246 L 83.169 256.246 83.781 253.619 C 85.277 247.190,88.113 240.131,90.423 237.087 C 92.530 234.310,93.339 233.356,94.929 231.768 C 96.477 230.223,97.476 229.351,100.568 226.841 C 103.242 224.670,113.726 218.227,120.051 214.866 C 121.320 214.192,123.165 213.210,124.151 212.682 C 125.138 212.155,126.810 211.262,127.867 210.698 C 128.924 210.134,132.095 208.491,134.914 207.046 C 148.546 200.057,155.701 196.320,158.360 194.798 C 163.932 191.608,167.969 187.214,169.826 182.319 C 171.040 179.119,172.026 172.041,172.733 161.435 C 172.889 159.110,173.033 157.121,173.055 157.016 C 173.076 156.911,172.280 156.046,171.284 155.094 C 164.409 148.519,160.870 140.973,158.472 127.773 C 158.314 126.906,158.146 126.718,157.121 126.265 C 153.115 124.493,150.318 118.479,148.979 108.760 C 147.616 98.859,149.025 94.057,153.299 94.044 C 153.844 94.042,153.848 94.376,153.247 90.199 C 148.740 58.883,157.808 35.057,177.787 25.722 C 191.369 19.375,208.873 17.187,217.364 20.773 C 221.559 22.544,225.481 26.493,227.807 31.285 L 228.378 32.462 229.564 32.352 C 234.773 31.869,241.856 35.616,246.060 41.080 C 249.103 45.034,250.736 48.268,251.970 52.787 C 253.896 59.838,254.275 76.618,252.783 88.831 C 252.185 93.723,252.210 93.949,253.354 94.164 C 257.663 94.972,258.666 100.172,256.871 112.398 C 255.911 118.941,252.868 124.418,249.193 126.216 L 247.814 126.890 247.400 128.852 C 244.341 143.353,242.254 148.068,235.985 154.644 L 234.519 156.182 234.999 162.204 C 235.986 174.571,236.569 178.876,237.689 182.056 C 239.653 187.632,244.301 192.250,252.018 196.293 C 253.427 197.031,255.322 198.037,256.228 198.527 C 257.911 199.438,260.910 200.985,271.721 206.520 C 275.088 208.244,278.489 210.009,279.280 210.443 C 281.323 211.564,282.849 212.380,286.355 214.226 C 288.046 215.117,289.833 216.076,290.327 216.357 C 290.820 216.639,292.377 217.523,293.786 218.322 C 309.635 227.306,316.572 233.914,321.087 244.331 C 321.776 245.919,322.899 249.640,323.621 252.723 L 324.446 256.246 362.223 256.246 L 400.000 256.246 400.000 128.123 L 400.000 0.000 200.000 0.000 L 0.000 0.000 0.000 128.123 " stroke="none" fill="#d3d3db" fill-rule="evenodd"></path><path id="path2" d="M221.397 23.399 C 221.397 23.443,221.771 23.817,222.229 24.231 L 223.062 24.984 222.310 24.151 C 221.608 23.375,221.397 23.201,221.397 23.399 M167.571 32.735 L 166.688 33.696 167.649 32.813 C 168.543 31.991,168.728 31.775,168.532 31.775 C 168.489 31.775,168.057 32.207,167.571 32.735 M165.395 34.914 L 164.382 36.003 165.471 34.990 C 166.484 34.048,166.678 33.824,166.484 33.824 C 166.442 33.824,165.952 34.315,165.395 34.914 M243.679 38.757 C 244.308 39.427,244.855 39.974,244.896 39.974 C 245.089 39.974,244.885 39.744,243.754 38.682 L 242.537 37.540 243.679 38.757 M253.230 64.061 C 253.230 64.555,253.283 64.757,253.348 64.510 C 253.412 64.263,253.412 63.860,253.348 63.613 C 253.283 63.366,253.230 63.568,253.230 64.061 M253.526 70.724 C 253.526 72.486,253.567 73.206,253.617 72.325 C 253.667 71.445,253.667 70.003,253.617 69.122 C 253.567 68.242,253.526 68.962,253.526 70.724 M152.275 78.027 C 152.278 78.591,152.330 78.791,152.391 78.472 C 152.453 78.154,152.450 77.692,152.386 77.447 C 152.322 77.202,152.272 77.463,152.275 78.027 M253.241 78.155 C 253.241 78.789,253.291 79.049,253.352 78.732 C 253.413 78.414,253.413 77.896,253.352 77.578 C 253.291 77.261,253.241 77.521,253.241 78.155 M252.979 82.896 C 252.982 83.459,253.035 83.660,253.096 83.341 C 253.157 83.022,253.155 82.561,253.091 82.316 C 253.027 82.071,252.977 82.332,252.979 82.896 M252.206 91.480 C 252.206 91.973,252.258 92.175,252.323 91.928 C 252.387 91.682,252.387 91.278,252.323 91.031 C 252.258 90.785,252.206 90.987,252.206 91.480 M148.682 103.780 C 148.682 104.273,148.735 104.475,148.799 104.228 C 148.864 103.981,148.864 103.578,148.799 103.331 C 148.735 103.085,148.682 103.286,148.682 103.780 M257.344 105.701 C 257.346 106.406,257.396 106.664,257.455 106.275 C 257.514 105.885,257.512 105.308,257.451 104.993 C 257.391 104.678,257.342 104.997,257.344 105.701 M154.516 124.151 C 154.994 124.644,155.443 125.048,155.514 125.048 C 155.584 125.048,155.251 124.644,154.773 124.151 C 154.294 123.658,153.846 123.254,153.775 123.254 C 153.705 123.254,154.038 123.658,154.516 124.151 M236.245 153.940 L 235.362 154.901 236.323 154.018 C 236.851 153.532,237.284 153.100,237.284 153.057 C 237.284 152.861,237.067 153.045,236.245 153.940 M234.525 159.129 C 234.525 159.622,234.577 159.824,234.642 159.577 C 234.706 159.331,234.706 158.927,234.642 158.680 C 234.577 158.434,234.525 158.635,234.525 159.129 M172.774 162.332 C 172.777 162.896,172.830 163.096,172.891 162.777 C 172.952 162.459,172.950 161.997,172.886 161.752 C 172.822 161.507,172.772 161.768,172.774 162.332 M234.795 163.101 C 234.797 163.805,234.846 164.063,234.905 163.674 C 234.964 163.284,234.963 162.708,234.902 162.392 C 234.841 162.077,234.793 162.396,234.795 163.101 M242.281 189.878 C 243.117 190.724,243.860 191.416,243.930 191.416 C 244.001 191.416,243.374 190.724,242.537 189.878 C 241.700 189.033,240.958 188.341,240.887 188.341 C 240.817 188.341,241.444 189.033,242.281 189.878 M165.141 189.942 L 163.869 191.288 165.215 190.016 C 166.465 188.834,166.677 188.597,166.486 188.597 C 166.446 188.597,165.840 189.202,165.141 189.942 M266.240 204.100 C 266.592 204.301,266.996 204.466,267.136 204.466 C 267.277 204.466,267.104 204.301,266.752 204.100 C 266.400 203.899,265.996 203.734,265.855 203.734 C 265.714 203.734,265.887 203.899,266.240 204.100 M272.389 207.162 C 272.389 207.232,272.735 207.469,273.158 207.687 C 273.581 207.906,273.927 208.027,273.927 207.957 C 273.927 207.886,273.581 207.650,273.158 207.431 C 272.735 207.212,272.389 207.091,272.389 207.162 M132.415 208.475 C 131.457 208.994,131.515 209.211,132.479 208.712 C 132.902 208.494,133.248 208.260,133.248 208.193 C 133.248 208.028,133.220 208.038,132.415 208.475 M279.308 210.749 C 279.308 210.820,279.654 211.056,280.077 211.275 C 280.500 211.493,280.846 211.615,280.846 211.544 C 280.846 211.474,280.500 211.237,280.077 211.019 C 279.654 210.800,279.308 210.679,279.308 210.749 M94.671 232.223 L 93.658 233.312 94.747 232.299 C 95.760 231.357,95.954 231.134,95.760 231.134 C 95.718 231.134,95.228 231.624,94.671 232.223 " stroke="none" fill="#e4ecec" fill-rule="evenodd"></path><path id="path3" d="M253.492 66.752 C 253.495 67.316,253.547 67.516,253.609 67.198 C 253.670 66.879,253.667 66.418,253.603 66.173 C 253.539 65.928,253.489 66.188,253.492 66.752 M253.497 74.824 C 253.497 75.458,253.547 75.717,253.608 75.400 C 253.669 75.083,253.669 74.564,253.608 74.247 C 253.547 73.930,253.497 74.190,253.497 74.824 M253.236 80.077 C 253.239 80.641,253.291 80.841,253.352 80.522 C 253.414 80.204,253.411 79.742,253.347 79.497 C 253.283 79.252,253.233 79.513,253.236 80.077 M169.891 153.619 C 170.369 154.113,170.818 154.516,170.888 154.516 C 170.959 154.516,170.625 154.113,170.147 153.619 C 169.669 153.126,169.220 152.723,169.150 152.723 C 169.079 152.723,169.413 153.126,169.891 153.619 M96.460 230.429 L 95.708 231.262 96.541 230.509 C 97.317 229.808,97.491 229.596,97.293 229.596 C 97.249 229.596,96.874 229.971,96.460 230.429 " stroke="none" fill="#e3e4ec" fill-rule="evenodd"></path><path id="path4" d="M205.061 19.152 C 206.012 19.202,207.569 19.202,208.520 19.152 C 209.471 19.103,208.693 19.063,206.791 19.063 C 204.888 19.063,204.110 19.103,205.061 19.152 M200.452 19.402 C 200.841 19.461,201.418 19.460,201.733 19.399 C 202.048 19.338,201.730 19.290,201.025 19.292 C 200.320 19.294,200.062 19.343,200.452 19.402 M167.315 32.735 L 166.432 33.696 167.393 32.813 C 168.287 31.991,168.471 31.775,168.276 31.775 C 168.233 31.775,167.801 32.207,167.315 32.735 M229.404 32.471 C 229.792 32.529,230.426 32.529,230.814 32.471 C 231.201 32.412,230.884 32.364,230.109 32.364 C 229.334 32.364,229.017 32.412,229.404 32.471 M165.265 34.785 L 164.382 35.746 165.343 34.863 C 166.237 34.041,166.421 33.824,166.226 33.824 C 166.183 33.824,165.751 34.257,165.265 34.785 M243.818 38.693 C 244.512 39.398,245.138 39.974,245.208 39.974 C 245.279 39.974,244.768 39.398,244.074 38.693 C 243.380 37.988,242.755 37.412,242.684 37.412 C 242.614 37.412,243.124 37.988,243.818 38.693 M253.487 65.086 C 253.487 65.580,253.539 65.782,253.604 65.535 C 253.668 65.288,253.668 64.885,253.604 64.638 C 253.539 64.391,253.487 64.593,253.487 65.086 M253.504 77.130 C 253.504 77.905,253.552 78.222,253.611 77.835 C 253.670 77.447,253.670 76.813,253.611 76.425 C 253.552 76.038,253.504 76.355,253.504 77.130 M253.248 82.255 C 253.248 83.030,253.296 83.347,253.355 82.960 C 253.413 82.572,253.413 81.938,253.355 81.550 C 253.296 81.163,253.248 81.480,253.248 82.255 M252.974 85.842 C 252.974 86.336,253.027 86.537,253.091 86.291 C 253.156 86.044,253.156 85.641,253.091 85.394 C 253.027 85.147,252.974 85.349,252.974 85.842 M252.184 93.466 C 252.150 94.220,252.212 94.295,252.851 94.264 C 253.431 94.235,253.457 94.210,252.994 94.120 C 252.620 94.047,252.398 93.781,252.328 93.322 C 252.233 92.700,252.219 92.714,252.184 93.466 M153.107 94.042 L 152.338 94.238 153.171 94.268 C 153.629 94.285,154.004 94.183,154.004 94.042 C 154.004 93.901,153.975 93.800,153.940 93.816 C 153.905 93.833,153.530 93.935,153.107 94.042 M148.456 101.986 C 148.456 103.184,148.500 103.674,148.554 103.075 C 148.608 102.476,148.608 101.496,148.554 100.897 C 148.500 100.298,148.456 100.788,148.456 101.986 M257.621 103.139 C 257.621 104.548,257.665 105.092,257.716 104.348 C 257.768 103.603,257.768 102.450,257.715 101.785 C 257.663 101.120,257.620 101.730,257.621 103.139 M154.516 124.407 C 154.994 124.901,155.443 125.304,155.514 125.304 C 155.584 125.304,155.251 124.901,154.773 124.407 C 154.294 123.914,153.846 123.511,153.775 123.511 C 153.705 123.511,154.038 123.914,154.516 124.407 M172.513 164.254 C 172.513 164.747,172.566 164.949,172.630 164.702 C 172.695 164.455,172.695 164.052,172.630 163.805 C 172.566 163.559,172.513 163.760,172.513 164.254 M235.042 164.382 C 235.045 164.946,235.098 165.146,235.159 164.827 C 235.220 164.509,235.218 164.047,235.154 163.802 C 235.090 163.557,235.039 163.818,235.042 164.382 M165.022 189.750 C 164.400 190.384,163.948 190.903,164.019 190.903 C 164.089 190.903,164.656 190.384,165.279 189.750 C 165.901 189.116,166.353 188.597,166.282 188.597 C 166.212 188.597,165.645 189.116,165.022 189.750 M242.537 189.878 C 243.231 190.583,243.856 191.160,243.927 191.160 C 243.997 191.160,243.487 190.583,242.793 189.878 C 242.099 189.174,241.473 188.597,241.403 188.597 C 241.333 188.597,241.843 189.174,242.537 189.878 M110.378 220.262 C 109.420 220.782,109.478 220.998,110.442 220.500 C 110.865 220.281,111.211 220.047,111.211 219.981 C 111.211 219.816,111.183 219.825,110.378 220.262 M94.811 231.775 C 94.189 232.409,93.737 232.928,93.807 232.928 C 93.878 232.928,94.445 232.409,95.067 231.775 C 95.690 231.140,96.141 230.621,96.071 230.621 C 96.000 230.621,95.433 231.140,94.811 231.775 M313.901 233.264 C 313.901 233.308,314.276 233.683,314.734 234.097 L 315.567 234.849 314.814 234.017 C 314.113 233.240,313.901 233.066,313.901 233.264 " stroke="none" fill="#dcdbdf" fill-rule="evenodd"></path></g></svg>