<svg width="331" height="259" viewBox="0 0 331 259" fill="none" xmlns="http://www.w3.org/2000/svg">
<g clip-path="url(#clip0_8655_153347)">
<path opacity="0.1" d="M116.109 253.834C147.997 253.834 173.848 248.94 173.848 242.902C173.848 236.865 147.997 231.971 116.109 231.971C84.2214 231.971 58.3711 236.865 58.3711 242.902C58.3711 248.94 84.2214 253.834 116.109 253.834Z" fill="#CF3135"/>
<path opacity="0.1" d="M192.315 36.5029C171.095 35.7689 150.885 28.9203 131.586 21.4294C112.288 13.9386 93.1728 5.64161 72.4611 1.67336C59.1396 -0.879297 43.9034 -1.24303 33.1722 5.88738C22.8409 12.7687 19.5032 24.6145 17.7097 35.6149C16.3589 43.8922 15.5654 52.6053 19.2638 60.355C21.8344 65.7356 26.3918 70.2576 29.5459 75.4121C40.5198 93.343 32.7623 115.455 20.8737 132.963C15.2999 141.175 8.82439 149.02 4.51943 157.753C0.214464 166.485 -1.77572 176.526 1.99153 185.458C5.72272 194.306 14.6179 200.938 24.254 205.607C43.8247 215.094 66.8774 217.807 89.3727 219.347C139.154 222.749 189.197 221.277 239.109 219.799C257.581 219.256 276.132 218.702 294.303 215.848C304.395 214.262 314.811 211.745 322.139 205.67C331.437 197.959 333.742 184.904 327.51 175.238C317.057 159.017 288.165 154.99 280.85 137.587C276.83 128.005 280.958 117.336 286.804 108.452C299.342 89.3911 320.355 72.6694 321.46 50.8849C322.221 35.9229 312.119 20.9379 296.499 13.8567C280.129 6.43461 257.424 7.36851 245.351 19.6534C232.909 32.2889 211.053 37.155 192.315 36.5029Z" fill="#CF3135"/>
<path d="M175.451 118.536L165.408 111.77L170.474 104.233L143.949 102.119L134.418 109.486L122.486 102.801L112.535 103.997L112.417 101.376C112.294 98.6428 112.02 95.9188 111.595 93.2163C111.637 92.3971 111.667 91.4567 111.663 90.4343C111.663 86.1252 111.08 80.4137 108.516 76.606L109.106 71.3041L104.319 65.6515C105.088 64.1211 105.964 62.6472 106.942 61.2409C107.106 61.005 107.27 60.7756 107.447 60.5528C113.66 60.1039 118.562 54.9985 118.562 48.7562C118.562 48.4678 118.562 48.1794 118.529 47.8943C118.529 47.7797 118.506 47.6617 118.493 47.547C119.1 47.8747 119.713 48.2024 120.326 48.5301C120.44 48.6939 120.572 48.8577 120.716 49.0511L120.745 49.0871L120.929 49.3132L120.988 49.382C121.054 49.4607 121.122 49.536 121.191 49.6147L121.237 49.6671C121.411 49.8605 121.595 50.0571 121.791 50.2504C121.815 50.2694 121.837 50.2903 121.857 50.3127L122.103 50.542L122.172 50.6043C122.382 50.7911 122.604 50.9713 122.827 51.1417L122.9 51.1941L123.182 51.3875L123.273 51.4464C123.382 51.512 123.493 51.5808 123.601 51.6431L123.641 51.666C123.768 51.7348 123.9 51.8003 124.031 51.8626L124.096 51.8888C124.208 51.9369 124.317 51.9827 124.424 52.0264L124.526 52.0625C124.641 52.1018 124.752 52.1379 124.87 52.1706L124.942 52.1903C125.086 52.2263 125.231 52.2558 125.378 52.2788H125.395C125.534 52.3012 125.674 52.3154 125.814 52.3214H125.909C126.035 52.3279 126.161 52.3279 126.286 52.3214H126.368C126.526 52.3123 126.682 52.2937 126.837 52.2656C127.571 52.1692 128.275 51.9167 128.903 51.5251C129.063 51.4183 129.204 51.2866 129.323 51.1351C129.978 50.2766 129.257 49.3362 129.257 49.3362C129.001 48.7267 127.342 48.2974 127.342 48.2974C127.342 48.2974 122.096 46.1085 122.096 44.3652C122.096 42.6219 120.785 33.5778 107.247 31.5101C107.247 31.5101 98.4403 31.0153 95.9648 35.7274L95.9124 36.2779C95.1845 36.7334 94.5812 37.6477 93.8632 37.9164C93.553 37.983 93.2538 38.0933 92.9746 38.2441V38.1818C92.8918 38.2542 92.8238 38.3422 92.7746 38.4407C92.6204 38.7474 92.5279 39.0814 92.5025 39.4237C92.4286 39.8419 92.2834 40.2443 92.073 40.6132C92.0143 40.718 91.9486 40.8188 91.8763 40.9147L91.8205 41.0032C92.2012 41.0328 92.5834 40.971 92.9353 40.8229C92.8799 41.2716 92.7697 41.7117 92.6074 42.1337C92.8159 42.1404 93.0218 42.0872 93.2009 41.9803C93.3799 41.8734 93.5244 41.7173 93.6173 41.5307V41.5045L93.6599 41.4455C93.7424 41.2938 93.8104 41.1348 93.8632 40.9704L93.8271 41.0097C93.8927 40.7967 93.9517 40.5804 94.0238 40.3707C94.0569 40.2526 94.1113 40.1415 94.1845 40.043C94.272 39.9549 94.379 39.8885 94.4969 39.8492C94.6148 39.8099 94.7403 39.7989 94.8632 39.8169L94.7288 42.658H94.7878C94.7088 42.8646 94.6123 43.0641 94.4993 43.2543C94.0337 44.008 93.1878 44.5225 92.8763 45.3482C92.742 45.7465 92.6907 46.168 92.7255 46.5869C92.7255 46.8326 92.755 47.0817 92.7746 47.3275V47.3078C92.8205 47.9632 92.8337 48.5858 92.4796 49.1133C92.2369 49.4738 91.8468 49.7458 91.7123 50.1554C91.6752 50.2695 91.6585 50.3893 91.6632 50.5093C91.6895 50.8684 91.7645 51.2222 91.8861 51.5611C91.8875 51.5547 91.8875 51.5479 91.8861 51.5415C91.9679 51.7908 91.987 52.0564 91.9418 52.3148C91.7943 52.9702 90.9976 53.5174 91.0369 54.1433C91.0347 54.2256 91.0469 54.3077 91.073 54.3858C91.2263 54.6915 91.4917 54.9262 91.814 55.0411C92.3195 55.3284 92.9001 55.4563 93.4796 55.4081C93.6968 55.3689 93.9068 55.2971 94.1025 55.1951C93.873 55.7227 93.6369 56.2437 93.3976 56.7385C93.3615 56.8172 93.3222 56.8958 93.2828 56.9745C93.2828 56.9745 91.2566 55.6211 90.1058 58.3802C89.7698 58.9536 89.5295 59.5778 89.3943 60.2284C89.3366 60.4886 89.2554 60.7431 89.1517 60.9886C88.6408 61.853 87.8761 62.5395 86.9615 62.9547C84.6139 64.0295 75.1318 75.8491 74.9646 78.9096C74.8826 80.1044 74.6805 81.2878 74.3613 82.4421C73.6149 85.1603 73.4231 88.0009 73.7974 90.7947C73.9146 91.6977 74.1087 92.5889 74.3777 93.4588C75.3843 96.5161 76.0565 102.221 76.0565 102.221L77.145 112.124C77.1046 113.49 77.1637 114.858 77.322 116.216C76.2105 117.485 71.7482 122.77 73.4531 124.209C74.7646 125.342 77.0597 125.156 78.3483 124.923C77.263 127.607 75.5548 132.273 75.3286 135.478C75.0007 140.219 75.8892 146.501 77.2958 148.913C78.7024 151.325 83.3909 157.511 83.3909 157.511C83.3909 157.511 83.1713 165.998 84.8467 169.082C86.5221 172.165 87.1975 178.562 87.1975 178.562C87.1975 178.562 88.7615 183.962 87.9779 185.948C87.1943 187.933 89.4303 189.585 87.0828 190.905C84.7352 192.226 81.7319 221.99 81.7319 221.99C81.7319 221.99 80.5221 241.497 81.7319 242.489C81.7967 242.537 81.8658 242.577 81.9385 242.611V249.164C81.9385 249.164 81.0991 250.541 84.5123 250.819C86.85 251.006 93.4763 251.429 97.4075 251.674L100.453 251.865C100.453 251.865 107.667 253.3 110.854 251.865C114.04 250.429 119.69 250.462 118.85 246.671C118.739 246.155 118.59 245.648 118.404 245.154C117.483 242.801 115.919 242.532 113.037 241.877C112.87 241.841 112.709 241.808 112.562 241.782C109.526 241.254 108.529 242.666 106.827 240.828C105.349 239.239 100.64 237.46 99.037 236.896C99.0764 236.778 99.1255 236.663 99.1649 236.542C98.7109 236.465 98.2886 236.259 97.9485 235.949L102.293 236.224L104.88 236.385C104.88 236.385 111.011 237.607 113.732 236.385C116.454 235.162 121.241 235.195 120.526 231.974C120.432 231.535 120.306 231.104 120.149 230.683C119.365 228.684 118.034 228.465 115.585 227.911C115.444 227.881 115.313 227.852 115.181 227.829C112.601 227.38 111.755 228.579 110.309 227.02C109.07 225.689 105.158 224.198 103.752 223.69C103.752 222.963 102.768 221.927 102.149 220.889C101.421 219.676 102.765 215.433 102.765 215.433L103.532 197.826C103.824 197.696 104.133 197.608 104.45 197.564C104.45 197.564 107.919 194.254 107.135 190.729C106.976 189.662 106.893 188.586 106.886 187.507C108.027 186.449 109.598 184.886 110.044 183.923C110.772 182.353 110.044 174.747 110.044 174.747V145.665L115.847 146.252L121.113 146.793L122.716 146.957L127.982 147.487L140.083 148.71L150.988 146.645L155.706 145.754L165.408 143.919V120.195L175.451 118.536ZM95.578 39.9218L94.9025 39.8497C95.1255 39.8595 95.3616 39.9021 95.578 39.9218Z" fill="url(#paint0_linear_8655_153347)"/>
<path d="M151.913 133.941C148.634 138.63 136.847 136.146 136.847 136.146L127.713 127.603L126.483 126.447L128.546 122.069C128.546 122.069 129.201 122.249 130.326 122.57C136.231 124.284 154.68 129.999 151.913 133.941Z" fill="#EFB7B9"/>
<path opacity="0.1" d="M130.32 122.57C129.916 123.973 128.811 126.073 127.713 127.603L126.483 126.447L128.546 122.069C128.546 122.069 129.208 122.249 130.32 122.57Z" fill="black"/>
<path d="M98.9911 73.2013C98.9911 73.2013 90.5713 76.9336 90.9844 86.0989C91.2817 92.0036 91.9254 97.8859 92.9123 103.715C92.9123 103.715 91.191 117.507 98.3583 121.063C105.526 124.618 112.158 127.541 112.158 127.541C112.158 127.541 123.372 128.747 124.765 129.245C126.159 129.743 130.513 122.128 129.709 120.942C128.906 119.755 118.614 117.268 117.303 115.289C115.991 113.31 112.958 112.088 112.958 112.088C112.958 112.088 109.827 110.194 109.614 108.483C109.401 106.772 110.227 105.498 110.437 104.747C110.647 103.997 111.178 96.7519 111.178 96.7519C111.178 96.7519 114.713 70.9632 98.9911 73.2013Z" fill="#DCE6F2"/>
<path opacity="0.1" d="M104.549 103.339C104.549 103.339 92.9977 105.272 94.1158 109.312C94.1158 109.312 98.3093 104.951 104.549 103.339Z" fill="black"/>
<path opacity="0.1" d="M104.637 104.974C104.637 104.974 98.2862 110.154 99.5288 110.42C100.771 110.685 104.637 104.974 104.637 104.974Z" fill="black"/>
<path opacity="0.1" d="M107.689 106.779C107.689 106.779 105.988 110.262 107.034 110.026C108.08 109.791 107.689 106.779 107.689 106.779Z" fill="black"/>
<path opacity="0.1" d="M130.746 122.941L130.044 122.741C130.244 122.085 130.3 121.554 130.136 121.309C129.333 120.122 119.047 117.639 117.739 115.656C116.431 113.674 113.395 112.455 113.395 112.455C113.395 112.455 110.263 110.561 110.05 108.85C109.837 107.14 110.663 105.865 110.873 105.115C111.083 104.364 111.614 97.1157 111.614 97.1157C111.614 97.1157 115.139 71.3303 99.4175 73.5684C99.4175 73.5684 90.9977 77.304 91.4076 86.4693C91.7049 92.3742 92.3498 98.2564 93.3387 104.086C93.3387 104.086 91.6174 117.878 98.7847 121.433C105.952 124.989 112.585 127.911 112.585 127.911C112.585 127.911 123.795 129.114 125.191 129.615C125.719 129.806 126.673 128.826 127.608 127.479L128.139 127.974L137.274 136.513C137.274 136.513 149.061 139 152.339 134.311C155.11 130.366 136.664 124.651 130.746 122.941Z" fill="black"/>
<path d="M94.1452 38.8011C93.8242 38.8638 93.5168 38.9825 93.237 39.1517C92.9091 39.4237 92.9091 39.889 92.8271 40.2954C92.7308 40.8606 92.5066 41.3963 92.1714 41.8617C92.5445 41.889 92.9187 41.8273 93.2632 41.6815C93.2071 42.13 93.097 42.5701 92.9353 42.9922C93.1396 42.9974 93.3411 42.9436 93.5156 42.8372C93.69 42.7309 93.8301 42.5765 93.919 42.3925C94.0924 42.0233 94.2297 41.6381 94.3288 41.2424C94.3596 41.124 94.413 41.0127 94.4862 40.9147C94.7878 40.5575 95.3485 40.7181 95.8141 40.7639C96.2015 40.7966 96.5907 40.7251 96.9412 40.5569C97.2917 40.3886 97.5908 40.1298 97.8075 39.8071C98.3026 39.0567 98.3321 37.1365 97.1518 36.9333C95.919 36.7302 95.1518 38.4276 94.1452 38.8011Z" fill="#31252B"/>
<g opacity="0.1">
<path opacity="0.1" d="M93.2041 39.5548C93.2336 39.3942 93.2533 39.2271 93.2893 39.0665C92.9778 39.3385 92.9615 39.8005 92.8795 40.2101C92.8382 40.4465 92.7734 40.6781 92.686 40.9016C92.9442 40.4903 93.1201 40.033 93.2041 39.5548Z" fill="black"/>
<path opacity="0.1" d="M93.3092 42.2614C93.4725 41.8398 93.5826 41.3995 93.6371 40.9507C93.3088 41.0888 92.9534 41.1504 92.5978 41.1309C92.4942 41.3614 92.3679 41.5809 92.2207 41.7863C92.5925 41.815 92.9657 41.7543 93.3092 41.6093C93.2548 42.0581 93.1446 42.4984 92.9814 42.92C93.1856 42.9248 93.3869 42.8709 93.5613 42.7645C93.7356 42.6582 93.8758 42.5041 93.965 42.3204C94.0467 42.1715 94.1126 42.0144 94.1617 41.8518C94.0655 41.9862 93.937 42.0941 93.788 42.1657C93.639 42.2373 93.4743 42.2702 93.3092 42.2614Z" fill="black"/>
<path opacity="0.1" d="M96.1878 40.0332C95.7223 39.9873 95.1583 39.8267 94.8567 40.1839C94.7849 40.2827 94.7315 40.3938 94.6993 40.5116C94.6698 40.5968 94.6436 40.6853 94.6206 40.7737C94.9321 40.528 95.437 40.659 95.86 40.7016C96.2473 40.7332 96.6361 40.6613 96.9864 40.4931C97.3367 40.325 97.636 40.0667 97.8534 39.7448C97.9528 39.5857 98.0269 39.4121 98.0731 39.2303C97.8486 39.5081 97.5592 39.7265 97.2305 39.8665C96.9019 40.0065 96.5438 40.0637 96.1878 40.0332Z" fill="black"/>
</g>
<path d="M104.014 65.8645L109.014 71.8742L108.362 77.9396L102.319 68.486L104.014 65.8645Z" fill="#DCE6F2"/>
<path opacity="0.1" d="M109.011 71.8742L108.398 77.5792L108.358 77.9396L102.906 69.4068L102.319 68.486L102.489 68.2205L104.011 65.8645L104.348 66.2708L109.011 71.8742Z" fill="black"/>
<path d="M111.608 57.7282C109.916 58.2131 108.3 59.8778 106.893 61.8996C105.942 63.2946 105.092 64.7554 104.349 66.2709C103.886 67.195 103.48 68.083 103.142 68.8563L102.906 69.4068C102.336 70.7536 102.018 71.6548 102.018 71.6548C102.018 71.6548 89.0666 61.9225 91.1158 61.2672C91.8044 61.0476 92.7093 59.573 93.6044 57.7151L93.7159 57.4791C94.2831 56.2864 94.8405 54.956 95.3356 53.7042C96.3487 51.1319 97.0995 48.8971 97.0995 48.8971C97.0995 48.8971 116.772 56.2536 111.608 57.7282Z" fill="#EFB7B9"/>
<path d="M119.355 48.3499C119.355 48.3499 122.346 53.7566 126.362 53.0193C130.379 52.2821 128.726 50.1161 128.726 50.1161L119.355 48.3499Z" fill="#444053"/>
<path d="M113.562 235.506C110.913 236.715 104.923 235.506 104.923 235.506L102.398 235.349C99.1192 235.139 93.6306 234.785 91.6896 234.628C88.8568 234.395 89.5519 233.235 89.5519 233.235V226.226L103.296 222.746C103.296 222.746 108.729 224.604 110.218 226.226C111.631 227.773 112.457 226.584 114.978 227.029C115.103 227.052 115.234 227.078 115.372 227.111C117.765 227.658 119.064 227.875 119.831 229.857C119.985 230.274 120.109 230.701 120.201 231.135C120.91 234.327 116.208 234.304 113.562 235.506Z" fill="#A36468"/>
<path opacity="0.1" d="M119.831 229.857C119.338 230.165 118.821 230.43 118.283 230.65C116.48 231.473 114.765 232.475 112.942 233.252C111.119 234.029 109.155 234.582 107.182 234.435C106.149 234.36 105.093 234.107 104.106 234.402C103.496 234.638 102.921 234.956 102.398 235.349C99.1192 235.139 93.6306 234.786 91.6896 234.628C88.8568 234.396 89.5519 233.236 89.5519 233.236V232.416C89.6535 232.416 89.7683 232.387 89.8994 232.377C90.578 232.366 91.2536 232.467 91.8995 232.675C93.3224 233.062 94.7388 233.442 96.1618 233.822C96.2788 233.381 96.4845 232.968 96.7664 232.608C97.0482 232.249 97.4003 231.951 97.8012 231.732C98.6133 231.301 99.5249 231.092 100.444 231.125C102.65 231.155 104.739 232.2 106.942 232.305C107.558 232.362 108.178 232.258 108.742 232.004C109.044 231.853 109.309 231.633 109.605 231.466C110.077 231.238 110.576 231.069 111.09 230.965C112.535 230.605 113.953 230.148 115.336 229.595C115.729 229.441 116.188 229.163 116.136 228.743C116.067 228.186 115.191 228.12 114.962 227.609C114.921 227.517 114.903 227.417 114.907 227.316C114.912 227.216 114.94 227.117 114.988 227.029C115.113 227.052 115.244 227.078 115.382 227.111C117.765 227.658 119.064 227.875 119.831 229.857Z" fill="black"/>
<path d="M110.762 250.842C107.647 252.264 100.598 250.842 100.598 250.842L97.6307 250.669C93.788 250.423 87.3159 250.013 85.0306 249.82C81.6961 249.545 82.5158 248.181 82.5158 248.181V239.921L98.6897 235.824C98.6897 235.824 105.083 238.01 106.834 239.921C108.496 241.739 109.457 240.34 112.437 240.864C112.585 240.89 112.739 240.923 112.9 240.959C115.716 241.615 117.244 241.86 118.146 244.194C118.328 244.683 118.474 245.186 118.582 245.698C119.395 249.453 113.877 249.423 110.762 250.842Z" fill="#A36468"/>
<path opacity="0.1" d="M118.139 244.193C117.56 244.555 116.951 244.867 116.319 245.127C114.198 246.094 112.178 247.274 110.034 248.188C107.89 249.102 105.578 249.751 103.254 249.58C102.041 249.492 100.798 249.187 99.6471 249.541C98.926 249.822 98.2474 250.201 97.6307 250.668C93.7881 250.423 87.3159 250.013 85.0306 249.82C81.6961 249.544 82.5158 248.181 82.5158 248.181V247.218C82.6516 247.196 82.7883 247.18 82.9256 247.172C83.7244 247.157 84.52 247.276 85.2798 247.523L90.2929 248.873C90.4326 248.352 90.677 247.865 91.0113 247.442C91.3456 247.019 91.7628 246.668 92.2372 246.412C93.1928 245.903 94.2666 245.656 95.3487 245.697C97.9455 245.733 100.401 246.962 102.995 247.087C103.717 247.153 104.444 247.032 105.106 246.736C105.464 246.556 105.762 246.297 106.123 246.104C106.677 245.832 107.265 245.634 107.87 245.514C109.561 245.088 111.222 244.549 112.841 243.902C113.303 243.718 113.844 243.391 113.782 242.899C113.7 242.244 112.67 242.165 112.398 241.562C112.352 241.453 112.331 241.336 112.337 241.218C112.343 241.1 112.375 240.984 112.431 240.88C112.578 240.907 112.733 240.939 112.893 240.976C115.71 241.605 117.237 241.86 118.139 244.193Z" fill="black"/>
<path d="M103.713 194.156L102.837 214.744C102.837 214.744 101.526 218.949 102.237 220.151C102.949 221.354 104.149 222.553 103.713 223.264C103.277 223.975 98.0306 231.663 96.3355 228.714C94.6404 225.764 92.9683 212.985 92.9683 212.985L94.5322 197.2L103.713 194.156Z" fill="#444053"/>
<path d="M107.509 142.86L109.942 146.111V174.384C109.942 174.384 110.654 181.92 109.942 183.477C109.231 185.033 105.624 188.146 105.624 188.146L102.591 172.581L103.247 156.115L107.509 142.86Z" fill="#444053"/>
<path opacity="0.1" d="M103.713 194.156L102.837 214.744C102.837 214.744 101.526 218.949 102.237 220.151C102.949 221.354 104.149 222.553 103.713 223.264C103.277 223.975 98.0306 231.663 96.3355 228.714C94.6404 225.764 92.9683 212.985 92.9683 212.985L94.5322 197.2L103.713 194.156Z" fill="black"/>
<path opacity="0.1" d="M107.509 142.86L109.942 146.111V174.384C109.942 174.384 110.654 181.92 109.942 183.477C109.231 185.033 105.624 188.146 105.624 188.146L102.591 172.581L103.247 156.115L107.509 142.86Z" fill="black"/>
<path d="M109.942 130.802V146.095L107.211 157.999C107.211 157.999 106.336 186.727 107.1 190.22C107.864 193.714 104.477 196.994 104.477 196.994C104.477 196.994 102.509 197.213 102.509 198.74C102.509 200.267 99.2307 204.639 99.2307 204.639L99.3389 213.158C99.3389 213.158 100.762 229.107 98.5749 232.164C96.388 235.221 99.3389 235.66 99.3389 235.66C96.6077 244.616 83.4928 242.542 82.3092 241.559C81.1256 240.576 82.3092 221.242 82.3092 221.242C82.3092 221.242 85.2404 191.751 87.5355 190.44C89.8306 189.129 87.647 187.491 88.4109 185.525C89.1749 183.559 87.647 178.208 87.647 178.208C87.647 178.208 86.9912 171.87 85.3519 168.813C83.7125 165.756 83.9289 157.344 83.9289 157.344C83.9289 157.344 79.3387 151.226 77.9747 148.824C76.6108 146.422 75.7321 140.196 76.06 135.497C76.2829 132.322 77.9518 127.698 79.0108 125.038C79.519 123.763 79.8862 122.937 79.8862 122.937L80.1977 123.019L98.1061 127.705L109.942 130.802Z" fill="#444053"/>
<path opacity="0.1" d="M111.608 57.728C109.916 58.213 108.299 59.8776 106.893 61.8994H106.526C104.464 61.9009 102.438 61.3584 100.654 60.3267C98.8689 59.2951 97.3884 57.8109 96.3616 56.0241C95.9324 55.2837 95.5871 54.4979 95.332 53.6811C96.3452 51.1088 97.096 48.874 97.096 48.874C97.096 48.874 116.772 56.2535 111.608 57.728Z" fill="black"/>
<path d="M118.247 49.536C118.25 51.329 117.841 53.0987 117.052 54.7088C116.263 56.3189 115.114 57.7265 113.695 58.8231C112.275 59.9197 110.623 60.6761 108.865 61.034C107.107 61.3918 105.291 61.3417 103.555 60.8873C101.82 60.433 100.212 59.5865 98.8554 58.4133C97.4988 57.24 96.4298 55.7712 95.7308 54.12C95.0317 52.4687 94.7212 50.6792 94.8232 48.8891C94.9251 47.099 95.4369 45.3563 96.319 43.795C96.6743 43.1606 97.0893 42.5615 97.5583 42.0058C98.3315 41.0852 99.2403 40.2875 100.253 39.64C101.965 38.5531 103.929 37.9285 105.954 37.8272C107.979 37.7258 109.996 38.1513 111.807 39.0619C113.619 39.9725 115.163 41.3372 116.289 43.0225C117.414 44.7079 118.084 46.6564 118.231 48.6775C118.237 48.9659 118.247 49.2509 118.247 49.536Z" fill="#EFB7B9"/>
<path opacity="0.1" d="M108.398 77.5792L108.359 77.9396L102.906 69.4198C102.336 70.7666 102.018 71.6677 102.018 71.6677C102.018 71.6677 89.0666 61.9224 91.1158 61.267C91.8044 61.0475 92.7093 59.5729 93.6044 57.7149L93.7159 57.479C94.6667 60.3102 100.191 65.9693 102.49 68.2369C102.755 68.499 102.975 68.7153 103.145 68.8726L103.496 69.2003L103.68 69.3838C104.516 70.2456 108.044 74.0467 108.398 77.5792Z" fill="black"/>
<path d="M112.473 106.488L111.877 125.68L111.772 129.098C111.772 129.098 104.703 128.442 98.106 127.721C92.7944 127.141 87.7878 126.516 87.0173 126.149C86.0337 125.687 83.9255 125.329 82.2632 125.103C80.9779 124.93 79.9681 124.838 79.9681 124.838C79.9681 124.838 79.591 124.949 79.0107 125.054C77.7451 125.284 75.5221 125.47 74.227 124.346C72.5713 122.908 76.9221 117.681 78.0074 116.426L78.2468 116.154L77.8369 112.369L76.7713 102.555C76.7713 102.555 76.1156 96.9028 75.132 93.8717C74.869 93.0099 74.6793 92.1275 74.5647 91.2339C74.1993 88.4655 74.3865 85.6522 75.1156 82.9566C75.4271 81.8111 75.6248 80.6378 75.7057 79.4536C75.8697 76.4225 85.1321 64.7078 87.4272 63.6429C88.4596 63.1617 89.2904 62.3337 89.7747 61.3032C89.9346 60.9792 90.0546 60.637 90.1321 60.2841C91.1157 56.0242 93.6043 57.715 93.6043 57.715C94.2043 61.0476 103.493 69.8688 103.493 69.8688L103.677 70.0524C104.598 70.9961 108.703 75.4264 108.411 79.2078C108.353 80.6153 108.563 82.0209 109.031 83.3498C110.92 89.2955 112.006 95.4669 112.26 101.7L112.473 106.488Z" fill="#DCE6F2"/>
<path opacity="0.1" d="M99.3126 83.697C99.3126 83.697 97.0175 89.2676 95.2961 90.1688C93.5748 91.0699 100.132 92.0693 99.3126 83.697Z" fill="black"/>
<path opacity="0.1" d="M101.034 94.101C101.034 94.101 95.7876 94.7563 95.7876 95.7394C95.7876 96.7224 101.034 94.101 101.034 94.101Z" fill="black"/>
<path opacity="0.1" d="M106.526 100.491C106.526 100.491 98.9026 116.711 96.7714 117.203C94.6403 117.694 106.526 100.491 106.526 100.491Z" fill="black"/>
<path opacity="0.1" d="M103.348 70.6913L97.0435 73.4307L89.4336 61.9421C89.5935 61.6181 89.7135 61.2759 89.791 60.923C90.7746 56.6631 93.2631 58.354 93.2631 58.354C93.8631 61.6865 103.152 70.5078 103.152 70.5078L103.348 70.6913Z" fill="black"/>
<path d="M103.677 70.0359L97.3716 72.7753L89.7617 61.2867C89.9216 60.9627 90.0416 60.6205 90.1191 60.2676C91.1027 56.0077 93.5913 57.6986 93.5913 57.6986C94.1913 61.0311 103.48 69.8524 103.48 69.8524L103.677 70.0359Z" fill="#DCE6F2"/>
<path opacity="0.1" d="M111.772 129.098C111.772 129.098 104.703 128.442 98.1059 127.721L109.942 130.818V134.423C109.424 134.891 108.975 135.134 108.683 135.009C107.319 134.436 96.1878 132.633 96.1878 132.633C96.1878 132.633 89.7222 129.357 82.7451 125.424C82.5757 125.331 82.4115 125.228 82.2532 125.116C81.4397 124.564 80.7387 123.863 80.1876 123.049C78.8991 121.184 78.2696 118.789 77.9975 116.439C77.8445 115.093 77.7875 113.737 77.827 112.383C77.8608 110.847 78.001 109.315 78.2467 107.798C77.5719 101.924 77.2434 96.0158 77.263 90.1033C77.345 80.9282 85.9516 77.6513 85.9516 77.6513C101.771 76.2587 96.8665 101.818 96.8665 101.818C96.8665 101.818 95.9517 109.027 95.7026 109.764C95.4534 110.502 94.5583 111.73 94.6796 113.451C94.8009 115.171 97.8239 117.229 97.8239 117.229C97.8239 117.229 100.775 118.612 101.991 120.66C102.876 122.171 108.627 124.219 111.876 125.68L111.772 129.098Z" fill="black"/>
<path opacity="0.1" d="M117.07 42.2614C117.076 42.8011 116.964 43.3357 116.742 43.8277C116.574 44.2293 116.379 44.619 116.159 44.9943C115.814 45.6847 115.324 46.2926 114.723 46.7769C113.965 47.3176 113.008 47.4683 112.1 47.6879C111.192 47.9074 110.247 48.258 109.729 49.0314C109.448 49.5285 109.261 50.0726 109.175 50.637C109.088 51.2009 108.863 51.7346 108.519 52.1902C108.34 52.4127 108.093 52.5695 107.815 52.6359C107.537 52.7023 107.245 52.6747 106.985 52.5573C106.711 52.3725 106.503 52.105 106.391 51.7937C106.018 50.9516 105.923 50.0177 105.772 49.11C105.621 48.2023 105.408 47.2684 104.85 46.5377C104.293 45.807 103.306 45.3253 102.431 45.6103C102.138 45.7231 101.871 45.8938 101.645 46.1123C101.42 46.3308 101.241 46.5925 101.119 46.8818C100.877 47.4609 100.711 48.0688 100.624 48.6906C100.218 50.9145 99.7378 53.1252 99.1848 55.3229C99.1679 55.413 99.131 55.4981 99.0766 55.5719C98.9895 55.6588 98.8718 55.7082 98.7487 55.7096C98.0143 55.8079 97.3094 55.2934 96.5684 55.3491C96.492 55.3542 96.4163 55.3663 96.3422 55.3852C95.1441 53.3042 94.6151 50.9055 94.8268 48.5141C95.0386 46.1226 95.9808 43.854 97.5258 42.0156L97.5848 41.9993C98.0777 41.8244 98.5256 41.5423 98.8963 41.1735C99.3696 40.7001 99.8079 40.1931 100.208 39.6563L100.47 39.3286C101.224 38.4212 102.082 37.6062 103.027 36.9005C103.286 36.6892 103.582 36.5291 103.9 36.4286C104.172 36.3756 104.451 36.3668 104.726 36.4024C105.858 36.5383 107 36.581 108.139 36.5302C108.933 36.4055 109.733 36.3245 110.536 36.2877C112.611 36.3467 114.382 37.8115 115.693 39.4171C116.398 40.2396 117.028 41.1866 117.07 42.2614Z" fill="black"/>
<path d="M94.7877 44.1062C94.3319 44.8534 93.509 45.3613 93.2008 46.1805C92.7483 47.37 93.5122 48.8511 92.8106 49.9128C92.5778 50.27 92.1942 50.5354 92.0631 50.945C91.8401 51.6364 92.4499 52.3737 92.2926 53.0848C92.1352 53.7959 91.1975 54.3955 91.4467 55.0902C91.5939 55.3932 91.8522 55.6279 92.168 55.7456C92.6648 56.0304 93.2366 56.1573 93.8073 56.1093C94.7024 55.9619 95.368 55.0837 96.2762 55.0181C97.0139 54.9657 97.7189 55.4769 98.4533 55.3818C98.5764 55.3776 98.6934 55.3273 98.7812 55.2409C98.8369 55.1679 98.874 55.0825 98.8893 54.9919C99.4402 52.7964 99.9211 50.5856 100.332 48.3596C100.416 47.7377 100.581 47.1295 100.824 46.5508C100.946 46.2621 101.126 46.0009 101.351 45.7825C101.576 45.5642 101.843 45.3931 102.135 45.2794C103.011 44.9975 103.994 45.476 104.555 46.2067C105.116 46.9374 105.329 47.8713 105.48 48.779C105.63 49.6867 105.725 50.6206 106.096 51.4628C106.209 51.7751 106.418 52.0436 106.693 52.2295C107.185 52.5146 107.847 52.2885 108.224 51.8625C108.569 51.4067 108.795 50.8715 108.88 50.306C108.965 49.7426 109.153 49.1996 109.434 48.7037C109.952 47.9303 110.899 47.5797 111.804 47.3601C112.709 47.1406 113.663 46.9866 114.427 46.4459C115.028 45.9622 115.517 45.3554 115.863 44.6666C116.349 43.8212 116.801 42.9036 116.762 41.9304C116.719 40.8687 116.09 39.9217 115.417 39.096C114.106 37.4903 112.332 36.0256 110.257 35.9698C109.454 36.0034 108.653 36.0844 107.86 36.2123C106.721 36.2635 105.579 36.2197 104.447 36.0813C104.172 36.0484 103.893 36.0583 103.621 36.1108C103.302 36.208 103.007 36.3685 102.752 36.5826C101.805 37.2872 100.946 38.1011 100.191 39.0075C99.7043 39.6525 99.1764 40.2654 98.6107 40.8425C98.2399 41.2119 97.792 41.495 97.2992 41.6715C96.9713 41.7633 96.6434 41.6978 96.332 41.7993C95.3647 42.1041 95.2369 43.3657 94.7877 44.1062Z" fill="#31252B"/>
<path opacity="0.1" d="M126.362 53.0161C123.739 53.4978 121.565 51.3777 120.362 49.831C119.992 49.3613 119.656 48.8664 119.355 48.3499L128.359 50.0473L128.723 50.1161C128.723 50.1161 130.379 52.2821 126.362 53.0161Z" fill="black"/>
<g opacity="0.1">
<path opacity="0.1" d="M92.2931 52.1477C92.3298 51.7192 92.2646 51.288 92.1029 50.8894C92.1029 50.9222 92.0734 50.9549 92.0636 50.9877C91.9226 51.4268 92.1128 51.8823 92.2341 52.3378C92.2601 52.2766 92.2799 52.2129 92.2931 52.1477Z" fill="black"/>
<path opacity="0.1" d="M93.0733 46.7834C93.0396 47.2366 93.0484 47.6919 93.0995 48.1433C93.1331 47.6902 93.1244 47.2349 93.0733 46.7834Z" fill="black"/>
<path opacity="0.1" d="M115.844 43.7196C115.499 44.41 115.009 45.018 114.408 45.5022C113.651 46.0429 112.696 46.1937 111.785 46.4132C110.873 46.6328 109.932 46.9834 109.414 47.7567C109.134 48.2541 108.946 48.7981 108.86 49.3624C108.775 49.9277 108.549 50.4627 108.205 50.9189C107.827 51.3449 107.165 51.5742 106.673 51.2859C106.398 51.0999 106.189 50.8314 106.077 50.5191C105.706 49.6769 105.608 48.7463 105.46 47.8354C105.313 46.9244 105.093 45.9938 104.536 45.263C103.978 44.5323 102.991 44.0506 102.116 44.3357C101.823 44.4489 101.556 44.6198 101.331 44.8382C101.106 45.0567 100.927 45.3181 100.804 45.6071C100.562 46.1858 100.396 46.794 100.313 47.4159C99.9039 49.642 99.423 51.8528 98.87 54.0482C98.8547 54.1388 98.8175 54.2243 98.7618 54.2973C98.674 54.3836 98.557 54.4339 98.434 54.4382C97.6995 54.5332 96.9946 54.022 96.2569 54.0745C95.3487 54.14 94.6831 55.0182 93.788 55.1624C93.2171 55.2135 92.6443 55.0865 92.1486 54.7986C91.9207 54.7007 91.7162 54.5555 91.5486 54.3727C91.4719 54.4824 91.4211 54.6082 91.4001 54.7405C91.3791 54.8727 91.3884 55.008 91.4273 55.1362C91.5717 55.4412 91.831 55.6768 92.1486 55.7915C92.6443 56.0793 93.2171 56.2064 93.788 56.1553C94.6831 56.0111 95.3487 55.1329 96.2569 55.0673C96.9946 55.0149 97.6995 55.5261 98.434 55.4311C98.557 55.4268 98.674 55.3765 98.7618 55.2902C98.8175 55.2171 98.8547 55.1317 98.87 55.0411C99.4208 52.8566 99.9017 50.6458 100.313 48.4088C100.396 47.7869 100.562 47.1787 100.804 46.6C100.927 46.311 101.106 46.0495 101.331 45.8311C101.556 45.6127 101.823 45.4418 102.116 45.3286C102.991 45.0435 103.975 45.5252 104.536 46.2559C105.096 46.9867 105.309 47.9206 105.46 48.8282C105.611 49.7359 105.706 50.6698 106.077 51.512C106.189 51.8243 106.398 52.0928 106.673 52.2788C107.165 52.5638 107.827 52.3377 108.205 51.9117C108.549 51.4556 108.775 50.9206 108.86 50.3552C108.946 49.791 109.134 49.2469 109.414 48.7496C109.932 47.9763 110.88 47.6289 111.785 47.4061C112.69 47.1833 113.644 47.0358 114.408 46.4951C115.009 46.0109 115.499 45.4029 115.844 44.7125C116.329 43.8704 116.782 42.9529 116.742 41.9796C116.736 41.8545 116.723 41.7298 116.703 41.6061C116.545 42.3561 116.254 43.0718 115.844 43.7196Z" fill="black"/>
</g>
<path opacity="0.1" d="M116.755 43.818C117.596 45.312 118.094 46.9741 118.214 48.6841C115.293 47.0457 112.545 45.2467 111.158 44.6208C108.742 43.5296 99.7058 43.6934 96.3091 43.795C96.6644 43.1606 97.0794 42.5616 97.5484 42.0059C98.3246 41.0845 99.2367 40.2867 100.253 39.64C101.6 38.786 103.106 38.2154 104.681 37.963C106.255 37.7107 107.865 37.7819 109.411 38.1724C110.957 38.5628 112.407 39.2642 113.673 40.2338C114.938 41.2034 115.993 42.4207 116.772 43.8114L116.755 43.818Z" fill="black"/>
<path opacity="0.1" d="M127.182 51.6267C125.605 52.1117 123.031 51.1745 120.362 49.831C119.992 49.3613 119.656 48.8664 119.355 48.3499L128.359 50.0473C128.956 50.4536 129.106 51.0336 127.182 51.6267Z" fill="black"/>
<path d="M107.224 32.4571C107.224 32.4571 98.6173 31.9656 96.1976 36.6351L95.8074 40.7737L95.1517 40.7017L95.0205 43.5165C95.0205 43.5165 108.175 42.943 111.168 44.2931C114.162 45.6431 123.463 52.4458 127.191 51.299C130.919 50.1521 126.863 49.0871 126.863 49.0871C126.863 49.0871 121.732 46.9145 121.732 45.2106C121.732 43.5066 120.46 34.5052 107.224 32.4571Z" fill="#444053"/>
<path opacity="0.1" d="M90.624 185.879C90.624 185.879 96.1159 191.204 98.493 190.794C98.493 190.794 91.7716 190.221 90.624 185.879Z" fill="black"/>
<path opacity="0.1" d="M89.4761 188.346C89.4761 188.346 89.9679 191.086 91.2794 190.817C92.5909 190.548 89.4761 188.346 89.4761 188.346Z" fill="black"/>
<path opacity="0.1" d="M98.0831 234.13C98.0831 234.13 90.2863 240.192 91.601 240.356C92.9158 240.52 98.0831 234.13 98.0831 234.13Z" fill="black"/>
<path d="M108.513 113.814L133.759 109.709V133.597L109.772 132.342L108.513 113.814Z" fill="#CF3135"/>
<path opacity="0.05" d="M108.513 113.814L133.759 109.709V133.597L109.772 132.342L108.513 113.814Z" fill="black"/>
<path d="M133.759 109.709L164.035 111.973L162.359 132.761L133.759 133.597V109.709Z" fill="#CF3135"/>
<path opacity="0.1" d="M133.759 109.709L164.035 111.973L162.359 132.761L133.759 133.597V109.709Z" fill="black"/>
<path d="M143.067 102.418L133.759 109.709L164.035 111.973L168.982 104.512L143.067 102.418Z" fill="#CF3135"/>
<path d="M99.3716 105.852L122.1 103.086L133.759 109.709L108.513 113.815L99.3716 105.852Z" fill="#CF3135"/>
<path d="M139.293 115.912V148.572L127.467 147.36L122.323 146.835L120.755 146.671L115.614 146.144L108.513 145.416V113.815L133.756 115.532L139.293 115.912Z" fill="#CF3135"/>
<path d="M164.035 111.973V143.824L154.556 145.642L149.946 146.527L139.293 148.572V115.912L164.035 111.973Z" fill="#CF3135"/>
<path opacity="0.05" d="M164.035 111.973V143.824L154.556 145.642L149.946 146.527L139.293 148.572V115.912L164.035 111.973Z" fill="black"/>
<path d="M99.3716 120.689L108.513 113.815L139.293 115.912L134.762 123.54L99.3716 120.689Z" fill="#CF3135"/>
<path opacity="0.1" d="M99.3716 120.689L108.513 113.815L139.293 115.912L134.762 123.54L99.3716 120.689Z" fill="white"/>
<path d="M164.035 111.973L139.293 115.912L147.346 123.121L173.848 118.677L164.035 111.973Z" fill="#CF3135"/>
<path opacity="0.1" d="M164.035 111.973L139.293 115.912L147.346 123.121L173.848 118.677L164.035 111.973Z" fill="white"/>
<path opacity="0.1" d="M154.556 145.642L149.946 146.527V139.721L154.264 138.633L154.556 145.642Z" fill="white"/>
<path opacity="0.1" d="M127.467 142.857V147.36L122.323 146.835V142.857H127.467Z" fill="white"/>
<path opacity="0.1" d="M120.755 144.276V146.671L115.614 146.144V144.276H120.755Z" fill="white"/>
<path opacity="0.1" d="M136.198 140.468C132.673 144.974 121.034 141.861 121.034 141.861L112.385 132.843L111.211 131.621L113.506 127.361C113.506 127.361 114.162 127.577 115.257 127.957C121.054 129.982 139.165 136.677 136.198 140.468Z" fill="black"/>
<path d="M135.87 139.813C132.346 144.319 120.706 141.206 120.706 141.206L112.057 132.188L110.883 130.965L113.178 126.706C113.178 126.706 113.834 126.922 114.929 127.302C120.726 129.327 138.838 136.022 135.87 139.813Z" fill="#EFB7B9"/>
<path opacity="0.1" d="M114.916 127.302C114.437 128.678 113.221 130.716 112.044 132.188L110.87 130.965L113.165 126.706C113.165 126.706 113.824 126.922 114.916 127.302Z" fill="black"/>
<path d="M86.2798 76.3406C86.2798 76.3406 77.6731 79.6174 77.5912 88.7926C77.5716 94.7051 77.9 100.614 78.5748 106.488C78.5748 106.488 76.1157 120.168 83.083 124.101C90.0503 128.033 96.5258 131.31 96.5258 131.31C96.5258 131.31 107.657 133.112 109.024 133.685C110.391 134.259 115.142 126.886 114.405 125.657C113.667 124.428 103.532 121.397 102.329 119.349C101.126 117.301 98.1618 115.922 98.1618 115.922C98.1618 115.922 95.1389 113.86 95.0176 112.14C94.8962 110.42 95.788 109.191 96.0405 108.454C96.293 107.716 97.2077 100.507 97.2077 100.507C97.2077 100.507 102.1 74.9315 86.2798 76.3406Z" fill="#DCE6F2"/>
<path opacity="0.1" d="M90.2139 106.717C90.2139 106.717 78.5744 108.028 79.4761 112.124C79.4761 112.124 83.8991 107.991 90.2139 106.717Z" fill="black"/>
<path opacity="0.1" d="M90.2141 108.355C90.2141 108.355 83.6075 113.189 84.8206 113.516C86.0337 113.844 90.2141 108.355 90.2141 108.355Z" fill="black"/>
<path opacity="0.1" d="M93.1645 110.321C93.1645 110.321 91.2793 113.71 92.3449 113.533C93.4104 113.356 93.1645 110.321 93.1645 110.321Z" fill="black"/>
<path d="M214.353 36.8284C214.353 36.8284 201.894 36.078 203.35 44.814C203.35 44.814 203.058 46.3574 204.458 47.0587C204.458 47.0587 204.481 46.4033 205.737 46.6294C206.184 46.7046 206.638 46.7266 207.091 46.695C207.704 46.6541 208.287 46.4135 208.75 46.0101C208.75 46.0101 212.255 44.565 213.619 38.8371C213.619 38.8371 214.629 37.5853 214.602 37.2642L212.497 38.1653C212.497 38.1653 213.215 39.6825 212.648 40.9441C212.648 40.9441 212.583 38.221 212.176 38.2833C212.094 38.2833 211.084 38.8109 211.084 38.8109C211.084 38.8109 212.32 41.452 211.386 43.3755C211.386 43.3755 211.74 40.1183 210.697 39.0009L209.215 39.866C209.215 39.866 210.661 42.5956 209.681 44.8239C209.681 44.8239 209.933 41.4061 208.904 40.0757L207.56 41.121C207.56 41.121 208.92 43.8146 208.091 45.6628C208.091 45.6628 207.983 41.6847 207.268 41.3832C207.268 41.3832 206.094 42.4187 205.917 42.8447C205.917 42.8447 206.845 44.8108 206.268 45.8299C206.268 45.8299 205.914 43.1789 205.612 43.1658C205.612 43.1658 204.442 44.9222 204.32 46.115C204.377 45.003 204.724 43.9252 205.327 42.9888C204.652 43.1164 204.03 43.4388 203.537 43.9162C203.537 43.9162 203.717 42.6743 205.615 42.5661C205.615 42.5661 206.599 41.2325 206.842 41.1505C206.842 41.1505 204.953 40.9932 203.809 41.5012C203.809 41.5012 204.815 40.3313 207.189 40.8458L208.501 39.7644C208.501 39.7644 206.015 39.4368 204.96 39.8005C204.96 39.8005 206.173 38.765 208.858 39.5187L210.301 38.6569C210.301 38.6569 208.183 38.1981 206.92 38.3652C206.92 38.3652 208.251 37.6476 210.724 38.4242L211.756 37.9622C211.756 37.9622 210.202 37.6574 209.75 37.6083C209.297 37.5591 209.271 37.4346 209.271 37.4346C210.254 37.2711 211.264 37.3845 212.186 37.7623C212.186 37.7623 214.399 36.966 214.353 36.8284Z" fill="#CF3135"/>
<path opacity="0.1" d="M252.209 80.5217C252.209 80.5217 239.75 79.7713 241.206 88.5074C241.206 88.5074 240.914 90.0508 242.314 90.752C242.314 90.752 242.337 90.0967 243.596 90.3228C244.043 90.398 244.498 90.42 244.95 90.3883C245.556 90.3444 246.131 90.1052 246.589 89.7067C246.589 89.7067 250.098 88.2584 251.461 82.5304C251.461 82.5304 252.468 81.282 252.429 80.9608L250.324 81.8587C250.324 81.8587 251.042 83.3759 250.478 84.6375C250.478 84.6375 250.409 81.9144 250.006 81.9767C249.924 81.9767 248.911 82.5042 248.911 82.5042C248.911 82.5042 250.15 85.1486 249.216 87.0689C249.216 87.0689 249.57 83.8117 248.524 82.6943L247.058 83.5495C247.058 83.5495 248.504 86.2791 247.524 88.5074C247.524 88.5074 247.776 85.0897 246.747 83.7593L245.406 84.8078C245.406 84.8078 246.763 87.4981 245.937 89.3463C245.937 89.3463 245.829 85.3682 245.114 85.0667C245.114 85.0667 243.94 86.1022 243.76 86.5282C243.76 86.5282 244.691 88.4943 244.114 89.5134C244.114 89.5134 243.76 86.8624 243.458 86.8493C243.458 86.8493 242.288 88.6057 242.166 89.7985C242.225 88.6863 242.573 87.6088 243.176 86.6724C242.501 86.8002 241.877 87.1226 241.383 87.5997C241.383 87.5997 241.566 86.3578 243.465 86.2496C243.465 86.2496 244.432 84.916 244.691 84.8341C244.691 84.8341 242.802 84.6768 241.658 85.1847C241.658 85.1847 242.665 84.0149 245.035 84.5457L246.347 83.4643C246.347 83.4643 243.858 83.1367 242.806 83.5004C242.806 83.5004 244.019 82.4649 246.704 83.2186L248.147 82.3568C248.147 82.3568 246.025 81.9013 244.763 82.0651C244.763 82.0651 246.098 81.3475 248.57 82.1241L249.602 81.6621C249.602 81.6621 248.048 81.3573 247.593 81.3082C247.137 81.259 247.114 81.1345 247.114 81.1345C248.098 80.9709 249.109 81.0843 250.032 81.4622C250.032 81.4622 252.248 80.6594 252.209 80.5217Z" fill="#CF3135"/>
<path opacity="0.1" d="M176.52 72.7655C176.52 72.7655 179.389 60.6117 170.523 60.5691C170.523 60.5691 169.051 60.0186 168.123 61.2769C168.123 61.2769 168.756 61.4113 168.326 62.6106C168.178 63.0347 168.079 63.4745 168.031 63.9213C167.968 64.5304 168.105 65.1436 168.421 65.6679C168.421 65.6679 169.251 69.3707 174.651 71.6907C174.651 71.6907 175.713 72.8966 176.035 72.9097L175.51 70.6847C175.51 70.6847 173.89 71.1336 172.743 70.357C172.743 70.357 175.441 70.7535 175.445 70.357C175.445 70.2751 175.117 69.1905 175.117 69.1905C175.117 69.1905 172.3 69.9573 170.562 68.7088C170.562 68.7088 173.713 69.6132 174.995 68.7776L174.405 67.1654C174.405 67.1654 171.454 68.1255 169.435 66.7787C169.435 66.7787 172.763 67.611 174.251 66.8246L173.448 65.3238C173.448 65.3238 170.562 66.202 168.88 65.0715C168.88 65.0715 172.815 65.6417 173.241 64.9928C173.241 64.9928 172.422 63.6592 172.031 63.4101C172.031 63.4101 169.946 63.9934 169.028 63.2496C169.028 63.2496 171.7 63.3511 171.762 63.0693C171.762 63.0693 170.231 61.6177 169.064 61.29C170.152 61.5375 171.156 62.0638 171.979 62.817C171.967 62.1303 171.755 61.4619 171.369 60.8935C171.369 60.8935 172.563 61.2867 172.353 63.1873C172.353 63.1873 173.5 64.367 173.536 64.6357C173.536 64.6357 174.012 62.8039 173.707 61.5882C173.707 61.5882 174.69 62.781 173.763 65.0256L174.602 66.5166C174.602 66.5166 175.363 64.1245 175.169 63.0235C175.169 63.0235 175.986 64.3932 174.782 66.9098L175.389 68.4794C175.389 68.4794 176.199 66.4674 176.251 65.2026C176.251 65.2026 176.733 66.6378 175.543 68.9414L175.825 70.0359C175.825 70.0359 176.389 68.558 176.513 68.119C176.638 67.6799 176.766 67.6766 176.766 67.6766C176.761 68.6735 176.478 69.6493 175.949 70.4947C175.949 70.4947 176.379 72.7819 176.52 72.7655Z" fill="#CF3135"/>
<path opacity="0.1" d="M149.235 76.9073C149.235 76.9073 139.228 69.4263 135.651 77.5299C135.651 77.5299 134.559 78.6604 135.343 80.0138C135.343 80.0138 135.716 79.4862 136.654 80.3611C136.986 80.6699 137.354 80.9383 137.749 81.1607C138.285 81.4587 138.903 81.5737 139.51 81.4883C139.51 81.4883 143.235 82.206 147.523 78.1722C147.523 78.1722 149.054 77.6807 149.199 77.3923L146.94 76.9958C146.94 76.9958 146.703 78.6572 145.539 79.401C145.539 79.401 146.979 77.0876 146.605 76.9204C146.53 76.8844 145.402 76.7566 145.402 76.7566C145.402 76.7566 144.982 79.6468 143.146 80.7379C143.146 80.7379 145.235 78.2115 144.976 76.7042L143.261 76.6124C143.261 76.6124 142.969 79.6894 140.923 81.0132C140.923 81.0132 143.012 78.2967 142.89 76.619L141.192 76.7566C141.192 76.7566 140.848 79.7483 139.139 80.8362C139.139 80.8362 141.235 77.4546 140.805 76.8123C140.805 76.8123 139.254 77.0319 138.871 77.2875C138.871 77.2875 138.572 79.4305 137.523 79.9744C137.523 79.9744 138.687 77.566 138.451 77.3989C138.451 77.3989 136.507 78.2213 135.743 79.1585C136.404 78.2612 137.287 77.5519 138.307 77.1007C137.672 76.8372 136.975 76.7643 136.3 76.8909C136.3 76.8909 137.133 75.9538 138.779 76.9073C138.779 76.9073 140.32 76.3273 140.582 76.3994C140.582 76.3994 139.09 75.2296 137.854 75.0264C137.854 75.0264 139.343 74.6004 141.031 76.3372L142.733 76.1635C142.733 76.1635 140.841 74.5251 139.756 74.2498C139.756 74.2498 141.339 74.0499 143.166 76.1537L144.844 76.229C144.844 76.229 143.326 74.6824 142.182 74.1253C142.182 74.1253 143.687 74.2564 145.326 76.2651L146.444 76.4453C146.444 76.4453 145.313 75.3377 144.959 75.0494C144.605 74.761 144.654 74.6398 144.654 74.6398C145.566 75.0435 146.348 75.6923 146.913 76.5141C146.913 76.5141 149.192 77.0417 149.235 76.9073Z" fill="#CF3135"/>
<path opacity="0.1" d="M182.55 7.40233C182.55 7.40233 172.543 -0.0819688 168.966 8.02493C168.966 8.02493 167.874 9.15544 168.658 10.5088C168.658 10.5088 169.031 9.98121 169.969 10.8561C170.303 11.1633 170.672 11.4306 171.067 11.6524C171.603 11.9506 172.221 12.0657 172.828 11.9801C172.828 11.9801 176.553 12.6977 180.841 8.66064C180.841 8.66064 182.373 8.17239 182.514 7.88075L180.254 7.49081C180.254 7.49081 180.022 9.15217 178.854 9.89601C178.854 9.89601 180.297 7.58256 179.923 7.41544C179.848 7.3794 178.72 7.2516 178.72 7.2516C178.72 7.2516 178.287 10.1483 176.451 11.233C176.451 11.233 178.536 8.70651 178.281 7.19917L176.566 7.10742C176.566 7.10742 176.271 10.1844 174.228 11.5049C174.228 11.5049 176.317 8.78844 176.195 7.1107L174.5 7.24832C174.5 7.24832 174.153 10.2434 172.445 11.3313C172.445 11.3313 174.543 7.94957 174.113 7.30731C174.113 7.30731 172.563 7.52685 172.179 7.78245C172.179 7.78245 171.881 9.9255 170.831 10.4695C170.831 10.4695 171.995 8.06098 171.759 7.89058C171.759 7.89058 169.815 8.71634 169.051 9.65352C169.711 8.75524 170.595 8.04568 171.615 7.59567C170.98 7.33026 170.281 7.25733 169.605 7.38595C169.605 7.38595 170.441 6.44877 172.087 7.40233C172.087 7.40233 173.628 6.81906 173.89 6.89442C173.89 6.89442 172.399 5.72459 171.163 5.51815C171.163 5.51815 172.648 5.09544 174.336 6.82889L176.038 6.65521C176.038 6.65521 174.149 5.01679 173.061 4.73826C173.061 4.73826 174.645 4.54165 176.474 6.64538L178.153 6.71747C178.153 6.71747 176.635 5.17081 175.487 4.61702C175.487 4.61702 176.995 4.74809 178.635 6.7568L179.75 6.93702C179.75 6.93702 178.615 5.84256 178.261 5.56075C177.907 5.27894 177.956 5.15442 177.956 5.15442C178.868 5.55766 179.651 6.20664 180.215 7.02877C180.215 7.02877 182.494 7.52685 182.55 7.40233Z" fill="#CF3135"/>
<path opacity="0.1" d="M220.786 16.8823C220.786 16.8823 216.786 5.04966 209.241 9.6995C209.241 9.6995 207.7 10.0272 207.579 11.5706C207.579 11.5706 208.186 11.3477 208.455 12.5929C208.554 13.0359 208.705 13.4658 208.904 13.8742C209.175 14.4238 209.616 14.871 210.163 15.1489C210.163 15.1489 212.825 17.8523 218.648 16.9577C218.648 16.9577 220.186 17.423 220.468 17.2624L218.828 15.6535C218.828 15.6535 217.694 16.8889 216.31 16.8397C216.31 16.8397 218.812 15.7518 218.605 15.4012C218.563 15.3324 217.707 14.5885 217.707 14.5885C217.707 14.5885 215.72 16.7283 213.589 16.5874C213.589 16.5874 216.74 15.6896 217.382 14.2936L216.025 13.2483C216.025 13.2483 214.038 15.6142 211.602 15.5421C211.602 15.5421 214.881 14.4902 215.71 13.0353L214.235 12.1866C214.235 12.1866 212.268 14.4575 210.228 14.3854C210.228 14.3854 213.874 12.7896 213.884 12.0162C213.884 12.0162 212.484 11.3183 212.022 11.3117C212.022 11.3117 210.559 12.9075 209.399 12.7633C209.399 12.7633 211.72 11.4362 211.622 11.1642C211.622 11.1642 209.556 10.7415 208.392 11.0823C209.445 10.716 210.575 10.6313 211.671 10.8366C211.297 10.2595 210.762 9.804 210.133 9.52583C210.133 9.52583 211.353 9.22763 212.169 10.9447C212.169 10.9447 213.769 11.3412 213.94 11.5476C213.94 11.5476 213.376 9.7421 212.474 8.87046C212.474 8.87046 213.94 9.36526 214.34 11.7606L215.841 12.5798C215.841 12.5798 215.222 10.1517 214.474 9.303C214.474 9.303 215.894 10.037 216.202 12.8059L217.546 13.8185C217.546 13.8185 217.173 11.682 216.543 10.5744C216.543 10.5744 217.71 11.5378 217.92 14.1232L218.737 14.9031C218.737 14.9031 218.435 13.3499 218.31 12.9108C218.186 12.4717 218.287 12.4422 218.287 12.4422C218.809 13.2923 219.084 14.2699 219.084 15.2669C219.084 15.2669 220.671 16.9675 220.786 16.8823Z" fill="#CF3135"/>
<path opacity="0.1" d="M194.681 17.4655C194.681 17.4655 182.254 16.0827 183.28 24.8941C183.28 24.8941 182.91 26.4211 184.264 27.1879C184.264 27.1879 184.32 26.5325 185.576 26.8274C186.019 26.9229 186.472 26.9679 186.926 26.9618C187.54 26.9507 188.132 26.7402 188.615 26.3621C188.615 26.3621 192.192 25.094 193.861 19.4414C193.861 19.4414 194.93 18.2454 194.907 17.921L192.759 18.714C192.759 18.714 193.415 20.2639 192.759 21.496C192.759 21.496 192.828 18.773 192.431 18.8156C192.349 18.8156 191.313 19.2874 191.313 19.2874C191.313 19.2874 192.415 21.9908 191.385 23.875C191.385 23.875 191.904 20.6375 190.917 19.4709L189.392 20.2574C189.392 20.2574 190.704 23.0591 189.605 25.2349C189.605 25.2349 190.031 21.8335 189.071 20.454L187.677 21.437C187.677 21.437 188.897 24.1929 187.976 25.9984C187.976 25.9984 188.071 22.0203 187.372 21.6828C187.372 21.6828 186.146 22.6659 185.946 23.0722C185.946 23.0722 186.776 25.0711 186.149 26.0705C186.149 26.0705 185.93 23.4064 185.641 23.3802C185.641 23.3802 184.382 25.0743 184.199 26.2704C184.312 25.1615 184.715 24.1018 185.366 23.1967C184.685 23.2907 184.047 23.5811 183.53 24.0323C183.53 24.0323 183.772 22.8035 185.674 22.7904C185.674 22.7904 186.707 21.5091 186.985 21.4403C186.985 21.4403 185.107 21.188 183.936 21.6369C183.936 21.6369 185.002 20.5162 187.343 21.1683L188.723 20.1558C188.723 20.1558 186.228 19.6512 185.172 19.9788C185.172 19.9788 186.438 18.9958 189.081 19.8969L190.566 19.1072C190.566 19.1072 188.471 18.5436 187.202 18.6452C187.202 18.6452 188.569 17.9898 190.999 18.8975L192.054 18.4879C192.054 18.4879 190.517 18.1045 190.064 18.0324C189.612 17.9603 189.595 17.8358 189.595 17.8358C190.586 17.7221 191.59 17.8855 192.494 18.3077C192.494 18.3077 194.704 17.6031 194.681 17.4655Z" fill="#CF3135"/>
<path opacity="0.1" d="M303.403 113.86C303.403 113.86 290.983 112.477 292.009 121.279C292.009 121.279 291.639 122.806 292.993 123.573C292.993 123.573 293.049 122.917 294.305 123.209C294.748 123.308 295.201 123.353 295.655 123.343C296.269 123.334 296.862 123.123 297.344 122.744C297.344 122.744 300.921 121.476 302.574 115.826C302.574 115.826 303.642 114.627 303.62 114.306L301.472 115.096C301.472 115.096 302.128 116.649 301.472 117.881C301.472 117.881 301.541 115.155 301.144 115.201C301.062 115.201 300.026 115.669 300.026 115.669C300.026 115.669 301.128 118.372 300.098 120.257C300.098 120.257 300.616 117.022 299.629 115.853L298.105 116.642C298.105 116.642 299.416 119.444 298.321 121.62C298.321 121.62 298.744 118.218 297.783 116.836L296.39 117.819C296.39 117.819 297.61 120.575 296.688 122.377C296.688 122.377 296.783 118.399 296.085 118.064C296.085 118.064 294.862 119.048 294.659 119.454C294.659 119.454 295.492 121.453 294.862 122.452C294.862 122.452 294.642 119.788 294.354 119.762C294.354 119.762 293.095 121.456 292.911 122.652C293.025 121.543 293.427 120.483 294.078 119.578C293.398 119.671 292.759 119.961 292.242 120.414C292.242 120.414 292.485 119.182 294.387 119.169C294.387 119.169 295.423 117.888 295.698 117.822C295.698 117.822 293.819 117.566 292.649 118.015C292.649 118.015 293.714 116.898 296.059 117.55L297.436 116.537C297.436 116.537 294.97 116.072 293.898 116.393C293.898 116.393 295.164 115.41 297.806 116.308L299.292 115.522C299.292 115.522 297.196 114.958 295.928 115.06C295.928 115.06 297.295 114.404 299.724 115.312L300.78 114.899C300.78 114.899 299.242 114.516 298.79 114.447C298.337 114.378 298.321 114.25 298.321 114.25C299.312 114.135 300.316 114.297 301.219 114.719C301.219 114.719 303.436 114.001 303.403 113.86Z" fill="#CF3135"/>
<path opacity="0.1" d="M322.39 125.454C322.39 125.454 309.97 124.074 310.996 132.872C310.996 132.872 310.629 134.399 311.98 135.166C311.98 135.166 312.036 134.511 313.291 134.806C313.734 134.902 314.186 134.946 314.639 134.937C315.249 134.924 315.839 134.715 316.321 134.341C316.321 134.341 319.895 133.072 321.547 127.42C321.547 127.42 322.619 126.224 322.593 125.899L320.446 126.689C320.446 126.689 321.101 128.242 320.446 129.474C320.446 129.474 320.514 126.751 320.118 126.794C320.036 126.794 319 127.263 319 127.263C319 127.263 320.101 129.966 319.072 131.85C319.072 131.85 319.59 128.616 318.603 127.449L317.078 128.236C317.078 128.236 318.39 131.037 317.295 133.213C317.295 133.213 317.718 129.812 316.757 128.432L315.364 129.415C315.364 129.415 316.583 132.171 315.665 133.977C315.665 133.977 315.757 129.995 315.059 129.661C315.059 129.661 313.836 130.644 313.632 131.051C313.632 131.051 314.465 133.049 313.836 134.049C313.836 134.049 313.616 131.385 313.327 131.359C313.327 131.359 312.068 133.053 311.888 134.249C312.002 133.14 312.403 132.081 313.052 131.175C312.372 131.269 311.734 131.559 311.216 132.011C311.216 132.011 311.462 130.779 313.364 130.769C313.364 130.769 314.396 129.488 314.675 129.419C314.675 129.419 312.796 129.166 311.626 129.615C311.626 129.615 312.691 128.495 315.036 129.147L316.413 128.134C316.413 128.134 313.947 127.669 312.875 127.99C312.875 127.99 314.141 127.007 316.783 127.908L318.268 127.118C318.268 127.118 316.173 126.555 314.905 126.656C314.905 126.656 316.272 126.001 318.701 126.909L319.757 126.499C319.757 126.499 318.219 126.116 317.77 126.044C317.321 125.971 317.298 125.847 317.298 125.847C318.289 125.733 319.292 125.897 320.196 126.319C320.196 126.319 322.423 125.595 322.39 125.454Z" fill="#CF3135"/>
<path opacity="0.1" d="M280.236 27.8007C280.236 27.8007 270.229 20.3196 266.652 28.4233C266.652 28.4233 265.56 29.5538 266.344 30.9071C266.344 30.9071 266.717 30.3795 267.655 31.2545C267.987 31.5633 268.355 31.8317 268.75 32.054C269.286 32.3518 269.904 32.4668 270.511 32.3817C270.511 32.3817 274.235 33.0993 278.527 29.0655C278.527 29.0655 280.055 28.574 280.199 28.2856L277.947 27.8793C277.947 27.8793 277.711 29.5407 276.547 30.2845C276.547 30.2845 277.986 27.9711 277.613 27.8039C277.537 27.7679 276.413 27.6401 276.413 27.6401C276.413 27.6401 275.99 30.5303 274.154 31.6215C274.154 31.6215 276.242 29.095 275.983 27.5877L274.268 27.4959C274.268 27.4959 273.976 30.5729 271.931 31.8967C271.931 31.8967 274.022 29.1802 273.898 27.5025L272.199 27.6401C272.199 27.6401 271.872 30.6319 270.147 31.7198C270.147 31.7198 272.245 28.3381 271.813 27.6958C271.813 27.6958 270.262 27.9153 269.878 28.1709C269.878 28.1709 269.583 30.314 268.534 30.858C268.534 30.858 269.694 28.4495 269.458 28.2824C269.458 28.2824 267.514 29.1048 266.75 30.042C267.411 29.1447 268.295 28.4354 269.314 27.9842C268.68 27.7207 267.983 27.6478 267.308 27.7744C267.308 27.7744 268.144 26.8373 269.79 27.7908C269.79 27.7908 271.327 27.2108 271.59 27.2829C271.59 27.2829 270.098 26.1131 268.862 25.9099C268.862 25.9099 270.35 25.4839 272.039 27.2207L273.74 27.047C273.74 27.047 271.852 25.4086 270.763 25.1333C270.763 25.1333 272.347 24.9334 274.173 27.0372L275.855 27.1125C275.855 27.1125 274.334 25.5659 273.19 25.0088C273.19 25.0088 274.698 25.1399 276.334 27.1486L277.452 27.3288C277.452 27.3288 276.321 26.2212 275.967 25.9329C275.613 25.6445 275.665 25.5495 275.665 25.5495C276.576 25.9538 277.357 26.6026 277.921 27.4238C277.921 27.4238 280.193 27.935 280.236 27.8007Z" fill="#CF3135"/>
<path opacity="0.1" d="M287.967 81.8097C287.967 81.8097 284.518 69.8066 276.76 74.1156C276.76 74.1156 275.206 74.3548 275.013 75.9081C275.013 75.9081 275.629 75.7147 275.842 76.9698C275.921 77.4206 276.053 77.8606 276.236 78.2805C276.479 78.8452 276.9 79.3147 277.436 79.6174C277.436 79.6174 279.973 82.4355 285.829 81.8064C285.829 81.8064 287.344 82.3372 287.632 82.193L286.082 80.5087C286.082 80.5087 284.891 81.695 283.514 81.5835C283.514 81.5835 286.059 80.6005 285.862 80.2499C285.823 80.1778 285.003 79.3946 285.003 79.3946C285.003 79.3946 282.924 81.4459 280.8 81.2067C280.8 81.2067 283.99 80.453 284.691 79.0964L283.38 77.9889C283.38 77.9889 281.288 80.263 278.859 80.086C278.859 80.086 282.164 79.1783 283.075 77.766L281.639 76.8518C281.639 76.8518 279.557 79.0309 277.537 78.867C277.537 78.867 281.252 77.4351 281.298 76.665C281.298 76.665 279.928 75.9048 279.465 75.8786C279.465 75.8786 277.934 77.4056 276.77 77.209C276.77 77.209 279.15 75.9867 279.065 75.7114C279.065 75.7114 277.019 75.197 275.842 75.4821C276.908 75.1661 278.038 75.1334 279.121 75.387C278.774 74.7941 278.261 74.3157 277.645 74.0108C277.645 74.0108 278.878 73.765 279.613 75.5181C279.613 75.5181 281.19 75.9834 281.354 76.1997C281.354 76.1997 280.872 74.3679 280.009 73.4603C280.009 73.4603 281.452 74.0173 281.744 76.4291L283.206 77.3171C283.206 77.3171 282.695 74.8595 281.987 73.9944C281.987 73.9944 283.37 74.7907 283.557 77.5694L284.869 78.6409C284.869 78.6409 284.59 76.4913 284.013 75.3641C284.013 75.3641 285.137 76.3799 285.229 78.9686L286.01 79.7878C286.01 79.7878 285.78 78.2215 285.682 77.7759C285.583 77.3302 285.682 77.2679 285.682 77.2679C286.167 78.1396 286.4 79.129 286.354 80.1253C286.354 80.1253 287.849 81.8883 287.967 81.8097Z" fill="#CF3135"/>
<path opacity="0.1" d="M211.107 108.857C211.107 108.857 204.409 98.3117 198.189 104.623C198.189 104.623 196.766 105.278 197.015 106.835C197.015 106.835 197.556 106.474 198.113 107.621C198.314 108.028 198.563 108.408 198.854 108.755C199.245 109.228 199.781 109.56 200.379 109.699C200.379 109.699 203.609 111.691 209.051 109.437C209.051 109.437 210.655 109.522 210.891 109.302L208.923 108.123C208.923 108.123 208.114 109.597 206.76 109.876C206.76 109.876 208.93 108.237 208.638 107.936C208.582 107.877 207.573 107.359 207.573 107.359C207.573 107.359 206.153 109.908 204.048 110.279C204.048 110.279 206.897 108.657 207.192 107.156L205.622 106.464C205.622 106.464 204.255 109.233 201.874 109.741C201.874 109.741 204.792 107.942 205.268 106.33L203.628 105.858C203.628 105.858 202.245 108.535 200.261 108.945C200.261 108.945 203.422 106.527 203.248 105.773C203.248 105.773 201.72 105.429 201.281 105.534C201.281 105.534 200.241 107.431 199.068 107.569C199.068 107.569 201.009 105.727 200.848 105.485C200.848 105.485 198.74 105.567 197.691 106.173C198.626 105.567 199.705 105.217 200.818 105.157C200.32 104.685 199.694 104.37 199.018 104.249C199.018 104.249 200.13 103.669 201.314 105.144C201.314 105.144 202.953 105.144 203.179 105.308C203.179 105.308 202.196 103.669 201.117 103.057C201.117 103.057 202.658 103.188 203.615 105.419L205.271 105.858C205.271 105.858 204.087 103.646 203.166 103.014C203.166 103.014 204.717 103.388 205.678 106.006L207.225 106.661C207.225 106.661 206.353 104.679 205.478 103.751C205.478 103.751 206.841 104.407 207.658 106.868L208.642 107.434C208.642 107.434 207.986 105.996 207.753 105.599C207.52 105.203 207.612 105.111 207.612 105.111C208.321 105.812 208.822 106.695 209.058 107.664C209.058 107.664 211.019 108.968 211.107 108.857Z" fill="#CF3135"/>
<path d="M255.13 54.9789C255.13 54.9789 248.76 44.2341 242.343 50.3487C242.343 50.3487 240.901 50.9713 241.104 52.5245C241.104 52.5245 241.652 52.1772 242.176 53.3405C242.364 53.754 242.601 54.1434 242.881 54.5005C243.258 54.9837 243.783 55.3292 244.376 55.4835C244.376 55.4835 247.54 57.5741 253.052 55.4835C253.052 55.4835 254.652 55.6179 254.894 55.4049L252.97 54.1662C252.97 54.1662 252.117 55.6113 250.753 55.8505C250.753 55.8505 252.973 54.2678 252.694 53.9696C252.635 53.9073 251.645 53.3568 251.645 53.3568C251.645 53.3568 250.147 55.8636 248.039 56.1684C248.039 56.1684 250.937 54.6348 251.275 53.1471L249.727 52.4197C249.727 52.4197 248.275 55.1493 245.878 55.5851C245.878 55.5851 248.852 53.8779 249.376 52.282L247.757 51.7577C247.757 51.7577 246.288 54.3792 244.294 54.7397C244.294 54.7397 247.527 52.4197 247.376 51.6627C247.376 51.6627 245.862 51.2695 245.409 51.3612C245.409 51.3612 244.311 53.2258 243.134 53.3273C243.134 53.3273 245.13 51.5513 244.98 51.3023C244.98 51.3023 242.868 51.3186 241.802 51.8921C242.757 51.3167 243.845 51.0004 244.96 50.9746C244.475 50.4875 243.859 50.1526 243.186 50.0112C243.186 50.0112 244.317 49.4639 245.481 50.9746C245.481 50.9746 247.121 51.0303 247.34 51.1974C247.34 51.1974 246.412 49.559 245.35 48.8839C245.35 48.8839 246.884 49.0609 247.773 51.3219L249.412 51.8134C249.412 51.8134 248.301 49.5655 247.396 48.9036C247.396 48.9036 248.937 49.3263 249.816 51.9707L251.34 52.6818C251.34 52.6818 250.53 50.6731 249.701 49.7327C249.701 49.7327 251.042 50.4306 251.786 52.9145L252.747 53.5109C252.747 53.5109 252.13 52.0527 251.914 51.6496C251.698 51.2465 251.789 51.1581 251.789 51.1581C252.477 51.88 252.95 52.7785 253.157 53.7533C253.157 53.7533 255.035 55.087 255.13 54.9789Z" fill="#CF3135"/>
<path d="M214.825 77.5727C214.825 77.5727 215.153 65.0879 206.474 66.8476C206.474 66.8476 204.92 66.6084 204.264 68.0305C204.264 68.0305 204.92 68.0305 204.736 69.2921C204.676 69.7419 204.67 70.1973 204.717 70.6487C204.776 71.261 205.035 71.8367 205.454 72.2871C205.454 72.2871 207.018 75.7409 212.792 76.914C212.792 76.914 214.074 77.8807 214.395 77.8283L213.412 75.7573C213.412 75.7573 211.92 76.5241 210.638 76.0031C210.638 76.0031 213.359 75.8425 213.284 75.4427C213.284 75.3608 212.72 74.3646 212.72 74.3646C212.72 74.3646 210.117 75.6917 208.166 74.8201C208.166 74.8201 211.445 75.0659 212.517 73.9878L211.602 72.5362C211.602 72.5362 208.92 74.0697 206.658 73.1653C206.658 73.1653 210.084 73.3029 211.382 72.2314L210.29 70.9207C210.29 70.9207 207.645 72.369 205.769 71.6023C205.769 71.6023 209.743 71.3631 210.031 70.6389C210.031 70.6389 208.956 69.5018 208.523 69.3281C208.523 69.3281 206.602 70.3112 205.553 69.7803C205.553 69.7803 208.176 69.3412 208.192 69.0496C208.192 69.0496 206.399 67.9387 205.189 67.8568C206.304 67.8768 207.395 68.1886 208.353 68.7612C208.203 68.0915 207.861 67.4799 207.369 67.0016C207.369 67.0016 208.618 67.1425 208.789 69.0332C208.789 69.0332 210.156 69.9573 210.245 70.2129C210.245 70.2129 210.34 68.3221 209.792 67.1949C209.792 67.1949 210.999 68.1616 210.546 70.5471L211.671 71.8382C211.671 71.8382 211.927 69.3412 211.517 68.3025C211.517 68.3025 212.592 69.4789 211.93 72.1855L212.838 73.5979C212.838 73.5979 213.225 71.4646 213.018 70.2096C213.018 70.2096 213.779 71.5203 213.084 74.014L213.582 75.0298C213.582 75.0298 213.835 73.4668 213.868 73.0113C213.9 72.5558 214.025 72.5263 214.025 72.5263C214.222 73.5038 214.144 74.5169 213.799 75.4525C213.799 75.4525 214.681 77.6153 214.825 77.5727Z" fill="#CF3135"/>
<path opacity="0.1" d="M229.173 236.211C234.049 236.211 238.002 235.544 238.002 234.72C238.002 233.897 234.049 233.229 229.173 233.229C224.296 233.229 220.343 233.897 220.343 234.72C220.343 235.544 224.296 236.211 229.173 236.211Z" fill="#CF3135"/>
<path opacity="0.1" d="M196.985 258.847C201.862 258.847 205.815 258.18 205.815 257.356C205.815 256.533 201.862 255.865 196.985 255.865C192.109 255.865 188.156 256.533 188.156 257.356C188.156 258.18 192.109 258.847 196.985 258.847Z" fill="#CF3135"/>
<path opacity="0.1" d="M30.5381 247.251C35.4145 247.251 39.3677 246.583 39.3677 245.76C39.3677 244.936 35.4145 244.269 30.5381 244.269C25.6616 244.269 21.7085 244.936 21.7085 245.76C21.7085 246.583 25.6616 247.251 30.5381 247.251Z" fill="#CF3135"/>
<path opacity="0.1" d="M263.957 257.356C268.833 257.356 272.786 256.689 272.786 255.865C272.786 255.042 268.833 254.375 263.957 254.375C259.08 254.375 255.127 255.042 255.127 255.865C255.127 256.689 259.08 257.356 263.957 257.356Z" fill="#CF3135"/>
<path d="M273.151 239.176C280.432 239.176 286.334 238.179 286.334 236.948C286.334 235.718 280.432 234.72 273.151 234.72C265.869 234.72 259.967 235.718 259.967 236.948C259.967 238.179 265.869 239.176 273.151 239.176Z" fill="#CF3135"/>
<path d="M278.616 233.301C279.218 232.812 279.656 232.151 279.871 231.407C280.035 230.653 279.714 229.752 278.996 229.477C278.189 229.169 277.327 229.726 276.671 230.29C276.016 230.853 275.271 231.499 274.416 231.381C274.855 230.982 275.184 230.476 275.37 229.913C275.556 229.35 275.593 228.748 275.478 228.166C275.441 227.925 275.339 227.699 275.183 227.511C274.734 227.032 273.924 227.239 273.386 227.616C271.681 228.815 271.206 231.128 271.196 233.213C271.025 232.462 271.17 231.679 271.166 230.919C271.163 230.159 270.95 229.28 270.298 228.881C269.897 228.657 269.445 228.544 268.986 228.553C268.219 228.527 267.363 228.602 266.842 229.162C266.186 229.857 266.36 231.027 266.924 231.784C267.488 232.541 268.35 233.029 269.143 233.56C269.778 233.939 270.321 234.455 270.73 235.071C270.777 235.156 270.815 235.246 270.845 235.339H275.652C276.728 234.798 277.725 234.112 278.616 233.301Z" fill="#CF3135"/>
<path d="M24.6104 238.829C24.6104 238.829 29.6432 238.675 31.1678 237.594C32.6924 236.512 38.9154 235.225 39.2925 236.958C39.6695 238.692 46.8598 245.573 41.1745 245.619C35.4892 245.665 27.9645 244.734 26.4497 243.81C24.9349 242.886 24.6104 238.829 24.6104 238.829Z" fill="#A8A8A8"/>
<path opacity="0.2" d="M41.2695 245.016C35.5842 245.062 28.0596 244.131 26.5448 243.207C25.3907 242.506 24.9317 239.986 24.7776 238.823H24.6104C24.6104 238.823 24.9382 242.883 26.4432 243.803C27.9481 244.724 35.4826 245.658 41.1679 245.612C42.8073 245.612 43.3745 245.016 43.345 244.151C43.1155 244.678 42.4892 245.006 41.2695 245.016Z" fill="black"/>
</g>
<defs>
<linearGradient id="paint0_linear_8655_153347" x1="73.1122" y1="142.025" x2="175.451" y2="142.025" gradientUnits="userSpaceOnUse">
<stop stop-color="#808080" stop-opacity="0.25"/>
<stop offset="0.54" stop-color="#808080" stop-opacity="0.12"/>
<stop offset="1" stop-color="#808080" stop-opacity="0.1"/>
</linearGradient>
<clipPath id="clip0_8655_153347">
<rect width="331" height="258.847" fill="white"/>
</clipPath>
</defs>
</svg>
