<svg width="24" height="24" viewBox="0 0 24 24" fill="none" xmlns="http://www.w3.org/2000/svg">
<path d="M5.24982 20.4998H18.7478C18.9378 20.5001 19.1205 20.5724 19.2592 20.7022C19.3978 20.832 19.4821 21.0096 19.4949 21.1991C19.5077 21.3886 19.4481 21.5759 19.3282 21.7232C19.2083 21.8705 19.037 21.9669 18.8488 21.9928L18.7478 21.9998H5.24982C5.05844 22.0017 4.87356 21.9304 4.73303 21.8005C4.59251 21.6706 4.50697 21.4918 4.49393 21.3009C4.48089 21.1099 4.54135 20.9212 4.66291 20.7734C4.78447 20.6256 4.95795 20.5298 5.14782 20.5058L5.24982 20.4998H18.7478H5.24982ZM11.8828 2.00175L11.9998 1.99475C12.2447 1.99478 12.4812 2.08471 12.6642 2.24747C12.8472 2.41023 12.9642 2.6345 12.9928 2.87775L12.9998 2.99475V15.5848L16.2938 12.2918C16.466 12.1196 16.6951 12.0161 16.9381 12.0009C17.1812 11.9856 17.4214 12.0595 17.6138 12.2088L17.7078 12.2928C17.88 12.4649 17.9834 12.694 17.9987 12.9371C18.014 13.1801 17.9401 13.4203 17.7908 13.6128L17.7078 13.7068L12.7108 18.7027C12.5388 18.8751 12.3097 18.9787 12.0667 18.9942C11.8237 19.0096 11.5833 18.9359 11.3908 18.7868L11.2968 18.7038L6.29282 13.7068C6.11156 13.5272 6.00578 13.2852 5.99713 13.0302C5.98848 12.7752 6.07761 12.5266 6.24628 12.3352C6.41495 12.1438 6.6504 12.024 6.90444 12.0005C7.15848 11.977 7.41189 12.0515 7.61282 12.2088L7.70682 12.2918L10.9998 15.5798V2.99475C10.9998 2.74982 11.0898 2.51341 11.2525 2.33038C11.4153 2.14734 11.6396 2.03041 11.8828 2.00175L11.9998 1.99475L11.8828 2.00175Z" fill="#336CCE"/>
</svg>
