<svg width="16" height="16" viewBox="0 0 16 16" fill="none" xmlns="http://www.w3.org/2000/svg">
<path d="M8.00065 1.3335C7.12517 1.3335 6.25827 1.50593 5.44943 1.84097C4.64059 2.176 3.90566 2.66706 3.28661 3.28612C2.03636 4.53636 1.33398 6.23205 1.33398 8.00016C1.33398 9.76827 2.03636 11.464 3.28661 12.7142C3.90566 13.3333 4.64059 13.8243 5.44943 14.1594C6.25827 14.4944 7.12517 14.6668 8.00065 14.6668C9.76876 14.6668 11.4645 13.9645 12.7147 12.7142C13.9649 11.464 14.6673 9.76827 14.6673 8.00016C14.6673 7.12468 14.4949 6.25778 14.1598 5.44894C13.8248 4.6401 13.3338 3.90517 12.7147 3.28612C12.0956 2.66706 11.3607 2.176 10.5519 1.84097C9.74304 1.50593 8.87613 1.3335 8.00065 1.3335ZM4.71398 12.1868C5.00065 11.5868 6.74732 11.0002 8.00065 11.0002C9.25398 11.0002 11.0007 11.5868 11.2873 12.1868C10.3536 12.9308 9.19457 13.3352 8.00065 13.3335C6.76065 13.3335 5.62065 12.9068 4.71398 12.1868ZM12.2407 11.2202C11.2873 10.0602 8.97398 9.66683 8.00065 9.66683C7.02732 9.66683 4.71398 10.0602 3.76065 11.2202C3.05144 10.2966 2.66709 9.16463 2.66732 8.00016C2.66732 5.06016 5.06065 2.66683 8.00065 2.66683C10.9407 2.66683 13.334 5.06016 13.334 8.00016C13.334 9.2135 12.9207 10.3335 12.2407 11.2202ZM8.00065 4.00016C6.70732 4.00016 5.66732 5.04016 5.66732 6.3335C5.66732 7.62683 6.70732 8.66683 8.00065 8.66683C9.29398 8.66683 10.334 7.62683 10.334 6.3335C10.334 5.04016 9.29398 4.00016 8.00065 4.00016ZM8.00065 7.3335C7.73543 7.3335 7.48108 7.22814 7.29354 7.0406C7.10601 6.85307 7.00065 6.59871 7.00065 6.3335C7.00065 6.06828 7.10601 5.81393 7.29354 5.62639C7.48108 5.43885 7.73543 5.3335 8.00065 5.3335C8.26587 5.3335 8.52022 5.43885 8.70776 5.62639C8.89529 5.81393 9.00065 6.06828 9.00065 6.3335C9.00065 6.59871 8.89529 6.85307 8.70776 7.0406C8.52022 7.22814 8.26587 7.3335 8.00065 7.3335Z" fill="#75767E"/>
</svg>
