<svg width="16" height="16" viewBox="0 0 16 16" fill="none" xmlns="http://www.w3.org/2000/svg">
<path d="M8.00065 12.8002C6.33398 12.8002 4.86065 11.9468 4.00065 10.6668C4.02065 9.3335 6.66732 8.60016 8.00065 8.60016C9.33398 8.60016 11.9807 9.3335 12.0007 10.6668C11.5599 11.3231 10.9646 11.8609 10.267 12.2329C9.56949 12.605 8.79119 12.7998 8.00065 12.8002ZM8.00065 3.3335C8.53108 3.3335 9.03979 3.54421 9.41487 3.91928C9.78994 4.29436 10.0007 4.80306 10.0007 5.3335C10.0007 5.86393 9.78994 6.37264 9.41487 6.74771C9.03979 7.12278 8.53108 7.3335 8.00065 7.3335C7.47022 7.3335 6.96151 7.12278 6.58644 6.74771C6.21136 6.37264 6.00065 5.86393 6.00065 5.3335C6.00065 4.80306 6.21136 4.29436 6.58644 3.91928C6.96151 3.54421 7.47022 3.3335 8.00065 3.3335ZM8.00065 1.3335C7.12517 1.3335 6.25827 1.50593 5.44943 1.84097C4.64059 2.176 3.90566 2.66706 3.28661 3.28612C2.03636 4.53636 1.33398 6.23205 1.33398 8.00016C1.33398 9.76827 2.03636 11.464 3.28661 12.7142C3.90566 13.3333 4.64059 13.8243 5.44943 14.1594C6.25827 14.4944 7.12517 14.6668 8.00065 14.6668C9.76876 14.6668 11.4645 13.9645 12.7147 12.7142C13.9649 11.464 14.6673 9.76827 14.6673 8.00016C14.6673 4.3135 11.6673 1.3335 8.00065 1.3335Z" fill="#336CCE"/>
</svg>
