<svg width="22" height="22" viewBox="0 0 22 22" fill="none" xmlns="http://www.w3.org/2000/svg">
<path d="M19.7956 5.13146L11.4031 1.9063C11.1438 1.8089 10.8579 1.8089 10.5985 1.9063L2.20566 5.13146C2.09649 5.17242 2.00241 5.24572 1.936 5.34157C1.86958 5.43742 1.83399 5.55125 1.83398 5.66785V6.9895C1.83398 7.30604 2.09036 7.56242 2.4069 7.56242H19.5944C19.9109 7.56242 20.1673 7.30604 20.1673 6.9895V5.66785C20.1673 5.42902 20.0191 5.21525 19.7956 5.13146ZM4.12565 8.70825V14.4374H3.55273C3.2362 14.4374 2.97982 14.6938 2.97982 15.0103V16.7291H19.0215V15.0103C19.0215 14.6938 18.7651 14.4374 18.4486 14.4374H17.8757V8.70825H15.584V14.4374H12.1465V8.70825H9.85482V14.4374H6.41732V8.70825H4.12565ZM19.5944 17.8749H2.4069C2.09036 17.8749 1.83398 18.1313 1.83398 18.4478V19.5937C1.83398 19.9102 2.09036 20.1666 2.4069 20.1666H19.5944C19.9109 20.1666 20.1673 19.9102 20.1673 19.5937V18.4478C20.1673 18.1313 19.9109 17.8749 19.5944 17.8749Z" fill="#75767E"/>
</svg>
