<svg width="14" height="14" viewBox="0 0 14 14" fill="none" xmlns="http://www.w3.org/2000/svg">
<path fill-rule="evenodd" clip-rule="evenodd" d="M13.6779 6.99961C13.6779 8.69699 13.0036 10.3249 11.8034 11.5251C10.6032 12.7253 8.97532 13.3996 7.27793 13.3996C5.58054 13.3996 3.95268 12.7253 2.75245 11.5251C1.55221 10.3249 0.87793 8.69699 0.87793 6.99961C0.87793 5.30222 1.55221 3.67436 2.75245 2.47413C3.95268 1.27389 5.58054 0.599609 7.27793 0.599609C8.97532 0.599609 10.6032 1.27389 11.8034 2.47413C13.0036 3.67436 13.6779 5.30222 13.6779 6.99961ZM7.27793 4.59961C7.13737 4.59947 6.99925 4.63637 6.87749 4.70659C6.75572 4.77682 6.65461 4.87788 6.58433 4.99961C6.53358 5.09391 6.46442 5.17706 6.38094 5.24414C6.29746 5.31121 6.20136 5.36084 6.09834 5.39009C5.99533 5.41934 5.88749 5.4276 5.78121 5.4144C5.67494 5.40119 5.5724 5.36679 5.47968 5.31322C5.38695 5.25965 5.30592 5.18801 5.24139 5.10254C5.17687 5.01708 5.13016 4.91953 5.10403 4.81568C5.07791 4.71182 5.0729 4.60378 5.0893 4.49796C5.1057 4.39213 5.14319 4.29068 5.19953 4.19961C5.4637 3.7421 5.87146 3.38454 6.35955 3.18238C6.84764 2.98022 7.3888 2.94476 7.8991 3.0815C8.4094 3.21823 8.86033 3.51952 9.18195 3.93865C9.50357 4.35777 9.67791 4.87131 9.67793 5.39961C9.67807 5.8961 9.52428 6.38043 9.23774 6.78589C8.95119 7.19135 8.54599 7.498 8.07793 7.66361V7.79961C8.07793 8.01178 7.99364 8.21527 7.84361 8.36529C7.69359 8.51532 7.4901 8.59961 7.27793 8.59961C7.06576 8.59961 6.86227 8.51532 6.71224 8.36529C6.56221 8.21527 6.47793 8.01178 6.47793 7.79961V6.99961C6.47793 6.78744 6.56221 6.58395 6.71224 6.43392C6.86227 6.28389 7.06576 6.19961 7.27793 6.19961C7.4901 6.19961 7.69359 6.11532 7.84361 5.96529C7.99364 5.81527 8.07793 5.61178 8.07793 5.39961C8.07793 5.18744 7.99364 4.98395 7.84361 4.83392C7.69359 4.68389 7.4901 4.59961 7.27793 4.59961ZM7.27793 10.9996C7.4901 10.9996 7.69359 10.9153 7.84361 10.7653C7.99364 10.6153 8.07793 10.4118 8.07793 10.1996C8.07793 9.98744 7.99364 9.78395 7.84361 9.63392C7.69359 9.48389 7.4901 9.39961 7.27793 9.39961C7.06576 9.39961 6.86227 9.48389 6.71224 9.63392C6.56221 9.78395 6.47793 9.98744 6.47793 10.1996C6.47793 10.4118 6.56221 10.6153 6.71224 10.7653C6.86227 10.9153 7.06576 10.9996 7.27793 10.9996Z" fill="#3488ED"/>
</svg>
