<svg width="24" height="24" viewBox="0 0 24 24" fill="none" xmlns="http://www.w3.org/2000/svg">
<path fill-rule="evenodd" clip-rule="evenodd" d="M12.0006 1C10.6745 1 9.40272 1.52678 8.46504 2.46447C7.52735 3.40215 7.00057 4.67392 7.00057 6V7H5.86288C4.28896 7 2.98264 8.21634 2.8705 9.78626L2.15622 19.7863C2.03217 21.5229 3.40757 23 5.14859 23H18.8527C20.5937 23 21.9691 21.5229 21.8451 19.7863L21.1308 9.78626C21.0186 8.21634 19.7123 7 18.1384 7H17.0006V6C17.0006 4.67392 16.4738 3.40215 15.5361 2.46447C14.5984 1.52678 13.3267 1 12.0006 1ZM15.0006 9V11C15.0006 11.5523 15.4483 12 16.0006 12C16.5529 12 17.0006 11.5523 17.0006 11V9H18.1384C18.663 9 19.0985 9.40545 19.1359 9.92875L19.8501 19.9288C19.8915 20.5076 19.433 21 18.8527 21H5.14859C4.56825 21 4.10979 20.5076 4.15113 19.9288L4.86542 9.92875C4.9028 9.40545 5.33824 9 5.86288 9H7.00057V11C7.00057 11.5523 7.44828 12 8.00057 12C8.55285 12 9.00057 11.5523 9.00057 11V9H15.0006ZM15.0006 7V6C15.0006 5.20435 14.6845 4.44129 14.1219 3.87868C13.5593 3.31607 12.7962 3 12.0006 3C11.2049 3 10.4419 3.31607 9.87925 3.87868C9.31664 4.44129 9.00057 5.20435 9.00057 6V7H15.0006Z" fill="#CF3135"/>
</svg>
