<svg width="25" height="24" viewBox="0 0 25 24" fill="none" xmlns="http://www.w3.org/2000/svg">
<path fill-rule="evenodd" clip-rule="evenodd" d="M12.5006 1C11.1745 1 9.90272 1.52678 8.96504 2.46447C8.02735 3.40215 7.50057 4.67392 7.50057 6V7H6.36288C4.78896 7 3.48264 8.21634 3.3705 9.78626L2.65622 19.7863C2.53217 21.5229 3.90757 23 5.64859 23H19.3527C21.0937 23 22.4691 21.5229 22.3451 19.7863L21.6308 9.78626C21.5186 8.21634 20.2123 7 18.6384 7H17.5006V6C17.5006 4.67392 16.9738 3.40215 16.0361 2.46447C15.0984 1.52678 13.8267 1 12.5006 1ZM15.5006 9V11C15.5006 11.5523 15.9483 12 16.5006 12C17.0529 12 17.5006 11.5523 17.5006 11V9H18.6384C19.163 9 19.5985 9.40545 19.6359 9.92875L20.3501 19.9288C20.3915 20.5076 19.933 21 19.3527 21H5.64859C5.06825 21 4.60979 20.5076 4.65113 19.9288L5.36542 9.92875C5.4028 9.40545 5.83824 9 6.36288 9H7.50057V11C7.50057 11.5523 7.94828 12 8.50057 12C9.05285 12 9.50057 11.5523 9.50057 11V9H15.5006ZM15.5006 7V6C15.5006 5.20435 15.1845 4.44129 14.6219 3.87868C14.0593 3.31607 13.2962 3 12.5006 3C11.7049 3 10.9419 3.31607 10.3792 3.87868C9.81664 4.44129 9.50057 5.20435 9.50057 6V7H15.5006Z" fill="white"/>
</svg>
