<svg width="14" height="14" viewBox="0 0 14 14" fill="none" xmlns="http://www.w3.org/2000/svg">
<path fill-rule="evenodd" clip-rule="evenodd" d="M7.27793 13.3996C8.97532 13.3996 10.6032 12.7253 11.8034 11.5251C13.0036 10.3249 13.6779 8.69699 13.6779 6.99961C13.6779 5.30222 13.0036 3.67436 11.8034 2.47413C10.6032 1.27389 8.97532 0.599609 7.27793 0.599609C5.58054 0.599609 3.95268 1.27389 2.75245 2.47413C1.55221 3.67436 0.87793 5.30222 0.87793 6.99961C0.87793 8.69699 1.55221 10.3249 2.75245 11.5251C3.95268 12.7253 5.58054 13.3996 7.27793 13.3996ZM8.07793 3.79961C8.07793 3.58744 7.99364 3.38395 7.84361 3.23392C7.69359 3.08389 7.4901 2.99961 7.27793 2.99961C7.06576 2.99961 6.86227 3.08389 6.71224 3.23392C6.56221 3.38395 6.47793 3.58744 6.47793 3.79961V6.99961C6.47797 7.21176 6.56229 7.41521 6.71233 7.56521L8.97473 9.82841C9.04906 9.90274 9.1373 9.9617 9.23441 10.0019C9.33153 10.0421 9.43561 10.0629 9.54073 10.0629C9.64584 10.0629 9.74993 10.0421 9.84705 10.0019C9.94416 9.9617 10.0324 9.90274 10.1067 9.82841C10.1811 9.75408 10.24 9.66584 10.2802 9.56873C10.3205 9.47161 10.3412 9.36752 10.3412 9.26241C10.3412 9.15729 10.3205 9.05321 10.2802 8.95609C10.24 8.85898 10.1811 8.77074 10.1067 8.69641L8.07793 6.66841V3.79961Z" fill="#CF3135"/>
</svg>
