<svg width="16" height="16" viewBox="0 0 16 16" fill="none" xmlns="http://www.w3.org/2000/svg">
<path d="M11.6699 2.45166C10.3699 2.45166 8.96992 2.71833 8.00326 3.45166C7.03659 2.71833 5.63659 2.45166 4.33659 2.45166C3.36992 2.45166 2.34326 2.59833 1.48326 2.97833C0.996589 3.19833 0.669922 3.67166 0.669922 4.21166V11.7317C0.669922 12.5983 1.48326 13.2383 2.32326 13.025C2.97659 12.8583 3.66992 12.785 4.33659 12.785C5.37659 12.785 6.48326 12.9583 7.37659 13.3983C7.77659 13.5983 8.22992 13.5983 8.62326 13.3983C9.51659 12.9517 10.6233 12.785 11.6633 12.785C12.3299 12.785 13.0233 12.8583 13.6766 13.025C14.5166 13.245 15.3299 12.605 15.3299 11.7317V4.21166C15.3299 3.67166 15.0033 3.19833 14.5166 2.97833C13.6633 2.59833 12.6366 2.45166 11.6699 2.45166Z" fill="#336CCE"/>
</svg>
