<svg width="16" height="16" viewBox="0 0 16 16" fill="none" xmlns="http://www.w3.org/2000/svg">
<path fill-rule="evenodd" clip-rule="evenodd" d="M8.00326 3.45166C8.96992 2.71833 10.3699 2.45166 11.6699 2.45166C12.6366 2.45166 13.6633 2.59833 14.5166 2.97833C15.0033 3.19833 15.3299 3.67166 15.3299 4.21166V11.7317C15.3299 12.605 14.5166 13.245 13.6766 13.025C13.0233 12.8583 12.3299 12.785 11.6633 12.785C10.6233 12.785 9.51659 12.9517 8.62326 13.3983C8.22992 13.5983 7.77659 13.5983 7.37659 13.3983C6.48326 12.9583 5.37659 12.785 4.33659 12.785C3.66992 12.785 2.97659 12.8583 2.32326 13.025C1.48326 13.2383 0.669922 12.5983 0.669922 11.7317V4.21166C0.669922 3.67166 0.996589 3.19833 1.48326 2.97833C2.34326 2.59833 3.36992 2.45166 4.33659 2.45166C5.63659 2.45166 7.03659 2.71833 8.00326 3.45166ZM13.2033 11.5917C13.6166 11.665 14.0033 11.3583 14.0033 10.9383V4.62499C14.0033 4.31166 13.7766 4.03833 13.4699 3.97166C12.8899 3.84499 12.2833 3.78499 11.6699 3.78499C10.5366 3.78499 8.90326 4.21833 8.00326 4.78499V12.4583C8.90326 11.8917 10.5366 11.4583 11.6699 11.4583C12.1833 11.4583 12.7033 11.4983 13.2033 11.5917Z" fill="#75767E"/>
</svg>
