<svg width="16" height="17" viewBox="0 0 16 17" fill="none" xmlns="http://www.w3.org/2000/svg">
    <path d="M11.9454 1.44458C12.1483 1.23446 12.3911 1.06686 12.6595 0.95156C12.9279 0.83626 13.2166 0.775571 13.5087 0.773032C13.8008 0.770494 14.0905 0.826158 14.3609 0.936776C14.6313 1.04739 14.8769 1.21075 15.0834 1.41731C15.29 1.62388 15.4534 1.86951 15.564 2.13988C15.6746 2.41026 15.7303 2.69995 15.7277 2.99207C15.7252 3.28418 15.6645 3.57286 15.5492 3.84127C15.4339 4.10968 15.2663 4.35244 15.0562 4.55538L14.1839 5.42768L11.0731 2.31688L11.9454 1.44458V1.44458ZM9.51768 3.87228L0.300781 13.0892V16.2H3.41158L12.6296 6.98308L9.51658 3.87228H9.51768Z" fill="#75767E"/>
</svg>
