<svg width="17" height="16" viewBox="0 0 17 16" fill="none" xmlns="http://www.w3.org/2000/svg">
<path d="M8.64889 7.76064L8.50022 7.9073L8.35089 7.76064C8.0734 7.48668 7.69916 7.33307 7.30922 7.33307C6.91929 7.33307 6.54505 7.48668 6.26756 7.76064C6.12984 7.89313 6.02028 8.05205 5.94544 8.22789C5.87061 8.40373 5.83203 8.59287 5.83203 8.78397C5.83203 8.97507 5.87061 9.16421 5.94544 9.34005C6.02028 9.51589 6.12984 9.67481 6.26756 9.8073L8.50022 12L10.7329 9.8073C10.8706 9.67481 10.9802 9.51589 11.055 9.34005C11.1298 9.16421 11.1684 8.97507 11.1684 8.78397C11.1684 8.59287 11.1298 8.40373 11.055 8.22789C10.9802 8.05205 10.8706 7.89313 10.7329 7.76064C10.4553 7.48664 10.0809 7.33301 9.69089 7.33301C9.30084 7.33301 8.92649 7.48664 8.64889 7.76064Z" fill="#75767E"/>
<path d="M14.9718 7.52848L8.97184 1.52848C8.90998 1.46651 8.83651 1.41735 8.75564 1.38381C8.67476 1.35027 8.58807 1.33301 8.50051 1.33301C8.41295 1.33301 8.32626 1.35027 8.24538 1.38381C8.1645 1.41735 8.09103 1.46651 8.02918 1.52848L2.02918 7.52848C1.93597 7.62171 1.8725 7.74049 1.84679 7.86979C1.82107 7.99909 1.83428 8.13311 1.88472 8.25491C1.93517 8.37671 2.0206 8.48082 2.1302 8.55408C2.23981 8.62733 2.36868 8.66645 2.50051 8.66648H3.16718V13.3331C3.16718 14.0685 3.76518 14.6665 4.50051 14.6665H12.5005C13.2358 14.6665 13.8338 14.0685 13.8338 13.3331V8.66648H14.5005C14.6323 8.66645 14.7612 8.62733 14.8708 8.55408C14.9804 8.48082 15.0658 8.37671 15.1163 8.25491C15.1667 8.13311 15.1799 7.99909 15.1542 7.86979C15.1285 7.74049 15.065 7.62171 14.9718 7.52848ZM12.5012 13.3331H4.50051V6.94314L8.50051 2.94314L12.5005 6.94314V9.99981L12.5012 13.3331Z" fill="#75767E"/>
</svg>
