<svg width="17" height="16" viewBox="0 0 17 16" fill="none" xmlns="http://www.w3.org/2000/svg">
<path d="M2.50048 9.33311H3.83381V13.9998C3.83381 14.1766 3.90405 14.3462 4.02907 14.4712C4.1541 14.5962 4.32367 14.6664 4.50048 14.6664H12.5005C12.6773 14.6664 12.8469 14.5962 12.9719 14.4712C13.0969 14.3462 13.1671 14.1766 13.1671 13.9998V9.33311H14.5005C14.6293 9.33322 14.7554 9.29592 14.8635 9.22574C14.9715 9.15557 15.0569 9.05553 15.1091 8.93777C15.1618 8.82008 15.1791 8.68963 15.159 8.56228C15.1389 8.43493 15.0822 8.31617 14.9958 8.22044L8.99581 1.55377C8.74314 1.27244 8.25781 1.27244 8.00514 1.55377L2.00514 8.22044C1.91894 8.31622 1.86234 8.43492 1.84219 8.56219C1.82204 8.68947 1.8392 8.81985 1.89161 8.93757C1.94402 9.05529 2.02941 9.1553 2.13747 9.2255C2.24553 9.2957 2.37162 9.33307 2.50048 9.33311ZM6.26914 7.76044C6.54663 7.48648 6.92087 7.33287 7.31081 7.33287C7.70075 7.33287 8.07499 7.48648 8.35248 7.76044L8.50181 7.90711L8.65048 7.76044C8.92808 7.48644 9.30243 7.33281 9.69248 7.33281C10.0825 7.33281 10.4569 7.48644 10.7345 7.76044C10.8722 7.89293 10.9818 8.05186 11.0566 8.22769C11.1314 8.40353 11.17 8.59267 11.17 8.78377C11.17 8.97488 11.1314 9.16401 11.0566 9.33985C10.9818 9.51569 10.8722 9.67462 10.7345 9.80711L8.50181 11.9998L6.26914 9.80711C6.13142 9.67462 6.02186 9.51569 5.94703 9.33985C5.87219 9.16401 5.83362 8.97488 5.83362 8.78377C5.83362 8.59267 5.87219 8.40353 5.94703 8.22769C6.02186 8.05186 6.13142 7.89293 6.26914 7.76044Z" fill="#336CCE"/>
</svg>
