<svg width="33" height="32" viewBox="0 0 33 32" fill="none" xmlns="http://www.w3.org/2000/svg">
<path fill-rule="evenodd" clip-rule="evenodd" d="M8.53221 5.26566C9.17405 5.08617 9.83771 4.99675 10.5042 4.99996C11.371 5.00042 12.1726 5.22642 12.9133 5.43526C13.0344 5.4694 13.1538 5.50308 13.2717 5.53524C14.1442 5.77335 15.129 5.99996 16.5015 5.99996C17.874 5.99996 18.8582 5.77336 19.7304 5.53526C19.848 5.50316 19.9672 5.46955 20.088 5.43548C20.8289 5.22654 21.6308 5.0004 22.499 4.99996C23.1461 4.99697 23.7903 5.08749 24.4116 5.26872L24.4133 5.26923L24.415 5.26973C26.1101 5.77081 27.3967 7.02947 28.3862 8.74391C29.3716 10.4511 30.1127 12.6929 30.6973 15.3359C31.297 18.046 31.6313 20.5285 31.4541 22.4847C31.2785 24.4235 30.5521 26.1822 28.7047 26.8132L28.7043 26.8133C27.5713 27.1996 26.4965 26.9537 25.5695 26.4148C24.6683 25.8909 23.857 25.0662 23.1379 24.1703C22.4601 23.3258 21.7592 22.8104 20.8016 22.4849C19.8016 22.1449 18.4713 21.9943 16.5015 21.9943C14.5324 21.9943 13.1808 22.1447 12.1597 22.4864C11.1797 22.8144 10.4642 23.3322 9.79316 24.1696L9.79215 24.1709C9.079 25.058 8.281 25.8888 7.38596 26.4154C6.45678 26.962 5.3818 27.2001 4.23129 26.8018L4.23075 26.8016C2.49248 26.1988 1.7797 24.4067 1.57401 22.4998C1.36179 20.5321 1.62913 18.0357 2.23379 15.3335L2.23381 15.3334C2.82474 12.6937 3.56536 10.4527 4.5487 8.74579C5.53635 7.03136 6.82036 5.7709 8.5184 5.26963L8.52529 5.2676L8.53221 5.26566ZM9.0779 7.1898C8.04117 7.49813 7.11303 8.30107 6.2817 9.74414C5.44427 11.1978 4.75771 13.2143 4.18552 15.7702M9.0779 7.1898C9.53968 7.06136 10.017 6.99747 10.4964 6.99995L10.4989 6.99996H10.5015C11.0727 6.99996 11.581 7.14143 12.3359 7.35157C12.4647 7.3874 12.6005 7.42522 12.7451 7.46468C13.7048 7.72657 14.8809 7.99996 16.5015 7.99996C18.1222 7.99996 19.2977 7.72656 20.2571 7.46466C20.4011 7.42533 20.5366 7.38763 20.6649 7.35191C21.4202 7.14161 21.929 6.99996 22.5015 6.99996H22.504L22.5065 6.99995C22.961 6.99768 23.4134 7.06109 23.8498 7.18819C24.8878 7.49562 25.8202 8.29906 26.654 9.74367C27.4924 11.1963 28.1791 13.212 28.7445 15.7678L28.7445 15.7679C29.333 18.4271 29.6108 20.6642 29.4622 22.3043C29.3121 23.9617 28.7747 24.6758 28.0583 24.9205C27.6095 25.0734 27.1401 25.0145 26.5747 24.6858C25.9832 24.3419 25.3536 23.7356 24.6976 22.9184C23.8104 21.8129 22.8041 21.0532 21.4454 20.5913C20.1289 20.1438 18.5336 19.9943 16.5015 19.9943C14.4688 19.9943 12.8573 20.144 11.525 20.5898C10.1521 21.0492 9.12436 21.8061 8.23299 22.9183C7.57004 23.7428 6.9535 24.3493 6.37178 24.6916C5.82409 25.0138 5.36 25.0761 4.88551 24.9118C4.30273 24.7094 3.74768 24.0023 3.56248 22.2853C3.38377 20.6284 3.60268 18.3749 4.1855 15.7703" fill="#26AB5F"/>
<path d="M18.75 15.25C19.4404 15.25 20 14.6904 20 14C20 13.3096 19.4404 12.75 18.75 12.75C18.0596 12.75 17.5 13.3096 17.5 14C17.5 14.6904 18.0596 15.25 18.75 15.25Z" fill="#26AB5F"/>
<path d="M21.5 18C21.2526 18 21.0108 17.9266 20.8052 17.7891C20.5996 17.6516 20.4394 17.4562 20.3449 17.2276C20.2503 16.999 20.2258 16.7476 20.2742 16.505C20.3227 16.2624 20.4421 16.0397 20.6172 15.865C20.7924 15.6903 21.0154 15.5715 21.2581 15.5236C21.5007 15.4758 21.7522 15.501 21.9805 15.5961C22.2089 15.6911 22.4039 15.8518 22.5409 16.0578C22.6778 16.2638 22.7506 16.5058 22.75 16.7531C22.7492 17.0841 22.6171 17.4012 22.3828 17.635C22.1485 17.8687 21.831 18 21.5 18Z" fill="#26AB5F"/>
<path d="M21.5 12.5C22.1904 12.5 22.75 11.9404 22.75 11.25C22.75 10.5596 22.1904 10 21.5 10C20.8096 10 20.25 10.5596 20.25 11.25C20.25 11.9404 20.8096 12.5 21.5 12.5Z" fill="#26AB5F"/>
<path d="M24.25 15.25C24.9404 15.25 25.5 14.6904 25.5 14C25.5 13.3096 24.9404 12.75 24.25 12.75C23.5596 12.75 23 13.3096 23 14C23 14.6904 23.5596 15.25 24.25 15.25Z" fill="#26AB5F"/>
<path fill-rule="evenodd" clip-rule="evenodd" d="M10.5 10C11.0523 10 11.5 10.4477 11.5 11V17C11.5 17.5523 11.0523 18 10.5 18C9.94772 18 9.5 17.5523 9.5 17V11C9.5 10.4477 9.94772 10 10.5 10Z" fill="#26AB5F"/>
<path fill-rule="evenodd" clip-rule="evenodd" d="M6.5 14C6.5 13.4477 6.94772 13 7.5 13H13.5C14.0523 13 14.5 13.4477 14.5 14C14.5 14.5523 14.0523 15 13.5 15H7.5C6.94772 15 6.5 14.5523 6.5 14Z" fill="#26AB5F"/>
</svg>
