<svg width="18" height="18" viewBox="0 0 18 18" fill="none" xmlns="http://www.w3.org/2000/svg">
<path fill-rule="evenodd" clip-rule="evenodd" d="M8.99922 17.7999C11.3331 17.7999 13.5714 16.8728 15.2218 15.2225C16.8721 13.5722 17.7992 11.3339 17.7992 8.99995C17.7992 6.66605 16.8721 4.42773 15.2218 2.77741C13.5714 1.12709 11.3331 0.199951 8.99922 0.199951C6.66531 0.199951 4.427 1.12709 2.77668 2.77741C1.12636 4.42773 0.199219 6.66605 0.199219 8.99995C0.199219 11.3339 1.12636 13.5722 2.77668 15.2225C4.427 16.8728 6.66531 17.7999 8.99922 17.7999ZM10.0992 3.49995C10.0992 3.20821 9.98333 2.92842 9.77703 2.72213C9.57075 2.51584 9.29096 2.39995 8.99922 2.39995C8.70748 2.39995 8.42769 2.51584 8.2214 2.72213C8.01511 2.92842 7.89922 3.20821 7.89922 3.49995V3.60115C7.24216 3.71812 6.61525 3.96574 6.05562 4.32935C5.26142 4.85735 4.59922 5.70985 4.59922 6.79995C4.59922 7.88895 5.26142 8.74145 6.05562 9.27055C6.58362 9.62255 7.21502 9.87005 7.89922 9.99875V12.1339C7.46912 11.9942 7.15122 11.7852 6.97192 11.5795C6.87886 11.4653 6.76382 11.3709 6.63361 11.302C6.5034 11.2331 6.36068 11.1911 6.21392 11.1784C6.06716 11.1657 5.91935 11.1827 5.77925 11.2282C5.63915 11.2737 5.50963 11.3469 5.39836 11.4434C5.28709 11.54 5.19634 11.6579 5.1315 11.7901C5.06666 11.9224 5.02904 12.0664 5.02089 12.2134C5.01273 12.3605 5.0342 12.5077 5.08402 12.6464C5.13384 12.785 5.211 12.9122 5.31092 13.0204C5.92912 13.7343 6.86522 14.2041 7.89922 14.3988V14.5C7.89922 14.7917 8.01511 15.0715 8.2214 15.2778C8.42769 15.4841 8.70748 15.5999 8.99922 15.5999C9.29096 15.5999 9.57075 15.4841 9.77703 15.2778C9.98333 15.0715 10.0992 14.7917 10.0992 14.5V14.3988C10.7563 14.2818 11.3832 14.0342 11.9428 13.6706C12.737 13.1426 13.3992 12.2901 13.3992 11.2C13.3992 10.111 12.737 9.25845 11.9428 8.72935C11.3832 8.36574 10.7563 8.11812 10.0992 8.00115V5.86605C10.5293 6.00575 10.8472 6.21475 11.0265 6.42045C11.1204 6.53189 11.2356 6.62356 11.3652 6.69012C11.4949 6.75669 11.6365 6.79682 11.7818 6.8082C11.9271 6.81957 12.0732 6.80195 12.2116 6.75637C12.3501 6.71079 12.4781 6.63815 12.5882 6.54268C12.6983 6.44721 12.7884 6.3308 12.8531 6.20023C12.9179 6.06965 12.956 5.92752 12.9654 5.78207C12.9747 5.63662 12.9551 5.49077 12.9075 5.35299C12.86 5.2152 12.7856 5.08823 12.6886 4.97945C12.0693 4.26555 11.1343 3.79585 10.0992 3.60115V3.49995Z" fill="#75767E"/>
</svg>
