<svg width="16" height="16" viewBox="0 0 16 16" fill="none" xmlns="http://www.w3.org/2000/svg">
<path fill-rule="evenodd" clip-rule="evenodd" d="M8.00065 1.3335C4.32065 1.3335 1.33398 4.32016 1.33398 8.00016C1.33398 11.6802 4.32065 14.6668 8.00065 14.6668C11.6807 14.6668 14.6673 11.6802 14.6673 8.00016C14.6673 4.32016 11.6807 1.3335 8.00065 1.3335ZM7.20065 10.6002L10.314 8.26683C10.494 8.1335 10.494 7.86683 10.314 7.7335L7.20065 5.40016C6.98065 5.2335 6.66732 5.3935 6.66732 5.66683V10.3335C6.66732 10.6068 6.98065 10.7668 7.20065 10.6002ZM2.66732 8.00016C2.66732 10.9402 5.06065 13.3335 8.00065 13.3335C10.9407 13.3335 13.334 10.9402 13.334 8.00016C13.334 5.06016 10.9407 2.66683 8.00065 2.66683C5.06065 2.66683 2.66732 5.06016 2.66732 8.00016Z" fill="#75767E"/>
</svg>
