<svg width="22" height="22" viewBox="0 0 22 22" fill="none" xmlns="http://www.w3.org/2000/svg">
<path d="M1.83398 9.69039H9.69113V1.83325H1.83398V9.69039ZM4.45303 4.4523H7.07208V7.07135H4.45303V4.4523ZM12.3102 1.83325V9.69039H20.1673V1.83325H12.3102ZM17.5483 7.07135H14.9292V4.4523H17.5483V7.07135ZM1.83398 20.1666H9.69113V12.3094H1.83398V20.1666ZM4.45303 14.9285H7.07208V17.5475H4.45303V14.9285ZM18.8578 12.3094H20.1673V17.5475H16.2387V16.238H14.9292V20.1666H12.3102V12.3094H16.2387V13.619H18.8578V12.3094ZM18.8578 18.8571H20.1673V20.1666H18.8578V18.8571ZM16.2387 18.8571H17.5483V20.1666H16.2387V18.8571Z" fill="#75767E"/>
</svg>
