<svg width="24" height="22" viewBox="0 0 24 22" fill="none" xmlns="http://www.w3.org/2000/svg">
<path d="M13.0301 2.17068C12.7062 1.17293 11.2946 1.17293 10.9696 2.17068L9.32403 7.23418C9.25315 7.45155 9.11532 7.64092 8.93026 7.77519C8.7452 7.90946 8.52241 7.98174 8.29378 7.98168H2.97028C1.92161 7.98168 1.48394 9.32501 2.33328 9.94251L6.64061 13.0712C6.82563 13.2057 6.96333 13.3953 7.03398 13.6129C7.10462 13.8305 7.10458 14.0648 7.03386 14.2823L5.38936 19.3458C5.06436 20.3436 6.20728 21.1745 7.05553 20.557L11.3629 17.4283C11.548 17.2938 11.771 17.2213 11.9999 17.2213C12.2287 17.2213 12.4517 17.2938 12.6369 17.4283L16.9442 20.557C17.7924 21.1745 18.9354 20.3447 18.6104 19.3458L16.9659 14.2823C16.8951 14.0648 16.8951 13.8305 16.9657 13.6129C17.0364 13.3953 17.1741 13.2057 17.3591 13.0712L21.6664 9.94251C22.5147 9.32501 22.0792 7.98168 21.0294 7.98168H15.7049C15.4764 7.98151 15.2539 7.90912 15.069 7.77487C14.8842 7.64062 14.7465 7.45137 14.6757 7.23418L13.0301 2.17068Z" fill="#F4CC3D" stroke="#F4CC3D" stroke-width="2" stroke-linecap="round" stroke-linejoin="round"/>
</svg>
