<svg width="24" height="22" viewBox="0 0 24 22" fill="none" xmlns="http://www.w3.org/2000/svg">
<path d="M10.4941 2.01614L10.4942 2.01582C10.9688 0.558696 13.0318 0.556954 13.5056 2.01614C13.5056 2.01619 13.5057 2.01624 13.5057 2.01628L15.1511 7.07918C15.1511 7.07923 15.1511 7.07928 15.1511 7.07933C15.1893 7.19622 15.2634 7.29806 15.3629 7.37032C15.4624 7.44261 15.5822 7.48159 15.7052 7.48168H21.0294C22.565 7.48168 23.199 9.44529 21.9607 10.3467L21.9603 10.3471L17.6531 13.4756C17.6531 13.4756 17.653 13.4757 17.653 13.4757C17.5534 13.5481 17.4793 13.6502 17.4413 13.7673L16.9657 13.6129L17.4413 13.7673C17.4033 13.8844 17.4033 14.0106 17.4414 14.1278L17.4414 14.1279L19.0858 19.1911C19.5606 20.6503 17.8905 21.8644 16.6499 20.9612L12.343 17.8329L12.3429 17.8328C12.2432 17.7603 12.1231 17.7213 11.9999 17.7213C11.8766 17.7213 11.7565 17.7603 11.6569 17.8328L11.6567 17.8329L7.3498 20.9612L10.4941 2.01614ZM10.4941 2.01614L8.84866 7.07918M10.4941 2.01614L8.84866 7.07918M8.84866 7.07918C8.84862 7.07929 8.84858 7.07941 8.84854 7.07953C8.81034 7.19643 8.73618 7.29827 8.63663 7.37049C8.53698 7.44279 8.41702 7.48171 8.29391 7.48168H8.29378H2.97028C1.43762 7.48168 0.797991 9.44448 2.03925 10.3469L2.03943 10.3471L6.3466 13.4756C6.44623 13.548 6.52038 13.6501 6.55842 13.7673C6.59645 13.8844 6.59643 14.0106 6.55835 14.1278L6.55831 14.1279L4.91394 19.191C4.91392 19.1911 4.9139 19.1911 4.91388 19.1912L4.91381 19.1914L5.38936 19.3458M8.84866 7.07918L7.34937 20.9616L7.05553 20.557C6.20728 21.1745 5.06436 20.3436 5.38936 19.3458M5.38936 19.3458L7.03386 14.2823M5.38936 19.3458L7.03386 14.2823M7.03386 14.2823C7.10458 14.0648 7.10462 13.8305 7.03398 13.6129C6.96333 13.3953 6.82563 13.2057 6.64061 13.0712L7.03386 14.2823Z" fill="#F4CC3D"/>
<path d="M10.4941 2.01614L10.4942 2.01582C10.9688 0.558696 13.0318 0.556954 13.5056 2.01614C13.5056 2.01619 13.5057 2.01624 13.5057 2.01628L15.1511 7.07918C15.1511 7.07923 15.1511 7.07928 15.1511 7.07933C15.1893 7.19622 15.2634 7.29806 15.3629 7.37032C15.4624 7.44261 15.5822 7.48159 15.7052 7.48168H21.0294C22.565 7.48168 23.199 9.44529 21.9607 10.3467L21.9603 10.3471L17.6531 13.4756C17.6531 13.4756 17.653 13.4757 17.653 13.4757C17.5534 13.5481 17.4793 13.6502 17.4413 13.7673L16.9657 13.6129L17.4413 13.7673C17.4033 13.8844 17.4033 14.0106 17.4414 14.1278L17.4414 14.1279L19.0858 19.1911C19.5606 20.6503 17.8905 21.8644 16.6499 20.9612L12.343 17.8329L12.3429 17.8328C12.2432 17.7603 12.1231 17.7213 11.9999 17.7213C11.8766 17.7213 11.7565 17.7603 11.6569 17.8328L11.6567 17.8329L7.3498 20.9612L10.4941 2.01614ZM10.4941 2.01614L8.84866 7.07918M10.4941 2.01614L8.84866 7.07918M8.84866 7.07918C8.84862 7.07929 8.84858 7.07941 8.84854 7.07953C8.81034 7.19643 8.73618 7.29827 8.63663 7.37049C8.53698 7.44279 8.41702 7.48171 8.29391 7.48168H8.29378H2.97028C1.43762 7.48168 0.797991 9.44448 2.03925 10.3469L2.03943 10.3471L6.3466 13.4756C6.44623 13.548 6.52038 13.6501 6.55842 13.7673C6.59645 13.8844 6.59643 14.0106 6.55835 14.1278L6.55831 14.1279L4.91394 19.191C4.91392 19.1911 4.9139 19.1911 4.91388 19.1912L4.91381 19.1914L5.38936 19.3458M8.84866 7.07918L7.34937 20.9616L7.05553 20.557C6.20728 21.1745 5.06436 20.3436 5.38936 19.3458M5.38936 19.3458L7.03386 14.2823M5.38936 19.3458L7.03386 14.2823M7.03386 14.2823C7.10458 14.0648 7.10462 13.8305 7.03398 13.6129C6.96333 13.3953 6.82563 13.2057 6.64061 13.0712L7.03386 14.2823Z" fill="#D1D1D4"/>
<path d="M10.4941 2.01614L10.4942 2.01582C10.9688 0.558696 13.0318 0.556954 13.5056 2.01614C13.5056 2.01619 13.5057 2.01624 13.5057 2.01628L15.1511 7.07918C15.1511 7.07923 15.1511 7.07928 15.1511 7.07933C15.1893 7.19622 15.2634 7.29806 15.3629 7.37032C15.4624 7.44261 15.5822 7.48159 15.7052 7.48168H21.0294C22.565 7.48168 23.199 9.44529 21.9607 10.3467L21.9603 10.3471L17.6531 13.4756C17.6531 13.4756 17.653 13.4757 17.653 13.4757C17.5534 13.5481 17.4793 13.6502 17.4413 13.7673L16.9657 13.6129L17.4413 13.7673C17.4033 13.8844 17.4033 14.0106 17.4414 14.1278L17.4414 14.1279L19.0858 19.1911C19.5606 20.6503 17.8905 21.8644 16.6499 20.9612L12.343 17.8329L12.3429 17.8328C12.2432 17.7603 12.1231 17.7213 11.9999 17.7213C11.8766 17.7213 11.7565 17.7603 11.6569 17.8328L11.6567 17.8329L7.3498 20.9612L10.4941 2.01614ZM10.4941 2.01614L8.84866 7.07918M10.4941 2.01614L8.84866 7.07918M8.84866 7.07918C8.84862 7.07929 8.84858 7.07941 8.84854 7.07953C8.81034 7.19643 8.73618 7.29827 8.63663 7.37049C8.53698 7.44279 8.41702 7.48171 8.29391 7.48168H8.29378H2.97028C1.43762 7.48168 0.797991 9.44448 2.03925 10.3469L2.03943 10.3471L6.3466 13.4756C6.44623 13.548 6.52038 13.6501 6.55842 13.7673C6.59645 13.8844 6.59643 14.0106 6.55835 14.1278L6.55831 14.1279L4.91394 19.191C4.91392 19.1911 4.9139 19.1911 4.91388 19.1912L4.91381 19.1914L5.38936 19.3458M8.84866 7.07918L7.34937 20.9616L7.05553 20.557C6.20728 21.1745 5.06436 20.3436 5.38936 19.3458M5.38936 19.3458L7.03386 14.2823M5.38936 19.3458L7.03386 14.2823M7.03386 14.2823C7.10458 14.0648 7.10462 13.8305 7.03398 13.6129C6.96333 13.3953 6.82563 13.2057 6.64061 13.0712L7.03386 14.2823Z" stroke="#D1D1D4" stroke-linecap="round" stroke-linejoin="round"/>
</svg>
