<svg width="17" height="16" viewBox="0 0 17 16" fill="none" xmlns="http://www.w3.org/2000/svg">
<path fill-rule="evenodd" clip-rule="evenodd" d="M13.8327 6.99984C13.8327 8.45473 13.3321 9.85802 12.4263 10.9794L14.9712 13.5289C15.2313 13.7894 15.2309 14.2115 14.9703 14.4717C14.7098 14.7318 14.2876 14.7314 14.0275 14.4708L11.4839 11.9227C10.3617 12.8311 8.95642 13.3332 7.49935 13.3332C5.81964 13.3332 4.20874 12.6659 3.02101 11.4782C1.83328 10.2905 1.16602 8.67954 1.16602 6.99984C1.16602 5.32013 1.83328 3.70922 3.02101 2.52149C4.20874 1.33376 5.81964 0.666504 7.49935 0.666504C9.17905 0.666504 10.79 1.33376 11.9777 2.52149C13.1654 3.70922 13.8327 5.32013 13.8327 6.99984Z" fill="#336CCE"/>
</svg>
