<svg width="25" height="24" viewBox="0 0 25 24" fill="none" xmlns="http://www.w3.org/2000/svg">
<path d="M11.1722 2.633C11.4922 1.789 12.7032 1.789 13.0242 2.633L15.0942 8.367C15.2392 8.747 15.6082 9 16.0202 9H21.1072C22.0472 9 22.4572 10.17 21.7182 10.743L18.0982 14C17.9361 14.1247 17.8176 14.2975 17.7597 14.4937C17.7019 14.6898 17.7076 14.8993 17.7762 15.092L19.0982 20.695C19.4202 21.595 18.3782 22.368 17.5902 21.814L12.6732 18.694C12.5048 18.5757 12.304 18.5122 12.0982 18.5122C11.8924 18.5122 11.6916 18.5757 11.5232 18.694L6.60622 21.814C5.81922 22.368 4.77622 21.594 5.09822 20.695L6.42022 15.092C6.4888 14.8993 6.49458 14.6898 6.43673 14.4937C6.37888 14.2975 6.26038 14.1247 6.09822 14L2.47822 10.743C1.73822 10.17 2.15022 9 3.08822 9H8.17522C8.37551 9.00067 8.57129 8.9405 8.73664 8.82747C8.90199 8.71444 9.02913 8.55387 9.10122 8.367L11.1712 2.633H11.1722Z" stroke="white" stroke-width="2" stroke-linecap="round" stroke-linejoin="round"/>
</svg>
