<svg width="17" height="16" viewBox="0 0 17 16" fill="none" xmlns="http://www.w3.org/2000/svg">
<path fill-rule="evenodd" clip-rule="evenodd" d="M7.49935 1.99984C6.17327 1.99984 4.9015 2.52662 3.96382 3.4643C3.02613 4.40199 2.49935 5.67375 2.49935 6.99984C2.49935 8.32592 3.02613 9.59769 3.96382 10.5354C4.9015 11.4731 6.17327 11.9998 7.49935 11.9998C8.81939 11.9998 10.0856 11.4778 11.0221 10.5482C11.0272 10.5427 11.0324 10.5373 11.0377 10.532C11.0425 10.5272 11.0474 10.5225 11.0523 10.5178C11.9791 9.58187 12.4993 8.31767 12.4993 6.99984C12.4993 5.67375 11.9726 4.40199 11.0349 3.4643C10.0972 2.52662 8.82543 1.99984 7.49935 1.99984ZM12.4263 10.9794C13.3321 9.85802 13.8327 8.45473 13.8327 6.99984C13.8327 5.32013 13.1654 3.70922 11.9777 2.52149C10.79 1.33376 9.17905 0.666504 7.49935 0.666504C5.81964 0.666504 4.20874 1.33376 3.02101 2.52149C1.83328 3.70922 1.16602 5.32013 1.16602 6.99984C1.16602 8.67954 1.83328 10.2905 3.02101 11.4782C4.20874 12.6659 5.81964 13.3332 7.49935 13.3332C8.95642 13.3332 10.3617 12.8311 11.4839 11.9227L14.0275 14.4708C14.2876 14.7314 14.7098 14.7318 14.9703 14.4717C15.2309 14.2115 15.2313 13.7894 14.9712 13.5289L12.4263 10.9794Z" fill="#75767E"/>
</svg>
