<svg width="22" height="22" viewBox="0 0 22 22" fill="none" xmlns="http://www.w3.org/2000/svg">
<path d="M12.2843 8.13025L10.711 9.70356L10.6323 9.78223L10.1328 10.2818L9.76304 10.6554L9.26351 11.1549L9.18485 11.2297L8.96852 11.4499L8.88985 11.5247L8.15433 12.2602L8.07566 12.3349C7.8607 12.5496 7.61717 12.7335 7.35194 12.8816C7.22535 12.9525 7.09391 13.0142 6.95861 13.0665C6.65395 13.1846 6.33289 13.2549 6.00676 13.275C5.80918 13.2927 5.61042 13.2927 5.41284 13.275C4.98142 13.2281 4.56396 13.0943 4.18566 12.8816C4.01435 12.793 3.85562 12.6819 3.71367 12.5513L3.6232 12.4608L0.755845 9.5659L0.696846 9.5069C0.645774 9.45167 0.600928 9.391 0.563114 9.32597C0.464726 9.15918 0.413095 8.96896 0.41365 8.77531C0.411596 8.74519 0.411596 8.71496 0.41365 8.68484C0.41365 8.63765 0.41365 8.59045 0.41365 8.54718V8.49605C0.452096 8.35305 0.518984 8.21927 0.610314 8.10272C0.634448 8.07205 0.660736 8.04313 0.688979 8.01619L0.740112 7.96506L3.82773 4.91677L5.67637 3.07207C5.87307 2.87503 6.13731 2.76013 6.41556 2.75064C6.69381 2.74114 6.96527 2.83777 7.17495 3.02093L12.2843 8.13025Z" fill="#005BAA"/>
<path d="M6.72645 14.9898C6.47767 14.9889 6.23206 14.9339 6.00666 14.8285L5.42061 14.2464L5.27507 14.1048L5.25148 14.0773L4.98008 13.8059L3.61523 12.4253L3.7057 12.5158C3.84863 12.648 4.00871 12.7605 4.18163 12.8501C4.55993 13.0627 4.97738 13.1965 5.40881 13.2434C5.60639 13.2611 5.80515 13.2611 6.00273 13.2434C6.32885 13.2233 6.64992 13.153 6.95458 13.035C7.08988 12.9827 7.22132 12.9209 7.34791 12.8501C7.61314 12.702 7.85667 12.518 8.07163 12.3034L8.1503 12.2286L8.88582 11.4931L8.96448 11.4184L9.18081 11.1981L9.25948 11.1234L9.75901 10.6239L10.1287 10.2502L10.6401 9.77821L10.7187 9.69954L13.885 6.55292L15.183 5.10941L15.2538 5.04255C15.4455 4.8516 15.705 4.74438 15.9755 4.74438C16.2461 4.74438 16.5056 4.8516 16.6973 5.04255L17.4132 5.7584H17.4368C17.2761 5.7517 17.1158 5.7779 16.9656 5.83539C16.8155 5.89288 16.6787 5.98045 16.5636 6.09273L14.1446 8.45269L14.121 8.48023L9.92027 12.6652L8.36663 14.1874L8.27223 14.2857C8.06079 14.491 7.81777 14.661 7.55244 14.7892C7.4049 14.8608 7.24898 14.9136 7.08831 14.9465C6.99633 14.9658 6.90294 14.9776 6.80905 14.9819L6.72645 14.9898Z" fill="#ED1C24"/>
<path d="M21.2915 11.0763L21.2128 11.155L17.7869 14.632L14.1801 18.286C14.0681 18.3992 13.947 18.5031 13.8183 18.5968L13.7671 18.6322C13.1401 19.0802 12.3766 19.2958 11.6078 19.242C10.8391 19.1881 10.1131 18.8682 9.5546 18.3372L9.46021 18.2821L8.84268 17.6646L7.10024 15.9221L6.51812 15.3361L6.43945 15.2535C6.53304 15.2692 6.62776 15.277 6.72265 15.2771H6.80525C6.91643 15.2724 7.02699 15.2579 7.13564 15.2338C7.31987 15.1973 7.49843 15.1364 7.66663 15.0529C7.95647 14.909 8.22191 14.7206 8.45329 14.4944L8.55949 14.3803L9.8968 13.0666L14.4948 8.54332L14.5184 8.51185L16.7761 6.32495C16.9228 6.18437 17.113 6.098 17.3154 6.08012C17.5177 6.06225 17.7202 6.11392 17.8892 6.22662L18.4163 6.75761L21.2876 9.63284C21.3132 9.65716 21.3369 9.68346 21.3584 9.7115C21.5183 9.90684 21.6001 10.1546 21.5877 10.4068C21.5753 10.659 21.4698 10.8976 21.2915 11.0763Z" fill="#ED1C24"/>
<path d="M10.1904 7.26885C10.1498 7.30644 10.0964 7.32732 10.041 7.32732C9.98558 7.32732 9.93221 7.30644 9.89152 7.26885C9.56843 6.9437 9.18447 6.68536 8.76154 6.5086C8.33862 6.33184 7.88502 6.24011 7.42665 6.23865C6.50092 6.2357 5.61194 6.60061 4.95526 7.25312C4.29859 7.90562 3.92801 8.79226 3.92506 9.71798C3.92211 10.6437 4.28703 11.5327 4.93953 12.1894L6.00151 13.2592C6.00264 13.267 6.00264 13.275 6.00151 13.2828C5.80919 13.3006 5.61564 13.3006 5.42332 13.2828L4.63667 12.4962C3.90645 11.7607 3.49829 10.7653 3.50198 9.72897C3.50567 8.6926 3.9209 7.70014 4.65633 6.96992C5.39177 6.2397 6.38716 5.83154 7.42353 5.83523C8.4599 5.83892 9.45236 6.25415 10.1826 6.98959C10.2182 7.0269 10.2388 7.07612 10.2402 7.1277C10.2417 7.17929 10.2239 7.22958 10.1904 7.26885Z" fill="#009EDB"/>
<path d="M11.8206 8.60625L11.5256 8.89731L11.0104 8.37812C10.991 8.35876 10.9756 8.33576 10.9651 8.31046C10.9546 8.28515 10.9492 8.25802 10.9492 8.23062C10.9492 8.20322 10.9546 8.17609 10.9651 8.15078C10.9756 8.12548 10.991 8.10248 11.0104 8.08312C11.0297 8.06374 11.0527 8.04836 11.078 8.03787C11.1033 8.02737 11.1305 8.02197 11.1579 8.02197C11.1853 8.02197 11.2124 8.02737 11.2377 8.03787C11.263 8.04836 11.286 8.06374 11.3054 8.08312L11.8206 8.60625Z" fill="#009EDB"/>
<path d="M7.36731 12.8739C7.24088 12.9439 7.1094 13.0043 6.97398 13.0548L5.52654 11.6073C5.08766 11.1653 4.81685 10.5839 4.76084 9.96345C4.70483 9.34304 4.86713 8.72253 5.21975 8.209C5.25153 8.16373 5.29973 8.13264 5.35409 8.12236C5.40845 8.11207 5.46468 8.1234 5.51081 8.15394C5.53333 8.16965 5.55252 8.18965 5.56729 8.2128C5.58206 8.23596 5.59211 8.2618 5.59686 8.28884C5.60161 8.31589 5.60097 8.34361 5.59498 8.3704C5.58899 8.3972 5.57776 8.42255 5.56194 8.445C5.2647 8.87844 5.12799 9.402 5.17538 9.92542C5.22277 10.4489 5.45129 10.9393 5.82154 11.3124L7.36731 12.8739Z" fill="#009EDB"/>
<path d="M10.9384 9.47542L10.722 9.69175L10.6512 9.76255L9.02679 8.12237C8.72953 7.82378 8.35464 7.61433 7.94453 7.51771C7.53442 7.42109 7.10546 7.44116 6.70616 7.57565C6.67949 7.58799 6.65051 7.59455 6.62113 7.59491C6.59174 7.59526 6.56261 7.5894 6.53565 7.5777C6.50869 7.566 6.48451 7.54874 6.46469 7.52704C6.44487 7.50534 6.42987 7.47969 6.42066 7.45179C6.41145 7.42388 6.40824 7.39434 6.41125 7.36511C6.41426 7.33587 6.42342 7.30761 6.43812 7.28216C6.45283 7.25671 6.47274 7.23467 6.49657 7.21746C6.52039 7.20025 6.54759 7.18828 6.57636 7.18232C7.04719 7.02796 7.55175 7.00803 8.03329 7.12476C8.51483 7.2415 8.95425 7.49028 9.30212 7.84311L10.9384 9.47542Z" fill="#009EDB"/>
<path d="M10.069 10.3486L9.77405 10.6436L8.14174 8.99951C7.94511 8.83834 7.69549 8.75618 7.44157 8.76908C7.18765 8.78198 6.94764 8.889 6.76835 9.06927C6.58906 9.24954 6.48335 9.49013 6.47184 9.74412C6.46033 9.99811 6.54385 10.2473 6.7061 10.443L7.75628 11.5011C7.7954 11.5402 7.81738 11.5932 7.81738 11.6486C7.81738 11.7039 7.7954 11.757 7.75628 11.7961C7.71716 11.8352 7.66411 11.8572 7.60878 11.8572C7.55346 11.8572 7.50041 11.8352 7.46129 11.7961L6.39144 10.738C6.1418 10.4625 6.00807 10.1014 6.0181 9.72974C6.02814 9.35811 6.18117 9.00469 6.44531 8.74308C6.70945 8.48148 7.06433 8.33186 7.43604 8.32541C7.80775 8.31896 8.16761 8.45617 8.44067 8.70845L10.069 10.3486Z" fill="#009EDB"/>
<path d="M9.19738 11.2179L8.98105 11.4382L8.91025 11.505L7.27008 9.86879C7.23096 9.82967 7.20898 9.77661 7.20898 9.72129C7.20898 9.66597 7.23096 9.61291 7.27008 9.57379C7.3092 9.53467 7.36226 9.5127 7.41758 9.5127C7.4729 9.5127 7.52596 9.53467 7.56508 9.57379L9.19738 11.2179Z" fill="#009EDB"/>
</svg>
