<svg width="44" height="44" viewBox="0 0 44 44" fill="none" xmlns="http://www.w3.org/2000/svg">
<rect width="44" height="44" rx="12" fill="url(#paint0_linear_2415:128503)"/>
<path d="M18.3961 20.7961L18.3962 20.796C19.0338 20.1586 19.8985 19.8005 20.8 19.8005C21.7016 19.8005 22.5663 20.1586 23.2038 20.796L23.21 20.8022L23.2161 20.8085C23.2346 20.8276 23.2566 20.8428 23.2811 20.8533L23.2811 20.8533C23.3055 20.8638 23.3317 20.8693 23.3583 20.8695C23.3848 20.8698 23.4112 20.8647 23.4357 20.8547C23.4603 20.8446 23.4826 20.8297 23.5014 20.811L24.2085 21.5181L23.5014 20.811C23.5202 20.7922 23.535 20.7699 23.5451 20.7453L24.4706 21.1239L23.5451 20.7453C23.5552 20.7207 23.5602 20.6944 23.56 20.6678C23.5598 20.6413 23.5542 20.615 23.5438 20.5906C23.5333 20.5662 23.518 20.5441 23.4989 20.5257L23.4927 20.5197L23.4866 20.5136C22.774 19.8012 21.8077 19.401 20.8 19.401C19.7925 19.401 18.8261 19.8012 18.1136 20.5135C18.1135 20.5135 18.1135 20.5136 18.1134 20.5136L14.5136 24.1135L14.5074 24.1197L14.5012 24.1257C14.1382 24.4762 13.8487 24.8955 13.6496 25.3592C13.4504 25.8228 13.3456 26.3214 13.3412 26.826C13.3368 27.3305 13.433 27.8309 13.624 28.2979C13.8151 28.7649 14.0973 29.1892 14.4541 29.546M18.3961 20.7961L14.4541 29.546M18.3961 20.7961L14.8018 24.3905C14.4802 24.7028 14.2235 25.0756 14.0466 25.4875L14.9654 25.8822L14.0466 25.4875C13.8684 25.9024 13.7746 26.3485 13.7707 26.7999C13.7668 27.2514 13.8528 27.6991 14.0237 28.117C14.1947 28.5348 14.4472 28.9144 14.7664 29.2337C15.0856 29.5529 15.4652 29.8054 15.8831 29.9763C16.3009 30.1473 16.7487 30.2333 17.2001 30.2294C17.6516 30.2254 18.0977 30.1316 18.5125 29.9535C18.9244 29.7765 19.2972 29.5199 19.6095 29.1983M18.3961 20.7961L19.6095 29.1983M14.4541 29.546C14.8109 29.9028 15.2351 30.1849 15.7021 30.376C16.1691 30.5671 16.6695 30.6632 17.1741 30.6588C17.6786 30.6545 18.1773 30.5496 18.6409 30.3505C19.1045 30.1513 19.5238 29.8618 19.8744 29.4989L19.8804 29.4926L19.8865 29.4865L21.6865 27.6865L21.6927 27.6804L21.6989 27.6743C21.718 27.6559 21.7333 27.6338 21.7438 27.6094C21.7542 27.585 21.7598 27.5588 21.76 27.5322C21.7602 27.5056 21.7552 27.4793 21.7451 27.4547C21.735 27.4301 21.7202 27.4078 21.7014 27.389C21.6826 27.3703 21.6603 27.3554 21.6357 27.3453C21.6111 27.3353 21.5848 27.3302 21.5583 27.3305C21.5317 27.3307 21.5055 27.3362 21.4811 27.3467C21.4567 27.3572 21.4346 27.3724 21.4161 27.3915L21.4101 27.3978L21.404 27.4039L19.6095 29.1983M14.4541 29.546L19.6095 29.1983M25.6038 23.204L25.604 23.2039L29.1983 19.6095C29.5199 19.2972 29.7766 18.9244 29.9535 18.5125C30.1317 18.0977 30.2255 17.6515 30.2294 17.2001C30.2333 16.7486 30.1473 16.3009 29.9764 15.883C29.8054 15.4652 29.5529 15.0856 29.2337 14.7663C28.9145 14.4471 28.5348 14.1947 28.117 14.0237C27.6992 13.8527 27.2514 13.7667 26.8 13.7706C26.3485 13.7746 25.9024 13.8684 25.4876 14.0465C25.0757 14.2235 24.7028 14.4801 24.3905 14.8017L22.5961 16.5961L22.59 16.6022L22.584 16.6085C22.5655 16.6276 22.5434 16.6428 22.519 16.6533C22.4946 16.6638 22.4684 16.6693 22.4418 16.6695C22.4153 16.6698 22.3889 16.6647 22.3644 16.6547C22.3398 16.6446 22.3175 16.6297 22.2987 16.611L21.5916 17.3181L22.2987 16.611C22.2799 16.5922 22.2651 16.5699 22.255 16.5453C22.2449 16.5207 22.2399 16.4944 22.2401 16.4678C22.2403 16.4413 22.2459 16.415 22.2563 16.3906L21.3375 15.9959L22.2563 16.3906C22.2668 16.3662 22.2821 16.3441 22.3012 16.3257L22.3074 16.3197L22.3136 16.3135L24.107 14.52C24.8231 13.8314 25.7805 13.4505 26.7741 13.4591C27.7704 13.4678 28.7235 13.8674 29.4281 14.572C30.1326 15.2765 30.5323 16.2296 30.5409 17.226C30.5496 18.2196 30.1687 19.1769 29.4801 19.893L25.8866 23.4864C25.8866 23.4864 25.8866 23.4865 25.8865 23.4865C25.1739 24.1988 24.2076 24.599 23.2 24.599C22.1964 24.599 21.2337 24.202 20.522 23.4949C20.4879 23.4576 20.4692 23.4088 20.4696 23.3582C20.4701 23.3058 20.4911 23.2556 20.5282 23.2185C20.5653 23.1814 20.6154 23.1604 20.6679 23.16C20.7188 23.1595 20.768 23.1785 20.8053 23.2131C21.442 23.8448 22.3028 24.1995 23.2 24.1995C24.1016 24.1995 24.9663 23.8414 25.6038 23.204Z" stroke="white" stroke-width="2"/>
<defs>
<linearGradient id="paint0_linear_2415:128503" x1="22" y1="0" x2="22" y2="44" gradientUnits="userSpaceOnUse">
<stop stop-color="#B3FAFF"/>
<stop offset="0.666667" stop-color="#2073FC"/>
</linearGradient>
</defs>
</svg>
