<svg width="36" height="24" viewBox="0 0 36 24" fill="none" xmlns="http://www.w3.org/2000/svg">
<path d="M0.499512 7.86169C0.499512 7.86169 4.74574 10.6502 7.10906 18.0935C6.5885 19.3044 7.34107 20.8625 8.99495 20.2234C10.1402 19.936 16.4939 18.2372 20.9037 23.9997C27.4345 21.3535 34.8858 18.8644 34.8858 18.8644C34.8858 18.8644 35.161 18.0965 35.1149 18.0621C34.9126 17.9169 34.0336 18.4483 33.5904 18.2462C31.053 17.0937 25.3731 14.7962 21.8972 15.5655C20.5393 15.8559 19.8195 15.6463 19.8195 14.8965C19.8195 14.1481 17.5142 7.82727 15.7473 6.1958C11.3761 6.23921 4.46911 7.58629 1.75182 7.6282C1.65514 7.62969 1.01858 7.00106 0.84159 7.03099C0.725581 7.05045 0.499512 7.86169 0.499512 7.86169Z" fill="#87510A"/>
<path d="M0.839355 7.03099C0.839355 7.03099 5.46931 10.3613 7.83262 17.8046C7.31207 19.0155 7.82519 20.1007 9.47906 19.4616C10.6243 19.1742 16.9096 17.9708 21.2302 23.2543C27.7609 20.6081 35.1141 18.0621 35.1141 18.0621C35.1141 18.0621 27.0961 13.8697 22.5152 14.8845C21.1573 15.1748 20.4375 14.9653 20.4375 14.2154C20.4375 13.467 18.1321 7.14624 16.3652 5.51477C10.892 5.57015 0.839355 7.03099 0.839355 7.03099Z" fill="#6D3E06"/>
<path d="M16.5127 4.38135L3.13293 5.27641C2.61833 6.91536 8.50802 14.8886 8.50802 14.8886C8.50802 14.8886 8.81589 15.9618 9.62201 17.5872L21.2229 14.2091C19.9795 8.94197 16.5127 4.38135 16.5127 4.38135Z" fill="#EADBCE"/>
<path d="M21.2309 14.2452C21.228 14.2332 21.225 14.2213 21.222 14.2093L9.62109 17.5875C9.64192 17.6294 9.66125 17.6698 9.68356 17.7132C15.951 16.5352 21.6756 20.8579 21.6756 20.8579C21.6756 20.8579 24.5535 19.9269 35.5001 15.7195C32.698 14.335 23.6002 13.6735 21.2309 14.2452Z" fill="#E5D1C3"/>
<path d="M21.9433 19.8977L21.9374 19.8992C21.9374 19.8992 17.0754 15.8834 9.95421 17.464C9.12132 13.8718 5.39118 6.31014 3.13198 5.27588C2.41808 5.84764 1.5376 6.48526 1.5376 6.48526C1.5376 6.48526 6.64795 11.2674 8.15607 17.7124C9.29385 17.6645 9.84861 18.9203 9.84861 18.9203C9.84861 18.9203 13.7022 18.1016 16.6976 19.0401C19.693 19.9785 21.5759 22.5335 21.5759 22.5335L21.6146 22.52L35.3394 17.5448L35.4985 15.7203L21.9433 19.8977Z" fill="#D6B8A1"/>
<path d="M21.9374 19.8992C21.9374 19.8992 17.0754 15.8834 9.95421 17.464C9.12132 13.8718 5.39118 6.31014 3.13198 5.27588C2.41808 5.84764 1.5376 6.48526 1.5376 6.48526C1.5376 6.48526 6.64795 11.2674 8.15607 17.7124C9.29385 17.6645 9.84861 18.9203 9.84861 18.9203C9.84861 18.9203 13.7022 18.1016 16.6976 19.0401C19.693 19.9785 21.5759 22.5335 21.5759 22.5335L21.6146 22.52L21.9433 19.8977L21.9374 19.8992Z" fill="#DBC2AD"/>
<path d="M9.95264 17.5874C9.95264 17.5874 15.0898 15.4186 21.9417 18.7429C29.2295 16.7073 34.9422 14.8888 34.9422 14.8888C34.9422 14.8888 27.2276 12.7813 21.2278 14.2452C15.2281 15.709 10.5476 17.1893 9.95264 17.5874Z" fill="#EADBCE"/>
<path d="M9.95432 17.4642C9.95432 17.4642 10.3782 10.3247 5.12061 4.29427C8.52651 3.89314 18.2832 3.71802 18.2832 3.71802C18.2832 3.71802 21.4764 9.50748 21.228 14.2447C15.9466 15.5933 9.95432 17.4642 9.95432 17.4642Z" fill="#EEE6DE"/>
<path d="M22.2088 14.0371C22.2088 14.0371 13.0426 16.5053 11.0749 17.2567C9.10722 18.008 9.23959 22.7183 9.23959 22.7183L8.39332 21.494L7.60059 22.2469C7.60059 22.2469 7.94118 18.3358 9.83302 16.9887C11.7263 15.6402 20.4493 14.0297 22.2088 14.0371Z" fill="#FFBC00"/>
<path d="M19.5722 12.9336C18.2783 12.9336 17.0676 13.0354 16.0369 13.2135C16.1098 12.2705 16.0027 11.1614 15.6933 10.0134C14.9185 7.14264 13.1664 5.12202 11.7788 5.5007C10.3911 5.87937 9.89586 8.51517 10.6693 11.3859C11.2062 13.3736 12.2101 14.9512 13.2378 15.6098C14.2581 16.3178 16.7092 16.8177 19.5722 16.8177C23.3514 16.8177 26.4138 15.9481 26.4138 14.8749C26.4138 13.8017 23.3499 12.9336 19.5722 12.9336Z" fill="#EEE6DE"/>
<path d="M26.3466 3.27465C28.9255 6.83095 28.1522 11.8166 24.6183 14.412C21.0845 17.0074 16.1303 16.2291 13.5514 12.6728C10.9724 9.1165 11.7458 4.1308 15.2796 1.53542C18.8134 -1.05996 23.7676 -0.281644 26.3466 3.27465Z" fill="#003E60"/>
<path d="M20.8844 12.6098C20.8799 12.5978 20.8724 12.5844 20.8634 12.5694C20.8604 12.5679 20.859 12.5679 20.856 12.5664L20.8844 12.6098Z" fill="#C4C4C3"/>
<path d="M13.5227 3.74734C13.5867 3.69047 13.6521 3.67999 13.7191 3.6291C13.8693 3.51235 13.9332 3.35968 14.0478 3.21001C14.1132 3.1232 14.3125 2.8463 14.4404 2.92862C14.4359 2.96903 14.3735 3.08129 14.4107 3.1202C14.4568 3.16959 14.5415 3.08727 14.5802 3.08129C14.5847 3.16361 14.5624 3.27586 14.5921 3.3522C14.7185 3.36866 14.7185 3.22348 14.7319 3.13667C14.7468 3.03489 14.7646 2.95406 14.8182 2.86276C14.8628 2.78642 14.9029 2.74003 14.9253 2.65471C14.9505 2.5649 14.9461 2.47809 14.9907 2.39877C15.0799 2.2431 15.2004 2.12785 15.312 1.99314C15.37 1.9213 15.4503 1.87041 15.5113 1.80455C15.5797 1.72971 15.6317 1.6444 15.6972 1.56806C15.7924 1.4588 15.9783 1.22381 16.1463 1.24925C16.0854 1.35253 15.9307 1.4139 15.8771 1.52167C15.8399 1.59501 15.8742 1.60698 15.8013 1.66236C15.7448 1.70577 15.6481 1.73121 15.6615 1.82102C15.7031 1.81952 15.7448 1.81204 15.7656 1.84946C15.8474 1.84347 15.9113 1.72672 15.9708 1.79407C16.0452 1.87789 15.8994 1.94525 15.9143 2.01111C15.9336 2.10091 16.063 1.93627 16.0809 1.89735C16.1166 1.82251 16.1166 1.72971 16.1672 1.66086C16.2281 1.57854 16.3337 1.51867 16.4051 1.44533C16.4691 1.37947 16.5226 1.34205 16.6089 1.30164C16.7011 1.25824 16.8022 1.22082 16.8885 1.16693C16.945 1.13251 17.006 1.05767 17.0759 1.06665C17.0774 1.06815 17.0848 1.08312 17.0863 1.08461C17.1279 1.05019 17.186 1.01875 17.2276 0.98882C17.2663 0.960381 17.3168 0.906498 17.351 0.885543C17.467 0.813699 17.6381 0.755324 17.7719 0.69695C17.8523 0.661028 17.8939 0.5817 17.9712 0.571223C18.0055 0.566733 18.0188 0.586191 18.0649 0.566733C18.1036 0.550269 18.1304 0.509857 18.1586 0.490399C18.2181 0.451483 18.6033 0.396104 18.5528 0.306299C18.5082 0.228467 18.0917 0.3048 18.0129 0.30929C17.8746 0.316774 17.7348 0.33324 17.5964 0.357188C16.7888 0.61014 16.0065 1.00079 15.2852 1.53065C14.9416 1.7821 14.6263 2.0575 14.3348 2.35087C14.0552 2.65172 13.7964 2.96753 13.551 3.30131C13.4841 3.39261 13.4142 3.47942 13.3487 3.56773C13.2699 3.68747 13.1955 3.80871 13.1241 3.93144C13.0914 4.00329 13.0661 4.07962 13.0513 4.16195C13.1509 4.07214 13.261 3.99131 13.3636 3.906C13.4201 3.86259 13.4662 3.79823 13.5227 3.74734Z" fill="#3989B4"/>
<path d="M17.8286 1.85817C17.7334 1.82823 17.7081 1.91504 17.6352 1.93899C17.6352 1.92253 17.6322 1.90307 17.6307 1.8866C17.5817 1.8866 17.54 1.8896 17.4939 1.89558C17.4909 1.88211 17.4909 1.82374 17.4954 1.80129C17.5013 1.7953 17.5237 1.78782 17.5326 1.78183C17.5356 1.76686 17.5177 1.75938 17.5222 1.74441C17.5653 1.70999 17.5549 1.69502 17.5594 1.64563C17.5519 1.63814 17.5385 1.62317 17.5311 1.61719C17.4954 1.62916 17.4091 1.66359 17.3957 1.67107C17.366 1.68903 17.3035 1.65461 17.3065 1.73393C17.2455 1.74741 17.1191 1.78333 17.1117 1.79829C17.0433 1.91654 17.2173 1.86715 17.1652 1.96593C17.1013 1.91804 17.0358 1.93151 16.9704 1.94647C16.9258 1.96743 16.8797 1.9794 16.8321 1.98539C16.8633 2.09465 16.838 2.08118 16.7919 2.15602C16.78 2.17548 16.7399 2.17249 16.7205 2.19793C16.7012 2.22487 16.7339 2.27875 16.7146 2.30569C16.6476 2.397 16.3889 2.41196 16.4811 2.57511C16.5599 2.50327 16.6476 2.61104 16.7175 2.51824C16.7681 2.54667 16.9391 2.39999 16.9748 2.35359C17.0195 2.29522 17.0105 2.24433 17.07 2.20841C17.0879 2.19793 17.1771 2.2099 17.2083 2.19793C17.1831 2.30869 16.9927 2.39101 16.9808 2.49129C16.9659 2.61253 17.0522 2.54817 17.0983 2.52123C17.1221 2.50626 17.1355 2.3491 17.1994 2.47633C17.2827 2.44639 17.4106 2.38353 17.4359 2.29522C17.4642 2.33563 17.5073 2.35659 17.5608 2.3491C17.5802 2.26977 17.6768 2.2593 17.6635 2.15452C17.6754 2.16201 17.7021 2.16799 17.7185 2.18296C17.7586 2.13806 17.7393 2.07969 17.7066 2.04227C17.7973 2.02431 17.8181 1.9345 17.8286 1.85817Z" fill="#3989B4"/>
<path d="M20.8409 12.5434C20.8364 12.5314 20.829 12.518 20.82 12.503C20.817 12.5015 20.8155 12.5015 20.8125 12.5L20.8409 12.5434Z" fill="url(#paint0_radial_1667_119915)"/>
<path d="M27.4028 5.27037C27.153 4.57438 26.8034 3.90084 26.3468 3.2722C24.7807 1.11387 22.3401 -0.0206695 19.8741 0.000285103C19.8102 0.0332138 19.7566 0.0751224 19.7284 0.126012C19.6852 0.20534 19.6897 0.175407 19.7314 0.235277C19.773 0.295147 19.9708 0.286165 20.0035 0.329571C20.1225 0.488228 19.8355 0.429855 19.8786 0.548099C19.8295 0.569054 19.6332 0.519659 19.7626 0.654368C19.7522 0.660355 19.7358 0.660355 19.7269 0.666342C19.7447 0.807037 19.8548 0.760638 19.9649 0.777103C20.0987 0.796561 20.1701 0.886366 20.0333 0.976172C20.0824 1.04353 20.1032 1.15878 19.9946 1.17225C19.95 1.04353 19.9128 1.18871 19.8697 1.17823C19.8191 1.16626 19.7745 1.13034 19.8325 1.05999C19.7656 1.06747 19.6882 1.057 19.6391 1.03155C19.654 1.02407 19.6823 0.998623 19.6971 0.992636C19.6525 0.988146 19.5573 1.02257 19.5261 0.994132C19.4696 0.941746 19.538 0.904327 19.5841 0.89385C19.5216 0.875889 19.4622 0.881876 19.4146 0.847451C19.4577 0.805541 19.5216 0.787579 19.5588 0.733696C19.5112 0.675322 19.3744 0.693285 19.3075 0.688795C19.2212 0.682808 19.123 0.636407 19.0368 0.649877C18.83 0.679813 18.6605 0.732199 18.5445 0.890855C18.4196 1.06149 18.2396 1.05849 18.0656 1.17674C17.9511 1.25606 17.7532 1.43568 17.7726 1.58236C17.7815 1.59733 17.7964 1.57487 17.7994 1.57487C17.7577 1.74401 18.015 1.64522 17.9406 1.50153C17.9704 1.515 17.9912 1.50303 18.0239 1.52848C18.0567 1.48806 18.189 1.2411 18.2232 1.44017C18.2991 1.43418 18.305 1.36084 18.3883 1.37431C18.3913 1.48507 18.3601 1.61828 18.3779 1.72455C18.5014 1.75748 18.6828 1.59882 18.6308 1.47609C18.7795 1.44166 18.656 1.29648 18.6962 1.20069C18.7096 1.17075 18.7825 1.08843 18.7973 1.07645C18.8419 1.04053 18.8494 0.991138 18.9356 1.0076C18.949 1.1019 18.8538 1.1468 18.8702 1.24409C19.0279 1.25906 19.0115 1.35336 19.1781 1.27852C19.2777 1.23361 19.3818 1.17823 19.3759 1.35785C19.4696 1.39227 19.5796 1.34437 19.6704 1.37431C19.7076 1.38628 19.7165 1.43119 19.7432 1.44316C19.7611 1.45214 19.8578 1.4701 19.8637 1.47609C20.0705 1.72006 19.5826 1.59733 19.5603 1.61379C19.5097 1.51201 19.3134 1.59134 19.2748 1.66917C19.2197 1.78143 19.364 1.82783 19.187 1.83232C19.1349 1.83381 19.1186 1.79789 19.0472 1.82483C18.9996 1.84279 18.9758 1.89219 18.9237 1.91314C18.8821 1.9311 18.8018 1.92961 18.7557 1.94158C18.7185 1.95206 18.6159 2.01043 18.5876 2.00893C18.4954 2.00744 18.4255 1.90715 18.3065 1.94158C18.2188 1.96553 18.2307 2.00444 18.1652 2.05084C18.1102 2.09126 18.0477 2.0688 18.0001 2.09874C17.8871 2.17058 17.9421 2.30679 17.8737 2.39659C17.8455 2.43551 17.7875 2.43551 17.7532 2.47443C17.722 2.51184 17.7235 2.57471 17.6833 2.61812C17.6194 2.61063 17.5733 2.61961 17.5197 2.59417C17.4483 2.69445 17.2565 2.56273 17.1955 2.7169C17.2119 2.7169 17.2312 2.71989 17.2491 2.72289C17.2282 2.74384 17.2238 2.78425 17.2104 2.80222C17.4543 2.79324 17.3279 3.07313 17.194 3.14647C17.1464 3.09558 17.0349 3.18389 16.9694 3.20035C16.9427 3.20634 16.9352 3.24376 16.9129 3.24526C16.8847 3.24825 16.8772 3.21233 16.8564 3.21532C16.788 3.2243 16.7404 3.24526 16.6928 3.19886C16.6363 3.24825 16.6051 3.3171 16.5753 3.38595C16.5366 3.47576 16.5307 3.52814 16.5158 3.63741C16.4965 3.7796 16.263 4.08643 16.5723 4.03405C16.6303 4.02357 16.727 3.94873 16.785 3.92179C16.8133 3.90832 16.8177 3.86641 16.8415 3.85593C16.8668 3.84396 16.9025 3.86491 16.9263 3.85444C16.9754 3.83198 17.026 3.823 17.0676 3.78259C17.1241 3.72871 17.1628 3.66734 17.2178 3.60897C17.2565 3.56856 17.3398 3.46378 17.3502 3.40241C17.6476 3.41589 17.4156 3.19287 17.6045 3.11953C17.7012 3.08211 17.7532 3.17491 17.8514 3.11354C17.896 3.0851 17.8841 3.02823 17.9213 2.99979C17.96 2.97135 17.9942 2.98931 18.0343 2.97285C18.131 2.93094 18.134 2.89951 18.2485 2.93393C18.2783 2.94291 18.3006 2.97734 18.3333 2.99081C18.369 3.00577 18.4091 2.98931 18.4493 3.00128C18.5326 3.02823 18.8137 3.25124 18.8375 3.02074C18.7215 3.01476 18.485 2.97434 18.5326 2.8082C18.8048 2.69295 18.958 2.89801 19.1498 3.01775C19.2212 3.06265 19.3342 3.1315 19.3789 3.22729C19.4279 3.33656 19.3729 3.48025 19.5558 3.44133C19.5618 3.41738 19.5796 3.36949 19.5811 3.34704C19.5811 3.33955 19.5648 3.32608 19.5603 3.3201C19.6778 3.26621 19.5663 3.24077 19.5588 3.18988C19.5544 3.15994 19.5112 3.1764 19.5261 3.11504C19.5321 3.08959 19.6153 3.09408 19.6258 3.05966C19.651 2.97434 19.5097 2.97285 19.6421 2.91747C19.7165 2.88603 19.8102 2.90998 19.7715 3.00128C19.8191 3.02374 19.837 3.06265 19.828 3.11654C19.8444 3.11803 19.8637 3.11953 19.8801 3.12103C19.9024 3.21233 19.8459 3.37398 19.95 3.41888C19.947 3.43834 19.953 3.46528 19.9544 3.48474C20.0779 3.5027 20.1508 3.43684 20.2623 3.40092C20.3337 3.37847 20.4795 3.31411 20.5583 3.33057C20.6193 3.34255 20.6044 3.40391 20.6713 3.39942C20.7145 3.39643 20.7591 3.3156 20.7933 3.29914C20.9688 3.21383 20.8855 3.33656 20.9465 3.44582C20.9256 3.43984 20.9093 3.44133 20.8885 3.43235C20.9301 3.46827 20.9837 3.49671 21.0208 3.52665C20.945 3.53862 20.884 3.51318 20.8096 3.51467C20.8617 3.52814 21.003 3.56706 20.997 3.66884C21.0253 3.67033 21.0536 3.67183 21.0803 3.67034C21.0788 3.68381 21.0788 3.69728 21.0774 3.71075C21.064 3.72721 21.0625 3.7317 21.0491 3.75415C21.0283 3.75415 21.0045 3.75864 20.9822 3.75864C20.9837 3.82151 20.9405 3.84396 20.884 3.83947C20.8766 3.82749 20.8706 3.81402 20.8647 3.80205C20.7992 3.84845 20.4899 3.98465 20.472 3.8724C20.4259 3.8694 20.4081 3.84845 20.3649 3.86791C20.3411 3.81402 20.2935 3.78409 20.2341 3.78708C20.1939 3.84097 20.2251 3.90383 20.1969 3.94574C20.1612 3.99813 20.0972 4.00112 20.0675 4.06548C20.1032 4.1044 20.0972 4.15079 20.0615 4.1942C19.9544 4.18821 19.9887 4.08494 19.9217 4.04303C19.8935 4.02507 19.8578 4.05201 19.8265 4.04004C19.7923 4.02656 19.7239 3.98465 19.6897 3.98016C19.4131 3.94125 19.6793 4.27054 19.4785 4.29299C19.4503 4.27054 18.958 4.5175 19.0085 4.32591C18.8598 4.30795 18.9951 4.2391 18.958 4.18073C18.9119 4.10889 18.8226 4.1493 18.7572 4.15379C18.6769 4.15828 18.3214 4.17175 18.4463 3.97268C18.43 3.96819 18.4121 3.95771 18.3943 3.95322C18.4196 3.83947 18.366 3.80355 18.3199 3.71673C18.2426 3.68081 18.2084 3.74817 18.1385 3.77062C18.076 3.79157 17.9644 3.78858 17.9109 3.78858C17.8157 3.78858 17.5748 3.77211 17.5183 3.89635C17.3457 3.91281 17.2729 3.99812 17.1405 4.09691C17.0453 4.16875 17.0602 4.17474 16.9546 4.14331C16.8891 4.12385 16.7984 4.02507 16.7582 4.13732C16.6764 4.12086 16.6541 4.16726 16.6065 4.21067C16.5783 4.23611 16.4861 4.31394 16.4697 4.34238C16.4102 4.43817 16.4043 4.64323 16.2853 4.69561C16.2942 4.77344 16.196 4.85128 16.1559 4.90516C16.083 5.00245 16.0488 5.02191 15.9343 5.07729C15.9417 5.15212 15.8198 5.26289 15.7647 5.31228C15.7826 5.31677 15.7989 5.32874 15.8183 5.33323C15.7989 5.4425 15.6353 5.54128 15.5967 5.65354C15.6205 5.64905 15.6532 5.66102 15.677 5.65803C15.6681 5.74035 15.7335 5.80471 15.6904 5.87955C15.5863 5.87356 15.5595 5.97983 15.4702 5.99779C15.4866 6.04419 15.4598 6.0412 15.5089 6.06964C15.4777 6.12651 15.4271 6.24925 15.439 6.32259C15.4598 6.44083 15.5178 6.43485 15.4717 6.56357C15.4122 6.73121 15.2784 6.84196 15.2739 7.01409C15.2903 7.01559 15.3096 7.01858 15.326 7.01858C15.3587 7.0545 15.378 7.1039 15.3721 7.15479C15.3914 7.15179 15.4182 7.16227 15.4375 7.15928C15.4643 7.21316 15.4598 7.27603 15.4271 7.32392C15.4375 7.36433 15.4658 7.40175 15.4955 7.4242C15.5015 7.40924 15.5178 7.38678 15.5268 7.37182C15.6681 7.35086 15.7127 7.57538 15.7811 7.66668C15.8317 7.73254 15.851 7.76846 15.8912 7.83731C15.9239 7.89269 15.9343 7.97501 15.9611 8.02141C16.0012 8.08876 16.0637 8.09326 16.1142 8.14714C16.1827 8.22198 16.1485 8.28334 16.2719 8.3028C16.3849 8.32076 16.6021 8.26388 16.5976 8.12169C16.6809 8.09924 16.7032 8.17408 16.7657 8.17558C16.8311 8.17707 16.8534 8.14863 16.9204 8.14714C17.017 8.14714 17.1435 8.2564 17.1747 8.06482C17.261 8.06482 17.2981 7.98848 17.3561 7.93909C17.4231 7.88371 17.5227 7.88071 17.5777 7.83282C17.6729 7.75199 17.6908 7.44216 17.8321 7.62627C17.838 7.63974 17.8336 7.65021 17.8365 7.66368C17.9823 7.64572 18.0403 7.84479 18.0849 7.93759C18.1013 7.97351 18.1191 8.12768 18.1295 8.13367C18.2039 8.18156 18.2991 8.09625 18.3021 8.02141C18.363 8.00494 18.3839 8.05883 18.4374 8.04536C18.482 8.03338 18.5058 7.978 18.5668 7.96304C18.6099 7.95256 18.6888 7.95855 18.7245 7.97351C18.8152 8.01393 18.7572 8.00644 18.8048 8.07529C18.8568 8.15013 18.9223 8.23245 18.9327 8.34471C18.9446 8.47193 18.8538 8.57671 18.8479 8.69944C18.8419 8.81768 18.9014 8.87007 18.9788 8.93593C19.0546 9.00029 19.0874 9.06016 19.1721 9.12751C19.2688 9.20534 19.7388 9.25174 19.5544 9.41788C19.7492 9.42537 19.599 9.54661 19.6466 9.63791C19.651 9.64539 19.654 9.65138 19.6585 9.65737C19.6079 9.74867 19.602 9.86991 19.7462 9.89086C19.7388 9.94923 19.7492 9.99114 19.7492 10.045C19.7492 10.0675 19.7016 10.0839 19.7046 10.1004C19.712 10.1333 19.7715 10.1573 19.773 10.1752C19.7804 10.274 19.7403 10.3339 19.6733 10.4222C19.599 10.521 19.535 10.5479 19.4978 10.6662C19.477 10.7335 19.4696 10.7246 19.4696 10.7904C19.4696 10.7844 19.4949 10.964 19.4949 10.964C19.5291 11.0434 19.6927 11.0913 19.773 11.1227C19.8905 11.1691 19.9188 11.2499 19.9991 11.2918C20.0452 11.3173 20.1047 11.2918 20.1567 11.3023C20.2103 11.3128 20.2445 11.3487 20.298 11.3592C20.4363 11.3876 20.5375 11.3502 20.411 11.4864C20.3724 11.5283 20.2995 11.5148 20.301 11.5972C20.4467 11.666 20.1374 11.8217 20.2668 11.9429C20.3173 11.9908 20.417 11.9609 20.4646 12.0088C20.5181 12.0627 20.4676 12.1764 20.5628 12.2243C20.5657 12.2453 20.5672 12.2692 20.5672 12.2902C20.6133 12.3186 20.5925 12.3051 20.6237 12.347C20.6951 12.353 20.7844 12.4398 20.826 12.5072C20.8557 12.5192 20.8409 12.5356 20.8617 12.576C20.8676 12.588 20.8424 12.6224 20.8498 12.6434C20.8572 12.6658 20.8989 12.6554 20.9048 12.6703C20.9346 12.7557 20.9346 12.8021 20.9346 12.8993C21.0461 12.9143 21.1636 12.9338 21.1592 13.0685C21.2707 13.0834 21.2484 12.9577 21.2811 12.8859C21.3138 12.814 21.354 12.7766 21.4075 12.7122C21.4878 12.615 21.4343 12.6389 21.5652 12.603C21.6485 12.5805 21.7318 12.576 21.7362 12.4638C21.9207 12.4548 22.0471 12.3725 22.2047 12.2947C22.2865 12.2542 22.3549 12.2318 22.41 12.1465C22.4799 12.0372 22.4204 12.0267 22.4353 11.9265C22.2999 11.8771 22.4576 11.7094 22.2984 11.6795C22.3445 11.5163 22.6286 11.6226 22.6509 11.4729C22.7401 11.4355 22.819 11.422 22.8844 11.3397C22.9603 11.2439 22.9677 11.1781 22.9305 11.1002C22.9082 11.0553 22.8695 11.0209 22.8457 10.9745C22.8249 10.9341 22.8636 10.9341 22.8071 10.8727C22.7372 10.7994 22.6271 10.8263 22.6048 10.7201C22.5751 10.5794 22.7372 10.5943 22.8339 10.5644C22.9885 10.5165 22.9573 10.4462 23.0555 10.3369C23.0912 10.2965 23.1611 10.2965 23.1863 10.2636C23.2205 10.2172 23.1982 10.1348 23.2265 10.0839C23.2518 10.0375 23.3023 10.0345 23.3261 9.96869C23.3425 9.92379 23.347 9.89236 23.3514 9.84296C23.3276 9.81902 23.3648 9.68131 23.3544 9.61396C23.3395 9.51068 23.2771 9.43435 23.3098 9.33257C23.2905 9.32808 23.2771 9.3176 23.2577 9.31311C23.3142 9.15745 23.1581 9.14548 23.0584 9.11704C23.0569 9.11704 23.0555 9.11554 23.054 9.11554C23.0495 9.10656 23.0465 9.09908 23.0421 9.09309C23.0064 9.03322 22.9662 8.98832 22.9171 8.93743C22.8651 8.88354 22.7937 8.87456 22.7744 8.79523C22.6985 8.77128 22.352 8.83714 22.4992 8.63957C22.5468 8.57521 22.6479 8.60964 22.7074 8.5797C22.7996 8.5333 22.7758 8.53779 22.8086 8.42703C22.8383 8.439 22.8844 8.42703 22.9157 8.43601C22.9543 8.3507 22.9097 8.23096 22.9484 8.15462C22.9662 8.1172 23.0421 8.08877 23.0718 8.05584C23.1239 7.99896 23.1135 7.99297 23.1432 7.92861C23.1863 7.83282 23.2101 7.78043 23.2949 7.7011C23.3782 7.62327 23.4065 7.59783 23.4094 7.46312C23.3886 7.46462 23.3633 7.45713 23.344 7.45863C23.3351 7.38229 23.4065 7.35086 23.4139 7.27902C23.5983 7.2416 23.4927 7.09641 23.5522 6.99314C23.582 6.94225 23.6697 6.93626 23.6905 6.89136C23.7188 6.83299 23.6474 6.75964 23.6682 6.68481C23.8333 6.65487 23.9449 6.53962 23.9597 6.37049C23.9478 6.3645 23.9345 6.36001 23.9211 6.35552C23.9151 6.21482 24.0356 6.09209 24.0638 5.9469C24.0891 5.82118 24.1769 5.60714 24.1144 5.49638C23.9746 5.47393 24.0296 5.64456 23.9731 5.70293C23.9047 5.77627 23.7515 5.68347 23.7485 5.81669C23.6236 5.83016 23.5939 6.00228 23.4808 6.0427C23.3782 6.07862 23.1893 5.99779 23.1863 6.19986C23.0525 6.18339 22.6926 6.39743 22.642 6.19088C22.7074 6.16244 22.9945 6.00528 22.7535 5.98732C22.7758 5.93792 22.7654 5.88404 22.7357 5.83614C22.5736 5.8122 22.5334 6.03372 22.4412 5.80771C22.3862 5.80621 22.3445 5.81519 22.291 5.81818C22.2984 5.68347 22.2657 5.67898 22.1913 5.59666C22.1423 5.54278 22.1542 5.59217 22.1214 5.50686C22.1006 5.45297 22.1021 5.35868 22.0917 5.29881C22.0218 5.28833 21.9206 5.26438 21.879 5.21499C21.8507 5.18206 21.8731 5.1192 21.8522 5.09675C21.818 5.06082 21.766 5.07429 21.7273 5.05633C21.5949 4.99197 21.4596 4.96653 21.3213 4.89768C21.3778 4.75249 21.1473 4.7959 21.0833 4.75549C20.9435 4.66867 21.0075 4.58785 21.1086 4.54594C21.1874 4.51301 21.3585 4.56091 21.3153 4.47858C21.2514 4.35585 21.1368 4.45314 21.0402 4.43069C20.9837 4.32891 21.1175 4.26605 21.2529 4.20169C21.3242 4.23761 21.3808 4.34537 21.4179 4.39028C21.4611 4.44266 21.5726 4.49655 21.5607 4.58635C21.6366 4.57587 21.7005 4.61778 21.7303 4.68514C21.9177 4.67167 22.0843 4.79739 22.2479 4.87223C22.3356 4.91115 22.7431 5.05484 22.7431 5.11022C22.9261 5.13117 22.8829 5.27935 22.8547 5.40807C22.996 5.41556 22.813 5.63109 22.993 5.69395C23.1328 5.74185 23.2652 5.69096 23.4005 5.63707C23.4823 5.60564 23.5582 5.58768 23.64 5.56673C23.6801 5.55625 23.7307 5.56224 23.7664 5.53529C23.8318 5.4844 23.7798 5.47842 23.808 5.4395C23.8839 5.33473 24.0237 5.27486 24.1189 5.17009C24.0341 5.08328 24.1888 4.9785 24.2141 4.8857C24.0579 4.88271 24.0876 4.70909 24.1144 4.60581C24.0906 4.61479 24.043 4.60581 24.0192 4.61629C24.0192 4.5654 24.1546 4.17025 23.9493 4.36184C23.9568 4.23461 23.8824 4.29448 23.8199 4.27802C23.7128 4.25108 23.75 4.30047 23.7084 4.17923C23.6771 4.08943 23.6385 3.88736 23.4987 3.92628C23.457 4.02806 23.4793 4.21515 23.2994 4.1927C23.2384 4.18522 23.2414 4.11787 23.1878 4.10589C23.115 4.08943 23.0986 4.14032 23.0287 4.10739C22.9469 4.06698 22.8904 3.92179 22.8353 3.86641C22.7639 3.79307 22.6003 3.77361 22.6643 3.62843C22.52 3.60897 22.6003 3.362 22.7521 3.41289C22.8532 3.44582 22.8324 3.62394 23.0019 3.55808C23.0079 3.66585 22.9975 3.68381 23.0599 3.74068C23.1075 3.78409 23.1655 3.74517 23.2027 3.83648C23.3083 3.86791 23.3604 3.74966 23.4645 3.75715C23.4823 3.79756 23.6191 3.89784 23.6519 3.91131C23.6905 3.92778 23.8988 3.92478 23.9419 3.90832C23.9925 3.88737 23.9731 3.823 24.0177 3.80055C24.0638 3.7766 24.101 3.80654 24.1412 3.79906C24.2274 3.7811 24.3777 3.71075 24.3405 3.89485C24.4148 3.88437 24.4892 3.92478 24.5532 3.92927C24.6826 3.93825 24.6543 3.90233 24.745 3.99962C24.7287 4.14331 25.1466 4.17175 25.2492 4.15528C25.3117 4.22413 25.4322 4.20168 25.4099 4.32142C25.5065 4.36184 25.4217 4.41423 25.447 4.48008C25.4753 4.55342 25.5154 4.53397 25.5883 4.59683C25.6062 4.6118 25.6121 4.65969 25.6181 4.66418C25.621 4.66718 25.7103 4.71358 25.7043 4.70609C25.7579 4.77794 25.7564 4.7959 25.7623 4.90217C25.9051 4.92911 25.9854 5.0698 25.9854 5.20152C25.9854 5.26438 25.9423 5.32126 25.9676 5.37514C26.0092 5.46046 26.0657 5.41555 26.1223 5.46046C26.2412 5.55475 26.1922 5.65953 26.2963 5.73137V4.64472C26.1788 4.60282 26.3216 4.4696 26.2502 4.38279C26.1996 4.32142 26.0241 4.31693 25.9616 4.26305C25.9215 4.22863 25.9111 4.17624 25.8888 4.13882C25.862 4.09392 25.7832 4.08643 25.8203 3.99962C25.8412 3.95173 25.917 3.97418 25.9438 3.92628C25.9735 3.87389 25.9393 3.80355 25.9601 3.74368C25.9795 3.74667 26.0063 3.73769 26.0256 3.73919C26.0301 3.65686 25.9958 3.52066 26.1237 3.55957C26.1089 3.66435 26.1401 3.83648 26.2636 3.82899C26.3201 3.94275 26.1877 4.00262 26.2903 4.0999C26.332 4.13882 26.4019 4.1029 26.4391 4.1493C26.4643 4.17923 26.451 4.26754 26.451 4.30646C26.5908 4.36633 26.5997 4.55193 26.7692 4.519C26.7588 4.47409 26.7648 4.44416 26.7276 4.40824C26.8243 4.30945 26.802 4.46811 26.8168 4.49355C26.8451 4.53995 26.8927 4.57438 26.9135 4.63425C26.9314 4.68663 26.912 4.76896 26.9224 4.82284C26.9343 4.88121 26.9834 4.90516 26.9715 4.98598C27.0265 5.01293 27.2928 5.25391 27.4028 5.27037ZM20.7814 2.84562C20.6371 2.68397 20.6773 2.94141 20.5955 2.98482C20.5181 3.02673 20.4661 2.94291 20.4006 2.93094C20.3426 2.91896 20.2742 2.9474 20.2177 2.92944C20.1076 2.89352 20.0571 2.79473 19.9663 2.73037C19.8905 2.67649 19.8726 2.72289 19.8355 2.64506C19.8206 2.61512 19.947 2.57321 19.828 2.54777C19.831 2.52831 19.8265 2.49987 19.8236 2.48191C19.7388 2.47143 19.5737 2.57172 19.5558 2.46844C19.4592 2.46245 19.3744 2.48041 19.2777 2.46395C19.3179 2.29332 19.4815 2.28883 19.6287 2.26787C19.7581 2.24991 19.9128 2.208 20.0362 2.18555C20.0749 2.17807 20.185 2.14065 20.2043 2.14214C20.2698 2.14664 20.3099 2.19453 20.3709 2.21399C20.4467 2.23794 20.4661 2.22596 20.533 2.18555C20.5627 2.16759 20.5984 2.03588 20.6564 2.14065L20.7264 2.16909C20.7427 2.18855 20.762 2.18855 20.7561 2.22297C20.7725 2.22447 20.7903 2.22596 20.8082 2.22746C20.8126 2.24991 20.8186 2.27536 20.823 2.29332C20.8007 2.30679 20.8007 2.32176 20.7844 2.33672C20.8186 2.33822 20.8364 2.35917 20.8662 2.36666C20.8498 2.45646 20.5538 2.44748 20.7412 2.53729C20.8587 2.59417 21.0253 2.51933 21.1473 2.53879C21.1413 2.55525 21.1398 2.5762 21.1368 2.59117C21.1978 2.58519 21.2186 2.59716 21.2365 2.64805C21.2439 2.64955 21.2514 2.65104 21.2603 2.65254C21.2826 2.93992 20.8201 2.6226 20.7814 2.84562ZM22.0367 2.95788C21.882 2.88454 21.9207 2.82766 21.8924 2.67798C21.8656 2.53729 21.6976 2.50885 21.708 2.36816C21.6217 2.36067 21.528 2.33373 21.5533 2.22596C21.4477 2.24991 21.4298 2.18106 21.3882 2.12269C21.3971 2.05384 21.4536 1.94008 21.3599 1.91015C21.4075 1.82633 21.4804 1.81436 21.4447 1.7036C21.5429 1.69611 21.5845 1.60331 21.6797 1.58535C21.6767 1.56589 21.6857 1.53895 21.6842 1.51949C21.7526 1.5165 21.824 1.5165 21.8909 1.51949C21.9028 1.54344 21.8805 1.53596 21.879 1.54494L21.8924 1.63025C21.9816 1.7934 21.6544 1.85028 21.6782 1.98798C21.7124 2.18405 21.9995 2.19004 22.1586 2.19753C22.1467 2.26039 22.1661 2.32325 22.2255 2.35169C22.0426 2.45198 22.3445 2.55525 22.4263 2.55226C22.4248 2.57172 22.4338 2.59866 22.4308 2.61812C22.5037 2.61812 22.5661 2.56872 22.6375 2.60914C22.5989 2.78875 22.8145 2.7184 22.6985 2.9025C22.7699 2.901 22.8264 2.93692 22.8681 2.99081C22.6613 3.18838 22.2493 3.05816 22.0367 2.95788Z" fill="#3989B4"/>
<path d="M23.4619 11.78C23.5571 11.8129 23.624 11.795 23.6924 11.7231C23.7192 11.6947 23.7252 11.6423 23.7475 11.6199C23.7772 11.5914 23.8382 11.5944 23.862 11.5645C23.8888 11.53 23.8605 11.4687 23.8888 11.4387C23.9245 11.3998 23.9825 11.4208 24.0197 11.3864C24.1 11.313 24.0553 11.2487 24.0717 11.1454C24.1 10.9777 24.2755 10.9643 24.4227 10.8835C24.4867 10.8475 24.5848 10.8131 24.5387 10.7323C24.4971 10.6574 24.3974 10.7233 24.3156 10.7023C24.332 10.5736 24.3647 10.5572 24.2026 10.5332C24.1922 10.4449 24.2517 10.3835 24.3394 10.3775C24.3216 10.3401 24.3379 10.3042 24.329 10.2683C24.4703 10.2653 24.4406 10.0797 24.4539 9.99737C24.4629 9.94498 24.4911 9.90607 24.4971 9.84171C24.5015 9.78633 24.4748 9.72795 24.4792 9.68904C24.4896 9.58875 24.5729 9.15919 24.3736 9.10381C24.3513 9.06639 24.3245 9.04992 24.3008 9.02148L24.216 9.03495C24.335 9.18912 24.271 9.1981 24.2011 9.33281C24.155 9.42262 24.2085 9.5663 24.149 9.64713C24.1148 9.69353 24.0316 9.704 23.9899 9.74292C23.9542 9.77735 23.9111 9.85368 23.8888 9.89858C23.8665 9.94049 23.856 10.0213 23.8337 10.0542C23.7876 10.1201 23.7192 10.1246 23.6672 10.174C23.5512 10.2818 23.5928 10.3611 23.6211 10.4823C23.6419 10.5721 23.6478 10.6919 23.6255 10.8041C23.6136 10.8595 23.5839 10.9194 23.569 10.9733C23.5675 10.9777 23.5318 11.0661 23.5288 11.0466C23.5333 11.0765 23.5824 11.1125 23.5839 11.1244C23.5898 11.2352 23.5571 11.34 23.5274 11.4537C23.5021 11.5495 23.5199 11.7022 23.4619 11.78Z" fill="#3989B4"/>
<path d="M15.1669 14.2144C15.1341 14.1755 15.1088 14.1021 15.0761 14.0557C15.0107 13.9614 14.9467 13.8641 14.8724 13.7788C14.7861 13.68 14.6552 13.6082 14.6047 13.4914C14.5586 13.3867 14.5615 13.219 14.4277 13.1771C14.444 13.0694 14.3474 13.023 14.3667 12.9137C14.3161 12.9092 14.2239 12.8299 14.2001 12.7984C14.1481 12.7296 14.1525 12.6937 14.1272 12.6039C14.1198 12.5769 14.0737 12.559 14.0633 12.5186C14.0633 12.5201 14.0871 12.4362 14.0886 12.4302C14.1124 12.3449 14.096 12.3315 14.1867 12.2881C14.27 12.2491 14.3013 12.3255 14.3414 12.2192C14.3548 12.1818 14.3146 12.0815 14.2953 12.0381C14.2358 11.9004 14.2343 11.8136 14.0737 11.8016C14.0068 11.7567 14.038 11.7148 14.0157 11.6519C13.9815 11.5576 13.9443 11.4693 13.9205 11.369C13.9086 11.3197 13.9235 11.2269 13.8937 11.1849C13.864 11.143 13.809 11.1535 13.7762 11.1191C13.6647 10.9964 13.7405 10.9904 13.809 10.917C13.8565 10.8661 13.8461 10.8766 13.8759 10.8063C13.8759 10.8063 13.8447 10.7688 13.8521 10.7464C13.8625 10.7195 13.9086 10.718 13.9175 10.7015C13.9666 10.6072 14.0291 10.5204 14.0365 10.4096C14.0439 10.2959 13.974 10.2285 13.9621 10.1222C13.9488 9.99802 14.0083 9.95611 13.8744 9.85732C13.809 9.80942 13.6379 9.78547 13.623 9.71363C13.5249 9.69268 13.3866 9.82888 13.3836 9.65676C13.2274 9.60886 13.2423 9.81092 13.107 9.77949C13.0757 9.69268 12.9776 9.47714 12.8824 9.4532C12.8645 9.36189 12.9865 9.11942 12.7976 9.15684C12.7961 9.10745 12.7946 9.05506 12.7931 9.00566C12.753 8.98172 12.7619 8.99519 12.753 8.94729C12.7203 8.77516 12.8363 8.49677 12.6444 8.37703C12.5611 8.32464 12.4659 8.40696 12.3767 8.33512C12.3008 8.27375 12.3068 8.10162 12.3202 8.01481C12.3425 7.86813 12.3261 7.82173 12.2741 7.68702C12.228 7.56728 12.2637 7.48346 12.2324 7.36223C12.1848 7.17513 12.161 6.99402 12.1194 6.79346C11.8219 8.79313 12.277 10.908 13.5546 12.6697C14.0202 13.3118 14.5645 13.8641 15.1639 14.3221C15.2174 14.3266 15.2725 14.3266 15.3215 14.3281C15.2725 14.2787 15.2115 14.2668 15.1669 14.2144Z" fill="#3989B4"/>
<path d="M24.7452 13.914V13.8945C24.7229 13.9604 24.7095 14.0023 24.6634 14.0547C24.6084 14.1161 24.6128 14.1086 24.5861 14.1879C24.5712 14.2313 24.5652 14.2388 24.5474 14.2717C24.5474 14.2717 24.4953 14.3421 24.5013 14.3391C24.4656 14.366 24.4135 14.372 24.3793 14.4064C24.3258 14.4603 24.3362 14.4843 24.2574 14.5202C24.2053 14.5441 24.1443 14.583 24.0878 14.592C23.9391 14.6145 23.9569 14.4229 23.8275 14.4438C23.8082 14.4858 23.7547 14.4858 23.7145 14.5067C23.6744 14.4394 23.6208 14.4693 23.5643 14.4813C23.5048 14.589 23.4215 14.6848 23.2996 14.7133C23.2073 14.7342 23.2222 14.6998 23.1404 14.6878C23.1196 14.6848 23.0556 14.6968 23.0363 14.7088C22.9976 14.7357 23.011 14.7612 22.9798 14.7821C22.9292 14.818 22.8742 14.821 22.8206 14.8554C22.7641 14.8914 22.724 14.9453 22.6585 14.9692C22.5752 15.0006 22.4979 14.9946 22.4161 15.0306C22.3551 15.0575 22.2495 15.065 22.2004 15.1024C22.1707 15.0815 22.1365 15.0635 22.0993 15.068C22.1023 15.083 22.0934 15.1069 22.0963 15.1219C22.0472 15.1204 22.0235 15.1638 21.9848 15.1892C21.9625 15.2042 21.9402 15.1967 21.9164 15.2147C21.8926 15.2341 21.8851 15.2446 21.8732 15.2715C21.9327 15.2835 21.9074 15.306 21.8985 15.3464C21.9 15.3419 21.8405 15.4332 21.842 15.4317C21.7795 15.4766 21.6293 15.4676 21.5981 15.3883C21.5609 15.4257 21.4895 15.4362 21.4672 15.4796C21.4151 15.4661 21.375 15.4332 21.3185 15.4242C21.2277 15.4093 21.2084 15.4556 21.1415 15.4796C21.0344 15.517 20.9258 15.4452 20.8232 15.4706C20.8143 15.3853 20.7325 15.3973 20.7459 15.4796C20.7027 15.4811 20.6596 15.4736 20.6224 15.4991C20.5808 15.4826 20.5243 15.4691 20.4841 15.5021C20.3889 15.4063 20.1167 15.6203 20.0335 15.6891C20.0156 15.7041 20.0156 15.7415 19.9963 15.758C19.9799 15.773 19.9487 15.7789 19.9308 15.7954C19.8981 15.8239 19.8728 15.8538 19.8386 15.8792C19.8178 15.8957 19.7866 15.9211 19.7583 15.9421C21.4419 15.984 23.1508 15.4886 24.6173 14.4124C24.6307 14.4019 24.6441 14.3915 24.6575 14.381C24.6619 14.3376 24.6619 14.2942 24.6753 14.2538C24.6857 14.2193 24.8062 14.134 24.6961 14.1295C24.7526 14.0891 24.7169 14.0682 24.7259 14.0277C24.7378 13.9873 24.766 13.9544 24.7452 13.914Z" fill="#3989B4"/>
<path d="M16.8068 1.69497C16.8053 1.69497 16.9912 1.60816 17.0046 1.59918C17.0656 1.55128 17.0209 1.4495 17.1414 1.46896C17.2083 1.34772 17.2797 1.27887 17.3437 1.16213C17.3779 1.15614 17.3883 1.13219 17.4121 1.11722L17.482 1.04688C17.4389 1.0828 17.2069 1.19655 17.131 1.21451C17.0685 1.22798 17.0224 1.21601 16.9629 1.23247C16.8231 1.2684 16.893 1.27588 16.835 1.37317C16.7978 1.43454 16.6119 1.67252 16.8068 1.69497Z" fill="#3989B4"/>
<path opacity="0.4" d="M17.1503 0.516123C15.9516 1.13877 15.0443 2.11616 14.6531 3.36894C13.731 6.32205 16.0155 9.67478 19.7561 10.8587C23.1367 11.9289 26.55 10.8587 27.8559 8.46241C27.9674 6.67229 27.4811 4.83427 26.3478 3.27165C24.2001 0.30957 20.4015 -0.723193 17.1503 0.516123Z" fill="#E9F8FF"/>
<defs>
<radialGradient id="paint0_radial_1667_119915" cx="0" cy="0" r="1" gradientUnits="userSpaceOnUse" gradientTransform="translate(20.8266 12.522) scale(0.0180333)">
<stop stop-color="white"/>
<stop offset="0.2051" stop-color="#E9E9F3"/>
<stop offset="1" stop-color="#9997C6"/>
</radialGradient>
</defs>
</svg>
