<svg width="26" height="30" viewBox="0 0 26 30" fill="none" xmlns="http://www.w3.org/2000/svg">
<path d="M2.72817 19.1819V25.5253C2.72817 27.6502 4.45564 29.3808 6.58054 29.3808C8.70545 29.3808 10.4329 27.6534 10.4329 25.5253V19.1819V4.94286H10.8084C11.8287 4.94286 12.658 3.94456 12.658 2.72094C12.658 1.49419 11.8287 0.499023 10.8084 0.499023H2.34951C1.32931 0.499023 0.5 1.49732 0.5 2.72094C0.5 3.94769 1.32931 4.94286 2.34951 4.94286H2.72505V19.1819C2.72818 19.1788 2.72817 19.1788 2.72817 19.1819ZM9.18426 19.1819V25.5253C9.18426 26.9586 8.01697 28.129 6.58367 28.129C5.15038 28.129 3.98309 26.9617 3.98309 25.5253V19.1819C3.98309 19.1819 3.98309 19.1819 3.98309 19.1788V4.94286H9.18739V19.1819H9.18426ZM2.35265 3.69107C2.06786 3.69107 1.75492 3.29363 1.75492 2.72094C1.75492 2.14825 2.07099 1.75081 2.35265 1.75081H10.8116C11.0964 1.75081 11.4093 2.14825 11.4093 2.72094C11.4093 3.29363 11.0932 3.69107 10.8116 3.69107H2.35265Z" fill="white"/>
<path d="M15.7038 25.5212C15.7038 27.6461 17.4312 29.3736 19.5561 29.3736C21.681 29.3736 23.4085 27.6461 23.4085 25.5212V13.1661V4.94188H23.784C24.8042 4.94188 25.6335 3.94358 25.6335 2.71996C25.6335 1.49322 24.8042 0.498047 23.784 0.498047H15.3251C14.3049 0.498047 13.4756 1.49635 13.4756 2.71996C13.4756 3.94671 14.3049 4.94188 15.3251 4.94188H15.7006V13.1661V25.5212H15.7038ZM22.1598 13.1661V25.5212C22.1598 26.9545 20.9925 28.1218 19.5593 28.1218C18.126 28.1218 16.9587 26.9545 16.9587 25.5212V13.1661V4.94188H22.163V13.1661H22.1598ZM15.3282 3.6901C15.0434 3.6901 14.7305 3.29266 14.7305 2.71996C14.7305 2.14727 15.0466 1.74983 15.3282 1.74983H23.7872C24.0719 1.74983 24.3849 2.14727 24.3849 2.71996C24.3849 3.29266 24.0688 3.6901 23.7872 3.6901H15.3282Z" fill="white"/>
<path d="M8.91166 24.9659C8.93044 24.7186 8.7458 24.4996 8.49857 24.4808C8.25134 24.462 8.03541 24.6498 8.01351 24.8939C8.00412 25.0128 7.98534 25.1255 7.95404 25.2381C7.75689 25.9798 7.1529 26.2646 6.67722 26.3741C6.45503 26.4242 6.2923 26.4304 6.27353 26.4304C6.0263 26.4336 5.82601 26.637 5.82914 26.8873C5.83227 27.1314 6.03256 27.3317 6.28291 27.3349C7.131 27.3255 8.7677 26.8185 8.91166 24.9659Z" fill="white"/>
<path d="M19.2616 27.3347C20.1066 27.3253 21.7433 26.8214 21.8872 24.9688C21.906 24.7216 21.7214 24.5025 21.4742 24.4837C21.2301 24.4649 21.011 24.6527 20.9891 24.8968C20.9797 25.0157 20.9609 25.1284 20.9296 25.241C20.7325 25.9827 20.1285 26.2675 19.6528 26.377C19.4306 26.4271 19.2679 26.4334 19.2491 26.4334C19.0019 26.4365 18.8016 26.6399 18.8047 26.8903C18.8079 27.1312 19.0081 27.3315 19.2616 27.3347Z" fill="white"/>
<path d="M3.78557 19.7673C5.65073 19.7673 7.51276 19.7673 9.37792 19.7673C10.1321 19.7673 10.1352 18.5938 9.37792 18.5938C7.51276 18.5938 5.65073 18.5938 3.78557 18.5938C3.03137 18.5938 3.02824 19.7673 3.78557 19.7673Z" fill="white"/>
<path d="M16.5006 13.7561C18.5379 13.7561 20.5752 13.7561 22.6156 13.7561C23.3698 13.7561 23.3729 12.5825 22.6156 12.5825C20.5783 12.5825 18.541 12.5825 16.5006 12.5825C15.7433 12.5825 15.7433 13.7561 16.5006 13.7561Z" fill="white"/>
</svg>
