<svg width="12" height="14" viewBox="0 0 12 14" fill="none" xmlns="http://www.w3.org/2000/svg">
<path d="M10.6667 0.333252H2C1.196 0.333252 0 0.865919 0 2.33325V11.6666C0 13.1339 1.196 13.6666 2 13.6666H12V12.3333H2.008C1.7 12.3253 1.33333 12.2039 1.33333 11.6666C1.33333 11.5993 1.33933 11.5393 1.34933 11.4846C1.424 11.1006 1.73867 11.0066 2.008 10.9999H12V1.66659C12 1.31296 11.8595 0.973825 11.6095 0.723776C11.3594 0.473728 11.0203 0.333252 10.6667 0.333252ZM10.6667 6.33325L9.33333 5.66659L8 6.33325V1.66659H10.6667V6.33325Z" fill="#336CCE"/>
</svg>
