<svg width="25" height="24" viewBox="0 0 25 24" fill="none" xmlns="http://www.w3.org/2000/svg">
<mask id="mask0_9600_21233" style="mask-type:alpha" maskUnits="userSpaceOnUse" x="2" y="5" width="17" height="16">
<path fill-rule="evenodd" clip-rule="evenodd" d="M2.50024 5H18.0005V20.5013H2.50024V5Z" fill="white"/>
</mask>
<g mask="url(#mask0_9600_21233)">
<path fill-rule="evenodd" clip-rule="evenodd" d="M7.34735 6.50135C6.90835 6.50135 6.62535 6.50135 6.57635 6.50335C5.83835 6.53435 5.15735 6.84735 4.66635 7.38335C4.20835 7.88435 3.97235 8.52435 4.00335 9.18835C4.00335 12.0813 4.00435 16.4233 4.01135 16.6613C4.12535 18.0463 5.42335 19.1053 6.90935 18.9913C9.65935 18.9953 13.7334 19.0043 13.9244 18.9973C14.6594 18.9673 15.3414 18.6553 15.8324 18.1203C16.2914 17.6213 16.5274 16.9813 16.4984 16.3203C16.4974 16.3093 16.4974 16.2983 16.4974 16.2873C16.4984 13.4273 16.4984 9.08835 16.4914 8.85535C16.3784 7.46335 15.0744 6.39135 13.5804 6.50835C11.5144 6.50535 8.69535 6.50135 7.34735 6.50135ZM6.64635 20.5013C4.53235 20.5023 2.68835 18.8823 2.51435 16.7573C2.51135 16.7163 2.50135 16.5913 2.50435 9.22235C2.45635 8.19135 2.83035 7.16735 3.56035 6.37035C4.32235 5.53835 5.37335 5.05335 6.52035 5.00435C6.65935 4.99435 11.4674 5.00635 13.5264 5.01035C15.7764 4.85235 17.8074 6.52235 17.9884 8.76335C17.9964 8.87235 17.9994 11.3973 17.9974 16.2723C18.0394 17.3283 17.6634 18.3453 16.9374 19.1353C16.1744 19.9663 15.1224 20.4493 13.9764 20.4963C13.8364 20.5063 9.02635 20.4933 6.96435 20.4893C6.85835 20.4973 6.75235 20.5013 6.64635 20.5013Z" fill="#3488ED"/>
</g>
<path fill-rule="evenodd" clip-rule="evenodd" d="M21.3186 18.3493C20.8676 18.3493 20.4226 18.1943 20.0556 17.8933L16.7746 15.1973C16.4546 14.9343 16.4086 14.4613 16.6716 14.1413C16.9336 13.8223 17.4066 13.7743 17.7266 14.0383L21.0066 16.7343C21.2276 16.9143 21.4496 16.8403 21.5356 16.7983C21.6216 16.7583 21.8206 16.6333 21.8206 16.3493L21.8326 9.00031C21.8336 8.71631 21.6336 8.59131 21.5476 8.55031C21.4626 8.51031 21.2376 8.43531 21.0186 8.61531L17.7256 11.3103C17.4036 11.5733 16.9326 11.5263 16.6706 11.2043C16.4076 10.8843 16.4556 10.4123 16.7756 10.1503L20.0686 7.45431C20.6726 6.95931 21.4856 6.86231 22.1906 7.19531C22.8956 7.53031 23.3336 8.22231 23.3326 9.00231L23.3206 16.3513C23.3196 17.1313 22.8806 17.8233 22.1766 18.1553C21.9006 18.2863 21.6086 18.3493 21.3186 18.3493Z" fill="#3488ED"/>
</svg>
