<svg width="41" height="40" viewBox="0 0 41 40" fill="none" xmlns="http://www.w3.org/2000/svg">
<path d="M40.4977 19.9998C40.4977 31.0455 31.5434 39.9998 20.4975 39.9998C20.1284 39.9998 19.7618 39.9898 19.3976 39.9698C12.9467 39.6203 7.30914 36.2136 3.90781 31.1737V31.1735C3.90781 27.2845 3.90781 25.6298 3.90781 21.4911C3.90781 20.9262 0.521365 18.8752 0.566861 18.3224C1.41923 8.06185 10.017 0 20.4977 0C31.0324 0 39.6651 8.14509 40.4409 18.4813C40.4785 18.9826 40.4977 19.4891 40.4977 19.9998Z" fill="#51BC7F"/>
<path d="M40.5 20C40.5 31.0457 31.5458 39.9999 20.4998 39.9999C20.1308 39.9999 19.7641 39.9899 19.4 39.97L3.91016 31.1736L15.6424 21.0904L19.4494 6.00781L40.4431 18.4813C40.4808 18.9827 40.5 19.4893 40.5 20Z" fill="#329D60"/>
<path d="M25.4869 23.566C25.6681 23.959 26.2977 24.7249 26.0335 25.5297C25.7281 26.4608 24.7433 26.5838 24.7433 27.0384C24.7433 27.2644 24.8812 28.1598 24.7288 28.5208C24.3983 29.3029 23.2164 30.0423 21.8336 30.1761C19.8637 30.3667 16.6525 30.7168 9.35934 29.3954H9.35893C9.30385 29.3999 9.09474 29.409 8.42434 29.4209C8.00652 29.4278 8.65162 31.1389 8.65162 31.1389C7.41325 31.1619 5.6677 31.1719 3.9099 31.1744V31.174C1.75673 27.9838 0.5 24.1389 0.5 20.0003C0.5 19.4354 0.523462 18.876 0.569161 18.3229C3.15729 18.3306 6.00167 18.3269 7.77578 18.2874C7.77578 18.2874 7.29369 19.0677 7.85841 19.0541C9.48624 19.0143 9.40708 18.9788 9.54826 18.9563C10.1052 18.8686 10.8709 18.5442 11.5998 16.8784C12.969 13.7501 13.0991 12.8373 14.2726 12.0551C14.8845 11.6471 15.461 11.1683 15.8821 10.1553C16.2159 9.35173 16.4519 8.21251 16.5296 6.50572C16.5415 6.24009 16.8038 5.41771 17.1166 5.35079C17.8874 5.18595 19.24 5.43158 19.8569 7.40665C19.9891 7.82916 20.2111 9.36601 19.7833 10.5495C19.4836 11.4108 19.0037 12.4517 18.3799 13.5546C17.4428 14.966 18.5641 15.3143 18.7157 15.3143C24.5068 15.3143 24.5068 15.3143 24.5068 15.3143C24.5068 15.3143 25.1548 15.2418 25.7156 15.6344C26.2605 16.0157 26.7194 16.8525 26.7053 17.4797C26.6761 18.7527 25.6142 19.1983 25.6142 19.6165C25.6142 19.8289 26.7367 20.6038 26.7053 21.5528C26.6747 22.4736 25.2939 23.1486 25.4869 23.566Z" fill="white"/>
</svg>
