<svg width="24" height="24" viewBox="0 0 24 24" fill="none" xmlns="http://www.w3.org/2000/svg">
<path fill-rule="evenodd" clip-rule="evenodd" d="M12.0001 0.999878C10.6741 0.999878 9.40229 1.52666 8.46461 2.46434C7.52693 3.40203 7.00014 4.6738 7.00014 5.99988V6.99988H5.86245C4.28854 6.99988 2.98221 8.21622 2.87007 9.78614L2.15579 19.7861C2.03175 21.5227 3.40714 22.9999 5.14816 22.9999H18.8523C20.5933 22.9999 21.9687 21.5227 21.8446 19.7861L21.1304 9.78614C21.0182 8.21622 19.7119 6.99988 18.138 6.99988H17.0001V5.99988C17.0001 4.6738 16.4734 3.40203 15.5357 2.46434C14.598 1.52666 13.3262 0.999878 12.0001 0.999878ZM15.0001 8.99988V10.9999C15.0001 11.5522 15.4479 11.9999 16.0001 11.9999C16.5524 11.9999 17.0001 11.5522 17.0001 10.9999V8.99988H18.138C18.6626 8.99988 19.0981 9.40532 19.1354 9.92863L19.8497 19.9286C19.8911 20.5075 19.4326 20.9999 18.8523 20.9999H5.14816C4.56782 20.9999 4.10936 20.5075 4.15071 19.9286L4.86499 9.92863C4.90237 9.40532 5.33781 8.99988 5.86245 8.99988H7.00014V10.9999C7.00014 11.5522 7.44786 11.9999 8.00014 11.9999C8.55243 11.9999 9.00014 11.5522 9.00014 10.9999V8.99988H15.0001ZM15.0001 6.99988V5.99988C15.0001 5.20423 14.6841 4.44117 14.1215 3.87856C13.5589 3.31595 12.7958 2.99988 12.0001 2.99988C11.2045 2.99988 10.4414 3.31595 9.87882 3.87856C9.31621 4.44117 9.00014 5.20423 9.00014 5.99988V6.99988H15.0001Z" fill="#252733"/>
</svg>
