<svg width="13" height="14" viewBox="0 0 13 14" fill="none" xmlns="http://www.w3.org/2000/svg">
<path d="M11.1667 0.340088H2.5C1.696 0.340088 0.5 0.872755 0.5 2.34009V11.6734C0.5 13.1408 1.696 13.6734 2.5 13.6734H12.5V12.3401H2.508C2.2 12.3321 1.83333 12.2101 1.83333 11.6734C1.83333 11.6061 1.83933 11.5461 1.84933 11.4914C1.924 11.1081 2.238 11.0134 2.50733 11.0068H11.8333C11.8453 11.0068 11.854 11.0008 11.866 11.0001H12.5V1.67342C12.5 0.938088 11.902 0.340088 11.1667 0.340088ZM11.1667 9.67342H1.83333V2.34009C1.83333 1.80275 2.2 1.68142 2.5 1.67342H7.16667V6.34009L8.5 5.67342L9.83333 6.34009V1.67342H11.1667V9.67342Z" fill="#75767E"/>
</svg>
