<svg width="16" height="16" viewBox="0 0 16 16" fill="none" xmlns="http://www.w3.org/2000/svg">
<path d="M7.49757 1.61996C8.78969 1.51809 10.0823 1.81094 11.2043 2.45976C12.3264 3.10858 13.225 4.08279 13.7812 5.25348C14.3375 6.42417 14.5252 7.73617 14.3195 9.01587C14.1138 10.2956 13.5244 11.4827 12.6293 12.4201C11.7341 13.3574 10.5755 14.001 9.30666 14.2655C8.03781 14.53 6.71855 14.403 5.52345 13.9013C4.32835 13.3997 3.31373 12.547 2.61385 11.456C1.91397 10.3651 1.56181 9.0874 1.60397 7.79196C1.60634 7.71317 1.6242 7.63561 1.65654 7.56372C1.68887 7.49183 1.73505 7.42701 1.79244 7.37297C1.84983 7.31892 1.91729 7.27671 1.99099 7.24874C2.06469 7.22078 2.14318 7.2076 2.22197 7.20996C2.30077 7.21232 2.37832 7.23018 2.45021 7.26252C2.52211 7.29486 2.58692 7.34104 2.64097 7.39843C2.69501 7.45581 2.73722 7.52328 2.76519 7.59698C2.79316 7.67068 2.80634 7.74917 2.80397 7.82796C2.76343 9.05425 3.15782 10.2554 3.91739 11.2189C4.67696 12.1825 5.75278 12.8465 6.95463 13.0934C8.15648 13.3403 9.40694 13.1543 10.4849 12.5683C11.5628 11.9822 12.3988 11.0339 12.8451 9.89094C13.2913 8.748 13.319 7.4841 12.9233 6.3227C12.5276 5.16131 11.7339 4.17725 10.6827 3.54453C9.63146 2.91181 8.39036 2.67119 7.17884 2.86521C5.96733 3.05923 4.86344 3.6754 4.06237 4.60476L3.89917 4.80316H5.80237L5.88397 4.80956C6.02758 4.82932 6.15918 4.9004 6.25445 5.00967C6.34971 5.11894 6.40219 5.259 6.40219 5.40396C6.40219 5.54892 6.34971 5.68898 6.25445 5.79825C6.15918 5.90752 6.02758 5.9786 5.88397 5.99836L5.80237 6.00396H2.60237L2.52077 5.99836C2.39105 5.98055 2.27072 5.92079 2.17813 5.8282C2.08555 5.73562 2.02579 5.61528 2.00797 5.48556L2.00237 5.40396V2.20396L2.00797 2.12236C2.02579 1.99264 2.08555 1.87231 2.17813 1.77972C2.27072 1.68713 2.39105 1.62737 2.52077 1.60956L2.60237 1.60396L2.68397 1.60956C2.8137 1.62737 2.93403 1.68713 3.02662 1.77972C3.1192 1.87231 3.17896 1.99264 3.19677 2.12236L3.20237 2.20396L3.20157 3.76636C4.29961 2.51912 5.84084 1.74936 7.49757 1.62076V1.61996ZM7.79997 4.80316L7.88157 4.80876C8.0113 4.82657 8.13163 4.88633 8.22422 4.97892C8.3168 5.07151 8.37656 5.19184 8.39437 5.32156L8.39997 5.40316V7.99916L9.79998 7.99996L9.88158 8.00556C10.0258 8.02467 10.1582 8.09553 10.254 8.20495C10.3499 8.31436 10.4028 8.45488 10.4028 8.60036C10.4028 8.74584 10.3499 8.88636 10.254 8.99578C10.1582 9.10519 10.0258 9.17605 9.88158 9.19516L9.79998 9.19996H7.79997L7.71837 9.19516C7.58854 9.17731 7.46811 9.11743 7.37551 9.02469C7.28291 8.93194 7.22323 8.81143 7.20557 8.68156L7.19997 8.59996V5.40316L7.20557 5.32156C7.22339 5.19184 7.28315 5.07151 7.37573 4.97892C7.46832 4.88633 7.58865 4.82657 7.71837 4.80876L7.79997 4.80316Z" fill="#474953"/>
</svg>
