<svg width="25" height="37" viewBox="0 0 25 37" fill="none" xmlns="http://www.w3.org/2000/svg">
<path d="M12.7862 5.15629C11.9365 5.15629 11.2442 5.84865 11.2442 6.69826C11.2442 7.54788 11.9365 8.24024 12.7862 8.24024C13.6358 8.24024 14.3281 7.54788 14.3281 6.69826C14.3281 5.84869 13.6382 5.15629 12.7862 5.15629ZM12.7862 7.20357C12.5069 7.20357 12.2809 6.97752 12.2809 6.69826C12.2809 6.419 12.5069 6.19296 12.7862 6.19296C13.0654 6.19296 13.2915 6.419 13.2915 6.69826C13.2915 6.97752 13.0654 7.20357 12.7862 7.20357Z" fill="white" stroke="white" stroke-width="0.08"/>
<path d="M18.8577 2.74283C18.8577 1.30008 17.6846 0.126992 16.2419 0.126992C14.7991 0.126992 13.626 1.30008 13.626 2.74283C13.626 4.18558 14.7991 5.35868 16.2419 5.35868C17.6846 5.35868 18.8577 4.18558 18.8577 2.74283ZM16.2419 4.322C15.3719 4.322 14.6627 3.61284 14.6627 2.74283C14.6627 1.87282 15.3718 1.16366 16.2419 1.16366C17.1119 1.16366 17.821 1.87282 17.821 2.74283C17.821 3.61519 17.1119 4.322 16.2419 4.322Z" fill="white" stroke="white" stroke-width="0.08"/>
<path d="M15.293 7.75359C15.293 8.74192 16.0978 9.54669 17.0861 9.54669C18.0744 9.54669 18.8792 8.74192 18.8792 7.75359C18.8792 6.76526 18.0744 5.96049 17.0861 5.96049C16.0954 5.96049 15.293 6.76529 15.293 7.75359ZM17.8402 7.75359C17.8402 8.16925 17.5016 8.51001 17.0837 8.51001C16.6681 8.51001 16.3273 8.17149 16.3273 7.75359C16.3273 7.33792 16.6658 6.99716 17.0837 6.99716C17.5017 6.99716 17.8402 7.33561 17.8402 7.75359Z" fill="white" stroke="white" stroke-width="0.08"/>
<path d="M7.15892 23.5022L1.4807 33.3359L7.15892 23.5022ZM7.15892 23.5022L17.3085 23.5165L23.2163 33.752C23.3671 34.0147 23.3671 34.3248 23.2163 34.5875C23.0656 34.8478 22.7941 35.0051 22.4928 35.0051H2.44576C2.044 35.0051 1.68406 34.7975 1.4807 34.4487C1.27975 34.1 1.27974 33.6847 1.48068 33.3359L7.15892 23.5022ZM24.1132 33.2338L24.1132 33.2337L18.0553 22.7395C18.0552 22.7394 18.0552 22.7393 18.0551 22.7392C18.0212 22.6788 17.9745 22.6301 17.9217 22.5909C17.9061 22.4766 17.8568 22.3732 17.7773 22.2942L14.9966 17.477V13.4589C15.6246 13.2098 16.0705 12.5995 16.0705 11.8841C16.0705 10.9483 15.3112 10.189 14.3755 10.189H10.08C9.14672 10.189 8.38496 10.9483 8.38496 11.8841C8.38496 12.5995 8.8309 13.2098 9.45883 13.4589V17.477L6.67806 22.2945C6.60353 22.3706 6.55201 22.4714 6.53618 22.5822C6.48828 22.6205 6.44412 22.6662 6.41048 22.7215L6.41047 22.7215L6.41001 22.7223L0.581484 32.8152L0.581379 32.8154C0.196496 33.4901 0.196448 34.2945 0.583856 34.967C0.971293 35.6395 1.66855 36.0418 2.44576 36.0418H22.4928C23.1696 36.0418 23.776 35.6921 24.1132 35.1057C24.4503 34.5193 24.4503 33.8201 24.1132 33.2338ZM9.42164 11.8864C9.42164 11.5235 9.71704 11.2281 10.08 11.2281H14.3779C14.7408 11.2281 15.0362 11.5235 15.0362 11.8864C15.0362 12.2494 14.7408 12.5448 14.3779 12.5448H10.08C9.71704 12.5448 9.42164 12.2494 9.42164 11.8864ZM10.4276 17.8767C10.4277 17.8766 10.4277 17.8765 10.4278 17.8764C10.4747 17.798 10.4979 17.7072 10.4979 17.6169V13.5815H13.9624V17.6169C13.9624 17.7072 13.9855 17.798 14.0325 17.8764C14.0325 17.8765 14.0326 17.8766 14.0326 17.8767L16.6906 22.4798L7.77905 22.468L10.4276 17.8767Z" fill="white" stroke="white" stroke-width="0.08"/>
</svg>
