<svg width="24" height="24" viewBox="0 0 24 24" fill="none" xmlns="http://www.w3.org/2000/svg">
<path d="M11.7137 13.988C11.1206 13.988 10.7745 14.5522 10.7745 15.3078C10.7745 16.0681 11.1312 16.6054 11.7194 16.6054C12.3125 16.6054 12.6528 16.0402 12.6528 15.2847C12.6528 14.5868 12.3183 13.988 11.7137 13.988Z" fill="#0084F4"/>
<path d="M13.4573 1.92249H5.76739C5.25752 1.92249 4.76853 2.12503 4.40799 2.48557C4.04746 2.8461 3.84491 3.33509 3.84491 3.84497V19.2248C3.84491 19.7347 4.04746 20.2237 4.40799 20.5842C4.76853 20.9447 5.25752 21.1473 5.76739 21.1473H17.3023C17.8121 21.1473 18.3011 20.9447 18.6617 20.5842C19.0222 20.2237 19.2248 19.7347 19.2248 19.2248V7.68993L13.4573 1.92249ZM8.8001 16.7775C8.39061 17.1178 7.76869 17.2783 7.00835 17.2783C6.55176 17.2783 6.22975 17.2495 6.01058 17.2206V13.4035C6.4037 13.3469 6.80056 13.3203 7.19772 13.3238C7.93595 13.3238 8.41465 13.4564 8.78857 13.739C9.19229 14.0389 9.44606 14.5176 9.44606 15.202C9.44606 15.947 9.17499 16.4603 8.8001 16.7775ZM11.6742 17.3023C10.5207 17.3023 9.84689 16.4314 9.84689 15.3241C9.84689 14.16 10.5899 13.2901 11.7377 13.2901C12.9306 13.2901 13.5823 14.1831 13.5823 15.2558C13.5813 16.5295 12.8085 17.3023 11.6742 17.3023ZM16.1488 16.5699C16.4131 16.5699 16.7073 16.5112 16.8813 16.443L17.0139 17.1283C16.8524 17.2091 16.4891 17.2956 16.0171 17.2956C14.6742 17.2956 13.9821 16.4603 13.9821 15.3529C13.9821 14.0274 14.927 13.2901 16.1036 13.2901C16.5592 13.2901 16.9043 13.3824 17.06 13.4631L16.8813 14.161C16.6472 14.0643 16.3962 14.0153 16.143 14.0168C15.4452 14.0168 14.903 14.4378 14.903 15.3029C14.903 16.0806 15.3644 16.5699 16.1488 16.5699ZM13.4573 8.65117H12.4961V3.84497L17.3023 8.65117H13.4573Z" fill="#0084F4"/>
<path d="M7.29 13.9986C7.09487 13.9986 6.96798 14.0159 6.89301 14.0332V16.5757C6.96798 16.593 7.0891 16.593 7.19772 16.593C7.99363 16.5988 8.51173 16.1614 8.51173 15.2328C8.5175 14.4254 8.04553 13.9986 7.29 13.9986Z" fill="#0084F4"/>
</svg>
