<svg width="19" height="20" viewBox="0 0 19 20" fill="none" xmlns="http://www.w3.org/2000/svg">
<path fill-rule="evenodd" clip-rule="evenodd" d="M12.7158 14.9736H5.49579C5.08179 14.9736 4.74579 14.6376 4.74579 14.2236C4.74579 13.8096 5.08179 13.4736 5.49579 13.4736H12.7158C13.1298 13.4736 13.4658 13.8096 13.4658 14.2236C13.4658 14.6376 13.1298 14.9736 12.7158 14.9736Z" fill="#336CCE"/>
<path fill-rule="evenodd" clip-rule="evenodd" d="M12.7158 10.7871H5.49579C5.08179 10.7871 4.74579 10.4511 4.74579 10.0371C4.74579 9.62311 5.08179 9.28711 5.49579 9.28711H12.7158C13.1298 9.28711 13.4658 9.62311 13.4658 10.0371C13.4658 10.4511 13.1298 10.7871 12.7158 10.7871Z" fill="#336CCE"/>
<path fill-rule="evenodd" clip-rule="evenodd" d="M8.25048 6.61035H5.49548C5.08148 6.61035 4.74548 6.27435 4.74548 5.86035C4.74548 5.44635 5.08148 5.11035 5.49548 5.11035H8.25048C8.66448 5.11035 9.00048 5.44635 9.00048 5.86035C9.00048 6.27435 8.66448 6.61035 8.25048 6.61035Z" fill="#336CCE"/>
<mask id="mask0_4870_14270" style="mask-type:alpha" maskUnits="userSpaceOnUse" x="0" y="0" width="19" height="20">
<path fill-rule="evenodd" clip-rule="evenodd" d="M0 0H18.1647V19.9098H0V0Z" fill="white"/>
</mask>
<g mask="url(#mask0_4870_14270)">
<path fill-rule="evenodd" clip-rule="evenodd" d="M12.9087 1.5L5.2197 1.504C2.89169 1.518 1.49969 2.958 1.49969 5.357V14.553C1.49969 16.968 2.90469 18.41 5.25569 18.41L12.9447 18.407C15.2727 18.393 16.6647 16.951 16.6647 14.553V5.357C16.6647 2.942 15.2607 1.5 12.9087 1.5ZM5.25669 19.91C2.11269 19.91 -0.000305176 17.757 -0.000305176 14.553V5.357C-0.000305176 2.124 2.04669 0.023 5.21469 0.004L12.9077 0H12.9087C16.0527 0 18.1647 2.153 18.1647 5.357V14.553C18.1647 17.785 16.1177 19.887 12.9497 19.907L5.25669 19.91Z" fill="#336CCE"/>
</g>
</svg>
