<svg width="24" height="24" viewBox="0 0 24 24" fill="none" xmlns="http://www.w3.org/2000/svg">
<path fill-rule="evenodd" clip-rule="evenodd" d="M7.5729 3.51172C5.9149 3.51172 4.5399 4.85372 4.5009 6.50872V17.3397C4.4719 18.9867 5.7789 20.3387 7.4139 20.3667L7.5609 20.3657H15.5729C17.2149 20.3477 18.5539 18.9907 18.5519 17.3407V8.34172L13.9179 3.51172H7.5849H7.5729ZM7.3999 21.8667C4.9269 21.8237 2.9589 19.7867 3.0009 17.3267V6.49072C3.0579 4.00972 5.1069 2.01172 7.5699 2.01172H7.5879H14.2369C14.4409 2.01172 14.6359 2.09472 14.7779 2.24172L19.8439 7.52072C19.9769 7.65972 20.0519 7.84672 20.0519 8.03972V17.3397C20.0559 19.8087 18.0499 21.8397 15.5809 21.8657L7.3999 21.8667Z" fill="#474953"/>
<path fill-rule="evenodd" clip-rule="evenodd" d="M19.2975 8.984H16.5435C14.7125 8.979 13.2245 7.487 13.2245 5.659V2.75C13.2245 2.336 13.5605 2 13.9745 2C14.3885 2 14.7245 2.336 14.7245 2.75V5.659C14.7245 6.663 15.5415 7.481 16.5455 7.484H19.2975C19.7115 7.484 20.0475 7.82 20.0475 8.234C20.0475 8.648 19.7115 8.984 19.2975 8.984Z" fill="#474953"/>
<path d="M13.9839 11.7419C13.9839 11.0147 13.695 10.3173 13.1808 9.80309C12.6666 9.28888 11.9691 9 11.2419 9C10.5147 9 9.81731 9.28888 9.30309 9.80309C8.78888 10.3173 8.5 11.0147 8.5 11.7419C8.5 11.8874 8.55778 12.0269 8.66062 12.1297C8.76346 12.2325 8.90295 12.2903 9.04839 12.2903C9.19383 12.2903 9.33331 12.2325 9.43616 12.1297C9.539 12.0269 9.59677 11.8874 9.59677 11.7419C9.59677 11.4166 9.69326 11.0985 9.87403 10.8279C10.0548 10.5574 10.3117 10.3465 10.6124 10.222C10.913 10.0975 11.2438 10.0649 11.5629 10.1284C11.882 10.1919 12.1752 10.3486 12.4052 10.5786C12.6353 10.8087 12.792 11.1019 12.8555 11.421C12.919 11.7401 12.8864 12.0709 12.7619 12.3715C12.6373 12.6721 12.4265 12.9291 12.1559 13.1098C11.8854 13.2906 11.5673 13.3871 11.2419 13.3871C11.0965 13.3871 10.957 13.4449 10.8542 13.5477C10.7513 13.6506 10.6935 13.79 10.6935 13.9355V15.0323C10.6935 15.1777 10.7513 15.3172 10.8542 15.42C10.957 15.5229 11.0965 15.5806 11.2419 15.5806C11.3874 15.5806 11.5269 15.5229 11.6297 15.42C11.7325 15.3172 11.7903 15.1777 11.7903 15.0323V14.429C12.4097 14.3026 12.9663 13.9661 13.366 13.4764C13.7657 12.9868 13.984 12.374 13.9839 11.7419Z" fill="#474953"/>
<path d="M11.242 17.5001C11.5449 17.5001 11.7904 17.2546 11.7904 16.9517C11.7904 16.6488 11.5449 16.4033 11.242 16.4033C10.9391 16.4033 10.6936 16.6488 10.6936 16.9517C10.6936 17.2546 10.9391 17.5001 11.242 17.5001Z" fill="#474953"/>
</svg>
