<svg width="16" height="12" viewBox="0 0 16 12" fill="none" xmlns="http://www.w3.org/2000/svg">
<path fill-rule="evenodd" clip-rule="evenodd" d="M8.00326 1.45166C8.96992 0.718327 10.3699 0.45166 11.6699 0.45166C12.6366 0.45166 13.6633 0.598327 14.5166 0.978327C15.0033 1.19833 15.3299 1.67166 15.3299 2.21166V9.73166C15.3299 10.605 14.5166 11.245 13.6766 11.025C13.0233 10.8583 12.3299 10.785 11.6633 10.785C10.6233 10.785 9.51659 10.9517 8.62326 11.3983C8.22992 11.5983 7.77659 11.5983 7.37659 11.3983C6.48326 10.9583 5.37659 10.785 4.33659 10.785C3.66992 10.785 2.97659 10.8583 2.32326 11.025C1.48326 11.2383 0.669922 10.5983 0.669922 9.73166V2.21166C0.669922 1.67166 0.996589 1.19833 1.48326 0.978327C2.34326 0.598327 3.36992 0.45166 4.33659 0.45166C5.63659 0.45166 7.03659 0.718327 8.00326 1.45166ZM13.2033 9.59166C13.6166 9.66499 14.0033 9.35833 14.0033 8.93833V2.62499C14.0033 2.31166 13.7766 2.03833 13.4699 1.97166C12.8899 1.84499 12.2833 1.78499 11.6699 1.78499C10.5366 1.78499 8.90326 2.21833 8.00326 2.78499V10.4583C8.90326 9.89166 10.5366 9.45833 11.6699 9.45833C12.1833 9.45833 12.7033 9.49833 13.2033 9.59166Z" fill="#75767E"/>
</svg>
