<svg width="16" height="12" viewBox="0 0 16 12" fill="none" xmlns="http://www.w3.org/2000/svg">
<path d="M11.6699 0.45166C10.3699 0.45166 8.96992 0.718327 8.00326 1.45166C7.03659 0.718327 5.63659 0.45166 4.33659 0.45166C3.36992 0.45166 2.34326 0.598327 1.48326 0.978327C0.996589 1.19833 0.669922 1.67166 0.669922 2.21166V9.73166C0.669922 10.5983 1.48326 11.2383 2.32326 11.025C2.97659 10.8583 3.66992 10.785 4.33659 10.785C5.37659 10.785 6.48326 10.9583 7.37659 11.3983C7.77659 11.5983 8.22992 11.5983 8.62326 11.3983C9.51659 10.9517 10.6233 10.785 11.6633 10.785C12.3299 10.785 13.0233 10.8583 13.6766 11.025C14.5166 11.245 15.3299 10.605 15.3299 9.73166V2.21166C15.3299 1.67166 15.0033 1.19833 14.5166 0.978327C13.6633 0.598327 12.6366 0.45166 11.6699 0.45166Z" fill="#336CCE"/>
</svg>
