<svg width="32" height="32" viewBox="0 0 32 32" fill="none" xmlns="http://www.w3.org/2000/svg">
<path d="M8.74725 14.5039C8.04375 15.2074 7.6582 16.1412 7.6582 17.1352C7.6582 19.1856 9.32808 20.853 11.3785 20.853C12.3699 20.853 13.3037 20.4649 14.0073 19.7614C14.3828 19.3859 14.6657 18.9427 14.851 18.462H18.3234C18.8592 19.859 20.2111 20.853 21.7934 20.853C22.7848 20.853 23.7186 20.4649 24.4221 19.7614C25.1256 19.0579 25.5137 18.1241 25.5137 17.1302C25.5137 15.0797 23.8438 13.4098 21.7934 13.4098C21.1925 13.4098 20.6167 13.5551 20.0984 13.8204C19.8806 13.4875 19.6228 13.1745 19.3148 12.8891C19.1346 12.7239 18.8617 12.7113 18.6664 12.8616C18.6464 12.8766 16.5985 14.4038 14.6432 13.0068L13.6117 11.412C14.2952 12.2457 15.3316 12.7789 16.4908 12.7789C17.4847 12.7789 18.4185 12.3909 19.122 11.6874C19.8255 10.9839 20.2136 10.0476 20.2136 9.05614C20.2136 7.00321 18.5412 5.33333 16.4908 5.33333C15.4969 5.33333 14.5631 5.72139 13.8595 6.42489C13.156 7.12839 12.768 8.06472 12.768 9.05864C12.768 9.6595 12.9157 10.2278 13.1711 10.731L11.9293 8.81079C11.5487 8.22496 10.7626 8.05471 10.1768 8.43526C9.59096 8.81329 9.42071 9.59941 9.80126 10.1878L11.9143 13.4549C11.739 13.4299 11.5613 13.4124 11.381 13.4124C10.3846 13.4124 9.45075 13.8004 8.74725 14.5039ZM14.5706 7.14091C15.0838 6.62768 15.7648 6.34477 16.4908 6.34477C17.9879 6.34477 19.2047 7.56151 19.2072 9.05864C19.2072 9.78217 18.9243 10.4631 18.411 10.9789C17.8978 11.4921 17.2168 11.775 16.4908 11.775C14.9937 11.775 13.7744 10.5583 13.7744 9.06115C13.7744 8.33511 14.0573 7.65414 14.5706 7.14091ZM19.8706 15.2124C20.3839 14.6992 21.0673 14.4138 21.7934 14.4138C23.2905 14.4138 24.5122 15.633 24.5122 17.1327C24.5122 17.8562 24.2293 18.5397 23.7136 19.0554C23.2004 19.5686 22.5169 19.854 21.7934 19.854C20.2937 19.854 19.0745 18.6348 19.0745 17.1377C19.0745 16.4091 19.3574 15.7256 19.8706 15.2124ZM10.4872 9.74462C10.4221 9.64448 10.3996 9.52431 10.4246 9.40664C10.4497 9.28897 10.5198 9.18883 10.6199 9.12374C10.8227 8.99355 11.1106 9.05614 11.2408 9.25643L13.6693 13.0093L14.2927 13.9757L14.3327 14.0132C14.5055 14.1184 14.6832 14.211 14.8585 14.2886C15.0037 14.3512 15.1564 14.4063 15.3141 14.4513C16.8638 14.9045 18.2834 14.2636 18.9017 13.9081C19.0394 14.0658 19.1621 14.231 19.2723 14.4063C19.2372 14.4388 19.1997 14.4689 19.1646 14.5039C18.4611 15.2074 18.073 16.1412 18.073 17.1352C18.073 17.2428 18.0806 17.348 18.0906 17.4531H15.0838C15.0938 17.3455 15.0988 17.2403 15.0988 17.1302C15.0988 15.7206 14.3102 14.4914 13.151 13.8605L13.0985 13.7779L10.4872 9.74462ZM14.0974 17.1327C14.0974 17.8562 13.8145 18.5397 13.2988 19.0554C12.7855 19.5686 12.102 19.854 11.3785 19.854C9.87887 19.854 8.65963 18.6348 8.65963 17.1377C8.65963 16.4116 8.94253 15.7307 9.45576 15.2149C9.969 14.7017 10.6525 14.4163 11.3785 14.4163C12.8756 14.4138 14.0974 15.633 14.0974 17.1327Z" fill="#252733"/>
<path d="M6.81172 26.384C6.90685 26.4791 7.03453 26.5342 7.16722 26.5342L15.5867 26.5317C15.8571 26.5317 16.0774 26.3164 16.0874 26.0485C16.0924 25.9158 16.1726 22.7788 14.1972 20.9713C14.0195 20.8085 13.7491 20.796 13.5538 20.9412C13.4637 21.0088 11.3457 22.5811 9.33782 20.9462C9.15006 20.791 8.87716 20.796 8.6944 20.9562C8.61429 21.0263 6.71407 22.7163 6.6665 26.026C6.6665 26.1587 6.71658 26.2888 6.81172 26.384ZM9.07995 21.9977C10.85 23.1669 12.7452 22.6136 13.7917 21.9877C14.7806 23.1118 15.0134 24.7316 15.0685 25.5328H7.69047C7.84569 23.6751 8.64933 22.5034 9.07995 21.9977Z" fill="#252733"/>
<path d="M23.971 20.9412C23.8808 21.0088 21.7628 22.5811 19.755 20.9462C19.5672 20.791 19.2943 20.796 19.109 20.9562C19.0289 21.0263 17.1287 22.7163 17.0811 26.026C17.0786 26.1612 17.1312 26.2888 17.2264 26.384C17.3215 26.4791 17.4492 26.5342 17.5844 26.5342L26.0039 26.5317C26.2743 26.5317 26.4946 26.3164 26.5046 26.0485C26.5096 25.9158 26.5897 22.7788 24.6144 20.9713C24.4341 20.806 24.1637 20.7935 23.971 20.9412ZM25.4856 25.5303H18.1076C18.2603 23.6751 19.064 22.5009 19.4971 21.9952C21.2646 23.1644 23.1623 22.6111 24.2088 21.9852C25.1977 23.1093 25.4305 24.7291 25.4856 25.5303Z" fill="#252733"/>
</svg>
