<svg width="16" height="12" viewBox="0 0 16 12" fill="none" xmlns="http://www.w3.org/2000/svg">
<path d="M6.00011 10H10.0001C10.255 10.0003 10.5001 10.0979 10.6855 10.2728C10.8708 10.4478 10.9823 10.687 10.9973 10.9414C11.0122 11.1958 10.9294 11.4464 10.7658 11.6418C10.6023 11.8373 10.3702 11.9629 10.1171 11.993L10.0001 12H6.00011C5.74523 11.9997 5.50008 11.9021 5.31474 11.7272C5.12941 11.5522 5.01788 11.313 5.00294 11.0586C4.988 10.8042 5.07079 10.5536 5.23438 10.3582C5.39797 10.1627 5.63002 10.0371 5.88311 10.007L6.00011 10H10.0001H6.00011ZM4.00011 5H12.0001C12.255 5.00028 12.5001 5.09788 12.6855 5.27285C12.8708 5.44782 12.9823 5.68695 12.9973 5.94139C13.0122 6.19584 12.9294 6.44638 12.7658 6.64183C12.6023 6.83729 12.3702 6.9629 12.1171 6.993L12.0001 7H4.00011C3.74523 6.99972 3.50008 6.90212 3.31474 6.72715C3.12941 6.55218 3.01788 6.31305 3.00294 6.05861C2.988 5.80416 3.07079 5.55362 3.23438 5.35817C3.39797 5.16271 3.63002 5.0371 3.88311 5.007L4.00011 5H12.0001H4.00011ZM1.00011 0H15.0001C15.255 0.000282707 15.5001 0.0978789 15.6855 0.272848C15.8708 0.447817 15.9823 0.686953 15.9973 0.941395C16.0122 1.19584 15.9294 1.44638 15.7658 1.64183C15.6023 1.83729 15.3702 1.9629 15.1171 1.993L15.0001 2H1.00011C0.745233 1.99972 0.50008 1.90212 0.314744 1.72715C0.129408 1.55218 0.0178779 1.31305 0.00294074 1.05861C-0.0119964 0.804163 0.0707872 0.553621 0.234377 0.358168C0.397968 0.162715 0.630017 0.0371036 0.883112 0.00699997L1.00011 0H15.0001H1.00011Z" fill="black"/>
</svg>
