<svg width="27" height="27" viewBox="0 0 27 27" fill="none" xmlns="http://www.w3.org/2000/svg">
<path d="M23.9729 13.0466C23.0385 8.82263 21.6527 6.12817 19.4315 5.47157C19.0013 5.34608 18.5552 5.28348 18.1071 5.28571C16.7416 5.28571 15.664 6.09821 13.2321 6.09821C10.8002 6.09821 9.72059 5.28571 8.35712 5.28571C7.89031 5.2833 7.42543 5.34585 6.97587 5.47157C4.75165 6.12817 3.37751 8.82517 2.43247 13.0466C1.46762 17.3584 1.64231 20.7654 3.52833 21.4194C4.84864 21.8765 6.0293 20.9314 7.14751 19.5405C8.41704 17.9561 9.98059 17.4686 13.2321 17.4686C16.4836 17.4686 17.9863 17.9561 19.2578 19.5405C20.375 20.9324 21.5993 21.8658 22.8846 21.4275C24.9677 20.7161 24.9382 17.4092 23.9729 13.0466Z" stroke="white" stroke-width="1.625" stroke-miterlimit="10"/>
<path d="M15.0603 12.8013C15.6212 12.8013 16.0759 12.3466 16.0759 11.7856C16.0759 11.2247 15.6212 10.77 15.0603 10.77C14.4994 10.77 14.0447 11.2247 14.0447 11.7856C14.0447 12.3466 14.4994 12.8013 15.0603 12.8013Z" fill="white"/>
<path d="M17.2947 15.0356C17.0937 15.0356 16.8972 14.976 16.7302 14.8643C16.5631 14.7526 16.4329 14.5938 16.3561 14.4081C16.2793 14.2224 16.2594 14.018 16.2988 13.8209C16.3381 13.6239 16.4351 13.4429 16.5774 13.301C16.7197 13.159 16.9009 13.0625 17.0981 13.0236C17.2953 12.9847 17.4996 13.0052 17.6851 13.0824C17.8706 13.1597 18.0291 13.2903 18.1404 13.4576C18.2517 13.625 18.3108 13.8216 18.3103 14.0226C18.3096 14.2915 18.2023 14.5492 18.0119 14.7391C17.8215 14.929 17.5636 15.0356 17.2947 15.0356Z" fill="white"/>
<path d="M17.2947 10.5669C17.8556 10.5669 18.3103 10.1122 18.3103 9.55127C18.3103 8.99036 17.8556 8.53564 17.2947 8.53564C16.7338 8.53564 16.2791 8.99036 16.2791 9.55127C16.2791 10.1122 16.7338 10.5669 17.2947 10.5669Z" fill="white"/>
<path d="M19.5291 12.8013C20.09 12.8013 20.5447 12.3466 20.5447 11.7856C20.5447 11.2247 20.09 10.77 19.5291 10.77C18.9681 10.77 18.5134 11.2247 18.5134 11.7856C18.5134 12.3466 18.9681 12.8013 19.5291 12.8013Z" fill="white"/>
<path d="M8.35718 9.34814V14.2231" stroke="white" stroke-width="1.625" stroke-linecap="round" stroke-linejoin="round"/>
<path d="M10.7947 11.7856H5.91968" stroke="white" stroke-width="1.625" stroke-linecap="round" stroke-linejoin="round"/>
</svg>
