<svg width="32" height="32" viewBox="0 0 32 32" fill="none" xmlns="http://www.w3.org/2000/svg">
<path d="M25.9951 12.492C25.9951 10.2513 25.2114 8.06317 23.7919 6.3332C21.9393 4.07749 19.2054 2.78565 16.2912 2.78565C13.3771 2.78565 10.6432 4.07749 8.79054 6.3332C7.36851 8.06317 6.5874 10.2488 6.5874 12.492C6.5874 17.8446 10.9411 22.1983 16.2937 22.1983C21.6414 22.1958 25.9951 17.8421 25.9951 12.492ZM24.9936 12.492C24.9936 12.9376 24.9586 13.3732 24.896 13.8014C23.4665 14.7853 22.0094 15.4913 20.5348 15.9169C20.6349 15.4988 20.7075 15.0707 20.7501 14.6325C20.9429 12.6522 20.5423 10.727 19.9214 9.03206C21.0605 8.73664 22.2397 8.25345 23.4314 7.51489C24.4429 8.96947 24.9936 10.7094 24.9936 12.492ZM20.2519 14.5825C20.2018 15.0882 20.1117 15.5814 19.984 16.0621C17.5856 16.6379 15.1371 16.4852 12.6561 15.5939C12.5935 15.5714 12.5334 15.5463 12.4733 15.5238C12.4107 15.2159 12.3631 14.9029 12.3306 14.585C12.1328 12.5746 12.596 10.5943 13.2744 8.87182C14.356 9.18727 15.5952 9.41008 16.9422 9.41008C17.7358 9.41008 18.5645 9.33248 19.4182 9.14972C20.0341 10.8071 20.4371 12.6798 20.2519 14.5825ZM23.0183 6.9691C23.0559 7.01667 23.0934 7.06424 23.131 7.11181C21.9793 7.81781 20.8402 8.28098 19.7411 8.55888C18.8874 6.43335 17.7258 4.72592 17.0398 3.81962C19.3681 4.02241 21.5162 5.1415 23.0183 6.9691ZM16.2887 3.78708C16.3188 3.78708 16.3463 3.78958 16.3764 3.78958C16.9447 4.51311 18.2766 6.34071 19.2304 8.67904C17.0723 9.12218 15.082 8.87432 13.4622 8.41116C14.406 6.20301 15.6578 4.48557 16.2036 3.78958C16.2311 3.78958 16.2612 3.78708 16.2887 3.78708ZM15.5402 3.82213C14.8892 4.68336 13.8052 6.27311 12.9665 8.25594C11.4644 7.76524 10.3327 7.11682 9.75691 6.74379C11.2465 5.05138 13.3095 4.0124 15.5402 3.82213ZM7.58632 12.492C7.58632 10.5517 8.24226 8.65902 9.43396 7.13435C10.0198 7.51489 11.199 8.20086 12.7787 8.7216C12.0902 10.4891 11.6246 12.5295 11.8299 14.6325C11.8524 14.8604 11.885 15.0857 11.9225 15.3085C9.77194 14.4047 8.22474 13.173 7.58883 12.6147C7.58883 12.5721 7.58632 12.532 7.58632 12.492ZM7.62388 13.3031C8.46007 13.9891 9.99226 15.0882 12.0402 15.8943C12.4983 17.8496 13.5623 19.6021 15.2247 21.1268C11.1915 20.6336 8.00442 17.3714 7.62388 13.3031ZM16.2887 21.1944C16.2111 21.1944 16.136 21.1919 16.0584 21.1894C14.2884 19.7173 13.1342 18.0148 12.6085 16.1071C13.8653 16.5453 15.3849 16.8858 17.0924 16.8858C17.9561 16.8858 18.8699 16.7956 19.8188 16.5928C19.2404 18.3053 18.1364 19.845 16.5166 21.1894C16.4439 21.1919 16.3663 21.1944 16.2887 21.1944ZM17.3527 21.1293C18.8549 19.7523 19.8688 18.1876 20.3871 16.4576C21.7816 16.0921 23.2486 15.4687 24.7583 14.4948C23.9296 17.9948 20.9854 20.6837 17.3527 21.1293Z" fill="#252733"/>
<path d="M14.4149 25.7348H11.5308C10.3791 25.7348 9.44281 26.6711 9.44281 27.8227C9.44281 28.9744 10.3791 29.9107 11.5308 29.9107H21.0544C22.206 29.9107 23.1423 28.9744 23.1423 27.8227C23.1423 26.6711 22.206 25.7348 21.0544 25.7348H18.1702V25.2541C18.1702 24.9812 18.1102 24.7233 18.005 24.488C19.1066 24.3353 20.2482 24.0524 21.4224 23.6443C21.7478 23.5316 21.9206 23.1736 21.8079 22.8481C21.6928 22.5227 21.3373 22.3499 21.0118 22.4626C18.9238 23.1886 16.9635 23.484 15.186 23.3388C9.81834 22.9007 5.26935 17.7759 5.25183 12.1479C5.24932 11.2266 5.34947 10.3428 5.54725 9.52164C5.87772 8.1597 6.51112 6.87286 7.38237 5.79883C8.3187 4.64719 9.48787 3.72337 10.6771 3.20012C10.9925 3.05993 11.1352 2.6919 10.9975 2.37395C10.8573 2.0585 10.4893 1.9133 10.1713 2.0535C8.78437 2.66437 7.48501 3.68583 6.41098 5.00771C5.42207 6.22444 4.70355 7.68152 4.33051 9.22622C4.1077 10.145 3.99754 11.1289 4.00004 12.1504C4.01757 18.2215 8.80189 23.7644 14.5626 24.5305C14.47 24.7534 14.4174 24.9987 14.4174 25.2541V25.7348H14.4149ZM14.9156 26.7362C15.191 26.7362 15.4163 26.5134 15.4163 26.2355V25.2541C15.4163 25.0037 15.524 24.7784 15.6942 24.6182C15.8219 24.6232 15.9471 24.6257 16.0748 24.6257C16.3351 24.6257 16.598 24.6157 16.8634 24.5981C17.0461 24.7584 17.1638 24.9912 17.1638 25.2541V26.2355C17.1638 26.5134 17.3891 26.7362 17.6645 26.7362H21.0493C21.6477 26.7362 22.1359 27.2244 22.1359 27.8227C22.1359 28.4211 21.6477 28.9093 21.0493 28.9093H11.5258C10.9274 28.9093 10.4392 28.4211 10.4392 27.8227C10.4392 27.2244 10.9274 26.7362 11.5258 26.7362H14.9156Z" fill="#252733"/>
</svg>
