<svg width="24" height="20" viewBox="0 0 24 20" fill="none" xmlns="http://www.w3.org/2000/svg">
<path d="M1.69834 11.0026C1.77531 10.9937 1.83155 10.9256 1.82563 10.8486C1.79899 10.5733 1.78715 10.2951 1.78419 10.0197C1.78419 9.94278 1.72202 9.87766 1.64209 9.87766C1.56513 9.87766 1.5 9.93982 1.5 10.0197C1.5 10.3039 1.5148 10.5911 1.54144 10.8753C1.54737 10.9493 1.60953 11.0026 1.68058 11.0026C1.68946 11.0026 1.69538 11.0026 1.69834 11.0026Z" fill="#B4B4B4"/>
<path d="M4.59245 3.40041C4.62797 3.40041 4.66349 3.38857 4.69014 3.36193C4.83519 3.22575 4.98617 3.09254 5.13715 2.96524C5.14603 2.98005 5.15787 2.99485 5.17267 3.00669C5.39469 3.18431 5.6256 3.35305 5.86243 3.50994C5.88611 3.52475 5.91275 3.53363 5.94236 3.53363C5.98676 3.53363 6.03116 3.51291 6.06077 3.47146C6.10517 3.40634 6.08741 3.31752 6.02229 3.27608C5.79138 3.12214 5.56639 2.95636 5.35029 2.78466C5.34733 2.78466 5.34733 2.78467 5.34437 2.78171C5.37693 2.73138 5.37693 2.66625 5.33845 2.61593C5.28812 2.55376 5.19932 2.54488 5.14011 2.5952C4.91808 2.77282 4.70198 2.96228 4.49771 3.15766C4.44147 3.21095 4.43851 3.29976 4.4918 3.35601C4.51548 3.38561 4.55396 3.40041 4.59245 3.40041Z" fill="#B4B4B4"/>
<path d="M1.94995 7.66041C1.96179 7.66337 1.9766 7.66633 1.98844 7.66633C2.05061 7.66633 2.10685 7.62489 2.12462 7.56272C2.19862 7.29925 2.28743 7.03282 2.38809 6.77527C2.41769 6.70126 2.3792 6.62133 2.30816 6.59173C2.23711 6.56509 2.15422 6.60061 2.12462 6.67166C2.021 6.93809 1.92924 7.21044 1.85227 7.48279C1.83154 7.55976 1.87595 7.63969 1.94995 7.66041Z" fill="#B4B4B4"/>
<path d="M3.47442 4.65891C3.51883 4.65891 3.56027 4.63818 3.58692 4.60266C3.74974 4.38064 3.92735 4.16453 4.11089 3.95731C4.16122 3.8981 4.15826 3.8093 4.09905 3.75897C4.03985 3.70568 3.95104 3.7116 3.90071 3.77081C3.71125 3.98395 3.53067 4.20598 3.36193 4.43392C3.31456 4.49609 3.32937 4.5849 3.39153 4.63227C3.41818 4.65003 3.44778 4.65891 3.47442 4.65891Z" fill="#B4B4B4"/>
<path d="M2.53299 6.08009C2.55371 6.08898 2.57443 6.0949 2.59516 6.0949C2.64844 6.0949 2.6958 6.06529 2.72245 6.01793C2.84382 5.77222 2.98 5.52651 3.12505 5.29265C3.1665 5.22752 3.14578 5.13871 3.07769 5.09726C3.01256 5.05582 2.92375 5.07654 2.88231 5.14463C2.73429 5.38738 2.59219 5.639 2.46786 5.89359C2.4353 5.96168 2.46194 6.04457 2.53299 6.08009Z" fill="#B4B4B4"/>
<path d="M1.66845 9.32126C1.67141 9.32126 1.67734 9.32126 1.6803 9.32126C1.75134 9.32126 1.81351 9.26502 1.81943 9.19397C1.84311 8.91866 1.8816 8.64335 1.93192 8.371C1.94672 8.29403 1.8964 8.22002 1.81943 8.20522C1.74246 8.19042 1.66845 8.24074 1.65365 8.31771C1.60332 8.59598 1.56188 8.88018 1.5382 9.16437C1.53524 9.2443 1.59148 9.31238 1.66845 9.32126Z" fill="#B4B4B4"/>
<path d="M3.14598 14.7416C3.10454 14.6764 3.01869 14.6557 2.9506 14.6972C2.88547 14.7386 2.86475 14.8244 2.9062 14.8925C3.05718 15.1323 3.21703 15.3721 3.38873 15.6001C3.41537 15.6356 3.45978 15.6563 3.50122 15.6563C3.53083 15.6563 3.56043 15.6474 3.58707 15.6267C3.64924 15.5793 3.66108 15.4905 3.61668 15.4284C3.44794 15.2063 3.29104 14.9754 3.14598 14.7416Z" fill="#B4B4B4"/>
<path d="M4.72077 16.6659C4.51946 16.4765 4.32409 16.2752 4.14055 16.0709C4.08726 16.0117 3.99845 16.0087 3.9422 16.0591C3.883 16.1123 3.88003 16.2012 3.93036 16.2574C4.11982 16.4676 4.32113 16.6748 4.52539 16.8702C4.55203 16.8968 4.58756 16.9087 4.62308 16.9087C4.66156 16.9087 4.69709 16.8939 4.72669 16.8643C4.77997 16.811 4.77701 16.7192 4.72077 16.6659Z" fill="#B4B4B4"/>
<path d="M2.40281 13.2613C2.37321 13.1873 2.29327 13.1518 2.21927 13.1814C2.14526 13.211 2.10973 13.2909 2.13933 13.3649C2.24295 13.6284 2.36136 13.8919 2.48866 14.1465C2.51234 14.1968 2.56266 14.2234 2.61595 14.2234C2.63667 14.2234 2.66035 14.2175 2.67812 14.2086C2.74916 14.1731 2.77581 14.0873 2.74029 14.0192C2.61595 13.7705 2.50346 13.5159 2.40281 13.2613Z" fill="#B4B4B4"/>
<path d="M2.13636 12.4774C2.05939 12.2139 1.99427 11.9416 1.94394 11.6722C1.92914 11.5952 1.85513 11.5449 1.77816 11.5597C1.70119 11.5745 1.65087 11.6485 1.66567 11.7255C1.71895 12.0037 1.78704 12.285 1.86401 12.5573C1.88177 12.6195 1.93802 12.658 2.00019 12.658C2.01203 12.658 2.02683 12.655 2.03867 12.652C2.11564 12.6284 2.15708 12.5514 2.13636 12.4774Z" fill="#B4B4B4"/>
<path d="M8.95081 0.935067C8.96265 0.935067 8.97746 0.932105 8.9893 0.929145C9.25573 0.855137 9.52808 0.790011 9.79747 0.736726C9.87443 0.721924 9.92476 0.647916 9.90996 0.570948C9.89515 0.493979 9.82115 0.443652 9.74418 0.458454C9.46591 0.5147 9.18764 0.579827 8.91529 0.656795C8.84128 0.677518 8.79688 0.754485 8.8176 0.831454C8.8324 0.896581 8.88865 0.935067 8.95081 0.935067Z" fill="#B4B4B4"/>
<path d="M5.90461 2.34344C5.93125 2.34344 5.9579 2.33457 5.98454 2.31976C6.21249 2.16583 6.45227 2.01781 6.69206 1.88163C6.76015 1.84315 6.78383 1.7573 6.74535 1.68921C6.70686 1.62113 6.62101 1.59744 6.55292 1.63592C6.30722 1.77506 6.06151 1.92604 5.82764 2.0859C5.76252 2.1303 5.74475 2.21615 5.78916 2.28128C5.81284 2.32272 5.85725 2.34344 5.90461 2.34344Z" fill="#B4B4B4"/>
<path d="M13.9339 0.724612C14.2063 0.777898 14.4786 0.840064 14.745 0.914072C14.7569 0.917033 14.7687 0.91999 14.7835 0.91999C14.8457 0.91999 14.9019 0.878548 14.9197 0.816381C14.9404 0.742373 14.896 0.662441 14.822 0.641718C14.5497 0.56771 14.2684 0.502585 13.9902 0.449299C13.9132 0.434497 13.8392 0.484824 13.8244 0.561793C13.8066 0.635801 13.8569 0.70981 13.9339 0.724612Z" fill="#B4B4B4"/>
<path d="M12.2816 0.540813C12.3822 0.543773 12.4858 0.549693 12.5865 0.558574C12.6072 0.585217 12.6368 0.60594 12.6723 0.614821C12.9299 0.668107 13.1874 0.748035 13.439 0.854607C13.4568 0.863488 13.4746 0.866451 13.4953 0.866451C13.5515 0.866451 13.6019 0.833885 13.6255 0.780599C13.6552 0.709551 13.6226 0.626665 13.5515 0.594101C13.4568 0.555617 13.3621 0.523051 13.2673 0.490488C13.2673 0.487527 13.2703 0.484569 13.2703 0.478648C13.2792 0.40168 13.2229 0.330632 13.146 0.321751C12.8647 0.289188 12.5776 0.268464 12.2934 0.259583C12.2194 0.265503 12.1513 0.318791 12.1483 0.39576C12.1424 0.472728 12.2046 0.537852 12.2816 0.540813Z" fill="#B4B4B4"/>
<path d="M15.5341 1.16464C15.7946 1.25937 16.0521 1.36298 16.3038 1.47843C16.3215 1.48731 16.3423 1.49028 16.363 1.49028C16.4163 1.49028 16.4696 1.46067 16.4932 1.40739C16.5258 1.33634 16.4932 1.25345 16.4222 1.22088C16.1646 1.10247 15.8982 0.995901 15.6318 0.89821C15.5578 0.874528 15.4778 0.91005 15.4512 0.984058C15.4246 1.05511 15.4601 1.138 15.5341 1.16464Z" fill="#B4B4B4"/>
<path d="M21.8463 8.30874C21.8996 8.58109 21.9381 8.8564 21.9647 9.12875C21.9707 9.20276 22.0328 9.25605 22.1039 9.25605C22.1098 9.25605 22.1128 9.25605 22.1187 9.25605C22.1957 9.24716 22.2519 9.17908 22.246 9.10211C22.2193 8.82088 22.1779 8.53372 22.1246 8.25545C22.1098 8.17848 22.0358 8.12816 21.9588 8.14296C21.8819 8.15777 21.8315 8.23177 21.8463 8.30874Z" fill="#B4B4B4"/>
<path d="M10.6035 0.608984C10.6094 0.608984 10.6153 0.608984 10.6212 0.608984C10.7278 0.597143 10.8373 0.585306 10.9439 0.576425C10.9706 0.606028 11.0061 0.623786 11.0475 0.623786C11.0564 0.623786 11.0682 0.623788 11.0771 0.620828C11.3406 0.564582 11.607 0.534977 11.8734 0.532017C11.9504 0.532017 12.0155 0.466891 12.0126 0.389923C12.0126 0.312954 11.9445 0.244866 11.8705 0.250787C11.7461 0.250787 11.6189 0.259665 11.4945 0.271507C11.4768 0.262626 11.456 0.259667 11.4353 0.259667C11.1511 0.271509 10.8669 0.29519 10.5857 0.327754C10.5087 0.336635 10.4525 0.407682 10.4614 0.484651C10.4732 0.555699 10.5324 0.608984 10.6035 0.608984Z" fill="#B4B4B4"/>
<path d="M7.37001 1.51781C7.39073 1.51781 7.41145 1.51485 7.42922 1.50597C7.68084 1.39052 7.93839 1.28394 8.19594 1.18921C8.26995 1.16257 8.30547 1.07968 8.27883 1.00863C8.25218 0.934624 8.17226 0.899101 8.09825 0.925744C7.83182 1.02343 7.56539 1.13297 7.30784 1.25138C7.23679 1.28395 7.20719 1.36683 7.23975 1.43788C7.2664 1.4882 7.31672 1.51781 7.37001 1.51781Z" fill="#B4B4B4"/>
<path d="M5.34811 17.2101C5.28594 17.1598 5.19714 17.1716 5.14977 17.2338C5.1024 17.296 5.11128 17.3848 5.17345 17.4322C5.39547 17.6098 5.62638 17.7785 5.86321 17.9354C5.88689 17.9502 5.91353 17.9591 5.94314 17.9591C5.98754 17.9591 6.03194 17.9384 6.06155 17.8969C6.10595 17.8318 6.08819 17.743 6.02307 17.7015C5.7892 17.5476 5.56422 17.3818 5.34811 17.2101Z" fill="#B4B4B4"/>
<path d="M21.6539 7.50347C21.6716 7.56564 21.7279 7.60412 21.79 7.60412C21.8019 7.60412 21.8167 7.60116 21.8285 7.5982C21.9025 7.57748 21.9469 7.49755 21.9233 7.42354C21.8433 7.15119 21.7516 6.87884 21.645 6.61537C21.6154 6.54433 21.5355 6.50584 21.4615 6.53544C21.3874 6.56505 21.3519 6.64498 21.3815 6.71899C21.4851 6.97358 21.5769 7.23704 21.6539 7.50347Z" fill="#B4B4B4"/>
<path d="M21.5835 13.1609C21.5095 13.1313 21.4296 13.1698 21.4 13.2408C21.2993 13.4954 21.1868 13.7529 21.0625 13.9986C21.027 14.0697 21.0566 14.1526 21.1247 14.1881C21.1454 14.197 21.1661 14.2029 21.1868 14.2029C21.2401 14.2029 21.2875 14.1733 21.3141 14.1259C21.4414 13.8714 21.5598 13.6079 21.6605 13.3444C21.693 13.2734 21.6545 13.1905 21.5835 13.1609Z" fill="#B4B4B4"/>
<path d="M21.0447 5.96089C21.0684 6.01122 21.1187 6.03786 21.172 6.03786C21.1927 6.03786 21.2164 6.03194 21.2342 6.02306C21.3022 5.98754 21.3319 5.90169 21.2963 5.8336C21.169 5.57901 21.0269 5.33034 20.876 5.08759C20.8345 5.02247 20.7487 5.00175 20.6806 5.04319C20.6155 5.08464 20.5947 5.17049 20.6362 5.23857C20.7842 5.47244 20.9204 5.71518 21.0447 5.96089Z" fill="#B4B4B4"/>
<path d="M19.6678 16.0562C19.4842 16.2605 19.2918 16.4618 19.0905 16.6513C19.0342 16.7046 19.0313 16.7934 19.0846 16.8496C19.1112 16.8792 19.1497 16.894 19.1882 16.894C19.2237 16.894 19.2592 16.8822 19.2859 16.8555C19.4931 16.6602 19.6944 16.4529 19.8809 16.2427C19.9342 16.1835 19.9283 16.0947 19.8691 16.0444C19.8098 15.9941 19.721 15.997 19.6678 16.0562Z" fill="#B4B4B4"/>
<path d="M20.1678 4.55277C20.1944 4.5883 20.2388 4.60902 20.2803 4.60902C20.3099 4.60902 20.3395 4.60014 20.3661 4.57941C20.4283 4.53205 20.4401 4.44324 20.3928 4.38107C20.2211 4.15313 20.0405 3.9311 19.8481 3.72092C19.7948 3.66171 19.706 3.65875 19.6497 3.70908C19.5905 3.76236 19.5876 3.85118 19.6379 3.90742C19.8244 4.11761 20.002 4.33371 20.1678 4.55277Z" fill="#B4B4B4"/>
<path d="M15.5768 18.8183C15.3192 18.913 15.0528 18.9988 14.7864 19.0728C14.7124 19.0936 14.668 19.1705 14.6887 19.2475C14.7065 19.3097 14.7627 19.3511 14.8249 19.3511C14.8367 19.3511 14.8515 19.3482 14.8634 19.3452C15.1387 19.2682 15.411 19.1824 15.6774 19.0847C15.7514 19.058 15.787 18.9781 15.7603 18.9041C15.7307 18.8301 15.6508 18.7916 15.5768 18.8183Z" fill="#B4B4B4"/>
<path d="M18.4423 2.78525C18.2321 2.95102 18.016 3.11088 17.794 3.26186C17.7288 3.30626 17.7111 3.39211 17.7555 3.45724C17.7821 3.49869 17.8265 3.51941 17.8739 3.51941C17.9005 3.51941 17.9272 3.51052 17.9538 3.49572C18.1906 3.33882 18.4215 3.16713 18.6436 2.98951C18.6524 2.98359 18.6584 2.97471 18.6643 2.96583C18.8005 3.08128 18.9337 3.19673 19.0639 3.31811C19.0906 3.34475 19.1261 3.35659 19.1616 3.35659C19.2001 3.35659 19.2356 3.34179 19.2652 3.31218C19.3185 3.25594 19.3156 3.16713 19.2593 3.11384C19.0521 2.92142 18.836 2.73196 18.611 2.55434C18.5488 2.50697 18.46 2.51586 18.4127 2.57802C18.3653 2.64019 18.3742 2.729 18.4363 2.77636C18.4363 2.77932 18.4393 2.78228 18.4423 2.78525Z" fill="#B4B4B4"/>
<path d="M17.086 18.1254C16.8462 18.2586 16.5976 18.3859 16.3459 18.5043C16.2749 18.5369 16.2453 18.6198 16.2778 18.6908C16.3015 18.7441 16.3518 18.7737 16.4051 18.7737C16.4259 18.7737 16.4436 18.7707 16.4643 18.7619C16.7249 18.6434 16.9794 18.5132 17.2251 18.3741C17.2932 18.3356 17.3169 18.2497 17.2784 18.1816C17.2399 18.1106 17.1541 18.0869 17.086 18.1254Z" fill="#B4B4B4"/>
<path d="M17.0478 1.85272C17.2875 1.98594 17.5273 2.13099 17.7582 2.28493C17.7819 2.29973 17.8086 2.30861 17.8352 2.30861C17.8796 2.30861 17.927 2.28789 17.9536 2.24645C17.998 2.18132 17.9803 2.09251 17.9151 2.05107C17.6783 1.89417 17.4326 1.74319 17.1839 1.60702C17.1158 1.56853 17.03 1.59518 16.9915 1.66326C16.956 1.72839 16.9797 1.81424 17.0478 1.85272Z" fill="#B4B4B4"/>
<path d="M18.463 17.199C18.2469 17.3707 18.0219 17.5365 17.794 17.6904C17.7288 17.7348 17.7111 17.8207 17.7555 17.8858C17.7821 17.9272 17.8265 17.948 17.8739 17.948C17.9005 17.948 17.9272 17.9391 17.9538 17.9243C18.1906 17.7644 18.4215 17.5957 18.6436 17.4181C18.7057 17.3677 18.7146 17.2789 18.6643 17.2197C18.614 17.1605 18.5252 17.1487 18.463 17.199Z" fill="#B4B4B4"/>
<path d="M22.0202 11.5359C21.9432 11.5211 21.8692 11.5714 21.8544 11.6484C21.8041 11.9178 21.739 12.1901 21.665 12.4565C21.6443 12.5306 21.6857 12.6105 21.7627 12.6312C21.7745 12.6342 21.7893 12.6371 21.8012 12.6371C21.8633 12.6371 21.9196 12.5957 21.9373 12.5335C22.0143 12.2612 22.0824 11.9799 22.1357 11.7017C22.1475 11.6247 22.0972 11.5507 22.0202 11.5359Z" fill="#B4B4B4"/>
<path d="M7.47099 18.5128C7.21936 18.3973 6.96773 18.2701 6.72794 18.1368C6.65985 18.0984 6.57401 18.122 6.53552 18.1901C6.49704 18.2582 6.52072 18.3441 6.58881 18.3825C6.83452 18.5187 7.09206 18.649 7.34961 18.7674C7.36737 18.7763 7.3881 18.7792 7.40882 18.7792C7.4621 18.7792 7.51243 18.7496 7.53611 18.6963C7.57164 18.6283 7.54203 18.5454 7.47099 18.5128Z" fill="#B4B4B4"/>
<path d="M22.2914 9.95749C22.2914 9.88053 22.2292 9.8154 22.1493 9.8154C22.0693 9.8154 22.0072 9.87756 22.0072 9.95749V9.99894C22.0072 10.2742 21.9953 10.5525 21.9687 10.8278C21.9628 10.9048 22.019 10.9729 22.096 10.9818C22.1019 10.9818 22.1049 10.9818 22.1078 10.9818C22.1789 10.9818 22.241 10.9255 22.2499 10.8545C22.2766 10.5732 22.2884 10.2831 22.2884 9.99894L22.2914 9.95749Z" fill="#B4B4B4"/>
<path d="M9.03074 19.0787C8.76431 19.0047 8.49788 18.9188 8.23737 18.8271C8.16336 18.8004 8.08343 18.8389 8.05679 18.9129C8.03014 18.9869 8.06863 19.0668 8.14264 19.0935C8.40907 19.1912 8.68142 19.277 8.95673 19.354C8.96857 19.3569 8.98337 19.3599 8.99521 19.3599C9.05738 19.3599 9.11363 19.3185 9.13139 19.2563C9.15211 19.1793 9.10771 19.0994 9.03074 19.0787Z" fill="#B4B4B4"/>
<path d="M20.8546 14.6802C20.7865 14.6387 20.7007 14.6595 20.6592 14.7275C20.5142 14.9614 20.3573 15.1923 20.1915 15.4143C20.1442 15.4765 20.159 15.5653 20.2211 15.6127C20.2478 15.6304 20.2774 15.6423 20.304 15.6423C20.3484 15.6423 20.3899 15.6216 20.4165 15.586C20.5882 15.3581 20.7481 15.1183 20.8961 14.8785C20.9405 14.8075 20.9198 14.7216 20.8546 14.6802Z" fill="#B4B4B4"/>
<path d="M7.0063 4.2183C6.93525 4.18574 6.85237 4.21534 6.8198 4.28639C6.70435 4.53802 6.59185 4.79852 6.49416 5.06495C6.46752 5.13896 6.50304 5.21889 6.57705 5.2485C6.59481 5.25442 6.60962 5.25738 6.62738 5.25738C6.68362 5.25738 6.73691 5.22185 6.76059 5.16561C6.85828 4.90806 6.96485 4.65051 7.08031 4.40776C7.10695 4.33375 7.07735 4.25086 7.0063 4.2183Z" fill="#B4B4B4"/>
<path d="M18.1409 10.8399C18.1528 10.609 18.1587 10.3752 18.1587 10.1413H18.2564C18.3333 10.1413 18.3985 10.0791 18.3985 9.99921C18.3985 9.92224 18.3363 9.85712 18.2564 9.85712H18.1054C18.0817 9.83936 18.0521 9.82455 18.0195 9.82455C17.987 9.82455 17.9574 9.8364 17.9337 9.85712H17.4067C17.3298 9.85712 17.2646 9.91928 17.2646 9.99921C17.2646 10.0762 17.3268 10.1413 17.4067 10.1413H17.8745C17.8715 10.3693 17.8686 10.6002 17.8567 10.8251C17.8538 10.9021 17.913 10.9702 17.9899 10.9732C17.9929 10.9732 17.9959 10.9732 17.9988 10.9732C18.0758 10.9732 18.138 10.9169 18.1409 10.8399Z" fill="#B4B4B4"/>
<path d="M14.9134 18.5009C14.946 18.5009 14.9815 18.4891 15.0081 18.4654C15.2124 18.2818 15.4137 18.0805 15.6061 17.8615C15.6564 17.8023 15.6505 17.7135 15.5913 17.6631C15.5321 17.6128 15.4433 17.6187 15.393 17.675C15.2094 17.8852 15.017 18.0805 14.8187 18.2552C14.7595 18.3085 14.7565 18.3973 14.8068 18.4535C14.8364 18.4861 14.8749 18.5009 14.9134 18.5009Z" fill="#B4B4B4"/>
<path d="M17.2879 5.01727C17.2613 4.94326 17.1784 4.90774 17.1044 4.93734C17.0304 4.96398 16.9949 5.04687 17.0215 5.12088C17.1192 5.37251 17.208 5.63598 17.2879 5.89945C17.3057 5.96161 17.3619 6.0001 17.4241 6.0001C17.4389 6.0001 17.4508 5.99713 17.4656 5.99417C17.5396 5.97049 17.581 5.89353 17.5603 5.81656C17.4774 5.54421 17.3856 5.27778 17.2879 5.01727Z" fill="#B4B4B4"/>
<path d="M16.3726 3.43938C16.3045 3.47787 16.2808 3.56372 16.3193 3.6318C16.3844 3.74726 16.4495 3.86567 16.5147 3.98704C16.4584 4.01369 16.4022 4.04625 16.3459 4.07289C16.2749 4.10546 16.2453 4.18834 16.2778 4.25939C16.3015 4.31268 16.3518 4.34228 16.4051 4.34228C16.4259 4.34228 16.4436 4.33932 16.4643 4.33044C16.5235 4.3038 16.5828 4.27124 16.642 4.24459C16.6597 4.28308 16.6804 4.32156 16.7012 4.36301C16.7248 4.41333 16.7752 4.44294 16.8285 4.44294C16.8492 4.44294 16.8699 4.43997 16.8877 4.42813C16.9587 4.39557 16.9883 4.30972 16.9558 4.24163C16.935 4.20019 16.9143 4.1617 16.8965 4.12026C17.009 4.06401 17.1186 4.0048 17.2251 3.9456C17.2932 3.90711 17.3169 3.82127 17.2784 3.75318C17.2399 3.68509 17.1541 3.66141 17.086 3.69989C16.9824 3.75614 16.8729 3.80646 16.7663 3.86271C16.7012 3.73838 16.6331 3.61404 16.565 3.49563C16.5265 3.42458 16.4407 3.4009 16.3726 3.43938Z" fill="#B4B4B4"/>
<path d="M5.86654 11.8192C5.87246 11.8192 5.87838 11.8192 5.88134 11.8192C5.95831 11.8103 6.01456 11.7393 6.00568 11.6623C5.97607 11.3929 5.95239 11.1146 5.93759 10.8393C5.93463 10.7624 5.86358 10.6972 5.78957 10.7061C5.7126 10.7091 5.6534 10.7772 5.65636 10.8541C5.67116 11.1354 5.69484 11.4166 5.72741 11.6919C5.73333 11.7659 5.79549 11.8192 5.86654 11.8192Z" fill="#B4B4B4"/>
<path d="M5.84001 7.5006C5.79264 7.77591 5.75416 8.05418 5.72456 8.33541C5.71567 8.41238 5.77192 8.48343 5.84889 8.49231C5.85481 8.49231 5.86073 8.49231 5.86369 8.49231C5.93474 8.49231 5.99691 8.43902 6.00283 8.36501C6.03243 8.09266 6.07092 7.81735 6.11532 7.54796C6.12716 7.47099 6.07684 7.39699 5.99987 7.38515C5.9229 7.37331 5.85185 7.42363 5.84001 7.5006Z" fill="#B4B4B4"/>
<path d="M5.65254 9.173C5.6407 9.39799 5.63774 9.62889 5.63478 9.85684H5.54004C5.46308 9.85684 5.39795 9.919 5.39795 9.99893C5.39795 10.0759 5.46011 10.141 5.54004 10.141H5.72655C5.74135 10.144 5.75615 10.1499 5.77095 10.1499C5.78279 10.1499 5.79463 10.144 5.80648 10.141H6.3867C6.46367 10.141 6.52879 10.0789 6.52879 9.99893C6.52879 9.92196 6.46663 9.85684 6.3867 9.85684H5.91601C5.91897 9.63185 5.92193 9.40687 5.93377 9.18781C5.93673 9.11084 5.87752 9.04275 5.80055 9.03979C5.72655 9.03387 5.65846 9.09603 5.65254 9.173Z" fill="#B4B4B4"/>
<path d="M6.50229 14.9669C6.52301 15.0231 6.57629 15.0586 6.6355 15.0586C6.65326 15.0586 6.66806 15.0557 6.68582 15.0497C6.75983 15.0231 6.79536 14.9402 6.76872 14.8662C6.67399 14.6146 6.58221 14.3541 6.50229 14.0876C6.4786 14.0136 6.40164 13.9692 6.32467 13.9929C6.25066 14.0166 6.20921 14.0936 6.22994 14.1705C6.31282 14.4399 6.40459 14.7093 6.50229 14.9669Z" fill="#B4B4B4"/>
<path d="M17.791 11.6486C17.7614 11.9239 17.7229 12.1992 17.6756 12.4656C17.6637 12.5426 17.714 12.6166 17.791 12.6284C17.7999 12.6284 17.8058 12.6314 17.8147 12.6314C17.8828 12.6314 17.942 12.584 17.9538 12.513C18.0012 12.2406 18.0397 11.9594 18.0722 11.6782C18.0811 11.6012 18.0249 11.5302 17.9479 11.5213C17.8709 11.5154 17.7999 11.5716 17.791 11.6486Z" fill="#B4B4B4"/>
<path d="M17.6108 6.52327C17.5338 6.54103 17.4865 6.618 17.5042 6.692C17.5664 6.95843 17.6226 7.23079 17.67 7.50018C17.6818 7.56827 17.741 7.61859 17.8091 7.61859C17.818 7.61859 17.8239 7.61859 17.8328 7.61563C17.9098 7.60379 17.9601 7.52978 17.9483 7.45281C17.9009 7.1775 17.8447 6.89923 17.7795 6.62688C17.7618 6.55287 17.6848 6.50551 17.6108 6.52327Z" fill="#B4B4B4"/>
<path d="M6.14137 6.84949C6.20649 6.84949 6.26274 6.80509 6.27754 6.73996C6.33971 6.47057 6.41076 6.20118 6.49069 5.94363C6.51437 5.86962 6.46996 5.78969 6.39595 5.76897C6.32195 5.74529 6.24202 5.78969 6.2213 5.8637C6.14137 6.12717 6.06736 6.40248 6.00519 6.67779C5.98743 6.75476 6.0348 6.82877 6.11177 6.84653C6.12065 6.84949 6.12952 6.84949 6.14137 6.84949Z" fill="#B4B4B4"/>
<path d="M6.14743 13.4627C6.15927 13.4627 6.16815 13.4627 6.17999 13.4597C6.25696 13.442 6.30433 13.365 6.28656 13.291C6.2244 13.0275 6.16815 12.7552 6.12375 12.4828C6.1119 12.4059 6.03789 12.3555 5.96093 12.3674C5.88396 12.3792 5.83363 12.4532 5.84547 12.5302C5.89284 12.8085 5.94909 13.0867 6.01421 13.3561C6.02606 13.4183 6.08526 13.4627 6.14743 13.4627Z" fill="#B4B4B4"/>
<path d="M17.7876 8.32124C17.8172 8.59063 17.8409 8.86594 17.8586 9.14421C17.8616 9.21822 17.9238 9.27743 18.0007 9.27743C18.0037 9.27743 18.0066 9.27743 18.0096 9.27743C18.0866 9.27447 18.1458 9.20638 18.1428 9.12941C18.128 8.84818 18.1014 8.56695 18.0718 8.29164C18.0629 8.21467 17.9948 8.15842 17.9149 8.1673C17.832 8.17323 17.7787 8.24131 17.7876 8.32124Z" fill="#B4B4B4"/>
<path d="M14.1112 1.03542C14.0697 1.10055 14.0875 1.18936 14.1526 1.23081C14.3717 1.3729 14.5907 1.53868 14.798 1.72222C14.8246 1.74591 14.8572 1.75775 14.8927 1.75775C14.9312 1.75775 14.9697 1.74294 14.9993 1.71038C15.0496 1.65117 15.0466 1.56236 14.9874 1.51204C14.7684 1.31962 14.5404 1.14496 14.3065 0.996943C14.2385 0.949578 14.1526 0.970297 14.1112 1.03542Z" fill="#B4B4B4"/>
<path d="M12.7026 19.3798C12.4391 19.436 12.1727 19.4656 11.9063 19.4656C11.7701 19.4656 11.6309 19.4627 11.4948 19.4597C11.4208 19.4567 11.3527 19.5189 11.3497 19.5959C11.3468 19.6729 11.4089 19.738 11.4859 19.7409C11.6221 19.7469 11.7612 19.7498 11.9003 19.7498C12.0483 19.7498 12.1934 19.7469 12.3385 19.7409C12.3651 19.7409 12.3917 19.7291 12.4125 19.7143C12.5309 19.6995 12.6493 19.6817 12.7647 19.658C12.8417 19.6403 12.8891 19.5663 12.8743 19.4893C12.8536 19.4123 12.7766 19.365 12.7026 19.3798Z" fill="#B4B4B4"/>
<path d="M9.40961 1.21575C9.43625 1.25719 9.48066 1.27791 9.52802 1.27791C9.55467 1.27791 9.58131 1.26903 9.60499 1.25423C9.8359 1.10325 10.0727 0.972999 10.3155 0.869388C10.3865 0.836824 10.4191 0.753934 10.3895 0.682886C10.3599 0.611838 10.274 0.579274 10.203 0.608878C9.94839 0.71841 9.6938 0.857547 9.45106 1.0174C9.38297 1.06477 9.36521 1.15062 9.40961 1.21575Z" fill="#B4B4B4"/>
<path d="M14.1764 18.7497C13.9455 18.9007 13.7057 19.0309 13.4659 19.1346C13.3949 19.1642 13.3623 19.25 13.3919 19.3211C13.3978 19.3359 13.4126 19.3447 13.4215 19.3566C13.3327 19.3684 13.2409 19.3832 13.1521 19.3921C13.0751 19.401 13.0189 19.472 13.0278 19.549C13.0367 19.6201 13.0959 19.6733 13.1669 19.6733C13.1728 19.6733 13.1788 19.6733 13.1847 19.6733C13.4659 19.6408 13.7501 19.5964 14.0284 19.5431C14.1053 19.5283 14.1557 19.4543 14.1409 19.3773C14.1261 19.3003 14.0521 19.25 13.9751 19.2648C13.907 19.2767 13.8389 19.2885 13.7708 19.3003C13.9603 19.2086 14.1497 19.105 14.3303 18.9865C14.3954 18.9451 14.4132 18.8563 14.3718 18.7912C14.3303 18.726 14.2415 18.7083 14.1764 18.7497Z" fill="#B4B4B4"/>
<path d="M8.30528 17.9212C8.33784 17.9212 8.37041 17.9094 8.40001 17.8857C8.45922 17.8354 8.46514 17.7436 8.41185 17.6874C8.23719 17.489 8.06845 17.2729 7.90564 17.045C7.86123 16.9798 7.77242 16.965 7.7073 17.0124C7.64217 17.0568 7.62737 17.1456 7.67473 17.2078C7.84051 17.4446 8.01813 17.6696 8.19871 17.8739C8.22535 17.9064 8.26383 17.9212 8.30528 17.9212Z" fill="#B4B4B4"/>
<path d="M11.1097 19.3824C10.8522 19.3292 10.5946 19.2463 10.343 19.1397C10.2719 19.1101 10.189 19.1427 10.1565 19.2137C10.1417 19.2492 10.1417 19.2877 10.1565 19.3232C10.0529 19.3055 9.94629 19.2877 9.84268 19.27C9.76571 19.2581 9.6917 19.3055 9.6769 19.3824C9.6621 19.4594 9.71242 19.5334 9.78939 19.5482C10.0677 19.6015 10.3519 19.6459 10.6331 19.6785C10.639 19.6785 10.6449 19.6785 10.6479 19.6785C10.7071 19.6785 10.7545 19.643 10.7781 19.5897C10.8699 19.6163 10.9587 19.643 11.0505 19.6607C11.0594 19.6637 11.0712 19.6637 11.0801 19.6637C11.1452 19.6637 11.2044 19.6193 11.2192 19.5512C11.234 19.4742 11.1837 19.3973 11.1097 19.3824Z" fill="#B4B4B4"/>
<path d="M7.21937 16.4938C7.24602 16.5382 7.29338 16.5648 7.34075 16.5648C7.36443 16.5648 7.38812 16.5589 7.4118 16.547C7.47989 16.5086 7.50357 16.4227 7.46508 16.3546C7.35851 16.1652 7.2549 15.9668 7.15721 15.7655C7.15721 15.7626 7.15721 15.7596 7.15425 15.7537C7.15129 15.7507 7.14833 15.7478 7.14537 15.7418C7.12464 15.7004 7.10688 15.6619 7.08616 15.6234C7.0536 15.5524 6.96775 15.5228 6.89966 15.5553C6.82861 15.5879 6.79901 15.6737 6.83157 15.7418C6.83157 15.7448 6.83453 15.7478 6.83453 15.7507C6.62435 15.8543 6.4112 15.9639 6.2099 16.0823C6.14181 16.1208 6.11813 16.2066 6.15662 16.2747C6.1803 16.3161 6.22471 16.3428 6.26911 16.3457C6.29575 16.3487 6.32535 16.3428 6.34904 16.328C6.54738 16.2125 6.75164 16.106 6.95887 16.0053C7.04472 16.1711 7.13056 16.3339 7.21937 16.4938Z" fill="#B4B4B4"/>
<path d="M9.62903 18.7587C9.40997 18.6166 9.19387 18.4508 8.98368 18.2643C8.92448 18.214 8.83567 18.217 8.78534 18.2762C8.73502 18.3354 8.73798 18.4242 8.79718 18.4745C9.01625 18.667 9.24419 18.8416 9.4751 18.9926C9.49878 19.0074 9.52542 19.0163 9.55207 19.0163C9.59943 19.0163 9.64383 18.9926 9.67048 18.9511C9.71488 18.889 9.69416 18.8031 9.62903 18.7587Z" fill="#B4B4B4"/>
<path d="M8.19046 2.34669C8.2171 2.37037 8.24966 2.38221 8.28223 2.38221C8.32071 2.38221 8.36216 2.36444 8.3888 2.33484C8.57234 2.12466 8.76476 1.92928 8.96014 1.75462C9.01935 1.70133 9.02231 1.61252 8.97198 1.55628C8.9187 1.49707 8.82989 1.49411 8.77364 1.54443C8.56938 1.72797 8.36808 1.93224 8.17862 2.1513C8.12533 2.20755 8.13125 2.29636 8.19046 2.34669Z" fill="#B4B4B4"/>
<path d="M7.25784 3.7258C7.27856 3.73764 7.30521 3.74356 7.32889 3.74356C7.37922 3.74356 7.42658 3.71691 7.45322 3.67251C7.59236 3.42976 7.73741 3.1959 7.89135 2.97979C7.93576 2.91466 7.92096 2.82881 7.85583 2.78441C7.7907 2.74 7.70485 2.7548 7.66045 2.81993C7.50355 3.04492 7.34961 3.28471 7.20752 3.53633C7.16607 3.60146 7.18975 3.68731 7.25784 3.7258Z" fill="#B4B4B4"/>
<path d="M17.4321 14.2527C17.4943 14.2527 17.5475 14.2142 17.5683 14.152C17.6482 13.8886 17.7222 13.6132 17.7873 13.3379C17.8051 13.261 17.7577 13.187 17.6808 13.1692C17.6038 13.1514 17.5298 13.1988 17.512 13.2758C17.4498 13.5452 17.3758 13.8146 17.2989 14.0721C17.2752 14.1461 17.3196 14.226 17.3936 14.2468C17.4054 14.2497 17.4202 14.2527 17.4321 14.2527Z" fill="#B4B4B4"/>
<path d="M15.8816 2.94153C15.9083 2.98001 15.9527 3.00074 15.9971 3.00074C16.0267 3.00074 16.0533 2.99186 16.0799 2.97409C16.1451 2.92969 16.1599 2.84088 16.1125 2.77871C15.9467 2.54188 15.7691 2.31986 15.5856 2.11264C15.5353 2.05343 15.4435 2.04751 15.3872 2.1008C15.328 2.15112 15.3221 2.24289 15.3754 2.29914C15.5501 2.49748 15.7188 2.71358 15.8816 2.94153Z" fill="#B4B4B4"/>
<path d="M17.2171 14.768C17.1431 14.7414 17.0632 14.7769 17.0336 14.8509C16.9359 15.1114 16.8264 15.366 16.7139 15.6088C16.6813 15.6798 16.7109 15.7627 16.782 15.7953C16.8027 15.8041 16.8204 15.8071 16.8412 15.8071C16.8945 15.8071 16.9448 15.7775 16.9685 15.7272C17.0839 15.4785 17.1964 15.215 17.2971 14.9486C17.3267 14.8776 17.2911 14.7947 17.2171 14.768Z" fill="#B4B4B4"/>
<path d="M16.5296 16.2868C16.4615 16.2483 16.3756 16.272 16.3371 16.3401C16.198 16.5828 16.05 16.8137 15.899 17.0328C15.8546 17.0979 15.8694 17.1838 15.9345 17.2282C15.9582 17.2459 15.9878 17.2548 16.0145 17.2548C16.0589 17.2548 16.1033 17.2341 16.1299 17.1956C16.2868 16.9706 16.4407 16.7308 16.5828 16.4792C16.6213 16.4111 16.5976 16.3253 16.5296 16.2868Z" fill="#B4B4B4"/>
<path d="M7.41083 4.35327C7.46412 4.35327 7.51444 4.32367 7.53813 4.27038C7.57069 4.19933 7.53812 4.11644 7.46708 4.08388C7.21545 3.96843 6.96382 3.84113 6.72404 3.70792C6.65595 3.66943 6.5701 3.69312 6.53162 3.7612C6.49313 3.82929 6.51681 3.91514 6.5849 3.95362C6.83061 4.0898 7.08816 4.22005 7.34571 4.33847C7.37235 4.35031 7.39011 4.35327 7.41083 4.35327Z" fill="#B4B4B4"/>
<path d="M8.99518 4.92839C9.05735 4.92839 9.1136 4.88695 9.13136 4.82478C9.15208 4.75077 9.10768 4.67084 9.03367 4.65012C8.76724 4.57611 8.50081 4.49026 8.2403 4.39849C8.16629 4.37185 8.08636 4.41034 8.05972 4.48434C8.03307 4.55835 8.07156 4.63828 8.14557 4.66492C8.412 4.76262 8.68435 4.84846 8.95966 4.92543C8.96854 4.92839 8.98038 4.92839 8.99518 4.92839Z" fill="#B4B4B4"/>
<path d="M10.6474 5.24793C10.7185 5.24793 10.7806 5.19464 10.7866 5.12359C10.7954 5.04663 10.7392 4.97558 10.6622 4.9667C10.3899 4.93709 10.1116 4.89269 9.83926 4.8394C9.76229 4.8246 9.68828 4.87493 9.67348 4.9519C9.65868 5.02887 9.709 5.10287 9.78597 5.11768C10.0642 5.17096 10.3484 5.21537 10.6297 5.24793C10.6385 5.24793 10.6415 5.24793 10.6474 5.24793Z" fill="#B4B4B4"/>
<path d="M14.1438 4.94823C14.129 4.87126 14.055 4.82094 13.978 4.83574C13.7086 4.88903 13.4304 4.93047 13.155 4.96303C13.0781 4.97192 13.0218 5.04296 13.0307 5.11993C13.0396 5.19098 13.0988 5.24427 13.1698 5.24427C13.1758 5.24427 13.1817 5.24427 13.1876 5.24427C13.4688 5.2117 13.753 5.1673 14.0313 5.11401C14.1083 5.09921 14.1586 5.0252 14.1438 4.94823Z" fill="#B4B4B4"/>
<path d="M12.4707 5.16462C12.4678 5.08765 12.3967 5.03141 12.3257 5.02845C12.1717 5.03437 12.0178 5.03733 11.8639 5.03733V4.38309C11.8639 4.30612 11.8017 4.241 11.7218 4.241C11.6418 4.241 11.5797 4.30316 11.5797 4.38309V5.0314C11.5501 5.0314 11.5205 5.03141 11.4909 5.02845C11.4168 5.02549 11.3488 5.08765 11.3458 5.16462C11.3428 5.24159 11.405 5.30672 11.482 5.31264C11.5234 5.3156 11.5678 5.31264 11.6093 5.3156C11.6359 5.35112 11.6744 5.37184 11.7188 5.37184C11.7632 5.37184 11.8017 5.35112 11.8283 5.31856C11.852 5.31856 11.8727 5.31856 11.8964 5.31856C12.0444 5.31856 12.1895 5.3156 12.3346 5.30968C12.4145 5.30672 12.4737 5.24159 12.4707 5.16462Z" fill="#B4B4B4"/>
<path d="M14.8239 4.9218C14.8357 4.9218 14.8505 4.91883 14.8623 4.91587C15.1377 4.83891 15.41 4.75306 15.6764 4.65537C15.7504 4.62873 15.786 4.5488 15.7593 4.47479C15.7327 4.40078 15.6528 4.36526 15.5787 4.3919C15.3212 4.48663 15.0548 4.57248 14.7883 4.64649C14.7143 4.66721 14.6699 4.74418 14.6906 4.82115C14.7054 4.88035 14.7617 4.9218 14.8239 4.9218Z" fill="#B4B4B4"/>
<path d="M14.3958 15.3073C14.6622 15.3783 14.9286 15.4612 15.1891 15.553C15.201 15.5559 15.2128 15.5589 15.2247 15.5619C15.2868 15.5678 15.346 15.5293 15.3668 15.4671C15.3934 15.3931 15.3549 15.3132 15.2809 15.2866C15.0145 15.1918 14.7392 15.1089 14.4668 15.0349C14.3928 15.0142 14.3129 15.0586 14.2951 15.1356C14.2744 15.2096 14.3188 15.2866 14.3958 15.3073Z" fill="#B4B4B4"/>
<path d="M18.1726 17.1659C18.217 17.1689 18.2644 17.1511 18.294 17.1127C18.3413 17.0505 18.3295 16.9617 18.2703 16.9143C18.0453 16.7397 17.8114 16.5739 17.5746 16.417C17.5095 16.3755 17.4207 16.3933 17.3792 16.4584C17.3378 16.5236 17.3555 16.6124 17.4207 16.6538C17.6516 16.8048 17.8795 16.9676 18.0986 17.1363C18.1193 17.1541 18.146 17.163 18.1726 17.1659Z" fill="#B4B4B4"/>
<path d="M5.68272 16.5743C5.63832 16.5092 5.54951 16.4944 5.48734 16.5388C5.25348 16.6987 5.02553 16.8733 4.80647 17.0539C4.74726 17.1042 4.73838 17.193 4.78574 17.2522C4.81239 17.2848 4.84791 17.2996 4.88343 17.3026C4.91896 17.3055 4.95448 17.2937 4.98408 17.27C5.19723 17.0953 5.41925 16.9266 5.6472 16.7697C5.71233 16.7253 5.72713 16.6365 5.68272 16.5743Z" fill="#B4B4B4"/>
<path d="M15.8891 15.6743C15.8566 15.7454 15.8891 15.8282 15.9602 15.8608C16.2118 15.9733 16.4634 16.0976 16.7062 16.2279C16.7239 16.2368 16.7447 16.2427 16.7624 16.2457C16.8157 16.2486 16.869 16.222 16.8956 16.1716C16.9341 16.1036 16.9075 16.0177 16.8394 15.9792C16.5907 15.843 16.3332 15.7158 16.0727 15.6003C16.0046 15.5707 15.9187 15.6033 15.8891 15.6743Z" fill="#B4B4B4"/>
<path d="M7.79037 15.6243C7.81109 15.6243 7.83182 15.6243 7.84958 15.6154C8.10713 15.5177 8.37356 15.4289 8.63703 15.3549C8.71103 15.3341 8.75544 15.2542 8.73472 15.1802C8.714 15.1062 8.63406 15.0618 8.56005 15.0825C8.2877 15.1625 8.01536 15.2513 7.74893 15.3519C7.67492 15.3786 7.6394 15.4614 7.66604 15.5355C7.68972 15.5887 7.73709 15.6213 7.79037 15.6243Z" fill="#B4B4B4"/>
<path d="M9.41065 15.1585C9.4225 15.1585 9.43729 15.1585 9.44914 15.1555C9.71853 15.0993 9.9968 15.0549 10.2691 15.0223C10.3461 15.0134 10.4024 14.9424 10.3935 14.8654C10.3846 14.7885 10.3136 14.7322 10.2366 14.7411C9.95535 14.7766 9.67116 14.821 9.39289 14.8802C9.31592 14.895 9.2656 14.969 9.28336 15.046C9.2952 15.1082 9.34849 15.1526 9.41065 15.1585Z" fill="#B4B4B4"/>
<path d="M12.7581 15.0021C13.0304 15.0317 13.3087 15.0732 13.5811 15.1235C13.587 15.1235 13.5929 15.1265 13.5959 15.1265C13.6669 15.1324 13.732 15.082 13.7439 15.011C13.7587 14.934 13.7084 14.86 13.6314 14.8452C13.3531 14.7949 13.0689 14.7535 12.7877 14.7209C12.7196 14.7179 12.6397 14.7682 12.6308 14.8452C12.6249 14.9251 12.6811 14.9932 12.7581 15.0021Z" fill="#B4B4B4"/>
<path d="M7.23682 10.1413H8.08347C8.16044 10.1413 8.22557 10.0792 8.22557 9.99924C8.22557 9.92227 8.1634 9.85715 8.08347 9.85715H7.23682C7.15985 9.85715 7.09473 9.91931 7.09473 9.99924C7.09473 10.0762 7.15689 10.1413 7.23682 10.1413Z" fill="#B4B4B4"/>
<path d="M2.99851 9.85715H2.15186C2.07489 9.85715 2.00977 9.91931 2.00977 9.99924C2.00977 10.0762 2.07193 10.1413 2.15186 10.1413H2.99851C3.07548 10.1413 3.14061 10.0792 3.14061 9.99924C3.14061 9.92227 3.07548 9.85715 2.99851 9.85715Z" fill="#B4B4B4"/>
<path d="M4.8325 9.99924C4.8325 9.92227 4.77034 9.85715 4.69041 9.85715H3.84375C3.76679 9.85715 3.70166 9.91931 3.70166 9.99924C3.70166 10.0762 3.76383 10.1413 3.84375 10.1413H4.69041C4.77034 10.1413 4.8325 10.0762 4.8325 9.99924Z" fill="#B4B4B4"/>
<path d="M12.3228 10.1413H13.1694C13.2464 10.1413 13.3115 10.0792 13.3115 9.99924C13.3115 9.92227 13.2493 9.85715 13.1694 9.85715H12.3228C12.2458 9.85715 12.1807 9.91931 12.1807 9.99924C12.1807 10.0762 12.2458 10.1413 12.3228 10.1413Z" fill="#B4B4B4"/>
<path d="M19.9516 9.85715H19.105C19.028 9.85715 18.9629 9.91931 18.9629 9.99924C18.9629 10.0762 19.0251 10.1413 19.105 10.1413H19.9516C20.0286 10.1413 20.0937 10.0792 20.0937 9.99924C20.0937 9.92227 20.0316 9.85715 19.9516 9.85715Z" fill="#B4B4B4"/>
<path d="M8.93311 10.1413H9.77977C9.85674 10.1413 9.92186 10.0792 9.92186 9.99924C9.92186 9.92227 9.8597 9.85715 9.77977 9.85715H8.93311C8.85615 9.85715 8.79102 9.91931 8.79102 9.99924C8.79102 10.0762 8.85319 10.1413 8.93311 10.1413Z" fill="#B4B4B4"/>
<path d="M21.6479 9.85715H20.8013C20.7243 9.85715 20.6592 9.91931 20.6592 9.99924C20.6592 10.0762 20.7213 10.1413 20.8013 10.1413H21.6479C21.7249 10.1413 21.79 10.0792 21.79 9.99924C21.79 9.92227 21.7249 9.85715 21.6479 9.85715Z" fill="#B4B4B4"/>
<path d="M10.626 10.1417H11.4726C11.517 10.1417 11.5526 10.1209 11.5792 10.0913V10.3193C11.5792 10.3963 11.6414 10.4614 11.7213 10.4614C11.8012 10.4614 11.8634 10.3992 11.8634 10.3193V9.47263C11.8634 9.39566 11.8012 9.33054 11.7213 9.33054C11.6414 9.33054 11.5792 9.3927 11.5792 9.47263V9.91076C11.5526 9.88116 11.517 9.86043 11.4726 9.86043H10.626C10.549 9.86043 10.4839 9.9226 10.4839 10.0025C10.4868 10.0765 10.549 10.1417 10.626 10.1417Z" fill="#B4B4B4"/>
<path d="M14.0191 10.1413H14.8657C14.9427 10.1413 15.0078 10.0792 15.0078 9.99924C15.0078 9.92227 14.9456 9.85715 14.8657 9.85715H14.0191C13.9421 9.85715 13.877 9.91931 13.877 9.99924C13.877 10.0762 13.9391 10.1413 14.0191 10.1413Z" fill="#B4B4B4"/>
<path d="M16.562 9.85715H15.7153C15.6384 9.85715 15.5732 9.91931 15.5732 9.99924C15.5732 10.0762 15.6354 10.1413 15.7153 10.1413H16.562C16.639 10.1413 16.7041 10.0792 16.7041 9.99924C16.7041 9.92227 16.639 9.85715 16.562 9.85715Z" fill="#B4B4B4"/>
<path d="M11.8643 16.2515C11.8643 16.1745 11.8021 16.1094 11.7222 16.1094C11.6422 16.1094 11.5801 16.1716 11.5801 16.2515V17.0982C11.5801 17.1751 11.6422 17.2402 11.7222 17.2402C11.8021 17.2402 11.8643 17.1781 11.8643 17.0982V16.2515Z" fill="#B4B4B4"/>
<path d="M11.7222 17.8057C11.6452 17.8057 11.5801 17.8679 11.5801 17.9478V18.7944C11.5801 18.8714 11.6422 18.9365 11.7222 18.9365C11.8021 18.9365 11.8643 18.8744 11.8643 18.7944V17.9478C11.8643 17.8679 11.8021 17.8057 11.7222 17.8057Z" fill="#B4B4B4"/>
<path d="M11.8646 14.9463C11.8853 14.9463 11.909 14.9463 11.9297 14.9463C12.0067 14.9493 12.0718 14.8871 12.0748 14.8102C12.0777 14.7332 12.0126 14.6681 11.9386 14.6651C11.9149 14.6651 11.8883 14.6651 11.8646 14.6651V14.5585C11.8646 14.4816 11.8024 14.4164 11.7225 14.4164C11.6426 14.4164 11.5804 14.4786 11.5804 14.5585V14.6621C11.4146 14.6621 11.2488 14.6651 11.0831 14.674C11.0061 14.677 10.9439 14.7421 10.9469 14.822C10.9498 14.8931 11.0061 14.9523 11.0771 14.9552C11.0831 14.9552 11.089 14.9552 11.0949 14.9552C11.2548 14.9493 11.4176 14.9523 11.5774 14.9523V15.4082C11.5774 15.4851 11.6396 15.5502 11.7195 15.5502C11.7995 15.5502 11.8616 15.4881 11.8616 15.4082V14.9463H11.8646Z" fill="#B4B4B4"/>
<path d="M11.7222 12.7198C11.6452 12.7198 11.5801 12.782 11.5801 12.8619V13.7085C11.5801 13.7855 11.6422 13.8506 11.7222 13.8506C11.8021 13.8506 11.8643 13.7885 11.8643 13.7085V12.8619C11.8643 12.782 11.8021 12.7198 11.7222 12.7198Z" fill="#B4B4B4"/>
<path d="M11.7222 1.98039C11.7991 1.98039 11.8643 1.91823 11.8643 1.8383V0.991643C11.8643 0.914674 11.8021 0.849548 11.7222 0.849548C11.6422 0.849548 11.5801 0.911714 11.5801 0.991643V1.8383C11.5801 1.91823 11.6452 1.98039 11.7222 1.98039Z" fill="#B4B4B4"/>
<path d="M11.5801 3.53676C11.5801 3.61373 11.6422 3.67885 11.7222 3.67885C11.8021 3.67885 11.8643 3.61669 11.8643 3.53676V2.6901C11.8643 2.61313 11.8021 2.548 11.7222 2.548C11.6422 2.548 11.5801 2.61017 11.5801 2.6901V3.53676Z" fill="#B4B4B4"/>
<path d="M11.8643 11.1656C11.8643 11.0887 11.8021 11.0235 11.7222 11.0235C11.6422 11.0235 11.5801 11.0857 11.5801 11.1656V12.0123C11.5801 12.0892 11.6422 12.1544 11.7222 12.1544C11.8021 12.1544 11.8643 12.0922 11.8643 12.0123V11.1656Z" fill="#B4B4B4"/>
<path d="M11.5801 8.62266C11.5801 8.69963 11.6422 8.76475 11.7222 8.76475C11.8021 8.76475 11.8643 8.70259 11.8643 8.62266V7.77601C11.8643 7.69904 11.8021 7.63391 11.7222 7.63391C11.6422 7.63391 11.5801 7.69608 11.5801 7.77601V8.62266Z" fill="#B4B4B4"/>
<path d="M11.7222 7.06847C11.7991 7.06847 11.8643 7.0063 11.8643 6.92638V6.07972C11.8643 6.00275 11.8021 5.93762 11.7222 5.93762C11.6422 5.93762 11.5801 5.99979 11.5801 6.07972V6.92638C11.5801 7.00334 11.6452 7.06847 11.7222 7.06847Z" fill="#B4B4B4"/>
<path d="M19.5327 14.9208C19.5327 14.9208 21.2053 18.2364 21.0336 18.3459C20.8619 18.4554 17.943 16.8509 17.4101 16.5875L17.4012 16.5579C17.0312 15.4033 18.1916 14.3495 19.3047 14.8261L19.5327 14.9208Z" fill="#FAF3E9"/>
<path d="M19.2609 16.949C19.7109 17.4137 20.1668 17.8459 20.6552 18.2337C19.8086 17.8755 17.8399 16.798 17.4137 16.5848L17.4048 16.5552C17.2301 16.0135 17.3989 15.4925 17.7363 15.1432C18.1626 15.8063 18.7251 16.4013 19.2609 16.949Z" fill="#E2E2C9"/>
<path d="M20.2044 17.4469C20.2724 17.3729 20.6366 17.2189 20.6514 17.2515C20.9119 17.8347 21.2316 18.5185 21.2316 18.5185C21.2316 18.5185 20.1659 18.0449 19.9438 17.9028C19.9438 17.8998 19.9942 17.6689 20.2044 17.4469Z" fill="#B3B3B3"/>
<path d="M20.2162 17.4342C20.2724 17.6029 20.3553 17.7657 20.4619 17.9197C20.5714 18.0766 20.7135 18.2187 20.8586 18.346C20.53 18.195 20.08 17.9848 19.9438 17.8989C19.9438 17.8989 19.9942 17.668 20.2044 17.4431C20.2044 17.4431 20.2132 17.4371 20.2162 17.4342Z" fill="#A4A4A4"/>
<path d="M4.3834 1.39153L19.5314 14.9202C19.5314 14.9202 17.8707 14.9321 17.4088 16.5839L2.54504 3.09964C2.54504 3.09964 2.52432 2.29739 3.03645 1.77933C3.30288 1.50994 3.61963 1.38857 4.3834 1.39153Z" fill="#FFDF4D"/>
<path d="M18.6474 15.1335L3.51123 1.48938C3.72141 1.42426 3.99376 1.3917 4.38453 1.39466L19.5325 14.9234C19.5325 14.9204 19.121 14.9234 18.6474 15.1335C18.6503 15.1306 18.6474 15.1306 18.6474 15.1335Z" fill="#FFC346"/>
<path d="M2.82713 2.05219L17.7383 15.8562C17.7413 15.8592 17.7413 15.8621 17.7442 15.8651C17.6821 15.9539 17.6228 16.0545 17.5725 16.1611C17.5636 16.1789 17.5548 16.1996 17.5459 16.2203C17.5281 16.2588 17.5104 16.3002 17.4926 16.3417C17.463 16.4187 17.4334 16.4986 17.4097 16.5844L2.5459 3.10014C2.5459 3.10014 2.54886 2.9018 2.60215 2.62649C2.64063 2.44887 2.71168 2.24461 2.82713 2.05219Z" fill="#FFC346"/>
<path d="M2.8272 2.0521C2.85384 2.00769 2.88345 1.96329 2.91601 1.91888C3.68274 2.93132 4.45242 3.95855 5.30499 4.88217C6.53945 6.22024 17.2322 15.8354 17.7413 16.3653C18.1291 16.7679 19.5531 17.7034 19.5531 17.7034C18.9906 17.4162 18.3837 17.0935 17.9426 16.8626C17.8953 16.8389 17.8509 16.8152 17.8094 16.7916C17.7976 16.7856 17.7857 16.7797 17.7709 16.7708C17.7295 16.7472 17.6881 16.7264 17.6496 16.7087C17.6436 16.7057 17.6377 16.7028 17.6318 16.6998C17.5904 16.6761 17.5519 16.6583 17.5163 16.6406C17.5104 16.6376 17.5045 16.6347 17.4986 16.6317C17.466 16.6139 17.4335 16.5991 17.4098 16.5873L2.54597 3.10302C2.54597 3.10302 2.54005 2.83067 2.63478 2.50207C2.63774 2.49615 2.63774 2.49023 2.6407 2.48134C2.68214 2.33925 2.74135 2.19419 2.8272 2.0521Z" fill="#EDD19C"/>
<path d="M9.82228 6.24969C9.6713 6.49836 9.49664 6.73519 9.28942 6.98386C8.93418 7.41311 8.53453 7.79499 8.12305 8.15911L14.0348 13.5232C14.1355 13.2716 14.242 13.0259 14.3753 12.795C14.6891 12.2532 15.0473 11.7411 15.3818 11.2112L9.82228 6.24969Z" fill="#CFA49C"/>
<path d="M4.81445 14.8326C5.10752 14.88 5.39467 15.0013 5.61965 15.1967C6.0933 15.6023 6.41302 16.1736 6.72089 16.7183L20.6463 4.29086L18.6037 2.04398L4.29935 14.5632L4.24902 14.6727C4.46809 14.729 4.67531 14.8119 4.81445 14.8326Z" fill="#969494"/>
<path d="M13.9461 10.2674C13.3658 9.74049 12.8478 9.13658 12.2794 8.60668C12.087 8.42906 11.9005 8.24552 11.7376 8.05014L4.3013 14.5599L4.25098 14.6694C4.47004 14.7286 4.6743 14.8086 4.8164 14.8323C5.10947 14.8796 5.39662 15.001 5.62161 15.1964C6.09526 15.6019 6.41498 16.1733 6.72285 16.718L13.9461 10.2674Z" fill="#D64900"/>
<path d="M13.6085 10.5806L14.2953 9.97077L12.1106 7.72092L11.4712 8.28338L13.6085 10.5806Z" fill="#FFC346"/>
<path d="M4.29836 14.5598L2.9751 17.5883C3.22673 17.7008 3.44283 17.9021 3.57309 18.1418L6.72287 16.712C6.07752 14.7079 4.29836 14.5598 4.29836 14.5598Z" fill="#F9F6EF"/>
<path d="M3.10588 17.2928L2.55526 18.2875C2.45165 18.477 2.66183 18.6842 2.84833 18.5776L3.82228 18.03C3.84004 17.6392 3.56473 17.3106 3.10588 17.2928Z" fill="#3D3D3D"/>
<path opacity="0.55" d="M13.7552 7.47863L13.5864 7.3987L14.5426 8.44665L19.1252 4.13642L19.0542 4.03577L13.7552 7.47863Z" fill="#BFBEBE"/>
<path d="M13.5864 7.39812L14.3946 8.24478L19.0542 4.03519L18.2904 3.17078L13.5864 7.39812Z" fill="#585555"/>
<path d="M14.5442 7.76268L18.6236 4.157L18.2683 3.76624L14.1387 7.35119L14.5442 7.76268Z" fill="#3D3D3D"/>
<path d="M18.6035 2.04048L20.6461 4.28738C20.6461 4.28738 21.9043 3.15357 20.8445 1.96352C19.9771 0.99253 18.6035 2.04048 18.6035 2.04048Z" fill="#3D3D3D"/>
<path opacity="0.55" d="M7.55824 14.8705C6.48956 15.6461 6.03959 15.4951 6.03959 15.4951C5.69916 15.951 4.44102 16.8065 3.40194 16.7443C3.38122 16.7443 3.36346 16.7443 3.34273 16.7443L3.10294 17.295L2.55233 18.2896C2.44872 18.4791 2.6589 18.6863 2.8454 18.5797L3.81935 18.0321L6.71455 16.7147L6.71751 16.7118L13.5973 10.5721L13.6032 10.578L14.2871 9.96815L14.2811 9.95927L20.6399 4.28432C20.6399 4.28432 21.6139 3.40806 21.1254 2.38675C18.6832 5.26715 9.42621 13.5146 7.55824 14.8705Z" fill="#A9A8A8"/>
<g opacity="0.55">
<path opacity="0.55" d="M1.69834 11.0026C1.77531 10.9937 1.83451 10.9256 1.82563 10.8486C1.79899 10.5733 1.78715 10.2951 1.78419 10.0197C1.78419 9.94278 1.72202 9.87766 1.64209 9.87766C1.56513 9.87766 1.5 9.93982 1.5 10.0197C1.5 10.3039 1.5148 10.5911 1.54144 10.8753C1.54737 10.9493 1.60953 11.0026 1.68058 11.0026C1.68946 11.0026 1.69538 11.0026 1.69834 11.0026Z" fill="url(#paint0_linear_2437_126237)"/>
<path opacity="0.55" d="M1.94995 7.66041C1.96179 7.66337 1.9766 7.66633 1.98844 7.66633C2.05061 7.66633 2.10685 7.62489 2.12462 7.56272C2.19862 7.29925 2.28743 7.03282 2.38809 6.77527C2.41769 6.70126 2.3792 6.62133 2.30816 6.59173C2.23711 6.56509 2.15422 6.60061 2.12462 6.67166C2.021 6.93809 1.92924 7.21044 1.85227 7.48279C1.83154 7.55976 1.87595 7.63969 1.94995 7.66041Z" fill="url(#paint1_linear_2437_126237)"/>
<path opacity="0.55" d="M2.53299 6.08009C2.55371 6.08898 2.57443 6.0949 2.59516 6.0949C2.64844 6.0949 2.6958 6.06529 2.72245 6.01793C2.84382 5.77222 2.98 5.52651 3.12505 5.29265C3.1665 5.22752 3.14578 5.13871 3.07769 5.09726C3.01256 5.05582 2.92375 5.07654 2.88231 5.14463C2.73429 5.38738 2.59219 5.639 2.46786 5.89359C2.4353 5.96168 2.46194 6.04457 2.53299 6.08009Z" fill="url(#paint2_linear_2437_126237)"/>
<path opacity="0.55" d="M1.66845 9.32126C1.67141 9.32126 1.67734 9.32126 1.6803 9.32126C1.75134 9.32126 1.81351 9.26502 1.81943 9.19397C1.84311 8.91866 1.8816 8.64335 1.93192 8.371C1.94672 8.29403 1.8964 8.22002 1.81943 8.20522C1.74246 8.19042 1.66845 8.24074 1.65365 8.31771C1.60332 8.59598 1.56188 8.88018 1.5382 9.16437C1.53524 9.2443 1.59148 9.31238 1.66845 9.32126Z" fill="url(#paint3_linear_2437_126237)"/>
<path opacity="0.55" d="M3.38821 15.5968C3.41485 15.6323 3.45926 15.653 3.50071 15.653C3.53031 15.653 3.55991 15.6441 3.58656 15.6234C3.64872 15.576 3.66056 15.4872 3.61616 15.4251C3.45038 15.203 3.29348 14.9721 3.14843 14.7383C3.10698 14.6731 3.02113 14.6524 2.95304 14.6939C2.88792 14.7353 2.8672 14.8212 2.90864 14.8892C3.0537 15.132 3.21651 15.3688 3.38821 15.5968Z" fill="url(#paint4_linear_2437_126237)"/>
<path opacity="0.55" d="M2.61302 14.2234C2.63374 14.2234 2.65446 14.2175 2.67519 14.2086C2.74623 14.1731 2.77288 14.0873 2.73735 14.0192C2.61302 13.7735 2.50053 13.5189 2.39987 13.2613C2.37027 13.1873 2.29034 13.1518 2.21634 13.1814C2.14233 13.211 2.1068 13.2909 2.13641 13.3649C2.24002 13.6284 2.35843 13.8919 2.48573 14.1465C2.51237 14.1938 2.56269 14.2234 2.61302 14.2234Z" fill="url(#paint5_linear_2437_126237)"/>
<path opacity="0.55" d="M2.13636 12.4774C2.05939 12.2139 1.99427 11.9416 1.94394 11.6722C1.92914 11.5952 1.85513 11.5449 1.77816 11.5597C1.70119 11.5745 1.65087 11.6485 1.66567 11.7255C1.71895 12.0037 1.78704 12.285 1.86401 12.5573C1.88177 12.6195 1.93802 12.658 2.00019 12.658C2.01203 12.658 2.02683 12.655 2.03867 12.652C2.11564 12.6284 2.15708 12.5514 2.13636 12.4774Z" fill="url(#paint6_linear_2437_126237)"/>
<path opacity="0.55" d="M8.95081 0.935067C8.96265 0.935067 8.97746 0.932105 8.9893 0.929145C9.25573 0.855137 9.52808 0.790011 9.79747 0.736726C9.87443 0.721924 9.92476 0.647916 9.90996 0.570948C9.89515 0.493979 9.82115 0.443652 9.74418 0.458454C9.46591 0.5147 9.18764 0.579827 8.91529 0.656795C8.84128 0.677518 8.79688 0.754485 8.8176 0.831454C8.8324 0.896581 8.88865 0.935067 8.95081 0.935067Z" fill="url(#paint7_linear_2437_126237)"/>
<path opacity="0.55" d="M5.90461 2.34344C5.93125 2.34344 5.9579 2.33457 5.98454 2.31976C6.21249 2.16583 6.45227 2.01781 6.69206 1.88163C6.76015 1.84315 6.78383 1.7573 6.74535 1.68921C6.70686 1.62113 6.62101 1.59744 6.55292 1.63592C6.30722 1.77506 6.06151 1.92604 5.82764 2.0859C5.76252 2.1303 5.74475 2.21615 5.78916 2.28128C5.81284 2.32272 5.85725 2.34344 5.90461 2.34344Z" fill="url(#paint8_linear_2437_126237)"/>
<path opacity="0.55" d="M13.9339 0.724612C14.2063 0.777898 14.4786 0.840064 14.745 0.914072C14.7569 0.917033 14.7687 0.91999 14.7835 0.91999C14.8457 0.91999 14.9019 0.878548 14.9197 0.816381C14.9404 0.742373 14.896 0.662441 14.822 0.641718C14.5497 0.56771 14.2684 0.502585 13.9902 0.449299C13.9132 0.434497 13.8392 0.484824 13.8244 0.561793C13.8066 0.635801 13.8569 0.70981 13.9339 0.724612Z" fill="url(#paint9_linear_2437_126237)"/>
<path opacity="0.55" d="M12.2816 0.540813C12.3822 0.543773 12.4858 0.549693 12.5865 0.558574C12.6072 0.585217 12.6368 0.60594 12.6723 0.614821C12.9299 0.668107 13.1874 0.748035 13.439 0.854607C13.4568 0.863488 13.4746 0.866451 13.4953 0.866451C13.5515 0.866451 13.6019 0.833885 13.6255 0.780599C13.6552 0.709551 13.6226 0.626665 13.5515 0.594101C13.4568 0.555617 13.3621 0.523051 13.2673 0.490488C13.2673 0.487527 13.2703 0.484569 13.2703 0.478648C13.2792 0.40168 13.2229 0.330632 13.146 0.321751C12.8647 0.289188 12.5776 0.268464 12.2934 0.259583C12.2194 0.265503 12.1513 0.318791 12.1483 0.39576C12.1424 0.472728 12.2046 0.537852 12.2816 0.540813Z" fill="url(#paint10_linear_2437_126237)"/>
<path opacity="0.55" d="M15.5341 1.16464C15.7946 1.25937 16.0521 1.36298 16.3038 1.47843C16.3215 1.48731 16.3423 1.49028 16.363 1.49028C16.4163 1.49028 16.4696 1.46067 16.4932 1.40739C16.5258 1.33634 16.4932 1.25345 16.4222 1.22088C16.1646 1.10247 15.8982 0.995901 15.6318 0.89821C15.5578 0.874528 15.4778 0.91005 15.4512 0.984058C15.4246 1.05511 15.4601 1.138 15.5341 1.16464Z" fill="url(#paint11_linear_2437_126237)"/>
<path opacity="0.55" d="M21.8463 8.30874C21.8996 8.58109 21.9381 8.8564 21.9647 9.12875C21.9707 9.20276 22.0328 9.25605 22.1039 9.25605C22.1098 9.25605 22.1128 9.25605 22.1187 9.25605C22.1957 9.24716 22.2519 9.17908 22.246 9.10211C22.2193 8.82088 22.1779 8.53372 22.1246 8.25545C22.1098 8.17848 22.0358 8.12816 21.9588 8.14296C21.8819 8.15777 21.8315 8.23177 21.8463 8.30874Z" fill="url(#paint12_linear_2437_126237)"/>
<path opacity="0.55" d="M10.6035 0.608984C10.6094 0.608984 10.6153 0.608984 10.6212 0.608984C10.7278 0.597143 10.8373 0.588266 10.9439 0.576425C10.9706 0.606028 11.0061 0.623786 11.0475 0.623786C11.0564 0.623786 11.0682 0.623788 11.0771 0.620828C11.3406 0.564582 11.607 0.534977 11.8734 0.532017C11.9504 0.532017 12.0155 0.466891 12.0126 0.389923C12.0126 0.312954 11.9445 0.244866 11.8705 0.250787C11.7461 0.250787 11.6189 0.259665 11.4945 0.271507C11.4768 0.262626 11.456 0.259667 11.4353 0.259667C11.1511 0.271509 10.8669 0.29519 10.5857 0.327754C10.5087 0.336635 10.4525 0.407682 10.4614 0.484651C10.4732 0.555699 10.5324 0.608984 10.6035 0.608984Z" fill="url(#paint13_linear_2437_126237)"/>
<path opacity="0.55" d="M7.37001 1.51781C7.39073 1.51781 7.41145 1.51485 7.42922 1.50597C7.68084 1.39052 7.93839 1.28394 8.19594 1.18921C8.26995 1.16257 8.30547 1.07968 8.27883 1.00863C8.25218 0.934624 8.17226 0.899101 8.09825 0.925744C7.83182 1.02343 7.56539 1.13297 7.30784 1.25138C7.23679 1.28395 7.20719 1.36683 7.23975 1.43788C7.2664 1.4882 7.31672 1.51781 7.37001 1.51781Z" fill="url(#paint14_linear_2437_126237)"/>
<path opacity="0.55" d="M21.6539 7.50347C21.6716 7.56564 21.7279 7.60412 21.79 7.60412C21.8019 7.60412 21.8167 7.60116 21.8285 7.5982C21.9025 7.57748 21.9469 7.49755 21.9233 7.42354C21.8433 7.15119 21.7516 6.87884 21.645 6.61537C21.6154 6.54433 21.5355 6.50584 21.4615 6.53544C21.3874 6.56505 21.3519 6.64498 21.3815 6.71899C21.4851 6.97358 21.5769 7.23704 21.6539 7.50347Z" fill="url(#paint15_linear_2437_126237)"/>
<path opacity="0.55" d="M21.5835 13.1609C21.5095 13.1313 21.4296 13.1698 21.4 13.2408C21.2993 13.4954 21.1868 13.7529 21.0625 13.9986C21.027 14.0697 21.0566 14.1526 21.1247 14.1881C21.1454 14.197 21.1661 14.2029 21.1868 14.2029C21.2401 14.2029 21.2875 14.1733 21.3141 14.1259C21.4414 13.8714 21.5598 13.6079 21.6605 13.3444C21.693 13.2734 21.6545 13.1905 21.5835 13.1609Z" fill="url(#paint16_linear_2437_126237)"/>
<path opacity="0.55" d="M20.6835 5.04319C20.6184 5.08464 20.5977 5.17049 20.6391 5.23857C20.7842 5.47244 20.9203 5.71518 21.0447 5.96089C21.0684 6.01122 21.1187 6.03786 21.172 6.03786C21.1927 6.03786 21.2164 6.03194 21.2341 6.02306C21.3022 5.98754 21.3318 5.90169 21.2963 5.8336C21.169 5.57901 21.0269 5.33034 20.8759 5.08759C20.8374 5.02247 20.7516 5.00175 20.6835 5.04319Z" fill="url(#paint17_linear_2437_126237)"/>
<path opacity="0.55" d="M15.5768 18.8183C15.3192 18.913 15.0528 18.9988 14.7864 19.0728C14.7124 19.0936 14.668 19.1705 14.6887 19.2475C14.7065 19.3097 14.7627 19.3511 14.8249 19.3511C14.8367 19.3511 14.8515 19.3482 14.8634 19.3452C15.1387 19.2682 15.411 19.1824 15.6774 19.0847C15.7514 19.058 15.787 18.9781 15.7603 18.9041C15.7307 18.8301 15.6508 18.7916 15.5768 18.8183Z" fill="url(#paint18_linear_2437_126237)"/>
<path opacity="0.55" d="M17.086 18.1254C16.8462 18.2586 16.5976 18.3859 16.3459 18.5043C16.2749 18.5369 16.2453 18.6198 16.2778 18.6908C16.3015 18.7441 16.3518 18.7737 16.4051 18.7737C16.4259 18.7737 16.4436 18.7707 16.4643 18.7619C16.7249 18.6434 16.9794 18.5132 17.2251 18.3741C17.2932 18.3356 17.3169 18.2497 17.2784 18.1816C17.2399 18.1106 17.1541 18.0869 17.086 18.1254Z" fill="url(#paint19_linear_2437_126237)"/>
<path opacity="0.55" d="M17.0478 1.85272C17.2875 1.98594 17.5273 2.13099 17.7582 2.28493C17.7819 2.29973 17.8086 2.30861 17.8352 2.30861C17.8796 2.30861 17.927 2.28789 17.9536 2.24645C17.998 2.18132 17.9803 2.09251 17.9151 2.05107C17.6783 1.89417 17.4326 1.74319 17.1839 1.60702C17.1158 1.56853 17.03 1.59518 16.9915 1.66326C16.956 1.72839 16.9797 1.81424 17.0478 1.85272Z" fill="url(#paint20_linear_2437_126237)"/>
<path opacity="0.55" d="M22.0202 11.5359C21.9432 11.5211 21.8692 11.5714 21.8544 11.6484C21.8041 11.9178 21.739 12.1901 21.665 12.4565C21.6443 12.5306 21.6857 12.6105 21.7627 12.6312C21.7745 12.6342 21.7893 12.6371 21.8012 12.6371C21.8633 12.6371 21.9196 12.5957 21.9373 12.5335C22.0143 12.2612 22.0824 11.9799 22.1357 11.7017C22.1475 11.6247 22.0972 11.5507 22.0202 11.5359Z" fill="url(#paint21_linear_2437_126237)"/>
<path opacity="0.55" d="M7.47099 18.5128C7.21936 18.3973 6.96773 18.2701 6.72794 18.1368C6.65985 18.0984 6.57401 18.122 6.53552 18.1901C6.49704 18.2582 6.52072 18.3441 6.58881 18.3825C6.83452 18.5187 7.09206 18.649 7.34961 18.7674C7.36737 18.7763 7.3881 18.7792 7.40882 18.7792C7.4621 18.7792 7.51243 18.7496 7.53611 18.6963C7.57164 18.6283 7.54203 18.5454 7.47099 18.5128Z" fill="url(#paint22_linear_2437_126237)"/>
<path opacity="0.55" d="M22.2914 9.95749C22.2914 9.88053 22.2292 9.8154 22.1493 9.8154C22.0693 9.8154 22.0072 9.87756 22.0072 9.95749V9.99894C22.0072 10.2742 21.9953 10.5525 21.9687 10.8278C21.9628 10.9048 22.019 10.9729 22.096 10.9818C22.0989 10.9818 22.1049 10.9818 22.1078 10.9818C22.1789 10.9818 22.241 10.9255 22.247 10.8545C22.2736 10.5732 22.2854 10.2861 22.2854 9.99894L22.2914 9.95749Z" fill="url(#paint23_linear_2437_126237)"/>
<path opacity="0.55" d="M9.03074 19.0787C8.76431 19.0047 8.49788 18.9188 8.23737 18.8271C8.16336 18.8004 8.08343 18.8389 8.05679 18.9129C8.03014 18.9869 8.06863 19.0668 8.14264 19.0935C8.40907 19.1912 8.68142 19.277 8.95673 19.354C8.96857 19.3569 8.98337 19.3599 8.99521 19.3599C9.05738 19.3599 9.11363 19.3185 9.13139 19.2563C9.15211 19.1793 9.10771 19.0994 9.03074 19.0787Z" fill="url(#paint24_linear_2437_126237)"/>
<path opacity="0.55" d="M20.6592 14.7267C20.5142 14.9606 20.3573 15.1915 20.1915 15.4135C20.1442 15.4757 20.159 15.5645 20.2211 15.6119C20.2478 15.6296 20.2774 15.6415 20.304 15.6415C20.3484 15.6415 20.3899 15.6208 20.4165 15.5852C20.5882 15.3573 20.7481 15.1175 20.8961 14.8777C20.9375 14.8126 20.9168 14.7238 20.8487 14.6823C20.7865 14.6379 20.7007 14.6587 20.6592 14.7267Z" fill="url(#paint25_linear_2437_126237)"/>
<path opacity="0.55" d="M18.1409 10.8399C18.1528 10.609 18.1587 10.3752 18.1587 10.1413H18.2564C18.3333 10.1413 18.3985 10.0791 18.3985 9.99921C18.3985 9.92224 18.3363 9.85712 18.2564 9.85712H18.1054C18.0817 9.83936 18.0521 9.82455 18.0195 9.82455C17.987 9.82455 17.9574 9.8364 17.9337 9.85712H17.4067C17.3298 9.85712 17.2646 9.91928 17.2646 9.99921C17.2646 10.0762 17.3268 10.1413 17.4067 10.1413H17.8745C17.8715 10.3693 17.8686 10.6002 17.8567 10.8251C17.8538 10.9021 17.913 10.9702 17.9899 10.9732C17.9929 10.9732 17.9959 10.9732 17.9988 10.9732C18.0758 10.9732 18.138 10.9169 18.1409 10.8399Z" fill="url(#paint26_linear_2437_126237)"/>
<path opacity="0.55" d="M14.8206 18.2552C14.7614 18.3085 14.7585 18.3973 14.8088 18.4535C14.8354 18.4861 14.8769 18.5009 14.9153 18.5009C14.9479 18.5009 14.9834 18.4891 15.0101 18.4654C15.2143 18.2818 15.4156 18.0805 15.6081 17.8615C15.6584 17.8023 15.6525 17.7135 15.5933 17.6631C15.5341 17.6128 15.4452 17.6187 15.3949 17.675C15.2084 17.8852 15.016 18.0805 14.8206 18.2552Z" fill="url(#paint27_linear_2437_126237)"/>
<path opacity="0.55" d="M5.78957 10.7068C5.7126 10.7097 5.6534 10.7778 5.65636 10.8548C5.67116 11.136 5.69484 11.4173 5.72741 11.6926C5.73629 11.7636 5.79549 11.8169 5.86654 11.8169C5.87246 11.8169 5.87838 11.8169 5.88134 11.8169C5.95831 11.808 6.01456 11.737 6.00568 11.66C5.97607 11.3906 5.95239 11.1123 5.93759 10.837C5.93463 10.763 5.86358 10.7009 5.78957 10.7068Z" fill="url(#paint28_linear_2437_126237)"/>
<path opacity="0.55" d="M5.86372 8.49231C5.93477 8.49231 5.99694 8.43902 6.00286 8.36501C6.03246 8.09266 6.07095 7.81735 6.11535 7.54796C6.12719 7.47099 6.07687 7.39699 5.9999 7.38515C5.92293 7.37331 5.84892 7.42363 5.83708 7.5006C5.78971 7.77591 5.75123 8.05418 5.72163 8.33541C5.71275 8.41238 5.76899 8.48343 5.84596 8.49231C5.85188 8.49231 5.8578 8.49231 5.86372 8.49231Z" fill="url(#paint29_linear_2437_126237)"/>
<path opacity="0.55" d="M5.65254 9.173C5.6407 9.39799 5.63774 9.62889 5.63478 9.85684H5.54004C5.46308 9.85684 5.39795 9.919 5.39795 9.99893C5.39795 10.0759 5.46011 10.141 5.54004 10.141H5.72655C5.74135 10.144 5.75615 10.1499 5.77095 10.1499C5.78279 10.1499 5.79463 10.144 5.80648 10.141H6.3867C6.46367 10.141 6.52879 10.0789 6.52879 9.99893C6.52879 9.92196 6.46663 9.85684 6.3867 9.85684H5.91601C5.91897 9.63185 5.92193 9.40687 5.93377 9.18781C5.93673 9.11084 5.87752 9.04275 5.80055 9.03979C5.72655 9.03387 5.65846 9.09603 5.65254 9.173Z" fill="url(#paint30_linear_2437_126237)"/>
<path opacity="0.55" d="M17.791 11.6486C17.7614 11.9239 17.7229 12.1992 17.6756 12.4656C17.6637 12.5426 17.714 12.6166 17.791 12.6284C17.7999 12.6284 17.8058 12.6314 17.8147 12.6314C17.8828 12.6314 17.942 12.584 17.9538 12.513C18.0012 12.2406 18.0397 11.9594 18.0722 11.6782C18.0811 11.6012 18.0249 11.5302 17.9479 11.5213C17.8709 11.5154 17.7999 11.5716 17.791 11.6486Z" fill="url(#paint31_linear_2437_126237)"/>
<path opacity="0.55" d="M17.9977 9.27413C18.0007 9.27413 18.0036 9.27413 18.0066 9.27413C18.0836 9.27117 18.1428 9.20308 18.1398 9.12612C18.125 8.84488 18.0984 8.56365 18.0688 8.28834C18.0599 8.21137 17.9918 8.15513 17.9119 8.16401C17.8349 8.17289 17.7787 8.24394 17.7875 8.32091C17.8171 8.5903 17.8408 8.86561 17.8586 9.14388C17.8615 9.21788 17.9237 9.27413 17.9977 9.27413Z" fill="url(#paint32_linear_2437_126237)"/>
<path opacity="0.55" d="M14.1112 1.03542C14.0697 1.10055 14.0875 1.18936 14.1526 1.23081C14.3717 1.3729 14.5907 1.53868 14.798 1.72222C14.8246 1.74591 14.8572 1.75775 14.8927 1.75775C14.9312 1.75775 14.9697 1.73998 14.9993 1.71038C15.0496 1.65117 15.0466 1.56236 14.9874 1.51204C14.7684 1.31962 14.5404 1.14496 14.3065 0.996943C14.2385 0.949578 14.1526 0.970297 14.1112 1.03542Z" fill="url(#paint33_linear_2437_126237)"/>
<path opacity="0.55" d="M12.7026 19.3798C12.4391 19.436 12.1727 19.4656 11.9063 19.4656C11.7701 19.4656 11.6309 19.4627 11.4948 19.4597C11.4208 19.4567 11.3527 19.5189 11.3497 19.5959C11.3468 19.6729 11.4089 19.738 11.4859 19.7409C11.6221 19.7469 11.7612 19.7498 11.9003 19.7498C12.0483 19.7498 12.1934 19.7469 12.3385 19.7409C12.3651 19.7409 12.3917 19.7291 12.4125 19.7143C12.5309 19.6995 12.6493 19.6817 12.7647 19.658C12.8417 19.6403 12.8891 19.5663 12.8743 19.4893C12.8536 19.4123 12.7766 19.365 12.7026 19.3798Z" fill="url(#paint34_linear_2437_126237)"/>
<path opacity="0.55" d="M9.40961 1.21575C9.43625 1.25719 9.48066 1.27791 9.52802 1.27791C9.55467 1.27791 9.58131 1.26903 9.60499 1.25423C9.8359 1.10325 10.0727 0.972999 10.3155 0.869388C10.3865 0.836824 10.4191 0.753934 10.3895 0.682886C10.3599 0.611838 10.274 0.579274 10.203 0.608878C9.94839 0.71841 9.6938 0.857547 9.45106 1.0174C9.38297 1.06477 9.36521 1.15062 9.40961 1.21575Z" fill="url(#paint35_linear_2437_126237)"/>
<path opacity="0.55" d="M14.1764 18.7497C13.9455 18.9007 13.7057 19.0309 13.4659 19.1346C13.3949 19.1642 13.3623 19.2471 13.3919 19.3211C13.3978 19.3359 13.4126 19.3447 13.4215 19.3566C13.3327 19.3684 13.2409 19.3832 13.1521 19.3921C13.0751 19.401 13.0189 19.472 13.0278 19.549C13.0367 19.6201 13.0959 19.6733 13.1669 19.6733C13.1728 19.6733 13.1788 19.6733 13.1847 19.6733C13.4659 19.6408 13.7501 19.5964 14.0284 19.5431C14.1053 19.5283 14.1557 19.4543 14.1409 19.3773C14.1261 19.3003 14.0521 19.25 13.9751 19.2648C13.907 19.2767 13.8389 19.2885 13.7708 19.3003C13.9603 19.2086 14.1497 19.105 14.3303 18.9865C14.3954 18.9451 14.4132 18.8563 14.3718 18.7912C14.3303 18.726 14.2415 18.7083 14.1764 18.7497Z" fill="url(#paint36_linear_2437_126237)"/>
<path opacity="0.55" d="M8.30528 17.9212C8.33784 17.9212 8.37041 17.9094 8.40001 17.8857C8.45922 17.8354 8.46514 17.7436 8.41185 17.6874C8.23719 17.489 8.06845 17.2729 7.90564 17.045C7.86123 16.9798 7.77242 16.965 7.7073 17.0124C7.64217 17.0568 7.62737 17.1456 7.67473 17.2078C7.84051 17.4446 8.01813 17.6696 8.19871 17.8739C8.22535 17.9064 8.26383 17.9212 8.30528 17.9212Z" fill="url(#paint37_linear_2437_126237)"/>
<path opacity="0.55" d="M11.1097 19.3824C10.8522 19.3292 10.5946 19.2463 10.343 19.1397C10.2719 19.1101 10.189 19.1427 10.1565 19.2137C10.1417 19.2492 10.1417 19.2877 10.1565 19.3232C10.0529 19.3055 9.94629 19.2877 9.84268 19.27C9.76571 19.2581 9.6917 19.3055 9.6769 19.3824C9.6621 19.4594 9.71242 19.5334 9.78939 19.5482C10.0677 19.6015 10.3519 19.6459 10.6331 19.6785C10.639 19.6785 10.6449 19.6785 10.6479 19.6785C10.7071 19.6785 10.7545 19.643 10.7781 19.5897C10.8699 19.6163 10.9587 19.643 11.0505 19.6607C11.0594 19.6637 11.0712 19.6637 11.0801 19.6637C11.1452 19.6637 11.2044 19.6193 11.2192 19.5512C11.234 19.4742 11.1837 19.3973 11.1097 19.3824Z" fill="url(#paint38_linear_2437_126237)"/>
<path opacity="0.55" d="M9.62903 18.7587C9.40997 18.6166 9.19387 18.4508 8.98368 18.2643C8.92448 18.214 8.83567 18.217 8.78534 18.2762C8.73502 18.3354 8.73798 18.4242 8.79718 18.4745C9.01625 18.667 9.24419 18.8416 9.4751 18.9926C9.49878 19.0074 9.52542 19.0163 9.55207 19.0163C9.59943 19.0163 9.64383 18.9926 9.67048 18.9511C9.71488 18.889 9.69416 18.8031 9.62903 18.7587Z" fill="url(#paint39_linear_2437_126237)"/>
<path opacity="0.55" d="M8.19046 2.34669C8.2171 2.37037 8.24966 2.38221 8.28223 2.38221C8.32071 2.38221 8.36216 2.36444 8.3888 2.33484C8.57234 2.12466 8.76476 1.92928 8.96014 1.75462C9.01935 1.70133 9.02231 1.61252 8.97198 1.55628C8.9187 1.49707 8.82989 1.49411 8.77364 1.54443C8.56938 1.72797 8.36808 1.93224 8.17862 2.1513C8.12533 2.20755 8.13125 2.29636 8.19046 2.34669Z" fill="url(#paint40_linear_2437_126237)"/>
<path opacity="0.55" d="M7.25784 3.7258C7.27856 3.73764 7.30521 3.74356 7.32889 3.74356C7.37922 3.74356 7.42658 3.71691 7.45322 3.67251C7.59236 3.42976 7.73741 3.1959 7.89135 2.97979C7.93576 2.91466 7.92096 2.82881 7.85583 2.78441C7.7907 2.74 7.70485 2.7548 7.66045 2.81993C7.50355 3.04492 7.34961 3.28471 7.20752 3.53633C7.16607 3.60146 7.18975 3.68731 7.25784 3.7258Z" fill="url(#paint41_linear_2437_126237)"/>
<path opacity="0.55" d="M15.8816 2.94153C15.9083 2.98001 15.9527 3.00074 15.9971 3.00074C16.0267 3.00074 16.0533 2.99186 16.0799 2.97409C16.1451 2.92969 16.1599 2.84088 16.1125 2.77871C15.9467 2.54188 15.7691 2.31986 15.5856 2.11264C15.5353 2.05343 15.4435 2.04751 15.3872 2.1008C15.328 2.15112 15.3221 2.24289 15.3754 2.29914C15.5501 2.49748 15.7188 2.71358 15.8816 2.94153Z" fill="url(#paint42_linear_2437_126237)"/>
<path opacity="0.55" d="M16.5296 16.2868C16.4615 16.2483 16.3756 16.272 16.3371 16.3401C16.198 16.5828 16.05 16.8137 15.899 17.0328C15.8546 17.0979 15.8694 17.1838 15.9345 17.2282C15.9582 17.2459 15.9878 17.2548 16.0145 17.2548C16.0589 17.2548 16.1033 17.2341 16.1299 17.1956C16.2868 16.9706 16.4407 16.7308 16.5828 16.4792C16.6213 16.4111 16.5976 16.3253 16.5296 16.2868Z" fill="url(#paint43_linear_2437_126237)"/>
<path opacity="0.55" d="M8.2403 4.39849C8.16629 4.37185 8.08636 4.41034 8.05972 4.48434C8.03307 4.55835 8.07156 4.63828 8.14557 4.66492C8.412 4.76262 8.68435 4.84846 8.95966 4.92543C8.9715 4.92839 8.9863 4.93135 8.99814 4.93135C9.06031 4.93135 9.11656 4.88991 9.13432 4.82774C9.15504 4.75373 9.11063 4.6738 9.03663 4.65308C8.76428 4.57907 8.49785 4.49322 8.2403 4.39849Z" fill="url(#paint44_linear_2437_126237)"/>
<path opacity="0.55" d="M9.84268 4.8427C9.76571 4.8279 9.6917 4.87823 9.6769 4.95519C9.6621 5.03216 9.71242 5.10617 9.78939 5.12097C10.0677 5.17426 10.3519 5.21866 10.6331 5.25123C10.639 5.25123 10.6449 5.25123 10.6479 5.25123C10.7189 5.25123 10.7811 5.19794 10.787 5.12689C10.7959 5.04993 10.7397 4.97888 10.6627 4.97C10.3903 4.93743 10.115 4.89303 9.84268 4.8427Z" fill="url(#paint45_linear_2437_126237)"/>
<path opacity="0.55" d="M13.978 4.83574C13.7086 4.88903 13.4304 4.93047 13.155 4.96303C13.0781 4.97192 13.0218 5.04296 13.0307 5.11993C13.0396 5.19098 13.0988 5.24427 13.1698 5.24427C13.1758 5.24427 13.1817 5.24427 13.1876 5.24427C13.4688 5.2117 13.753 5.1673 14.0313 5.11401C14.1083 5.09921 14.1586 5.0252 14.1438 4.94823C14.126 4.87126 14.055 4.82094 13.978 4.83574Z" fill="url(#paint46_linear_2437_126237)"/>
<path opacity="0.55" d="M12.3346 5.30934C12.4115 5.30638 12.4737 5.24125 12.4707 5.16132C12.4678 5.08435 12.3967 5.02811 12.3257 5.02515C12.1717 5.03107 12.0178 5.03403 11.8639 5.03403V4.3798C11.8639 4.30283 11.8017 4.2377 11.7218 4.2377C11.6448 4.2377 11.5797 4.29987 11.5797 4.3798V5.02811C11.5501 5.02811 11.5205 5.02811 11.4909 5.02515C11.4168 5.02219 11.3488 5.08435 11.3458 5.16132C11.3428 5.23829 11.405 5.30342 11.482 5.30934C11.5234 5.3123 11.5678 5.30934 11.6093 5.3123C11.6359 5.34783 11.6744 5.36854 11.7188 5.36854C11.7632 5.36854 11.8017 5.34782 11.8283 5.31526C11.852 5.31526 11.8727 5.31526 11.8964 5.31526C12.0444 5.31822 12.1895 5.31526 12.3346 5.30934Z" fill="url(#paint47_linear_2437_126237)"/>
<path opacity="0.55" d="M15.2834 15.2866C15.0169 15.1918 14.7416 15.1089 14.4693 15.0349C14.3953 15.0142 14.3153 15.0586 14.2976 15.1356C14.2768 15.2096 14.3212 15.2895 14.3982 15.3073C14.6646 15.3783 14.9311 15.4612 15.1916 15.553C15.2034 15.5559 15.2153 15.5589 15.2271 15.5619C15.2893 15.5678 15.3485 15.5293 15.3692 15.4671C15.3958 15.3931 15.3574 15.3132 15.2834 15.2866Z" fill="url(#paint48_linear_2437_126237)"/>
<path opacity="0.55" d="M9.40971 15.1585C9.42155 15.1585 9.43635 15.1585 9.44819 15.1555C9.71758 15.0993 9.99585 15.0549 10.2682 15.0223C10.3452 15.0134 10.4014 14.9424 10.3896 14.8654C10.3807 14.7885 10.3096 14.7322 10.2327 14.7411C9.95145 14.7766 9.66725 14.821 9.38898 14.8802C9.31201 14.895 9.26169 14.969 9.27945 15.046C9.29425 15.1082 9.34754 15.1526 9.40971 15.1585Z" fill="url(#paint49_linear_2437_126237)"/>
<path opacity="0.55" d="M13.584 15.1235C13.5899 15.1235 13.5958 15.1265 13.5988 15.1265C13.6699 15.1324 13.735 15.082 13.7468 15.011C13.7616 14.934 13.7113 14.86 13.6343 14.8452C13.3561 14.7949 13.0719 14.7535 12.7906 14.7209C12.7225 14.7179 12.6426 14.7682 12.6337 14.8452C12.6249 14.9222 12.6811 14.9932 12.7581 15.0021C13.0334 15.0317 13.3087 15.0732 13.584 15.1235Z" fill="url(#paint50_linear_2437_126237)"/>
<path opacity="0.55" d="M8.08347 10.1413C8.16044 10.1413 8.22557 10.0792 8.22557 9.99924C8.22557 9.92227 8.1634 9.85715 8.08347 9.85715H7.23682C7.15985 9.85715 7.09473 9.91931 7.09473 9.99924C7.09473 10.0762 7.15689 10.1413 7.23682 10.1413H8.08347Z" fill="url(#paint51_linear_2437_126237)"/>
<path opacity="0.55" d="M3.14061 9.99924C3.14061 9.92227 3.07844 9.85715 2.99851 9.85715H2.15186C2.07489 9.85715 2.00977 9.91931 2.00977 9.99924C2.00977 10.0762 2.07193 10.1413 2.15186 10.1413H2.99851C3.07548 10.1413 3.14061 10.0762 3.14061 9.99924Z" fill="url(#paint52_linear_2437_126237)"/>
<path opacity="0.55" d="M4.69383 10.1413C4.77079 10.1413 4.83592 10.0792 4.83592 9.99924C4.83592 9.92227 4.77376 9.85715 4.69383 9.85715H3.84717C3.7702 9.85715 3.70508 9.91931 3.70508 9.99924C3.70508 10.0762 3.76724 10.1413 3.84717 10.1413H4.69383Z" fill="url(#paint53_linear_2437_126237)"/>
<path opacity="0.55" d="M19.105 9.85715C19.028 9.85715 18.9629 9.91931 18.9629 9.99924C18.9629 10.0762 19.0251 10.1413 19.105 10.1413H19.9516C20.0286 10.1413 20.0937 10.0792 20.0937 9.99924C20.0937 9.92227 20.0316 9.85715 19.9516 9.85715H19.105Z" fill="url(#paint54_linear_2437_126237)"/>
<path opacity="0.55" d="M21.79 9.99924C21.79 9.92227 21.7279 9.85715 21.6479 9.85715H20.8013C20.7243 9.85715 20.6592 9.91931 20.6592 9.99924C20.6592 10.0762 20.7213 10.1413 20.8013 10.1413H21.6479C21.7249 10.1413 21.79 10.0762 21.79 9.99924Z" fill="url(#paint55_linear_2437_126237)"/>
<path opacity="0.55" d="M15.7119 9.85715C15.635 9.85715 15.5698 9.91931 15.5698 9.99924C15.5698 10.0762 15.632 10.1413 15.7119 10.1413H16.5586C16.6356 10.1413 16.7007 10.0792 16.7007 9.99924C16.7007 9.92227 16.6385 9.85715 16.5586 9.85715H15.7119Z" fill="url(#paint56_linear_2437_126237)"/>
<path opacity="0.55" d="M11.8643 16.2515C11.8643 16.1745 11.8021 16.1094 11.7222 16.1094C11.6452 16.1094 11.5801 16.1716 11.5801 16.2515V17.0982C11.5801 17.1751 11.6422 17.2402 11.7222 17.2402C11.7991 17.2402 11.8643 17.1781 11.8643 17.0982V16.2515Z" fill="url(#paint57_linear_2437_126237)"/>
<path opacity="0.55" d="M11.7222 17.8057C11.6452 17.8057 11.5801 17.8679 11.5801 17.9478V18.7944C11.5801 18.8714 11.6422 18.9365 11.7222 18.9365C11.7991 18.9365 11.8643 18.8744 11.8643 18.7944V17.9478C11.8643 17.8679 11.8021 17.8057 11.7222 17.8057Z" fill="url(#paint58_linear_2437_126237)"/>
<path opacity="0.55" d="M11.5804 15.4052C11.5804 15.4822 11.6426 15.5473 11.7225 15.5473C11.7995 15.5473 11.8646 15.4851 11.8646 15.4052V14.9463C11.8853 14.9463 11.909 14.9463 11.9297 14.9463C12.0067 14.9493 12.0718 14.8871 12.0748 14.8102C12.0777 14.7332 12.0126 14.6681 11.9386 14.6651C11.9149 14.6651 11.8883 14.6651 11.8646 14.6651V14.5585C11.8646 14.4816 11.8024 14.4164 11.7225 14.4164C11.6455 14.4164 11.5804 14.4786 11.5804 14.5585V14.6621C11.4146 14.6621 11.2488 14.6651 11.0831 14.674C11.0061 14.677 10.9439 14.7421 10.9469 14.822C10.9498 14.8931 11.0061 14.9523 11.0771 14.9552C11.0831 14.9552 11.089 14.9552 11.0949 14.9552C11.2548 14.9493 11.4176 14.9523 11.5774 14.9523V15.4052H11.5804Z" fill="url(#paint59_linear_2437_126237)"/>
<path opacity="0.55" d="M11.7222 13.8506C11.7991 13.8506 11.8643 13.7885 11.8643 13.7085V12.8619C11.8643 12.7849 11.8021 12.7198 11.7222 12.7198C11.6452 12.7198 11.5801 12.782 11.5801 12.8619V13.7085C11.5801 13.7855 11.6452 13.8506 11.7222 13.8506Z" fill="url(#paint60_linear_2437_126237)"/>
<path opacity="0.55" d="M11.7222 1.98039C11.7991 1.98039 11.8643 1.91823 11.8643 1.8383V0.991643C11.8643 0.914674 11.8021 0.849548 11.7222 0.849548C11.6452 0.849548 11.5801 0.911714 11.5801 0.991643V1.8383C11.5801 1.91823 11.6452 1.98039 11.7222 1.98039Z" fill="url(#paint61_linear_2437_126237)"/>
<path opacity="0.55" d="M11.5801 3.53456C11.5801 3.61152 11.6422 3.67665 11.7222 3.67665C11.7991 3.67665 11.8643 3.61448 11.8643 3.53456V2.6879C11.8643 2.61093 11.8021 2.54581 11.7222 2.54581C11.6452 2.54581 11.5801 2.60797 11.5801 2.6879V3.53456Z" fill="url(#paint62_linear_2437_126237)"/>
<path opacity="0.55" d="M11.7222 5.93762C11.6452 5.93762 11.5801 5.99979 11.5801 6.07972V6.92638C11.5801 7.00334 11.6422 7.06847 11.7222 7.06847C11.7991 7.06847 11.8643 7.0063 11.8643 6.92638V6.07972C11.8643 5.99979 11.8021 5.93762 11.7222 5.93762Z" fill="url(#paint63_linear_2437_126237)"/>
</g>
<defs>
<linearGradient id="paint0_linear_2437_126237" x1="0.187194" y1="11.725" x2="15.5878" y2="-1.65043" gradientUnits="userSpaceOnUse">
<stop stop-color="#A8675F"/>
<stop offset="0.2053" stop-color="#BC7E67"/>
<stop offset="0.7402" stop-color="#ECB47B"/>
<stop offset="1" stop-color="#FFC983"/>
</linearGradient>
<linearGradient id="paint1_linear_2437_126237" x1="-1.25844" y1="10.0605" x2="14.1422" y2="-3.31498" gradientUnits="userSpaceOnUse">
<stop stop-color="#A8675F"/>
<stop offset="0.2053" stop-color="#BC7E67"/>
<stop offset="0.7402" stop-color="#ECB47B"/>
<stop offset="1" stop-color="#FFC983"/>
</linearGradient>
<linearGradient id="paint2_linear_2437_126237" x1="-1.72951" y1="9.51882" x2="13.6712" y2="-3.85676" gradientUnits="userSpaceOnUse">
<stop stop-color="#A8675F"/>
<stop offset="0.2053" stop-color="#BC7E67"/>
<stop offset="0.7402" stop-color="#ECB47B"/>
<stop offset="1" stop-color="#FFC983"/>
</linearGradient>
<linearGradient id="paint3_linear_2437_126237" x1="-0.61281" y1="10.8043" x2="14.7878" y2="-2.57113" gradientUnits="userSpaceOnUse">
<stop stop-color="#A8675F"/>
<stop offset="0.2053" stop-color="#BC7E67"/>
<stop offset="0.7402" stop-color="#ECB47B"/>
<stop offset="1" stop-color="#FFC983"/>
</linearGradient>
<linearGradient id="paint4_linear_2437_126237" x1="3.21237" y1="15.2085" x2="18.6128" y2="1.83312" gradientUnits="userSpaceOnUse">
<stop stop-color="#A8675F"/>
<stop offset="0.2053" stop-color="#BC7E67"/>
<stop offset="0.7402" stop-color="#ECB47B"/>
<stop offset="1" stop-color="#FFC983"/>
</linearGradient>
<linearGradient id="paint5_linear_2437_126237" x1="2.13315" y1="13.9657" x2="17.5339" y2="0.590122" gradientUnits="userSpaceOnUse">
<stop stop-color="#A8675F"/>
<stop offset="0.2053" stop-color="#BC7E67"/>
<stop offset="0.7402" stop-color="#ECB47B"/>
<stop offset="1" stop-color="#FFC983"/>
</linearGradient>
<linearGradient id="paint6_linear_2437_126237" x1="1.11289" y1="12.7915" x2="16.5135" y2="-0.583895" gradientUnits="userSpaceOnUse">
<stop stop-color="#A8675F"/>
<stop offset="0.2053" stop-color="#BC7E67"/>
<stop offset="0.7402" stop-color="#ECB47B"/>
<stop offset="1" stop-color="#FFC983"/>
</linearGradient>
<linearGradient id="paint7_linear_2437_126237" x1="-1.3286" y1="9.98056" x2="14.0721" y2="-3.39489" gradientUnits="userSpaceOnUse">
<stop stop-color="#A8675F"/>
<stop offset="0.2053" stop-color="#BC7E67"/>
<stop offset="0.7402" stop-color="#ECB47B"/>
<stop offset="1" stop-color="#FFC983"/>
</linearGradient>
<linearGradient id="paint8_linear_2437_126237" x1="-2.02435" y1="9.17874" x2="13.3762" y2="-4.19676" gradientUnits="userSpaceOnUse">
<stop stop-color="#A8675F"/>
<stop offset="0.2053" stop-color="#BC7E67"/>
<stop offset="0.7402" stop-color="#ECB47B"/>
<stop offset="1" stop-color="#FFC983"/>
</linearGradient>
<linearGradient id="paint9_linear_2437_126237" x1="0.818697" y1="12.4518" x2="16.2193" y2="-0.923781" gradientUnits="userSpaceOnUse">
<stop stop-color="#A8675F"/>
<stop offset="0.2053" stop-color="#BC7E67"/>
<stop offset="0.7402" stop-color="#ECB47B"/>
<stop offset="1" stop-color="#FFC983"/>
</linearGradient>
<linearGradient id="paint10_linear_2437_126237" x1="0.122669" y1="11.6507" x2="15.5233" y2="-1.72483" gradientUnits="userSpaceOnUse">
<stop stop-color="#A8675F"/>
<stop offset="0.2053" stop-color="#BC7E67"/>
<stop offset="0.7402" stop-color="#ECB47B"/>
<stop offset="1" stop-color="#FFC983"/>
</linearGradient>
<linearGradient id="paint11_linear_2437_126237" x1="1.75885" y1="13.535" x2="17.1596" y2="0.159368" gradientUnits="userSpaceOnUse">
<stop stop-color="#A8675F"/>
<stop offset="0.2053" stop-color="#BC7E67"/>
<stop offset="0.7402" stop-color="#ECB47B"/>
<stop offset="1" stop-color="#FFC983"/>
</linearGradient>
<linearGradient id="paint12_linear_2437_126237" x1="8.08806" y1="20.8219" x2="23.4885" y2="7.44646" gradientUnits="userSpaceOnUse">
<stop stop-color="#A8675F"/>
<stop offset="0.2053" stop-color="#BC7E67"/>
<stop offset="0.7402" stop-color="#ECB47B"/>
<stop offset="1" stop-color="#FFC983"/>
</linearGradient>
<linearGradient id="paint13_linear_2437_126237" x1="-0.652477" y1="10.7578" x2="14.7481" y2="-2.61768" gradientUnits="userSpaceOnUse">
<stop stop-color="#A8675F"/>
<stop offset="0.2053" stop-color="#BC7E67"/>
<stop offset="0.7402" stop-color="#ECB47B"/>
<stop offset="1" stop-color="#FFC983"/>
</linearGradient>
<linearGradient id="paint14_linear_2437_126237" x1="-1.7599" y1="9.4834" x2="13.6407" y2="-3.89202" gradientUnits="userSpaceOnUse">
<stop stop-color="#A8675F"/>
<stop offset="0.2053" stop-color="#BC7E67"/>
<stop offset="0.7402" stop-color="#ECB47B"/>
<stop offset="1" stop-color="#FFC983"/>
</linearGradient>
<linearGradient id="paint15_linear_2437_126237" x1="7.10935" y1="19.6953" x2="22.51" y2="6.3197" gradientUnits="userSpaceOnUse">
<stop stop-color="#A8675F"/>
<stop offset="0.2053" stop-color="#BC7E67"/>
<stop offset="0.7402" stop-color="#ECB47B"/>
<stop offset="1" stop-color="#FFC983"/>
</linearGradient>
<linearGradient id="paint16_linear_2437_126237" x1="10.259" y1="23.3212" x2="25.6597" y2="9.94573" gradientUnits="userSpaceOnUse">
<stop stop-color="#A8675F"/>
<stop offset="0.2053" stop-color="#BC7E67"/>
<stop offset="0.7402" stop-color="#ECB47B"/>
<stop offset="1" stop-color="#FFC983"/>
</linearGradient>
<linearGradient id="paint17_linear_2437_126237" x1="6.05524" y1="18.4799" x2="21.4556" y2="5.1047" gradientUnits="userSpaceOnUse">
<stop stop-color="#A8675F"/>
<stop offset="0.2053" stop-color="#BC7E67"/>
<stop offset="0.7402" stop-color="#ECB47B"/>
<stop offset="1" stop-color="#FFC983"/>
</linearGradient>
<linearGradient id="paint18_linear_2437_126237" x1="10.2946" y1="23.3626" x2="25.6951" y2="9.98716" gradientUnits="userSpaceOnUse">
<stop stop-color="#A8675F"/>
<stop offset="0.2053" stop-color="#BC7E67"/>
<stop offset="0.7402" stop-color="#ECB47B"/>
<stop offset="1" stop-color="#FFC983"/>
</linearGradient>
<linearGradient id="paint19_linear_2437_126237" x1="10.6458" y1="23.7674" x2="26.0462" y2="10.3921" gradientUnits="userSpaceOnUse">
<stop stop-color="#A8675F"/>
<stop offset="0.2053" stop-color="#BC7E67"/>
<stop offset="0.7402" stop-color="#ECB47B"/>
<stop offset="1" stop-color="#FFC983"/>
</linearGradient>
<linearGradient id="paint20_linear_2437_126237" x1="2.78105" y1="14.7119" x2="18.1816" y2="1.33639" gradientUnits="userSpaceOnUse">
<stop stop-color="#A8675F"/>
<stop offset="0.2053" stop-color="#BC7E67"/>
<stop offset="0.7402" stop-color="#ECB47B"/>
<stop offset="1" stop-color="#FFC983"/>
</linearGradient>
<linearGradient id="paint21_linear_2437_126237" x1="9.69918" y1="22.6788" x2="25.1" y2="9.30314" gradientUnits="userSpaceOnUse">
<stop stop-color="#A8675F"/>
<stop offset="0.2053" stop-color="#BC7E67"/>
<stop offset="0.7402" stop-color="#ECB47B"/>
<stop offset="1" stop-color="#FFC983"/>
</linearGradient>
<linearGradient id="paint22_linear_2437_126237" x1="6.4611" y1="18.9487" x2="21.8616" y2="5.57324" gradientUnits="userSpaceOnUse">
<stop stop-color="#A8675F"/>
<stop offset="0.2053" stop-color="#BC7E67"/>
<stop offset="0.7402" stop-color="#ECB47B"/>
<stop offset="1" stop-color="#FFC983"/>
</linearGradient>
<linearGradient id="paint23_linear_2437_126237" x1="8.96662" y1="21.8322" x2="24.3671" y2="8.45688" gradientUnits="userSpaceOnUse">
<stop stop-color="#A8675F"/>
<stop offset="0.2053" stop-color="#BC7E67"/>
<stop offset="0.7402" stop-color="#ECB47B"/>
<stop offset="1" stop-color="#FFC983"/>
</linearGradient>
<linearGradient id="paint24_linear_2437_126237" x1="7.44598" y1="20.0835" x2="22.8466" y2="6.70793" gradientUnits="userSpaceOnUse">
<stop stop-color="#A8675F"/>
<stop offset="0.2053" stop-color="#BC7E67"/>
<stop offset="0.7402" stop-color="#ECB47B"/>
<stop offset="1" stop-color="#FFC983"/>
</linearGradient>
<linearGradient id="paint25_linear_2437_126237" x1="10.6345" y1="23.754" x2="26.0351" y2="10.3785" gradientUnits="userSpaceOnUse">
<stop stop-color="#A8675F"/>
<stop offset="0.2053" stop-color="#BC7E67"/>
<stop offset="0.7402" stop-color="#ECB47B"/>
<stop offset="1" stop-color="#FFC983"/>
</linearGradient>
<linearGradient id="paint26_linear_2437_126237" x1="7.07181" y1="19.6509" x2="22.4723" y2="6.27551" gradientUnits="userSpaceOnUse">
<stop stop-color="#A8675F"/>
<stop offset="0.2053" stop-color="#BC7E67"/>
<stop offset="0.7402" stop-color="#ECB47B"/>
<stop offset="1" stop-color="#FFC983"/>
</linearGradient>
<linearGradient id="paint27_linear_2437_126237" x1="9.78333" y1="22.7747" x2="25.1839" y2="9.39933" gradientUnits="userSpaceOnUse">
<stop stop-color="#A8675F"/>
<stop offset="0.2053" stop-color="#BC7E67"/>
<stop offset="0.7402" stop-color="#ECB47B"/>
<stop offset="1" stop-color="#FFC983"/>
</linearGradient>
<linearGradient id="paint28_linear_2437_126237" x1="2.38565" y1="14.2566" x2="17.7864" y2="0.880846" gradientUnits="userSpaceOnUse">
<stop stop-color="#A8675F"/>
<stop offset="0.2053" stop-color="#BC7E67"/>
<stop offset="0.7402" stop-color="#ECB47B"/>
<stop offset="1" stop-color="#FFC983"/>
</linearGradient>
<linearGradient id="paint29_linear_2437_126237" x1="0.777576" y1="12.4046" x2="16.1782" y2="-0.97092" gradientUnits="userSpaceOnUse">
<stop stop-color="#A8675F"/>
<stop offset="0.2053" stop-color="#BC7E67"/>
<stop offset="0.7402" stop-color="#ECB47B"/>
<stop offset="1" stop-color="#FFC983"/>
</linearGradient>
<linearGradient id="paint30_linear_2437_126237" x1="1.66836" y1="13.4312" x2="17.069" y2="0.0557594" gradientUnits="userSpaceOnUse">
<stop stop-color="#A8675F"/>
<stop offset="0.2053" stop-color="#BC7E67"/>
<stop offset="0.7402" stop-color="#ECB47B"/>
<stop offset="1" stop-color="#FFC983"/>
</linearGradient>
<linearGradient id="paint31_linear_2437_126237" x1="7.96552" y1="20.6813" x2="23.3662" y2="7.30582" gradientUnits="userSpaceOnUse">
<stop stop-color="#A8675F"/>
<stop offset="0.2053" stop-color="#BC7E67"/>
<stop offset="0.7402" stop-color="#ECB47B"/>
<stop offset="1" stop-color="#FFC983"/>
</linearGradient>
<linearGradient id="paint32_linear_2437_126237" x1="6.34103" y1="18.8115" x2="21.7419" y2="5.4358" gradientUnits="userSpaceOnUse">
<stop stop-color="#A8675F"/>
<stop offset="0.2053" stop-color="#BC7E67"/>
<stop offset="0.7402" stop-color="#ECB47B"/>
<stop offset="1" stop-color="#FFC983"/>
</linearGradient>
<linearGradient id="paint33_linear_2437_126237" x1="1.23747" y1="12.9344" x2="16.6382" y2="-0.44114" gradientUnits="userSpaceOnUse">
<stop stop-color="#A8675F"/>
<stop offset="0.2053" stop-color="#BC7E67"/>
<stop offset="0.7402" stop-color="#ECB47B"/>
<stop offset="1" stop-color="#FFC983"/>
</linearGradient>
<linearGradient id="paint34_linear_2437_126237" x1="9.19273" y1="22.0927" x2="24.5933" y2="8.7172" gradientUnits="userSpaceOnUse">
<stop stop-color="#A8675F"/>
<stop offset="0.2053" stop-color="#BC7E67"/>
<stop offset="0.7402" stop-color="#ECB47B"/>
<stop offset="1" stop-color="#FFC983"/>
</linearGradient>
<linearGradient id="paint35_linear_2437_126237" x1="-0.97994" y1="10.3815" x2="14.4207" y2="-2.99384" gradientUnits="userSpaceOnUse">
<stop stop-color="#A8675F"/>
<stop offset="0.2053" stop-color="#BC7E67"/>
<stop offset="0.7402" stop-color="#ECB47B"/>
<stop offset="1" stop-color="#FFC983"/>
</linearGradient>
<linearGradient id="paint36_linear_2437_126237" x1="9.78228" y1="22.7725" x2="25.1829" y2="9.39691" gradientUnits="userSpaceOnUse">
<stop stop-color="#A8675F"/>
<stop offset="0.2053" stop-color="#BC7E67"/>
<stop offset="0.7402" stop-color="#ECB47B"/>
<stop offset="1" stop-color="#FFC983"/>
</linearGradient>
<linearGradient id="paint37_linear_2437_126237" x1="6.40256" y1="18.8821" x2="21.8021" y2="5.50758" gradientUnits="userSpaceOnUse">
<stop stop-color="#A8675F"/>
<stop offset="0.2053" stop-color="#BC7E67"/>
<stop offset="0.7402" stop-color="#ECB47B"/>
<stop offset="1" stop-color="#FFC983"/>
</linearGradient>
<linearGradient id="paint38_linear_2437_126237" x1="8.43075" y1="21.2153" x2="23.8314" y2="7.83983" gradientUnits="userSpaceOnUse">
<stop stop-color="#A8675F"/>
<stop offset="0.2053" stop-color="#BC7E67"/>
<stop offset="0.7402" stop-color="#ECB47B"/>
<stop offset="1" stop-color="#FFC983"/>
</linearGradient>
<linearGradient id="paint39_linear_2437_126237" x1="7.48798" y1="20.1312" x2="22.8882" y2="6.756" gradientUnits="userSpaceOnUse">
<stop stop-color="#A8675F"/>
<stop offset="0.2053" stop-color="#BC7E67"/>
<stop offset="0.7402" stop-color="#ECB47B"/>
<stop offset="1" stop-color="#FFC983"/>
</linearGradient>
<linearGradient id="paint40_linear_2437_126237" x1="-1.04783" y1="10.3029" x2="14.3528" y2="-3.07258" gradientUnits="userSpaceOnUse">
<stop stop-color="#A8675F"/>
<stop offset="0.2053" stop-color="#BC7E67"/>
<stop offset="0.7402" stop-color="#ECB47B"/>
<stop offset="1" stop-color="#FFC983"/>
</linearGradient>
<linearGradient id="paint41_linear_2437_126237" x1="-0.842503" y1="10.539" x2="14.5581" y2="-2.8364" gradientUnits="userSpaceOnUse">
<stop stop-color="#A8675F"/>
<stop offset="0.2053" stop-color="#BC7E67"/>
<stop offset="0.7402" stop-color="#ECB47B"/>
<stop offset="1" stop-color="#FFC983"/>
</linearGradient>
<linearGradient id="paint42_linear_2437_126237" x1="2.32263" y1="14.1835" x2="17.7234" y2="0.807889" gradientUnits="userSpaceOnUse">
<stop stop-color="#A8675F"/>
<stop offset="0.2053" stop-color="#BC7E67"/>
<stop offset="0.7402" stop-color="#ECB47B"/>
<stop offset="1" stop-color="#FFC983"/>
</linearGradient>
<linearGradient id="paint43_linear_2437_126237" x1="9.58089" y1="22.541" x2="24.9815" y2="9.16553" gradientUnits="userSpaceOnUse">
<stop stop-color="#A8675F"/>
<stop offset="0.2053" stop-color="#BC7E67"/>
<stop offset="0.7402" stop-color="#ECB47B"/>
<stop offset="1" stop-color="#FFC983"/>
</linearGradient>
<linearGradient id="paint44_linear_2437_126237" x1="0.303057" y1="11.8592" x2="15.7037" y2="-1.51631" gradientUnits="userSpaceOnUse">
<stop stop-color="#A8675F"/>
<stop offset="0.2053" stop-color="#BC7E67"/>
<stop offset="0.7402" stop-color="#ECB47B"/>
<stop offset="1" stop-color="#FFC983"/>
</linearGradient>
<linearGradient id="paint45_linear_2437_126237" x1="1.19869" y1="12.8897" x2="16.5993" y2="-0.485797" gradientUnits="userSpaceOnUse">
<stop stop-color="#A8675F"/>
<stop offset="0.2053" stop-color="#BC7E67"/>
<stop offset="0.7402" stop-color="#ECB47B"/>
<stop offset="1" stop-color="#FFC983"/>
</linearGradient>
<linearGradient id="paint46_linear_2437_126237" x1="2.63955" y1="14.5478" x2="18.04" y2="1.17227" gradientUnits="userSpaceOnUse">
<stop stop-color="#A8675F"/>
<stop offset="0.2053" stop-color="#BC7E67"/>
<stop offset="0.7402" stop-color="#ECB47B"/>
<stop offset="1" stop-color="#FFC983"/>
</linearGradient>
<linearGradient id="paint47_linear_2437_126237" x1="1.83756" y1="13.6249" x2="17.2381" y2="0.249513" gradientUnits="userSpaceOnUse">
<stop stop-color="#A8675F"/>
<stop offset="0.2053" stop-color="#BC7E67"/>
<stop offset="0.7402" stop-color="#ECB47B"/>
<stop offset="1" stop-color="#FFC983"/>
</linearGradient>
<linearGradient id="paint48_linear_2437_126237" x1="8.25143" y1="21.0104" x2="23.6519" y2="7.63508" gradientUnits="userSpaceOnUse">
<stop stop-color="#A8675F"/>
<stop offset="0.2053" stop-color="#BC7E67"/>
<stop offset="0.7402" stop-color="#ECB47B"/>
<stop offset="1" stop-color="#FFC983"/>
</linearGradient>
<linearGradient id="paint49_linear_2437_126237" x1="5.93154" y1="18.339" x2="21.3321" y2="4.96339" gradientUnits="userSpaceOnUse">
<stop stop-color="#A8675F"/>
<stop offset="0.2053" stop-color="#BC7E67"/>
<stop offset="0.7402" stop-color="#ECB47B"/>
<stop offset="1" stop-color="#FFC983"/>
</linearGradient>
<linearGradient id="paint50_linear_2437_126237" x1="7.36277" y1="19.9873" x2="22.7634" y2="6.61163" gradientUnits="userSpaceOnUse">
<stop stop-color="#A8675F"/>
<stop offset="0.2053" stop-color="#BC7E67"/>
<stop offset="0.7402" stop-color="#ECB47B"/>
<stop offset="1" stop-color="#FFC983"/>
</linearGradient>
<linearGradient id="paint51_linear_2437_126237" x1="2.5457" y1="14.4413" x2="17.9466" y2="1.06564" gradientUnits="userSpaceOnUse">
<stop stop-color="#A8675F"/>
<stop offset="0.2053" stop-color="#BC7E67"/>
<stop offset="0.7402" stop-color="#ECB47B"/>
<stop offset="1" stop-color="#FFC983"/>
</linearGradient>
<linearGradient id="paint52_linear_2437_126237" x1="0.359623" y1="11.9231" x2="15.7603" y2="-1.45234" gradientUnits="userSpaceOnUse">
<stop stop-color="#A8675F"/>
<stop offset="0.2053" stop-color="#BC7E67"/>
<stop offset="0.7402" stop-color="#ECB47B"/>
<stop offset="1" stop-color="#FFC983"/>
</linearGradient>
<linearGradient id="paint53_linear_2437_126237" x1="1.08765" y1="12.7625" x2="16.4885" y2="-0.613111" gradientUnits="userSpaceOnUse">
<stop stop-color="#A8675F"/>
<stop offset="0.2053" stop-color="#BC7E67"/>
<stop offset="0.7402" stop-color="#ECB47B"/>
<stop offset="1" stop-color="#FFC983"/>
</linearGradient>
<linearGradient id="paint54_linear_2437_126237" x1="7.64897" y1="20.3171" x2="23.0499" y2="6.94158" gradientUnits="userSpaceOnUse">
<stop stop-color="#A8675F"/>
<stop offset="0.2053" stop-color="#BC7E67"/>
<stop offset="0.7402" stop-color="#ECB47B"/>
<stop offset="1" stop-color="#FFC983"/>
</linearGradient>
<linearGradient id="paint55_linear_2437_126237" x1="8.37815" y1="21.1563" x2="23.7788" y2="7.78087" gradientUnits="userSpaceOnUse">
<stop stop-color="#A8675F"/>
<stop offset="0.2053" stop-color="#BC7E67"/>
<stop offset="0.7402" stop-color="#ECB47B"/>
<stop offset="1" stop-color="#FFC983"/>
</linearGradient>
<linearGradient id="paint56_linear_2437_126237" x1="6.19039" y1="18.6383" x2="21.5913" y2="5.26264" gradientUnits="userSpaceOnUse">
<stop stop-color="#A8675F"/>
<stop offset="0.2053" stop-color="#BC7E67"/>
<stop offset="0.7402" stop-color="#ECB47B"/>
<stop offset="1" stop-color="#FFC983"/>
</linearGradient>
<linearGradient id="paint57_linear_2437_126237" x1="7.59788" y1="20.2578" x2="22.9985" y2="6.88234" gradientUnits="userSpaceOnUse">
<stop stop-color="#A8675F"/>
<stop offset="0.2053" stop-color="#BC7E67"/>
<stop offset="0.7402" stop-color="#ECB47B"/>
<stop offset="1" stop-color="#FFC983"/>
</linearGradient>
<linearGradient id="paint58_linear_2437_126237" x1="8.4373" y1="21.2243" x2="23.8379" y2="7.84898" gradientUnits="userSpaceOnUse">
<stop stop-color="#A8675F"/>
<stop offset="0.2053" stop-color="#BC7E67"/>
<stop offset="0.7402" stop-color="#ECB47B"/>
<stop offset="1" stop-color="#FFC983"/>
</linearGradient>
<linearGradient id="paint59_linear_2437_126237" x1="6.68602" y1="19.2078" x2="22.0866" y2="5.8324" gradientUnits="userSpaceOnUse">
<stop stop-color="#A8675F"/>
<stop offset="0.2053" stop-color="#BC7E67"/>
<stop offset="0.7402" stop-color="#ECB47B"/>
<stop offset="1" stop-color="#FFC983"/>
</linearGradient>
<linearGradient id="paint60_linear_2437_126237" x1="5.91912" y1="18.3248" x2="21.3199" y2="4.9494" gradientUnits="userSpaceOnUse">
<stop stop-color="#A8675F"/>
<stop offset="0.2053" stop-color="#BC7E67"/>
<stop offset="0.7402" stop-color="#ECB47B"/>
<stop offset="1" stop-color="#FFC983"/>
</linearGradient>
<linearGradient id="paint61_linear_2437_126237" x1="0.0434571" y1="11.5601" x2="15.4441" y2="-1.81529" gradientUnits="userSpaceOnUse">
<stop stop-color="#A8675F"/>
<stop offset="0.2053" stop-color="#BC7E67"/>
<stop offset="0.7402" stop-color="#ECB47B"/>
<stop offset="1" stop-color="#FFC983"/>
</linearGradient>
<linearGradient id="paint62_linear_2437_126237" x1="0.882969" y1="12.5265" x2="16.2834" y2="-0.848751" gradientUnits="userSpaceOnUse">
<stop stop-color="#A8675F"/>
<stop offset="0.2053" stop-color="#BC7E67"/>
<stop offset="0.7402" stop-color="#ECB47B"/>
<stop offset="1" stop-color="#FFC983"/>
</linearGradient>
<linearGradient id="paint63_linear_2437_126237" x1="2.5617" y1="14.4588" x2="17.9622" y2="1.08352" gradientUnits="userSpaceOnUse">
<stop stop-color="#A8675F"/>
<stop offset="0.2053" stop-color="#BC7E67"/>
<stop offset="0.7402" stop-color="#ECB47B"/>
<stop offset="1" stop-color="#FFC983"/>
</linearGradient>
</defs>
</svg>
