<svg width="24" height="24" viewBox="0 0 24 24" fill="none" xmlns="http://www.w3.org/2000/svg">
<path fill-rule="evenodd" clip-rule="evenodd" d="M11.948 10.9067C10.532 10.3283 9.53334 8.9341 9.53788 7.31189C9.53788 7.31126 9.53789 7.31063 9.53789 7.31C9.53789 7.309 9.53789 7.308 9.53789 7.307C9.53951 5.16737 11.2809 3.428 13.4209 3.428C15.5609 3.428 17.3019 5.169 17.3019 7.31C17.3019 8.93957 16.2924 10.3384 14.8659 10.9129C14.5207 11.0519 14.1512 11.1427 13.7656 11.1768C13.652 11.1869 13.537 11.192 13.4209 11.192V11.906L13.3919 11.192C13.3909 11.192 13.3899 11.192 13.3889 11.192C12.8795 11.1897 12.3931 11.0885 11.948 10.9067ZM12.0167 12.4346C9.76155 11.8219 8.10287 9.75437 8.10988 7.31C8.10988 7.309 8.10988 7.308 8.10989 7.307C8.10989 7.30644 8.10989 7.30588 8.10989 7.30532C8.1108 4.38109 10.4924 2 13.4209 2C16.3489 2 18.7299 4.382 18.7299 7.31C18.7299 9.75149 17.0744 11.8126 14.8267 12.4302C14.3788 12.5533 13.9074 12.619 13.4209 12.619H13.3889C13.3881 12.619 13.3873 12.619 13.3865 12.619C12.9127 12.6173 12.4535 12.5532 12.0167 12.4346ZM7.38038 20.5052C7.42017 20.502 7.46007 20.5004 7.49999 20.5004H17.75C18.7165 20.5004 19.5 19.7169 19.5 18.7504C19.5 17.7839 18.7165 17.0004 17.75 17.0004H11.5C9.03587 17.0004 7.18888 16.091 5.8545 14.7156C6.0609 16.7346 6.34278 18.1535 6.66012 19.1229C6.93715 19.9691 7.19729 20.3316 7.33419 20.465C7.35416 20.4844 7.36961 20.4971 7.38038 20.5052ZM4.15684 12.2382C4.12337 11.6553 4.09492 11.0403 4.07183 10.3914C4.05899 10.0308 4.0478 9.65974 4.03833 9.278C4.03761 9.24925 4.03691 9.22043 4.03621 9.19156C4.0288 8.88344 4.53788 8.82642 4.617 9.1243C4.62168 9.14194 4.6264 9.15959 4.63115 9.17725C4.72635 9.53139 4.83406 9.88924 4.95697 10.2451C5.14496 10.7893 5.36853 11.3289 5.63737 11.8433C6.6947 13.8664 8.45233 15.5004 11.5 15.5004H17.75C19.5449 15.5004 21 16.9555 21 18.7504C21 20.5453 19.5449 22.0004 17.75 22.0004H7.49999C6.00062 22.1367 4.61273 20.1773 4.15684 12.2382Z" fill="#474953"/>
</svg>
