<svg width="24" height="24" viewBox="0 0 24 24" fill="none" xmlns="http://www.w3.org/2000/svg">
<path d="M10.2879 7.31246H10.2879V7.31C10.2879 5.58346 11.6938 4.178 13.4209 4.178C15.1465 4.178 16.5519 5.58309 16.5519 7.31C16.5519 9.03604 15.1464 10.442 13.4209 10.442C13.416 10.442 13.4112 10.442 13.4063 10.4421C13.4025 10.4421 13.3986 10.442 13.3947 10.442C11.6767 10.4356 10.2822 9.03234 10.2879 7.31246ZM7.49999 21.2504C7.47732 21.2504 7.45467 21.2514 7.43209 21.2535C7.23805 21.2711 7.04217 21.2275 6.81087 21.0022C6.55065 20.7487 6.2421 20.2566 5.94734 19.3562C5.47486 17.9129 5.09423 15.6021 4.89708 12.0432C5.23815 12.7212 5.6544 13.3712 6.16699 13.9498C7.37992 15.3189 9.10078 16.2504 11.5 16.2504H17.75C19.1307 16.2504 20.25 17.3697 20.25 18.7504C20.25 20.1311 19.1307 21.2504 17.75 21.2504H7.49999Z" fill="#3488ED" stroke="#3488ED" stroke-width="1.5" stroke-linecap="round" stroke-linejoin="round"/>
</svg>
