<svg width="40" height="40" viewBox="0 0 40 40" fill="none" xmlns="http://www.w3.org/2000/svg">
<path d="M21.25 26.4379L26.125 27.3754L30.125 6.81286C30.375 5.43786 29.5 4.06286 28.1875 3.81286C26.8125 3.56286 25.5 4.50036 25.25 5.87536L21.25 26.4379Z" fill="#FFDB5E"/>
<path d="M28.2501 3.8125C28.0626 3.75 27.9376 3.75 27.7501 3.75C28.8751 4.1875 29.5001 5.375 29.2501 6.625L25.2501 27.1875L26.1251 27.375L30.1251 6.8125C30.4376 5.375 29.5626 4.0625 28.2501 3.8125Z" fill="#EF9645"/>
<path d="M16.25 27.0625H22.125V4.375C22.125 2.6875 20.8125 1.25 19.1875 1.25C17.625 1.25 16.25 2.625 16.25 4.375V27.0625Z" fill="#FFDB5E"/>
<path d="M19.2499 1.25C19.1249 1.25 18.9374 1.25 18.8124 1.3125C20.2499 1.5625 21.3124 2.8125 21.3124 4.375V27.125H22.1874V4.375C22.1874 2.625 20.8749 1.25 19.2499 1.25Z" fill="#EF9645"/>
<path d="M13.125 26.9997L18.125 25.6872L12.6875 4.9997C12.3125 3.5622 10.875 2.6872 9.49995 2.9997C8.12495 3.3747 7.31245 4.8122 7.68745 6.2497L13.125 26.9997Z" fill="#FFDB5E"/>
<path d="M9.49994 2.9997L9.12494 3.1872C10.3749 3.1247 11.4999 3.9372 11.8749 5.2497L17.3124 25.9372L18.1874 25.6872L12.6874 4.9997C12.3124 3.5622 10.8749 2.6872 9.49994 2.9997Z" fill="#EF9645"/>
<path d="M2.50007 8.37502C1.31257 8.93752 0.937569 10.4375 1.56257 11.6875L9.81257 28.125L14.0001 26L5.75007 9.56252C5.12507 8.31252 3.68757 7.81252 2.50007 8.37502Z" fill="#FFDB5E"/>
<path d="M2.50006 8.37502C2.37506 8.43752 2.25006 8.50002 2.12506 8.62502C3.18756 8.31252 4.37506 8.87502 4.93756 10L13.1876 26.4375L14.0001 26.0625L5.75006 9.56252C5.12506 8.31252 3.68756 7.81252 2.50006 8.37502Z" fill="#EF9645"/>
<path d="M38.5626 18.3123C37.5626 16.3748 34.4376 16.4998 31.2501 19.9998C29.0001 22.4373 28.5626 23.2498 26.3126 23.1873V20.6248C26.3126 20.6248 21.5001 17.0623 11.9376 18.6873C11.9376 18.6873 6.50007 19.4373 6.50007 22.3123C6.50007 22.3123 5.56257 29.2498 7.50007 33.6248C10.3751 40.1248 25.1251 41.8123 29.7501 30.7498C30.6876 28.5623 32.5626 26.9373 34.2501 24.8748C36.1876 22.3748 39.6251 20.3748 38.5626 18.3123Z" fill="#FFDB5E"/>
<path d="M38.5624 18.3125C38.3749 17.9375 38.1249 17.6875 37.8124 17.4375C37.8749 17.5 37.9374 17.5625 37.9374 17.6875C38.9999 19.8125 35.5624 21.75 33.4999 24.25C31.8124 26.3125 29.9374 27.9375 28.9999 30.125C24.9999 39.6875 13.3749 39.6875 8.49994 35.3125C12.9374 40.3125 25.4374 40.8125 29.6249 30.75C30.5624 28.5625 32.4374 26.9375 34.1249 24.875C36.1874 22.375 39.6249 20.375 38.5624 18.3125Z" fill="#EF9645"/>
<path d="M26.9375 23.1874C22.875 21.6874 15.625 24.4374 16.625 31.7498C16.625 24.9374 22.8125 23.2499 26.1875 23.2499C26.6875 23.1874 26.9375 23.1874 26.9375 23.1874Z" fill="#EF9645"/>
</svg>
