<svg width="32" height="32" viewBox="0 0 32 32" fill="none" xmlns="http://www.w3.org/2000/svg">
<path d="M17.6378 5.33835C16.6615 5.33835 15.6851 5.33835 14.7087 5.33835C14.561 5.33835 14.4132 5.33835 14.2655 5.33835C10.5427 5.33835 6.81992 5.33835 3.09461 5.33835C2.86178 5.33835 2.6665 5.55366 2.6665 5.80902C2.6665 11.7225 2.6665 17.6334 2.6665 23.5468C2.6665 23.7997 2.86428 24.0175 3.09461 24.0175C6.67472 24.0175 10.2548 24.0175 13.8374 24.0175C13.8374 24.9188 13.8374 25.8175 13.8374 26.7188C13.8374 27.0443 14.213 27.3447 14.4834 27.1244C14.7863 26.8791 15.0892 26.6312 15.3921 26.3834C15.615 26.2031 15.8378 26.0203 16.0606 25.8376C16.1182 25.7925 16.2008 25.7399 16.2709 25.6899C16.3135 25.7199 16.356 25.7499 16.3861 25.78C16.5813 25.9753 16.8192 26.1355 17.0295 26.3082C17.3599 26.5786 17.6879 26.849 18.0184 27.1194C18.2012 27.2696 18.3839 27.2145 18.5016 27.0768C18.5967 27.0017 18.6643 26.8841 18.6643 26.7138C18.6643 25.8125 18.6643 24.9138 18.6643 24.0125C22.1918 24.0125 25.7219 24.0125 29.2519 24.0125C29.3771 24.0125 29.4722 23.9624 29.5423 23.8873C29.5473 23.8823 29.5523 23.8773 29.5573 23.8723C29.5598 23.8698 29.5623 23.8673 29.5648 23.8623C29.6349 23.7871 29.68 23.682 29.68 23.5418C29.68 17.6284 29.68 11.7174 29.68 5.80401C29.68 5.55115 29.4847 5.33334 29.2519 5.33334C25.5792 5.33334 21.9089 5.33334 18.2362 5.33334C18.0359 5.33834 17.8356 5.33835 17.6378 5.33835ZM13.8374 23.0736C10.4 23.0736 6.96263 23.0736 3.52523 23.0736C3.52523 17.4731 3.52523 11.8752 3.52523 6.27468C6.96263 6.27468 10.4 6.27468 13.8374 6.27468C13.8374 11.8752 13.8374 17.4757 13.8374 23.0736ZM17.8056 25.78C17.36 25.4145 16.9168 25.0515 16.4712 24.6859C16.361 24.5958 16.1482 24.5958 16.0381 24.6859C15.5899 25.0515 15.1393 25.417 14.6911 25.7825C14.6911 19.2807 14.6911 12.7764 14.6911 6.27468C14.6962 6.27468 14.7012 6.27468 14.7062 6.27468C15.6826 6.27468 16.659 6.27468 17.6353 6.27468C17.6929 6.27468 17.748 6.27468 17.8056 6.27468C17.8056 12.779 17.8056 19.2807 17.8056 25.78ZM18.6643 6.27719C22.0491 6.27719 25.4365 6.27719 28.8213 6.27719C28.8213 11.8777 28.8213 17.4756 28.8213 23.0761C25.4365 23.0761 22.0491 23.0761 18.6643 23.0761C18.6643 17.4756 18.6643 11.8752 18.6643 6.27719Z" fill="#252733"/>
<path d="M5.47325 10.6872C7.49363 10.6872 9.51151 10.6872 11.5319 10.6872C11.8999 10.6872 11.8999 10.0613 11.5319 10.0613C9.51151 10.0613 7.49363 10.0613 5.47325 10.0613C5.10522 10.0613 5.10272 10.6872 5.47325 10.6872Z" fill="#252733"/>
<path d="M5.47325 13.3186C7.49363 13.3186 9.51151 13.3186 11.5319 13.3186C11.8999 13.3186 11.8999 12.6928 11.5319 12.6928C9.51151 12.6928 7.49363 12.6928 5.47325 12.6928C5.10522 12.6928 5.10272 13.3186 5.47325 13.3186Z" fill="#252733"/>
<path d="M5.47325 15.9501C7.49363 15.9501 9.51151 15.9501 11.5319 15.9501C11.8999 15.9501 11.8999 15.3242 11.5319 15.3242C9.51151 15.3242 7.49363 15.3242 5.47325 15.3242C5.10522 15.3242 5.10272 15.9501 5.47325 15.9501Z" fill="#252733"/>
<path d="M5.47325 18.5836C7.49363 18.5836 9.51151 18.5836 11.5319 18.5836C11.8999 18.5836 11.8999 17.9577 11.5319 17.9577C9.51151 17.9577 7.49363 17.9577 5.47325 17.9577C5.10522 17.9577 5.10272 18.5836 5.47325 18.5836Z" fill="#252733"/>
<path d="M26.9064 10.0613C24.886 10.0613 22.8682 10.0613 20.8478 10.0613C20.4798 10.0613 20.4798 10.6872 20.8478 10.6872C22.8682 10.6872 24.886 10.6872 26.9064 10.6872C27.2745 10.6872 27.2745 10.0613 26.9064 10.0613Z" fill="#252733"/>
<path d="M26.9064 12.6928C24.886 12.6928 22.8682 12.6928 20.8478 12.6928C20.4798 12.6928 20.4798 13.3186 20.8478 13.3186C22.8682 13.3186 24.886 13.3186 26.9064 13.3186C27.2745 13.3186 27.2745 12.6928 26.9064 12.6928Z" fill="#252733"/>
<path d="M26.9064 15.3242C24.886 15.3242 22.8682 15.3242 20.8478 15.3242C20.4798 15.3242 20.4798 15.9501 20.8478 15.9501C22.8682 15.9501 24.886 15.9501 26.9064 15.9501C27.2745 15.9501 27.2745 15.3242 26.9064 15.3242Z" fill="#252733"/>
<path d="M26.9064 17.9577C24.886 17.9577 22.8682 17.9577 20.8478 17.9577C20.4798 17.9577 20.4798 18.5836 20.8478 18.5836C22.8682 18.5836 24.886 18.5836 26.9064 18.5836C27.2745 18.5836 27.2745 17.9577 26.9064 17.9577Z" fill="#252733"/>
</svg>
