<svg width="17" height="21" viewBox="0 0 17 21" fill="none" xmlns="http://www.w3.org/2000/svg">
<path fill-rule="evenodd" clip-rule="evenodd" d="M7.94799 8.9067C6.53195 8.32834 5.53334 6.9341 5.53788 5.31189C5.53788 5.31126 5.53789 5.31063 5.53789 5.31C5.53789 5.309 5.53789 5.308 5.53789 5.307C5.53951 3.16737 7.28089 1.428 9.42089 1.428C11.5609 1.428 13.3019 3.169 13.3019 5.31C13.3019 6.93957 12.2924 8.33835 10.8659 8.91292C10.5207 9.05194 10.1512 9.14271 9.76557 9.17682C9.65199 9.18687 9.53703 9.192 9.42089 9.192V9.906L9.39189 9.192C9.39089 9.192 9.38989 9.19199 9.38889 9.19199C8.87947 9.18969 8.3931 9.0885 7.94799 8.9067ZM8.0167 10.4346C5.76155 9.8219 4.10287 7.75437 4.10988 5.31C4.10988 5.309 4.10988 5.308 4.10989 5.307C4.10989 5.30644 4.10989 5.30588 4.10989 5.30532C4.1108 2.38109 6.49245 0 9.42089 0C12.3489 0 14.7299 2.382 14.7299 5.31C14.7299 7.75149 13.0744 9.81265 10.8267 10.4302C10.3788 10.5533 9.9074 10.619 9.42089 10.619H9.38889C9.3881 10.619 9.38732 10.619 9.38653 10.619C8.91272 10.6173 8.45352 10.5532 8.0167 10.4346ZM3.38038 18.5052C3.42017 18.502 3.46007 18.5004 3.49999 18.5004H13.75C14.7165 18.5004 15.5 17.7169 15.5 16.7504C15.5 15.7839 14.7165 15.0004 13.75 15.0004H7.49999C5.03587 15.0004 3.18888 14.091 1.8545 12.7156C2.0609 14.7346 2.34278 16.1535 2.66012 17.1229C2.93715 17.9691 3.19729 18.3316 3.33419 18.465C3.35416 18.4844 3.36961 18.4971 3.38038 18.5052ZM0.15684 10.2382C0.12337 9.65535 0.0949239 9.04026 0.0718258 8.39141C0.0589885 8.03079 0.0478031 7.65974 0.0383255 7.278C0.0376116 7.24925 0.0369074 7.22043 0.0362129 7.19156C0.0288024 6.88344 0.537876 6.82642 0.616997 7.1243C0.621683 7.14194 0.6264 7.15959 0.631148 7.17725C0.726352 7.53139 0.834058 7.88924 0.956975 8.2451C1.14496 8.78933 1.36853 9.32888 1.63737 9.84327C2.6947 11.8664 4.45233 13.5004 7.49999 13.5004H13.75C15.5449 13.5004 17 14.9555 17 16.7504C17 18.5453 15.5449 20.0004 13.75 20.0004H3.49999C2.00062 20.1367 0.612728 18.1773 0.15684 10.2382Z" fill="#474953"/>
</svg>
