<svg width="20" height="20" viewBox="0 0 20 20" fill="none" xmlns="http://www.w3.org/2000/svg">
<path fill-rule="evenodd" clip-rule="evenodd" d="M5.63739 1.395C3.06039 1.395 1.39539 3.162 1.39539 5.888V14.102C1.39539 14.867 1.53739 15.55 1.78039 16.141C1.79088 16.1285 2.01974 15.8496 2.31828 15.4858C2.90176 14.7747 3.75144 13.7393 3.75739 13.734C4.44939 12.944 5.74839 11.766 7.45339 12.479C7.827 12.6339 8.1591 12.8461 8.4648 13.0415C8.49458 13.0605 8.5241 13.0794 8.55339 13.098C9.12639 13.481 9.46339 13.661 9.81339 13.631C9.95839 13.611 10.0944 13.568 10.2234 13.488C10.71 13.188 11.9716 11.4004 12.3494 10.8651C12.4048 10.7866 12.4412 10.735 12.4534 10.719C13.5434 9.299 15.2234 8.919 16.6234 9.759C16.8114 9.871 18.1584 10.812 18.6044 11.19V5.888C18.6044 3.162 16.9394 1.395 14.3534 1.395H5.63739ZM14.3534 0C17.7304 0 19.9994 2.362 19.9994 5.888V14.102C19.9994 14.1907 19.9901 14.2738 19.9808 14.357C19.9742 14.4154 19.9677 14.4737 19.9644 14.534C19.9622 14.5704 19.9612 14.6069 19.9602 14.6433C19.9588 14.6919 19.9574 14.7404 19.9534 14.789C19.9514 14.808 19.9476 14.8263 19.9439 14.8445C19.9401 14.8627 19.9364 14.881 19.9344 14.9C19.9014 15.214 19.8504 15.514 19.7794 15.805C19.7626 15.8777 19.7432 15.9478 19.7237 16.0186L19.7194 16.034C19.6394 16.316 19.5454 16.585 19.4324 16.842C19.4126 16.8852 19.3917 16.9273 19.3708 16.9695C19.3569 16.9975 19.343 17.0256 19.3294 17.054C19.2074 17.299 19.0754 17.534 18.9224 17.752C18.8941 17.7924 18.864 17.8302 18.8338 17.8681C18.8138 17.8931 18.7939 17.9181 18.7744 17.944C18.6154 18.15 18.4494 18.347 18.2614 18.526C18.2239 18.5617 18.1833 18.5944 18.1427 18.627C18.1174 18.6474 18.092 18.6678 18.0674 18.689C17.8744 18.855 17.6774 19.014 17.4604 19.15C17.413 19.1798 17.3627 19.2047 17.3126 19.2296C17.2802 19.2457 17.2478 19.2617 17.2164 19.279C16.9954 19.401 16.7724 19.52 16.5294 19.612C16.4709 19.6342 16.4087 19.6503 16.3463 19.6664C16.302 19.6778 16.2576 19.6893 16.2144 19.703C16.1928 19.7097 16.1711 19.7164 16.1495 19.7231C15.9325 19.7907 15.7161 19.858 15.4824 19.898C15.347 19.9217 15.2033 19.9308 15.0595 19.94C14.9972 19.9439 14.935 19.9479 14.8734 19.953C14.8072 19.9579 14.7422 19.9659 14.6772 19.9739C14.5715 19.987 14.4655 20 14.3534 20H5.63739C5.26139 20 4.90239 19.962 4.55539 19.905C4.54239 19.903 4.53039 19.901 4.51839 19.899C3.16539 19.666 2.04239 19.013 1.25539 18.028C1.24992 18.028 1.24778 18.0243 1.24492 18.0194C1.24307 18.0162 1.24092 18.0125 1.23739 18.009C0.44639 17.013 -0.000610352 15.674 -0.000610352 14.102V5.888C-0.000610352 2.362 2.27039 0 5.63739 0H14.3534ZM8.99999 6.51456C8.99999 7.86951 7.86627 8.9996 6.50483 8.9996C5.30813 8.9996 4.28778 8.12525 4.0591 6.99323C4.02131 6.82338 3.99999 6.6487 3.99999 6.46824C3.99999 5.10363 5.10852 3.9996 6.47867 3.9996C7.17635 3.9996 7.80813 4.29298 8.26065 4.76104C8.71511 5.21269 8.99999 5.83515 8.99999 6.51456Z" fill="#75767E"/>
</svg>
