<svg width="184" height="46" viewBox="0 0 184 46" fill="none" xmlns="http://www.w3.org/2000/svg">
<path d="M57.788 11.1003C56.6635 10.4481 55.4414 10.0322 54.2141 9.62654C52.8123 9.1644 51.4002 8.73821 50.0138 8.24526C47.9753 7.5161 48.2269 5.23108 49.2795 4.2914C49.7006 3.91141 50.1781 3.6444 50.707 3.47495C53.259 2.65337 56.037 3.69061 57.4337 5.98591C58.0139 6.941 58.3477 7.99365 58.6353 9.0617C58.7226 9.3852 58.8355 9.74978 59.2515 9.69329C59.6622 9.63681 59.6879 9.27223 59.6879 8.9282C59.6777 7.12585 59.6725 5.31837 59.6674 3.51603C59.6674 3.15145 59.6263 2.78688 59.195 2.68931C58.7431 2.59175 58.5531 2.88444 58.3888 3.25928C58.0191 4.11168 57.5518 4.25545 56.7251 3.80358C56.494 3.67521 56.2732 3.51603 56.0473 3.37739C54.7071 2.55067 53.2847 1.96529 51.698 1.79584C48.9098 1.50315 46.4297 3.17199 45.6954 5.88321C45.6543 6.02185 45.7108 6.22725 45.5054 6.29914C45.5054 6.42237 45.5054 6.54561 45.5054 6.66885C45.6851 6.99748 45.7056 7.32611 45.5054 7.65475C45.5054 7.69582 45.5054 7.7369 45.5054 7.77798C45.5978 7.80879 45.6183 7.88068 45.6286 7.96284C45.9059 9.83707 47.0253 11.1054 48.5966 12.0348C49.6749 12.6767 50.8457 13.1183 52.0113 13.565C53.4439 14.1144 54.9587 14.4431 56.34 15.1311C57.5518 15.7319 58.0448 16.8256 57.8291 18.2121C57.6494 19.388 56.8124 20.2609 55.5338 20.4509C53.2488 20.7898 51.2308 20.1325 49.5157 18.6023C47.9958 17.2467 47.2358 15.4803 46.8815 13.5136C46.8148 13.1542 46.6761 12.8564 46.2705 12.8821C45.8545 12.9077 45.7673 13.2312 45.7724 13.5958C45.7827 16.1376 45.7827 18.6793 45.7929 21.2262C45.7929 21.5395 45.8135 21.8681 46.2037 21.9554C46.5888 22.0376 46.8096 21.8322 46.9739 21.5035C47.8161 19.8398 48.6274 19.5985 50.2859 20.5074C51.4208 21.1338 52.6069 21.6268 53.8906 21.8732C57.0075 22.4792 60.0422 20.5844 60.7303 17.6062C61.3362 14.9925 60.2168 12.5072 57.788 11.1003Z" fill="#C03A30"/>
<path d="M45.5059 6.66895C45.5059 6.99758 45.5059 7.32621 45.5059 7.65484C45.6086 7.32621 45.6086 6.99758 45.5059 6.66895Z" fill="#D8999B"/>
<path d="M45.5059 6.66895C45.6086 6.99758 45.6086 7.32621 45.5059 7.65484C45.7061 7.32621 45.6856 6.99758 45.5059 6.66895Z" fill="#D8999B"/>
<path d="M83.093 20.9023C82.0455 20.5429 81.9068 20.3478 81.8914 19.2181C81.8709 17.6828 81.8657 16.1423 81.8503 14.6018C81.8401 13.6776 81.8606 12.7584 81.7322 11.8393C81.4755 10.0112 80.3509 8.74293 78.6718 8.55294C76.8695 8.34241 75.3085 8.8867 74.0761 10.2577C73.8348 10.5247 73.6243 10.8277 73.3983 11.1152C71.3187 7.71595 68.8334 7.5465 65.5676 10.6582C65.6138 10.345 65.6395 10.1448 65.6703 9.93935C65.8449 8.80968 65.5676 8.54267 64.4533 8.79941C63.5547 9.00994 62.6407 9.16399 61.7216 9.23074C61.3416 9.26155 61.0695 9.35398 61.0489 9.7699C61.0284 10.2269 61.3057 10.3347 61.7165 10.3758C62.5175 10.458 62.9437 10.8226 62.995 11.5466C63.185 14.2475 63.1748 16.9587 63.0926 19.6648C63.0721 20.3016 62.6972 20.6713 62.081 20.8099C61.9219 20.8458 61.7575 20.8664 61.5984 20.8972C61.2184 20.9742 61.1105 21.231 61.1516 21.5801C61.1927 21.9293 61.434 21.9909 61.7319 21.9653C63.4931 21.8061 65.2544 21.7804 67.0208 21.9653C67.3802 22.0012 67.637 21.8831 67.6832 21.5031C67.7243 21.1334 67.5189 20.9331 67.1594 20.8767C67.0773 20.8664 66.9951 20.8561 66.9181 20.8407C66.1941 20.6969 65.8449 20.3272 65.8141 19.5775C65.7319 17.6314 65.6857 15.6802 65.773 13.734C65.8346 12.3168 66.3789 11.1306 67.827 10.5966C69.3674 10.0318 70.5022 10.6428 70.9284 12.2192C71.0876 12.8149 71.1492 13.4259 71.1492 14.0421C71.1441 15.8085 71.1492 17.5698 71.1492 19.3362C71.1492 20.4607 71.0465 20.5994 69.922 20.8613C69.5369 20.9537 69.3572 21.1642 69.3931 21.5545C69.4291 21.9909 69.7423 22.0115 70.0658 21.9704C71.6422 21.765 73.2135 21.7599 74.7899 21.9653C75.1031 22.0063 75.442 22.032 75.4934 21.5904C75.5447 21.1745 75.3444 20.9537 74.9285 20.8664C74.0761 20.6815 73.8553 20.4094 73.8502 19.5673C73.8399 17.7803 73.8296 15.9985 73.8502 14.2116C73.8605 13.123 74.2712 12.1628 75.0158 11.3771C75.7193 10.6377 76.5871 10.2218 77.6192 10.4939C78.6154 10.7558 78.8926 11.6185 79.0878 12.5068C79.1083 12.6044 79.134 12.7071 79.1391 12.8098C79.2675 15.0229 79.2521 17.236 79.2264 19.4543C79.2161 20.3683 78.8926 20.6918 78.0043 20.8613C77.5935 20.9383 77.2803 21.0975 77.3214 21.5596C77.3676 22.0885 77.7886 21.9909 78.1224 21.9601C79.7194 21.7958 81.3163 21.7393 82.9133 21.9601C83.2419 22.0063 83.5038 21.9601 83.5654 21.5904C83.6013 21.2464 83.4421 21.0204 83.093 20.9023Z" fill="#C03A30"/>
<path d="M151.125 20.8616C150.124 20.5997 149.893 20.3121 149.883 19.2749C149.867 18.0631 149.888 16.8564 149.867 15.6445C149.847 14.4173 149.944 13.1849 149.754 11.9577C149.359 9.44673 147.464 8.12193 144.963 8.59434C143.829 8.81001 142.94 9.41592 142.052 10.3607C142.052 8.2503 142.052 6.32472 142.052 4.39914C142.052 3.72134 142.047 3.04353 142.031 2.37086C142.021 1.94467 141.816 1.72387 141.359 1.80602C140.106 2.02682 138.863 2.29384 137.595 2.41194C137.148 2.45302 137.025 2.74571 137.066 3.15136C137.117 3.62377 137.477 3.64945 137.826 3.7008C138.945 3.85484 139.248 4.15267 139.295 5.27721C139.479 9.93455 139.402 14.5868 139.325 19.2441C139.305 20.4713 139.202 20.5638 138.011 20.8564C137.61 20.954 137.482 21.1902 137.523 21.5702C137.569 22.0067 137.852 22.0169 138.191 21.9758C139.788 21.7859 141.384 21.7191 142.976 21.981C143.279 22.0323 143.515 21.9604 143.582 21.6318C143.654 21.2775 143.582 21.0156 143.156 20.8873C142.18 20.5946 142.073 20.4302 142.062 19.4033C142.047 17.4161 142.031 15.4237 142.037 13.4365C142.037 12.5996 142.375 11.8807 142.961 11.2902C143.695 10.5507 144.594 10.2426 145.605 10.5199C146.53 10.7715 146.874 11.552 147.064 12.4096C147.1 12.5687 147.141 12.7279 147.151 12.8922C147.326 15.0643 147.197 17.2364 147.177 19.4084C147.166 20.5124 147.012 20.6305 145.919 20.8667C145.462 20.9643 145.369 21.2262 145.431 21.6215C145.492 22.0272 145.77 22.0118 146.078 21.9656C147.695 21.7499 149.313 21.7294 150.925 21.9758C151.295 22.0323 151.603 22.0015 151.685 21.5805C151.777 21.1543 151.516 20.9643 151.125 20.8616Z" fill="#21397D"/>
<path d="M158.746 8.52245C155.783 8.29652 153.523 9.58538 152.543 12.1271C151.742 14.1965 151.742 16.2967 152.563 18.3609C154.088 22.1761 158.812 23.2647 161.878 20.5073C163.444 19.1003 163.865 17.2261 163.906 15.2235C163.916 14.4584 163.819 13.7087 163.649 12.9693C163.069 10.3761 161.226 8.71244 158.746 8.52245ZM160.979 15.3364C160.984 16.4661 160.933 17.5907 160.594 18.6793C160.168 20.0503 159.357 20.6819 158.016 20.7178C156.681 20.7537 155.778 20.1735 155.362 18.7974C154.648 16.425 154.653 14.0168 155.475 11.6701C156.019 10.1194 157.262 9.48781 158.715 9.85752C159.639 10.0937 160.163 10.7407 160.481 11.588C160.62 11.9526 160.728 12.3274 160.805 12.7074C160.974 13.57 160.995 14.4532 160.979 15.3364Z" fill="#21397D"/>
<path d="M176.974 13.5498C176.574 10.7 174.653 8.759 171.988 8.52793C168.871 8.25578 166.489 9.73976 165.59 12.5537C165.005 14.3817 165.015 16.2303 165.647 18.048C167.038 22.0583 171.814 23.3523 175.018 20.5795C176.625 19.1879 177.077 17.2983 177.108 15.27C177.128 14.6847 177.056 14.1147 176.974 13.5498ZM173.78 18.7463C173.344 20.066 172.538 20.6873 171.213 20.7181C169.919 20.749 169.03 20.2047 168.609 18.9004C167.824 16.4716 167.855 14.012 168.712 11.6089C169.174 10.3097 170.129 9.70895 171.321 9.7603C172.497 9.81165 173.318 10.4843 173.76 11.7629C174.155 12.9028 174.186 14.0941 174.191 15.2854C174.17 16.4511 174.155 17.6167 173.78 18.7463Z" fill="#21397D"/>
<path d="M95.0162 20.0246C94.2665 20.5022 93.7016 20.2403 93.5579 19.3519C93.486 18.9103 93.4654 18.4533 93.4603 18.0066C93.4449 16.0399 93.4654 14.0682 93.4295 12.1015C93.4141 11.1156 93.1625 10.1862 92.3512 9.51864C90.4718 7.97304 86.9955 8.21438 85.3472 9.99619C84.7926 10.597 84.5051 11.2953 84.5667 12.122C84.6026 12.6509 84.8029 13.0925 85.3266 13.2825C85.8658 13.4776 86.3844 13.4212 86.8106 12.995C87.2163 12.5842 87.2676 12.1323 87.0006 11.5931C86.7028 10.9975 86.8517 10.4018 87.2933 10.0373C88.5462 9.00516 90.5077 9.67783 90.8466 11.2645C91.0007 11.9731 90.9802 12.692 90.9853 13.4109C90.9904 14.2581 90.9853 14.253 90.1688 14.3198C89.7991 14.3506 89.4346 14.3916 89.0648 14.4379C87.699 14.6073 86.4101 14.9616 85.3575 15.9167C84.2483 16.9283 83.8786 18.8231 84.5102 20.2865C85.0442 21.524 86.1431 22.0632 87.8222 21.9707C89.1162 21.8988 90.1842 21.3545 91.1342 20.4405C91.5039 21.2467 92.0123 21.8116 92.8903 21.9502C94.0714 22.1299 94.8929 21.5599 95.5964 20.7076C95.771 20.497 95.8532 20.3019 95.6324 20.0606C95.427 19.8295 95.2729 19.8603 95.0162 20.0246ZM90.3178 19.6344C89.9788 19.8295 89.6348 20.0092 89.2497 20.0862C88.5103 20.2351 87.7452 20.3327 87.2266 19.6241C86.6925 18.9001 86.749 18.0836 87.0982 17.2929C87.319 16.7948 87.7195 16.4405 88.1868 16.1632C88.9416 15.7164 89.794 15.5881 90.6413 15.4289C90.9288 15.3724 90.9904 15.5008 90.9853 15.7575C90.9699 16.271 90.9802 16.7794 90.9802 17.2929H90.975C90.975 17.6626 90.9339 18.0323 90.9853 18.3969C91.0726 18.9874 90.8056 19.3519 90.3178 19.6344Z" fill="#C03A30"/>
<path d="M123.7 14.8846C122.503 14.0219 121.112 13.5649 119.792 12.959C119.155 12.6663 118.74 12.2504 118.755 11.5161C118.77 10.8126 119.222 10.2581 119.977 9.98592C121.307 9.50324 122.632 10.0578 123.186 11.3569C123.346 11.7318 123.428 12.1374 123.546 12.5277C123.638 12.846 123.772 13.1182 124.177 13.0309C124.552 12.9487 124.547 12.6869 124.537 12.3685C124.496 11.3261 124.357 10.2786 124.675 9.25163C124.752 9.00515 124.64 8.84084 124.414 8.77922C124.157 8.70733 123.854 8.64571 123.746 8.99488C123.623 9.3954 123.453 9.37487 123.125 9.17974C121.348 8.12195 119.571 8.28627 117.913 9.40567C115.777 10.8537 115.946 14.0476 118.2 15.3057C118.95 15.7216 119.756 16.0348 120.537 16.3943C121.173 16.6869 121.79 17.0053 122.303 17.4983C122.919 18.0888 122.94 18.7974 122.709 19.5471C122.498 20.2351 122.021 20.6716 121.297 20.7538C119.854 20.9181 118.704 20.4868 118.036 19.3006C117.779 18.8487 117.605 18.3712 117.492 17.8731C117.404 17.4983 117.256 17.262 116.829 17.3442C116.393 17.4315 116.434 17.7601 116.496 18.0682C116.629 18.7358 116.624 19.4136 116.67 20.0143C116.634 20.5586 116.603 21.0259 116.573 21.4983C116.557 21.7191 116.593 21.9143 116.855 21.9656C117.086 22.0118 117.348 22.0426 117.435 21.7705C117.589 21.2775 117.861 21.4316 118.195 21.5394C119.905 22.0991 121.615 22.2172 123.299 21.4521C124.614 20.8565 125.317 19.8295 125.379 18.3712C125.446 16.9077 124.907 15.7473 123.7 14.8846Z" fill="#21397D"/>
<path d="M183.347 20.8307C182.222 20.6151 181.94 20.2607 181.94 19.1208C181.94 16.3942 181.94 13.6676 181.94 10.9409C181.935 10.9409 181.93 10.9409 181.925 10.9409C181.925 8.15269 181.925 5.36444 181.925 2.5762C181.925 1.85218 181.755 1.72381 181.031 1.83678C179.855 2.0165 178.684 2.20649 177.503 2.36054C177.144 2.40675 176.923 2.54026 176.918 2.92024C176.913 3.30536 177.093 3.51075 177.488 3.5775C179.003 3.83425 179.224 4.10126 179.229 5.63146C179.234 10.1399 179.239 14.6535 179.239 19.1619C179.239 20.3532 178.957 20.6767 177.76 20.8359C177.344 20.8923 177.046 21.0104 177.077 21.5085C177.113 22.0528 177.509 21.9707 177.847 21.9399C179.629 21.7704 181.411 21.7396 183.193 21.9501C183.552 21.9912 183.927 22.058 183.994 21.5496C184.045 21.0875 183.773 20.9129 183.347 20.8307Z" fill="#21397D"/>
<path d="M136.388 19.2291C133.939 20.672 131.443 20.0199 130.226 17.627C129.78 16.7489 129.605 15.8093 129.636 15.0185C129.661 13.401 129.887 12.22 130.288 11.4189C131.032 9.92982 132.588 9.28796 134.047 9.87334C134.786 10.1712 134.878 10.4022 134.55 11.1262C134.309 11.6603 134.329 12.1635 134.699 12.6256C135.063 13.0775 135.567 13.1699 136.09 13.0467C136.64 12.9183 136.943 12.5178 137.071 11.9735C137.338 10.8028 136.681 9.62173 135.402 9.00554C133.112 7.89641 129.836 8.61016 128.213 10.5871C126.914 12.1686 126.57 14.0275 126.714 16.0095C126.966 19.4345 129.246 21.8171 132.496 21.9865C134.144 22.0738 135.603 21.5449 136.809 20.3844C136.912 20.2869 137.009 20.1791 137.107 20.0712C137.343 19.8196 137.425 19.5629 137.184 19.2496C136.912 18.9005 136.671 19.0596 136.388 19.2291Z" fill="#21397D"/>
<path d="M104.5 8.61968C103.155 8.21402 101.712 8.70183 100.896 9.83664C100.737 10.0626 100.588 10.2988 100.346 10.6582C100.372 10.2372 100.382 9.98042 100.398 9.72368C100.464 8.7994 100.274 8.62481 99.3501 8.76859C98.3796 8.9175 97.4091 9.08695 96.4335 9.21019C96.0381 9.26154 95.7557 9.36937 95.7505 9.82124C95.7454 10.3142 96.074 10.3399 96.454 10.3758C97.4091 10.4682 97.7532 10.802 97.8969 11.7417C97.9534 12.1063 97.9791 12.476 97.9791 12.8405C97.9894 14.8688 97.9894 16.9022 97.9894 18.9305C97.9894 20.2296 97.7121 20.5737 96.4078 20.8304C95.9868 20.9126 95.7095 21.0923 95.7711 21.5596C95.8327 22.0423 96.2024 21.9704 96.5259 21.9396C98.472 21.765 100.418 21.7188 102.364 21.9755C102.503 21.996 102.652 21.9755 102.796 21.9704C103.104 21.955 103.299 21.8112 103.34 21.498C103.381 21.1796 103.217 20.9947 102.919 20.9177C102.523 20.815 102.118 20.7483 101.728 20.6199C100.942 20.3683 100.701 20.0397 100.695 19.2283C100.685 17.2001 100.67 15.1667 100.69 13.1384C100.701 12.06 101.127 11.1306 102.02 10.4939C102.693 10.0112 103.212 10.2526 103.289 11.0331C103.34 11.5517 103.556 11.9317 104.095 12.06C104.721 12.209 105.312 11.9882 105.61 11.5055C106.257 10.458 105.687 8.97398 104.5 8.61968Z" fill="#C03A30"/>
<path d="M113.81 19.7324C113.692 19.8146 113.563 19.8762 113.43 19.9327C111.792 20.6773 110.898 20.1484 110.796 18.3563C110.78 18.0687 110.775 17.7812 110.775 17.4936C110.77 16.5488 110.775 15.6091 110.775 14.6643C110.775 13.4319 110.796 12.2047 110.765 10.9723C110.754 10.5307 110.893 10.4075 111.319 10.4332C111.997 10.4691 112.675 10.428 113.348 10.4537C113.938 10.4742 114.005 10.1199 114.015 9.6578C114.025 9.20079 113.918 8.89783 113.373 8.91324C112.778 8.92864 112.182 8.91837 111.586 8.9081C110.641 8.8927 110.765 9.03134 110.754 8.10706C110.749 7.57303 110.739 7.03901 110.76 6.51011C110.775 6.04284 110.677 5.6834 110.113 5.68853C109.609 5.68853 109.224 5.82717 109.193 6.43309C109.178 6.69497 109.116 6.96198 109.06 7.21873C108.839 8.23543 108.29 8.93378 107.186 9.03648C106.652 9.08782 106.436 9.33943 106.487 9.88373C106.539 10.4383 106.883 10.464 107.304 10.4691C108.095 10.4691 108.095 10.4794 108.095 11.2958C108.095 13.7554 108.084 16.215 108.105 18.6747C108.115 19.7427 108.3 20.7697 109.26 21.4526C110.647 22.4334 113.188 22.0739 114.256 20.7594C114.333 20.6619 114.405 20.5643 114.472 20.4616C114.631 20.2357 114.657 20.0149 114.446 19.7941C114.262 19.5784 114.051 19.5579 113.81 19.7324Z" fill="#C03A30"/>
<path d="M0 5.37735L15.9374 0L32.0389 5.37735L15.9374 11.5509L0 5.37735Z" fill="#062A9B"/>
<path d="M5.24023 10.5889L14.3317 13.7979V27.9177L12.9419 26.7402L11.7645 27.9177V22.7961L5.24023 20.4299V10.5889Z" fill="#C00706"/>
<path d="M17.1133 14.3319V23.425L26.7404 20.3221V10.5889L17.1133 14.3319Z" fill="#C00706"/>
<path d="M16.0198 9.14605C17.3799 9.14605 18.4825 8.04347 18.4825 6.68338C18.4825 5.32328 17.3799 4.2207 16.0198 4.2207C14.6597 4.2207 13.5571 5.32328 13.5571 6.68338C13.5571 8.04347 14.6597 9.14605 16.0198 9.14605Z" fill="white"/>
<path d="M117.571 39.918V30.118H119.671V38.028H124.109V39.918H117.571ZM125.949 39.918V32.512H127.937V39.918H125.949ZM126.929 31C126.546 31 126.248 30.9066 126.033 30.72C125.818 30.524 125.711 30.2533 125.711 29.908C125.711 29.5906 125.818 29.334 126.033 29.138C126.257 28.9326 126.556 28.83 126.929 28.83C127.312 28.83 127.61 28.928 127.825 29.124C128.04 29.3106 128.147 29.572 128.147 29.908C128.147 30.2253 128.035 30.4866 127.811 30.692C127.596 30.8973 127.302 31 126.929 31ZM132.384 39.918L129.276 32.512H131.46L133.434 38.042L132.972 38.126L135.044 32.512H137.172L133.91 39.918H132.384ZM141.696 40.058C140.893 40.058 140.188 39.8946 139.582 39.568C138.984 39.2413 138.518 38.7933 138.182 38.224C137.855 37.6546 137.692 37.0013 137.692 36.264C137.692 35.6853 137.785 35.158 137.972 34.682C138.158 34.206 138.42 33.7953 138.756 33.45C139.092 33.0953 139.488 32.8246 139.946 32.638C140.412 32.442 140.916 32.344 141.458 32.344C141.962 32.344 142.428 32.4373 142.858 32.624C143.287 32.8106 143.656 33.072 143.964 33.408C144.281 33.7346 144.524 34.1266 144.692 34.584C144.86 35.032 144.934 35.5173 144.916 36.04L144.901 36.656H138.952L138.63 35.438H143.264L143.04 35.69V35.382C143.021 35.13 142.937 34.906 142.788 34.71C142.648 34.5046 142.466 34.346 142.242 34.234C142.018 34.1126 141.766 34.052 141.486 34.052C141.075 34.052 140.725 34.1313 140.436 34.29C140.156 34.4486 139.941 34.682 139.792 34.99C139.642 35.298 139.568 35.6713 139.568 36.11C139.568 36.558 139.661 36.9453 139.848 37.272C140.044 37.5986 140.314 37.8553 140.66 38.042C141.014 38.2193 141.43 38.308 141.906 38.308C142.232 38.308 142.531 38.2566 142.802 38.154C143.072 38.0513 143.362 37.874 143.67 37.622L144.622 38.952C144.351 39.1946 144.052 39.4 143.726 39.568C143.399 39.7266 143.063 39.848 142.718 39.932C142.372 40.016 142.032 40.058 141.696 40.058ZM153.898 40.058C153.188 40.058 152.554 39.89 151.994 39.554C151.434 39.218 150.99 38.7606 150.664 38.182C150.346 37.6033 150.188 36.9453 150.188 36.208C150.188 35.4706 150.346 34.8126 150.664 34.234C150.99 33.6553 151.434 33.198 151.994 32.862C152.554 32.526 153.188 32.358 153.898 32.358C154.56 32.358 155.167 32.4793 155.718 32.722C156.268 32.9646 156.698 33.3006 157.006 33.73L155.914 35.046C155.783 34.8686 155.62 34.71 155.424 34.57C155.228 34.4206 155.013 34.304 154.78 34.22C154.556 34.136 154.322 34.094 154.08 34.094C153.697 34.094 153.356 34.1873 153.058 34.374C152.768 34.5513 152.54 34.7986 152.372 35.116C152.204 35.4333 152.12 35.7973 152.12 36.208C152.12 36.6 152.204 36.9546 152.372 37.272C152.549 37.5893 152.787 37.8413 153.086 38.028C153.384 38.2146 153.72 38.308 154.094 38.308C154.336 38.308 154.565 38.2753 154.78 38.21C154.994 38.1446 155.195 38.042 155.382 37.902C155.578 37.762 155.755 37.594 155.914 37.398L156.992 38.714C156.684 39.1153 156.245 39.442 155.676 39.694C155.116 39.9366 154.523 40.058 153.898 40.058ZM158.279 39.918V29.558H160.267V39.918H158.279ZM164.92 40.058C164.304 40.058 163.749 39.89 163.254 39.554C162.76 39.218 162.368 38.7606 162.078 38.182C161.789 37.6033 161.644 36.9406 161.644 36.194C161.644 35.4473 161.789 34.7846 162.078 34.206C162.377 33.6273 162.778 33.1746 163.282 32.848C163.786 32.5213 164.36 32.358 165.004 32.358C165.368 32.358 165.7 32.414 165.998 32.526C166.306 32.6286 166.572 32.7733 166.796 32.96C167.03 33.1466 167.226 33.3613 167.384 33.604C167.543 33.8466 167.655 34.108 167.72 34.388L167.3 34.318V32.512H169.274V39.918H167.272V38.14L167.72 38.098C167.646 38.3593 167.524 38.6066 167.356 38.84C167.188 39.0733 166.978 39.2833 166.726 39.47C166.484 39.6473 166.208 39.792 165.9 39.904C165.592 40.0066 165.266 40.058 164.92 40.058ZM165.466 38.336C165.84 38.336 166.166 38.2473 166.446 38.07C166.726 37.8926 166.941 37.6453 167.09 37.328C167.249 37.0013 167.328 36.6233 167.328 36.194C167.328 35.774 167.249 35.4053 167.09 35.088C166.941 34.7706 166.726 34.5233 166.446 34.346C166.166 34.1593 165.84 34.066 165.466 34.066C165.102 34.066 164.78 34.1593 164.5 34.346C164.23 34.5233 164.015 34.7706 163.856 35.088C163.698 35.4053 163.618 35.774 163.618 36.194C163.618 36.6233 163.698 37.0013 163.856 37.328C164.015 37.6453 164.23 37.8926 164.5 38.07C164.78 38.2473 165.102 38.336 165.466 38.336ZM173.759 40.058C173.069 40.058 172.453 39.946 171.911 39.722C171.379 39.4886 170.95 39.1713 170.623 38.77L171.869 37.706C172.149 38.014 172.467 38.238 172.821 38.378C173.176 38.5086 173.531 38.574 173.885 38.574C174.025 38.574 174.151 38.56 174.263 38.532C174.385 38.4946 174.487 38.448 174.571 38.392C174.655 38.3266 174.716 38.252 174.753 38.168C174.8 38.0746 174.823 37.9766 174.823 37.874C174.823 37.6686 174.739 37.51 174.571 37.398C174.478 37.342 174.333 37.2813 174.137 37.216C173.941 37.1413 173.689 37.062 173.381 36.978C172.905 36.8566 172.499 36.7166 172.163 36.558C171.837 36.39 171.575 36.2033 171.379 35.998C171.211 35.802 171.081 35.592 170.987 35.368C170.903 35.1346 170.861 34.878 170.861 34.598C170.861 34.262 170.936 33.9586 171.085 33.688C171.235 33.408 171.44 33.17 171.701 32.974C171.972 32.778 172.28 32.6286 172.625 32.526C172.971 32.414 173.335 32.358 173.717 32.358C174.1 32.358 174.473 32.4046 174.837 32.498C175.201 32.5913 175.537 32.7266 175.845 32.904C176.163 33.072 176.438 33.2726 176.671 33.506L175.607 34.682C175.439 34.5233 175.248 34.3786 175.033 34.248C174.828 34.1173 174.613 34.0146 174.389 33.94C174.165 33.8653 173.965 33.828 173.787 33.828C173.629 33.828 173.484 33.842 173.353 33.87C173.232 33.898 173.129 33.9446 173.045 34.01C172.961 34.066 172.896 34.136 172.849 34.22C172.812 34.304 172.793 34.3973 172.793 34.5C172.793 34.6026 172.817 34.7006 172.863 34.794C172.919 34.8873 172.994 34.9666 173.087 35.032C173.19 35.088 173.339 35.1533 173.535 35.228C173.741 35.3026 174.016 35.3866 174.361 35.48C174.809 35.6013 175.187 35.7366 175.495 35.886C175.813 36.0353 176.065 36.208 176.251 36.404C176.41 36.572 176.527 36.7633 176.601 36.978C176.676 37.1926 176.713 37.4306 176.713 37.692C176.713 38.1493 176.583 38.5553 176.321 38.91C176.069 39.2646 175.719 39.5446 175.271 39.75C174.823 39.9553 174.319 40.058 173.759 40.058ZM180.623 40.058C179.932 40.058 179.316 39.946 178.775 39.722C178.243 39.4886 177.813 39.1713 177.487 38.77L178.733 37.706C179.013 38.014 179.33 38.238 179.685 38.378C180.039 38.5086 180.394 38.574 180.749 38.574C180.889 38.574 181.015 38.56 181.127 38.532C181.248 38.4946 181.351 38.448 181.435 38.392C181.519 38.3266 181.579 38.252 181.617 38.168C181.663 38.0746 181.687 37.9766 181.687 37.874C181.687 37.6686 181.603 37.51 181.435 37.398C181.341 37.342 181.197 37.2813 181.001 37.216C180.805 37.1413 180.553 37.062 180.245 36.978C179.769 36.8566 179.363 36.7166 179.027 36.558C178.7 36.39 178.439 36.2033 178.243 35.998C178.075 35.802 177.944 35.592 177.851 35.368C177.767 35.1346 177.725 34.878 177.725 34.598C177.725 34.262 177.799 33.9586 177.949 33.688C178.098 33.408 178.303 33.17 178.565 32.974C178.835 32.778 179.143 32.6286 179.489 32.526C179.834 32.414 180.198 32.358 180.581 32.358C180.963 32.358 181.337 32.4046 181.701 32.498C182.065 32.5913 182.401 32.7266 182.709 32.904C183.026 33.072 183.301 33.2726 183.535 33.506L182.471 34.682C182.303 34.5233 182.111 34.3786 181.897 34.248C181.691 34.1173 181.477 34.0146 181.253 33.94C181.029 33.8653 180.828 33.828 180.651 33.828C180.492 33.828 180.347 33.842 180.217 33.87C180.095 33.898 179.993 33.9446 179.909 34.01C179.825 34.066 179.759 34.136 179.713 34.22C179.675 34.304 179.657 34.3973 179.657 34.5C179.657 34.6026 179.68 34.7006 179.727 34.794C179.783 34.8873 179.857 34.9666 179.951 35.032C180.053 35.088 180.203 35.1533 180.399 35.228C180.604 35.3026 180.879 35.3866 181.225 35.48C181.673 35.6013 182.051 35.7366 182.359 35.886C182.676 36.0353 182.928 36.208 183.115 36.404C183.273 36.572 183.39 36.7633 183.465 36.978C183.539 37.1926 183.577 37.4306 183.577 37.692C183.577 38.1493 183.446 38.5553 183.185 38.91C182.933 39.2646 182.583 39.5446 182.135 39.75C181.687 39.9553 181.183 40.058 180.623 40.058Z" fill="#334690"/>
</svg>
