<svg width="24" height="24" viewBox="0 0 24 24" fill="none" xmlns="http://www.w3.org/2000/svg">
<mask id="mask0_4870_14281" style="mask-type:alpha" maskUnits="userSpaceOnUse" x="1" y="1" width="22" height="22">
<path fill-rule="evenodd" clip-rule="evenodd" d="M1 1H22.493V22.4938H1V1Z" fill="white"/>
</mask>
<g mask="url(#mask0_4870_14281)">
<path fill-rule="evenodd" clip-rule="evenodd" d="M6.10838 19.675C6.68838 19.675 7.23538 19.895 7.81438 20.128C11.3614 21.768 15.5564 21.022 18.2894 18.29C21.8954 14.682 21.8954 8.813 18.2894 5.207C16.5434 3.461 14.2214 2.5 11.7494 2.5C9.27638 2.5 6.95338 3.462 5.20838 5.208C2.47438 7.94 1.73038 12.135 3.35538 15.648C3.58938 16.227 3.81538 16.791 3.81538 17.377C3.81538 17.962 3.61438 18.551 3.43738 19.071C3.29138 19.499 3.07038 20.145 3.21238 20.287C3.35138 20.431 4.00138 20.204 4.43038 20.057C4.94538 19.881 5.52938 19.679 6.10838 19.675ZM11.7244 22.494C10.1964 22.494 8.65838 22.171 7.21938 21.505C6.79538 21.335 6.39838 21.175 6.11338 21.175C5.78538 21.177 5.34438 21.329 4.91838 21.476C4.04438 21.776 2.95638 22.15 2.15138 21.348C1.34938 20.545 1.71938 19.46 2.01738 18.587C2.16438 18.157 2.31538 17.713 2.31538 17.377C2.31538 17.101 2.18238 16.749 1.97838 16.242C0.105376 12.197 0.971376 7.322 4.14838 4.147C6.17638 2.118 8.87538 1 11.7484 1C14.6214 1 17.3214 2.117 19.3494 4.146C23.5414 8.338 23.5414 15.158 19.3494 19.35C17.2944 21.406 14.5274 22.494 11.7244 22.494Z" fill="#474953"/>
</g>
<path fill-rule="evenodd" clip-rule="evenodd" d="M15.6963 13.1631C15.1443 13.1631 14.6923 12.7161 14.6923 12.1631C14.6923 11.6101 15.1353 11.1631 15.6873 11.1631H15.6963C16.2483 11.1631 16.6963 11.6101 16.6963 12.1631C16.6963 12.7161 16.2483 13.1631 15.6963 13.1631Z" fill="#474953"/>
<path fill-rule="evenodd" clip-rule="evenodd" d="M11.6875 13.1631C11.1355 13.1631 10.6835 12.7161 10.6835 12.1631C10.6835 11.6101 11.1255 11.1631 11.6785 11.1631H11.6875C12.2395 11.1631 12.6875 11.6101 12.6875 12.1631C12.6875 12.7161 12.2395 13.1631 11.6875 13.1631Z" fill="#474953"/>
<path fill-rule="evenodd" clip-rule="evenodd" d="M7.67832 13.1631C7.12632 13.1631 6.67432 12.7161 6.67432 12.1631C6.67432 11.6101 7.11732 11.1631 7.66932 11.1631H7.67832C8.23032 11.1631 8.67832 11.6101 8.67832 12.1631C8.67832 12.7161 8.23032 13.1631 7.67832 13.1631Z" fill="#474953"/>
</svg>
