<svg width="292" height="274" viewBox="0 0 292 274" fill="none" xmlns="http://www.w3.org/2000/svg">
<g filter="url(#filter0_i_2072_115623)">
<g clip-path="url(#clip0_2072_115623)">
<rect width="292" height="274" rx="137" fill="#D6E2F5"/>
<path d="M291.504 183.139V274H0V189.68C92.0803 190.607 197.109 184.258 291.504 183.139Z" fill="#CF3135"/>
<path opacity="0.3297" d="M146.61 238.133C190.587 238.133 226.237 236.042 226.237 233.463C226.237 230.884 190.587 228.793 146.61 228.793C102.633 228.793 66.9824 230.884 66.9824 233.463C66.9824 236.042 102.633 238.133 146.61 238.133Z" fill="#513D36"/>
<path d="M218.325 26.688C222.202 26.7055 225.316 29.8829 225.252 33.7599L222.261 227.004C222.202 230.811 219.101 233.86 215.294 233.86L76.2405 233.761C72.3985 233.761 69.2852 230.648 69.2794 226.806L69.0986 32.9728C69.0928 29.1133 72.2352 25.9826 76.0947 26.0001L218.325 26.688Z" fill="white"/>
<path d="M211.067 45.9274L81.1434 44.8313C77.6162 44.8021 74.7594 47.3965 74.7769 50.6206L75.6514 212.26C75.6689 215.46 78.5257 218.072 82.0354 218.09L209.061 218.684C212.536 218.702 215.364 216.166 215.113 213.42L217.136 52.2821C217.462 48.6209 214.611 45.9565 211.067 45.9274Z" fill="#336CCE"/>
<mask id="mask0_2072_115623" style="mask-type:alpha" maskUnits="userSpaceOnUse" x="74" y="44" width="144" height="175">
<path d="M211.067 45.9274L81.1439 44.8313C77.6167 44.8021 74.7599 47.3965 74.7774 50.6206L75.6519 212.26C75.6694 215.46 78.5262 218.072 82.0359 218.09L209.062 218.684C212.536 218.702 215.364 216.166 215.113 213.42L217.136 52.2821C217.463 48.6209 214.612 45.9565 211.067 45.9274Z" fill="#336CCE"/>
</mask>
<g mask="url(#mask0_2072_115623)">
<g opacity="0.1662">
<path opacity="0.1662" d="M213.831 220.836L205.091 220.865C205.488 205.812 197.577 190.712 184.838 182.62C175.603 176.76 164.52 174.562 153.635 173.501C149.525 173.099 145.444 172.913 141.38 172.866C148.359 172.673 155.32 172.732 162.374 173.42C173.265 174.481 184.348 176.673 193.577 182.538C206.327 190.636 214.251 205.759 213.831 220.836Z" fill="#7D96A4"/>
</g>
<path d="M213.83 220.836C213.813 221.588 213.772 222.346 213.702 223.104L81.1436 223.529C81.3593 206.5 87.8656 190.484 102.493 180.911C111.087 175.285 120.054 173.84 130.058 173.338C133.847 173.146 137.614 172.971 141.374 172.872C148.353 172.679 155.314 172.738 162.368 173.426C173.259 174.487 184.342 176.679 193.571 182.544C206.327 190.636 214.25 205.759 213.83 220.836Z" fill="#0B45AA"/>
<path d="M172.92 253.443C178.599 249.741 184.989 242.465 185.898 235.737C186.808 229.003 184.662 221.92 180.167 216.836C175.305 217.576 170.99 221.389 167.848 225.185C167.23 225.931 166.6 226.724 166.379 227.668C166.157 228.607 166.367 229.58 166.589 230.519C168.495 238.512 168.845 246.307 172.92 253.443Z" fill="#F1CEB4"/>
<path d="M175.906 267.92C171.696 269.051 166.455 268.683 162.135 268.887C147.735 269.569 133.305 269.482 118.905 268.777C115.506 268.607 112.101 268.403 108.714 268.17C105.438 267.937 105.647 264.981 106.131 262.358C106.207 261.909 106.289 261.46 106.376 261.011C107.163 256.498 107.805 251.957 108.283 247.409C108.766 242.967 108.644 238.343 109.326 233.93C109.53 232.618 110.166 231.616 110.708 230.426C111.536 228.561 111.967 226.485 112.579 224.532C113.879 220.358 115.384 216.236 117.092 212.196C120.794 203.45 127.003 190.379 137.754 187.773C146.137 185.744 154.766 188.525 160.625 194.665C165.476 199.748 168.344 206.325 170.67 212.901C171.994 216.673 173.935 220.982 174.046 224.987C174.104 226.882 174.18 228.782 174.267 230.665C174.402 233.429 174.559 236.186 174.751 238.95C175.113 244.383 175.591 249.8 176.186 255.21C176.489 258.003 176.827 260.778 177.183 263.535C177.427 265.383 178.092 267.325 175.906 267.92Z" fill="#FFC44D"/>
<path d="M136.856 178.567C136.809 180.666 137.135 182.747 137.293 184.834C137.444 186.84 137.13 188.566 138.266 190.332C140.033 193.072 142.283 195.55 143.467 198.587C143.584 198.885 143.688 199.188 143.887 199.444C144.085 199.695 144.388 199.888 144.703 199.853C145.006 199.823 145.251 199.608 145.455 199.386C146.528 198.267 147.251 196.862 147.956 195.48C148.632 194.151 149.314 192.81 149.775 191.387C150.014 190.653 150.201 189.895 150.276 189.125C150.335 188.525 150.154 188.041 150.119 187.458C149.915 184.158 149.874 180.817 149.711 177.512" fill="#F1CEB4"/>
<path d="M150.282 188.164C157.85 189.802 167.394 195.114 172.501 200.436C177.608 205.759 181.362 212.032 184.79 218.364C185.397 219.483 186.009 220.737 185.642 221.944C185.35 222.906 184.487 223.617 183.665 224.276C180.249 227.022 176.832 229.762 173.416 232.508C169.492 221.868 163.814 211.764 156.625 202.634" fill="#FFC44D"/>
<path d="M136.733 188.07C118.089 192.099 106.481 207.595 101.642 221.442C106.592 224.887 111.961 227.843 117.617 230.233" fill="#FFC44D"/>
<path d="M193.541 140.777C192.818 143.453 192.084 146.118 191.256 148.764C189.565 154.227 187.56 159.614 184.895 164.675C184.283 165.823 183.642 166.954 182.96 168.05C182.948 168.068 182.942 168.085 182.931 168.097C182.785 168.359 182.622 168.616 182.458 168.872C182.423 168.937 182.383 169.001 182.336 169.065C182.272 169.164 182.214 169.275 182.138 169.38C181.87 169.794 181.596 170.19 181.316 170.598C180.983 171.059 180.657 171.519 180.319 171.968C180.313 171.986 180.301 171.997 180.29 172.003C180.08 172.289 179.864 172.569 179.637 172.843C179.456 173.088 179.264 173.327 179.071 173.554C178.879 173.793 178.681 174.02 178.476 174.259C178.447 174.294 178.436 174.312 178.406 174.341C178.395 174.359 178.383 174.364 178.366 174.388C178.109 174.679 177.853 174.976 177.59 175.256C176.768 176.177 175.9 177.058 174.955 177.892C174.652 178.171 174.337 178.44 174.028 178.708C173.439 179.232 172.81 179.734 172.168 180.218C172.133 180.229 172.11 180.247 172.087 180.276C171.696 180.579 171.288 180.871 170.868 181.151C170.804 181.203 170.734 181.25 170.664 181.296C170.221 181.599 169.76 181.891 169.288 182.171C169.277 182.177 169.265 182.188 169.253 182.194L169.242 182.2C168.997 182.346 168.746 182.491 168.507 182.631C168.239 182.795 167.959 182.946 167.679 183.098C167.493 183.203 167.318 183.302 167.137 183.389C167.114 183.407 167.079 183.418 167.055 183.436C166.618 183.669 166.157 183.885 165.703 184.106C165.056 184.41 164.385 184.701 163.715 184.952C163.365 185.098 163.015 185.237 162.659 185.36C162.624 185.372 162.595 185.377 162.572 185.383C162.071 185.564 161.569 185.733 161.074 185.89C161.05 185.896 161.033 185.902 161.01 185.908C160.491 186.065 159.978 186.217 159.441 186.351C158.928 186.485 158.415 186.613 157.896 186.724C157.832 186.742 157.762 186.759 157.692 186.777C157.232 186.87 156.754 186.963 156.287 187.045C156.223 187.062 156.171 187.074 156.106 187.08C155.582 187.173 155.057 187.255 154.526 187.325C154.515 187.33 154.503 187.33 154.497 187.33C154.2 187.377 153.891 187.418 153.588 187.435C153.256 187.482 152.917 187.517 152.597 187.546C151.576 187.639 150.55 187.698 149.524 187.715C149.017 187.727 148.498 187.727 147.991 187.721C146.959 187.709 145.933 187.674 144.907 187.581C143.875 187.511 142.855 187.4 141.846 187.237C141.403 187.167 140.972 187.103 140.534 187.039C139.502 186.864 138.505 186.654 137.526 186.427C136.966 186.281 136.407 186.141 135.859 185.99C135.713 185.949 135.573 185.914 135.427 185.861C132.448 184.987 129.65 183.786 126.863 182.229C120.817 178.853 114.211 170.371 111.285 161.888C111.279 161.876 111.267 161.865 111.273 161.853C110.504 159.189 109.961 156.414 109.606 153.58C109.606 153.568 109.606 153.568 109.612 153.563C109.518 152.892 109.448 152.216 109.384 151.545C109.378 151.522 109.384 151.505 109.378 151.47C108.889 146.071 109.046 140.614 109.687 135.221C110.218 130.808 110.439 125.45 113.518 122.086C119.464 115.591 128.338 111.907 137.164 113.411C140.272 113.941 143.251 115.061 146.37 115.556C149.035 115.988 151.757 115.953 154.451 116.25C159.832 116.851 164.951 118.804 170.011 120.733C177.445 123.584 184.989 126.517 191.204 131.478C192.282 132.347 193.343 133.291 194.002 134.51C194.241 134.959 194.393 135.414 194.468 135.862C194.707 137.495 193.99 139.11 193.541 140.777Z" fill="#F1CEB4"/>
<g opacity="0.4718">
<path opacity="0.4718" d="M193.548 140.777C192.825 143.453 192.084 146.112 191.256 148.764C189.571 154.227 187.56 159.614 184.896 164.674C184.289 165.823 183.642 166.954 182.966 168.05C182.948 168.068 182.948 168.091 182.937 168.097C182.791 168.353 182.622 168.616 182.459 168.866C182.424 168.93 182.383 169 182.336 169.059C182.272 169.164 182.208 169.274 182.138 169.374C181.87 169.787 181.596 170.184 181.316 170.598C180.984 171.058 180.663 171.525 180.319 171.968C180.319 171.985 180.307 171.997 180.296 172.003C180.086 172.294 179.876 172.568 179.643 172.842C179.462 173.081 179.27 173.326 179.077 173.56C178.885 173.799 178.687 174.026 178.483 174.265C178.453 174.3 178.442 174.317 178.418 174.341C178.401 174.358 178.389 174.37 178.378 174.387C178.127 174.679 177.865 174.976 177.608 175.256C176.786 176.177 175.911 177.058 174.973 177.891C174.664 178.177 174.355 178.439 174.046 178.708C173.451 179.232 172.822 179.734 172.18 180.217C172.145 180.229 172.122 180.247 172.099 180.27C171.708 180.579 171.3 180.865 170.886 181.144C170.822 181.197 170.752 181.244 170.682 181.29C170.239 181.599 169.772 181.885 169.306 182.171C169.294 182.176 169.283 182.182 169.271 182.188L169.259 182.2C169.02 182.345 168.77 182.497 168.525 182.631C168.257 182.794 167.977 182.946 167.697 183.092C167.51 183.203 167.335 183.296 167.155 183.389C167.131 183.401 167.096 183.418 167.073 183.43C166.636 183.663 166.175 183.879 165.721 184.106C165.073 184.409 164.403 184.701 163.732 184.946C163.383 185.091 163.033 185.231 162.677 185.354C162.642 185.365 162.613 185.371 162.596 185.377C162.088 185.558 161.593 185.727 161.097 185.884C161.074 185.89 161.056 185.896 161.033 185.902C160.514 186.059 159.995 186.217 159.471 186.345C158.952 186.479 158.445 186.601 157.926 186.718C157.862 186.736 157.792 186.753 157.722 186.771C157.261 186.858 156.783 186.951 156.311 187.033C156.247 187.05 156.188 187.056 156.13 187.068C155.599 187.155 155.081 187.243 154.55 187.307C154.538 187.313 154.533 187.313 154.521 187.313C154.218 187.354 153.915 187.394 153.611 187.423C153.279 187.47 152.941 187.505 152.62 187.534C151.6 187.633 150.574 187.686 149.548 187.709C149.035 187.721 148.522 187.721 148.015 187.715C146.988 187.703 145.957 187.663 144.936 187.569C143.91 187.499 142.884 187.389 141.875 187.225C141.438 187.161 141.001 187.091 140.558 187.027C139.532 186.852 138.529 186.642 137.55 186.415C136.99 186.275 136.43 186.129 135.882 185.983C135.731 185.943 135.591 185.908 135.451 185.855C132.472 184.975 129.673 183.78 126.886 182.223C124.426 180.853 121.878 178.632 119.523 175.921C120.771 176.999 122.024 177.903 123.26 178.591C126.047 180.148 128.845 181.349 131.824 182.217C131.97 182.27 132.11 182.305 132.256 182.351C132.804 182.503 133.364 182.643 133.923 182.783C134.903 183.01 135.905 183.22 136.932 183.395C137.375 183.459 137.806 183.529 138.249 183.593C139.258 183.756 140.284 183.861 141.31 183.937C142.33 184.025 143.362 184.071 144.388 184.077C144.895 184.089 145.409 184.089 145.922 184.077C146.942 184.054 147.974 184.001 148.988 183.902C149.321 183.879 149.659 183.844 149.985 183.791C150.288 183.768 150.591 183.727 150.895 183.681C150.906 183.681 150.912 183.681 150.924 183.675C151.454 183.605 151.979 183.523 152.498 183.436C152.562 183.424 152.62 183.418 152.684 183.401C153.151 183.319 153.629 183.226 154.095 183.133C154.165 183.121 154.235 183.103 154.299 183.086C154.818 182.969 155.325 182.847 155.844 182.713C156.375 182.579 156.894 182.421 157.407 182.27C157.424 182.264 157.448 182.258 157.471 182.252C157.967 182.095 158.462 181.926 158.963 181.745C158.987 181.739 159.016 181.733 159.051 181.722C159.407 181.593 159.756 181.459 160.106 181.314C160.777 181.069 161.441 180.771 162.094 180.474C162.549 180.252 163.01 180.037 163.447 179.798C163.47 179.786 163.505 179.769 163.528 179.757C163.709 179.669 163.884 179.57 164.071 179.46C164.35 179.308 164.63 179.151 164.898 178.993C165.138 178.859 165.388 178.708 165.633 178.568L165.645 178.556C165.656 178.55 165.668 178.544 165.68 178.533C166.146 178.259 166.613 177.967 167.056 177.658C167.12 177.611 167.196 177.559 167.26 177.512C167.674 177.238 168.082 176.947 168.472 176.638C168.496 176.615 168.519 176.597 168.554 176.585C169.195 176.101 169.825 175.6 170.414 175.075C170.729 174.807 171.038 174.539 171.347 174.259C172.285 173.425 173.16 172.545 173.982 171.624C174.238 171.35 174.501 171.047 174.751 170.755C174.763 170.738 174.775 170.726 174.792 170.709C174.815 170.685 174.827 170.668 174.856 170.633C175.06 170.394 175.259 170.166 175.451 169.922C175.643 169.694 175.836 169.455 176.016 169.21C176.244 168.936 176.454 168.656 176.675 168.371C176.687 168.365 176.699 168.353 176.699 168.336C177.043 167.887 177.369 167.426 177.696 166.966C177.97 166.558 178.249 166.161 178.518 165.741C178.588 165.642 178.652 165.532 178.716 165.427C178.757 165.368 178.797 165.298 178.838 165.234C179.001 164.983 179.171 164.721 179.316 164.465C179.328 164.453 179.328 164.435 179.345 164.418C180.028 163.322 180.669 162.191 181.275 161.042C183.94 155.982 185.945 150.595 187.636 145.132C188.464 142.485 189.204 139.827 189.927 137.145C190.37 135.472 191.087 133.857 190.825 132.23C190.749 131.781 190.603 131.326 190.364 130.878C190.347 130.848 190.335 130.819 190.318 130.796C190.615 131.017 190.906 131.245 191.198 131.478C192.282 132.347 193.338 133.297 193.996 134.51C194.235 134.959 194.387 135.413 194.457 135.862C194.708 137.495 193.991 139.104 193.548 140.777Z" fill="#EDB997"/>
</g>
<path d="M112.084 143.715C115.168 144.683 118.672 144.211 121.389 142.456C124.105 140.701 125.977 137.699 126.367 134.492C133.095 135.973 140.593 132.702 144.079 126.761C149.029 130.86 160.234 131.77 165.884 128.715C166.362 134.597 167.674 139.605 173.544 140.223C174.081 140.281 174.693 140.34 175.019 140.765C175.474 141.36 175.078 142.2 174.763 142.882C172.874 146.91 174.576 152.251 178.448 154.443C180.109 155.381 182.307 155.725 183.864 154.618C185.438 153.498 185.817 151.324 185.776 149.394C185.735 147.464 185.414 145.459 186.091 143.645C187.233 140.573 186.4 136.713 185.187 133.664C183.974 130.621 182.097 127.893 180.167 125.24C174.559 117.521 167.883 109.831 158.783 106.968C149.752 104.123 139.876 106.56 131.195 110.344C127.219 112.076 123.283 114.151 120.31 117.305C118.164 119.579 116.59 122.348 115.349 125.217C113.716 128.989 112.608 132.988 112.078 137.057C111.798 139.232 109.991 143.057 112.084 143.715Z" fill="#EDB997"/>
<path d="M135.766 149.755C135.235 152.408 132.734 154.145 130.175 153.632C127.615 153.119 125.971 150.56 126.502 147.907C127.032 145.255 129.533 143.517 132.093 144.03C134.652 144.543 136.296 147.109 135.766 149.755Z" fill="white"/>
<path d="M135.41 150.227C134.979 152.396 133.101 153.854 131.224 153.475C129.347 153.101 128.175 151.038 128.606 148.863C129.038 146.694 130.915 145.237 132.792 145.616C134.676 145.995 135.847 148.058 135.41 150.227Z" fill="#3F3F3F"/>
<path d="M178.64 161.305C179.946 163.316 177.76 165.665 175.527 166.371C173.527 167.006 171.079 166.849 168.904 166.149C167.493 165.695 166.129 164.989 165.336 163.981C164.351 162.739 164.415 161.17 165.33 160.063C166.245 158.955 167.919 158.296 169.708 158.174C171.988 158.016 174.373 158.669 176.431 159.608C177.293 160.004 178.098 160.523 178.576 161.194C178.588 161.229 178.617 161.27 178.64 161.305Z" fill="#EDB997"/>
<path d="M127.744 155.463C129.05 157.474 126.863 159.824 124.63 160.529C122.631 161.165 120.182 161.007 118.007 160.308C116.597 159.853 115.232 159.147 114.439 158.139C113.454 156.897 113.518 155.329 114.434 154.221C115.349 153.113 117.022 152.454 118.812 152.332C121.092 152.175 123.476 152.828 125.534 153.766C126.397 154.163 127.201 154.682 127.68 155.352C127.697 155.393 127.72 155.428 127.744 155.463Z" fill="#EDB997"/>
<path d="M129.126 142.019C129.714 141.675 130.373 141.477 131.055 141.471C131.72 141.471 132.355 141.704 132.968 141.99C133.393 142.182 133.807 141.698 133.475 141.331C132.88 140.672 131.912 140.451 131.055 140.497C130.606 140.526 130.187 140.625 129.773 140.806C129.592 140.888 129.411 140.981 129.248 141.092C129.056 141.22 128.916 141.372 128.764 141.547C128.543 141.791 128.817 142.2 129.126 142.019Z" fill="#3F3F3F"/>
<path d="M167.878 148.181C167.808 147.972 167.749 147.779 167.627 147.593C167.505 147.412 167.371 147.237 167.219 147.074C166.927 146.759 166.578 146.502 166.187 146.316C165.359 145.919 164.397 145.756 163.546 146.158C163.167 146.339 163.359 146.951 163.756 146.94C164.111 146.928 164.455 146.922 164.811 146.957C164.864 146.963 164.916 146.963 164.969 146.969C164.998 146.969 165.044 146.98 164.992 146.969C165.079 146.98 165.167 146.998 165.254 147.021C165.435 147.062 165.616 147.12 165.785 147.19C166 147.278 166.374 147.488 166.589 147.657C166.729 147.767 166.857 147.89 166.974 148.018C167.027 148.076 167.079 148.141 167.131 148.205C167.196 148.28 167.266 148.327 167.324 148.409C167.411 148.531 167.551 148.595 167.697 148.531C167.831 148.479 167.924 148.327 167.878 148.181Z" fill="#3F3F3F"/>
<path d="M134.169 148.502C134.058 149.067 133.539 149.44 133.008 149.335C132.484 149.23 132.146 148.688 132.256 148.123C132.367 147.557 132.886 147.184 133.417 147.295C133.947 147.394 134.285 147.942 134.169 148.502Z" fill="white"/>
<path d="M167.26 154.355C166.729 157.008 164.292 158.757 161.809 158.261C159.331 157.766 157.745 155.212 158.276 152.559C158.806 149.907 161.243 148.158 163.727 148.653C166.21 149.155 167.79 151.702 167.26 154.355Z" fill="white"/>
<path d="M166.91 154.828C166.479 156.997 164.601 158.454 162.724 158.075C160.847 157.702 159.675 155.638 160.106 153.464C160.538 151.295 162.415 149.837 164.292 150.216C166.17 150.595 167.342 152.659 166.91 154.828Z" fill="#3F3F3F"/>
<path d="M165.662 153.101C165.552 153.667 165.033 154.04 164.502 153.935C163.977 153.83 163.639 153.288 163.75 152.722C163.861 152.157 164.38 151.784 164.91 151.889C165.441 151.994 165.779 152.536 165.662 153.101Z" fill="white"/>
<path d="M170.735 156.961C170.455 157.27 170.169 157.579 169.901 157.899C169.627 158.226 169.324 158.541 169.091 158.902C168.922 159.159 169.3 159.45 169.51 159.229C169.808 158.92 170.041 158.552 170.297 158.208C170.548 157.87 170.781 157.526 171.015 157.182C171.125 157.013 170.869 156.815 170.735 156.961Z" fill="#DB8B72"/>
<path d="M173.609 157.299C173.242 157.591 172.904 157.906 172.601 158.261C172.443 158.448 172.298 158.634 172.152 158.827C172.088 158.914 172.023 159.007 171.965 159.107C171.895 159.217 171.86 159.346 171.814 159.474C171.738 159.684 172.029 159.835 172.181 159.684C172.268 159.596 172.356 159.515 172.426 159.421C172.49 159.334 172.56 159.241 172.618 159.147C172.741 158.967 172.869 158.792 173.003 158.617C173.283 158.261 173.568 157.906 173.872 157.567C174.052 157.381 173.802 157.142 173.609 157.299Z" fill="#DB8B72"/>
<path d="M176.098 157.981C175.947 158.086 175.801 158.191 175.655 158.302C175.509 158.413 175.329 158.53 175.177 158.675C175.043 158.804 174.915 158.932 174.786 159.066C174.646 159.217 174.524 159.387 174.407 159.561C174.32 159.69 174.372 159.87 174.489 159.964C174.606 160.051 174.792 160.057 174.897 159.94C174.955 159.87 175.02 159.8 175.078 159.736C175.125 159.69 175.16 159.637 175.2 159.585C175.218 159.561 175.218 159.561 175.2 159.585C175.218 159.561 175.235 159.538 175.253 159.521C175.364 159.381 175.48 159.241 175.603 159.107C175.632 159.078 175.661 159.048 175.684 159.013C175.708 158.984 175.737 158.955 175.76 158.92C175.772 158.908 175.795 158.873 175.772 158.903C175.83 158.827 175.888 158.757 175.952 158.693C176.081 158.559 176.209 158.43 176.343 158.308C176.512 158.151 176.291 157.853 176.098 157.981Z" fill="#DB8B72"/>
<path d="M119.967 150.991C119.687 151.3 119.401 151.609 119.133 151.93C118.859 152.257 118.556 152.571 118.323 152.933C118.153 153.189 118.532 153.481 118.742 153.259C119.04 152.95 119.273 152.583 119.529 152.239C119.78 151.901 120.013 151.557 120.246 151.213C120.357 151.038 120.101 150.84 119.967 150.991Z" fill="#DB8B72"/>
<path d="M122.841 151.324C122.474 151.616 122.136 151.931 121.833 152.286C121.675 152.473 121.529 152.659 121.384 152.852C121.32 152.939 121.255 153.032 121.197 153.132C121.127 153.242 121.092 153.371 121.046 153.499C120.97 153.709 121.261 153.86 121.413 153.709C121.5 153.621 121.588 153.54 121.658 153.446C121.722 153.359 121.792 153.266 121.85 153.172C121.973 152.992 122.101 152.817 122.235 152.642C122.515 152.286 122.8 151.931 123.104 151.592C123.284 151.406 123.034 151.173 122.841 151.324Z" fill="#DB8B72"/>
<path d="M125.325 152.006C125.173 152.111 125.027 152.216 124.882 152.327C124.736 152.437 124.555 152.554 124.404 152.7C124.269 152.828 124.141 152.956 124.013 153.09C123.873 153.242 123.751 153.411 123.634 153.586C123.547 153.714 123.599 153.895 123.716 153.988C123.832 154.076 124.019 154.081 124.124 153.965C124.182 153.895 124.246 153.825 124.304 153.761C124.351 153.714 124.386 153.662 124.427 153.609C124.444 153.586 124.444 153.586 124.427 153.609C124.444 153.586 124.462 153.563 124.479 153.545C124.59 153.405 124.707 153.265 124.829 153.131C124.858 153.102 124.887 153.073 124.911 153.038C124.934 153.009 124.957 152.98 124.987 152.945C124.998 152.933 125.022 152.898 124.998 152.927C125.057 152.851 125.115 152.781 125.179 152.717C125.307 152.583 125.435 152.455 125.57 152.332C125.744 152.175 125.523 151.878 125.325 152.006Z" fill="#DB8B72"/>
<path d="M194.148 153.93L186.732 152.606C186.009 155.545 185.397 157.9 181.934 156.448C179.841 155.574 178.278 153.289 177.888 151.102C177.264 147.622 178.634 144.124 179.975 140.853C176.057 141.238 172.227 138.603 170.519 135.052C168.816 131.501 168.997 127.263 170.285 123.538C169.936 124.546 167.248 125.601 166.338 125.975C161.167 128.103 154.882 126.855 150.23 124.016C148.224 122.791 147.099 121.299 146.073 119.305C143.414 125.077 139.077 131.239 132.495 132.772C128.723 133.647 124.338 132.399 122.181 129.181C122.7 133.793 120.957 138.684 117.698 141.984C116.619 143.074 114.509 145.185 112.76 144.386C111.186 143.669 111.518 140.935 111.052 139.582C110.853 139.057 110.346 139.232 110.008 139.611C109.996 139.617 109.991 139.64 109.973 139.646C109.752 139.926 109.658 140.27 109.571 140.626C109.011 142.899 109.104 145.278 109.227 147.622C109.25 148.158 109.367 149.05 109.046 149.528C108.737 149.995 108.166 149.651 107.81 149.359C106.166 148.047 105.216 146.182 104.784 144.147C104.394 142.275 105.082 139.652 104.318 137.99C103.443 136.072 101.7 134.731 100.989 132.563C100.243 130.289 100.085 127.811 100.593 125.462C101.543 121.095 104.808 117.305 108.976 115.719C109.011 115.62 109.052 115.515 109.087 115.422C108.201 109.557 108.673 103.179 112.177 98.41C116.147 93.0171 122.753 92.7723 128.892 93.2853C128.921 89.3325 131.37 85.7354 134.419 83.2168C139.555 78.9666 146.761 77.1885 153.186 78.9725C156.427 79.8703 159.401 81.7009 161.715 84.1437C162.869 85.3564 163.861 86.7265 164.642 88.2073C165.388 89.6182 165.598 91.513 166.42 92.7664C166.251 92.5099 170.746 90.6151 171.189 90.5044C172.833 90.1079 174.413 90.1837 176.034 90.6443C181.502 92.2067 186.248 98.1709 184.283 104.007C186.423 102.928 189.035 102.841 191.239 103.774C192.772 104.421 194.072 105.517 195.337 106.601C196.544 107.639 197.762 108.706 198.602 110.058C199.442 111.399 199.861 112.962 200.106 114.524C200.753 118.635 200.176 122.914 198.555 126.738C197.803 128.516 195.897 130.376 195.454 132.178C194.982 134.102 197.057 134.737 198.136 136.02C199.89 138.101 200.753 141.022 200.462 143.774C200.03 147.849 197.43 151.475 194.148 153.93Z" fill="#513D36"/>
<path d="M111.209 139.564C111.227 140.497 111.524 141.418 111.378 142.369C111.32 142.753 111.203 143.121 111.122 143.5C111.023 143.966 110.982 144.444 110.994 144.916C111.005 145.26 111.058 145.639 110.918 145.966C110.819 146.205 110.597 146.356 110.486 146.59C110.259 147.068 110.37 147.791 110.422 148.298C110.469 148.747 110.55 149.231 110.346 149.633C109.944 150.426 108.656 149.994 108.044 149.79C106.872 149.4 105.974 148.502 105.163 147.61C103.858 146.17 102.802 144.444 102.412 142.538C101.829 139.681 102.884 136.573 105.991 135.868C107.466 135.536 109.122 135.985 110.16 137.087C110.749 137.71 111.198 138.649 111.209 139.512C111.209 139.535 111.209 139.547 111.209 139.564Z" fill="#F1CEB4"/>
<path d="M191.163 161.374C190.317 161.899 186.201 164.068 185.449 162.709C185.327 162.488 185.321 162.22 185.327 161.963C185.367 158.955 185.869 155.958 186.808 153.101C187.151 152.052 187.356 150.659 188.096 149.819C188.848 148.962 189.979 148.408 191.128 148.402C193.075 148.397 194.876 149.79 195.605 151.597C196.334 153.399 196.083 155.509 195.185 157.241C194.293 158.972 192.813 160.342 191.163 161.374Z" fill="#F1CEB4"/>
<path d="M192.76 155.761C191.577 155.294 190.038 155.294 188.936 155.994C188.009 156.583 187.857 157.854 187.852 158.856C187.852 159.02 188.114 159.066 188.143 158.897C188.306 157.999 188.266 156.822 189.134 156.262C190.16 155.603 191.589 155.562 192.714 155.953C192.83 155.994 192.883 155.807 192.76 155.761Z" fill="#EDB997"/>
<path d="M104.778 141.616C105.262 141.733 105.717 141.826 106.16 142.065C106.597 142.304 106.988 142.625 107.291 143.021C107.915 143.849 108.113 144.939 107.891 145.942C107.851 146.123 108.125 146.205 108.171 146.018C108.463 144.934 108.218 143.744 107.536 142.852C107.215 142.433 106.795 142.083 106.329 141.838C105.874 141.599 105.314 141.401 104.796 141.447C104.708 141.453 104.679 141.593 104.778 141.616Z" fill="#EDB997"/>
<g opacity="0.3457">
<g opacity="0.3457">
<path opacity="0.3457" d="M109.355 151.48C109.361 151.504 109.355 151.521 109.361 151.545C109.35 151.545 109.35 151.545 109.344 151.539L109.355 151.48Z" fill="#F5F6F8"/>
</g>
<g opacity="0.3457">
<g opacity="0.3457">
<path opacity="0.3457" d="M150.737 110.927C150.568 112.617 150.644 114.256 151.186 115.876C151.723 117.491 152.673 119.025 153.915 120.266C155.168 121.514 156.76 122.418 158.462 122.902C160.229 123.409 162.059 123.426 163.855 123.059C165.855 122.651 167.68 121.718 169.05 120.191C169.405 119.794 169.475 119.217 169.131 118.791C168.822 118.407 168.198 118.203 167.755 118.517C167.114 118.972 166.42 119.369 165.703 119.689C165.54 119.765 165.371 119.835 165.208 119.911C165.208 119.911 164.887 120.057 165.068 119.975C165.248 119.893 164.922 120.033 164.922 120.033C164.555 120.179 164.176 120.301 163.791 120.406C163.424 120.505 163.05 120.581 162.677 120.64C162.602 120.651 162.357 120.68 162.648 120.645C162.561 120.657 162.467 120.669 162.38 120.674C162.164 120.698 161.949 120.709 161.733 120.715C161.354 120.727 160.975 120.721 160.596 120.704C160.415 120.698 160.235 120.686 160.06 120.669C159.972 120.663 159.879 120.651 159.791 120.64C159.698 120.628 159.721 120.634 159.861 120.651C159.791 120.64 159.721 120.628 159.646 120.616C159.29 120.558 158.94 120.476 158.59 120.383C158.416 120.336 158.246 120.278 158.077 120.22C157.978 120.185 157.873 120.15 157.774 120.109C157.716 120.086 157.465 119.981 157.658 120.068C156.935 119.753 156.288 119.339 155.646 118.885C155.471 118.762 155.576 118.838 155.617 118.867C155.535 118.803 155.448 118.733 155.366 118.669C155.232 118.558 155.098 118.436 154.97 118.319C154.684 118.057 154.416 117.777 154.16 117.48C153.711 116.961 153.326 116.378 152.953 115.713C152.154 114.296 151.623 112.571 151.723 110.938C151.763 110.291 150.801 110.309 150.737 110.927Z" fill="#336CCE"/>
</g>
</g>
<g opacity="0.3457">
<g opacity="0.3457">
<path opacity="0.3457" d="M158.725 113.714C158.935 115.008 159.646 116.349 160.666 117.188C161.756 118.086 163.156 118.727 164.596 118.564C164.998 118.518 165.348 118.249 165.348 117.812C165.348 117.369 165.004 117.107 164.596 117.06C164.351 117.031 164.736 117.089 164.502 117.048C164.427 117.037 164.357 117.019 164.281 117.008C164.147 116.978 164.007 116.961 163.873 116.932C163.593 116.868 163.313 116.792 163.039 116.699C162.969 116.675 162.899 116.646 162.829 116.623C162.66 116.559 162.928 116.675 162.747 116.588C162.619 116.529 162.497 116.471 162.374 116.401C162.118 116.261 161.879 116.104 161.646 115.929C161.587 115.882 161.523 115.836 161.465 115.795C161.354 115.713 161.476 115.807 161.418 115.754C161.313 115.667 161.202 115.573 161.103 115.48C160.993 115.375 160.888 115.27 160.789 115.159C160.736 115.101 160.689 115.049 160.643 114.99C160.631 114.979 160.515 114.827 160.567 114.891C160.229 114.442 159.972 113.953 159.815 113.428C159.727 113.136 159.424 112.956 159.127 113.037C158.795 113.113 158.678 113.416 158.725 113.714Z" fill="#336CCE"/>
</g>
</g>
<g opacity="0.3457">
<g opacity="0.3457">
<path opacity="0.3457" d="M173.748 124.394C172.402 125.974 171.696 128.102 171.947 130.183C172.192 132.229 173.177 134.141 174.734 135.506C175.159 135.879 175.62 136.229 176.127 136.491C176.39 136.625 176.669 136.777 176.955 136.847C177.264 136.922 177.596 136.952 177.917 136.981C178.739 137.057 178.943 135.885 178.319 135.506C178.074 135.354 177.859 135.173 177.614 135.028C177.398 134.899 177.171 134.794 176.961 134.66C176.477 134.357 176.15 134.141 175.777 133.798C175.049 133.133 174.454 132.334 174.092 131.454C173.247 129.396 173.48 126.947 174.559 125.017C174.815 124.522 174.133 123.939 173.748 124.394Z" fill="#336CCE"/>
</g>
</g>
<g opacity="0.3457">
<g opacity="0.3457">
<path opacity="0.3457" d="M122.904 125.338C123.342 125.991 124.175 126.47 124.852 126.848C125.575 127.251 126.402 127.513 127.207 127.694C128.904 128.073 130.658 128.026 132.337 127.566C135.643 126.668 138.272 124.178 139.514 121.018C140.202 119.264 140.441 117.328 140.097 115.474C139.911 114.465 138.232 114.687 138.302 115.719C138.488 118.576 137.625 121.298 135.713 123.362C134.78 124.371 133.649 125.158 132.378 125.618C130.956 126.137 129.539 126.277 128.029 126.178C127.207 126.126 126.42 125.939 125.633 125.706C125.248 125.595 124.863 125.478 124.49 125.327C124.094 125.164 123.726 124.93 123.312 124.814C123.021 124.738 122.729 125.076 122.904 125.338Z" fill="#336CCE"/>
</g>
</g>
<g opacity="0.3457">
<g opacity="0.3457">
<path opacity="0.3457" d="M133.294 117.269C133.224 117.508 133.166 117.747 133.096 117.98C133.061 118.091 133.026 118.202 132.979 118.307C133.014 118.219 132.944 118.383 132.944 118.383C132.921 118.435 132.892 118.488 132.868 118.534C132.758 118.75 132.653 118.966 132.519 119.17C132.484 119.216 132.454 119.269 132.419 119.316C132.402 119.339 132.384 119.362 132.367 119.385C132.414 119.327 132.408 119.333 132.361 119.391C132.285 119.479 132.21 119.566 132.128 119.654C132.046 119.735 131.965 119.817 131.877 119.899C131.836 119.939 131.79 119.974 131.743 120.015C131.621 120.12 131.825 119.963 131.702 120.044C131.498 120.19 131.283 120.324 131.055 120.435C131.003 120.458 130.95 120.482 130.898 120.511C131.014 120.458 130.939 120.493 130.863 120.522C130.752 120.563 130.641 120.598 130.53 120.627C130.286 120.691 130.047 120.756 129.796 120.796C129.423 120.855 129.201 121.298 129.248 121.636C129.295 121.992 129.615 122.318 130 122.301C130.653 122.266 131.248 122.073 131.807 121.735C132.297 121.438 132.746 121.053 133.102 120.604C133.475 120.138 133.813 119.601 133.97 119.018C134.116 118.47 134.192 117.823 133.994 117.281C133.883 116.931 133.405 116.902 133.294 117.269Z" fill="#336CCE"/>
</g>
</g>
<g opacity="0.3457">
<g opacity="0.3457">
<path opacity="0.3457" d="M117.401 128.784C117.384 129.192 117.261 129.629 117.214 130.043C117.174 130.451 117.11 130.853 117.028 131.25C116.871 132.072 116.672 132.894 116.422 133.693C115.926 135.284 115.162 136.753 114.253 138.141C114.02 138.496 114.183 139.015 114.538 139.225C114.935 139.458 115.378 139.295 115.623 138.94C116.649 137.482 117.372 135.797 117.844 134.083C118.077 133.232 118.229 132.369 118.293 131.489C118.328 131.051 118.34 130.608 118.334 130.171C118.334 129.961 118.334 129.751 118.311 129.541C118.281 129.285 118.188 129.04 118.165 128.784C118.118 128.3 117.419 128.282 117.401 128.784Z" fill="#336CCE"/>
</g>
</g>
<g opacity="0.3457">
<g opacity="0.3457">
<path opacity="0.3457" d="M112.743 131.43C112.679 132.077 112.597 132.724 112.574 133.372C112.562 133.692 112.55 134.019 112.539 134.339C112.527 134.695 112.614 135.051 112.673 135.4C112.714 135.657 113.028 135.873 113.279 135.861C113.53 135.849 113.845 135.674 113.885 135.4C113.932 135.051 114.019 134.689 113.996 134.339C113.979 134.019 113.955 133.692 113.938 133.372C113.897 132.724 113.798 132.077 113.722 131.43C113.693 131.168 113.518 130.94 113.232 130.94C112.953 130.94 112.772 131.168 112.743 131.43Z" fill="#336CCE"/>
</g>
</g>
<g opacity="0.3457">
<g opacity="0.3457">
<path opacity="0.3457" d="M183.497 141.412C182.686 142.03 182.033 143.062 181.649 143.994C181.241 144.991 181.007 146.07 180.961 147.148C180.914 148.215 181.101 149.341 181.439 150.355C181.614 150.886 181.829 151.416 182.103 151.9C182.22 152.11 182.366 152.314 182.511 152.506C182.721 152.792 183.007 152.967 183.304 153.142C183.788 153.427 184.476 152.949 184.29 152.384C184.202 152.127 184.15 151.859 184.027 151.62C183.917 151.404 183.782 151.2 183.666 150.99C183.45 150.606 183.275 150.244 183.147 149.883C182.82 148.967 182.692 148.134 182.651 147.195C182.616 146.28 182.692 145.388 182.943 144.507C183.065 144.076 183.182 143.639 183.357 143.225C183.549 142.776 183.817 142.368 184.027 141.931C184.167 141.633 183.835 141.161 183.497 141.412Z" fill="#336CCE"/>
</g>
</g>
<g opacity="0.3457">
<g opacity="0.3457">
<path opacity="0.3457" d="M126.414 99.4114C125.208 99.0616 123.948 98.8809 122.695 99.0325C121.389 99.1957 120.13 99.5747 118.969 100.204C116.69 101.446 115.034 103.656 114.317 106.134C113.891 107.597 113.862 109.066 114.177 110.553C114.276 111.025 114.801 111.328 115.256 111.258C115.693 111.194 116.165 110.786 116.107 110.29C116.043 109.737 116.025 109.177 116.066 108.623C116.084 108.361 116.113 108.104 116.136 107.842C116.142 107.766 116.154 107.696 116.159 107.62C116.154 107.644 116.142 107.754 116.159 107.626C116.183 107.48 116.206 107.335 116.241 107.183C116.352 106.635 116.515 106.099 116.725 105.58C116.772 105.469 116.737 105.545 116.731 105.568C116.76 105.498 116.789 105.434 116.824 105.364C116.876 105.247 116.935 105.131 116.999 105.014C117.127 104.763 117.267 104.524 117.419 104.291C118.532 102.56 120.392 101.3 122.485 100.828C123.634 100.566 124.887 100.484 126.053 100.729C126.904 100.91 127.266 99.6621 126.414 99.4114Z" fill="#336CCE"/>
</g>
</g>
<g opacity="0.3457">
<g opacity="0.3457">
<path opacity="0.3457" d="M124.671 104.729C123.622 104.746 122.642 105.178 121.902 105.912C121.552 106.256 121.22 106.676 121.022 107.125C120.905 107.381 120.8 107.655 120.753 107.929C120.707 108.209 120.718 108.495 120.753 108.775C120.788 109.078 120.952 109.323 121.272 109.364C121.558 109.404 121.861 109.224 121.931 108.932C121.954 108.827 121.984 108.722 122.019 108.617C122.036 108.571 122.054 108.524 122.071 108.472C122.083 108.448 122.089 108.425 122.1 108.402C122.042 108.536 122.059 108.507 122.141 108.308C122.176 108.215 122.199 108.116 122.234 108.017C122.246 107.976 122.281 107.918 122.287 107.871C122.246 107.959 122.24 107.982 122.263 107.929C122.275 107.906 122.287 107.883 122.293 107.859C122.328 107.789 122.363 107.714 122.386 107.638C122.374 107.667 122.363 107.69 122.351 107.719C122.363 107.673 122.392 107.62 122.415 107.58C122.462 107.48 122.514 107.381 122.572 107.288C122.631 107.195 122.689 107.101 122.753 107.008C122.782 106.967 122.811 106.921 122.841 106.886C122.765 106.967 122.811 106.921 122.858 106.862C122.992 106.705 123.132 106.559 123.284 106.425C123.365 106.355 123.447 106.279 123.534 106.209C123.552 106.192 123.575 106.175 123.593 106.163C123.54 106.204 123.534 106.209 123.569 106.18C123.616 106.145 123.663 106.11 123.715 106.075C124.088 105.819 124.38 105.685 124.782 105.574C125.26 105.463 125.167 104.717 124.671 104.729Z" fill="#336CCE"/>
</g>
</g>
<g opacity="0.3457">
<g opacity="0.3457">
<path opacity="0.3457" d="M135.544 91.9901C136.121 90.9058 136.873 89.9846 137.771 89.1509C138.663 88.323 139.584 87.6118 140.68 87.0696C142.931 85.956 145.56 85.7578 147.939 86.4049C149.338 86.7839 150.667 87.4019 151.868 88.2647C152.667 88.8419 153.687 87.5301 152.929 86.8888C151.746 85.8977 150.44 85.1515 148.953 84.72C147.536 84.3061 146.015 84.1429 144.54 84.2653C141.735 84.4985 139.112 85.752 137.13 87.7458C136.051 88.8244 135.276 90.2411 134.745 91.6578C134.57 92.1184 135.311 92.4216 135.544 91.9901Z" fill="#336CCE"/>
</g>
</g>
<g opacity="0.3457">
<g opacity="0.3457">
<path opacity="0.3457" d="M142.878 92.3804C143.607 92.0189 144.406 91.8732 145.21 91.9082C145.438 91.9198 145.584 91.9373 145.758 91.9665C145.945 92.0015 146.137 92.0364 146.324 92.0831C146.744 92.1938 147.175 92.2813 147.589 92.4212C147.875 92.5203 148.207 92.3338 148.312 92.0656C148.434 91.7624 148.318 91.4826 148.061 91.296C147.647 90.9929 147.222 90.7597 146.715 90.6547C146.207 90.5498 145.689 90.509 145.17 90.5498C144.167 90.6256 143.199 90.9287 142.354 91.4767C141.794 91.8499 142.278 92.6777 142.878 92.3804Z" fill="#336CCE"/>
</g>
</g>
<g opacity="0.3457">
<g opacity="0.3457">
<path opacity="0.3457" d="M172.373 96.9107C174.239 96.5609 176.063 97.5287 177.02 99.1145C177.527 99.954 177.836 100.84 178.011 101.814C178.209 102.922 178.209 104.064 178.349 105.184C178.395 105.568 178.611 105.901 179.025 105.947C179.392 105.988 179.795 105.772 179.882 105.388C180.459 102.84 179.911 99.919 178.267 97.861C177.533 96.9457 176.553 96.2344 175.44 95.8671C174.285 95.4824 173.119 95.5232 172.035 96.0829C171.545 96.3394 171.901 97.004 172.373 96.9107Z" fill="#336CCE"/>
</g>
</g>
<g opacity="0.3457">
<g opacity="0.3457">
<path opacity="0.3457" d="M172.548 100.893C172.618 100.933 172.676 100.98 172.746 101.027C172.775 101.05 172.763 101.038 172.711 100.997C172.728 101.015 172.746 101.027 172.769 101.044C172.798 101.067 172.827 101.091 172.851 101.114C172.862 101.126 172.88 101.137 172.892 101.149C172.921 101.178 172.909 101.161 172.862 101.108C172.868 101.132 172.903 101.172 172.915 101.196C172.956 101.26 172.991 101.33 173.026 101.394C173.055 101.446 173.224 101.668 173.125 101.54C173.049 101.441 173.142 101.569 173.16 101.586C173.201 101.645 173.241 101.709 173.276 101.767C173.358 101.901 173.428 102.041 173.492 102.187C173.469 102.129 173.445 102.07 173.422 102.012C173.492 102.181 173.55 102.35 173.591 102.525C173.632 102.7 173.679 102.875 173.719 103.056C173.795 103.417 174.186 103.633 174.53 103.586C174.88 103.539 175.183 103.23 175.171 102.863C175.165 102.677 175.154 102.478 175.107 102.303C175.06 102.129 174.979 101.954 174.909 101.785C174.804 101.546 174.676 101.318 174.518 101.114C174.413 100.974 174.308 100.84 174.186 100.712C174.063 100.584 173.918 100.49 173.766 100.403C173.533 100.275 173.323 100.117 173.084 99.9947C172.845 99.8723 172.507 99.9248 172.373 100.181C172.227 100.438 172.303 100.741 172.548 100.893Z" fill="#336CCE"/>
</g>
</g>
<g opacity="0.3457">
<g opacity="0.3457">
<path opacity="0.3457" d="M187.035 110.052C187.35 110.104 187.688 110.151 187.974 110.279C188.306 110.425 188.627 110.576 188.965 110.716C189.577 110.973 190.166 111.305 190.72 111.678C191.793 112.407 192.784 113.363 193.466 114.378C193.839 114.931 194.165 115.526 194.422 116.138C194.358 115.981 194.439 116.191 194.457 116.226C194.486 116.307 194.521 116.389 194.55 116.476C194.597 116.616 194.643 116.756 194.69 116.896C194.801 117.269 194.894 117.648 194.958 118.027C194.976 118.12 194.987 118.208 195.005 118.301C194.999 118.255 194.982 118.103 195.011 118.33C195.028 118.511 195.046 118.698 195.057 118.884C195.081 119.251 195.081 119.625 195.063 119.992C195.057 120.161 195.046 120.324 195.028 120.493C195.022 120.587 195.011 120.68 194.999 120.767C194.993 120.814 194.958 121.001 194.999 120.779C194.935 121.146 194.877 121.508 194.795 121.869C194.708 122.266 194.597 122.662 194.463 123.047C194.399 123.239 194.323 123.432 194.247 123.618C194.165 123.816 194.369 123.373 194.212 123.688C194.165 123.787 194.119 123.886 194.072 123.991C193.897 124.359 193.716 124.72 193.507 125.07C193.413 125.227 193.314 125.385 193.209 125.536C193.157 125.612 193.104 125.688 193.052 125.764C193.017 125.81 192.988 125.851 192.953 125.898C193.011 125.822 192.999 125.839 192.918 125.939C192.556 126.393 192.475 127.023 192.918 127.466C193.326 127.874 194.043 127.892 194.445 127.466C195.617 126.236 196.462 124.784 196.958 123.158C197.454 121.525 197.506 119.817 197.244 118.138C196.76 115.019 194.772 112.156 192.049 110.559C191.314 110.127 190.516 109.778 189.7 109.521C188.878 109.265 188.02 109.224 187.163 109.154C186.656 109.13 186.534 109.97 187.035 110.052Z" fill="#336CCE"/>
</g>
</g>
<g opacity="0.3457">
<g opacity="0.3457">
<path opacity="0.3457" d="M190.329 116.774C190.796 117.52 190.907 118.383 190.924 119.252C190.942 120.173 190.813 120.896 190.539 121.805C190.434 122.161 190.638 122.557 190.976 122.691C191.297 122.82 191.752 122.726 191.915 122.382C192.387 121.374 192.527 120.208 192.352 119.106C192.189 118.091 191.694 117.159 191.157 116.296C190.837 115.771 190.009 116.249 190.329 116.774Z" fill="#336CCE"/>
</g>
</g>
<g opacity="0.3457">
<g opacity="0.3457">
<path opacity="0.3457" d="M191.647 137.838C192.539 139.931 192.277 142.379 191.333 144.379C191.123 144.828 191.21 145.364 191.659 145.632C192.09 145.883 192.662 145.732 192.913 145.306C194.376 142.817 194.207 139.639 192.808 137.161C192.627 136.847 192.201 136.742 191.892 136.922C191.542 137.121 191.507 137.505 191.647 137.838Z" fill="#336CCE"/>
</g>
</g>
</g>
<path d="M146.376 151.743C146.062 152.454 145.712 153.189 145.519 153.947C145.327 154.71 145.146 155.48 144.989 156.255C144.831 157.007 144.697 157.759 144.575 158.512C144.447 159.316 144.26 160.319 144.843 160.972C144.977 161.123 145.286 161.182 145.455 161.053C145.823 160.774 145.957 160.523 146.067 160.074C146.167 159.678 146.231 159.293 146.271 158.885C146.347 158.127 146.446 157.369 146.557 156.617C146.674 155.859 146.808 155.101 146.954 154.343C147.105 153.568 147.152 152.763 147.239 151.982C147.292 151.527 146.563 151.329 146.376 151.743Z" fill="#EDB997"/>
<path d="M107.466 184.199C107.466 184.223 107.461 184.246 107.461 184.269C107.449 184.59 107.583 184.94 107.869 185.097C108.253 185.307 108.726 185.097 109.122 184.905C110.218 184.374 111.39 183.995 112.591 183.774C113.087 183.681 113.6 183.616 114.101 183.704C114.602 183.791 115.086 184.042 115.36 184.473C115.617 184.887 115.646 185.412 115.512 185.884C115.378 186.351 115.104 186.77 114.795 187.144C114.043 188.053 113.075 188.759 112.107 189.435C107.6 192.589 102.674 196.157 96.8906 195.854C95.9054 195.801 94.9376 195.609 93.9989 195.3C90.0753 193.802 87.4459 189.907 86.4548 185.826C85.8076 183.156 85.7668 180.381 85.9826 177.652C86.1808 175.174 86.4023 172.423 87.6733 170.231C87.8773 169.881 88.1164 169.537 88.4428 169.292C88.7693 169.047 89.1949 168.913 89.5914 169.018C90.2793 169.204 90.5941 170.003 90.6758 170.714C90.8915 172.568 90.2269 174.475 90.6525 176.294C91.2879 176.008 91.492 175.233 91.6494 174.556C92.1683 172.277 92.932 170.056 93.9115 167.933C94.238 167.228 94.6052 166.511 95.1883 165.998C95.5264 165.701 95.9811 165.467 96.4184 165.584C97.0481 165.753 97.2871 166.505 97.3512 167.152C97.5844 169.443 96.8965 171.723 96.6574 174.014C96.6458 174.113 96.6399 174.218 96.6924 174.306C96.844 174.551 97.2171 174.329 97.3862 174.102C99.3568 171.449 99.3451 167.729 101.24 165.024C101.794 164.231 102.622 163.514 103.595 163.299C104.569 163.083 105.356 164.156 105.607 165.001C105.892 165.98 105.741 167.03 105.566 168.038C105.263 169.776 104.895 171.501 104.476 173.21C104.26 174.102 104.056 175.011 103.788 175.886C103.56 176.632 103.129 177.139 103.205 177.99C103.607 177.967 103.957 177.681 104.178 177.343C104.4 177.005 104.522 176.614 104.685 176.241C104.989 175.548 105.42 174.918 105.851 174.294C106.487 173.379 107.117 172.458 107.752 171.542C108.213 170.878 108.761 170.155 109.559 170.032C109.927 169.974 110.341 170.079 110.58 170.365C110.795 170.621 110.836 170.977 110.854 171.309C110.964 173.425 110.364 175.483 109.693 177.46C109.035 179.407 108.533 181.471 107.74 183.348C107.612 183.616 107.49 183.902 107.466 184.199Z" fill="#F1CEB4"/>
<path d="M93.2528 186.712C87.2128 197.486 85.0673 210.393 87.3003 222.549C87.5743 224.048 87.9999 225.668 89.23 226.566C90.6117 227.575 92.5182 227.324 94.1972 226.974C98.4824 226.088 102.709 224.875 106.814 223.36C104.307 210.528 103.391 197.387 104.103 184.333" fill="#F1CEB4"/>
<path d="M153.332 164.657C150.522 166.144 147.228 166.698 144.085 166.202C140.943 165.706 137.975 164.173 135.76 161.894C134.804 165.106 136.156 168.843 138.71 171.012C141.263 173.181 145.082 173.705 148.149 172.359C151.221 171.012 153.063 167.998 153.332 164.657Z" fill="white"/>
</g>
<path opacity="0.2238" d="M216.535 52.2823L214.507 213.42C214.751 216.166 211.93 218.702 208.455 218.684L81.4291 218.09C78.7298 218.078 76.4094 216.527 75.4883 214.347C76.3395 214.737 77.2956 214.953 78.2984 214.959L205.324 215.554C208.805 215.571 211.627 213.035 211.376 210.289L213.405 49.1515C213.486 48.1721 213.352 47.2626 213.026 46.458C215.27 47.4083 216.78 49.5654 216.535 52.2823Z" fill="#91B5C2"/>
<path d="M143.496 219.879C141.275 221.139 140.161 224.176 141.036 226.788C142.324 230.63 145.455 231.073 148.009 230.537C149.653 230.193 151.052 228.741 151.606 226.957C153.425 221.086 147.391 217.67 143.496 219.879Z" fill="#BABABA"/>
<path opacity="0.3417" d="M151.606 226.957C151.052 228.747 149.659 230.187 148.009 230.537C145.455 231.073 142.324 230.636 141.036 226.788C140.908 226.415 140.826 226.03 140.791 225.645C142.33 227.493 144.639 227.657 146.604 227.249C148.248 226.899 149.647 225.453 150.195 223.669C150.481 222.759 150.574 221.914 150.516 221.133C151.757 222.497 152.364 224.514 151.606 226.957Z" fill="#BABABA"/>
<path d="M151.063 208.679C153.984 206.68 155.599 202.826 154.462 199.462C153.372 196.244 151.121 193.568 147.652 192.833C143.531 191.959 139.018 194.314 137.596 198.302C136.336 201.829 137.596 206.097 140.563 208.388C143.525 210.667 147.973 210.796 151.063 208.679Z" fill="#B73E48"/>
<path d="M129.072 208.68C131.993 206.681 133.608 202.827 132.471 199.463C131.381 196.245 129.131 193.569 125.662 192.834C121.54 191.96 117.027 194.315 115.605 198.303C114.346 201.83 115.605 206.098 118.572 208.389C121.534 210.668 125.982 210.797 129.072 208.68Z" fill="#F3F6FF"/>
<path d="M172.442 208.679C175.363 206.68 176.978 202.826 175.841 199.462C174.751 196.244 172.5 193.568 169.031 192.833C164.91 191.959 160.397 194.314 158.975 198.302C157.715 201.829 158.974 206.097 161.942 208.388C164.904 210.667 169.352 210.796 172.442 208.679Z" fill="#F3F6FF"/>
<path d="M151.331 202.826C151.215 203.397 150.725 203.793 150.171 203.933C149.786 204.033 149.378 204.021 148.982 203.963C148.626 203.904 148.206 203.758 148.072 203.391C147.926 202.983 147.932 202.511 148.107 202.114C148.2 201.905 148.329 201.706 148.381 201.485C148.393 201.432 148.399 201.38 148.387 201.327C148.364 201.246 148.294 201.187 148.218 201.141C148.02 201.024 147.781 200.983 147.553 200.954C146.638 200.843 145.554 200.808 144.691 201.152C144.498 201.228 144.306 201.374 144.283 201.584C144.265 201.7 144.306 201.817 144.341 201.928C144.475 202.412 144.452 202.966 144.16 203.374C143.875 203.776 143.361 203.974 142.866 203.986C142.411 203.998 141.572 203.893 141.298 203.484C141 203.036 141.076 202.435 141.239 201.922C141.834 200.056 143.531 198.587 145.46 198.272C147.39 197.952 149.471 198.797 150.632 200.377C151.156 201.071 151.506 201.963 151.331 202.826Z" fill="#F3F6FF"/>
<g opacity="0.4288">
<path opacity="0.4288" d="M96.4294 130.865C98.1493 119.829 99.3911 96.8469 86.5882 91.7864C83.0494 90.3872 79.1607 90.1715 75.3537 90.0665C66.4686 89.8275 57.5777 90.1365 48.7277 90.9877C43.0259 91.5357 36.9509 92.4802 32.7183 96.3397C23.5301 104.718 26.5384 119.001 28.7305 129.53C30.2405 136.795 32.5201 145.062 39.2655 148.157C42.6761 149.72 46.588 149.586 50.3368 149.423C59.2918 149.032 68.2468 148.641 77.2018 148.245C81.0788 148.076 85.1424 147.854 88.4713 145.855C93.4852 142.846 95.5257 136.643 96.4294 130.865Z" fill="#91B5C2"/>
</g>
<path d="M92.9201 128.097C94.64 117.061 95.8818 94.0784 83.0789 89.0179C79.5401 87.6186 75.6514 87.3971 71.8444 87.298C62.9593 87.0589 54.0626 87.3679 45.2184 88.2191C39.5166 88.7672 33.4416 89.7116 29.209 93.5711C20.0208 101.949 23.0291 116.233 25.2212 126.762C26.7312 134.026 29.0108 142.293 35.7562 145.389C39.1668 146.951 43.0788 146.817 46.8275 146.654C55.7825 146.263 64.7375 145.873 73.6925 145.476C77.5695 145.307 81.6331 145.086 84.9621 143.086C89.9818 140.078 92.0165 133.874 92.9201 128.097Z" fill="#B1C18F"/>
<g opacity="0.4288">
<path opacity="0.4288" d="M232.784 63.3473C233.495 58.794 234.002 49.3084 228.72 47.2213C227.257 46.6441 225.654 46.5508 224.085 46.51C220.418 46.4109 216.751 46.5392 213.096 46.889C210.74 47.1163 208.233 47.5069 206.49 49.0986C202.701 52.5558 203.942 58.45 204.846 62.7934C205.47 65.7901 206.408 69.2065 209.195 70.4775C210.6 71.1246 212.215 71.0663 213.766 71.0022C217.462 70.8389 221.159 70.6815 224.855 70.5183C226.458 70.4483 228.131 70.355 229.507 69.533C231.571 68.297 232.411 65.7318 232.784 63.3473Z" fill="#91B5C2"/>
</g>
<g opacity="0.4288">
<path opacity="0.4288" d="M97.2169 152.594C97.3976 150.629 96.733 148.344 94.8499 147.394C94.3951 147.166 93.8879 147.067 93.3865 147.026C91.5384 146.892 89.6436 147.58 88.3143 148.874C86.4895 150.647 85.8774 153.037 87.0842 155.276C88.1161 157.188 90.2791 158.412 92.4712 158.022C95.0073 157.573 96.9778 155.165 97.2169 152.594Z" fill="#91B5C2"/>
</g>
<g opacity="0.4288">
<path opacity="0.4288" d="M105.717 158.908C105.828 157.725 105.426 156.343 104.289 155.772C104.015 155.632 103.712 155.574 103.403 155.55C102.289 155.469 101.141 155.883 100.342 156.664C99.2401 157.736 98.8728 159.177 99.6016 160.529C100.225 161.683 101.531 162.424 102.855 162.185C104.388 161.911 105.572 160.459 105.717 158.908Z" fill="#91B5C2"/>
</g>
<path d="M94.6051 151.365C94.7858 149.4 94.1212 147.114 92.238 146.164C91.7833 145.937 91.2761 145.838 90.7747 145.797C88.9266 145.663 87.0318 146.351 85.7025 147.645C83.8777 149.417 83.2655 151.808 84.4724 154.046C85.5043 155.959 87.6673 157.183 89.8594 156.792C92.4013 156.343 94.366 153.936 94.6051 151.365Z" fill="#B1C18F"/>
<path d="M103.105 157.679C103.216 156.495 102.813 155.114 101.677 154.542C101.403 154.402 101.099 154.344 100.79 154.321C99.6769 154.239 98.5284 154.653 97.7297 155.434C96.6278 156.507 96.2605 157.947 96.9892 159.3C97.6131 160.454 98.919 161.194 100.242 160.955C101.776 160.687 102.965 159.235 103.105 157.679Z" fill="#B1C18F"/>
<path d="M35.6749 112.023C39.7618 112.373 43.8662 112.437 47.9589 112.215C50.0402 112.105 52.1216 111.918 54.1913 111.662C55.5497 111.493 57.7243 111.288 58.1207 109.627C58.1615 109.446 58.1674 109.242 58.0566 109.096C57.9575 108.974 57.8001 108.921 57.6485 108.881C56.2959 108.525 54.8792 108.548 53.48 108.578C47.3934 108.706 41.2718 108.852 35.2493 109.901C34.7246 109.994 34.1008 110.175 33.955 110.688C33.7393 111.498 34.847 111.953 35.6749 112.023Z" fill="white"/>
<path d="M37.7903 120.325C46.3897 120.302 54.9774 119.993 63.4777 119.404C67.8036 119.107 72.1004 118.734 76.368 118.285C79.1664 117.993 83.6731 117.597 84.1511 115.9C84.2036 115.719 84.1686 115.515 83.9063 115.381C83.6789 115.271 83.3349 115.23 83.0143 115.206C80.1167 114.973 77.1609 115.131 74.2517 115.282C61.5712 115.964 48.8209 116.664 36.4727 118.256C35.3942 118.395 34.129 118.634 33.9425 119.159C33.6335 119.975 36.0471 120.331 37.7903 120.325Z" fill="white"/>
<path d="M38.5013 128.446C47.1006 128.423 55.6884 128.114 64.1886 127.525C68.5145 127.228 72.8113 126.855 77.0789 126.406C79.8774 126.114 84.384 125.718 84.8621 124.021C84.9146 123.841 84.8796 123.636 84.6172 123.502C84.3899 123.392 84.0459 123.351 83.7252 123.328C80.8277 123.094 77.8718 123.252 74.9626 123.403C62.2822 124.085 49.5318 124.785 37.1837 126.377C36.1051 126.517 34.84 126.756 34.6534 127.28C34.3444 128.097 36.7581 128.452 38.5013 128.446Z" fill="white"/>
<path d="M138.045 38.8318C136.826 38.791 135.87 37.7357 135.911 36.4764C135.952 35.2171 136.978 34.226 138.196 34.2668C139.415 34.3077 140.371 35.3629 140.33 36.6222C140.289 37.8815 139.263 38.8726 138.045 38.8318Z" fill="#336CCE"/>
<path d="M156.531 37.7535H144.702C144.061 37.7535 143.536 37.2288 143.536 36.5875V36.5117C143.536 35.8704 144.061 35.3457 144.702 35.3457H156.531C157.173 35.3457 157.697 35.8704 157.697 36.5117V36.5875C157.697 37.2288 157.179 37.7535 156.531 37.7535Z" fill="#336CCE"/>
<g clip-path="url(#clip1_2072_115623)">
<path d="M212 52.4001V85.6114C212 85.8514 211.935 86.0914 211.824 86.2857C211.577 86.7086 211.112 87 210.571 87H164.509C163.721 87 163.08 86.3829 163.08 85.6114V55.3258C163.08 54.2515 162.657 52.1372 163.756 51.5715C165.197 50.8286 166.966 51.0229 168.53 51.0229H210.571C211.365 51.0172 212 51.6401 212 52.4001Z" fill="#0B45AA"/>
<g opacity="0.197">
<path opacity="0.197" d="M211.416 86.9948C211.171 87.4262 210.711 87.7235 210.174 87.7235H164.565C165.702 85.7938 167.568 84.2838 169.713 83.6308C171.025 83.2344 172.483 83.1119 173.573 82.2782C175.223 81.0073 175.409 78.6053 175.252 76.5298C175.095 74.4543 174.78 72.2039 175.858 70.4199C177.666 67.4174 182.196 67.4932 184.697 65.0387C187.244 62.5434 177.386 59.2319 179.881 56.6958C181.642 54.906 185.787 55.0809 188.061 55.0459C191.605 54.9935 195.774 55.4424 198.625 57.7453C201.347 59.9374 203.05 63.2722 203.54 66.7061C204.111 70.7347 203.126 74.8799 201.272 78.5004C200.584 79.8413 199.773 81.462 200.555 82.7505C201.954 85.0592 205.528 83.7358 207.615 84.1322C209.23 84.4529 210.553 85.5839 211.416 86.9948Z" fill="#748387"/>
</g>
<path d="M194.695 100.83C193.611 101.121 192.258 101.028 191.145 101.081C187.437 101.255 183.717 101.232 180.009 101.051C179.135 101.011 178.255 100.958 177.386 100.894C176.541 100.836 176.599 100.072 176.721 99.3957C176.739 99.2791 176.762 99.1625 176.785 99.0459C176.989 97.8857 177.153 96.7139 177.275 95.542C177.398 94.3993 177.368 93.2041 177.543 92.0673C177.596 91.7291 177.759 91.4726 177.899 91.1636C178.115 90.6856 178.225 90.1492 178.383 89.6478C178.721 88.5692 179.106 87.5082 179.543 86.4704C180.499 84.22 182.097 80.8502 184.866 80.1797C187.023 79.655 189.25 80.3721 190.76 81.9579C192.008 83.2697 192.748 84.9604 193.349 86.657C193.693 87.6306 194.188 88.7383 194.217 89.7702C194.229 90.26 194.252 90.7497 194.276 91.2336C194.311 91.9448 194.351 92.6561 194.398 93.3674C194.491 94.7666 194.614 96.1658 194.765 97.5592C194.841 98.2763 194.929 98.9934 195.022 99.7047C195.086 100.171 195.261 100.672 194.695 100.83Z" fill="#B73E48"/>
<path d="M184.633 77.8072C184.621 78.3494 184.709 78.8858 184.744 79.4221C184.784 79.941 184.703 80.3841 184.994 80.8388C185.449 81.5443 186.026 82.1856 186.335 82.9668C186.364 83.0426 186.394 83.1242 186.446 83.1884C186.499 83.2525 186.574 83.305 186.656 83.2933C186.732 83.2875 186.796 83.2292 186.848 83.1709C187.122 82.8794 187.309 82.5179 187.49 82.1623C187.665 81.8183 187.839 81.4743 187.956 81.107C188.02 80.9205 188.067 80.7222 188.084 80.524C188.102 80.3666 188.055 80.2442 188.043 80.0926C187.991 79.2414 187.979 78.3844 187.939 77.5273" fill="#F1CEB4"/>
<path d="M188.096 80.2793C190.043 80.6991 192.503 82.0691 193.821 83.4392C195.138 84.8093 196.106 86.4242 196.987 88.0566C197.144 88.3481 197.301 88.6688 197.208 88.9778C197.132 89.2226 196.911 89.4092 196.701 89.5783C195.821 90.2837 194.94 90.9892 194.06 91.7004C193.051 88.9603 191.588 86.3542 189.734 84.0047" fill="#B73E48"/>
<path d="M184.603 80.2559C179.8 81.2936 176.809 85.2872 175.561 88.8552C176.838 89.7414 178.22 90.5051 179.677 91.1173" fill="#B73E48"/>
<path d="M197.249 66.4319C197.197 67.1431 197.139 67.8544 197.057 68.5657C196.894 70.029 196.643 71.4924 196.212 72.8974C196.112 73.2181 196.008 73.5329 195.885 73.8477C195.885 73.8536 195.885 73.8594 195.879 73.8594C195.856 73.9352 195.827 74.0051 195.798 74.0809C195.792 74.0984 195.786 74.1159 195.774 74.1334C195.763 74.1626 195.751 74.1917 195.739 74.2209C195.693 74.3375 195.64 74.4541 195.588 74.5707C195.524 74.7048 195.465 74.833 195.401 74.9671C195.401 74.9729 195.401 74.9729 195.395 74.9788C195.355 75.0604 195.314 75.142 195.273 75.2236C195.238 75.2936 195.203 75.3636 195.162 75.4335C195.127 75.5035 195.086 75.5734 195.046 75.6434C195.04 75.6551 195.04 75.6609 195.034 75.6667C195.034 75.6725 195.028 75.6725 195.028 75.6784C194.976 75.7658 194.929 75.8533 194.876 75.9349C194.713 76.2089 194.533 76.4713 194.334 76.7278C194.27 76.8152 194.206 76.8969 194.136 76.9785C194.014 77.1417 193.88 77.2991 193.74 77.4507C193.734 77.4565 193.728 77.4624 193.722 77.4682C193.64 77.5615 193.547 77.6548 193.454 77.7481C193.442 77.7655 193.425 77.7772 193.407 77.7947C193.308 77.8938 193.209 77.9871 193.104 78.0804L193.098 78.0862C193.046 78.1328 192.988 78.1853 192.935 78.232C192.877 78.2844 192.813 78.3369 192.748 78.3894C192.708 78.4243 192.667 78.4593 192.626 78.4885C192.62 78.4943 192.614 78.5001 192.609 78.506C192.509 78.5876 192.405 78.6634 192.3 78.7392C192.148 78.8499 191.996 78.9549 191.839 79.0482C191.757 79.1006 191.676 79.1531 191.594 79.1997C191.588 79.2056 191.577 79.2056 191.571 79.2114C191.454 79.2814 191.332 79.3455 191.215 79.4096C191.209 79.4096 191.204 79.4155 191.198 79.4155C191.075 79.4796 190.953 79.5437 190.825 79.602C190.702 79.6603 190.58 79.7186 190.451 79.7711C190.434 79.7769 190.422 79.7886 190.399 79.7944C190.288 79.8411 190.172 79.8877 190.055 79.9285C190.038 79.9343 190.026 79.9402 190.008 79.946C189.88 79.9926 189.752 80.0393 189.624 80.0859H189.618C189.542 80.1092 189.466 80.1384 189.39 80.1559C189.309 80.185 189.227 80.2084 189.145 80.2317C188.889 80.3075 188.632 80.3658 188.376 80.4241C188.248 80.4532 188.119 80.4765 187.991 80.4999C187.729 80.5465 187.466 80.5873 187.204 80.6106C186.942 80.6398 186.674 80.6631 186.411 80.6689C186.295 80.6748 186.184 80.6748 186.067 80.6806C185.799 80.6864 185.537 80.6806 185.274 80.6689C185.123 80.6573 184.977 80.6514 184.831 80.6398C184.79 80.6339 184.755 80.6339 184.715 80.6281C183.916 80.5523 183.152 80.3833 182.371 80.1209C180.68 79.5554 178.599 77.7306 177.45 75.725L177.445 75.7192C177.124 75.0837 176.85 74.4074 176.622 73.7078C176.622 73.7078 176.622 73.7078 176.622 73.702C176.564 73.5387 176.518 73.3697 176.465 73.2006C176.465 73.1948 176.465 73.1889 176.459 73.1831C176.074 71.8422 175.853 70.4488 175.754 69.0554C175.678 67.9127 175.474 66.5485 176.092 65.5457C177.287 63.6159 179.351 62.2575 181.66 62.2109C182.47 62.1934 183.28 62.3333 184.091 62.31C184.785 62.2925 185.473 62.1526 186.166 62.0943C187.554 61.9893 188.947 62.2342 190.323 62.4791C192.34 62.8405 194.393 63.2195 196.206 64.1756C196.521 64.3447 196.835 64.5313 197.057 64.8053C197.139 64.9102 197.197 65.0152 197.238 65.1259C197.383 65.5457 197.278 65.9888 197.249 66.4319Z" fill="#F1CEB4"/>
<path d="M176.459 73.1953C176.459 73.2014 176.459 73.2075 176.466 73.2136C176.466 73.2136 176.466 73.2136 176.459 73.2136V73.1953Z" fill="#F5F6F8"/>
<path d="M183.059 71.4858C183.053 72.1855 182.505 72.7451 181.828 72.7393C181.158 72.7335 180.616 72.1621 180.622 71.4684C180.627 70.7687 181.175 70.2091 181.852 70.2149C182.522 70.2207 183.064 70.7921 183.059 71.4858Z" fill="white"/>
<path d="M182.989 71.6256C182.983 72.197 182.581 72.6517 182.085 72.6517C181.589 72.6517 181.193 72.1795 181.199 71.614C181.205 71.0426 181.607 70.5879 182.102 70.5879C182.598 70.5879 182.994 71.0543 182.989 71.6256Z" fill="#3F3F3F"/>
<path d="M194.463 72.3437C194.888 72.7927 194.451 73.4923 193.92 73.7779C193.442 74.0345 192.818 74.1161 192.235 74.0403C191.857 73.9937 191.478 73.877 191.227 73.6613C190.918 73.3932 190.86 72.9967 191.034 72.6702C191.209 72.3437 191.606 72.0989 192.049 71.9823C192.62 71.8307 193.25 71.8832 193.821 72.0231C194.06 72.0814 194.288 72.1747 194.439 72.3204C194.451 72.3263 194.457 72.3379 194.463 72.3437Z" fill="#EDB997"/>
<path d="M181.304 73.3174C181.729 73.7663 181.292 74.4659 180.762 74.7516C180.284 75.0081 179.66 75.0897 179.077 75.0139C178.698 74.9673 178.319 74.8507 178.068 74.635C177.759 74.3668 177.701 73.9703 177.876 73.6439C178.051 73.3174 178.447 73.0725 178.89 72.9559C179.462 72.8043 180.091 72.8568 180.663 72.9967C180.902 73.055 181.129 73.1483 181.281 73.2941C181.286 73.3057 181.292 73.3115 181.304 73.3174Z" fill="#EDB997"/>
<path d="M181.03 69.9181C181.047 69.9064 181.059 69.9006 181.076 69.8889C181.047 69.8948 181.018 69.9064 180.989 69.9122C181.059 69.9181 181.111 69.8714 181.17 69.8365C181.187 69.8248 181.205 69.8131 181.228 69.8015C181.24 69.7956 181.251 69.7898 181.263 69.784C181.286 69.7723 181.228 69.7956 181.251 69.7898C181.339 69.7607 181.426 69.7373 181.519 69.7199C181.549 69.714 181.467 69.7257 181.496 69.7257C181.508 69.7257 181.519 69.7257 181.531 69.7199C181.554 69.7199 181.578 69.7199 181.595 69.7199C181.619 69.7199 181.642 69.7199 181.659 69.7257C181.665 69.7257 181.718 69.7315 181.671 69.7257C181.624 69.7199 181.671 69.7257 181.683 69.7257C181.723 69.7315 181.764 69.7315 181.805 69.7373C181.817 69.7373 181.828 69.7373 181.84 69.7373C181.875 69.7373 181.828 69.7373 181.817 69.7315C181.875 69.749 181.945 69.7548 182.003 69.7548C182.085 69.7607 182.167 69.6965 182.196 69.6266C182.231 69.545 182.207 69.4633 182.155 69.3992C182.056 69.2884 181.898 69.2301 181.753 69.2126C181.636 69.201 181.508 69.2185 181.391 69.2476C181.28 69.2768 181.17 69.3234 181.076 69.3934C180.977 69.4692 180.796 69.5974 180.814 69.7373C180.82 69.7082 180.831 69.679 180.837 69.6499C180.826 69.679 180.814 69.7082 180.802 69.7373C180.762 69.8773 180.925 69.988 181.03 69.9181Z" fill="#3F3F3F"/>
<path d="M191.186 69.5331C191.18 69.5156 191.174 69.4981 191.168 69.4806C191.168 69.5097 191.168 69.5389 191.168 69.5681C191.18 69.5039 191.174 69.4573 191.145 69.399C191.128 69.3698 191.098 69.3348 191.075 69.3115C191.04 69.2765 191.005 69.2416 190.97 69.2124C190.865 69.125 190.749 69.0608 190.614 69.0259C190.498 68.9909 190.375 68.9734 190.259 68.985C190.113 68.9967 189.95 69.0608 189.851 69.1658C189.792 69.2299 189.775 69.3174 189.81 69.3931C189.839 69.4689 189.921 69.5214 190.002 69.5214C190.043 69.5214 190.078 69.5214 190.119 69.5156C190.131 69.5156 190.136 69.5098 190.148 69.5098C190.16 69.5098 190.201 69.5039 190.16 69.5098C190.113 69.5156 190.166 69.5098 190.171 69.5098C190.183 69.5098 190.189 69.5098 190.201 69.5098C190.224 69.5098 190.247 69.5098 190.265 69.5098C190.288 69.5039 190.317 69.5039 190.34 69.4981C190.329 69.4981 190.311 69.5039 190.3 69.5039C190.311 69.5039 190.323 69.5039 190.335 69.4981C190.358 69.4981 190.381 69.4981 190.399 69.4981C190.422 69.4981 190.445 69.4981 190.463 69.4981C190.475 69.4981 190.486 69.5039 190.498 69.5039C190.48 69.5039 190.44 69.4981 190.486 69.5039C190.533 69.5097 190.574 69.5214 190.614 69.5331C190.638 69.5389 190.655 69.5447 190.679 69.5506C190.696 69.5564 190.737 69.5622 190.749 69.5739C190.743 69.568 190.708 69.5564 190.737 69.5681C190.749 69.5739 190.76 69.5797 190.772 69.5855C190.789 69.5972 190.813 69.6089 190.83 69.6205C190.842 69.6263 190.9 69.6672 190.865 69.6438C190.912 69.6788 190.958 69.708 191.017 69.7021C190.988 69.6963 190.958 69.6846 190.929 69.6788C190.947 69.6905 190.958 69.6963 190.976 69.708C191.069 69.7721 191.227 69.6555 191.186 69.5331Z" fill="#3F3F3F"/>
<path d="M182.593 71.2467C182.593 71.3925 182.476 71.5149 182.342 71.5149C182.202 71.5149 182.091 71.3925 182.091 71.2467C182.091 71.1009 182.208 70.9785 182.342 70.9785C182.482 70.9785 182.593 71.1009 182.593 71.2467Z" fill="white"/>
<path d="M191.25 71.1362C191.244 71.8358 190.708 72.3955 190.061 72.3897C189.408 72.3839 188.889 71.8125 188.895 71.1187C188.9 70.4191 189.437 69.8594 190.084 69.8653C190.731 69.8653 191.256 70.4366 191.25 71.1362Z" fill="white"/>
<path d="M191.186 71.2702C191.18 71.8415 190.778 72.2963 190.282 72.2963C189.787 72.2904 189.39 71.824 189.396 71.2585C189.402 70.6872 189.804 70.2324 190.3 70.2324C190.795 70.2324 191.186 70.6988 191.186 71.2702Z" fill="#3F3F3F"/>
<path d="M190.784 70.8912C190.784 71.037 190.667 71.1594 190.533 71.1594C190.393 71.1594 190.282 71.037 190.282 70.8912C190.282 70.7455 190.399 70.623 190.533 70.623C190.679 70.623 190.789 70.7455 190.784 70.8912Z" fill="white"/>
<path d="M192.218 71.6089C192.154 71.6963 192.09 71.7838 192.037 71.877C191.979 71.9762 191.903 72.0753 191.874 72.186C191.857 72.2502 191.892 72.3201 191.95 72.3434C191.979 72.3551 192.008 72.3609 192.037 72.3493C192.072 72.3376 192.096 72.3143 192.119 72.2851C192.136 72.2618 192.154 72.2385 192.166 72.2152C192.177 72.1919 192.189 72.1627 192.201 72.1394C192.224 72.0928 192.241 72.0403 192.265 71.9936C192.311 71.8887 192.346 71.7838 192.387 71.673C192.405 71.6322 192.376 71.5855 192.335 71.5681C192.282 71.5564 192.241 71.5739 192.218 71.6089Z" fill="#DB8B72"/>
<path d="M192.97 71.5329C192.929 71.5737 192.889 71.6203 192.848 71.667C192.801 71.7194 192.766 71.7777 192.731 71.836C192.702 71.8885 192.673 71.941 192.65 71.9934C192.632 72.0284 192.615 72.0692 192.603 72.1042C192.591 72.145 192.597 72.18 192.597 72.2208C192.603 72.2675 192.62 72.3024 192.667 72.3199C192.708 72.3374 192.755 72.3258 192.784 72.2966C192.807 72.2733 192.836 72.25 192.854 72.215C192.871 72.18 192.889 72.145 192.9 72.1101C192.9 72.1042 192.906 72.0984 192.906 72.0867C192.9 72.1042 192.9 72.1042 192.906 72.0926C192.912 72.0809 192.918 72.0634 192.924 72.0517C192.935 72.0226 192.947 71.9993 192.964 71.9701C192.976 71.941 192.994 71.9177 193.005 71.8885C193.017 71.871 193.023 71.8477 193.034 71.8302C193.034 71.8244 193.04 71.8185 193.04 71.8127C193.034 71.8244 193.034 71.8244 193.04 71.8127C193.064 71.7602 193.087 71.7019 193.116 71.6495C193.139 71.6087 193.134 71.5562 193.093 71.527C193.064 71.4979 193.005 71.4979 192.97 71.5329Z" fill="#DB8B72"/>
<path d="M193.623 71.591C193.588 71.6202 193.553 71.6552 193.518 71.6902C193.501 71.7076 193.483 71.7193 193.466 71.7368C193.448 71.7543 193.431 71.7718 193.413 71.7893C193.378 71.8359 193.343 71.8825 193.308 71.9292C193.285 71.9583 193.273 71.9875 193.262 72.0225C193.25 72.0458 193.244 72.0691 193.238 72.0924C193.227 72.1274 193.232 72.1799 193.256 72.209C193.273 72.2382 193.297 72.2615 193.332 72.2732C193.407 72.3023 193.483 72.2732 193.524 72.209C193.536 72.1915 193.553 72.1682 193.565 72.1507C193.576 72.1332 193.588 72.1099 193.594 72.0924C193.617 72.0516 193.635 72.005 193.658 71.9642C193.676 71.935 193.687 71.9059 193.699 71.8767C193.705 71.8651 193.705 71.8592 193.71 71.8476C193.716 71.8242 193.716 71.8476 193.71 71.8534C193.716 71.8534 193.716 71.8417 193.716 71.8359C193.74 71.7951 193.763 71.7543 193.786 71.7135C193.815 71.6727 193.798 71.6085 193.757 71.5794C193.716 71.5502 193.664 71.5619 193.623 71.591Z" fill="#DB8B72"/>
<path d="M179.077 72.5415C179.013 72.6289 178.949 72.7164 178.896 72.8097C178.838 72.9088 178.762 73.0079 178.733 73.1187C178.716 73.1711 178.745 73.2411 178.797 73.2702C178.821 73.2819 178.844 73.2877 178.867 73.2877C178.896 73.2877 178.943 73.2702 178.96 73.2469C178.984 73.2178 179.007 73.1886 179.025 73.1536C179.036 73.1303 179.048 73.107 179.054 73.0837C179.077 73.0312 179.1 72.9846 179.118 72.9321C179.165 72.8272 179.205 72.7164 179.24 72.6056C179.258 72.5648 179.229 72.5182 179.188 72.5007C179.147 72.489 179.106 72.5065 179.077 72.5415Z" fill="#DB8B72"/>
<path d="M179.835 72.4655C179.794 72.5063 179.753 72.5529 179.712 72.5996C179.665 72.6521 179.63 72.7104 179.596 72.7687C179.566 72.8211 179.537 72.8736 179.514 72.9261C179.496 72.961 179.479 73.0019 179.467 73.0368C179.456 73.0776 179.461 73.1126 179.461 73.1534C179.467 73.2001 179.485 73.2351 179.531 73.2526C179.572 73.27 179.619 73.2584 179.648 73.2292C179.671 73.2059 179.7 73.1826 179.718 73.1476C179.735 73.1126 179.753 73.0776 179.765 73.0427C179.765 73.0368 179.77 73.031 179.77 73.0193C179.765 73.0368 179.765 73.0368 179.77 73.0252C179.776 73.0135 179.782 72.996 179.788 72.9844C179.8 72.9552 179.811 72.9319 179.829 72.9027C179.84 72.8736 179.858 72.8503 179.87 72.8211C179.881 72.8036 179.887 72.7803 179.899 72.7628C179.899 72.757 179.905 72.7512 179.905 72.7453C179.899 72.757 179.899 72.757 179.905 72.7453C179.928 72.6929 179.951 72.6346 179.98 72.5821C180.004 72.5413 179.998 72.4888 179.957 72.4597C179.922 72.4305 179.87 72.4305 179.835 72.4655Z" fill="#DB8B72"/>
<path d="M180.488 72.5293C180.453 72.5585 180.418 72.5935 180.383 72.6285C180.365 72.646 180.348 72.6576 180.33 72.6751C180.313 72.6926 180.295 72.7101 180.278 72.7276C180.243 72.7742 180.208 72.8209 180.173 72.8675C180.15 72.8966 180.138 72.9258 180.126 72.9608C180.115 72.9841 180.109 73.0074 180.103 73.0307C180.091 73.0657 180.097 73.1182 180.12 73.1473C180.138 73.1765 180.161 73.1998 180.196 73.2115C180.272 73.2406 180.348 73.2115 180.389 73.1473C180.4 73.1298 180.418 73.1065 180.429 73.089C180.441 73.0715 180.453 73.0482 180.459 73.0307C180.482 72.9899 180.499 72.9433 180.523 72.9025C180.54 72.8733 180.552 72.8442 180.564 72.815C180.569 72.8034 180.569 72.7975 180.575 72.7859C180.581 72.7626 180.581 72.7859 180.575 72.7917C180.581 72.7917 180.581 72.78 180.581 72.7742C180.604 72.7334 180.628 72.6926 180.651 72.6518C180.68 72.611 180.663 72.5468 180.622 72.5177C180.581 72.4885 180.523 72.4944 180.488 72.5293Z" fill="#DB8B72"/>
<path d="M176.348 70.0932C176.401 70.3264 176.517 70.5479 176.529 70.7928C176.535 70.8919 176.523 70.991 176.517 71.0901C176.517 71.2126 176.529 71.335 176.552 71.4574C176.57 71.5449 176.605 71.6382 176.582 71.7256C176.57 71.7897 176.517 71.8422 176.5 71.9063C176.465 72.0404 176.529 72.2153 176.564 72.3436C176.599 72.4544 176.64 72.571 176.611 72.6876C176.547 72.9091 176.197 72.8625 176.034 72.8392C175.719 72.7984 175.445 72.6118 175.2 72.4252C174.798 72.1221 174.448 71.7373 174.261 71.2767C173.976 70.5829 174.092 69.7434 174.844 69.4169C175.2 69.2595 175.643 69.2945 175.958 69.5218C176.139 69.6501 176.296 69.8658 176.343 70.0874C176.348 70.0874 176.348 70.0874 176.348 70.0932Z" fill="#F1CEB4"/>
<path d="M197.786 71.9066C197.599 72.0815 196.66 72.8278 196.404 72.5188C196.363 72.4663 196.346 72.4022 196.334 72.3381C196.2 71.5743 196.182 70.7931 196.281 70.0235C196.316 69.7379 196.305 69.3764 196.451 69.1315C196.602 68.875 196.859 68.6826 197.15 68.6301C197.64 68.5369 198.165 68.7992 198.439 69.2248C198.713 69.6446 198.748 70.1926 198.608 70.6707C198.462 71.1487 198.153 71.5685 197.786 71.9066Z" fill="#F1CEB4"/>
<path d="M197.797 70.192C197.447 70.1045 197.051 70.1687 196.765 70.3902C196.631 70.4952 196.555 70.6526 196.532 70.8158C196.509 70.9965 196.515 71.1831 196.59 71.3464C196.649 71.463 196.829 71.428 196.859 71.3114C196.894 71.1715 196.87 71.0257 196.876 70.8858C196.876 70.8683 196.876 70.8566 196.876 70.845C196.876 70.81 196.87 70.8741 196.876 70.8275C196.882 70.7983 196.888 70.7692 196.899 70.74C196.905 70.7225 196.905 70.7225 196.899 70.74C196.899 70.7342 196.905 70.7284 196.911 70.7225C196.917 70.7109 196.929 70.6934 196.934 70.6817C196.958 70.6467 196.911 70.6992 196.946 70.6701C196.958 70.6584 196.969 70.6467 196.981 70.6351C196.987 70.6293 197.022 70.6001 197.004 70.6118C197.016 70.6001 197.034 70.5943 197.045 70.5826C197.08 70.5593 197.109 70.5418 197.144 70.5243C197.208 70.4893 197.255 70.466 197.325 70.4427C197.465 70.3961 197.611 70.3786 197.762 70.396C197.885 70.396 197.902 70.2153 197.797 70.192Z" fill="#EDB997"/>
<path d="M174.78 70.9736C174.815 70.9969 174.844 71.0086 174.891 71.0086C174.92 71.0086 174.949 71.0086 174.973 71.0144C175.037 71.0202 175.095 71.0435 175.153 71.061C175.264 71.096 175.369 71.1543 175.451 71.2359C175.497 71.2826 175.526 71.3117 175.556 71.3642C175.573 71.3875 175.585 71.4167 175.602 71.44C175.608 71.4575 175.62 71.4691 175.626 71.4866C175.643 71.5158 175.626 71.4808 175.637 71.5099C175.661 71.5741 175.684 71.6324 175.696 71.6965C175.701 71.714 175.701 71.7315 175.701 71.7432C175.696 71.7198 175.701 71.7665 175.701 71.7665C175.707 71.8015 175.707 71.8306 175.713 71.8656C175.719 71.9355 175.766 71.9997 175.841 72.0113C175.905 72.0172 175.993 71.9822 175.999 71.9064C176.022 71.7432 176.005 71.5799 175.946 71.4225C175.888 71.2709 175.789 71.131 175.666 71.0261C175.544 70.9211 175.398 70.8395 175.241 70.7987C175.165 70.7812 175.089 70.7695 175.008 70.7695C174.967 70.7695 174.932 70.7695 174.891 70.7754C174.839 70.7812 174.804 70.7987 174.763 70.8395C174.722 70.8803 174.734 70.9444 174.78 70.9736Z" fill="#EDB997"/>
<path d="M185.683 71.3642C185.595 71.5333 185.485 71.7373 185.444 71.9239C185.397 72.1454 185.391 72.3845 185.38 72.6118C185.368 72.8042 185.356 72.9966 185.356 73.189C185.35 73.3231 185.345 73.463 185.374 73.5913C185.403 73.7079 185.467 73.8478 185.525 73.9527C185.619 74.1335 185.84 74.2209 186.033 74.1918C186.237 74.1626 186.388 74.0227 186.452 73.8303C186.493 73.7137 186.534 73.5738 186.534 73.4514C186.534 73.3581 186.517 73.259 186.505 73.1657C186.482 72.9791 186.464 72.7984 186.452 72.6118C186.441 72.4253 186.435 72.2387 186.423 72.058C186.406 71.8481 186.33 71.6382 186.26 71.4458C186.167 71.201 185.817 71.1135 185.683 71.3642Z" fill="#EDB997"/>
<path d="M188.142 74.5487C188.177 75.1317 188.055 75.6972 187.786 76.152C187.629 76.4143 187.431 76.6475 187.18 76.8166C186.492 77.2772 185.565 77.248 184.889 76.735C184.866 76.7175 184.842 76.7 184.825 76.6825C184.178 76.1578 183.758 75.2075 183.874 74.3271C184.475 74.8868 185.239 75.2192 186.002 75.26C186.766 75.2891 187.53 75.0443 188.142 74.5487Z" fill="#3F3F3F"/>
<path d="M187.787 76.1515C187.629 76.4138 187.431 76.647 187.181 76.8161C186.493 77.2767 185.566 77.2475 184.889 76.7345C184.866 76.717 184.843 76.6995 184.825 76.682C185.053 76.4371 185.332 76.2272 185.636 76.0757C186.172 75.8191 186.807 75.7492 187.367 75.9474C187.519 75.994 187.659 76.064 187.787 76.1515Z" fill="#D66E56"/>
<path d="M179.176 67.8789C180.225 67.9663 181.222 67.4707 182.131 66.9635C183.088 66.4272 183.962 65.7334 184.703 64.9172C184.749 65.6867 184.638 66.4213 184.329 67.1326C184.248 67.3133 184.16 67.4941 184.114 67.6865C184.102 67.7331 184.096 67.7856 184.114 67.8322C184.137 67.8905 184.195 67.9255 184.248 67.9488C185.326 68.491 186.58 67.4882 187.46 66.9169C188.527 66.2231 189.512 65.3952 190.375 64.4566C190.69 65.0221 190.882 65.611 191.086 66.2173C191.285 66.8003 191.25 67.4008 191.267 68.0246C191.267 68.0538 191.267 68.0887 191.285 68.1179C191.314 68.1645 191.366 68.1762 191.419 68.182C191.914 68.2287 192.287 67.7039 192.602 67.395C192.771 67.2259 193.745 66.363 193.687 66.124C194.159 68.0829 194.637 70.0418 195.109 72.0007C195.622 71.476 195.622 70.654 195.774 69.9369C195.931 69.2198 196.508 68.4211 197.214 68.6018C197.721 68.73 197.983 69.3072 198.088 69.8261C198.24 70.5549 198.176 71.4294 197.599 71.8958C197.243 72.1815 196.759 72.2514 196.369 72.4788C195.739 72.8519 195.459 73.5515 195.197 74.2045C194.94 74.84 194.8 75.4346 194.468 76.0468C193.704 77.4518 192.375 78.7578 190.148 79.8888C192.626 80.4543 196.129 79.0551 197.844 77.3061C200.595 74.5018 201.231 70.1934 200.485 66.4272C199.039 59.1279 192.608 54.6329 185.373 55.3092C184.312 55.4083 183.262 55.6007 182.242 55.898C179.677 56.6443 177.38 58.1718 175.87 60.4163C173.864 63.4014 172.605 67.1559 173.141 70.7239C174.494 79.6906 180.89 80.0754 181.379 79.6906C179.391 78.3264 176.826 75.0907 176.424 72.7003C175.439 72.677 174.891 72.2514 174.477 71.5518C174.063 70.8522 173.958 70.1584 174.547 69.5987C174.995 69.179 175.52 69.2548 175.794 69.6104C176.272 70.24 176.354 70.9921 176.622 71.715C176.657 71.8083 176.715 71.9191 176.814 71.9191C176.908 71.9249 176.978 71.8316 177.018 71.7442C177.234 71.2953 177.188 70.7706 177.223 70.2692C177.304 69.0915 177.846 67.9955 178.377 66.9402C178.68 66.3281 179.012 65.6343 179.572 65.2262C179.502 65.8908 179.257 66.6079 179.059 67.2492C179.007 67.4124 178.954 67.5757 178.925 67.7448C178.919 67.7739 178.913 67.8089 178.931 67.8322C178.948 67.8555 178.983 67.8614 179.012 67.8672C179.082 67.873 179.129 67.8789 179.176 67.8789Z" fill="#DD9C33"/>
<path d="M178.447 81.1852C178.447 81.191 178.447 81.1968 178.447 81.2027C178.447 81.2843 178.476 81.3717 178.552 81.4125C178.651 81.465 178.768 81.4125 178.867 81.3659C179.147 81.2318 179.444 81.1385 179.747 81.0802C179.875 81.0569 180.004 81.0394 180.126 81.0627C180.254 81.0861 180.377 81.1502 180.447 81.2551C180.511 81.3601 180.517 81.4942 180.488 81.6108C180.453 81.7274 180.383 81.8323 180.307 81.9314C180.114 82.1588 179.87 82.3395 179.625 82.5086C178.482 83.3073 177.234 84.211 175.771 84.1352C175.52 84.1235 175.276 84.0711 175.036 83.9953C174.045 83.6163 173.375 82.631 173.124 81.5991C172.961 80.9228 172.949 80.2174 173.008 79.5294C173.06 78.8998 173.113 78.206 173.439 77.6521C173.491 77.5647 173.55 77.4772 173.631 77.4131C173.713 77.349 173.824 77.3198 173.923 77.3431C174.098 77.3898 174.179 77.5938 174.197 77.7746C174.249 78.2468 174.086 78.7249 174.191 79.1855C174.349 79.1155 174.407 78.9173 174.442 78.7482C174.576 78.171 174.768 77.6055 175.013 77.0691C175.095 76.8884 175.188 76.7077 175.334 76.5794C175.421 76.5036 175.538 76.4453 175.649 76.4745C175.806 76.5153 175.87 76.7077 175.888 76.8709C175.946 77.4539 175.771 78.0253 175.713 78.6083C175.713 78.6316 175.707 78.6607 175.724 78.6841C175.765 78.7482 175.858 78.6899 175.899 78.6316C176.401 77.9611 176.395 77.0167 176.873 76.3345C177.013 76.1363 177.223 75.9498 177.468 75.8973C177.712 75.8448 177.917 76.113 177.975 76.3287C178.051 76.5794 178.01 76.8418 177.963 77.0983C177.887 77.5355 177.794 77.9728 177.689 78.41C177.637 78.6374 177.584 78.8648 177.514 79.0863C177.456 79.2729 177.345 79.4012 177.369 79.6169C177.473 79.611 177.561 79.5411 177.613 79.4536C177.672 79.3662 177.701 79.2671 177.742 79.1738C177.817 78.9989 177.928 78.8356 178.039 78.6782C178.202 78.445 178.36 78.2118 178.523 77.9845C178.639 77.8154 178.779 77.6346 178.978 77.5997C179.071 77.588 179.176 77.6113 179.234 77.6813C179.287 77.7454 179.298 77.8387 179.304 77.9203C179.333 78.4567 179.182 78.9756 179.013 79.477C178.843 79.9725 178.721 80.4914 178.517 80.9695C178.488 81.0394 178.453 81.1094 178.447 81.1852Z" fill="#F1CEB4"/>
<path d="M174.851 81.8212C173.323 84.5497 172.775 87.8204 173.341 90.8986C173.411 91.2776 173.516 91.6857 173.83 91.9131C174.18 92.1696 174.664 92.1055 175.09 92.018C176.174 91.7906 177.247 91.4875 178.285 91.1027C177.649 87.8553 177.416 84.5264 177.597 81.2207" fill="#F1CEB4"/>
<path d="M193.384 82.1852C193.384 82.191 193.384 82.1968 193.384 82.2027C193.384 82.2843 193.354 82.3717 193.279 82.4125C193.179 82.465 193.063 82.4125 192.964 82.3659C192.684 82.2318 192.387 82.1385 192.083 82.0802C191.955 82.0569 191.827 82.0394 191.704 82.0627C191.576 82.0861 191.454 82.1502 191.384 82.2551C191.32 82.3601 191.314 82.4942 191.343 82.6108C191.378 82.7274 191.448 82.8323 191.524 82.9314C191.716 83.1588 191.961 83.3395 192.206 83.5086C193.349 84.3073 194.596 85.211 196.06 85.1352C196.31 85.1235 196.555 85.0711 196.794 84.9953C197.785 84.6163 198.456 83.631 198.706 82.5991C198.87 81.9228 198.881 81.2174 198.823 80.5294C198.771 79.8998 198.718 79.206 198.392 78.6521C198.339 78.5647 198.281 78.4772 198.199 78.4131C198.118 78.349 198.007 78.3198 197.908 78.3431C197.733 78.3898 197.651 78.5938 197.634 78.7746C197.581 79.2468 197.744 79.7249 197.639 80.1855C197.482 80.1155 197.424 79.9173 197.389 79.7482C197.255 79.171 197.062 78.6055 196.817 78.0691C196.736 77.8884 196.643 77.7077 196.497 77.5794C196.409 77.5036 196.293 77.4453 196.182 77.4745C196.025 77.5153 195.96 77.7077 195.943 77.8709C195.885 78.4539 196.06 79.0253 196.118 79.6083C196.118 79.6316 196.124 79.6607 196.106 79.6841C196.065 79.7482 195.972 79.6899 195.931 79.6316C195.43 78.9611 195.436 78.0167 194.958 77.3345C194.818 77.1363 194.608 76.9498 194.363 76.8973C194.118 76.8448 193.914 77.113 193.856 77.3287C193.78 77.5794 193.821 77.8418 193.867 78.0983C193.943 78.5355 194.036 78.9728 194.141 79.41C194.194 79.6374 194.246 79.8648 194.316 80.0863C194.375 80.2729 194.485 80.4012 194.462 80.6169C194.357 80.611 194.27 80.5411 194.217 80.4536C194.159 80.3662 194.13 80.2671 194.089 80.1738C194.013 79.9989 193.902 79.8356 193.792 79.6782C193.634 79.445 193.471 79.2118 193.308 78.9845C193.191 78.8154 193.051 78.6346 192.853 78.5997C192.76 78.588 192.655 78.6113 192.596 78.6813C192.544 78.7454 192.532 78.8387 192.526 78.9203C192.497 79.4567 192.649 79.9756 192.818 80.477C192.987 80.9725 193.109 81.4914 193.314 81.9695C193.349 82.0394 193.378 82.1094 193.384 82.1852Z" fill="#F1CEB4"/>
<path d="M196.986 82.8212C198.513 85.5497 199.061 88.8204 198.496 91.8986C198.426 92.2776 198.321 92.6857 198.006 92.9131C197.656 93.1696 197.172 93.1055 196.747 93.018C195.662 92.7906 194.59 92.4875 193.552 92.1027C194.187 88.8553 194.42 85.5264 194.24 82.2207" fill="#F1CEB4"/>
</g>
<path d="M122.129 197.871C122.082 198.057 122.059 198.244 122.059 198.419C122.065 199.503 121.978 200.599 121.937 201.684C121.908 202.488 121.925 203.409 122.584 203.922C123.167 204.383 124.094 204.307 124.706 203.876C125.318 203.444 125.656 202.739 125.79 202.033C125.924 201.328 125.884 200.605 125.884 199.882C125.884 199.2 125.924 198.512 125.755 197.853C125.586 197.194 125.167 196.547 124.496 196.285C123.295 195.813 122.38 196.845 122.129 197.871Z" fill="#A0A0A0"/>
<path d="M121.121 202.319C120.596 203.87 121.896 205.461 123.464 205.514C124.246 205.537 125.039 205.222 125.563 204.633C126.146 203.98 126.397 203.129 126.618 202.301C126.706 201.975 126.205 201.835 126.111 202.161C125.919 202.838 125.715 203.555 125.272 204.114C124.858 204.633 124.24 204.925 123.575 204.925C122.182 204.925 121.266 203.666 121.331 202.348C121.342 202.226 121.162 202.208 121.121 202.319Z" fill="#A0A0A0"/>
<path d="M123.599 205.198C123.564 205.367 123.535 205.531 123.529 205.705C123.523 205.863 123.517 206.014 123.506 206.172C123.5 206.323 123.482 206.481 123.494 206.638C123.5 206.72 123.5 206.807 123.506 206.889C123.512 207 123.506 207.105 123.57 207.204C123.675 207.367 123.931 207.385 124.031 207.204C124.118 207.046 124.083 206.819 124.083 206.638C124.083 206.481 124.06 206.329 124.042 206.172C124.025 206.014 124.013 205.863 123.996 205.705C123.984 205.618 123.984 205.519 123.961 205.431C123.943 205.356 123.92 205.274 123.896 205.198C123.856 205.058 123.634 205.047 123.599 205.198Z" fill="#A0A0A0"/>
<path d="M122.34 207.274C122.526 207.361 122.73 207.455 122.934 207.49C123.156 207.531 123.389 207.554 123.616 207.56C123.838 207.566 124.071 207.554 124.293 207.507C124.508 207.461 124.765 207.391 124.952 207.274C125.261 207.087 125.056 206.627 124.713 206.703C124.52 206.743 124.334 206.825 124.141 206.866C123.96 206.907 123.78 206.959 123.599 206.983C123.401 207.012 123.203 207.018 123.004 207.012C122.812 207.006 122.614 207.012 122.421 206.988C122.27 206.977 122.206 207.21 122.34 207.274Z" fill="#A0A0A0"/>
<path d="M233.809 61.1315C234.52 56.5782 235.028 47.0926 229.746 45.0055C228.282 44.4283 226.679 44.335 225.111 44.2942C221.444 44.1951 217.776 44.3233 214.121 44.6731C211.766 44.9005 209.264 45.2911 207.515 46.8827C203.726 50.34 204.968 56.2342 205.871 60.5776C206.495 63.5743 207.434 66.9907 210.221 68.2616C211.626 68.9088 213.241 68.8505 214.791 68.7864C218.488 68.6231 222.184 68.4657 225.88 68.3025C227.483 68.2325 229.157 68.1392 230.533 67.3172C232.596 66.0754 233.436 63.516 233.809 61.1315Z" fill="#FFD56E"/>
<path d="M209.521 53.4066C211.293 53.5581 213.083 53.5873 214.861 53.4882C215.765 53.4415 216.668 53.3599 217.566 53.2492C218.155 53.1734 219.099 53.0859 219.274 52.363C219.292 52.2872 219.298 52.1939 219.245 52.1356C219.204 52.0831 219.134 52.0598 219.07 52.0423C218.481 51.8849 217.869 51.8966 217.257 51.9141C214.61 51.9724 211.952 52.0307 209.334 52.4912C209.107 52.5321 208.833 52.6078 208.774 52.8352C208.675 53.1734 209.159 53.3716 209.521 53.4066Z" fill="white"/>
<path d="M210.436 57.0095C214.173 56.9978 217.904 56.8637 221.595 56.6072C223.472 56.4789 225.344 56.3157 227.197 56.1233C228.416 55.995 230.369 55.826 230.579 55.0856C230.602 55.0039 230.585 54.9165 230.474 54.8582C230.375 54.8115 230.223 54.794 230.083 54.7824C228.824 54.6833 227.541 54.7474 226.276 54.8174C220.767 55.1147 215.228 55.4179 209.865 56.1058C209.398 56.1641 208.844 56.2691 208.763 56.4964C208.634 56.8579 209.678 57.0153 210.436 57.0095Z" fill="white"/>
<path d="M210.75 60.5368C214.487 60.5252 218.219 60.3911 221.909 60.1345C223.786 60.0063 225.658 59.843 227.512 59.6507C228.73 59.5224 230.683 59.3533 230.893 58.6129C230.917 58.5313 230.899 58.4438 230.788 58.3855C230.689 58.3389 230.538 58.3214 230.398 58.3097C229.138 58.2106 227.856 58.2748 226.591 58.3447C221.081 58.642 215.543 58.9452 210.179 59.6332C209.713 59.6915 209.159 59.7964 209.077 60.0238C208.943 60.3852 209.987 60.5427 210.75 60.5368Z" fill="white"/>
<path d="M204.461 66.5588C205.256 66.5588 205.901 65.914 205.901 65.1187C205.901 64.3234 205.256 63.6787 204.461 63.6787C203.665 63.6787 203.021 64.3234 203.021 65.1187C203.021 65.914 203.665 66.5588 204.461 66.5588Z" fill="#FFD56E"/>
<path d="M202.618 67.7833C202.618 68.2031 202.28 68.5412 201.86 68.5412C201.441 68.5412 201.103 68.2031 201.103 67.7833C201.103 67.3635 201.441 67.0254 201.86 67.0254C202.274 67.0254 202.618 67.3635 202.618 67.7833Z" fill="#FFD56E"/>
<path opacity="0.3297" d="M247.085 243.38C247.085 245.462 239.896 247.147 231.029 247.147C222.161 247.147 214.973 245.462 214.973 243.38C214.973 241.299 222.161 239.614 231.029 239.614C239.896 239.614 247.085 241.299 247.085 243.38Z" fill="#513D36"/>
<path d="M238.911 206.109C239.628 189.726 240.351 173.332 240.007 156.938C239.89 151.37 239.61 145.616 237.179 140.602C236.567 139.331 235.622 137.99 234.217 137.839C232.672 137.664 231.396 139.01 230.568 140.334C227.355 145.447 226.743 151.726 226.341 157.748C225.274 173.781 225.128 189.872 225.898 205.916" fill="#B0C66B"/>
<path d="M233.425 206.15C236.083 193.854 239.406 181.704 243.377 169.77C244.724 165.724 246.228 161.561 249.195 158.5C250.612 157.037 252.874 155.842 254.605 156.909C256.401 158.016 256.267 160.623 255.888 162.692C253.02 178.451 248.752 193.959 243.149 208.966" fill="#BDD87C"/>
<path d="M229.705 204.826C227.635 193.906 224.855 183.115 221.374 172.563C220.418 169.653 219.275 166.587 216.803 164.779C215.754 164.01 214.378 163.514 213.148 163.928C210.932 164.669 210.548 167.613 210.705 169.945C211.649 184.287 217.812 197.696 223.875 210.732" fill="#BDD87C"/>
<path d="M240.537 241.9C247.347 238.991 251.271 235.539 254.378 228.543C257.101 222.41 259.246 207.566 251.889 203.31C251.236 202.932 250.449 202.908 249.697 202.891C236.8 202.611 223.898 202.337 211.002 202.057C209.83 202.034 208.577 202.028 207.603 202.687C206.711 203.293 206.245 204.337 205.819 205.328C200.747 217.174 204.997 232.21 215.666 239.515C222.762 244.372 233.629 244.856 240.537 241.9Z" fill="#F0F4FF"/>
<path d="M254.384 228.537C251.27 235.539 247.358 238.99 240.543 241.899C233.629 244.855 222.761 244.365 215.672 239.515C213.742 238.191 212.022 236.617 210.53 234.845C217.019 237.084 224.685 236.845 230.014 234.571C236.823 231.656 240.741 228.216 243.855 221.214C245.697 217.069 247.271 208.953 245.831 202.803C247.125 202.832 248.414 202.855 249.708 202.884C250.46 202.902 251.247 202.925 251.906 203.304C259.252 207.56 257.106 222.403 254.384 228.537Z" fill="#EDEDED"/>
<path d="M234.462 150.199C233.559 156.536 233.092 162.949 232.638 169.333C232.177 175.699 231.81 182.072 231.565 188.45C231.495 190.263 231.431 192.076 231.378 193.883C231.326 195.697 231.262 197.51 231.338 199.323C231.367 200.017 232.346 199.999 232.404 199.323C232.667 196.146 232.649 192.939 232.748 189.756C232.853 186.567 232.987 183.378 233.116 180.194C233.378 173.799 233.763 167.409 234.153 161.019C234.375 157.428 234.661 153.848 234.812 150.251C234.818 150.047 234.492 149.995 234.462 150.199Z" fill="#A0B758"/>
<path d="M247.609 174.294C246.368 177.355 245.108 180.41 243.907 183.489C242.7 186.584 241.488 189.674 240.316 192.787C239.663 194.531 238.957 196.256 238.491 198.064C238.398 198.437 238.946 198.693 239.127 198.332C239.879 196.845 240.444 195.289 241.033 193.732C241.628 192.17 242.228 190.607 242.799 189.039C243.931 185.949 245.12 182.871 246.181 179.757C246.787 177.973 247.405 176.189 248.029 174.411C248.122 174.143 247.708 174.038 247.609 174.294Z" fill="#A0B758"/>
<path d="M218.249 177.104C219.112 179.949 219.847 182.829 220.68 185.68C221.514 188.531 222.33 191.388 223.181 194.239C223.665 195.86 224.073 197.498 224.814 199.025C225.065 199.538 225.735 199.142 225.665 198.67C225.444 197.201 224.936 195.819 224.482 194.408C224.027 193.003 223.584 191.598 223.112 190.199C222.167 187.4 221.258 184.596 220.29 181.803C219.736 180.206 219.188 178.597 218.675 176.988C218.587 176.72 218.168 176.83 218.249 177.104Z" fill="#A0B758"/>
</g>
</g>
<defs>
<filter id="filter0_i_2072_115623" x="0" y="0" width="292" height="276" filterUnits="userSpaceOnUse" color-interpolation-filters="sRGB">
<feFlood flood-opacity="0" result="BackgroundImageFix"/>
<feBlend mode="normal" in="SourceGraphic" in2="BackgroundImageFix" result="shape"/>
<feColorMatrix in="SourceAlpha" type="matrix" values="0 0 0 0 0 0 0 0 0 0 0 0 0 0 0 0 0 0 127 0" result="hardAlpha"/>
<feOffset dy="2"/>
<feGaussianBlur stdDeviation="2"/>
<feComposite in2="hardAlpha" operator="arithmetic" k2="-1" k3="1"/>
<feColorMatrix type="matrix" values="0 0 0 0 0 0 0 0 0 0 0 0 0 0 0 0 0 0 0.06 0"/>
<feBlend mode="normal" in2="shape" result="effect1_innerShadow_2072_115623"/>
</filter>
<clipPath id="clip0_2072_115623">
<rect width="292" height="274" rx="137" fill="white"/>
</clipPath>
<clipPath id="clip1_2072_115623">
<rect width="49" height="36" fill="white" transform="translate(163 51)"/>
</clipPath>
</defs>
</svg>
