<svg width="28" height="35" viewBox="0 0 28 35" fill="none" xmlns="http://www.w3.org/2000/svg">
<path d="M3.25818 0.333008C1.82801 0.333008 0.666992 1.49404 0.666992 2.9242V31.5963C0.666992 33.0234 1.82801 34.1875 3.25818 34.1875H24.7951C26.2253 34.1875 27.3863 33.0265 27.3863 31.5963V2.9242C27.3863 1.49717 26.2253 0.333008 24.7951 0.333008H3.25818ZM26.4694 2.9242V31.5963C26.4694 32.5195 25.7183 33.2737 24.792 33.2737H3.25504C2.33185 33.2737 1.57766 32.5226 1.57766 31.5963V2.9242C1.57766 2.00101 2.32872 1.24681 3.25504 1.24681H24.792C25.7183 1.24681 26.4694 2.00101 26.4694 2.9242Z" fill="white"/>
<path fill-rule="evenodd" clip-rule="evenodd" d="M0.533203 2.92423C0.533203 1.42043 1.75392 0.199707 3.25772 0.199707H24.7947C26.2986 0.199707 27.5192 1.42367 27.5192 2.92423V31.5964C27.5192 33.1002 26.2985 34.3209 24.7947 34.3209H3.25772C1.75381 34.3209 0.533203 33.0969 0.533203 31.5964V2.92423ZM26.3356 31.5964V2.92423C26.3356 2.07452 25.6441 1.38018 24.7915 1.38018H3.25459C2.40207 1.38018 1.71053 2.07452 1.71053 2.92423V31.5964C1.71053 32.4489 2.40487 33.1404 3.25459 33.1404H24.7915C25.6441 33.1404 26.3356 32.4461 26.3356 31.5964ZM0.666536 2.92423C0.666536 1.49407 1.82756 0.33304 3.25772 0.33304H24.7947C26.2248 0.33304 27.3859 1.4972 27.3859 2.92423V31.5964C27.3859 33.0265 26.2248 34.1876 24.7947 34.1876H3.25772C1.82756 34.1876 0.666536 33.0234 0.666536 31.5964V2.92423ZM26.4689 31.5964V2.92423C26.4689 2.00104 25.7179 1.24684 24.7915 1.24684H3.25459C2.32827 1.24684 1.5772 2.00104 1.5772 2.92423V31.5964C1.5772 32.5227 2.3314 33.2738 3.25459 33.2738H24.7915C25.7179 33.2738 26.4689 32.5196 26.4689 31.5964Z" fill="white"/>
<path d="M24.2242 4.271H3.8671C3.52286 4.271 3.24121 4.55265 3.24121 4.89689V11.1777C3.24121 11.522 3.52286 11.8036 3.8671 11.8036H24.2242C24.5685 11.8036 24.8501 11.522 24.8501 11.1777V4.89689C24.8501 4.54952 24.5685 4.271 24.2242 4.271ZM23.5984 10.5518H4.493V5.52278H23.5984V10.5518Z" fill="white"/>
<path d="M22.4901 23.3281H18.5907C18.2434 23.3281 17.9648 23.6066 17.9648 23.954V30.9358C17.9648 31.2801 18.2434 31.5617 18.5907 31.5617H22.4901C22.8374 31.5617 23.1159 31.2801 23.1159 30.9358V23.954C23.1159 23.6098 22.8374 23.3281 22.4901 23.3281ZM21.8642 30.31H19.2166V24.5799H21.8642V30.31Z" fill="white"/>
<path d="M19.4186 16.9058H21.6624C22.3509 16.9058 22.911 16.2518 22.911 15.4444C22.911 14.637 22.3509 13.9829 21.6624 13.9829H19.4186C18.7301 13.9829 18.1699 14.637 18.1699 15.4444C18.1699 16.2486 18.7301 16.9058 19.4186 16.9058ZM19.4186 14.6088H21.6624C22.0004 14.6088 22.2852 14.9906 22.2852 15.4444C22.2852 15.8981 22.0004 16.2799 21.6624 16.2799H19.4186C19.0806 16.2799 18.7958 15.8981 18.7958 15.4444C18.7958 14.9906 19.0806 14.6088 19.4186 14.6088Z" fill="white"/>
<path d="M19.4186 21.5889H21.6624C22.3509 21.5889 22.911 20.9349 22.911 20.1275C22.911 19.3201 22.3509 18.666 21.6624 18.666H19.4186C18.7301 18.666 18.1699 19.3232 18.1699 20.1275C18.1699 20.9349 18.7301 21.5889 19.4186 21.5889ZM19.4186 19.2919H21.6624C22.0004 19.2919 22.2852 19.6737 22.2852 20.1275C22.2852 20.5812 22.0004 20.963 21.6624 20.963H19.4186C19.0806 20.963 18.7958 20.5812 18.7958 20.1275C18.7958 19.6737 19.0806 19.2919 19.4186 19.2919Z" fill="white"/>
<path d="M15.3206 13.9829H13.0768C12.3883 13.9829 11.8281 14.637 11.8281 15.4444C11.8281 16.2518 12.3883 16.9058 13.0768 16.9058H15.3206C16.0091 16.9058 16.5693 16.2518 16.5693 15.4444C16.5693 14.637 16.0091 13.9829 15.3206 13.9829ZM15.3206 16.2799H13.0768C12.7388 16.2799 12.454 15.8981 12.454 15.4444C12.454 14.9906 12.7388 14.6088 13.0768 14.6088H15.3206C15.6586 14.6088 15.9434 14.9906 15.9434 15.4444C15.9434 15.895 15.6555 16.2799 15.3206 16.2799Z" fill="white"/>
<path d="M15.3206 18.5845H13.0768C12.3883 18.5845 11.8281 19.2385 11.8281 20.0459C11.8281 20.8533 12.3883 21.5074 13.0768 21.5074H15.3206C16.0091 21.5074 16.5693 20.8533 16.5693 20.0459C16.5693 19.2417 16.0091 18.5845 15.3206 18.5845ZM15.3206 20.8815H13.0768C12.7388 20.8815 12.454 20.4997 12.454 20.0459C12.454 19.5922 12.7388 19.2104 13.0768 19.2104H15.3206C15.6586 19.2104 15.9434 19.5922 15.9434 20.0459C15.9434 20.4997 15.6555 20.8815 15.3206 20.8815Z" fill="white"/>
<path d="M8.97392 13.9829H6.7301C6.04162 13.9829 5.48145 14.637 5.48145 15.4444C5.48145 16.2518 6.04162 16.9058 6.7301 16.9058H8.97392C9.6624 16.9058 10.2226 16.2518 10.2226 15.4444C10.2226 14.637 9.6624 13.9829 8.97392 13.9829ZM8.97392 16.2799H6.7301C6.39212 16.2799 6.10734 15.8981 6.10734 15.4444C6.10734 14.9906 6.39212 14.6088 6.7301 14.6088H8.97392C9.3119 14.6088 9.59668 14.9906 9.59668 15.4444C9.59668 15.895 9.3119 16.2799 8.97392 16.2799Z" fill="white"/>
<path d="M8.97392 18.5845H6.7301C6.04162 18.5845 5.48145 19.2385 5.48145 20.0459C5.48145 20.8533 6.04162 21.5074 6.7301 21.5074H8.97392C9.6624 21.5074 10.2226 20.8533 10.2226 20.0459C10.2226 19.2417 9.6624 18.5845 8.97392 18.5845ZM8.97392 20.8815H6.7301C6.39212 20.8815 6.10734 20.4997 6.10734 20.0459C6.10734 19.5922 6.39212 19.2104 6.7301 19.2104H8.97392C9.3119 19.2104 9.59668 19.5922 9.59668 20.0459C9.59668 20.4997 9.3119 20.8815 8.97392 20.8815Z" fill="white"/>
<path d="M8.97392 23.187H6.7301C6.04162 23.187 5.48145 23.8411 5.48145 24.6485C5.48145 25.4559 6.04162 26.1099 6.7301 26.1099H8.97392C9.6624 26.1099 10.2226 25.4559 10.2226 24.6485C10.2226 23.8442 9.6624 23.187 8.97392 23.187ZM8.97392 25.484H6.7301C6.39212 25.484 6.10734 25.1022 6.10734 24.6485C6.10734 24.1947 6.39212 23.8129 6.7301 23.8129H8.97392C9.3119 23.8129 9.59668 24.1947 9.59668 24.6485C9.59668 25.1022 9.3119 25.484 8.97392 25.484Z" fill="white"/>
<path d="M8.97392 27.791H6.7301C6.04162 27.791 5.48145 28.4482 5.48145 29.2525C5.48145 30.0599 6.04162 30.7139 6.7301 30.7139H8.97392C9.6624 30.7139 10.2226 30.0599 10.2226 29.2525C10.2226 28.4451 9.6624 27.791 8.97392 27.791ZM8.97392 30.088H6.7301C6.39212 30.088 6.10734 29.7062 6.10734 29.2525C6.10734 28.7987 6.39212 28.4169 6.7301 28.4169H8.97392C9.3119 28.4169 9.59668 28.7987 9.59668 29.2525C9.59668 29.7062 9.3119 30.088 8.97392 30.088Z" fill="white"/>
<path d="M15.1673 23.187H12.9235C12.235 23.187 11.6748 23.8411 11.6748 24.6485C11.6748 25.4559 12.235 26.1099 12.9235 26.1099H15.1673C15.8558 26.1099 16.4159 25.4559 16.4159 24.6485C16.4159 23.8442 15.8558 23.187 15.1673 23.187ZM15.1673 25.484H12.9235C12.5855 25.484 12.3007 25.1022 12.3007 24.6485C12.3007 24.1947 12.5855 23.8129 12.9235 23.8129H15.1673C15.5053 23.8129 15.79 24.1947 15.79 24.6485C15.79 25.1022 15.5053 25.484 15.1673 25.484Z" fill="white"/>
<path d="M15.1673 27.791H12.9235C12.235 27.791 11.6748 28.4482 11.6748 29.2525C11.6748 30.0599 12.235 30.7139 12.9235 30.7139H15.1673C15.8558 30.7139 16.4159 30.0599 16.4159 29.2525C16.4159 28.4451 15.8558 27.791 15.1673 27.791ZM15.1673 30.088H12.9235C12.5855 30.088 12.3007 29.7062 12.3007 29.2525C12.3007 28.7987 12.5855 28.4169 12.9235 28.4169H15.1673C15.5053 28.4169 15.79 28.7987 15.79 29.2525C15.79 29.7062 15.5053 30.088 15.1673 30.088Z" fill="white"/>
</svg>
