<svg width="16" height="16" viewBox="0 0 16 16" fill="none" xmlns="http://www.w3.org/2000/svg">
<path fill-rule="evenodd" clip-rule="evenodd" d="M7.83341 1.66703C6.61607 1.66703 5.62541 2.66303 5.62541 3.8877V7.01303C5.62541 7.65175 5.89547 8.22868 6.32684 8.63423L8.12696 6.834C8.0764 6.75586 8.04704 6.66275 8.04704 6.56283C8.04704 6.28683 8.27104 6.06283 8.54704 6.06283H8.89809L10.0407 4.9201V4.83761H9.2124C8.9364 4.83761 8.7124 4.61361 8.7124 4.33761C8.7124 4.06161 8.9364 3.83761 9.2124 3.83761H10.0402C10.0136 2.63599 9.0341 1.66703 7.83341 1.66703ZM11.0407 3.92012V3.88766C11.0407 2.11166 9.60199 0.666992 7.83332 0.666992C6.06466 0.666992 4.62533 2.11166 4.62533 3.88766V7.01299C4.62533 7.92768 5.0074 8.7546 5.61974 9.34137L4.45528 10.5059C3.55776 9.62323 3 8.39285 3 7.03418C3 6.75818 2.776 6.53418 2.5 6.53418C2.224 6.53418 2 6.75818 2 7.03418C2 8.66879 2.66988 10.1491 3.74841 11.2128L2.14764 12.8137C1.95231 13.009 1.95231 13.325 2.14764 13.5204C2.24497 13.6184 2.37297 13.667 2.50097 13.667C2.62897 13.667 2.75697 13.6184 2.85431 13.5204L13.5203 2.8537C13.7156 2.65836 13.7156 2.34236 13.5203 2.14703C13.325 1.9517 13.009 1.9517 12.8136 2.14703L11.0407 3.92012ZM7.83333 15.0009C7.55733 15.0009 7.33333 14.7769 7.33333 14.5009V12.7394C6.86746 12.7189 6.38114 12.6528 5.87632 12.5363C5.58034 12.468 5.39577 12.1727 5.46408 11.8767C5.53238 11.5807 5.82769 11.3962 6.12366 11.4645C8.13753 11.9292 9.7088 11.4585 10.7743 10.5767C11.8522 9.68468 12.45 8.3421 12.45 7.0004C12.45 6.69664 12.6962 6.4504 13 6.4504C13.3037 6.4504 13.55 6.69664 13.55 7.0004C13.55 8.6587 12.8145 10.3161 11.4757 11.4241C10.6362 12.1188 9.57384 12.5862 8.33333 12.7122V14.5009C8.33333 14.7769 8.10933 15.0009 7.83333 15.0009ZM11.2167 7.33373C11.2167 7.02997 10.9704 6.78373 10.6667 6.78373C10.3629 6.78373 10.1167 7.02997 10.1167 7.33373C10.1167 7.67597 9.99614 8.21363 9.63927 8.65422C9.30127 9.0715 8.71317 9.4504 7.66666 9.4504C7.3629 9.4504 7.11666 9.69664 7.11666 10.0004C7.11666 10.3042 7.3629 10.5504 7.66666 10.5504C9.02015 10.5504 9.93204 10.0404 10.494 9.34658C11.0372 8.67605 11.2167 7.88039 11.2167 7.33373Z" fill="white"/>
</svg>
