<svg width="25" height="24" viewBox="0 0 25 24" fill="none" xmlns="http://www.w3.org/2000/svg">
<path fill-rule="evenodd" clip-rule="evenodd" d="M12.25 22.5008C11.836 22.5008 11.5 22.1648 11.5 21.7508V18.5898C11.5 18.1758 11.836 17.8398 12.25 17.8398C12.664 17.8398 13 18.1758 13 18.5898V21.7508C13 22.1648 12.664 22.5008 12.25 22.5008Z" fill="#3488ED"/>
<path fill-rule="evenodd" clip-rule="evenodd" d="M12.25 2.5C10.424 2.5 8.93799 3.994 8.93799 5.831V10.519C8.93799 12.354 10.424 13.849 12.25 13.849C14.076 13.849 15.561 12.354 15.561 10.519V5.831C15.561 3.994 14.076 2.5 12.25 2.5ZM12.25 15.349C9.59699 15.349 7.43799 13.182 7.43799 10.519V5.831C7.43799 3.167 9.59699 1 12.25 1C14.903 1 17.061 3.167 17.061 5.831V10.519C17.061 13.182 14.903 15.349 12.25 15.349Z" fill="#3488ED"/>
<path fill-rule="evenodd" clip-rule="evenodd" d="M12.25 19.3388C7.425 19.3388 3.5 15.3968 3.5 10.5508C3.5 10.1368 3.836 9.80078 4.25 9.80078C4.664 9.80078 5 10.1368 5 10.5508C5 14.5688 8.252 17.8388 12.25 17.8388C16.248 17.8388 19.5 14.5688 19.5 10.5508C19.5 10.1368 19.836 9.80078 20.25 9.80078C20.664 9.80078 21 10.1368 21 10.5508C21 15.3968 17.075 19.3388 12.25 19.3388Z" fill="#3488ED"/>
<path fill-rule="evenodd" clip-rule="evenodd" d="M16.3086 7.25586H14.3186C13.9046 7.25586 13.5686 6.91986 13.5686 6.50586C13.5686 6.09186 13.9046 5.75586 14.3186 5.75586H16.3086C16.7226 5.75586 17.0586 6.09186 17.0586 6.50586C17.0586 6.91986 16.7226 7.25586 16.3086 7.25586Z" fill="#3488ED"/>
<path fill-rule="evenodd" clip-rule="evenodd" d="M16.3106 10.5938H13.3206C12.9066 10.5938 12.5706 10.2578 12.5706 9.84375C12.5706 9.42975 12.9066 9.09375 13.3206 9.09375H16.3106C16.7246 9.09375 17.0606 9.42975 17.0606 9.84375C17.0606 10.2578 16.7246 10.5938 16.3106 10.5938Z" fill="#3488ED"/>
</svg>
