<svg width="40" height="40" viewBox="0 0 40 40" fill="none" xmlns="http://www.w3.org/2000/svg">
<rect width="40" height="40" rx="20" fill="#F4CC3D"/>
<path fill-rule="evenodd" clip-rule="evenodd" d="M25.9087 10.4117H13.3624V11.8673H9V18.6946C9 21.3332 11.9449 23.5045 14.8348 23.7303C15.7835 24.7468 17.4522 25.4852 18.9374 25.8V27.5844C17.5172 28.0207 14.9802 29.0456 14.8348 30.1623H24.5816C24.4348 29.0456 21.6395 28.0193 20.2165 27.5844V25.8C21.7073 25.4852 23.4508 24.7468 24.4009 23.7303C27.2894 23.5045 30.1045 21.3332 30.1045 18.6946V11.8673H25.9087V10.4117ZM10.3398 13.1604H13.2607V19.0419C13.2607 20.2023 13.56 21.3063 14.0866 22.3002C11.9012 21.6042 10.3398 19.8113 10.3398 17.7134V13.1604ZM21.7807 20.3336L19.6009 19.1322L17.4184 20.3336L17.8348 17.7924L16.0701 15.9939L18.5082 15.6226L19.6009 13.3129L20.6908 15.6226L23.1289 15.9939L21.3642 17.7924L21.7807 20.3336ZM25.0207 22.488C25.5501 21.4489 25.8536 20.2997 25.8536 19.0842V13.1986H28.7816V17.6964C28.7816 19.8889 27.2132 21.7609 25.0207 22.488Z" fill="white"/>
</svg>
