<svg width="40" height="40" viewBox="0 0 40 40" fill="none" xmlns="http://www.w3.org/2000/svg">
<rect width="40" height="40" rx="20" fill="#ED942B"/>
<path d="M27.9009 20.66C27.7406 20.4775 27.6521 20.2429 27.6521 20C27.6521 19.7571 27.7406 19.5225 27.9009 19.34L29.1809 17.9C29.3219 17.7427 29.4095 17.5447 29.4311 17.3345C29.4526 17.1243 29.407 16.9127 29.3009 16.73L27.3009 13.27C27.1958 13.0875 27.0358 12.9429 26.8436 12.8567C26.6515 12.7705 26.437 12.7472 26.2309 12.79L24.3509 13.17C24.1117 13.2194 23.8626 13.1796 23.6508 13.058C23.4389 12.9364 23.2789 12.7415 23.2009 12.51L22.5909 10.68C22.5238 10.4814 22.396 10.3089 22.2255 10.1869C22.055 10.0648 21.8505 9.99948 21.6409 10H17.6409C17.4228 9.98864 17.207 10.0489 17.0264 10.1717C16.8459 10.2945 16.7105 10.473 16.6409 10.68L16.0809 12.51C16.0029 12.7415 15.8428 12.9364 15.631 13.058C15.4191 13.1796 15.1701 13.2194 14.9309 13.17L13.0009 12.79C12.8054 12.7624 12.6062 12.7932 12.4282 12.8787C12.2503 12.9641 12.1016 13.1002 12.0009 13.27L10.0009 16.73C9.89203 16.9107 9.84309 17.1211 9.86106 17.3312C9.87902 17.5414 9.96296 17.7405 10.1009 17.9L11.3709 19.34C11.5312 19.5225 11.6196 19.7571 11.6196 20C11.6196 20.2429 11.5312 20.4775 11.3709 20.66L10.1009 22.1C9.96296 22.2596 9.87902 22.4587 9.86106 22.6688C9.84309 22.8789 9.89203 23.0894 10.0009 23.27L12.0009 26.73C12.106 26.9125 12.266 27.0571 12.4581 27.1433C12.6503 27.2295 12.8647 27.2529 13.0709 27.21L14.9509 26.83C15.1901 26.7806 15.4391 26.8204 15.651 26.942C15.8628 27.0636 16.0229 27.2585 16.1009 27.49L16.7109 29.32C16.7805 29.527 16.9159 29.7055 17.0964 29.8283C17.277 29.9511 17.4928 30.0114 17.7109 30H21.7109C21.9205 30.0006 22.125 29.9352 22.2955 29.8132C22.466 29.6912 22.5938 29.5186 22.6609 29.32L23.2709 27.49C23.3489 27.2585 23.5089 27.0636 23.7208 26.942C23.9326 26.8204 24.1817 26.7806 24.4209 26.83L26.3009 27.21C26.507 27.2529 26.7215 27.2295 26.9136 27.1433C27.1058 27.0571 27.2658 26.9125 27.3709 26.73L29.3709 23.27C29.477 23.0873 29.5226 22.8757 29.5011 22.6655C29.4795 22.4553 29.3919 22.2573 29.2509 22.1L27.9009 20.66ZM26.4109 22L27.2109 22.9L25.9309 25.12L24.7509 24.88C24.0307 24.7328 23.2814 24.8551 22.6455 25.2238C22.0095 25.5925 21.531 26.1819 21.3009 26.88L20.9209 28H18.3609L18.0009 26.86C17.7707 26.1619 17.2923 25.5725 16.6563 25.2038C16.0203 24.8351 15.2711 24.7128 14.5509 24.86L13.3709 25.1L12.0709 22.89L12.8709 21.99C13.3628 21.44 13.6348 20.7279 13.6348 19.99C13.6348 19.2521 13.3628 18.54 12.8709 17.99L12.0709 17.09L13.3509 14.89L14.5309 15.13C15.2511 15.2772 16.0003 15.1549 16.6363 14.7862C17.2723 14.4175 17.7507 13.8282 17.9809 13.13L18.3609 12H20.9209L21.3009 13.14C21.531 13.8382 22.0095 14.4275 22.6455 14.7962C23.2814 15.1649 24.0307 15.2872 24.7509 15.14L25.9309 14.9L27.2109 17.12L26.4109 18.02C25.9244 18.5688 25.6558 19.2767 25.6558 20.01C25.6558 20.7433 25.9244 21.4513 26.4109 22V22ZM19.6409 16C18.8497 16 18.0764 16.2346 17.4186 16.6741C16.7608 17.1137 16.2481 17.7384 15.9454 18.4693C15.6426 19.2002 15.5634 20.0045 15.7177 20.7804C15.8721 21.5563 16.253 22.269 16.8124 22.8284C17.3719 23.3879 18.0846 23.7688 18.8605 23.9232C19.6364 24.0775 20.4407 23.9983 21.1716 23.6955C21.9025 23.3928 22.5272 22.8801 22.9668 22.2223C23.4063 21.5645 23.6409 20.7911 23.6409 20C23.6409 18.9392 23.2194 17.9217 22.4693 17.1716C21.7192 16.4214 20.7017 16 19.6409 16V16ZM19.6409 22C19.2453 22 18.8586 21.8827 18.5297 21.663C18.2008 21.4432 17.9445 21.1308 17.7931 20.7654C17.6417 20.3999 17.6021 19.9978 17.6793 19.6098C17.7565 19.2219 17.947 18.8655 18.2267 18.5858C18.5064 18.3061 18.8627 18.1156 19.2507 18.0384C19.6387 17.9613 20.0408 18.0009 20.4062 18.1523C20.7717 18.3036 21.084 18.56 21.3038 18.8889C21.5236 19.2178 21.6409 19.6045 21.6409 20C21.6409 20.5305 21.4302 21.0392 21.0551 21.4142C20.68 21.7893 20.1713 22 19.6409 22Z" fill="white"/>
</svg>
