<svg width="40" height="40" viewBox="0 0 40 40" fill="none" xmlns="http://www.w3.org/2000/svg">
<rect width="40" height="40" rx="20" fill="#CF3135"/>
<path d="M17 23L23 17" stroke="white" stroke-width="2" stroke-linecap="round" stroke-linejoin="round"/>
<path d="M17.5 18C17.7761 18 18 17.7761 18 17.5C18 17.2239 17.7761 17 17.5 17C17.2239 17 17 17.2239 17 17.5C17 17.7761 17.2239 18 17.5 18Z" fill="white" stroke="white" stroke-width="2" stroke-linecap="round" stroke-linejoin="round"/>
<path d="M22.5 23C22.7761 23 23 22.7761 23 22.5C23 22.2239 22.7761 22 22.5 22C22.2239 22 22 22.2239 22 22.5C22 22.7761 22.2239 23 22.5 23Z" fill="white" stroke="white" stroke-width="2" stroke-linecap="round" stroke-linejoin="round"/>
<path d="M13.0005 15.2C13.0005 14.6165 13.2322 14.0569 13.6448 13.6443C14.0574 13.2318 14.617 13 15.2005 13H16.2005C16.7814 12.9996 17.3386 12.7696 17.7505 12.36L18.4505 11.66C18.6549 11.4544 18.898 11.2912 19.1657 11.1799C19.4334 11.0685 19.7205 11.0112 20.0105 11.0112C20.3004 11.0112 20.5875 11.0685 20.8552 11.1799C21.1229 11.2912 21.366 11.4544 21.5705 11.66L22.2705 12.36C22.6824 12.7696 23.2396 12.9996 23.8205 13H24.8205C25.4039 13 25.9635 13.2318 26.3761 13.6443C26.7887 14.0569 27.0205 14.6165 27.0205 15.2V16.2C27.0208 16.7809 27.2509 17.3381 27.6605 17.75L28.3605 18.45C28.5661 18.6544 28.7292 18.8975 28.8406 19.1652C28.9519 19.4329 29.0092 19.72 29.0092 20.01C29.0092 20.2999 28.9519 20.587 28.8406 20.8547C28.7292 21.1225 28.5661 21.3655 28.3605 21.57L27.6605 22.27C27.2509 22.6819 27.0208 23.2391 27.0205 23.82V24.82C27.0205 25.4034 26.7887 25.963 26.3761 26.3756C25.9635 26.7882 25.4039 27.02 24.8205 27.02H23.8205C23.2396 27.0203 22.6824 27.2504 22.2705 27.66L21.5705 28.36C21.366 28.5656 21.1229 28.7287 20.8552 28.8401C20.5875 28.9514 20.3004 29.0087 20.0105 29.0087C19.7205 29.0087 19.4334 28.9514 19.1657 28.8401C18.898 28.7287 18.6549 28.5656 18.4505 28.36L17.7505 27.66C17.3386 27.2504 16.7814 27.0203 16.2005 27.02H15.2005C14.617 27.02 14.0574 26.7882 13.6448 26.3756C13.2322 25.963 13.0005 25.4034 13.0005 24.82V23.82C13.0001 23.2391 12.7701 22.6819 12.3605 22.27L11.6605 21.57C11.4549 21.3655 11.2917 21.1225 11.1804 20.8547C11.069 20.587 11.0117 20.2999 11.0117 20.01C11.0117 19.72 11.069 19.4329 11.1804 19.1652C11.2917 18.8975 11.4549 18.6544 11.6605 18.45L12.3605 17.75C12.7701 17.3381 13.0001 16.7809 13.0005 16.2V15.2" stroke="white" stroke-width="2" stroke-linecap="round" stroke-linejoin="round"/>
</svg>
