<svg width="32" height="34" viewBox="0 0 32 34" fill="none" xmlns="http://www.w3.org/2000/svg">
<path d="M28.0943 0.833984C26.927 0.833984 25.9788 1.78221 25.9788 2.9495V4.37028C25.4311 3.94467 24.7458 3.68805 23.9978 3.68805C22.286 3.68805 20.884 5.02746 20.7776 6.71111H16.3025C16.193 5.02746 14.7941 3.68805 13.0823 3.68805C12.012 3.68805 11.0638 4.2138 10.4754 5.01495C9.8871 4.21067 8.93887 3.68805 7.86859 3.68805C7.12378 3.68805 6.43531 3.94467 5.88766 4.37028V2.9495C5.88766 1.78221 4.93943 0.833984 3.77214 0.833984C2.60485 0.833984 1.65662 1.78221 1.65662 2.9495V27.3499C0.764722 27.8976 0.166992 28.8771 0.166992 29.9974C0.166992 31.7093 1.5596 33.105 3.27454 33.105H28.8329C30.5447 33.105 31.9404 31.7093 31.9404 29.9974C31.9404 28.7769 31.23 27.7192 30.2036 27.2122V2.9495C30.2098 1.78221 29.2585 0.833984 28.0943 0.833984ZM27.2306 13.8682V6.92079V2.9495C27.2306 2.47382 27.6186 2.08577 28.0943 2.08577C28.57 2.08577 28.958 2.47382 28.958 2.9495V26.8961C28.9174 26.8961 28.8798 26.8899 28.8391 26.8899H27.2306V13.8682ZM23.9978 4.93984C25.09 4.93984 25.9788 5.8286 25.9788 6.92079C25.9788 8.01297 25.09 8.90174 23.9978 8.90174C22.9057 8.90174 22.0169 8.01297 22.0169 6.92079C22.02 5.8286 22.9088 4.93984 23.9978 4.93984ZM13.0792 4.93984C14.1713 4.93984 15.0601 5.8286 15.0601 6.92079C15.0601 8.01297 14.1713 8.90174 13.0792 8.90174C11.987 8.90174 11.0982 8.01297 11.0982 6.92079C11.1013 5.8286 11.9901 4.93984 13.0792 4.93984ZM10.4754 8.8235C11.0638 9.62777 12.012 10.1504 13.0823 10.1504C14.7221 10.1504 16.0772 8.92051 16.2837 7.337H20.7995C21.0061 8.92051 22.3611 10.1504 24.001 10.1504C24.7458 10.1504 25.4343 9.89377 25.9819 9.46817V11.3208C25.4343 10.8952 24.7489 10.6386 24.001 10.6386C22.7648 10.6386 21.6914 11.3365 21.1469 12.3567C20.6024 11.3365 19.529 10.6386 18.2928 10.6386C16.581 10.6386 15.179 11.978 15.0726 13.6616H5.89077V9.46817C6.43843 9.89377 7.12378 10.1504 7.87172 10.1504C8.93887 10.1504 9.8871 9.62777 10.4754 8.8235ZM18.2928 24.7931C19.9702 24.7931 21.3503 23.5101 21.5068 21.8734H25.9788V26.8899H5.89077V24.1078C6.43843 24.5334 7.12378 24.79 7.87172 24.79C9.54912 24.79 10.9292 23.5069 11.0888 21.8702H15.0789C15.2354 23.5101 16.6154 24.7931 18.2928 24.7931ZM16.3119 21.5604C16.3119 20.4682 17.2006 19.5795 18.2928 19.5795C19.385 19.5795 20.2706 20.4682 20.2706 21.5604C20.2706 22.6526 19.3819 23.5414 18.2928 23.5414C17.2006 23.5414 16.3119 22.6526 16.3119 21.5604ZM21.5068 21.2475C21.3503 19.6139 19.9671 18.3277 18.2928 18.3277C16.6154 18.3277 15.2354 19.6108 15.0758 21.2475H11.0857C10.9292 19.6139 9.54598 18.3277 7.86859 18.3277C7.12378 18.3277 6.43531 18.5843 5.88766 19.0099V14.2844H15.0883C15.2948 15.8679 16.6499 17.0978 18.2897 17.0978C19.5258 17.0978 20.5993 16.3999 21.1438 15.3797C21.6883 16.3999 22.7617 17.0978 23.9978 17.0978C24.7427 17.0978 25.4311 16.8412 25.9788 16.4156V21.2475H21.5068ZM16.3119 13.8682C16.3119 12.776 17.2006 11.8872 18.2928 11.8872C19.385 11.8872 20.2706 12.776 20.2706 13.8682C20.2706 14.9604 19.3819 15.8491 18.2928 15.8491C17.2006 15.846 16.3119 14.9604 16.3119 13.8682ZM23.9978 15.846C22.9057 15.846 22.0169 14.9572 22.0169 13.8651C22.0169 12.7729 22.9057 11.8841 23.9978 11.8841C25.09 11.8841 25.9788 12.7729 25.9788 13.8651C25.9788 14.9604 25.09 15.846 23.9978 15.846ZM7.86859 4.93984C8.96077 4.93984 9.84642 5.82547 9.84955 6.91766C9.84955 8.00984 8.96077 8.89548 7.86859 8.89548C6.77641 8.89548 5.88766 8.00671 5.88766 6.91453C5.89079 5.8286 6.77641 4.93984 7.86859 4.93984ZM7.86859 19.5795C8.96077 19.5795 9.84955 20.4682 9.84955 21.5604C9.84955 22.6526 8.96077 23.5414 7.86859 23.5414C6.77641 23.5414 5.88766 22.6526 5.88766 21.5604C5.89079 20.4682 6.77641 19.5795 7.86859 19.5795ZM2.91154 2.9495C2.91154 2.47382 3.29959 2.08577 3.77527 2.08577C4.25095 2.08577 4.63899 2.47382 4.63899 2.9495V6.9114C4.63899 6.91453 4.63899 6.91766 4.63899 6.92079C4.63899 6.92392 4.63899 6.92705 4.63899 6.93017V21.551C4.63899 21.5541 4.63899 21.5573 4.63899 21.5604C4.63899 21.5635 4.63899 21.5667 4.63899 21.5698V26.8899H3.28081C3.15563 26.8899 3.03359 26.8993 2.91467 26.9149V2.9495H2.91154ZM30.6918 29.9974C30.6918 31.0208 29.8593 31.8532 28.836 31.8532H3.27768C2.25434 31.8532 1.42191 31.0208 1.42191 29.9974C1.42191 28.9741 2.25434 28.1417 3.27768 28.1417H28.836C29.8593 28.1417 30.6918 28.9741 30.6918 29.9974Z" fill="white"/>
</svg>
