<svg width="44" height="44" viewBox="0 0 44 44" fill="none" xmlns="http://www.w3.org/2000/svg">
<rect width="44" height="44" rx="12" fill="url(#paint0_linear_2415:128498)"/>
<path d="M26.6308 23.131C26.5743 23.189 26.3609 23.437 26.1622 23.641C24.9971 24.924 21.9576 27.024 20.3668 27.665C20.1252 27.768 19.5144 27.986 19.188 28C18.8753 28 18.5772 27.928 18.2927 27.782C17.9381 27.578 17.6537 27.257 17.4978 26.878C17.3975 26.615 17.2416 25.828 17.2416 25.814C17.0857 24.953 17 23.554 17 22.008C17 20.535 17.0857 19.193 17.2133 18.319C17.228 18.305 17.3838 17.327 17.5543 16.992C17.867 16.38 18.4778 16 19.1315 16H19.188C19.6137 16.015 20.509 16.395 20.509 16.409C22.0141 17.051 24.9834 19.048 26.1768 20.375C26.1768 20.375 26.5129 20.716 26.659 20.929C26.887 21.235 27 21.614 27 21.993C27 22.416 26.8724 22.81 26.6308 23.131" fill="white"/>
<defs>
<linearGradient id="paint0_linear_2415:128498" x1="22" y1="0" x2="22" y2="44" gradientUnits="userSpaceOnUse">
<stop stop-color="#FFB3B3"/>
<stop offset="0.666667" stop-color="#FC2020"/>
</linearGradient>
</defs>
</svg>
