<svg width="24" height="20" viewBox="0 0 24 20" fill="none" xmlns="http://www.w3.org/2000/svg">
<path d="M19.9404 12.4393C19.5912 17.4953 16.3922 19.75 12.0085 19.75C7.62224 19.75 4.06055 16.3037 4.06055 12.4393C4.06055 8.57493 6.44844 5.12049 12.3389 5.12049C16.7252 5.11775 20.2198 8.37542 19.9404 12.4393Z" fill="#BDE9FF"/>
<path d="M5.17976 10.458C5.075 10.9199 5.08037 11.2779 4.844 11.7288C4.62912 12.1415 4.52705 12.3438 4.53242 12.8439C4.54048 13.4889 4.34171 15.4129 5.45642 15.115C6.38042 14.869 5.87544 13.631 6.53083 13.0926C6.84241 12.8384 7.24263 12.9368 7.43334 12.5296C7.60794 12.1579 7.37962 11.7562 7.68583 11.4118C8.22841 10.7996 9.35386 11.0565 9.75945 10.3214C9.09869 9.92782 8.35465 9.5944 8.72533 8.58321C8.86232 8.20606 9.30551 7.89724 9.30283 7.4545C9.30014 6.86418 8.88649 7.28506 8.50507 6.98443C8.19081 6.73574 8.50239 6.2684 8.22035 6.05523C8.12097 5.97871 7.95981 5.99784 7.78521 6.05523C6.54964 6.66468 5.64713 7.54196 5.04277 8.57774C6.05809 8.43563 5.26571 10.0754 5.17976 10.458Z" fill="#689B87"/>
<path d="M7.95264 13.1846C7.9795 13.1764 8.00098 13.1682 8.02247 13.1627C8.06545 13.1218 8.10305 13.0698 8.13797 12.996L7.95264 13.1846Z" fill="#689B87"/>
<path d="M8.01827 13.1633C7.78459 13.3874 7.45689 13.1606 7.20978 13.3737C7.11039 13.4612 6.9734 14.3139 7.0701 14.4587C7.3978 14.9561 8.16063 13.5186 8.17406 13.1961C8.10691 13.1442 8.06662 13.1469 8.01827 13.1633Z" fill="#689B87"/>
<path d="M17.0576 17.3473L17.4121 17.2435C16.84 17.1833 16.6761 17.5195 16.2115 17.7217C15.7951 17.9021 15.2848 17.7791 14.8469 17.9759C14.1727 18.2792 13.0795 19.5091 14.5327 19.2112C14.71 19.1756 14.9356 19.0308 15.1021 19.1319C15.1317 19.1511 15.1532 19.1756 15.1693 19.2057C16.0557 18.886 16.848 18.4296 17.5276 17.8338C17.5142 17.5905 17.3852 17.3992 17.0576 17.3473Z" fill="#689B87"/>
<path d="M18.1216 17.3616C18.2317 17.3206 18.3123 17.2086 18.3606 17.0664C18.2827 17.1676 18.2048 17.2632 18.1216 17.3561C18.1216 17.3589 18.1216 17.3616 18.1216 17.3616Z" fill="#689B87"/>
<path d="M18.0209 16.1943C17.7765 16.555 18.1364 16.9513 18.1203 17.3585C18.2035 17.2656 18.2814 17.1672 18.3593 17.0688C18.4883 16.6944 18.3916 16.1259 18.0209 16.1943Z" fill="#689B87"/>
<path d="M17.2383 15.0181C16.9804 15.2258 16.6071 15.1056 16.3627 15.3133C16.1209 15.5155 16.1612 15.9145 16.4996 16.0539C17.0288 16.2725 17.0073 15.7423 17.1577 15.4417C17.2222 15.3105 17.4854 15.1711 17.4747 15.0181C17.4559 14.7639 17.3457 14.9306 17.2383 15.0181Z" fill="#689B87"/>
<path d="M14.9312 14.409C14.9822 14.4746 15.0144 14.2833 15.0655 14.3134C14.9285 14.6031 15.1648 14.9365 15.1595 15.2535C15.1568 15.4257 15.0332 16.3112 15.4469 15.7236C15.6591 15.4257 15.3421 13.8269 14.9312 14.409Z" fill="#689B87"/>
<path d="M17.7903 13.8906L17.8279 13.6966C17.8171 13.7021 17.8064 13.7048 17.7983 13.7103C17.7876 13.7677 17.7849 13.8305 17.7903 13.8906Z" fill="#689B87"/>
<path d="M18.1534 13.6624C18.0486 13.6351 17.9358 13.6515 17.8391 13.6925C17.8767 14.2774 17.447 14.4851 17.8499 15.059C18.0325 14.8732 18.0352 14.6709 18.0701 14.4085C18.0809 14.3293 18.0272 14.168 18.0325 14.0806C18.0406 13.9303 18.1883 13.8538 18.1534 13.6624Z" fill="#689B87"/>
<path d="M17.8286 13.6949C17.8313 13.6922 17.8365 13.6922 17.8392 13.6895C17.8392 13.6761 17.8392 13.6653 17.8365 13.6519L17.8286 13.6949Z" fill="#689B87"/>
<path d="M11.1401 9.08578C10.9736 8.83982 10.9548 8.89721 10.9064 8.58019C10.8527 8.21398 10.979 7.88875 10.7802 7.58266C10.6969 7.45421 10.5223 7.29297 10.3478 7.21918H10.3531C10.3504 7.21918 10.3504 7.21918 10.3478 7.21918C10.2376 7.17272 10.1302 7.15905 10.0469 7.21098C9.7622 7.20551 9.45599 7.23558 9.32437 7.50067C9.21424 7.72204 9.26528 8.29596 9.21156 8.58292C8.99399 9.70617 9.68967 9.71163 10.5868 9.71163C10.8957 9.71163 11.4598 9.86741 11.4195 9.4274C11.4061 9.27982 11.2127 9.18964 11.1401 9.08578Z" fill="#689B87"/>
<path d="M16.4312 6.17175C16.638 6.28927 16.8367 6.41499 17.0301 6.5489C16.8367 6.37399 16.6326 6.22914 16.4312 6.17175Z" fill="#689B87"/>
<path d="M15.9075 6.28653C15.3756 6.732 16.0337 6.86044 15.9451 7.21573C15.894 7.42343 15.6281 7.37151 15.4777 7.4043C15.5099 7.3961 14.8975 7.47809 14.9835 7.50815C14.9727 7.53275 14.9566 7.54095 14.9351 7.53548C14.9002 7.09274 14.4812 6.66367 14.0595 6.96976C13.6619 6.54889 14.3173 6.22913 14.363 5.80826C14.1266 5.79733 13.8392 5.75087 13.6431 5.90391C13.3853 6.10615 13.5142 6.34938 13.1811 6.44777C13.1355 6.46143 12.9555 6.31659 12.8481 6.36031C12.6815 6.42864 12.6762 6.60081 12.5821 6.74019C12.4398 6.94516 12.3028 7.27039 12.1094 7.44529C11.8972 7.63387 11.771 7.81698 11.6367 7.44529C11.4889 7.03808 11.9106 7.05995 11.9724 6.73746C12.0557 6.28652 11.1048 6.05969 11.18 6.78119C10.8362 6.80852 10.5757 6.4587 10.1701 6.50516C9.6275 6.56802 9.79672 6.72653 10.2641 6.88231C11.1988 7.19113 11.1156 7.58741 11.3358 8.42369C11.5803 9.3447 12.5445 8.92382 12.5741 9.84482C12.5875 10.3122 12.7272 10.4269 12.8857 10.8314C13.0603 11.2742 12.9018 11.4518 12.8024 11.8617C12.7326 12.1487 12.5419 12.6516 12.8964 12.709C13.2617 12.5204 13.5357 12.4685 13.7291 12.0503C13.8231 11.8426 13.6915 11.7579 13.9144 11.6158C14.1024 11.4955 14.3334 11.6458 14.5161 11.6322C14.8518 11.6021 15.1634 11.3015 15.4858 11.5338C15.9289 11.8563 15.5583 12.2444 15.6254 12.616C15.6926 12.9877 16.1922 13.0697 16.2862 13.4031C16.3856 13.7584 15.7732 13.9251 15.8537 14.2613C16.0149 14.9418 16.2943 13.9333 16.3614 13.8732C16.4769 13.7693 16.7536 13.865 16.8395 13.7584C16.9201 13.6573 16.8879 13.3129 16.8744 13.1818C16.8368 12.8073 16.6354 12.5668 17.1027 12.4275C17.4358 12.3291 17.8548 12.6871 18.1664 12.5231C18.6553 12.2662 18.0912 12.0858 18.0348 11.8071C17.9623 11.4545 18.3652 11.2031 18.2175 10.826C18.7385 10.5308 18.7197 11.3999 18.7278 11.7142C19.2059 11.7169 18.7573 10.9845 18.709 10.744C18.6284 10.3395 18.854 10.0525 18.803 9.65352C18.709 8.91836 18.3115 7.83611 17.7931 7.33871C17.597 7.15287 17.3284 6.81398 17.0356 6.54342C16.8422 6.40951 16.6434 6.28379 16.4366 6.16628C16.2513 6.12528 16.074 6.14715 15.9075 6.28653Z" fill="#689B87"/>
<path d="M9.8343 5.58197C9.9686 5.81974 9.60061 6.18048 9.93637 6.27614C10.1351 6.33353 10.1566 6.08756 10.307 6.0493C10.4467 6.01377 10.53 6.0329 10.675 6.02744C10.9356 6.01924 11.1585 6.21328 11.3277 5.89899C11.2874 5.87439 11.2552 5.8252 11.1907 5.79514C11.2096 5.57924 11.3197 5.50818 11.1827 5.33327C11.1397 5.27861 11.0914 5.22668 11.043 5.17749C10.4763 5.23215 9.94711 5.32234 9.45557 5.44259C9.6033 5.43165 9.74029 5.41253 9.8343 5.58197Z" fill="#689B87"/>
<path opacity="0.55" d="M17.6603 10.8183C16.6423 13.0703 14.7943 13.5376 12.7878 12.7669C10.7814 11.9962 9.73651 9.79349 10.3919 8.02527C11.0473 6.25705 12.7288 5.09828 15.4255 6.13407C17.432 6.90476 18.4796 9.01186 17.6603 10.8183Z" fill="#A3D1F0"/>
<path opacity="0.55" d="M16.3138 8.766C15.9538 9.53122 15.2071 9.64874 14.3664 9.32352C13.5257 9.00103 13.0395 8.19755 13.2651 7.59356C13.4907 6.98958 14.1488 6.62336 15.2796 7.06063C16.1231 7.38312 16.6039 8.15108 16.3138 8.766Z" fill="#CCE5F6"/>
<path opacity="0.35" d="M14.0129 16.9568C10.0107 16.9568 6.76063 13.8112 6.76063 10.2857C6.76063 9.11326 7.00506 7.98182 7.52346 6.99249C5.56803 8.22505 4.71387 10.2857 4.71387 12.4939C4.71387 16.0194 7.96398 19.1651 11.9662 19.1651C14.8107 19.1651 17.1046 18.1238 18.3106 15.8691C17.1341 16.6043 15.6649 16.9568 14.0129 16.9568Z" fill="#006D6B"/>
<path opacity="0.32" d="M5.03968 10.6755C5.64404 10.987 9.82889 12.0583 12.3323 12.0228C14.1722 11.9955 15.8537 11.8971 17.6157 11.3724C18.3812 11.1455 19.0393 10.7848 19.7672 10.4705C19.3724 8.88539 18.3759 7.49158 17.0302 6.55144C16.8556 6.39293 16.6595 6.23442 16.4312 6.17156C14.7793 5.23416 12.9044 4.99913 11.043 5.17951C10.4762 5.23416 9.94707 5.32162 9.45822 5.4446C8.84311 5.59765 8.2871 5.80262 7.78481 6.04858C7.61559 6.1333 7.45174 6.22349 7.28789 6.31915C7.15628 6.3984 7.02466 6.48039 6.89842 6.57058C5.63329 7.44785 4.75765 8.787 4.33594 10.2683C4.55351 10.4158 4.78719 10.547 5.03968 10.6755Z" fill="#6E6E6E"/>
<path d="M18.147 4.52432C14.8512 5.1447 12.0013 4.96706 12.0013 4.96706C12.0013 4.96706 9.15144 5.1447 5.85567 4.52432L4.78125 8.05529C4.78125 8.05529 7.84871 9.54202 12.0013 9.54202C16.3635 9.54202 19.2214 8.05529 19.2214 8.05529L18.147 4.52432Z" fill="#3D3D3D"/>
<path d="M12.0012 0.632996L0 2.51326V2.89588L12.0012 7.0363L23.9998 2.89588V2.51326L12.0012 0.632996Z" fill="#454545"/>
<path d="M12.0012 0.249939L0 2.51282L12.0012 6.65324L23.9998 2.51282L12.0012 0.249939Z" fill="#6A6A6A"/>
<path d="M5.23778 3.41538C6.08925 2.63922 6.92998 1.84667 7.76265 1.04865L0 2.51351L4.5018 4.06582C4.74892 3.85265 4.99603 3.63675 5.23778 3.41538Z" fill="#A4A4A4"/>
<path d="M13.4115 3.47534C14.0131 2.6008 14.6282 1.73445 15.2272 0.857178L14.1233 0.649475C12.4579 2.34664 10.7576 4.011 9.01172 5.62071L11.4641 6.46792C12.106 5.46493 12.7373 4.45647 13.4115 3.47534Z" fill="#A4A4A4"/>
<path d="M23.9995 2.51289L19.6615 1.69574C18.9981 2.7206 18.2943 3.71812 17.5986 4.72111L23.9995 2.51289Z" fill="#A4A4A4"/>
<path d="M12.0014 2.77603C12.0014 2.77603 3.13479 3.05479 2.64593 3.75443C2.15707 4.45406 1.68164 11.0241 1.68164 11.0241H2.11678C2.11678 11.0241 2.6137 4.54972 2.9602 4.06872C3.30401 3.58498 12.0014 2.77603 12.0014 2.77603Z" fill="#3D3D3D"/>
<path d="M0.761719 13.2309C0.761719 13.2309 1.30161 10.4651 1.9382 10.6564C2.55868 10.8423 2.59628 13.3074 2.59628 13.3074L2.09668 13.485L1.84151 12.5886L1.96775 13.5206L1.25864 13.4878L1.33922 12.5832L1.17268 13.4331L0.761719 13.2309Z" fill="#3D3D3D"/>
</svg>
