<svg width="33" height="32" viewBox="0 0 33 32" fill="none" xmlns="http://www.w3.org/2000/svg">
<path d="M19.167 25.3333C24.195 25.3333 26.7097 25.3333 28.271 23.7707C29.8337 22.2093 29.8337 19.6947 29.8337 14.6667C29.8337 9.63867 29.8337 7.124 28.271 5.56267C26.7097 4 24.195 4 19.167 4H13.8337C8.80566 4 6.29099 4 4.72966 5.56267C3.16699 7.124 3.16699 9.63867 3.16699 14.6667C3.16699 19.6947 3.16699 22.2093 4.72966 23.7707C5.60033 24.6427 6.76699 25.028 8.50033 25.1973" stroke="#F4CC3D" stroke-width="2" stroke-linecap="round" stroke-linejoin="round"/>
<path d="M13.834 11.312C14.5007 9.99204 15.1673 9.33337 16.5007 9.33337C18.162 9.33337 19.1673 10.652 19.1673 11.9707C19.1673 13.2894 18.5007 13.348 16.5007 14.6667M16.5007 19.3334V20" stroke="#F4CC3D" stroke-width="2" stroke-linecap="round"/>
<path d="M19.167 25.3334C17.519 25.3334 15.703 26 14.0457 26.86C11.3817 28.2427 10.0497 28.9347 9.39365 28.4934C8.73765 28.0534 8.86165 26.6867 9.11099 23.9547L9.16699 23.3334" stroke="#F4CC3D" stroke-width="2" stroke-linecap="round"/>
</svg>
