<svg width="8" height="12" viewBox="0 0 8 12" fill="none" xmlns="http://www.w3.org/2000/svg">
<path fill-rule="evenodd" clip-rule="evenodd" d="M3.99974 11.2501C4.0992 11.2501 4.19458 11.2106 4.26491 11.1402C4.33523 11.0699 4.37474 10.9745 4.37474 10.8751V2.03031L6.73424 4.39056C6.80466 4.46097 6.90016 4.50053 6.99974 4.50053C7.09932 4.50053 7.19483 4.46097 7.26524 4.39056C7.33566 4.32014 7.37521 4.22464 7.37521 4.12506C7.37521 4.02548 7.33566 3.92997 7.26524 3.85956L4.26524 0.85956C4.23041 0.824638 4.18902 0.79693 4.14347 0.778026C4.09791 0.759121 4.04907 0.74939 3.99974 0.74939C3.95042 0.74939 3.90158 0.759121 3.85602 0.778026C3.81046 0.79693 3.76908 0.824638 3.73424 0.85956L0.734241 3.85956C0.699375 3.89443 0.671718 3.93582 0.652849 3.98137C0.63398 4.02693 0.624268 4.07575 0.624268 4.12506C0.624268 4.22464 0.663826 4.32014 0.734241 4.39056C0.804656 4.46097 0.900159 4.50053 0.999741 4.50053C1.09932 4.50053 1.19483 4.46097 1.26524 4.39056L3.62474 2.03031V10.8751C3.62474 10.9745 3.66425 11.0699 3.73458 11.1402C3.8049 11.2106 3.90029 11.2501 3.99974 11.2501Z" fill="black"/>
</svg>
