<svg width="42" height="42" viewBox="0 0 42 42" fill="none" xmlns="http://www.w3.org/2000/svg">
<path d="M21 3.5C11.3225 3.5 3.5 11.3225 3.5 21C3.5 30.6775 11.3225 38.5 21 38.5C30.6775 38.5 38.5 30.6775 38.5 21C38.5 11.3225 30.6775 3.5 21 3.5ZM28.525 28.525C28.3631 28.6872 28.1708 28.8159 27.9591 28.9038C27.7474 28.9916 27.5204 29.0368 27.2913 29.0368C27.0621 29.0368 26.8351 28.9916 26.6234 28.9038C26.4117 28.8159 26.2194 28.6872 26.0575 28.525L21 23.4675L15.9425 28.525C15.6153 28.8522 15.1715 29.036 14.7087 29.036C14.246 29.036 13.8022 28.8522 13.475 28.525C13.1478 28.1978 12.964 27.754 12.964 27.2913C12.964 27.0621 13.0091 26.8352 13.0968 26.6236C13.1845 26.4119 13.313 26.2195 13.475 26.0575L18.5325 21L13.475 15.9425C13.1478 15.6153 12.964 15.1715 12.964 14.7087C12.964 14.246 13.1478 13.8022 13.475 13.475C13.8022 13.1478 14.246 12.964 14.7087 12.964C15.1715 12.964 15.6153 13.1478 15.9425 13.475L21 18.5325L26.0575 13.475C26.2195 13.313 26.4119 13.1845 26.6236 13.0968C26.8352 13.0091 27.0621 12.964 27.2913 12.964C27.5204 12.964 27.7473 13.0091 27.959 13.0968C28.1706 13.1845 28.363 13.313 28.525 13.475C28.687 13.637 28.8155 13.8294 28.9032 14.041C28.9909 14.2527 29.036 14.4796 29.036 14.7087C29.036 14.9379 28.9909 15.1648 28.9032 15.3764C28.8155 15.5881 28.687 15.7805 28.525 15.9425L23.4675 21L28.525 26.0575C29.19 26.7225 29.19 27.8425 28.525 28.525Z" fill="#A3A4A9"/>
</svg>
