<svg width="8" height="12" viewBox="0 0 8 12" fill="none" xmlns="http://www.w3.org/2000/svg">
<path fill-rule="evenodd" clip-rule="evenodd" d="M4.00026 0.74994C3.9008 0.74994 3.80542 0.789449 3.73509 0.859775C3.66477 0.930101 3.62526 1.02548 3.62526 1.12494L3.62526 9.96969L1.26576 7.60944C1.19534 7.53903 1.09984 7.49947 1.00026 7.49947C0.900677 7.49947 0.805174 7.53903 0.734759 7.60944C0.664344 7.67986 0.624785 7.77536 0.624785 7.87494C0.624785 7.97452 0.664344 8.07003 0.734759 8.14044L3.73476 11.1404C3.76959 11.1754 3.81098 11.2031 3.85653 11.222C3.90209 11.2409 3.95093 11.2506 4.00026 11.2506C4.04958 11.2506 4.09842 11.2409 4.14398 11.222C4.18954 11.2031 4.23092 11.1754 4.26576 11.1404L7.26576 8.14044C7.30062 8.10557 7.32828 8.06418 7.34715 8.01863C7.36602 7.97307 7.37573 7.92425 7.37573 7.87494C7.37573 7.77536 7.33617 7.67986 7.26576 7.60944C7.19534 7.53903 7.09984 7.49947 7.00026 7.49947C6.90068 7.49947 6.80517 7.53903 6.73476 7.60944L4.37526 9.96969L4.37526 1.12494C4.37526 1.02548 4.33575 0.930101 4.26542 0.859775C4.1951 0.789449 4.09971 0.74994 4.00026 0.74994Z" fill="#CF3135"/>
</svg>
