<svg width="36" height="36" viewBox="0 0 36 36" fill="none" xmlns="http://www.w3.org/2000/svg">
<path d="M26.4346 2.52246C20.2724 2.52246 18.0084 8.81965 18.0084 8.81965C18.0084 8.81965 15.7752 2.52246 9.57087 2.52246C4.90775 2.52246 -0.407879 6.21809 1.55525 14.619C3.51837 23.02 18.0252 33.4853 18.0252 33.4853C18.0252 33.4853 32.4787 23.02 34.4446 14.619C36.4077 6.21809 31.4746 2.52246 26.4346 2.52246Z" fill="#F44336"/>
<path d="M8.62035 3.14965C13.4579 3.14965 15.8597 8.34996 16.636 10.4565C16.7457 10.7575 17.1647 10.7659 17.2913 10.4734L18 8.81684C17.0016 5.62746 14.2566 2.52246 9.57098 2.52246C7.63035 2.52246 5.58004 3.16371 3.98535 4.51652C5.39441 3.59121 7.04535 3.14965 8.62035 3.14965Z" fill="#CC3333"/>
<path d="M26.4348 2.52246C24.947 2.52246 23.5913 2.8459 22.5338 3.4984C23.2763 3.21152 24.196 3.14965 25.1073 3.14965C29.6663 3.14965 33.7473 6.60621 31.9051 14.5965C30.3245 21.4562 21.0882 29.7784 18.2673 32.9537C18.0873 33.1562 18.0254 33.4825 18.0254 33.4825C18.0254 33.4825 32.4788 23.0171 34.4448 14.6162C36.4079 6.21809 31.4832 2.52246 26.4348 2.52246Z" fill="#CC3333"/>
<path d="M4.79242 6.98084C5.84711 5.66459 7.73149 4.57615 9.32899 5.83052C10.1924 6.50834 9.81555 7.89771 9.04211 8.48271C7.91711 9.33771 6.93836 9.8524 6.25211 11.1911C5.84149 11.9955 5.59399 12.8758 5.46742 13.773C5.4168 14.1274 4.95273 14.2146 4.77836 13.9024C3.59148 11.7986 3.25398 8.90177 4.79242 6.98084Z" fill="#FF8A80"/>
<path d="M21.7011 9.74837C21.2061 9.74837 20.8574 9.27024 21.0374 8.80899C21.372 7.95962 21.8052 7.13837 22.3255 6.40712C23.0961 5.32712 24.5614 4.69712 25.4895 5.35243C26.4402 6.02181 26.3164 7.36056 25.6499 8.00743C24.2183 9.39399 22.4127 9.74837 21.7011 9.74837Z" fill="#FF8A80"/>
</svg>
