<svg width="24" height="20" viewBox="0 0 24 20" fill="none" xmlns="http://www.w3.org/2000/svg">
<path d="M9.52239 16.7588C9.52239 16.7588 9.55662 16.0174 8.95774 14.851C8.46724 13.8985 5.97195 12.8006 6.56797 9.30146C6.91873 7.23963 8.65261 5.64264 10.6745 5.10936C12.5196 4.62171 15.8619 4.8527 17.1224 8.55999C18.2973 12.0192 15.5282 13.9698 14.6299 15.0107C13.9141 15.8406 14.1166 16.9242 14.1166 16.9242C14.1166 16.9242 11.0053 17.7484 9.52239 16.7588Z" fill="#FFC346"/>
<path d="M13.3939 11.2038C13.1373 11.2095 12.6725 11.0184 12.6725 11.0184C12.6725 11.0184 11.7884 11.1695 11.0498 10.9385C11.0498 10.9385 10.026 11.3663 9.77506 11.3863C9.77506 11.3863 9.71517 11.5631 9.8492 11.5289C9.87202 11.5232 9.9205 11.5089 9.98038 11.4889C10.2114 12.0308 11.1981 14.355 11.3692 15.0166C11.372 15.085 11.3777 15.142 11.3806 15.1791C11.3663 15.1763 11.3521 15.1734 11.3407 15.1677C11.3407 15.1677 11.2808 15.3616 11.3578 15.4101C11.2095 15.7922 11.1981 16.2 11.2066 16.4225C11.2295 16.431 11.2523 16.4396 11.2751 16.4453C11.3236 16.4567 11.372 16.4681 11.4205 16.4767C11.4262 15.932 11.5203 15.5698 11.5574 15.4443C11.6116 15.4472 11.6686 15.4529 11.7314 15.4529C11.6971 15.6297 11.6059 16.1316 11.5945 16.4995C11.6601 16.508 11.7257 16.5137 11.7913 16.5166C11.7998 16.5166 11.8084 16.5166 11.8141 16.5166C11.8169 16.2143 11.8169 15.6725 11.8084 15.4529C11.8454 15.4529 11.8825 15.4529 11.9167 15.45C11.9196 15.6268 11.9281 16.1829 11.9395 16.5137C11.988 16.5109 12.0365 16.508 12.0821 16.4995C12.0764 16.1886 12.065 15.6382 12.0365 15.4443C12.0451 15.4443 12.0508 15.4415 12.0593 15.4415C12.0935 15.6268 12.1934 16.1658 12.2333 16.4681C12.3017 16.451 12.3673 16.4253 12.4358 16.3997C12.4129 16.1002 12.3502 15.5441 12.2105 15.3816C12.2105 15.3559 12.2076 15.3303 12.2105 15.3074C12.2675 15.2419 12.296 14.9567 12.239 14.6886C12.4129 14.2152 13.1202 12.296 13.4995 11.3663C13.5907 11.3777 13.6563 11.3777 13.6791 11.352C13.7675 11.2494 13.6535 11.1952 13.3939 11.2038ZM12.5869 11.1638L12.2133 12.2646C12.1877 12.2675 12.1677 12.2732 12.1477 12.276C11.9424 12.2247 11.7741 12.2475 11.6772 12.2703C11.6515 12.2561 11.5717 12.2161 11.4633 12.2389L11.1296 11.0612C11.3179 11.1239 11.9652 11.295 12.5869 11.1638ZM12.2019 12.4043L11.8369 14.201C11.8055 14.1981 11.7713 14.1981 11.7342 14.2038C11.7314 14.2038 11.7314 14.2038 11.7285 14.2038L11.5232 12.4129C11.5317 12.41 11.5374 12.4043 11.546 12.4015C11.6686 12.3701 11.9909 12.3787 12.1677 12.3844C12.1791 12.3901 12.1905 12.3986 12.2019 12.4043ZM11.4148 14.5346C11.1867 13.9015 10.4709 11.9937 10.026 11.469C10.3226 11.3663 10.873 11.1581 11.0526 11.0555L11.3835 12.2703C11.3378 12.2931 11.2922 12.3302 11.2466 12.3844C11.2466 12.3844 11.3093 12.4414 11.4063 12.4414L11.5717 14.2723C11.4947 14.335 11.4462 14.4291 11.4148 14.5346ZM12.008 15.2105C11.8882 15.2219 11.7285 15.2304 11.5688 15.2105C11.5688 14.9823 11.6544 14.2837 11.7798 14.3179C12.0793 14.4063 12.0337 15.0023 12.008 15.2105ZM12.1249 14.392C12.0821 14.3236 12.0251 14.2665 11.9567 14.2352L12.2932 12.43C12.4044 12.4386 12.4956 12.3644 12.4956 12.3644C12.45 12.296 12.3787 12.2703 12.3074 12.2618L12.6553 11.1467C12.6553 11.1467 13.1829 11.3178 13.4824 11.3606C13.2713 11.7199 12.507 13.0545 12.1249 14.392Z" fill="#D6C5A4"/>
<path d="M10.1255 18.2883C10.1255 18.2883 10.1768 19.6629 11.4344 19.737C12.752 19.8168 13.271 19.5744 13.4649 18.2883C13.4678 18.2883 10.5761 18.5535 10.1255 18.2883Z" fill="#6A6A6A"/>
<path d="M9.45886 16.1943C9.45886 16.1943 11.7745 16.4767 14.1244 16.1943C14.1244 16.1943 14.3183 18.5613 12.9979 18.6326C12.1994 18.6754 11.4494 18.6668 10.9789 18.6526C10.3543 18.6354 9.79822 18.1934 9.60145 17.5375C9.50449 17.2039 9.44175 16.7647 9.45886 16.1943Z" fill="#8D8D8D"/>
<path d="M9.88955 17.4238C9.88955 17.4238 12.7328 18.054 13.7024 17.2926C13.7024 17.2926 13.4115 18.6757 10.0207 17.8544C10.0179 17.8544 9.88099 17.6576 9.88955 17.4238Z" fill="#777777"/>
<path d="M13.728 16.6027C13.728 16.6027 10.7536 17.233 9.74121 16.4716C9.74121 16.4716 10.0464 17.8547 13.5939 17.0334C13.5939 17.0334 13.7365 16.8366 13.728 16.6027Z" fill="#777777"/>
<path opacity="0.35" d="M12.5905 11.811C14.7278 11.811 16.4604 10.4321 16.4604 8.73112C16.4604 7.03014 14.7278 5.65121 12.5905 5.65121C10.4533 5.65121 8.7207 7.03014 8.7207 8.73112C8.7207 10.4321 10.4533 11.811 12.5905 11.811Z" fill="#E5F19C"/>
<path opacity="0.85" d="M15.3847 7.87536C15.3847 8.51701 14.7317 9.03603 13.9275 9.03603C13.1233 9.03603 12.4702 8.51701 12.4702 7.87536C12.4702 7.23371 13.1233 6.71469 13.9275 6.71469C14.7345 6.71469 15.3847 7.23371 15.3847 7.87536Z" fill="#E5F19C"/>
<path d="M18.5249 7.27737L18.85 7.93328L22.871 7.29734L22.1352 5.34958L18.5249 7.27737Z" fill="#FFD046"/>
<path d="M18.8818 10.2253L18.5938 10.904L21.129 12.1987L21.7364 11.0609L18.8818 10.2253Z" fill="#FFD046"/>
<path d="M17.025 5.96227L16.4404 5.3748L17.8406 2.51733L19.1125 3.65519L17.025 5.96227Z" fill="#FFD046"/>
<path d="M14.1871 4.46506L13.2061 4.25118L13.5397 0.250153L15.7185 0.675065L14.1871 4.46506Z" fill="#FFD046"/>
<path d="M10.9375 4.21956L9.9422 4.51899L8.34521 1.43623L9.73973 0.897247L10.9375 4.21956Z" fill="#FFD046"/>
<path d="M7.97315 5.3089L7.20603 6.14161L3.20215 2.87064L5.21835 1.45901L7.97315 5.3089Z" fill="#FFD046"/>
<path d="M5.93958 7.92144L5.59452 8.71709L1.67334 7.40813L2.26936 5.93661L5.93958 7.92144Z" fill="#FFD046"/>
<path d="M5.06757 10.5248L0.75 11.0809L1.51998 12.849L5.1959 11.5258L5.06757 10.5248Z" fill="#FFD046"/>
<path d="M6.15138 13.0224L3.79297 14.3199L4.43462 15.5148L6.62762 13.6868L6.15138 13.0224Z" fill="#FFD046"/>
<path d="M17.6699 13.3538L16.9883 14.081L19.4351 16.7674L20.6557 15.273L17.6699 13.3538Z" fill="#FFD046"/>
</svg>
