<svg width="24" height="24" viewBox="0 0 24 24" fill="none" xmlns="http://www.w3.org/2000/svg">
<path d="M20.9199 8.41992V14.2199C20.9199 15.9872 19.4872 17.4199 17.7199 17.4199H10.9199" stroke="#474953" stroke-width="1.65" stroke-linecap="round"/>
<path fill-rule="evenodd" clip-rule="evenodd" d="M3.7517 20.4998C3.5597 20.4998 3.3677 20.4268 3.2217 20.2798C2.9287 19.9868 2.9287 19.5127 3.2217 19.2197L19.2207 3.21975C19.5137 2.92675 19.9877 2.92675 20.2807 3.21975C20.5737 3.51275 20.5737 3.98675 20.2807 4.27975L4.2817 20.2798C4.1357 20.4268 3.9437 20.4998 3.7517 20.4998Z" fill="#474953"/>
<path fill-rule="evenodd" clip-rule="evenodd" d="M18.6487 4.85135C18.3598 4.78503 18.059 4.75 17.75 4.75H6.25C4.04086 4.75 2.25 6.54086 2.25 8.75V14.25C2.25 16.1502 3.57493 17.7409 5.35135 18.1487L6.9 16.6H6.25C4.95213 16.6 3.9 15.5479 3.9 14.25V8.75C3.9 7.45213 4.95213 6.4 6.25 6.4H17.1L18.6487 4.85135ZM7.1748 20.5C7.1748 20.0444 7.54417 19.675 7.9998 19.675H15.9998C16.4554 19.675 16.8248 20.0444 16.8248 20.5C16.8248 20.9557 16.4554 21.325 15.9998 21.325H7.9998C7.54417 21.325 7.1748 20.9557 7.1748 20.5Z" fill="#474953"/>
</svg>
