<svg width="44" height="44" viewBox="0 0 44 44" fill="none" xmlns="http://www.w3.org/2000/svg">
<rect width="44" height="44" rx="12" fill="url(#paint0_linear_2415:128493)"/>
<path d="M14 25H15.586L20.293 29.707C20.923 30.337 22 29.891 22 29V15C22 14.109 20.923 13.663 20.293 14.293L15.586 19H14C13.7348 19 13.4804 19.1054 13.2929 19.2929C13.1054 19.4804 13 19.7348 13 20V24C13 24.2652 13.1054 24.5196 13.2929 24.7071C13.4804 24.8946 13.7348 25 14 25Z" fill="white"/>
<path d="M25.536 18.464C26.0004 18.9283 26.3688 19.4796 26.6202 20.0863C26.8716 20.693 27.0009 21.3433 27.0009 22C27.0009 22.6567 26.8716 23.307 26.6202 23.9137C26.3688 24.5204 26.0004 25.0717 25.536 25.536M28.364 15.636C29.1997 16.4717 29.8627 17.4639 30.315 18.5558C30.7673 19.6478 31.0001 20.8181 31.0001 22C31.0001 23.1819 30.7673 24.3522 30.315 25.4442C29.8627 26.5361 29.1997 27.5283 28.364 28.364M15.586 25H14C13.7348 25 13.4804 24.8946 13.2929 24.7071C13.1054 24.5196 13 24.2652 13 24V20C13 19.7348 13.1054 19.4804 13.2929 19.2929C13.4804 19.1054 13.7348 19 14 19H15.586L20.293 14.293C20.923 13.663 22 14.109 22 15V29C22 29.891 20.923 30.337 20.293 29.707L15.586 25Z" stroke="white" stroke-width="2" stroke-linecap="round" stroke-linejoin="round"/>
<defs>
<linearGradient id="paint0_linear_2415:128493" x1="22" y1="0" x2="22" y2="44" gradientUnits="userSpaceOnUse">
<stop stop-color="#B3FAFF"/>
<stop offset="0.666667" stop-color="#1CB823"/>
</linearGradient>
</defs>
</svg>
