<svg width="25" height="24" viewBox="0 0 25 24" fill="none" xmlns="http://www.w3.org/2000/svg">
<path fill-rule="evenodd" clip-rule="evenodd" d="M2.24975 20.4998C2.05775 20.4998 1.86575 20.4268 1.71975 20.2798C1.42675 19.9868 1.42675 19.5127 1.71975 19.2197L3.32576 17.6136C2.80804 17.1081 2.5 16.4064 2.5 15.6537V8.75C2.5 6.12665 4.62665 4 7.25 4H14.1537C14.9062 4 15.6078 4.30788 16.1132 4.82536L17.7188 3.21975C18.0117 2.92675 18.4858 2.92675 18.7787 3.21975C19.0717 3.51275 19.0717 3.98675 18.7787 4.27975L2.77975 20.2798C2.63375 20.4268 2.44175 20.4998 2.24975 20.4998ZM15.0524 5.88625L4.38659 16.5527C4.14453 16.3233 4 16.0004 4 15.6537V8.75C4 6.95507 5.45507 5.5 7.25 5.5H14.1537C14.5003 5.5 14.823 5.64439 15.0524 5.88625ZM21.3184 17.3493C20.8674 17.3493 20.4224 17.1943 20.0554 16.8933L17.9801 15.188C17.759 17.6061 15.7257 19.5 13.25 19.5H7.5C7.08579 19.5 6.75 19.1642 6.75 18.75C6.75 18.3358 7.08579 18 7.5 18H13.25C15.0449 18 16.5 16.5449 16.5 14.75V8.5C16.5 8.08579 16.8358 7.75 17.25 7.75C17.5572 7.75 17.8213 7.9347 17.9372 8.19911L20.0684 6.45431C20.6724 5.95931 21.4854 5.86231 22.1904 6.19531C22.8954 6.53031 23.3334 7.22231 23.3324 8.00231L23.3204 15.3513C23.3194 16.1313 22.8804 16.8233 22.1764 17.1553C21.9004 17.2863 21.6084 17.3493 21.3184 17.3493ZM21.0064 15.7343L18 13.2632V10.0855L21.0184 7.61531C21.2374 7.43531 21.4624 7.51031 21.5474 7.55031C21.6334 7.59131 21.8334 7.71631 21.8324 8.00031L21.8204 15.3493C21.8204 15.6333 21.6214 15.7583 21.5354 15.7983C21.4494 15.8403 21.2274 15.9143 21.0064 15.7343Z" fill="#474953"/>
</svg>
