<svg width="41" height="41" viewBox="0 0 41 41" fill="none" xmlns="http://www.w3.org/2000/svg">
<path d="M40.5 20.0015C40.5 21.0873 40.4135 22.1528 40.2468 23.1913C38.8506 31.9023 31.8296 38.7344 23.0264 39.8447C22.1985 39.9492 21.3548 40.0028 20.4985 40.0028C10.1745 40.0028 1.67749 32.1808 0.610631 22.1397V22.1393C0.535752 21.4366 3.83469 19.9762 3.83469 19.2539C3.83469 15.3123 3.60577 9.28737 3.60577 9.28737C7.15402 3.70454 13.3936 0 20.4985 0C31.5452 0.000204028 40.5 8.95501 40.5 20.0015Z" fill="#F46259"/>
<path d="M40.2494 23.1905C38.8533 31.9015 31.8323 38.7336 23.029 39.8439L0.613281 22.1392L14.3703 18.5868L23.4342 10.717L40.2494 23.1905Z" fill="#E14339"/>
<path d="M25.6163 20.8464C25.6163 21.2646 26.6783 21.7104 26.707 22.9832C26.7211 23.6103 26.2624 24.4473 25.7173 24.8288C25.1564 25.2211 24.5084 25.1487 24.5084 25.1487C24.5084 25.1487 24.5084 25.1487 18.7169 25.1487C18.5655 25.1487 17.4441 25.497 18.381 26.9087C19.0052 28.0116 19.485 29.0522 19.7845 29.9138C20.2124 31.0972 19.9904 32.6341 19.8582 33.057C19.2412 35.0318 17.8885 35.2781 17.1175 35.1126C16.8047 35.0459 16.5425 34.2233 16.5305 33.9576C16.4528 32.2511 16.2167 31.1114 15.8829 30.3078C15.4618 29.2952 14.8852 28.8157 14.2735 28.4079C13.0998 27.6256 12.9698 26.713 11.6006 23.5842C10.8716 21.9185 10.1059 21.5941 9.54886 21.5062C9.40767 21.4842 9.48663 21.4485 7.85889 21.4085C7.29434 21.3948 7.77626 22.1752 7.77626 22.1752C6.01223 22.136 3.1895 22.132 0.613236 22.1393C0.538357 21.4366 0.5 20.7235 0.5 20.0013C0.5 16.0597 1.63991 12.3845 3.60837 9.28735C5.46666 9.28899 7.34311 9.29878 8.65215 9.32306C8.65215 9.32306 8.00702 11.0338 8.42487 11.0412C9.1004 11.0528 9.3079 11.0618 9.36074 11.0663C16.6537 9.74478 19.8649 10.0949 21.835 10.2857C23.2181 10.4193 24.4001 11.1587 24.7304 11.9409C24.8828 12.3017 24.7449 13.1971 24.7449 13.4236C24.7449 13.8778 25.7297 14.0008 26.0352 14.932C26.2992 15.7369 25.6697 16.503 25.4886 16.8962C25.2956 17.3134 26.6762 17.9885 26.7068 18.9097C26.7388 19.8591 25.6163 20.634 25.6163 20.8464Z" fill="white"/>
</svg>
