<svg width="24" height="24" viewBox="0 0 24 24" fill="none" xmlns="http://www.w3.org/2000/svg">
<path d="M4.47633 4.87268H19.4763C19.6515 4.87259 19.8266 4.88371 20.0004 4.90596C19.9415 4.49241 19.7994 4.09508 19.5828 3.73792C19.3662 3.38076 19.0795 3.07117 18.74 2.8278C18.4005 2.58444 18.0152 2.41235 17.6074 2.32192C17.1996 2.23148 16.7777 2.22456 16.3671 2.30158L4.03101 4.40768H4.01695C3.24261 4.55575 2.55401 4.99386 2.0918 5.63252C2.78817 5.1372 3.62177 4.87157 4.47633 4.87268Z" fill="#3488ED"/>
<path d="M19.4766 5.99988H4.47656C3.68118 6.00075 2.91862 6.3171 2.3562 6.87952C1.79378 7.44194 1.47743 8.20449 1.47656 8.99988V17.9999C1.47743 18.7953 1.79378 19.5578 2.3562 20.1202C2.91862 20.6827 3.68118 20.999 4.47656 20.9999H19.4766C20.2719 20.999 21.0345 20.6827 21.5969 20.1202C22.1593 19.5578 22.4757 18.7953 22.4766 17.9999V8.99988C22.4757 8.20449 22.1593 7.44194 21.5969 6.87952C21.0345 6.3171 20.2719 6.00075 19.4766 5.99988ZM17.25 14.9999C16.9533 14.9999 16.6633 14.9119 16.4166 14.7471C16.17 14.5823 15.9777 14.348 15.8642 14.0739C15.7506 13.7998 15.7209 13.4982 15.7788 13.2072C15.8367 12.9163 15.9796 12.649 16.1893 12.4392C16.3991 12.2294 16.6664 12.0866 16.9574 12.0287C17.2483 11.9708 17.5499 12.0005 17.824 12.1141C18.0981 12.2276 18.3324 12.4198 18.4972 12.6665C18.662 12.9132 18.75 13.2032 18.75 13.4999C18.75 13.8977 18.592 14.2792 18.3106 14.5605C18.0293 14.8418 17.6478 14.9999 17.25 14.9999Z" fill="#3488ED"/>
<path d="M1.5 12.1615V7.49743C1.5 6.48165 2.0625 4.77869 4.01484 4.40978C5.67187 4.099 7.3125 4.099 7.3125 4.099C7.3125 4.099 8.39062 4.849 7.5 4.849C6.60937 4.849 6.63281 5.99744 7.5 5.99744C8.36718 5.99744 7.5 7.099 7.5 7.099L4.00781 11.0599L1.5 12.1615Z" fill="#3488ED"/>
</svg>
