<svg width="5" height="10" viewBox="0 0 5 10" fill="none" xmlns="http://www.w3.org/2000/svg">
<path d="M0.222057 0.263092C0.151666 0.345946 0.0958202 0.444362 0.0577167 0.552705C0.0196132 0.661048 0 0.77719 0 0.894485C0 1.01178 0.0196132 1.12792 0.0577167 1.23626C0.0958202 1.34461 0.151666 1.44302 0.222057 1.52588L3.1682 5.00078L0.222057 8.47568C0.0800823 8.64314 0.000321518 8.87026 0.000321518 9.10707C0.000321518 9.34389 0.0800823 9.57101 0.222057 9.73847C0.364032 9.90593 0.556591 10 0.757374 10C0.958156 10 1.15072 9.90593 1.29269 9.73847L4.77794 5.6277C4.84833 5.54484 4.90418 5.44643 4.94228 5.33808C4.98039 5.22974 5 5.1136 5 4.9963C5 4.87901 4.98039 4.76287 4.94228 4.65452C4.90418 4.54618 4.84833 4.44776 4.77794 4.36491L1.29269 0.254135C1.00415 -0.0861901 0.51819 -0.0861899 0.222057 0.263092Z" fill="black"/>
</svg>
