<svg width="18" height="18" viewBox="0 0 18 18" fill="none" xmlns="http://www.w3.org/2000/svg">
<path fill-rule="evenodd" clip-rule="evenodd" d="M10.6399 1.48695C10.2219 -0.229049 7.7799 -0.229049 7.3619 1.48695C7.29949 1.74481 7.17708 1.98429 7.00464 2.1859C6.8322 2.38752 6.61459 2.54557 6.36953 2.6472C6.12446 2.74883 5.85886 2.79116 5.59435 2.77075C5.32983 2.75034 5.07387 2.66777 4.8473 2.52975C3.3381 1.61015 1.6111 3.33715 2.5307 4.84635C3.1247 5.82095 2.5978 7.09255 1.489 7.36205C-0.228103 7.77895 -0.228103 10.2221 1.489 10.6379C1.74692 10.7003 1.98644 10.8229 2.18806 10.9954C2.38967 11.168 2.54768 11.3858 2.64921 11.631C2.75074 11.8762 2.79293 12.1419 2.77233 12.4064C2.75174 12.671 2.66895 12.927 2.5307 13.1536C1.6111 14.6628 3.3381 16.3897 4.8473 15.4701C5.07383 15.3319 5.32981 15.2491 5.5944 15.2285C5.85899 15.2079 6.1247 15.2501 6.36989 15.3516C6.61509 15.4532 6.83284 15.6112 7.00542 15.8128C7.17799 16.0144 7.30051 16.2539 7.363 16.5119C7.7799 18.229 10.223 18.229 10.6388 16.5119C10.7015 16.2541 10.8241 16.0147 10.9967 15.8132C11.1694 15.6117 11.3871 15.4538 11.6322 15.3523C11.8773 15.2508 12.1429 15.2086 12.4074 15.2291C12.672 15.2496 12.9279 15.3321 13.1545 15.4701C14.6637 16.3897 16.3907 14.6628 15.4711 13.1536C15.3331 12.927 15.2505 12.671 15.23 12.4065C15.2096 12.142 15.2518 11.8764 15.3533 11.6312C15.4548 11.3861 15.6127 11.1684 15.8142 10.9958C16.0156 10.8232 16.255 10.7005 16.5128 10.6379C18.2299 10.221 18.2299 7.77785 16.5128 7.36205C16.2549 7.29956 16.0153 7.17705 15.8137 7.00447C15.6121 6.8319 15.4541 6.61415 15.3526 6.36895C15.2511 6.12375 15.2089 5.85804 15.2295 5.59345C15.2501 5.32887 15.3328 5.07288 15.4711 4.84635C16.3907 3.33715 14.6637 1.61015 13.1545 2.52975C12.928 2.668 12.672 2.75079 12.4074 2.77139C12.1428 2.79198 11.8771 2.7498 11.6319 2.64826C11.3867 2.54673 11.169 2.38873 10.9964 2.18711C10.8238 1.9855 10.7013 1.74598 10.6388 1.48805L10.6399 1.48695ZM9.0009 12.2999C9.87611 12.2999 10.7155 11.9523 11.3343 11.3334C11.9532 10.7145 12.3009 9.87516 12.3009 8.99995C12.3009 8.12474 11.9532 7.28537 11.3343 6.6665C10.7155 6.04763 9.87611 5.69995 9.0009 5.69995C8.12568 5.69995 7.28631 6.04763 6.66744 6.6665C6.04857 7.28537 5.7009 8.12474 5.7009 8.99995C5.7009 9.87516 6.04857 10.7145 6.66744 11.3334C7.28631 11.9523 8.12568 12.2999 9.0009 12.2999Z" fill="#75767E"/>
</svg>
