<svg width="18" height="13" viewBox="0 0 18 13" fill="none" xmlns="http://www.w3.org/2000/svg">
<path d="M7.89922 1.28443C6.6999 0.70051 5.38313 0.398028 4.04922 0.400034C2.66872 0.400034 1.36192 0.719034 0.199219 1.28443V12.2844C1.39855 11.7005 2.71531 11.3981 4.04922 11.4C5.88512 11.4 7.58902 11.961 8.99922 12.9235C10.4579 11.9283 12.1834 11.3972 13.9492 11.4C15.3297 11.4 16.6365 11.719 17.7992 12.2844V1.28443C16.5999 0.70051 15.2831 0.398028 13.9492 0.400034C12.5687 0.400034 11.2619 0.719034 10.0992 1.28443V9.20003C10.0992 9.49177 9.98333 9.77156 9.77703 9.97785C9.57075 10.1841 9.29096 10.3 8.99922 10.3C8.70748 10.3 8.42769 10.1841 8.2214 9.97785C8.01511 9.77156 7.89922 9.49177 7.89922 9.20003V1.28443Z" fill="#75767E"/>
</svg>
