<svg width="18" height="18" viewBox="0 0 18 18" fill="none" xmlns="http://www.w3.org/2000/svg">
<path fill-rule="evenodd" clip-rule="evenodd" d="M17.7992 6.80006C17.7995 7.83095 17.5583 8.84757 17.095 9.76846C16.6316 10.6894 15.959 11.4889 15.131 12.103C14.303 12.7171 13.3427 13.1288 12.3269 13.3049C11.3112 13.4811 10.2683 13.4168 9.28192 13.1174L8.99922 13.4001L7.89922 14.5001L6.79922 15.6001H4.59922V17.8001H0.199219V13.4001L4.88192 8.71736C4.60741 7.80987 4.53164 6.8539 4.65977 5.9145C4.78789 4.9751 5.1169 4.07434 5.62441 3.27351C6.13191 2.47268 6.806 1.7906 7.60078 1.27368C8.39556 0.756761 9.29239 0.417144 10.2302 0.277944C11.168 0.138745 12.1248 0.20323 13.0355 0.467012C13.9462 0.730793 14.7893 1.18768 15.5075 1.80657C16.2258 2.42546 16.8022 3.19183 17.1977 4.05351C17.5931 4.91519 17.7983 5.85196 17.7992 6.80006ZM11.1992 2.40006C10.9075 2.40006 10.6277 2.51595 10.4214 2.72224C10.2151 2.92853 10.0992 3.20832 10.0992 3.50006C10.0992 3.7918 10.2151 4.07159 10.4214 4.27788C10.6277 4.48417 10.9075 4.60006 11.1992 4.60006C11.7827 4.60006 12.3423 4.83184 12.7549 5.24442C13.1674 5.657 13.3992 6.21658 13.3992 6.80006C13.3992 7.0918 13.5151 7.37159 13.7214 7.57788C13.9277 7.78417 14.2075 7.90006 14.4992 7.90006C14.791 7.90006 15.0707 7.78417 15.277 7.57788C15.4833 7.37159 15.5992 7.0918 15.5992 6.80006C15.5992 5.63311 15.1356 4.51395 14.3105 3.68879C13.4853 2.86363 12.3662 2.40006 11.1992 2.40006Z" fill="#75767E"/>
</svg>
