<svg width="16" height="18" viewBox="0 0 16 18" fill="none" xmlns="http://www.w3.org/2000/svg">
<path d="M11.2802 11.2202L8.00078 14.4996L4.72141 11.2202C2.26359 11.3268 0.300781 13.3377 0.300781 15.8196V16.1496C0.300781 17.0605 1.03984 17.7996 1.95078 17.7996H14.0508C14.9617 17.7996 15.7008 17.0605 15.7008 16.1496V15.8196C15.7008 13.3377 13.738 11.3268 11.2802 11.2202ZM0.768281 2.94271L0.988281 2.99428V5.00178C0.747656 5.14615 0.575781 5.39709 0.575781 5.69959C0.575781 5.98834 0.733906 6.22896 0.957344 6.37678L0.421094 8.51834C0.362656 8.75553 0.493281 8.99959 0.682344 8.99959H2.11922C2.30828 8.99959 2.43891 8.75553 2.38047 8.51834L1.84422 6.37678C2.06766 6.22896 2.22578 5.98834 2.22578 5.69959C2.22578 5.39709 2.05391 5.14615 1.81328 5.00178V3.19365L4.08203 3.74021C3.78641 4.33146 3.60078 4.99146 3.60078 5.69959C3.60078 8.1299 5.57047 10.0996 8.00078 10.0996C10.4311 10.0996 12.4008 8.1299 12.4008 5.69959C12.4008 4.99146 12.2186 4.33146 11.9195 3.74021L15.2298 2.94271C15.8555 2.79146 15.8555 2.01115 15.2298 1.8599L8.68484 0.278652C8.23797 0.17209 7.76703 0.17209 7.32016 0.278652L0.768281 1.85646C0.146094 2.00771 0.146094 2.79146 0.768281 2.94271Z" fill="#75767E"/>
</svg>
