<svg width="24" height="24" viewBox="0 0 24 24" fill="none" xmlns="http://www.w3.org/2000/svg">
<path fill-rule="evenodd" clip-rule="evenodd" d="M12 22C17.5228 22 22 17.5228 22 12C22 6.47715 17.5228 2 12 2C6.47715 2 2 6.47715 2 12C2 17.5228 6.47715 22 12 22ZM11.99 9.061C11.52 9.061 11.13 8.67 11.13 8.191C11.13 7.701 11.52 7.311 12.01 7.311C12.49 7.311 12.88 7.701 12.88 8.191C12.88 8.67 12.49 9.061 11.99 9.061ZM12.87 15.781C12.87 16.261 12.48 16.651 11.99 16.651C11.51 16.651 11.12 16.261 11.12 15.781V11.361C11.12 10.88 11.51 10.481 11.99 10.481C12.48 10.481 12.87 10.88 12.87 11.361V15.781Z" fill="#130F26"/>
</svg>
