<svg width="18" height="19" viewBox="0 0 18 19" fill="none" xmlns="http://www.w3.org/2000/svg">
<path d="M1.29922 0.0999756C1.00748 0.0999756 0.727691 0.215868 0.521401 0.422158C0.315111 0.628448 0.199219 0.908237 0.199219 1.19998C0.199219 1.49171 0.315111 1.7715 0.521401 1.97779C0.727691 2.18408 1.00748 2.29998 1.29922 2.29998H2.64122L2.97672 3.64418C2.98005 3.65965 2.98372 3.67506 2.98772 3.69038L4.48152 9.66337L3.49922 10.6446C2.11322 12.0306 3.09442 14.4 5.05462 14.4H14.4992C14.791 14.4 15.0707 14.2841 15.277 14.0778C15.4833 13.8715 15.5992 13.5917 15.5992 13.3C15.5992 13.0082 15.4833 12.7284 15.277 12.5222C15.0707 12.3159 14.791 12.2 14.4992 12.2H5.05462L6.15462 11.1H13.3992C13.6034 11.0999 13.8036 11.0429 13.9773 10.9355C14.151 10.828 14.2913 10.6744 14.3826 10.4917L17.6826 3.89168C17.7664 3.72401 17.8059 3.53772 17.7975 3.35048C17.7891 3.16324 17.7329 2.98126 17.6344 2.82181C17.5359 2.66236 17.3983 2.53072 17.2346 2.43939C17.0709 2.34807 16.8866 2.30008 16.6992 2.29998H4.90722L4.56622 0.932675C4.50663 0.694804 4.36927 0.483665 4.17595 0.332796C3.98263 0.181928 3.74444 0.099982 3.49922 0.0999756H1.29922ZM15.5992 17.15C15.5992 17.5876 15.4254 18.0073 15.1159 18.3167C14.8065 18.6261 14.3868 18.8 13.9492 18.8C13.5116 18.8 13.0919 18.6261 12.7825 18.3167C12.4731 18.0073 12.2992 17.5876 12.2992 17.15C12.2992 16.7124 12.4731 16.2927 12.7825 15.9832C13.0919 15.6738 13.5116 15.5 13.9492 15.5C14.3868 15.5 14.8065 15.6738 15.1159 15.9832C15.4254 16.2927 15.5992 16.7124 15.5992 17.15ZM5.14922 18.8C5.58683 18.8 6.00651 18.6261 6.31594 18.3167C6.62538 18.0073 6.79922 17.5876 6.79922 17.15C6.79922 16.7124 6.62538 16.2927 6.31594 15.9832C6.00651 15.6738 5.58683 15.5 5.14922 15.5C4.71161 15.5 4.29193 15.6738 3.98249 15.9832C3.67306 16.2927 3.49922 16.7124 3.49922 17.15C3.49922 17.5876 3.67306 18.0073 3.98249 18.3167C4.29193 18.6261 4.71161 18.8 5.14922 18.8Z" fill="#75767E"/>
</svg>
