<svg width="22" height="22" viewBox="0 0 22 22" fill="none" xmlns="http://www.w3.org/2000/svg">
<path d="M11.0006 15.1249C8.82778 15.1249 7.06893 13.4431 6.90708 11.3118L3.90215 8.98953C3.50712 9.4851 3.14361 10.009 2.85027 10.5819C2.78474 10.7116 2.7506 10.8548 2.7506 11C2.7506 11.1453 2.78474 11.2885 2.85027 11.4181C4.40373 14.4491 7.47914 16.4999 11.0006 16.4999C11.7714 16.4999 12.5151 16.3853 13.2318 16.2002L11.7454 15.0501C11.4999 15.0975 11.2506 15.1226 11.0006 15.1249ZM19.9902 16.7892L16.8234 14.3417C17.7854 13.531 18.5765 12.5371 19.1509 11.4178C19.2164 11.2882 19.2505 11.145 19.2505 10.9997C19.2505 10.8545 19.2164 10.7113 19.1509 10.5817C17.5974 7.55066 14.522 5.49991 11.0006 5.49991C9.52573 5.50169 8.07486 5.87298 6.78047 6.57985L3.13616 3.76312C3.08864 3.72614 3.03429 3.69888 2.97623 3.68291C2.91817 3.66695 2.85754 3.66257 2.79779 3.67005C2.73804 3.67752 2.68035 3.6967 2.62801 3.72648C2.57568 3.75626 2.52972 3.79606 2.49277 3.84361L1.93046 4.56749C1.85586 4.66345 1.82244 4.7851 1.83753 4.9057C1.85263 5.02631 1.91501 5.13597 2.01095 5.21058L18.865 18.2367C18.9125 18.2736 18.9668 18.3009 19.0249 18.3169C19.083 18.3328 19.1436 18.3372 19.2033 18.3297C19.2631 18.3223 19.3208 18.3031 19.3731 18.2733C19.4254 18.2435 19.4714 18.2037 19.5083 18.1562L20.071 17.4323C20.1455 17.3363 20.1789 17.2146 20.1637 17.094C20.1486 16.9734 20.0862 16.8638 19.9902 16.7892ZM14.7274 12.7215L13.6016 11.8512C13.6964 11.5772 13.7467 11.2898 13.7506 10.9999C13.7561 10.5754 13.6621 10.1556 13.476 9.77406C13.2899 9.39254 13.0169 9.05999 12.679 8.80311C12.341 8.54623 11.9475 8.37219 11.5301 8.29497C11.1127 8.21775 10.683 8.23949 10.2755 8.35847C10.4483 8.59253 10.5417 8.87566 10.5422 9.16656C10.538 9.26336 10.5232 9.35942 10.4981 9.45302L8.3895 7.82336C9.12197 7.21126 10.046 6.87561 11.0006 6.8749C11.5423 6.8746 12.0789 6.98109 12.5795 7.18828C13.0801 7.39548 13.5349 7.69931 13.918 8.08241C14.3011 8.46551 14.605 8.92037 14.8122 9.42097C15.0194 9.92157 15.1258 10.4581 15.1255 10.9999C15.1255 11.6195 14.974 12.197 14.7274 12.7218V12.7215Z" fill="#30323E"/>
</svg>
