<svg width="22" height="22" viewBox="0 0 22 22" fill="none" xmlns="http://www.w3.org/2000/svg">
<path d="M20.0566 10.5351C18.3305 7.16729 14.9134 4.88867 11.0007 4.88867C7.08794 4.88867 3.66985 7.16888 1.94473 10.5354C1.87192 10.6794 1.83398 10.8386 1.83398 11C1.83398 11.1613 1.87192 11.3205 1.94473 11.4645C3.6708 14.8323 7.08794 17.1109 11.0007 17.1109C14.9134 17.1109 18.3315 14.8307 20.0566 11.4642C20.1294 11.3201 20.1673 11.161 20.1673 10.9996C20.1673 10.8382 20.1294 10.6791 20.0566 10.5351ZM11.0007 15.5831C10.0942 15.5831 9.20801 15.3143 8.45428 14.8107C7.70056 14.3071 7.1131 13.5913 6.7662 12.7538C6.41929 11.9163 6.32853 10.9947 6.50538 10.1056C6.68223 9.21655 7.11875 8.39987 7.75974 7.75888C8.40073 7.11789 9.2174 6.68137 10.1065 6.50452C10.9956 6.32767 11.9171 6.41844 12.7546 6.76534C13.5921 7.11224 14.3079 7.6997 14.8116 8.45343C15.3152 9.20715 15.584 10.0933 15.584 10.9998C15.5843 11.6018 15.4659 12.1979 15.2357 12.7541C15.0055 13.3103 14.6679 13.8157 14.2422 14.2414C13.8166 14.667 13.3112 15.0046 12.755 15.2348C12.1988 15.4651 11.6026 15.5834 11.0007 15.5831ZM11.0007 7.94423C10.7279 7.94805 10.4569 7.98862 10.1951 8.06486C10.4109 8.35822 10.5145 8.71923 10.4871 9.08241C10.4596 9.4456 10.3029 9.78691 10.0453 10.0445C9.78777 10.302 9.44645 10.4587 9.08327 10.4862C8.72008 10.5137 8.35908 10.4101 8.06572 10.1942C7.89867 10.8096 7.92883 11.462 8.15194 12.0594C8.37505 12.6568 8.77989 13.1692 9.30946 13.5244C9.83904 13.8797 10.4667 14.06 11.1041 14.0398C11.7415 14.0197 12.3565 13.8002 12.8626 13.4122C13.3687 13.0242 13.7404 12.4873 13.9253 11.877C14.1103 11.2667 14.0992 10.6138 13.8937 10.0101C13.6881 9.40644 13.2984 8.88243 12.7794 8.51184C12.2605 8.14125 11.6384 7.94273 11.0007 7.94423Z" fill="#30323E"/>
</svg>
