<svg width="22" height="22" viewBox="0 0 22 22" fill="none" xmlns="http://www.w3.org/2000/svg">
<path fill-rule="evenodd" clip-rule="evenodd" d="M19.7992 11.0002C19.7992 13.3341 18.8721 15.5724 17.2218 17.2227C15.5714 18.8731 13.3331 19.8002 10.9992 19.8002C8.66531 19.8002 6.427 18.8731 4.77668 17.2227C3.12636 15.5724 2.19922 13.3341 2.19922 11.0002C2.19922 8.66629 3.12636 6.42798 4.77668 4.77766C6.427 3.12734 8.66531 2.2002 10.9992 2.2002C13.3331 2.2002 15.5714 3.12734 17.2218 4.77766C18.8721 6.42798 19.7992 8.66629 19.7992 11.0002ZM12.0992 6.60019C12.0992 6.89193 11.9833 7.17172 11.777 7.37801C11.5707 7.5843 11.291 7.70019 10.9992 7.70019C10.7075 7.70019 10.4277 7.5843 10.2214 7.37801C10.0151 7.17172 9.89922 6.89193 9.89922 6.60019C9.89922 6.30846 10.0151 6.02867 10.2214 5.82238C10.4277 5.61609 10.7075 5.5002 10.9992 5.5002C11.291 5.5002 11.5707 5.61609 11.777 5.82238C11.9833 6.02867 12.0992 6.30846 12.0992 6.60019ZM9.89922 9.90019C9.60748 9.90019 9.32769 10.0161 9.1214 10.2224C8.91511 10.4287 8.79922 10.7085 8.79922 11.0002C8.79922 11.2919 8.91511 11.5717 9.1214 11.778C9.32769 11.9843 9.60748 12.1002 9.89922 12.1002V15.4002C9.89922 15.6919 10.0151 15.9717 10.2214 16.178C10.4277 16.3843 10.7075 16.5002 10.9992 16.5002H12.0992C12.391 16.5002 12.6707 16.3843 12.877 16.178C13.0833 15.9717 13.1992 15.6919 13.1992 15.4002C13.1992 15.1085 13.0833 14.8287 12.877 14.6224C12.6707 14.4161 12.391 14.3002 12.0992 14.3002V11.0002C12.0992 10.7085 11.9833 10.4287 11.777 10.2224C11.5707 10.0161 11.291 9.90019 10.9992 9.90019H9.89922Z" fill="#75767E"/>
</svg>
