<svg width="26" height="26" viewBox="0 0 26 26" fill="none" xmlns="http://www.w3.org/2000/svg">
<path d="M23.7407 12.636C22.8063 8.41198 21.4205 5.71753 19.1993 5.06093C18.7691 4.93544 18.323 4.87283 17.8749 4.87507C16.5094 4.87507 15.4319 5.68757 12.9999 5.68757C10.568 5.68757 9.48842 4.87507 8.12494 4.87507C7.65813 4.87265 7.19326 4.9352 6.74369 5.06093C4.51947 5.71753 3.14533 8.41452 2.20029 12.636C1.23545 16.9478 1.41013 20.3547 3.29615 21.0088C4.61646 21.4658 5.79713 20.5208 6.91533 19.1299C8.18486 17.5455 9.74842 17.058 12.9999 17.058C16.2515 17.058 17.7541 17.5455 19.0256 19.1299C20.1428 20.5218 21.3672 21.4551 22.6524 21.0169C24.7355 20.3055 24.706 16.9986 23.7407 12.636Z" stroke="#3488ED" stroke-width="1.625" stroke-miterlimit="10"/>
<path d="M14.8281 12.3906C15.389 12.3906 15.8438 11.9359 15.8438 11.375C15.8438 10.8141 15.389 10.3594 14.8281 10.3594C14.2672 10.3594 13.8125 10.8141 13.8125 11.375C13.8125 11.9359 14.2672 12.3906 14.8281 12.3906Z" fill="#3488ED"/>
<path d="M17.0625 14.625C16.8615 14.625 16.6651 14.5654 16.498 14.4537C16.3309 14.3419 16.2007 14.1832 16.1239 13.9975C16.0471 13.8117 16.0272 13.6074 16.0666 13.4103C16.106 13.2132 16.203 13.0323 16.3452 12.8903C16.4875 12.7484 16.6687 12.6519 16.8659 12.613C17.0631 12.5741 17.2674 12.5945 17.4529 12.6718C17.6385 12.7491 17.7969 12.8796 17.9082 13.047C18.0195 13.2143 18.0786 13.4109 18.0781 13.6119C18.0774 13.8808 17.9701 14.1385 17.7798 14.3284C17.5894 14.5183 17.3314 14.625 17.0625 14.625Z" fill="#3488ED"/>
<path d="M17.0625 10.1562C17.6234 10.1562 18.0781 9.70154 18.0781 9.14062C18.0781 8.57971 17.6234 8.125 17.0625 8.125C16.5016 8.125 16.0469 8.57971 16.0469 9.14062C16.0469 9.70154 16.5016 10.1562 17.0625 10.1562Z" fill="#3488ED"/>
<path d="M19.2969 12.3906C19.8578 12.3906 20.3125 11.9359 20.3125 11.375C20.3125 10.8141 19.8578 10.3594 19.2969 10.3594C18.736 10.3594 18.2812 10.8141 18.2812 11.375C18.2812 11.9359 18.736 12.3906 19.2969 12.3906Z" fill="#3488ED"/>
<path d="M8.125 8.9375V13.8125" stroke="#3488ED" stroke-width="1.625" stroke-linecap="round" stroke-linejoin="round"/>
<path d="M10.5625 11.375H5.6875" stroke="#3488ED" stroke-width="1.625" stroke-linecap="round" stroke-linejoin="round"/>
</svg>
