<svg width="22" height="22" viewBox="0 0 22 22" fill="none" xmlns="http://www.w3.org/2000/svg">
<path fill-rule="evenodd" clip-rule="evenodd" d="M5.55438 4.45461C6.99849 3.01051 8.95711 2.19922 10.9994 2.19922C13.0417 2.19922 15.0003 3.01051 16.4444 4.45461C17.8885 5.89872 18.6998 7.85734 18.6998 9.89961C18.6998 11.9419 17.8885 13.9005 16.4444 15.3446L10.9994 20.7896L5.55438 15.3446C4.83929 14.6296 4.27204 13.7807 3.88503 12.8465C3.49802 11.9122 3.29883 10.9109 3.29883 9.89961C3.29883 8.88837 3.49802 7.88703 3.88503 6.95277C4.27204 6.01851 4.83929 5.16963 5.55438 4.45461ZM10.9994 12.0996C11.5829 12.0996 12.1424 11.8678 12.555 11.4552C12.9676 11.0427 13.1994 10.4831 13.1994 9.89961C13.1994 9.31614 12.9676 8.75656 12.555 8.34398C12.1424 7.9314 11.5829 7.69961 10.9994 7.69961C10.4159 7.69961 9.85633 7.9314 9.44375 8.34398C9.03117 8.75656 8.79938 9.31614 8.79938 9.89961C8.79938 10.4831 9.03117 11.0427 9.44375 11.4552C9.85633 11.8678 10.4159 12.0996 10.9994 12.0996Z" fill="#75767E"/>
</svg>
