<svg width="16" height="16" viewBox="0 0 16 16" fill="none" xmlns="http://www.w3.org/2000/svg">
<path d="M12.8142 10.1784L11.1208 9.98505C10.7142 9.93839 10.3142 10.0784 10.0275 10.3651L8.80083 11.5917C6.91417 10.6317 5.3675 9.09172 4.4075 7.19839L5.64083 5.96505C5.9275 5.67839 6.0675 5.27839 6.02083 4.87172L5.8275 3.19172C5.7475 2.51839 5.18083 2.01172 4.50083 2.01172H3.3475C2.59417 2.01172 1.9675 2.63839 2.01417 3.39172C2.3675 9.08505 6.92083 13.6317 12.6075 13.9851C13.3608 14.0317 13.9875 13.4051 13.9875 12.6517V11.4984C13.9942 10.8251 13.4875 10.2584 12.8142 10.1784Z" fill="#303133"/>
</svg>
