<svg width="156" height="24" viewBox="0 0 156 24" fill="none" xmlns="http://www.w3.org/2000/svg">
<path d="M48.9956 9.41126C48.0422 8.85836 47.006 8.50573 45.9656 8.1618C44.777 7.76999 43.5798 7.40865 42.4044 6.99072C40.6761 6.37252 40.8894 4.43522 41.7818 3.63853C42.1388 3.31637 42.5437 3.08999 42.9921 2.94632C45.1558 2.24976 47.511 3.12917 48.6952 5.07518C49.1871 5.88493 49.4701 6.77739 49.7139 7.68292C49.7879 7.95719 49.8837 8.26629 50.2363 8.2184C50.5846 8.17051 50.6064 7.86141 50.6064 7.56973C50.5977 6.04165 50.5933 4.50923 50.589 2.98115C50.589 2.67205 50.5541 2.36296 50.1884 2.28024C49.8053 2.19752 49.6443 2.44567 49.5049 2.76348C49.1915 3.48616 48.7953 3.60805 48.0944 3.22495C47.8985 3.11611 47.7113 2.98115 47.5197 2.86361C46.3835 2.16269 45.1776 1.6664 43.8323 1.52273C41.4684 1.27458 39.3657 2.68947 38.7431 4.98811C38.7083 5.10565 38.7562 5.27979 38.582 5.34074C38.582 5.44523 38.582 5.54971 38.582 5.65419C38.7344 5.93282 38.7518 6.21144 38.582 6.49006C38.582 6.52489 38.582 6.55972 38.582 6.59455C38.6604 6.62067 38.6778 6.68162 38.6865 6.75127C38.9216 8.3403 39.8707 9.41561 41.2028 10.2036C42.1171 10.7478 43.1097 11.1222 44.0979 11.5009C45.3125 11.9668 46.5968 12.2454 47.7679 12.8287C48.7953 13.3381 49.2133 14.2654 49.0304 15.4408C48.878 16.4378 48.1684 17.1779 47.0844 17.339C45.1471 17.6263 43.4362 17.069 41.9821 15.7717C40.6935 14.6224 40.0492 13.1248 39.7488 11.4574C39.6922 11.1527 39.5746 10.9001 39.2307 10.9219C38.8781 10.9437 38.8041 11.218 38.8084 11.5271C38.8171 13.682 38.8171 15.837 38.8258 17.9963C38.8258 18.2619 38.8432 18.5405 39.1741 18.6145C39.5006 18.6842 39.6878 18.51 39.8271 18.2314C40.5411 16.8209 41.229 16.6163 42.6351 17.3868C43.5973 17.918 44.6029 18.3359 45.6913 18.5449C48.3338 19.0586 50.9068 17.4522 51.4901 14.9271C52.0038 12.7112 51.0548 10.6041 48.9956 9.41126Z" fill="#C03A30"/>
<path d="M38.582 5.65503C38.582 5.93365 38.582 6.21228 38.582 6.4909C38.6691 6.21228 38.6691 5.93365 38.582 5.65503Z" fill="#D8999B"/>
<path d="M38.582 5.65503C38.6691 5.93365 38.6691 6.21228 38.582 6.4909C38.7518 6.21228 38.7344 5.93365 38.582 5.65503Z" fill="#D8999B"/>
<path d="M70.4502 17.7224C69.5621 17.4176 69.4446 17.2522 69.4315 16.2944C69.4141 14.9927 69.4097 13.6867 69.3967 12.3806C69.388 11.597 69.4054 10.8177 69.2965 10.0385C69.0789 8.48861 68.1254 7.4133 66.7018 7.25222C65.1738 7.07373 63.8503 7.5352 62.8055 8.69758C62.6009 8.92396 62.4224 9.18082 62.2308 9.42461C60.4677 6.5426 58.3606 6.39894 55.5917 9.03715C55.6309 8.77159 55.6527 8.6018 55.6788 8.42766C55.8268 7.46989 55.5917 7.24351 54.647 7.46119C53.8852 7.63968 53.1103 7.77028 52.331 7.82688C52.0088 7.853 51.7781 7.93136 51.7607 8.284C51.7433 8.67146 51.9783 8.76288 52.3266 8.79771C53.0058 8.86736 53.3671 9.17646 53.4106 9.7903C53.5717 12.0802 53.563 14.3789 53.4934 16.6732C53.4759 17.213 53.1581 17.5265 52.6357 17.644C52.5008 17.6745 52.3615 17.6919 52.2265 17.718C51.9043 17.7833 51.8129 18.001 51.8477 18.297C51.8826 18.5931 52.0872 18.6453 52.3397 18.6235C53.8329 18.4886 55.3262 18.4668 56.8238 18.6235C57.1285 18.654 57.3462 18.5539 57.3854 18.2317C57.4202 17.9183 57.2461 17.7485 56.9413 17.7006C56.8717 17.6919 56.802 17.6832 56.7367 17.6701C56.1229 17.5482 55.8268 17.2348 55.8007 16.5992C55.7311 14.9492 55.6919 13.2949 55.7659 11.6449C55.8181 10.4433 56.2796 9.43767 57.5073 8.98491C58.8133 8.50603 59.7754 9.02409 60.1368 10.3606C60.2717 10.8656 60.324 11.3837 60.324 11.9061C60.3196 13.4037 60.324 14.8969 60.324 16.3946C60.324 17.348 60.2369 17.4655 59.2835 17.6875C58.957 17.7659 58.8046 17.9444 58.8351 18.2753C58.8656 18.6453 59.1311 18.6627 59.4054 18.6279C60.7419 18.4538 62.0741 18.4494 63.4106 18.6235C63.6762 18.6584 63.9635 18.6801 64.007 18.3057C64.0506 17.9531 63.8808 17.7659 63.5282 17.6919C62.8055 17.5352 62.6183 17.3044 62.6139 16.5905C62.6052 15.0754 62.5965 13.5648 62.6139 12.0498C62.6226 11.1268 62.9709 10.3127 63.6022 9.64664C64.1986 9.01974 64.9343 8.6671 65.8094 8.89784C66.654 9.11987 66.8891 9.85125 67.0545 10.6044C67.0719 10.6871 67.0937 10.7742 67.098 10.8613C67.2069 12.7376 67.1938 14.614 67.172 16.4947C67.1633 17.2696 66.8891 17.5439 66.1359 17.6875C65.7876 17.7528 65.5221 17.8878 65.5569 18.2796C65.5961 18.728 65.9531 18.6453 66.236 18.6192C67.59 18.4799 68.9439 18.432 70.2978 18.6192C70.5765 18.6584 70.7985 18.6192 70.8507 18.3057C70.8812 18.014 70.7462 17.8225 70.4502 17.7224Z" fill="#C03A30"/>
<path d="M128.129 17.688C127.28 17.466 127.084 17.2222 127.076 16.3428C127.063 15.3154 127.08 14.2923 127.063 13.2649C127.045 12.2244 127.128 11.1795 126.967 10.1391C126.632 8.0102 125.025 6.887 122.905 7.28752C121.943 7.47036 121.19 7.98408 120.437 8.78512C120.437 6.99583 120.437 5.36327 120.437 3.73072C120.437 3.15605 120.432 2.58139 120.419 2.01109C120.411 1.64975 120.236 1.46255 119.849 1.5322C118.787 1.7194 117.733 1.94578 116.658 2.04591C116.279 2.08074 116.175 2.32889 116.209 2.67282C116.253 3.07334 116.558 3.09511 116.854 3.13864C117.803 3.26925 118.06 3.52175 118.099 4.47516C118.256 8.42378 118.19 12.368 118.125 16.3167C118.108 17.3571 118.02 17.4355 117.01 17.6837C116.671 17.7664 116.562 17.9666 116.597 18.2888C116.636 18.6588 116.875 18.6675 117.163 18.6327C118.517 18.4716 119.871 18.415 121.22 18.6371C121.477 18.6806 121.677 18.6197 121.734 18.341C121.795 18.0406 121.734 17.8186 121.373 17.7098C120.545 17.4616 120.454 17.3223 120.445 16.4516C120.432 14.7668 120.419 13.0777 120.424 11.3929C120.424 10.6832 120.711 10.0738 121.207 9.5731C121.83 8.9462 122.592 8.68499 123.449 8.92008C124.233 9.1334 124.525 9.79513 124.686 10.5222C124.716 10.6571 124.751 10.7921 124.76 10.9314C124.908 12.7729 124.799 14.6144 124.781 16.456C124.773 17.392 124.642 17.4921 123.715 17.6924C123.327 17.7751 123.249 17.9971 123.301 18.3323C123.353 18.6762 123.589 18.6632 123.85 18.624C125.221 18.4412 126.592 18.4237 127.959 18.6327C128.273 18.6806 128.534 18.6545 128.604 18.2975C128.682 17.9362 128.46 17.7751 128.129 17.688Z" fill="#21397D"/>
<path d="M134.59 7.22611C132.078 7.03456 130.163 8.12728 129.331 10.2823C128.652 12.0367 128.652 13.8173 129.349 15.5674C130.642 18.802 134.647 19.725 137.246 17.3872C138.574 16.1943 138.931 14.6053 138.966 12.9074C138.974 12.2587 138.892 11.6231 138.748 10.9962C138.256 8.79772 136.693 7.38719 134.59 7.22611ZM136.484 13.0032C136.489 13.961 136.445 14.9144 136.158 15.8373C135.796 16.9997 135.109 17.5352 133.972 17.5657C132.84 17.5961 132.074 17.1042 131.721 15.9374C131.116 13.9261 131.121 11.8843 131.817 9.8948C132.279 8.58005 133.332 8.04457 134.564 8.35802C135.348 8.55828 135.792 9.10682 136.062 9.82514C136.179 10.1342 136.271 10.452 136.336 10.7742C136.48 11.5056 136.497 12.2544 136.484 13.0032Z" fill="#21397D"/>
<path d="M150.044 11.4888C149.705 9.07262 148.076 7.427 145.817 7.23109C143.174 7.00035 141.154 8.25851 140.393 10.6442C139.896 12.1941 139.905 13.7613 140.44 15.3025C141.62 18.7025 145.669 19.7996 148.386 17.4487C149.748 16.2689 150.131 14.6669 150.157 12.9472C150.175 12.4509 150.114 11.9677 150.044 11.4888ZM147.336 15.8945C146.966 17.0134 146.283 17.5402 145.16 17.5663C144.063 17.5924 143.309 17.1309 142.952 16.0251C142.286 13.9659 142.312 11.8806 143.039 9.84318C143.431 8.74175 144.241 8.23239 145.251 8.27593C146.248 8.31946 146.945 8.88977 147.319 9.97379C147.654 10.9403 147.68 11.9503 147.685 12.9603C147.667 13.9485 147.654 14.9368 147.336 15.8945Z" fill="#21397D"/>
<path d="M80.5586 16.9779C79.923 17.3828 79.4441 17.1607 79.3222 16.4076C79.2613 16.0332 79.2439 15.6457 79.2395 15.267C79.2265 13.5996 79.2439 11.9278 79.2134 10.2605C79.2003 9.42459 78.987 8.63661 78.2992 8.07065C76.7058 6.76025 73.7585 6.96487 72.361 8.47553C71.8908 8.98489 71.647 9.57696 71.6993 10.2779C71.7297 10.7263 71.8995 11.1007 72.3436 11.2618C72.8007 11.4272 73.2404 11.3793 73.6017 11.018C73.9457 10.6697 73.9892 10.2866 73.7628 9.82946C73.5103 9.32446 73.6366 8.81945 74.011 8.51036C75.0732 7.6353 76.7363 8.20561 77.0236 9.55084C77.1542 10.1516 77.1368 10.7611 77.1411 11.3706C77.1455 12.0889 77.1411 12.0846 76.4489 12.1412C76.1355 12.1673 75.8264 12.2021 75.5129 12.2413C74.3549 12.385 73.2622 12.6854 72.3697 13.4951C71.4294 14.3527 71.1159 15.9592 71.6514 17.1999C72.1041 18.2491 73.0358 18.7062 74.4594 18.6279C75.5565 18.5669 76.462 18.1054 77.2674 17.3305C77.5808 18.014 78.0118 18.4929 78.7563 18.6105C79.7576 18.7628 80.4541 18.2796 81.0506 17.5569C81.1986 17.3784 81.2682 17.213 81.081 17.0084C80.9069 16.8125 80.7763 16.8386 80.5586 16.9779ZM76.5752 16.647C76.2878 16.8125 75.9962 16.9648 75.6697 17.0301C75.0428 17.1564 74.3941 17.2391 73.9544 16.6383C73.5016 16.0245 73.5495 15.3323 73.8455 14.6618C74.0327 14.2395 74.3723 13.9392 74.7685 13.7041C75.4084 13.3253 76.1311 13.2165 76.8495 13.0815C77.0932 13.0336 77.1455 13.1425 77.1411 13.3601C77.1281 13.7955 77.1368 14.2265 77.1368 14.6618H77.1324C77.1324 14.9753 77.0976 15.2887 77.1411 15.5978C77.2151 16.0985 76.9888 16.4076 76.5752 16.647Z" fill="#C03A30"/>
<path d="M104.877 12.6201C103.863 11.8887 102.683 11.5012 101.564 10.9875C101.025 10.7394 100.672 10.3868 100.685 9.7642C100.698 9.16777 101.081 8.6976 101.721 8.46686C102.849 8.05763 103.972 8.52781 104.442 9.62924C104.577 9.94705 104.647 10.291 104.747 10.6218C104.825 10.8918 104.938 11.1225 105.282 11.0485C105.6 10.9788 105.596 10.7568 105.587 10.4869C105.552 9.60312 105.435 8.71501 105.705 7.84431C105.77 7.63535 105.674 7.49603 105.483 7.44379C105.265 7.38284 105.008 7.3306 104.917 7.62664C104.812 7.96621 104.668 7.9488 104.39 7.78336C102.884 6.88655 101.377 7.02586 99.9711 7.97492C98.16 9.2026 98.3037 11.9105 100.215 12.9771C100.85 13.3297 101.534 13.5953 102.196 13.9C102.736 14.1482 103.258 14.4181 103.693 14.836C104.216 15.3367 104.233 15.9375 104.037 16.5731C103.859 17.1564 103.454 17.5265 102.84 17.5961C101.617 17.7354 100.642 17.3698 100.076 16.3641C99.8579 15.981 99.7099 15.5761 99.6141 15.1538C99.5401 14.836 99.4138 14.6358 99.0525 14.7054C98.6824 14.7794 98.7173 15.058 98.7695 15.3193C98.8827 15.8852 98.8783 16.4599 98.9175 16.9692C98.8871 17.4307 98.8609 17.8269 98.8348 18.2274C98.8218 18.4146 98.8522 18.58 99.0743 18.6236C99.2702 18.6627 99.4922 18.6889 99.5662 18.4581C99.6968 18.0402 99.9275 18.1708 100.211 18.2622C101.66 18.7367 103.11 18.8369 104.538 18.1882C105.652 17.6832 106.249 16.8125 106.301 15.5761C106.358 14.3354 105.901 13.3515 104.877 12.6201Z" fill="#21397D"/>
<path d="M155.447 17.6617C154.493 17.4788 154.254 17.1784 154.254 16.212C154.254 13.9003 154.254 11.5886 154.254 9.27685C154.25 9.27685 154.245 9.27685 154.241 9.27685C154.241 6.9129 154.241 4.54896 154.241 2.18501C154.241 1.57117 154.097 1.46233 153.483 1.55811C152.486 1.71048 151.494 1.87156 150.492 2.00216C150.188 2.04135 150.001 2.15454 149.996 2.47669C149.992 2.80321 150.144 2.97735 150.479 3.03394C151.764 3.25162 151.951 3.478 151.955 4.77534C151.96 8.5977 151.964 12.4244 151.964 16.2468C151.964 17.2568 151.725 17.5311 150.71 17.666C150.358 17.7139 150.105 17.814 150.131 18.2363C150.162 18.6978 150.497 18.6281 150.784 18.602C152.295 18.4584 153.805 18.4322 155.316 18.6107C155.621 18.6456 155.939 18.7022 155.995 18.2712C156.039 17.8793 155.808 17.7313 155.447 17.6617Z" fill="#21397D"/>
<path d="M115.636 16.3037C113.559 17.527 111.444 16.9741 110.412 14.9454C110.033 14.201 109.885 13.4043 109.911 12.7338C109.933 11.3625 110.124 10.3612 110.464 9.68204C111.095 8.41953 112.414 7.87534 113.651 8.37164C114.278 8.62414 114.356 8.82005 114.077 9.43389C113.873 9.88665 113.89 10.3133 114.204 10.7051C114.513 11.0882 114.939 11.1666 115.383 11.0621C115.849 10.9533 116.106 10.6137 116.215 10.1522C116.441 9.15962 115.884 8.15832 114.8 7.6359C112.858 6.69554 110.081 7.30068 108.705 8.97677C107.604 10.3176 107.312 11.8936 107.434 13.5741C107.647 16.4778 109.58 18.4979 112.336 18.6415C113.734 18.7155 114.97 18.2671 115.993 17.2832C116.08 17.2005 116.163 17.1091 116.245 17.0177C116.446 16.8043 116.515 16.5867 116.311 16.3211C116.08 16.0251 115.875 16.16 115.636 16.3037Z" fill="#21397D"/>
<path d="M88.6 7.30889C87.4594 6.96496 86.2361 7.37854 85.5439 8.34067C85.4089 8.53222 85.2827 8.73248 85.0781 9.03722C85.0998 8.68024 85.1085 8.46256 85.1216 8.24489C85.1782 7.46126 85.0171 7.31324 84.2335 7.43514C83.4107 7.56139 82.5879 7.70506 81.7607 7.80954C81.4255 7.85307 81.186 7.9445 81.1817 8.32761C81.1773 8.74554 81.456 8.76731 81.7781 8.79778C82.5879 8.87615 82.8796 9.15912 83.0015 9.95581C83.0493 10.2649 83.0711 10.5784 83.0711 10.8875C83.0798 12.6071 83.0798 14.3311 83.0798 16.0507C83.0798 17.1521 82.8447 17.4438 81.7389 17.6615C81.382 17.7311 81.1469 17.8835 81.1991 18.2797C81.2513 18.6889 81.5648 18.628 81.8391 18.6018C83.489 18.4538 85.139 18.4146 86.789 18.6323C86.9065 18.6497 87.0328 18.6323 87.1547 18.628C87.4159 18.6149 87.5813 18.493 87.6161 18.2274C87.651 17.9575 87.5117 17.8008 87.2592 17.7355C86.9239 17.6484 86.58 17.5918 86.2492 17.483C85.5831 17.2697 85.3785 16.991 85.3741 16.3032C85.3654 14.5836 85.3523 12.8596 85.3698 11.14C85.3785 10.2257 85.7398 9.43775 86.4973 8.89791C87.0676 8.48868 87.5073 8.6933 87.5726 9.35503C87.6161 9.79473 87.799 10.1169 88.2561 10.2257C88.7872 10.352 89.2879 10.1648 89.5404 9.75555C90.0889 8.86744 89.6057 7.60928 88.6 7.30889Z" fill="#C03A30"/>
<path d="M96.4917 16.7303C96.3915 16.8 96.2827 16.8522 96.1695 16.9001C94.7807 17.5314 94.0232 17.083 93.9362 15.5636C93.9231 15.3198 93.9187 15.076 93.9187 14.8322C93.9144 14.0312 93.9187 13.2345 93.9187 12.4334C93.9187 11.3886 93.9362 10.3481 93.91 9.30327C93.9013 8.92887 94.0189 8.82439 94.3802 8.84616C94.9549 8.87663 95.5295 8.8418 96.0998 8.86357C96.6005 8.88099 96.6571 8.58059 96.6658 8.18878C96.6745 7.80132 96.5831 7.54446 96.1216 7.55752C95.6166 7.57058 95.1116 7.56188 94.6066 7.55317C93.8056 7.54011 93.91 7.65765 93.9013 6.87403C93.897 6.42126 93.8883 5.9685 93.9057 5.52009C93.9187 5.12392 93.836 4.81918 93.3571 4.82353C92.9305 4.82353 92.604 4.94108 92.5779 5.45479C92.5648 5.67682 92.5126 5.9032 92.4647 6.12087C92.2775 6.98286 91.8117 7.57494 90.8757 7.66201C90.4229 7.70554 90.24 7.91886 90.2836 8.38033C90.3271 8.85051 90.6188 8.87228 90.9758 8.87663C91.6462 8.87663 91.6462 8.88534 91.6462 9.57754C91.6462 11.6629 91.6375 13.7482 91.6549 15.8335C91.6636 16.739 91.8204 17.6097 92.6345 18.1887C93.8099 19.0203 95.9649 18.7155 96.8704 17.601C96.9357 17.5183 96.9967 17.4356 97.0533 17.3485C97.1882 17.157 97.21 16.9698 97.0315 16.7826C96.8748 16.5997 96.6963 16.5823 96.4917 16.7303Z" fill="#C03A30"/>
<path d="M0 4.55906L13.5122 0L27.1634 4.55906L13.5122 9.79317L0 4.55906Z" fill="#062A9B"/>
<path d="M4.44336 8.97754L12.1513 11.6982V23.6693L10.9731 22.6711L9.97478 23.6693V19.3271L4.44336 17.321V8.97754Z" fill="#C00706"/>
<path d="M14.5098 12.151V19.8604L22.6719 17.2297V8.97754L14.5098 12.151Z" fill="#C00706"/>
<path d="M13.5821 7.75421C14.7352 7.75421 15.67 6.81942 15.67 5.66629C15.67 4.51316 14.7352 3.57837 13.5821 3.57837C12.4289 3.57837 11.4941 4.51316 11.4941 5.66629C11.4941 6.81942 12.4289 7.75421 13.5821 7.75421Z" fill="white"/>
</svg>
