<svg width="112" height="112" viewBox="0 0 112 112" fill="none" xmlns="http://www.w3.org/2000/svg">
<path d="M54.1247 1.19C55.2694 0.463619 56.7306 0.463618 57.8753 1.19L62.7808 4.30287C63.5967 4.82063 64.5904 4.97801 65.5264 4.73773L71.1537 3.29309C72.4668 2.95599 73.8565 3.40753 74.7207 4.45208L78.4242 8.92849C79.0402 9.67304 79.9366 10.1298 80.901 10.1905L86.6994 10.5555C88.0524 10.6407 89.2345 11.4996 89.7337 12.76L91.8726 18.1618C92.2284 19.0603 92.9398 19.7716 93.8382 20.1274L99.24 22.2663C100.5 22.7655 101.359 23.9476 101.444 25.3006L101.81 31.099C101.87 32.0634 102.327 32.9598 103.072 33.5758L107.548 37.2793C108.592 38.1435 109.044 39.5332 108.707 40.8463L107.262 46.4736C107.022 47.4096 107.179 48.4033 107.697 49.2192L110.81 54.1247C111.536 55.2694 111.536 56.7306 110.81 57.8753L107.697 62.7808C107.179 63.5967 107.022 64.5904 107.262 65.5264L108.707 71.1537C109.044 72.4668 108.592 73.8565 107.548 74.7207L103.072 78.4242C102.327 79.0402 101.87 79.9366 101.81 80.901L101.444 86.6994C101.359 88.0524 100.5 89.2345 99.24 89.7337L93.8382 91.8726C92.9398 92.2284 92.2284 92.9398 91.8726 93.8382L89.7337 99.24C89.2345 100.5 88.0524 101.359 86.6994 101.444L80.901 101.81C79.9366 101.87 79.0402 102.327 78.4242 103.072L74.7207 107.548C73.8565 108.592 72.4668 109.044 71.1537 108.707L65.5264 107.262C64.5904 107.022 63.5967 107.179 62.7808 107.697L57.8753 110.81C56.7306 111.536 55.2694 111.536 54.1247 110.81L49.2192 107.697C48.4033 107.179 47.4096 107.022 46.4736 107.262L40.8463 108.707C39.5332 109.044 38.1435 108.592 37.2793 107.548L33.5758 103.072C32.9598 102.327 32.0634 101.87 31.099 101.81L25.3006 101.444C23.9476 101.359 22.7655 100.5 22.2663 99.24L20.1274 93.8382C19.7716 92.9398 19.0603 92.2284 18.1618 91.8726L12.76 89.7336C11.4996 89.2345 10.6407 88.0524 10.5555 86.6994L10.1905 80.901C10.1298 79.9366 9.67304 79.0402 8.92849 78.4242L4.45208 74.7207C3.40753 73.8565 2.95599 72.4668 3.29309 71.1537L4.73773 65.5264C4.97801 64.5904 4.82063 63.5967 4.30287 62.7808L1.19 57.8753C0.463619 56.7306 0.463618 55.2694 1.19 54.1247L4.30287 49.2192C4.82063 48.4033 4.97801 47.4096 4.73773 46.4736L3.29309 40.8463C2.95599 39.5332 3.40753 38.1435 4.45208 37.2793L8.92849 33.5758C9.67304 32.9598 10.1298 32.0634 10.1905 31.099L10.5555 25.3006C10.6407 23.9476 11.4996 22.7655 12.76 22.2663L18.1618 20.1274C19.0603 19.7716 19.7716 19.0603 20.1274 18.1618L22.2663 12.76C22.7655 11.4996 23.9476 10.6407 25.3006 10.5555L31.099 10.1905C32.0634 10.1298 32.9598 9.67304 33.5758 8.92849L37.2793 4.45208C38.1435 3.40753 39.5332 2.95599 40.8463 3.29309L46.4736 4.73773C47.4096 4.97801 48.4033 4.82063 49.2192 4.30287L54.1247 1.19Z" fill="#D5AF6B"/>
<circle cx="56.5" cy="55.5" r="47.5" fill="#062A9B"/>
</svg>
