<svg width="16" height="16" viewBox="0 0 16 16" fill="none" xmlns="http://www.w3.org/2000/svg">
<path d="M1.60156 4.7072L7.99916 7.9056L14.3968 4.7072C14.3731 4.29956 14.1944 3.91639 13.8974 3.63618C13.6004 3.35597 13.2075 3.19993 12.7992 3.2H3.19916C2.79083 3.19993 2.39792 3.35597 2.1009 3.63618C1.80389 3.91639 1.62525 4.29956 1.60156 4.7072Z" fill="#75767E"/>
<path d="M14.3996 6.4944L7.99961 9.6944L1.59961 6.4944V11.2C1.59961 11.6243 1.76818 12.0313 2.06824 12.3314C2.3683 12.6314 2.77526 12.8 3.19961 12.8H12.7996C13.224 12.8 13.6309 12.6314 13.931 12.3314C14.231 12.0313 14.3996 11.6243 14.3996 11.2V6.4944Z" fill="#75767E"/>
</svg>
