<svg width="20" height="14" viewBox="0 0 20 14" fill="none" xmlns="http://www.w3.org/2000/svg">
<path d="M19.8792 6.49299C17.9962 2.81902 14.2684 0.333252 10 0.333252C5.73159 0.333252 2.00276 2.82076 0.120815 6.49333C0.0413845 6.65045 0 6.82405 0 7.0001C0 7.17616 0.0413845 7.34976 0.120815 7.50688C2.0038 11.1808 5.73159 13.6666 10 13.6666C14.2684 13.6666 17.9972 11.1791 19.8792 7.50653C19.9586 7.34941 20 7.17582 20 6.99976C20 6.8237 19.9586 6.65011 19.8792 6.49299V6.49299ZM10 11.9999C9.01109 11.9999 8.04439 11.7067 7.22214 11.1573C6.3999 10.6079 5.75903 9.82698 5.38059 8.91335C5.00215 7.99972 4.90314 6.99438 5.09606 6.02448C5.28899 5.05457 5.7652 4.16365 6.46446 3.46439C7.16372 2.76513 8.05464 2.28892 9.02455 2.096C9.99445 1.90307 10.9998 2.00209 11.9134 2.38052C12.8271 2.75896 13.6079 3.39983 14.1574 4.22207C14.7068 5.04432 15 6.01102 15 6.99993C15.0003 7.65663 14.8712 8.30696 14.6201 8.91373C14.3689 9.5205 14.0006 10.0718 13.5363 10.5362C13.0719 11.0005 12.5206 11.3688 11.9138 11.62C11.307 11.8711 10.6567 12.0003 10 11.9999V11.9999ZM10 3.66659C9.70248 3.67075 9.40687 3.71501 9.12118 3.79819C9.35667 4.11822 9.46968 4.51204 9.43971 4.90824C9.40974 5.30444 9.23877 5.67678 8.95781 5.95774C8.67685 6.2387 8.30451 6.40967 7.90831 6.43964C7.51211 6.46961 7.11828 6.3566 6.79826 6.12111C6.61602 6.7925 6.64892 7.50413 6.89231 8.15584C7.13571 8.80755 7.57735 9.36652 8.15507 9.75409C8.73279 10.1417 9.4175 10.3383 10.1128 10.3163C10.8082 10.2944 11.4791 10.0549 12.0312 9.63164C12.5833 9.20838 12.9888 8.62265 13.1906 7.95687C13.3923 7.2911 13.3803 6.57881 13.156 5.92027C12.9318 5.26172 12.5066 4.69008 11.9405 4.2858C11.3744 3.88152 10.6957 3.66495 10 3.66659V3.66659Z" fill="#3488ED"/>
</svg>
