<svg width="16" height="16" viewBox="0 0 16 16" fill="none" xmlns="http://www.w3.org/2000/svg">
<path d="M14.0209 4.82754L8.56562 2.13223C8.38957 2.04588 8.19609 2.00098 8 2.00098C7.80391 2.00098 7.61042 2.04588 7.43437 2.13223L1.97906 4.82754C1.68531 4.97006 1.43766 5.19247 1.2645 5.46926C1.09134 5.74606 0.999668 6.06604 1 6.39254V12.1616C1 13.1266 1.79438 13.9116 2.77094 13.9116H13.2291C14.2056 13.9116 15 13.1266 15 12.1616V6.39254C15.0003 6.06604 14.9087 5.74606 14.7355 5.46926C14.5623 5.19247 14.3147 4.97006 14.0209 4.82754V4.82754ZM7.88687 3.02661C7.92208 3.00933 7.96078 3.00035 8 3.00035C8.03922 3.00035 8.07791 3.00933 8.11312 3.02661L13.4062 5.64098L8.03125 8.29723C7.99604 8.3145 7.95734 8.32348 7.91812 8.32348C7.87891 8.32348 7.84021 8.3145 7.805 8.29723L2.51094 5.68254L7.88687 3.02661Z" fill="#303133"/>
</svg>
