<svg width="331" height="275" viewBox="0 0 331 275" fill="none" xmlns="http://www.w3.org/2000/svg">
<g clip-path="url(#clip0_8655_153025)">
<path opacity="0.1" d="M192.313 36.4854C171.093 35.7485 150.883 28.9066 131.584 21.4194C112.286 13.9323 93.1708 5.63619 72.4591 1.6699C59.1377 -0.881487 43.9015 -1.24176 33.1702 5.89165C22.839 12.7696 19.5012 24.6095 17.7078 35.6077C16.3569 43.8809 15.5635 52.5896 19.2619 60.3322C21.8324 65.7101 26.3898 70.2299 29.5439 75.3819C40.5178 93.3038 32.7604 115.405 20.8717 132.904C15.2979 141.115 8.82243 148.953 4.51747 157.685C0.212511 166.416 -1.77767 176.435 1.98958 185.35C5.72076 194.193 14.6159 200.823 24.2521 205.49C43.8228 214.971 66.8755 217.683 89.3708 219.219C139.152 222.622 189.195 221.148 239.107 219.675C257.579 219.128 276.13 218.574 294.301 215.721C304.393 214.136 314.809 211.624 322.137 205.552C331.435 197.845 333.74 184.797 327.508 175.132C317.055 158.923 288.163 154.897 280.848 137.503C276.828 127.926 280.956 117.262 286.802 108.38C299.34 89.331 320.353 72.6176 321.458 50.844C322.219 35.8893 312.117 20.9118 296.497 13.834C280.127 6.41896 257.422 7.34912 245.349 19.6279C232.907 32.2702 211.051 37.1339 192.313 36.4854Z" fill="#409EFF"/>
<path opacity="0.1" d="M158.523 269.258C213.565 269.258 258.186 263.229 258.186 255.791C258.186 248.353 213.565 242.323 158.523 242.323C103.48 242.323 58.8594 248.353 58.8594 255.791C58.8594 263.229 103.48 269.258 158.523 269.258Z" fill="#409EFF"/>
<path d="M212.91 94.922H211.507C211.093 94.922 210.756 95.2578 210.756 95.672V118.088C210.756 118.502 211.093 118.838 211.507 118.838H212.91C213.325 118.838 213.661 118.502 213.661 118.088V95.672C213.661 95.2578 213.325 94.922 212.91 94.922Z" fill="#3A3768"/>
<path d="M115.099 76.1844H114.972C114.557 76.1844 114.221 76.5202 114.221 76.9345V83.308C114.221 83.7222 114.557 84.058 114.972 84.058H115.099C115.514 84.058 115.85 83.7222 115.85 83.308V76.9345C115.85 76.5202 115.514 76.1844 115.099 76.1844Z" fill="#3A3768"/>
<path d="M115.247 90.6023H114.912C114.498 90.6023 114.162 90.9381 114.162 91.3523V103.556C114.162 103.97 114.498 104.306 114.912 104.306H115.247C115.662 104.306 115.998 103.97 115.998 103.556V91.3523C115.998 90.9381 115.662 90.6023 115.247 90.6023Z" fill="#3A3768"/>
<path d="M115.188 109.1H114.942C114.528 109.1 114.191 109.436 114.191 109.85V122.172C114.191 122.586 114.528 122.922 114.942 122.922H115.188C115.603 122.922 115.939 122.586 115.939 122.172V109.85C115.939 109.436 115.603 109.1 115.188 109.1Z" fill="#3A3768"/>
<path d="M199.54 50.1665H127.926C120.866 50.1665 115.142 55.8839 115.142 62.9366V234.692C115.142 241.745 120.866 247.462 127.926 247.462H199.54C206.6 247.462 212.323 241.745 212.323 234.692V62.9366C212.323 55.8839 206.6 50.1665 199.54 50.1665Z" fill="#3A3768"/>
<path d="M198.615 55.2919H187.467V56.6314C187.467 57.4653 187.303 58.2909 186.983 59.0612C186.664 59.8315 186.196 60.5314 185.605 61.1209C185.015 61.7103 184.314 62.1778 183.543 62.4966C182.771 62.8154 181.945 62.9792 181.11 62.9788H145.657C144.823 62.9792 143.996 62.8154 143.225 62.4966C142.453 62.1778 141.752 61.7103 141.162 61.1209C140.572 60.5314 140.103 59.8315 139.784 59.0612C139.464 58.2909 139.3 57.4653 139.3 56.6314V55.2919H128.864C126.817 55.2919 124.854 56.1042 123.406 57.55C121.959 58.9959 121.146 60.9569 121.146 63.0017V234.613C121.146 236.658 121.959 238.619 123.406 240.065C124.854 241.511 126.817 242.323 128.864 242.323H198.615C200.662 242.323 202.625 241.511 204.073 240.065C205.52 238.619 206.333 236.658 206.333 234.613V63.0148C206.335 62.0012 206.137 60.9973 205.749 60.0604C205.362 59.1234 204.794 58.272 204.077 57.5547C203.36 56.8373 202.509 56.2683 201.572 55.88C200.634 55.4917 199.63 55.2919 198.615 55.2919Z" fill="white"/>
<path d="M166.661 56.0585H155.628C154.927 56.0585 154.359 56.626 154.359 57.326V57.5421C154.359 58.2422 154.927 58.8097 155.628 58.8097H166.661C167.361 58.8097 167.929 58.2422 167.929 57.5421V57.326C167.929 56.626 167.361 56.0585 166.661 56.0585Z" fill="#E6E8EC"/>
<path d="M171.546 58.9965C172.41 58.9965 173.11 58.297 173.11 57.4342C173.11 56.5714 172.41 55.8719 171.546 55.8719C170.682 55.8719 169.982 56.5714 169.982 57.4342C169.982 58.297 170.682 58.9965 171.546 58.9965Z" fill="#E6E8EC"/>
<path d="M245.97 41.5131C245.97 41.5131 218.363 39.8493 221.615 59.173C221.615 59.173 220.96 62.5891 224.068 64.1383C224.068 64.1383 224.117 62.707 226.901 63.195C227.892 63.3591 228.899 63.4075 229.901 63.3391C231.253 63.2503 232.539 62.725 233.566 61.8423C233.566 61.8423 241.327 58.6392 244.344 45.9706C244.344 45.9706 246.576 43.2064 246.488 42.4956L241.829 44.4837C241.829 44.4837 243.422 47.8408 242.157 50.6313C242.157 50.6313 242.006 44.6049 241.111 44.7359C240.93 44.7621 238.691 45.8986 238.691 45.8986C238.691 45.8986 241.429 51.7448 239.363 55.9961C239.363 55.9961 240.147 48.7906 237.835 46.3211L234.557 48.2338C234.557 48.2338 237.757 54.2733 235.586 59.2025C235.586 59.2025 236.144 51.6433 233.865 48.6989L230.894 51.0145C230.894 51.0145 233.901 56.9655 232.068 61.053C232.068 61.053 231.829 52.2558 230.252 51.5909C230.252 51.5909 227.652 53.8836 227.255 54.8203C227.255 54.8203 229.314 59.1436 228.035 61.4231C228.035 61.4231 227.252 55.5605 226.609 55.5277C226.609 55.5277 224.019 59.4121 223.75 62.0781C223.75 62.0781 223.861 58.1184 225.983 55.1609C225.983 55.1609 223.478 55.5899 222.015 57.2112C222.015 57.2112 222.419 54.4666 226.622 54.2242C226.622 54.2242 228.763 51.2765 229.334 51.0996C229.334 51.0996 225.156 50.7492 222.622 51.8726C222.622 51.8726 224.852 49.2819 230.101 50.461L233.035 48.0668C233.035 48.0668 227.534 47.3168 225.199 48.1454C225.199 48.1454 227.884 45.8527 233.825 47.5231L237.019 45.6169C237.019 45.6169 232.327 44.6082 229.534 44.9619C229.534 44.9619 232.484 43.3734 237.957 45.0962L240.252 44.071C240.252 44.071 236.816 43.3963 235.809 43.2882C234.803 43.1802 234.75 42.905 234.75 42.905C236.927 42.5424 239.162 42.7907 241.206 43.6223C241.206 43.6223 246.052 41.8177 245.97 41.5131Z" fill="#409EFF"/>
<path d="M217.652 32.9191C217.652 32.9191 205.192 32.169 206.648 40.9008C206.648 40.9008 206.356 42.4434 207.756 43.1443C207.756 43.1443 207.779 42.4892 209.038 42.7152C209.485 42.7904 209.94 42.8124 210.392 42.7807C211.004 42.7404 211.586 42.5011 212.048 42.0995C212.048 42.0995 215.556 40.6519 216.92 34.9268C216.92 34.9268 217.927 33.6789 217.888 33.358L215.783 34.2554C215.783 34.2554 216.501 35.7718 215.937 37.0327C215.937 37.0327 215.868 34.311 215.465 34.3733C215.383 34.3733 214.37 34.9006 214.37 34.9006C214.37 34.9006 215.609 37.5437 214.674 39.4629C214.674 39.4629 215.029 36.2074 213.983 35.0905L212.501 35.9683C212.501 35.9683 213.947 38.6965 212.966 40.9237C212.966 40.9237 213.219 37.5076 212.189 36.1779L210.848 37.226C210.848 37.226 212.206 39.9149 211.379 41.7621C211.379 41.7621 211.268 37.786 210.556 37.4847C210.556 37.4847 209.383 38.5197 209.202 38.9455C209.202 38.9455 210.133 40.9106 209.556 41.9292C209.556 41.9292 209.202 39.2795 208.901 39.2664C208.901 39.2664 207.73 41.022 207.609 42.2141C207.667 41.1026 208.015 40.0255 208.619 39.0896C207.943 39.2174 207.32 39.5395 206.825 40.0165C206.825 40.0165 207.009 38.7752 208.907 38.6671C208.907 38.6671 209.891 37.3341 210.133 37.2522C210.133 37.2522 208.245 37.095 207.101 37.6026C207.101 37.6026 208.107 36.4334 210.478 36.964L211.789 35.8831C211.789 35.8831 209.301 35.5556 208.248 35.9192C208.248 35.9192 209.461 34.8842 212.147 35.6375L213.589 34.7761C213.589 34.7761 211.468 34.3209 210.206 34.4846C210.206 34.4846 211.54 33.7674 214.012 34.5436L215.045 34.0818C215.045 34.0818 213.491 33.7772 213.035 33.7281C212.579 33.6789 212.556 33.5545 212.556 33.5545C213.541 33.3909 214.551 33.5043 215.474 33.882C215.474 33.882 217.691 33.0566 217.652 32.9191Z" fill="#409EFF"/>
<path opacity="0.1" d="M283.337 254.776C288.213 254.776 292.167 254.108 292.167 253.285C292.167 252.462 288.213 251.795 283.337 251.795C278.46 251.795 274.507 252.462 274.507 253.285C274.507 254.108 278.46 254.776 283.337 254.776Z" fill="#409EFF"/>
<path opacity="0.1" d="M29.8657 267.005C34.7422 267.005 38.6953 266.338 38.6953 265.515C38.6953 264.692 34.7422 264.025 29.8657 264.025C24.9893 264.025 21.0361 264.692 21.0361 265.515C21.0361 266.338 24.9893 267.005 29.8657 267.005Z" fill="#409EFF"/>
<path opacity="0.1" d="M64.02 275C68.8965 275 72.8496 274.333 72.8496 273.51C72.8496 272.687 68.8965 272.02 64.02 272.02C59.1436 272.02 55.1904 272.687 55.1904 273.51C55.1904 274.333 59.1436 275 64.02 275Z" fill="#409EFF"/>
<path d="M264.009 271.483C271.291 271.483 277.193 270.485 277.193 269.255C277.193 268.025 271.291 267.028 264.009 267.028C256.728 267.028 250.826 268.025 250.826 269.255C250.826 270.485 256.728 271.483 264.009 271.483Z" fill="#409EFF"/>
<path d="M269.461 265.613C270.062 265.122 270.5 264.461 270.717 263.717C270.881 262.967 270.56 262.079 269.839 261.787C269.032 261.48 268.17 262.04 267.517 262.603C266.865 263.166 266.114 263.812 265.258 263.69C265.699 263.292 266.028 262.787 266.215 262.224C266.402 261.661 266.439 261.059 266.324 260.477C266.285 260.236 266.182 260.01 266.025 259.822C265.579 259.344 264.766 259.547 264.232 259.927C262.527 261.123 262.052 263.438 262.042 265.518C261.868 264.768 262.015 263.985 262.009 263.225C262.002 262.465 261.796 261.588 261.143 261.185C260.741 260.969 260.288 260.863 259.832 260.877C259.065 260.848 258.212 260.926 257.688 261.486C257.032 262.181 257.209 263.346 257.773 264.106C258.337 264.866 259.199 265.354 259.993 265.881C260.627 266.26 261.169 266.776 261.576 267.391C261.625 267.477 261.665 267.569 261.694 267.663H266.484C267.565 267.117 268.566 266.427 269.461 265.613Z" fill="#409EFF"/>
<path d="M64.4761 236.887C64.4761 236.887 66.2794 239.242 63.6466 242.782C61.0138 246.323 58.8433 249.333 59.7122 251.55C59.7122 251.55 63.686 244.95 66.9254 244.859C70.1647 244.767 68.0336 240.856 64.4761 236.887Z" fill="#409EFF"/>
<path opacity="0.1" d="M64.4761 236.887C64.6333 237.115 64.757 237.364 64.8433 237.627C67.9974 241.328 69.6794 244.783 66.6466 244.868C63.8236 244.95 60.4367 249.994 59.6235 251.268C59.6498 251.366 59.6826 251.461 59.7186 251.56C59.7186 251.56 63.6924 244.96 66.9318 244.868C70.1712 244.777 68.0335 240.856 64.4761 236.887Z" fill="black"/>
<path d="M67.8233 239.886C67.8233 240.715 67.7315 241.386 67.6167 241.386C67.502 241.386 67.4102 240.715 67.4102 239.886C67.4102 239.058 67.5249 239.448 67.6397 239.448C67.7544 239.448 67.8233 239.058 67.8233 239.886Z" fill="#FFD037"/>
<path d="M68.9746 240.876C68.2467 241.272 67.6107 241.511 67.5582 241.409C67.5057 241.308 68.0467 240.905 68.7746 240.509C69.5025 240.113 69.2172 240.401 69.2697 240.509C69.3221 240.617 69.7025 240.479 68.9746 240.876Z" fill="#FFD037"/>
<path d="M54.9643 236.887C54.9643 236.887 53.161 239.242 55.7938 242.782C58.4266 246.323 60.5971 249.333 59.7283 251.55C59.7283 251.55 55.7577 244.95 52.5151 244.859C49.2724 244.767 51.4003 240.856 54.9643 236.887Z" fill="#409EFF"/>
<path opacity="0.1" d="M54.9646 236.887C54.8068 237.115 54.6821 237.364 54.5941 237.627C51.4399 241.328 49.7612 244.783 52.7908 244.868C55.617 244.95 59.0039 249.994 59.8171 251.268C59.7902 251.367 59.7574 251.465 59.7187 251.56C59.7187 251.56 55.7482 244.96 52.5055 244.868C49.2629 244.777 51.4006 240.856 54.9646 236.887Z" fill="black"/>
<path d="M51.6138 239.886C51.6138 240.715 51.7089 241.386 51.8236 241.386C51.9384 241.386 52.0302 240.715 52.0302 239.886C52.0302 239.058 51.9154 239.448 51.8007 239.448C51.6859 239.448 51.6138 239.058 51.6138 239.886Z" fill="#FFD037"/>
<path d="M50.4662 240.876C51.194 241.272 51.8268 241.511 51.8826 241.409C51.9383 241.308 51.3908 240.905 50.6629 240.509C49.935 240.113 50.2235 240.401 50.1678 240.509C50.1121 240.617 49.7383 240.479 50.4662 240.876Z" fill="#FFD037"/>
<path d="M52.1875 251.252C52.1875 251.252 57.2236 251.095 58.7449 250.017C60.2663 248.939 66.4926 247.646 66.8663 249.378C67.2401 251.111 74.4369 257.989 68.7516 258.035C63.0663 258.081 55.5384 257.15 54.0236 256.23C52.5088 255.31 52.1875 251.252 52.1875 251.252Z" fill="#A8A8A8"/>
<path opacity="0.2" d="M68.85 257.431C63.1647 257.477 55.6367 256.547 54.1219 255.627C52.9711 254.923 52.5088 252.404 52.3547 251.245H52.1875C52.1875 251.245 52.5154 255.299 54.0203 256.223C55.5252 257.147 63.063 258.073 68.7483 258.028C70.3877 258.028 70.9549 257.431 70.9254 256.567C70.6959 257.097 70.0697 257.422 68.85 257.431Z" fill="black"/>
<path d="M92.5352 145.649C92.5819 145.694 92.6419 145.722 92.7062 145.731C92.7706 145.739 92.836 145.726 92.8925 145.694C92.7718 145.696 92.6515 145.681 92.5352 145.649Z" fill="url(#paint0_linear_8655_153025)"/>
<path d="M131.824 80.472C131.132 80.2689 130.149 79.9381 128.958 79.5222C130.194 77.9108 131.096 76.0706 131.614 74.1082L131.513 74.1475C131.545 74.0263 131.581 73.9084 131.614 73.7873C129.339 74.724 126.817 73.1322 125.214 71.0983C123.611 69.0644 122.519 66.5327 120.765 64.656C120.032 63.9126 119.244 63.2261 118.407 62.6024C117.889 62.1963 117.329 61.7738 116.696 61.7541C115.673 61.7246 114.87 62.7367 113.883 63.0413C113.232 63.1898 112.554 63.165 111.916 62.9692C109.368 62.3764 106.912 61.2858 104.325 61.0041C102.935 60.8293 101.523 60.9899 100.207 61.4724C98.8958 61.9768 98.3056 62.9758 97.2565 63.7651C96.1187 64.6232 93.8531 64.6036 92.5122 64.7477C90.8865 64.9342 89.2494 65.0032 87.6137 64.954C86.6732 64.8691 85.7257 64.9043 84.794 65.0588C82.8465 65.4911 81.2825 67.0567 79.8235 68.5633C79.4235 68.9073 79.1366 69.3639 79.0005 69.8734C78.9825 70.0169 78.9825 70.1622 79.0005 70.3057C78.9855 70.6973 79.0525 71.0878 79.1973 71.452C79.6381 72.8062 80.2672 74.0917 81.0661 75.2709C81.6629 76.1356 82.3547 76.9478 82.7055 77.9697C82.8666 78.4729 82.9517 78.9972 82.958 79.5254C82.9395 80.0867 82.8815 80.646 82.7842 81.1991C82.5265 82.7241 82.1032 84.2166 81.5219 85.6501C81.2137 86.4099 80.8661 87.1665 80.7842 87.9984C80.7744 88.1642 80.7744 88.3304 80.7842 88.4962C80.6858 91.0607 83.2465 92.9112 83.735 95.4626C83.7738 95.6736 83.7979 95.887 83.8071 96.1013C83.7514 97.693 82.8563 99.2488 81.5383 99.8645C81.653 99.9104 81.7711 99.9497 81.8891 99.9922C81.7758 100.064 81.6587 100.13 81.5383 100.189C81.7776 100.28 82.0235 100.359 82.2727 100.431C80.7651 101.75 79.4992 103.322 78.5317 105.075C74.1185 113.437 44.0395 129.839 44.0395 129.839C44.0395 129.839 44.21 129.934 44.4854 130.098C44.374 130.167 44.2559 130.245 44.1248 130.334C41.5215 132.089 35.4099 137.212 40.9346 143.671C40.9346 143.671 45.2461 136.776 48.2658 133.845C48.4035 133.714 48.5347 133.593 48.6625 133.478C48.73 133.581 48.7753 133.698 48.7957 133.819C48.816 133.941 48.8108 134.066 48.7806 134.185L68.5611 122.929C68.5611 122.929 75.5907 117.944 77.5513 116.817C78.2268 116.431 79.9481 115.356 82.0071 114.881L81.7776 114.983C82.5166 114.777 83.2792 114.666 84.0465 114.655C87.5482 114.711 91.3384 117.308 92.5908 127.596C94.2663 141.371 93.4892 143.854 92.9515 144.195C92.8848 144.19 92.8189 144.177 92.7548 144.159C92.7707 144.174 92.7883 144.187 92.8072 144.198C92.7338 144.193 92.6612 144.18 92.5908 144.159C92.6286 144.194 92.675 144.22 92.7256 144.233C92.7762 144.245 92.8291 144.244 92.8794 144.231C92.9159 144.241 92.9541 144.244 92.9919 144.24C93.0296 144.235 93.0661 144.223 93.099 144.204C93.1744 144.204 93.263 144.204 93.3646 144.204C93.3646 144.329 93.3449 144.46 93.3351 144.588C93.3089 144.588 93.1777 144.663 93.3351 144.673C93.2958 145.449 93.299 146.31 93.3351 147.178C91.5941 147.277 89.8564 147.381 88.3318 147.476L88.4695 146.746L88.5318 146.418C89.8662 146.31 91.1351 145.914 91.2826 144.814C91.6105 142.403 88.3318 141.116 85.5613 140.955C82.7907 140.795 66.1086 141.922 66.1086 141.922C66.1086 141.922 63.6069 145.197 71.5382 146.215C71.7742 146.34 72.0201 146.477 72.2693 146.621C75.3743 148.416 79.5907 151.718 81.6071 153.345L81.8891 153.571L80.9842 154.302C85.9022 155.429 90.6302 174.405 93.2433 183.088C95.8564 191.77 101.581 191.449 106.322 190.165C110.765 188.957 111.332 175.892 111.384 174.251C111.384 174.14 111.384 174.084 111.384 174.084L119.283 183.946L119.883 184.696C120.116 184.817 120.342 184.932 120.565 185.04C126.549 187.925 133.158 182.397 131.276 176.108C129.378 169.754 126.427 160.364 124.46 156.395C122.821 153.07 120.686 147.552 119.394 144.086C119.562 144.018 119.725 143.939 119.883 143.851C119.883 143.851 119.853 143.697 119.801 143.412L119.883 143.369C119.883 143.369 117.981 133.363 117.876 126.259C117.876 126.135 117.876 126.011 117.876 125.886C117.876 125.762 117.876 125.732 117.876 125.654C119.306 125.326 120.211 125.195 120.211 125.195L120.237 124.887L120.07 124.923L120.863 115.707C120.863 115.707 123.781 109.422 121.549 106.801C120.869 106.032 120.415 105.09 120.237 104.08C119.863 101.669 120.237 97.657 125.44 94.3196C133.45 89.1742 136.558 84.9918 136.558 84.9918C136.558 84.9918 136.729 81.9196 131.824 80.472ZM115.916 86.8652V82.6074C117.401 82.5354 118.919 82.7089 120.411 82.6074C121.145 82.5558 121.871 82.4329 122.581 82.2406L122.942 82.4928C120.759 84.1916 118.404 85.6571 115.916 86.8652ZM93.2072 153.617C93.7941 154.03 94.3843 154.459 94.9646 154.888C95.3253 156.988 95.6433 158.471 95.6663 158.573C95.0035 156.848 94.1802 155.189 93.2072 153.617Z" fill="url(#paint1_linear_8655_153025)"/>
<path d="M106.047 150.928L105.693 152.847L105.421 154.315L104.926 157L100.125 160.357C100.125 160.357 99.6927 159.987 98.9779 159.404C97.0107 157.786 92.8762 154.492 89.8401 152.723C89.0592 152.226 88.2143 151.837 87.3286 151.567L106.047 150.928Z" fill="#FFBDC6"/>
<path opacity="0.1" d="M106.047 150.928L105.693 152.847C104.634 152.905 103.572 152.85 102.525 152.684L91.3254 152.844C90.7975 152.811 90.3024 152.772 89.8401 152.723C89.0592 152.226 88.2143 151.837 87.3286 151.567L106.047 150.928Z" fill="black"/>
<path d="M102.526 152.357C102.526 152.357 108.123 153.316 108.451 150.929C108.778 148.541 105.569 147.251 102.851 147.09C100.132 146.93 83.811 148.05 83.811 148.05C83.811 148.05 80.9323 151.885 91.3291 152.527L102.526 152.357Z" fill="#474463"/>
<path opacity="0.1" d="M106.047 150.928L105.693 152.847L105.421 154.315L104.926 157L100.125 160.357C100.125 160.357 99.6927 159.987 98.9779 159.404C97.0107 157.786 92.8762 154.492 89.8401 152.723C89.0592 152.226 88.2143 151.837 87.3286 151.567L106.047 150.928Z" fill="black"/>
<path opacity="0.1" d="M106.047 150.928L105.693 152.847C104.634 152.905 103.572 152.85 102.525 152.684L91.3254 152.844C90.7975 152.811 90.3024 152.772 89.8401 152.723C89.0592 152.226 88.2143 151.837 87.3286 151.567L106.047 150.928Z" fill="black"/>
<path opacity="0.1" d="M102.526 152.35C102.526 152.35 108.126 153.306 108.447 150.909C108.768 148.511 105.565 147.234 102.847 147.073C100.129 146.913 83.8076 148.033 83.8076 148.033C83.8076 148.033 80.9288 151.868 91.3257 152.507L102.526 152.35Z" fill="black"/>
<path d="M114.765 73.5677H85.4863V108.249H114.765V73.5677Z" fill="#474463"/>
<path opacity="0.1" d="M114.765 73.7253H85.4863V108.407H114.765V73.7253Z" fill="black"/>
<path d="M51.1711 132.938C50.6892 133.059 50.0728 133.524 49.3875 134.199C46.4367 137.117 42.2104 143.965 42.2104 143.965C36.8071 137.536 42.7875 132.456 45.335 130.711C45.9547 130.288 46.3711 130.056 46.3711 130.056L51.1711 132.938Z" fill="#FFBDC6"/>
<path d="M105.726 84.5135C105.726 84.5135 107.165 94.5815 112.126 96.979C117.086 99.3765 105.726 103.857 105.726 103.857L90.2075 98.0991C90.2075 98.0991 99.0076 95.2202 97.2469 86.7505L105.726 84.5135Z" fill="#FFBDC6"/>
<path d="M89.0863 145.085L88.7355 146.998L88.4502 148.472L87.9551 151.157L83.1551 154.511C83.1551 154.511 82.7223 154.144 82.0076 153.561C80.0403 151.943 75.9059 148.648 72.8665 146.88C72.086 146.382 71.241 145.993 70.355 145.724L89.0863 145.085Z" fill="#FFBDC6"/>
<path opacity="0.1" d="M89.0859 145.085L88.7351 146.998C87.6765 147.055 86.6148 147 85.5678 146.834L74.3677 146.994C73.8398 146.962 73.3415 146.922 72.8792 146.873C72.0986 146.375 71.2537 145.986 70.3677 145.717L89.0859 145.085Z" fill="black"/>
<path d="M85.5681 146.523C85.5681 146.523 91.1681 147.48 91.4862 145.085C91.8042 142.691 88.6075 141.407 85.8861 141.247C83.1648 141.086 66.8499 142.206 66.8499 142.206C66.8499 142.206 63.9679 146.042 74.368 146.684L85.5681 146.523Z" fill="#474463"/>
<path opacity="0.1" d="M88.45 148.472L87.9549 151.157L83.1549 154.511C83.1549 154.511 82.7221 154.144 82.0073 153.561L88.3549 148.36L88.45 148.472Z" fill="black"/>
<path d="M120.152 185.06C119.932 184.951 119.713 184.84 119.496 184.732L118.906 183.989L111.165 174.183C111.165 174.183 111.165 174.242 111.165 174.353C111.112 175.99 110.555 188.967 106.208 190.166C101.568 191.443 95.9714 191.764 93.4205 183.134C90.8697 174.504 86.2073 155.645 81.4204 154.525L88.5418 148.692C88.5418 148.692 93.2566 154.2 95.1779 159.474C95.1058 159.146 91.85 143.949 94.5222 141.26H117.883C117.883 141.26 121.49 151.521 123.962 156.604C125.886 160.551 128.775 169.882 130.634 176.197C132.477 182.433 126.008 187.938 120.152 185.06Z" fill="#474463"/>
<path opacity="0.1" d="M119.486 144.125C115.88 146.258 100.047 145.39 94.896 145.042L93.4927 144.941C93.3419 144.941 93.5157 144.856 93.5157 144.856L93.6599 143.405L97.4993 133.658L118.057 121.749C117.641 123.004 117.503 124.923 117.536 127.12C117.631 134.182 119.486 144.125 119.486 144.125Z" fill="black"/>
<path d="M119.486 143.644C115.88 145.776 100.047 144.908 94.8958 144.561L93.4926 144.463L93.2598 144.443L93.5155 144.378L94.7811 144.05L97.4991 133.183L118.057 121.278C117.64 122.532 117.503 124.452 117.535 126.649C117.63 133.704 119.486 143.644 119.486 143.644Z" fill="#F2F1F2"/>
<path opacity="0.1" d="M117.522 126.643C113.342 127.606 104.142 130.432 100.607 137.254C98.25 141.797 96.2664 143.746 94.8828 144.561L93.4795 144.463C93.4887 144.435 93.4963 144.407 93.5024 144.378L94.768 144.05L97.4861 133.183L118.044 121.278C117.631 122.526 117.49 124.445 117.522 126.643Z" fill="black"/>
<path opacity="0.1" d="M46.371 130.062L51.1711 132.937C50.6891 133.059 50.0727 133.524 49.3875 134.198C48.9875 133.032 46.476 131.405 45.335 130.71C45.9546 130.294 46.371 130.062 46.371 130.062Z" fill="black"/>
<path opacity="0.1" d="M92.625 144.65C92.5721 144.678 92.512 144.688 92.4531 144.68C92.3941 144.672 92.3391 144.645 92.2959 144.604C92.4028 144.635 92.5136 144.651 92.625 144.65Z" fill="black"/>
<path d="M103.486 96.3409C103.486 96.3409 99.1647 96.819 96.1253 93.6224C96.1253 93.6224 83.3383 97.3005 79.0071 105.61C74.676 113.919 45.2363 130.223 45.2363 130.223C45.2363 130.223 50.3577 133.099 49.8757 134.536L69.2366 123.348C69.2366 123.348 76.1219 118.396 78.0334 117.276C79.9449 116.156 90.5154 109.285 92.7548 127.983C94.9942 146.681 92.7548 144.444 92.7548 144.444C92.7548 144.444 95.9548 145.564 100.594 136.613C105.234 127.662 119.63 125.585 119.63 125.585L120.43 116.159C120.43 116.159 123.286 109.91 121.086 107.316C120.42 106.548 119.976 105.613 119.804 104.611C119.44 102.217 119.804 98.2274 124.899 94.9129C132.739 89.797 135.778 85.644 135.778 85.644C135.778 85.644 135.939 82.6046 131.139 81.1668C126.339 79.729 106.821 71.8979 106.821 71.8979L106.165 74.6164L121.565 85.4737C121.565 85.4737 113.886 91.6966 107.794 91.5459C107.794 91.5459 108.925 96.1804 103.486 96.3409Z" fill="#FF748E"/>
<path opacity="0.1" d="M106.45 88.8959C106.072 87.6148 105.776 86.3108 105.565 84.9918L97.086 87.2288C97.4598 88.8457 97.393 90.5331 96.8926 92.1154C98.626 92.5776 100.457 92.5186 102.158 91.9459C103.858 91.3733 105.351 90.3123 106.45 88.8959Z" fill="black"/>
<path d="M99.4077 91.9448C104.443 91.9448 108.526 87.8668 108.526 82.8364C108.526 77.806 104.443 73.728 99.4077 73.728C94.3719 73.728 90.2896 77.806 90.2896 82.8364C90.2896 87.8668 94.3719 91.9448 99.4077 91.9448Z" fill="#FFBDC6"/>
<path opacity="0.1" d="M104.257 62.1206C106.788 62.4055 109.191 63.4929 111.683 64.0857C112.305 64.2802 112.968 64.3062 113.604 64.1611C114.571 63.8597 115.358 62.851 116.362 62.8805C116.978 62.8805 117.526 63.3193 118.034 63.7222C118.85 64.3443 119.617 65.0275 120.329 65.7659C122.047 67.6295 123.113 70.1383 124.68 72.1657C126.247 74.193 128.719 75.7684 130.945 74.8383C129.431 80.7336 124.47 85.224 119.103 85.5908C116.962 85.7349 114.768 85.2895 112.696 85.9183C112.18 86.1281 111.635 86.2606 111.08 86.3113C109.886 86.3113 108.926 85.2174 108.181 84.153C106.437 81.6507 105.057 78.8078 103.093 76.525C102.437 75.7717 101.68 75.0544 100.762 74.9169C99.8435 74.7793 99.0008 75.2149 98.1844 75.6374C96.8369 76.335 95.4598 77.0588 94.4139 78.2576C93.368 79.4563 92.709 81.238 93.1418 82.8429C93.3746 83.7141 93.9057 84.5001 93.9156 85.4106C93.9352 86.8616 92.65 87.926 92.3975 89.3409C92.3406 89.9352 92.3198 90.5324 92.3352 91.1292C92.2237 93.0681 90.9549 94.6566 89.6303 95.8749C89.1122 96.3498 88.5417 96.8575 88.3909 97.5912C88.2893 98.089 88.3909 98.6196 88.3253 99.124C88.1319 100.382 86.8761 101.02 85.7646 101.187C84.466 101.376 83.1404 101.219 81.922 100.732C83.4761 99.9952 84.4335 97.9088 84.0728 96.0354C83.5777 93.4415 80.9679 91.5811 81.1908 88.938C81.314 88.1282 81.5571 87.3412 81.9122 86.6028C82.4813 85.1776 82.8946 83.6952 83.145 82.1813C83.3417 81.0088 83.4368 79.7674 83.0695 78.6539C82.7417 77.6353 82.0564 76.8296 81.4761 75.9715C80.6887 74.803 80.0674 73.531 79.6302 72.1919C79.4704 71.7965 79.4096 71.3682 79.4531 70.944C79.5808 70.4357 79.8611 69.9785 80.2564 69.6339C81.6826 68.1372 83.2072 66.5782 85.1187 66.1524C86.0305 65.9984 86.9584 65.9621 87.8794 66.0443C89.4812 66.0962 91.0846 66.0283 92.6762 65.8412C93.9877 65.6873 96.2041 65.7102 97.3156 64.8587C98.3517 64.0628 98.9353 63.0704 100.211 62.566C101.503 62.0911 102.892 61.9382 104.257 62.1206Z" fill="black"/>
<path opacity="0.1" d="M109.326 156.192C109.326 156.192 114.604 166.581 113.004 169.774L109.326 156.192Z" fill="black"/>
<path opacity="0.1" d="M118.896 183.975L111.165 174.182C111.165 174.182 111.165 174.241 111.165 174.352C111.165 174.352 110.719 171.182 112.191 172.246C115.418 174.578 120.578 178.401 120.69 179.059C120.801 179.717 119.644 182.347 118.896 183.975Z" fill="black"/>
<g opacity="0.1">
<path opacity="0.1" d="M107.965 91.5455C107.965 91.5455 108.62 94.2442 106.509 95.5936C109.755 95.0401 109.899 92.5149 109.788 91.4177C109.185 91.5142 108.575 91.5569 107.965 91.5455Z" fill="black"/>
<path opacity="0.1" d="M47.1708 129.58C47.1708 129.58 76.6072 113.279 80.9416 104.97C84.04 99.0061 91.5089 95.4296 95.4762 93.8837C92.5844 94.8662 82.84 98.5705 79.181 105.609C74.8629 113.918 45.4102 130.222 45.4102 130.222L47.1708 129.58Z" fill="black"/>
<path opacity="0.1" d="M113.696 90.2743C118.706 88.7186 123.493 84.8342 123.493 84.8342L108.122 73.9605L108.473 72.4736L107.001 71.884L106.362 74.6025L121.723 85.4696C119.261 87.403 116.564 89.0174 113.696 90.2743Z" fill="black"/>
<path opacity="0.1" d="M113.785 127.105C115.747 126.436 117.76 125.927 119.804 125.585L119.831 125.277C117.771 125.729 115.75 126.34 113.785 127.105Z" fill="black"/>
<path opacity="0.1" d="M95.1679 143.847H95.0269C94.9742 143.874 94.9144 143.884 94.8557 143.876C94.7971 143.868 94.7424 143.842 94.699 143.801C94.8055 143.832 94.916 143.848 95.0269 143.847C95.5515 143.543 96.3384 141.155 94.699 127.34C92.9351 112.602 85.994 113.751 82.1973 115.448C86.0793 114.38 91.4203 115.304 92.9384 127.979C94.5941 141.794 93.8039 144.181 93.2662 144.486C93.9485 144.46 94.6088 144.238 95.1679 143.847Z" fill="black"/>
<path opacity="0.1" d="M93.2675 144.489C93.1562 144.49 93.0454 144.474 92.9385 144.443C92.982 144.484 93.0369 144.51 93.0957 144.518C93.1546 144.526 93.2146 144.516 93.2675 144.489Z" fill="black"/>
</g>
<path d="M104.257 61.7997C106.788 62.088 109.191 63.1721 111.683 63.7649C112.306 63.9583 112.969 63.9832 113.604 63.8369C114.572 63.5389 115.358 62.5268 116.362 62.5563C116.978 62.576 117.526 62.9952 118.034 63.398C118.849 64.0211 119.616 64.7043 120.329 65.4418C122.047 67.3054 123.113 69.8142 124.68 71.8415C126.247 73.8689 128.719 75.4443 130.945 74.5141C129.431 80.4095 124.47 84.8998 119.103 85.2666C116.962 85.414 114.768 84.9686 112.696 85.5942C112.18 85.8055 111.635 85.938 111.08 85.9872C109.886 85.9872 108.926 84.8933 108.181 83.8288C106.437 81.3266 105.057 78.487 103.093 76.2041C102.437 75.4476 101.68 74.7303 100.762 74.5927C99.8435 74.4552 99.0009 74.894 98.1845 75.3166C96.8369 76.0142 95.4599 76.7347 94.4139 77.9367C93.368 79.1387 92.709 80.9139 93.1418 82.522C93.3746 83.3932 93.9058 84.1793 93.9156 85.0898C93.9353 86.544 92.65 87.6052 92.3975 89.02C92.3405 89.6143 92.3197 90.2115 92.3352 90.8083C92.2238 92.7472 90.9549 94.3324 89.6303 95.5541C89.1123 96.0257 88.5418 96.5367 88.3909 97.267C88.2893 97.7681 88.3909 98.2954 88.3254 98.8031C88.1319 100.061 86.8762 100.699 85.7647 100.863C84.4661 101.055 83.1397 100.898 81.922 100.408C83.4761 99.6743 84.4335 97.5847 84.0729 95.7146C83.5778 93.1206 80.9679 91.257 81.1909 88.6172C81.3135 87.8072 81.5567 87.0201 81.9122 86.282C82.4809 84.8555 82.8942 83.372 83.145 81.8571C83.3417 80.6879 83.4368 79.4466 83.0696 78.3297C82.7417 77.3144 82.0565 76.5054 81.4761 75.6473C80.6893 74.4797 80.0681 73.2088 79.6302 71.871C79.4713 71.4743 79.4106 71.0451 79.4532 70.6199C79.5846 70.1178 79.8646 69.6669 80.2564 69.3262C81.6827 67.8294 83.2073 66.2737 85.1188 65.8446C86.0309 65.6933 86.9585 65.6581 87.8795 65.7398C89.4812 65.7901 91.0845 65.7222 92.6762 65.5368C93.9877 65.3828 96.2041 65.4025 97.3156 64.5542C98.3517 63.7616 98.9353 62.7659 100.211 62.2615C101.502 61.7834 102.89 61.6249 104.257 61.7997Z" fill="#474463"/>
<path d="M164.326 169.6C174.479 169.6 182.71 161.378 182.71 151.236C182.71 141.094 174.479 132.872 164.326 132.872C154.173 132.872 145.942 141.094 145.942 151.236C145.942 161.378 154.173 169.6 164.326 169.6Z" fill="white"/>
<path d="M188.48 148.816C188.48 153.671 187.039 158.416 184.339 162.452C181.64 166.489 177.802 169.635 173.312 171.492C168.823 173.35 163.882 173.836 159.116 172.889C154.35 171.942 149.972 169.604 146.535 166.172C143.099 162.739 140.759 158.366 139.811 153.605C138.863 148.843 139.35 143.908 141.209 139.423C143.069 134.939 146.218 131.105 150.259 128.408C154.299 125.711 159.05 124.272 163.91 124.272C170.426 124.272 176.676 126.858 181.284 131.461C185.892 136.064 188.48 142.307 188.48 148.816ZM161.07 161.809L179.297 143.602C179.444 143.455 179.561 143.281 179.641 143.088C179.721 142.896 179.762 142.69 179.762 142.482C179.762 142.274 179.721 142.068 179.641 141.876C179.561 141.683 179.444 141.509 179.297 141.362L177.054 139.138C176.907 138.991 176.733 138.874 176.541 138.794C176.348 138.714 176.142 138.673 175.934 138.673C175.726 138.673 175.52 138.714 175.328 138.794C175.136 138.874 174.961 138.991 174.815 139.138L159.949 153.988L153.008 147.038C152.71 146.742 152.307 146.576 151.887 146.576C151.466 146.576 151.063 146.742 150.765 147.038L148.523 149.291C148.226 149.589 148.06 149.991 148.06 150.411C148.06 150.831 148.226 151.234 148.523 151.531L158.828 161.822C158.975 161.969 159.149 162.086 159.342 162.166C159.534 162.246 159.741 162.287 159.949 162.287C160.157 162.287 160.364 162.246 160.556 162.166C160.748 162.086 160.923 161.969 161.07 161.822V161.809Z" fill="#3AD29F"/>
</g>
<defs>
<linearGradient id="paint0_linear_8655_153025" x1="92.7155" y1="145.734" x2="92.7155" y2="145.649" gradientUnits="userSpaceOnUse">
<stop stop-color="#808080" stop-opacity="0.25"/>
<stop offset="0.54" stop-color="#808080" stop-opacity="0.12"/>
<stop offset="1" stop-color="#808080" stop-opacity="0.1"/>
</linearGradient>
<linearGradient id="paint1_linear_8655_153025" x1="35514.7" y1="79671.4" x2="35514.7" y2="28151" gradientUnits="userSpaceOnUse">
<stop stop-color="#808080" stop-opacity="0.25"/>
<stop offset="0.54" stop-color="#808080" stop-opacity="0.12"/>
<stop offset="1" stop-color="#808080" stop-opacity="0.1"/>
</linearGradient>
<clipPath id="clip0_8655_153025">
<rect width="331" height="275" fill="white"/>
</clipPath>
</defs>
</svg>
