<svg width="12" height="12" viewBox="0 0 12 12" fill="none" xmlns="http://www.w3.org/2000/svg">
<path d="M12 5.99976C12 7.59105 11.3679 9.11718 10.2426 10.2424C9.11742 11.3676 7.5913 11.9998 6 11.9998C4.4087 11.9998 2.88258 11.3676 1.75736 10.2424C0.632141 9.11718 0 7.59105 0 5.99976C0 4.40846 0.632141 2.88233 1.75736 1.75712C2.88258 0.631897 4.4087 -0.000244141 6 -0.000244141C7.5913 -0.000244141 9.11742 0.631897 10.2426 1.75712C11.3679 2.88233 12 4.40846 12 5.99976ZM5.0925 3.81951C5.03643 3.77958 4.97045 3.75586 4.90179 3.75095C4.83313 3.74603 4.76445 3.7601 4.70326 3.79163C4.64207 3.82315 4.59073 3.87091 4.55488 3.92967C4.51903 3.98843 4.50004 4.05592 4.5 4.12476V7.87476C4.50004 7.94359 4.51903 8.01108 4.55488 8.06984C4.59073 8.1286 4.64207 8.17636 4.70326 8.20788C4.76445 8.23941 4.83313 8.25348 4.90179 8.24857C4.97045 8.24365 5.03643 8.21993 5.0925 8.18001L7.7175 6.30501C7.76611 6.27032 7.80574 6.22452 7.83307 6.17142C7.86041 6.11833 7.87468 6.05948 7.87468 5.99976C7.87468 5.94004 7.86041 5.88118 7.83307 5.82809C7.80574 5.77499 7.76611 5.72919 7.7175 5.69451L5.0925 3.81951Z" fill="#26AB5F"/>
</svg>
