<svg width="16" height="16" viewBox="0 0 16 16" fill="none" xmlns="http://www.w3.org/2000/svg">
<path d="M1.59961 2.4C1.59961 2.18783 1.68389 1.98434 1.83392 1.83431C1.98395 1.68428 2.18744 1.6 2.39961 1.6H4.12201C4.31137 1.60009 4.49457 1.66734 4.639 1.78981C4.78344 1.91227 4.87975 2.082 4.91081 2.2688L5.50281 5.8168C5.5311 5.98577 5.50439 6.15936 5.42662 6.31202C5.34885 6.46468 5.22413 6.58834 5.07081 6.6648L3.83241 7.2832C4.2765 8.38372 4.93788 9.38342 5.77703 10.2226C6.61618 11.0617 7.61589 11.7231 8.71641 12.1672L9.33561 10.9288C9.41203 10.7756 9.53556 10.651 9.68805 10.5732C9.84054 10.4955 10.014 10.4687 10.1828 10.4968L13.7308 11.0888C13.9176 11.1199 14.0873 11.2162 14.2098 11.3606C14.3323 11.505 14.3995 11.6882 14.3996 11.8776V13.6C14.3996 13.8122 14.3153 14.0157 14.1653 14.1657C14.0153 14.3157 13.8118 14.4 13.5996 14.4H11.9996C6.25561 14.4 1.59961 9.744 1.59961 4V2.4Z" fill="#75767E"/>
</svg>
