<svg width="22" height="22" viewBox="0 0 22 22" fill="none" xmlns="http://www.w3.org/2000/svg">
<path fill-rule="evenodd" clip-rule="evenodd" d="M10.9992 19.7999C13.3331 19.7999 15.5714 18.8728 17.2218 17.2225C18.8721 15.5722 19.7992 13.3339 19.7992 11C19.7992 8.66605 18.8721 6.42773 17.2218 4.77741C15.5714 3.12709 13.3331 2.19995 10.9992 2.19995C8.66531 2.19995 6.427 3.12709 4.77668 4.77741C3.12636 6.42773 2.19922 8.66605 2.19922 11C2.19922 13.3339 3.12636 15.5722 4.77668 17.2225C6.427 18.8728 8.66531 19.7999 10.9992 19.7999ZM10.5097 7.88475C10.3441 7.77422 10.1515 7.71074 9.95259 7.70108C9.75367 7.69142 9.55587 7.73594 9.38028 7.82989C9.20468 7.92384 9.05789 8.0637 8.95556 8.23454C8.85322 8.40538 8.79919 8.6008 8.79922 8.79995V13.2C8.79919 13.3991 8.85322 13.5945 8.95556 13.7654C9.05789 13.9362 9.20468 14.0761 9.38028 14.17C9.55587 14.264 9.75367 14.3085 9.95259 14.2988C10.1515 14.2892 10.3441 14.2257 10.5097 14.1151L13.8097 11.9151C13.9604 11.8147 14.0839 11.6786 14.1693 11.519C14.2548 11.3593 14.2995 11.181 14.2995 11C14.2995 10.8189 14.2548 10.6406 14.1693 10.481C14.0839 10.3213 13.9604 10.1852 13.8097 10.0848L10.5097 7.88475Z" fill="#75767E"/>
</svg>
