<svg width="200" height="200" viewBox="0 0 200 200" fill="none" xmlns="http://www.w3.org/2000/svg">
<path d="M150 150C177.614 122.386 177.614 77.6142 150 50C122.386 22.3858 77.6142 22.3858 50 50C22.3858 77.6142 22.3858 122.386 50 150C77.6142 177.614 122.386 177.614 150 150Z" fill="#FFD05D"/>
<path d="M136.989 39.6531C144.032 50.6447 148.113 63.7185 148.113 77.738C148.113 116.785 116.458 148.449 77.402 148.449C63.8388 148.449 51.1715 144.625 40.4121 138.005C52.9799 157.624 74.9714 170.623 99.9991 170.623C139.046 170.623 170.71 138.968 170.71 99.912C170.702 74.4281 157.214 52.0964 136.989 39.6531Z" fill="#FDC453"/>
<path d="M38.8949 107.461C38.8949 71.2009 68.286 41.8097 104.546 41.8097C125.741 41.8097 144.58 51.8557 156.584 67.443C145.252 47.7577 123.999 34.5096 99.6599 34.5096C63.4 34.5096 34.0088 63.9008 34.0088 100.161C34.0088 115.225 39.0857 129.104 47.6218 140.178C42.0721 130.547 38.8949 119.373 38.8949 107.461Z" fill="#FFD77F"/>
<path d="M79.1536 82.848C79.1536 87.7009 76.8225 91.633 73.944 91.633C71.0654 91.633 68.7344 87.7009 68.7344 82.848C68.7344 77.9951 71.0654 74.063 73.944 74.063C76.8225 74.063 79.1536 77.9951 79.1536 82.848Z" fill="#303030"/>
<path d="M131.257 82.848C131.257 87.7009 128.926 91.633 126.048 91.633C123.169 91.633 120.838 87.7009 120.838 82.848C120.838 77.9951 123.169 74.063 126.048 74.063C128.926 74.063 131.257 77.9951 131.257 82.848Z" fill="#303030"/>
<path d="M52.4824 106.689C55.1785 130.547 75.4114 149.096 99.9911 149.096C124.571 149.096 144.812 130.547 147.5 106.689H52.4824Z" fill="#695342"/>
<path d="M67.1738 136.039C75.7348 144.127 87.2823 149.096 99.9911 149.096C112.152 149.096 123.252 144.55 131.688 137.068L131.249 136.039C99.3523 120.485 67.6135 135.823 67.1738 136.039Z" fill="#F06669"/>
</svg>
