<svg width="200" height="200" viewBox="0 0 200 200" fill="none" xmlns="http://www.w3.org/2000/svg">
<path d="M150 150C177.614 122.386 177.614 77.6142 150 50C122.386 22.3858 77.6142 22.3858 50 50C22.3858 77.6142 22.3858 122.386 50 150C77.6142 177.614 122.386 177.614 150 150Z" fill="#FFD05D"/>
<path d="M136.993 39.651C144.036 50.6426 148.117 63.7164 148.117 77.7359C148.117 116.783 116.461 148.447 77.4059 148.447C63.8426 148.447 51.1754 144.623 40.416 138.003C52.9838 157.622 74.9753 170.621 100.003 170.621C139.05 170.621 170.714 138.965 170.714 99.9099C170.706 74.426 157.217 52.0943 136.993 39.651Z" fill="#FDC453"/>
<path d="M38.8968 107.459C38.8968 71.1991 68.288 41.8079 104.548 41.8079C125.743 41.8079 144.582 51.8538 156.586 67.4412C145.246 47.7641 124.001 34.5161 99.6618 34.5161C63.4019 34.5161 34.0107 63.9073 34.0107 100.167C34.0107 115.232 39.0876 129.11 47.6238 140.185C42.074 130.546 38.8968 119.371 38.8968 107.459Z" fill="#FFD77F"/>
<path d="M79.1556 82.8459C79.1556 87.6988 76.8245 91.6309 73.9459 91.6309C71.0674 91.6309 68.7363 87.6988 68.7363 82.8459C68.7363 77.993 71.0674 74.0609 73.9459 74.0609C76.8245 74.0609 79.1556 77.993 79.1556 82.8459Z" fill="#303030"/>
<path d="M131.26 82.8458C131.26 87.6987 128.929 91.6308 126.05 91.6308C123.172 91.6308 120.841 87.6987 120.841 82.8458C120.841 77.9929 123.172 74.0608 126.05 74.0608C128.929 74.0608 131.26 77.9929 131.26 82.8458Z" fill="#303030"/>
<path d="M141.763 68.0216C140.999 67.7976 140.261 67.5902 139.539 67.3911C137.947 66.9431 136.453 66.5283 135.002 66.0223C132.837 65.2923 130.887 64.4628 129.045 63.4922C127.104 62.4635 125.346 61.327 123.662 59.9997C121.82 58.5729 120.111 56.8972 118.535 55.3045C118.444 55.2132 118.311 55.1883 118.195 55.2381C118.079 55.2879 118.004 55.404 118.012 55.5367C118.128 57.9507 119.082 60.4477 120.775 62.7539C122.318 64.8444 124.392 66.603 126.756 67.8391C128.987 69.0087 131.476 69.7304 133.981 69.9129C134.081 69.9212 134.172 69.9295 134.272 69.9295C137.084 70.0789 139.614 69.6226 141.812 68.5939C141.928 68.5359 141.995 68.4197 141.987 68.2953C141.978 68.1626 141.887 68.0547 141.763 68.0216Z" fill="#414042"/>
<path d="M58.2344 68.0217C58.9976 67.7977 59.7359 67.5903 60.4577 67.3912C62.0504 66.9433 63.5436 66.5285 64.9953 66.0224C67.1605 65.2924 69.1099 64.4629 70.9515 63.4923C72.8927 62.4636 74.6514 61.3272 76.3354 59.9999C78.177 58.573 79.8858 56.8973 81.462 55.3046C81.5533 55.2133 81.686 55.1884 81.8021 55.2382C81.9183 55.288 81.9929 55.4041 81.9846 55.5369C81.8685 57.9509 80.9145 60.4478 79.2222 62.754C77.6792 64.8445 75.6053 66.6031 73.2411 67.8392C71.0096 69.0088 68.5209 69.7306 66.0157 69.9131C65.9161 69.9214 65.8249 69.9297 65.7253 69.9297C62.9131 70.079 60.383 69.6227 58.1847 68.5941C58.0685 68.536 58.0022 68.4199 58.0105 68.2954C58.0188 68.1627 58.11 68.0549 58.2344 68.0217Z" fill="#414042"/>
<path d="M114.926 110.719C110.903 107.235 105.453 105.269 99.9943 105.368C94.6271 105.385 89.2266 107.351 85.1618 110.744C83.1128 112.478 81.3956 114.593 80.201 116.883C78.9401 119.363 78.2848 121.868 78.2599 124.315C78.2516 124.904 78.6249 125.427 79.1724 125.618C79.7282 125.809 80.3421 125.626 80.6988 125.162C82.1588 123.27 83.5525 121.76 84.9378 120.566C86.431 119.297 88.0155 118.243 89.6497 117.422C92.9098 115.796 96.5019 114.925 100.052 114.908C103.694 114.883 107.145 115.696 110.331 117.355C113.607 119.031 116.619 121.661 119.273 125.153C119.539 125.502 119.945 125.692 120.36 125.692C120.509 125.692 120.658 125.668 120.808 125.618C121.364 125.427 121.737 124.896 121.729 124.307C121.654 119.388 119.107 114.303 114.926 110.719Z" fill="#5E4939"/>
<path d="M132.28 96.1769C111.334 120.134 113.657 133.872 113.657 133.872C113.657 144.158 121.994 152.495 132.28 152.495C142.567 152.495 150.904 144.158 150.904 133.872C150.904 133.872 153.226 120.134 132.28 96.1769Z" fill="#7CC4E8"/>
<path d="M118.436 146.324C121.845 150.106 126.781 152.496 132.281 152.496C142.567 152.496 150.904 144.159 150.904 133.872C150.904 133.872 151.875 128.098 146.856 117.513C143.148 141.645 127.984 146.042 118.436 146.324Z" fill="#62BBE8"/>
</svg>
