<svg width="200" height="200" viewBox="0 0 200 200" fill="none" xmlns="http://www.w3.org/2000/svg">
<path d="M150 150C177.614 122.386 177.614 77.6142 150 50C122.386 22.3858 77.6142 22.3858 50 50C22.3858 77.6142 22.3858 122.386 50 150C77.6142 177.614 122.386 177.614 150 150Z" fill="#FFD05D"/>
<path d="M136.992 39.6538C144.035 50.6454 148.116 63.7192 148.116 77.7387C148.116 116.786 116.46 148.45 77.4049 148.45C63.8417 148.45 51.1744 144.626 40.415 138.006C52.9828 157.625 74.9743 170.624 100.002 170.624C139.049 170.624 170.713 138.968 170.713 99.9128C170.705 74.4288 157.217 52.0971 136.992 39.6538Z" fill="#FDC453"/>
<path d="M38.8968 107.462C38.8968 71.2016 68.288 41.8105 104.548 41.8105C125.743 41.8105 144.582 51.8564 156.586 67.4438C145.246 47.7667 124.001 34.5187 99.6618 34.5187C63.4019 34.5187 34.0107 63.9099 34.0107 100.17C34.0107 115.234 39.0876 129.113 47.6238 140.188C42.074 130.548 38.8968 119.374 38.8968 107.462Z" fill="#FFD77F"/>
<path d="M79.1546 82.8488C79.1546 87.7017 76.8235 91.6338 73.945 91.6338C71.0664 91.6338 68.7354 87.7017 68.7354 82.8488C68.7354 77.9959 71.0664 74.0638 73.945 74.0638C76.8235 74.0638 79.1546 77.9959 79.1546 82.8488Z" fill="#303030"/>
<path d="M131.259 82.849C131.259 87.7019 128.928 91.634 126.049 91.634C123.171 91.634 120.84 87.7019 120.84 82.849C120.84 77.9961 123.171 74.064 126.049 74.064C128.928 74.064 131.259 77.9961 131.259 82.849Z" fill="#303030"/>
<path d="M100.002 141.482C107.053 141.482 112.769 131.792 112.769 119.839C112.769 107.885 107.053 98.1954 100.002 98.1954C92.9513 98.1954 87.2354 107.885 87.2354 119.839C87.2354 131.792 92.9513 141.482 100.002 141.482Z" fill="#695342"/>
<path d="M110.778 131.444C101.462 126.326 93.8796 129.229 89.4912 132.133C91.7974 137.782 95.6382 141.49 100.002 141.49C104.531 141.482 108.513 137.475 110.778 131.444Z" fill="#F06669"/>
</svg>
