<svg width="22" height="22" viewBox="0 0 22 22" fill="none" xmlns="http://www.w3.org/2000/svg">
<path d="M16.2378 3.80093C18.5294 5.43783 20.0208 8.11508 20.0208 11.1452C20.0208 16.1214 15.9904 20.1554 11.0179 20.1663C6.05259 20.1772 1.9858 16.1286 1.97852 11.1597C1.97488 8.12963 3.46628 5.44511 5.75431 3.80457C6.17991 3.50265 6.77283 3.62996 7.02746 4.08466L7.60219 5.10681C7.81681 5.48876 7.71496 5.97255 7.36211 6.23446C5.85253 7.35483 4.88857 9.12996 4.88857 11.1415C4.88493 14.499 7.59856 17.2563 10.9997 17.2563C14.3317 17.2563 17.1326 14.5572 17.1108 11.1052C17.0999 9.2209 16.2123 7.40212 14.6336 6.23082C14.2808 5.96892 14.1825 5.48512 14.3972 5.10681L14.9719 4.08466C15.2265 3.6336 15.8158 3.49901 16.2378 3.80093ZM12.4547 11.4362V2.70602C12.4547 2.22223 12.0655 1.83301 11.5817 1.83301H10.4177C9.93387 1.83301 9.54465 2.22223 9.54465 2.70602V11.4362C9.54465 11.92 9.93387 12.3092 10.4177 12.3092H11.5817C12.0655 12.3092 12.4547 11.92 12.4547 11.4362Z" fill="#75767E"/>
</svg>
