<svg width="22" height="22" viewBox="0 0 22 22" fill="none" xmlns="http://www.w3.org/2000/svg">
<path fill-rule="evenodd" clip-rule="evenodd" d="M19.7992 11.0002C19.7992 13.3341 18.8721 15.5724 17.2218 17.2227C15.5714 18.8731 13.3331 19.8002 10.9992 19.8002C8.66531 19.8002 6.427 18.8731 4.77668 17.2227C3.12636 15.5724 2.19922 13.3341 2.19922 11.0002C2.19922 8.66629 3.12636 6.42798 4.77668 4.77766C6.427 3.12734 8.66531 2.2002 10.9992 2.2002C13.3331 2.2002 15.5714 3.12734 17.2218 4.77766C18.8721 6.42798 19.7992 8.66629 19.7992 11.0002V11.0002ZM10.9992 7.70019C10.8059 7.70001 10.616 7.75074 10.4486 7.8473C10.2812 7.94385 10.1422 8.08282 10.0455 8.25019C9.97574 8.37986 9.88064 8.49419 9.76586 8.58642C9.65107 8.67865 9.51894 8.74689 9.37729 8.78711C9.23564 8.82732 9.08736 8.83869 8.94123 8.82053C8.79511 8.80237 8.65412 8.75506 8.52662 8.68141C8.39912 8.60775 8.28771 8.50924 8.19898 8.39173C8.11026 8.27422 8.04603 8.14008 8.01011 7.99729C7.97419 7.85449 7.9673 7.70593 7.98985 7.56042C8.01241 7.41491 8.06395 7.27542 8.14142 7.15019C8.50466 6.52112 9.06532 6.02947 9.73645 5.7515C10.4076 5.47353 11.1517 5.42478 11.8533 5.61279C12.555 5.8008 13.175 6.21508 13.6172 6.79137C14.0595 7.36767 14.2992 8.07378 14.2992 8.80019C14.2994 9.48287 14.088 10.1488 13.694 10.7063C13.3 11.2638 12.7428 11.6855 12.0992 11.9132V12.1002C12.0992 12.3919 11.9833 12.6717 11.777 12.878C11.5707 13.0843 11.291 13.2002 10.9992 13.2002C10.7075 13.2002 10.4277 13.0843 10.2214 12.878C10.0151 12.6717 9.89922 12.3919 9.89922 12.1002V11.0002C9.89922 10.7085 10.0151 10.4287 10.2214 10.2224C10.4277 10.0161 10.7075 9.90019 10.9992 9.90019C11.291 9.90019 11.5707 9.7843 11.777 9.57801C11.9833 9.37172 12.0992 9.09193 12.0992 8.80019C12.0992 8.50846 11.9833 8.22867 11.777 8.02238C11.5707 7.81609 11.291 7.70019 10.9992 7.70019ZM10.9992 16.5002C11.291 16.5002 11.5707 16.3843 11.777 16.178C11.9833 15.9717 12.0992 15.6919 12.0992 15.4002C12.0992 15.1085 11.9833 14.8287 11.777 14.6224C11.5707 14.4161 11.291 14.3002 10.9992 14.3002C10.7075 14.3002 10.4277 14.4161 10.2214 14.6224C10.0151 14.8287 9.89922 15.1085 9.89922 15.4002C9.89922 15.6919 10.0151 15.9717 10.2214 16.178C10.4277 16.3843 10.7075 16.5002 10.9992 16.5002V16.5002Z" fill="#75767E"/>
</svg>
