<svg width="22" height="22" viewBox="0 0 22 22" fill="none" xmlns="http://www.w3.org/2000/svg">
<path d="M9.90039 9.9002C9.90039 9.31672 10.1322 8.75714 10.5448 8.34456C10.9573 7.93198 11.5169 7.7002 12.1004 7.7002C12.6839 7.7002 13.2434 7.93198 13.656 8.34456C14.0686 8.75714 14.3004 9.31672 14.3004 9.9002C14.3004 10.4837 14.0686 11.0433 13.656 11.4558C13.2434 11.8684 12.6839 12.1002 12.1004 12.1002C11.5169 12.1002 10.9573 11.8684 10.5448 11.4558C10.1322 11.0433 9.90039 10.4837 9.90039 9.9002Z" fill="#75767E"/>
<path fill-rule="evenodd" clip-rule="evenodd" d="M10.9992 19.8002C13.3331 19.8002 15.5714 18.8731 17.2218 17.2227C18.8721 15.5724 19.7992 13.3341 19.7992 11.0002C19.7992 8.66629 18.8721 6.42798 17.2218 4.77766C15.5714 3.12734 13.3331 2.2002 10.9992 2.2002C8.66531 2.2002 6.427 3.12734 4.77668 4.77766C3.12636 6.42798 2.19922 8.66629 2.19922 11.0002C2.19922 13.3341 3.12636 15.5724 4.77668 17.2227C6.427 18.8731 8.66531 19.8002 10.9992 19.8002ZM12.0992 5.5002C11.3233 5.50008 10.5612 5.70513 9.89018 6.09455C9.21911 6.48397 8.66295 7.04391 8.27809 7.71759C7.89322 8.39128 7.69333 9.15475 7.69869 9.9306C7.70406 10.7065 7.91448 11.4671 8.30862 12.1354L5.82152 14.6214C5.61511 14.8277 5.4991 15.1075 5.499 15.3993C5.49894 15.5437 5.52735 15.6868 5.5826 15.8203C5.63784 15.9538 5.71884 16.0751 5.82097 16.1773C5.9231 16.2795 6.04436 16.3606 6.17782 16.416C6.31129 16.4713 6.45435 16.4998 6.59883 16.4999C6.89063 16.5 7.17051 16.3842 7.37692 16.1779L9.86402 13.6908C10.4468 14.0343 11.101 14.2388 11.7758 14.2884C12.4505 14.3379 13.1275 14.2313 13.7543 13.9766C14.3811 13.722 14.9407 13.3262 15.3896 12.8201C15.8386 12.314 16.1648 11.7112 16.3429 11.0586C16.521 10.4059 16.5462 9.72098 16.4166 9.05699C16.287 8.393 16.0059 7.76785 15.5954 7.23012C15.1849 6.6924 14.6558 6.25659 14.0495 5.95656C13.4431 5.65653 12.7757 5.50036 12.0992 5.5002Z" fill="#75767E"/>
</svg>
