<svg width="80" height="80" viewBox="0 0 80 80" fill="none" xmlns="http://www.w3.org/2000/svg">
<rect width="80" height="80" rx="40" fill="#BE5FAC"/>
<g filter="url(#filter0_d)">
<path opacity="0.3" d="M59.0586 59.9609C59.0586 60.4754 58.639 60.895 58.1245 60.895H16.312C15.7976 60.895 15.3779 60.4754 15.3779 59.9609C15.3779 59.4465 15.7976 59.0269 16.312 59.0269H58.1245C58.639 59.0269 59.0586 59.4465 59.0586 59.9609Z" fill="#333333"/>
<path opacity="0.3" d="M36.6 62.9121C36.6 63.4265 36.1803 63.8462 35.6659 63.8462H15.5493C15.0349 63.8462 14.6152 63.4265 14.6152 62.9121C14.6152 62.3977 15.0349 61.978 15.5493 61.978H35.6659C36.1848 61.978 36.6 62.3977 36.6 62.9121Z" fill="#333333"/>
<path opacity="0.3" d="M60.5879 62.0229C60.5879 62.5374 60.1683 62.957 59.6538 62.957H46.4819C45.9675 62.957 45.5479 62.5374 45.5479 62.0229C45.5479 61.5085 45.9675 61.0889 46.4819 61.0889H59.6493C60.1683 61.0889 60.5879 61.5085 60.5879 62.0229Z" fill="#333333"/>
<path d="M51.1525 16.1538C43.2647 16.1538 36.875 22.548 36.875 30.4313C36.875 38.3145 43.2692 44.7087 51.1525 44.7087C59.0403 44.7087 65.4299 38.3145 65.4299 30.4313C65.4299 22.548 59.0403 16.1538 51.1525 16.1538ZM55.0964 30.0658C55.0828 28.0622 54.9565 26.1625 54.7354 24.4477H58.6477C59.1937 26.1444 59.5095 28.0487 59.5456 30.0658H55.0964ZM51.1525 43.5129C50.9674 43.5129 50.1101 42.9353 49.3204 40.097C49.1264 39.3975 48.9549 38.6349 48.8105 37.8182H53.4989C53.3545 38.6304 53.1831 39.3975 52.989 40.097C52.1948 42.9353 51.342 43.5129 51.1525 43.5129ZM48.639 36.7532C48.3863 35.0295 48.2419 33.1252 48.2103 31.1352H54.0991C54.0675 33.1252 53.9231 35.0295 53.6704 36.7532H48.639ZM48.2058 30.0658C48.2194 28.0893 48.3412 26.1805 48.5713 24.4477H53.7381C53.9682 26.1805 54.0901 28.0893 54.1036 30.0658H48.2058ZM51.1525 17.2142C51.3375 17.2142 52.1948 17.7918 52.9845 20.6302C53.2147 21.4605 53.4132 22.3855 53.5757 23.3738H48.7247C48.8872 22.381 49.0857 21.4605 49.3159 20.6302C50.1146 17.7918 50.9674 17.2142 51.1525 17.2142ZM54.5864 23.3738C54.1668 20.7204 53.5125 18.6041 52.7228 17.3812C55.0512 18.0806 57.0457 20.3053 58.2686 23.3738H54.5864ZM49.5866 17.3812C48.8015 18.6041 48.1472 20.7204 47.723 23.3738H44.0408C45.2637 20.3053 47.2537 18.0806 49.5866 17.3812ZM47.5696 24.4477C47.3484 26.1625 47.2221 28.0622 47.2086 30.0658H42.7593C42.7954 28.0487 43.1157 26.1444 43.6572 24.4477H47.5696ZM41.7665 30.0658H37.8813C37.9354 28.0487 38.4408 26.1444 39.3027 24.4477H42.6239C42.1004 26.1625 41.7981 28.0622 41.7665 30.0658ZM41.771 31.1352C41.8342 33.1433 42.1726 35.0475 42.7277 36.7532H39.4697C38.5536 35.0656 37.9941 33.1613 37.8858 31.1352H41.771ZM42.7683 31.1352H47.2176C47.2492 33.1478 47.3981 35.0475 47.6372 36.7532H43.7701C43.1879 35.0656 42.8315 33.1568 42.7683 31.1352ZM47.7997 37.8227C48.2419 40.3767 48.9052 42.3893 49.6949 43.5129C47.4026 42.8766 45.4261 40.7693 44.1762 37.8227H47.7997ZM52.61 43.5129C53.3997 42.3893 54.063 40.3767 54.5052 37.8227H58.1287C56.8788 40.7648 54.9023 42.8766 52.61 43.5129ZM54.6767 36.7532C54.9159 35.0475 55.0648 33.1478 55.0964 31.1352H59.5456C59.478 33.1613 59.1215 35.0656 58.5439 36.7532H54.6767ZM60.5384 31.1352H64.4191C64.3153 33.1613 63.7513 35.0656 62.8352 36.7532H59.5772C60.1368 35.043 60.4752 33.1433 60.5384 31.1352ZM60.5429 30.0658C60.5113 28.0622 60.2045 26.1625 59.6855 24.4477H63.0067C63.8686 26.1444 64.374 28.0487 64.4281 30.0658H60.5429ZM62.402 23.3738H59.32C58.4717 21.1085 57.2262 19.2313 55.7281 17.9588C58.5078 18.9831 60.8452 20.9054 62.402 23.3738ZM46.5813 17.9588C45.0832 19.2313 43.8377 21.1085 42.9894 23.3738H39.9074C41.4642 20.9054 43.8016 18.9831 46.5813 17.9588ZM40.124 37.8227H43.1158C43.9596 39.939 45.1554 41.6944 46.5813 42.9037C43.928 41.929 41.6718 40.1331 40.124 37.8227ZM55.7281 42.9037C57.154 41.6944 58.3498 39.939 59.1937 37.8227H62.1854C60.6377 40.1331 58.3814 41.929 55.7281 42.9037Z" fill="#F5BB11"/>
<path d="M55.6162 59.6234C56.4961 59.6234 57.2091 58.9104 57.2091 58.0305V32.7697C57.2091 31.8897 56.4961 31.1768 55.6162 31.1768H19.3585C18.4786 31.1768 17.7656 31.8897 17.7656 32.7697V58.0305C17.7656 58.9104 18.4786 59.6234 19.3585 59.6234H55.6162Z" fill="#EFEFEF"/>
<path d="M18.6455 45.3986C18.6455 44.9293 18.9839 44.5503 19.3991 44.5503C19.8142 44.5503 20.1527 44.9293 20.1527 45.3986C20.1527 45.8679 19.8142 46.247 19.3991 46.247C18.9839 46.247 18.6455 45.8634 18.6455 45.3986Z" fill="#C5C6C8"/>
<path d="M53.8367 33.5039H20.9814V57.4696H53.8367V33.5039Z" fill="#546B8E"/>
<g opacity="0.3">
<g opacity="0.3">
<path opacity="0.3" d="M35.1702 31.1714H19.3585C18.4786 31.1714 17.7656 31.8844 17.7656 32.7643V48.576L35.1702 31.1714Z" fill="#F3A33E"/>
<path opacity="0.3" d="M42.6741 31.1714C34.3711 39.4743 26.0637 47.7818 17.7607 56.0847V58.0251C17.7607 58.905 18.4737 59.618 19.3536 59.618H23.4103C32.891 50.1373 42.3763 40.6521 51.857 31.1714H42.6741Z" fill="#F3A33E"/>
</g>
</g>
<path d="M59.8479 60.255C59.8479 61.2072 59.0763 61.9788 58.1242 61.9788H47.6056C46.6535 61.9788 45.8818 61.2072 45.8818 60.255V36.2848C45.8818 35.3327 46.6535 34.561 47.6056 34.561H58.1242C59.0763 34.561 59.8479 35.3327 59.8479 36.2848V60.255Z" fill="#333333"/>
<path d="M59.1617 37.9854H46.5674V58.287H59.1617V37.9854Z" fill="#F7BB16"/>
<path d="M54.4193 60.1417C54.4193 60.6697 53.9906 61.0983 53.4626 61.0983H52.2623C51.7343 61.0983 51.3057 60.6697 51.3057 60.1417C51.3057 59.6137 51.7343 59.1851 52.2623 59.1851H53.4626C53.9906 59.1851 54.4193 59.6137 54.4193 60.1417Z" fill="#4D4D4D"/>
<path opacity="0.2" d="M45.8818 42.8767V36.2839C45.8818 35.3318 46.6535 34.5602 47.6056 34.5602H54.1983L45.8818 42.8767ZM59.8479 38.6981V36.2794C59.8479 35.3273 59.0763 34.5557 58.1242 34.5557H57.5195L45.8818 46.1933V52.6642C50.5342 48.0073 55.1911 43.355 59.8479 38.6981Z" fill="#F3A33E"/>
<path d="M61.1301 39.7544H50.8778C49.4789 39.7544 48.3418 40.887 48.3418 42.2904V46.5321C48.3418 47.931 49.4744 49.0681 50.8778 49.0681H50.9635V51.3966L54.2441 49.0681H61.1301C62.529 49.0681 63.6661 47.9355 63.6661 46.5321V42.2904C63.6616 40.887 62.529 39.7544 61.1301 39.7544Z" fill="#F3A33E"/>
<path d="M53.4088 44.5823C53.4088 45.2773 52.8448 45.8458 52.1453 45.8458C51.4504 45.8458 50.8818 45.2818 50.8818 44.5823C50.8818 43.8874 51.4459 43.3188 52.1453 43.3188C52.8448 43.3188 53.4088 43.8829 53.4088 44.5823Z" fill="#333333"/>
<path d="M56.6979 44.5823C56.6979 45.2773 56.1338 45.8458 55.4344 45.8458C54.7395 45.8458 54.1709 45.2818 54.1709 44.5823C54.1709 43.8874 54.735 43.3188 55.4344 43.3188C56.1293 43.3188 56.6979 43.8829 56.6979 44.5823Z" fill="#333333"/>
<path d="M59.9879 44.5823C59.9879 45.2773 59.4239 45.8458 58.7244 45.8458C58.0295 45.8458 57.4609 45.2818 57.4609 44.5823C57.4609 43.8874 58.025 43.3188 58.7244 43.3188C59.4194 43.3188 59.9879 43.8829 59.9879 44.5823Z" fill="#333333"/>
<path d="M33.5179 41.1076H20.1294C17.1737 41.1076 14.7686 38.7024 14.7686 35.7468V27.4258C14.7686 24.4701 17.1737 22.0649 20.1294 22.0649H40.2414C43.1971 22.0649 45.6022 24.4701 45.6022 27.4258V35.7468C45.6022 38.6257 43.3189 40.9857 40.4671 41.1031V46.0397L33.5179 41.1076Z" fill="#F3A33E"/>
<path d="M20.1294 22.458H40.2414C42.985 22.458 45.2097 24.6827 45.2097 27.4262V35.7472C45.2097 38.4908 42.985 40.7155 40.2414 40.7155H40.0745V45.2821L33.6352 40.7155H20.1294C17.3858 40.7155 15.1611 38.4908 15.1611 35.7472V27.4262C15.1611 24.6827 17.3858 22.458 20.1294 22.458Z" fill="#EB5052"/>
<path d="M38.4827 27.3447C38.4827 27.8727 38.0541 28.2968 37.5306 28.2968H22.1972C21.6693 28.2968 21.2451 27.8682 21.2451 27.3447C21.2451 26.8168 21.6738 26.3926 22.1972 26.3926H37.5306C38.0541 26.3926 38.4827 26.8168 38.4827 27.3447Z" fill="#F3A33E"/>
<path d="M38.4818 30.9819C38.4818 31.5099 38.0531 31.934 37.5296 31.934H22.1963C21.6683 31.934 21.2441 31.5054 21.2441 30.9819C21.2441 30.454 21.6728 30.0298 22.1963 30.0298H37.5296C38.0531 30.0298 38.4818 30.4585 38.4818 30.9819Z" fill="#F3A33E"/>
<path d="M38.4818 34.6235C38.4818 35.1515 38.0531 35.5757 37.5296 35.5757H22.1963C21.6683 35.5757 21.2441 35.147 21.2441 34.6235C21.2441 34.0956 21.6728 33.6714 22.1963 33.6714H37.5296C38.0531 33.6714 38.4818 34.0956 38.4818 34.6235Z" fill="#F3A33E"/>
<path d="M43.9921 47.2085H24.3584V48.675H43.9921V47.2085Z" fill="#F3A33E"/>
<path d="M39.1051 50.4307H24.3584V51.8972H39.1051V50.4307Z" fill="#F3A33E"/>
<path d="M39.1051 53.8462H24.3584V55.3127H39.1051V53.8462Z" fill="#F3A33E"/>
<path d="M41.1299 50.6199C41.5676 50.0829 42.082 49.749 42.8446 49.749C43.7652 49.749 44.4105 50.3537 44.4105 51.0983C44.4105 52.5061 42.7769 52.5422 42.7769 53.8012V54.266H42.1317C42.073 54.0855 42.0504 53.8418 42.0504 53.6523C42.0504 52.2444 43.6072 52.1271 43.6072 51.1569C43.6072 50.7688 43.2823 50.4259 42.7769 50.4259C42.3212 50.4259 41.9647 50.656 41.6669 51.0486L41.1299 50.6199ZM42.4972 54.97C42.786 54.97 43.0522 55.2272 43.0522 55.525C43.0522 55.8544 42.8221 56.08 42.4972 56.08C42.1993 56.08 41.9421 55.8228 41.9421 55.525C41.9421 55.1866 42.1497 54.97 42.4972 54.97Z" fill="#F3A33E"/>
<path d="M61.9017 33.2425C62.3801 33.2425 62.8133 33.6667 62.8133 34.1541C62.8133 34.7001 62.4297 35.0656 61.9017 35.0656C61.4099 35.0656 60.9902 34.6414 60.9902 34.1541C60.9902 33.5945 61.3287 33.2425 61.9017 33.2425ZM61.2068 24.9712H62.5696V28.3646L62.3936 32.0828H61.3873L61.2113 28.3646V24.9712H61.2068Z" fill="#F3A33E"/>
<path d="M17.9632 62.5961C15.9912 62.2892 17.6157 58.6206 20.8376 57.6324C22.4621 57.136 29.1541 56.3418 35.801 56.3418C36.6448 56.3418 36.717 57.4428 35.8551 57.4428C35.5257 57.4428 31.1215 57.0096 22.0695 57.7903C17.7601 58.1648 18.5859 62.6954 17.9632 62.5961Z" fill="#C03413"/>
<path d="M33.4009 62.5961C35.3728 62.2892 33.7484 58.6206 30.5264 57.6324C28.902 57.136 22.21 56.3418 15.5631 56.3418C14.7193 56.3418 14.6471 57.4428 15.509 57.4428C15.8384 57.4428 20.2425 57.0096 29.2946 57.7903C33.6085 58.1648 32.7782 62.6954 33.4009 62.5961Z" fill="#D63C1E"/>
<path d="M27.2778 56.4455C26.5829 57.014 26.1407 57.2487 25.7436 57.2938C25.3465 57.2442 24.9088 57.014 24.2093 56.4455C23.0722 55.5159 14.9091 52.8987 15.4055 59.0492C15.5409 60.7278 16.5156 63.1149 19.6833 63.0923C22.8556 63.0743 23.9972 60.8677 24.4936 59.9787C24.9223 59.2116 25.0938 58.643 25.7391 58.5618C26.3844 58.643 26.5558 59.2116 26.9845 59.9787C27.4809 60.8677 28.6225 63.0743 31.7948 63.0923C34.9671 63.1104 35.9372 60.7233 36.0726 59.0492C36.578 52.8987 28.415 55.5159 27.2778 56.4455ZM24.3628 59.4417C23.5956 61.2287 22.2915 62.3342 20.4098 62.6772C18.5281 63.0201 16.3983 62.05 15.8793 59.523C15.3649 56.996 17.2872 55.8904 18.668 55.931C23.2166 56.0664 25.1524 57.6052 24.3628 59.4417ZM35.6124 59.523C35.0979 62.05 32.968 63.0201 31.0818 62.6772C29.2001 62.3342 27.896 61.2287 27.1289 59.4417C26.3437 57.6052 28.2751 56.0709 32.8236 55.931C34.2045 55.8859 36.1268 56.996 35.6124 59.523Z" fill="#333333"/>
<path opacity="0.1" d="M24.3627 59.1662C23.5956 60.6824 22.2915 61.621 20.4098 61.9098C18.5281 62.2031 16.3982 61.3773 15.8793 59.2339C15.3649 57.0905 17.2872 56.1519 18.668 56.188C23.2166 56.3053 25.1524 57.6094 24.3627 59.1662Z" fill="#F3A33E"/>
<path opacity="0.1" d="M35.612 59.2388C35.0975 61.3822 32.9677 62.2035 31.0814 61.9147C29.1997 61.6214 27.8956 60.6873 27.1285 59.1711C26.3433 57.6143 28.2747 56.3102 32.8233 56.1929C34.2041 56.1568 36.1264 57.0954 35.612 59.2388Z" fill="#F3A33E"/>
</g>
<defs>
<filter id="filter0_d" x="12.6152" y="15.1538" width="54.8147" height="51.6924" filterUnits="userSpaceOnUse" color-interpolation-filters="sRGB">
<feFlood flood-opacity="0" result="BackgroundImageFix"/>
<feColorMatrix in="SourceAlpha" type="matrix" values="0 0 0 0 0 0 0 0 0 0 0 0 0 0 0 0 0 0 127 0" result="hardAlpha"/>
<feOffset dy="1"/>
<feGaussianBlur stdDeviation="1"/>
<feColorMatrix type="matrix" values="0 0 0 0 0 0 0 0 0 0 0 0 0 0 0 0 0 0 0.05 0"/>
<feBlend mode="normal" in2="BackgroundImageFix" result="effect1_dropShadow"/>
<feBlend mode="normal" in="SourceGraphic" in2="effect1_dropShadow" result="shape"/>
</filter>
</defs>
</svg>
