<svg width="81" height="80" viewBox="0 0 81 80" fill="none" xmlns="http://www.w3.org/2000/svg">
<rect x="0.5" width="80" height="80" rx="40" fill="#FBC030"/>
<g filter="url(#filter0_d)">
<path opacity="0.3" d="M68.9621 57.6804C68.9621 58.1674 68.5837 58.5648 68.1199 58.5648H12.8813C12.4175 58.5691 12.0391 58.1717 12.0391 57.6804C12.0391 57.1933 12.4175 56.7959 12.8813 56.7959H68.1199C68.5878 56.7959 68.9621 57.1933 68.9621 57.6804Z" fill="#333333"/>
<path d="M27.8538 50.1943H18.5117V53.6851H27.8538V50.1943Z" fill="#E2E3E5"/>
<path d="M20.7067 53.5434C20.4341 53.5434 20.2144 53.3127 20.2144 53.0264V50.8815C20.2144 50.5952 20.4341 50.3645 20.7067 50.3645H28.3439C28.2422 50.1851 28.0551 50.0654 27.8435 50.0654H14.1396C13.8182 50.0654 13.5537 50.3389 13.5537 50.6807V53.2272C13.5537 53.5648 13.8141 53.8425 14.1396 53.8425H27.8394C28.051 53.8425 28.2382 53.7229 28.3399 53.5434H20.7067Z" fill="#3C5475"/>
<path d="M28.3384 53.5434H27.0404H20.7052C20.4326 53.5434 20.2129 53.3127 20.2129 53.0264V50.8815C20.2129 50.5952 20.4326 50.3645 20.7052 50.3645H27.0445H28.3424C28.2407 50.1851 28.0535 50.0654 27.842 50.0654H20.4814C20.16 50.0654 19.8955 50.3389 19.8955 50.6807V53.2272C19.8955 53.5648 20.1559 53.8425 20.4814 53.8425H27.842C28.0535 53.8425 28.2366 53.7229 28.3384 53.5434Z" fill="#546B8E"/>
<path d="M14.3304 51.0444H13.9316V52.9928H14.3304V51.0444Z" fill="#546B8E"/>
<path d="M18.5404 51.0444H14.7686V52.9928H18.5404V51.0444Z" fill="#546B8E"/>
<path d="M19.3792 51.0444H18.9805V52.9928H19.3792V51.0444Z" fill="#546B8E"/>
<path d="M26.7078 53.9624H13.9805V57.4532H26.7078V53.9624Z" fill="#E2E3E5"/>
<path d="M24.5186 57.3125C24.7912 57.3125 25.0109 57.0817 25.0109 56.7955V54.6506C25.0109 54.3643 24.7912 54.1336 24.5186 54.1336H13.4961C13.5978 53.9541 13.785 53.8345 13.9966 53.8345H34.3448C34.6663 53.8345 34.9307 54.1079 34.9307 54.4497V56.9963C34.9307 57.3338 34.6703 57.6116 34.3448 57.6116H13.9966C13.785 57.6116 13.5978 57.4919 13.4961 57.3125H24.5186Z" fill="#FF8F15"/>
<path d="M13.4961 57.3125H14.79H24.5145C24.7871 57.3125 25.0068 57.0817 25.0068 56.7955V54.6506C25.0068 54.3643 24.7871 54.1336 24.5145 54.1336H14.7941H13.4961C13.5978 53.9541 13.785 53.8345 13.9966 53.8345H24.7424C25.0638 53.8345 25.3283 54.1079 25.3283 54.4497V56.9963C25.3283 57.3338 25.0679 57.6116 24.7424 57.6116H13.9966C13.785 57.6116 13.5978 57.4919 13.4961 57.3125Z" fill="#EF7A06"/>
<path d="M33.9914 55.1597H26.6797V56.4158H33.9914V55.1597Z" fill="#EF7A06"/>
<path d="M23.2571 46.4561H13.915V49.9469H23.2571V46.4561Z" fill="#E2E3E5"/>
<path d="M21.0658 46.5965C21.3384 46.5965 21.5581 46.8272 21.5581 47.1135V49.2584C21.5581 49.5446 21.3384 49.7754 21.0658 49.7754H13.4326C13.5343 49.9548 13.7215 50.0745 13.9331 50.0745H27.6329C27.9543 50.0745 28.2188 49.801 28.2188 49.4592V46.9126C28.2188 46.5751 27.9584 46.2974 27.6329 46.2974H13.9331C13.7215 46.2974 13.5343 46.417 13.4326 46.5965H21.0658Z" fill="#333333"/>
<path d="M13.4326 46.5965H14.7265H21.0658C21.3384 46.5965 21.5581 46.8272 21.5581 47.1135V49.2584C21.5581 49.5446 21.3384 49.7754 21.0658 49.7754H14.7265H13.4326C13.5343 49.9548 13.7215 50.0745 13.9331 50.0745H21.2936C21.6151 50.0745 21.8795 49.801 21.8795 49.4592V46.9126C21.8795 46.5751 21.6191 46.2974 21.2936 46.2974H13.9331C13.7174 46.3016 13.5343 46.4213 13.4326 46.5965Z" fill="#4D4D4D"/>
<path d="M27.3063 47.5591H22.7695V48.6913H27.3063V47.5591Z" fill="#4D4D4D"/>
<path d="M54.7012 50.5671V48.4521H42.747V50.5671C42.747 52.9898 41.6443 55.139 39.9395 56.502H57.4965C55.7998 55.1347 54.7012 52.9855 54.7012 50.5671Z" fill="#CECECE"/>
<path d="M54.7023 48.4521H42.748V50.0929H54.7023V48.4521Z" fill="#B2B2B2"/>
<path d="M55.9787 54.8262H41.4692C41.046 55.4628 40.5293 56.0311 39.9434 56.5011H57.5004C56.9145 56.0311 56.4018 55.4628 55.9787 54.8262Z" fill="#EFEFEF"/>
<path d="M58.0008 56.9038C58.0008 57.2243 57.7526 57.4849 57.4475 57.4849H39.9596C39.6544 57.4849 39.4062 57.2243 39.4062 56.9038C39.4062 56.5834 39.6544 56.3228 39.9596 56.3228H57.4475C57.7526 56.3228 58.0008 56.5834 58.0008 56.9038Z" fill="#E2E3E5"/>
<path d="M68.729 48.3404C68.729 48.7249 68.4319 49.0368 68.0657 49.0368H29.3507C28.9845 49.0368 28.6875 48.7249 28.6875 48.3404V22.2341C28.6875 21.8495 28.9845 21.5376 29.3507 21.5376H68.0617C68.4279 21.5376 68.7249 21.8495 68.7249 22.2341V48.3404H68.729Z" fill="#393B36"/>
<path d="M67.849 22.5547H29.6914V44.8412H67.849V22.5547Z" fill="#14B0BF"/>
<path d="M28.6865 45.8623V48.3362C28.6865 48.7208 28.9835 49.0327 29.3497 49.0327H68.0607C68.4269 49.0327 68.7239 48.7208 68.7239 48.3362V45.8623H28.6865Z" fill="#E2E3E5"/>
<path d="M48.9092 24.832H62.8368C63.2193 24.832 63.5285 25.1568 63.5285 25.5584V43.1278C63.5285 43.5295 63.2193 43.8542 62.8368 43.8542H48.9092V24.832Z" fill="#EF5126"/>
<path d="M48.9092 25.0967H61.9254C62.3079 25.0967 62.6171 25.4214 62.6171 25.823V43.3925C62.6171 43.5676 62.5561 43.7257 62.4584 43.8539H48.9092V25.0967Z" fill="#E03D17"/>
<path d="M48.9883 24.832H35.0647C34.6823 24.832 34.373 25.1568 34.373 25.5584V43.1278C34.373 43.5295 34.6823 43.8542 35.0647 43.8542H48.9883V24.832Z" fill="#FF6F40"/>
<path d="M48.9862 25.0967H35.97C35.5876 25.0967 35.2783 25.4214 35.2783 25.823V43.3925C35.2783 43.5676 35.3394 43.7257 35.437 43.8539H48.9862V25.0967Z" fill="#EF5126"/>
<path d="M36.7887 23.3927C36.7887 23.3927 35.7918 24.196 35.682 24.3113C35.5721 24.4267 35.5029 24.5848 35.5029 24.76V41.9107C35.5029 42.261 35.7755 42.5473 36.1092 42.5473H43.9865C46.1633 42.5473 47.5752 43.06 47.9251 43.8505L48.983 43.4446L47.9292 25.8965C47.9292 24.9181 39.2625 23.3457 37.0898 23.3457L36.7887 23.3927Z" fill="#CECECE"/>
<path d="M37.1707 23.251C36.8371 23.251 36.5645 23.5372 36.5645 23.8876V41.0383C36.5645 41.3887 36.8371 41.6749 37.1707 41.6749H45.048C47.2248 41.6749 48.9866 42.4654 48.9866 43.4439V25.0242C48.9866 24.0457 47.2207 23.2552 45.048 23.2552H37.1707V23.251Z" fill="#E2E3E5"/>
<path d="M45.996 23.3065C45.6909 23.2723 45.3735 23.251 45.048 23.251H37.1707C36.8371 23.251 36.5645 23.5372 36.5645 23.8876V41.0383C36.5645 41.3887 36.8371 41.6749 37.1707 41.6749H45.048C45.3776 41.6749 45.6949 41.6963 45.996 41.7305V23.3065Z" fill="#F7F7F7"/>
<path d="M45.0477 24.8955H37.5488V25.639H44.9989C46.3294 25.639 47.5053 25.938 48.2214 26.391V25.6176C47.5012 25.1775 46.3497 24.8955 45.0477 24.8955Z" fill="#B2B2B2"/>
<path d="M45.0477 26.6436H37.5488V27.387H44.9989C46.3294 27.387 47.5053 27.6861 48.2214 28.139V27.3656C47.5012 26.9298 46.3497 26.6436 45.0477 26.6436Z" fill="#B2B2B2"/>
<path d="M45.0477 28.3911H37.5488V29.1346H44.9989C46.3294 29.1346 47.5053 29.4337 48.2214 29.8866V29.1132C47.5012 28.6774 46.3497 28.3911 45.0477 28.3911Z" fill="#B2B2B2"/>
<path d="M45.0477 30.1426H37.5488V30.886H44.9989C46.3294 30.886 47.5053 31.1851 48.2214 31.638V30.8647C47.5012 30.4289 46.3497 30.1426 45.0477 30.1426Z" fill="#B2B2B2"/>
<path d="M45.0477 31.8901H37.5488V32.6336H44.9989C46.3294 32.6336 47.5053 32.9327 48.2214 33.3856V32.6122C47.5012 32.1764 46.3497 31.8901 45.0477 31.8901Z" fill="#B2B2B2"/>
<path d="M45.0477 33.6431H37.5488V34.3865H44.9989C46.3294 34.3865 47.5053 34.6856 48.2214 35.1385V34.3652C47.5012 33.9251 46.3497 33.6431 45.0477 33.6431Z" fill="#B2B2B2"/>
<path d="M45.0477 35.3892H37.5488V36.1326H44.9989C46.3294 36.1326 47.5053 36.4317 48.2214 36.8846V36.1113C47.5012 35.6754 46.3497 35.3892 45.0477 35.3892Z" fill="#B2B2B2"/>
<path d="M45.0477 37.1367H37.5488V37.8802H44.9989C46.3294 37.8802 47.5053 38.1793 48.2214 38.6322V37.8588C47.5012 37.423 46.3497 37.1367 45.0477 37.1367Z" fill="#B2B2B2"/>
<path d="M45.0477 38.8896H37.5488V39.6331H44.9989C46.3294 39.6331 47.5053 39.9322 48.2214 40.3851V39.6117C47.5012 39.1716 46.3497 38.8896 45.0477 38.8896Z" fill="#B2B2B2"/>
<path d="M61.1074 23.3927C61.1074 23.3927 62.1043 24.196 62.2141 24.3113C62.324 24.4267 62.3932 24.5848 62.3932 24.76V41.9107C62.3932 42.261 62.1205 42.5473 61.7869 42.5473H53.9096C51.7328 42.5473 50.3209 43.06 49.971 43.8505L48.9131 43.4446L49.971 25.8965C49.971 24.9181 58.6376 23.3457 60.8104 23.3457L61.1074 23.3927Z" fill="#CECECE"/>
<path d="M60.7251 23.251C61.0587 23.251 61.3313 23.5372 61.3313 23.8876V41.0383C61.3313 41.3887 61.0587 41.6749 60.7251 41.6749H52.8478C50.671 41.6749 48.9092 42.4654 48.9092 43.4439V25.0242C48.9092 24.0457 50.6751 23.2552 52.8478 23.2552H60.7251V23.251Z" fill="#E2E3E5"/>
<path d="M51.676 23.332C50.0729 23.5585 48.9092 24.2293 48.9092 25.024V43.4437C48.9092 42.649 50.0729 41.9782 51.676 41.7517V23.332Z" fill="#F7F7F7"/>
<path d="M52.8485 24.8955H60.3474V25.639H52.8973C51.5668 25.639 50.3909 25.938 49.6748 26.391V25.6176C50.395 25.1775 51.5465 24.8955 52.8485 24.8955Z" fill="#B2B2B2"/>
<path d="M52.8485 26.6436H60.3474V27.387H52.8973C51.5668 27.387 50.3909 27.6861 49.6748 28.139V27.3656C50.395 26.9298 51.5465 26.6436 52.8485 26.6436Z" fill="#B2B2B2"/>
<path d="M52.8485 28.3911H60.3474V29.1346H52.8973C51.5668 29.1346 50.3909 29.4337 49.6748 29.8866V29.1132C50.395 28.6774 51.5465 28.3911 52.8485 28.3911Z" fill="#B2B2B2"/>
<path d="M52.8485 30.1426H60.3474V30.886H52.8973C51.5668 30.886 50.3909 31.1851 49.6748 31.638V30.8647C50.395 30.4289 51.5465 30.1426 52.8485 30.1426Z" fill="#B2B2B2"/>
<path d="M52.8485 31.8901H60.3474V32.6336H52.8973C51.5668 32.6336 50.3909 32.9327 49.6748 33.3856V32.6122C50.395 32.1764 51.5465 31.8901 52.8485 31.8901Z" fill="#B2B2B2"/>
<path d="M52.8485 33.6431H60.3474V34.3865H52.8973C51.5668 34.3865 50.3909 34.6856 49.6748 35.1385V34.3652C50.395 33.9251 51.5465 33.6431 52.8485 33.6431Z" fill="#B2B2B2"/>
<path d="M52.8485 35.3892H60.3474V36.1326H52.8973C51.5668 36.1326 50.3909 36.4317 49.6748 36.8846V36.1113C50.395 35.6754 51.5465 35.3892 52.8485 35.3892Z" fill="#B2B2B2"/>
<path d="M52.8485 37.1367H60.3474V37.8802H52.8973C51.5668 37.8802 50.3909 38.1793 49.6748 38.6322V37.8588C50.395 37.423 51.5465 37.1367 52.8485 37.1367Z" fill="#B2B2B2"/>
<path d="M52.8485 38.8896H60.3474V39.6331H52.8973C51.5668 39.6331 50.3909 39.9322 49.6748 40.3851V39.6117C50.395 39.1716 51.5465 38.8896 52.8485 38.8896Z" fill="#B2B2B2"/>
<path d="M52.7216 46.6744L51.6719 47.6614V23.2727C51.6719 23.0975 51.8061 22.9565 51.973 22.9565H53.4703C53.6371 22.9565 53.7714 23.0975 53.7714 23.2727V47.6614L52.7216 46.6744Z" fill="#F5BB11"/>
<path d="M27.2133 45.9011C28.8368 45.6276 27.5103 42.2693 24.8615 41.3549C23.527 40.8934 17.794 39.9449 12.3214 40.0645C12.0935 40.0688 12.5899 41.5514 12.7771 41.8249C12.9398 42.0642 16.3943 40.7567 23.8484 41.4959C27.3924 41.8463 26.6966 45.9865 27.2133 45.9011Z" fill="#222321"/>
<path d="M14.5758 45.8795C12.9523 45.5975 14.2869 42.2434 16.9438 41.3419C18.2825 40.8847 24.0155 39.9575 29.4881 40.09C29.7159 40.0942 29.2154 41.5769 29.0283 41.8503C28.8655 42.0896 25.4151 40.7736 17.957 41.4871C14.4049 41.8247 15.0884 45.9692 14.5758 45.8795Z" fill="#393B36"/>
<path d="M29.5894 40.0638C25.8135 39.5596 22.9206 40.803 22.0987 41.3371C21.4558 41.7558 21.2076 41.8156 20.9146 41.8156C20.5891 41.8156 20.3735 41.7515 19.7347 41.3328C18.9128 40.7944 16.0239 39.5383 12.248 40.0339C12.0934 40.0553 12.4921 41.4738 12.6183 41.7045C12.7444 41.9353 12.9641 41.8797 13.1635 43.1658C13.3629 44.4519 13.9813 46.3191 16.325 46.302C18.6646 46.2849 19.5109 44.5801 19.8771 43.8879C20.2189 43.247 20.3287 42.7727 20.9146 42.7727C21.4802 42.7727 21.6104 43.247 21.9481 43.8879C22.3143 44.5801 23.1525 46.2891 25.4921 46.3148C27.8317 46.3361 28.4583 44.4775 28.6617 43.1872C28.8651 41.9011 29.0849 41.9566 29.211 41.7302C29.3412 41.5037 29.7481 40.0852 29.5894 40.0638ZM19.7754 43.4692C19.2098 44.8535 18.2455 45.7123 16.858 45.9772C15.4664 46.2421 13.8959 45.4902 13.5134 43.5332C13.1309 41.5721 13.725 40.8713 14.7422 40.8286C18.5099 40.662 20.3572 42.0463 19.7754 43.4692ZM28.3158 43.5589C27.9293 45.5158 26.3547 46.2635 24.9631 45.9943C23.5716 45.7252 22.6113 44.8621 22.0498 43.4734C21.4761 42.0463 23.3274 40.6663 27.0952 40.8457C28.1124 40.897 28.7024 41.5977 28.3158 43.5589Z" fill="#E03D17"/>
<path d="M29.1259 40.7184C29.1259 40.9534 28.9428 41.1414 28.7231 41.1414C28.4993 41.1414 28.3203 40.9491 28.3203 40.7184C28.3203 40.4834 28.5034 40.2954 28.7231 40.2954C28.9469 40.2954 29.1259 40.4834 29.1259 40.7184Z" fill="#E3E4E6"/>
<path d="M13.5791 40.693C13.5791 40.928 13.396 41.116 13.1763 41.116C12.9525 41.116 12.7734 40.9237 12.7734 40.693C12.7734 40.458 12.9565 40.27 13.1763 40.27C13.4 40.27 13.5831 40.458 13.5791 40.693Z" fill="#E3E4E6"/>
<path d="M29.1259 40.7056C29.1219 40.4791 28.9428 40.2954 28.7231 40.2954C28.5034 40.2954 28.3285 40.4791 28.3203 40.7056H29.1259Z" fill="white"/>
<path d="M13.5791 40.6802C13.575 40.4537 13.396 40.27 13.1763 40.27C12.9565 40.27 12.7816 40.4537 12.7734 40.6802H13.5791Z" fill="white"/>
<path opacity="0.2" d="M28.0069 41.3845C28.2714 41.7392 28.3487 42.3203 28.2429 43.1065C26.892 44.008 25.0895 44.6617 23.0429 44.9352C22.6401 44.5421 22.3105 44.0464 22.0664 43.4355C21.9118 43.0509 21.9443 42.6621 22.164 42.3117C22.7215 41.4315 24.3043 40.906 26.4038 40.9103C26.6072 40.9103 26.8147 40.9146 27.0263 40.9274C27.4698 40.953 27.7994 41.1068 28.0069 41.3845ZM15.308 40.8975C15.1046 40.8975 14.8971 40.9017 14.6855 40.9103C14.242 40.9316 13.9124 41.0812 13.7049 41.3589C13.4404 41.7178 13.3591 42.2989 13.4649 43.0936C14.8116 43.9994 16.6141 44.6532 18.6567 44.9309C19.0595 44.5378 19.3932 44.0422 19.6414 43.4312C19.8 43.0466 19.7675 42.6578 19.5478 42.3075C18.9903 41.4315 17.4076 40.9017 15.308 40.8975Z" fill="#B2B2B2"/>
</g>
<defs>
<filter id="filter0_d" x="10.0391" y="20.5376" width="60.9231" height="41.0273" filterUnits="userSpaceOnUse" color-interpolation-filters="sRGB">
<feFlood flood-opacity="0" result="BackgroundImageFix"/>
<feColorMatrix in="SourceAlpha" type="matrix" values="0 0 0 0 0 0 0 0 0 0 0 0 0 0 0 0 0 0 127 0" result="hardAlpha"/>
<feOffset dy="1"/>
<feGaussianBlur stdDeviation="1"/>
<feColorMatrix type="matrix" values="0 0 0 0 0 0 0 0 0 0 0 0 0 0 0 0 0 0 0.05 0"/>
<feBlend mode="normal" in2="BackgroundImageFix" result="effect1_dropShadow"/>
<feBlend mode="normal" in="SourceGraphic" in2="effect1_dropShadow" result="shape"/>
</filter>
</defs>
</svg>
