<svg width="80" height="80" viewBox="0 0 80 80" fill="none" xmlns="http://www.w3.org/2000/svg">
<rect width="80" height="80" rx="40" fill="#5BC791"/>
<path d="M27.4605 28.1211H52.4605C52.7526 28.121 53.0443 28.1395 53.334 28.1766C53.2358 27.4874 52.999 26.8251 52.638 26.2299C52.277 25.6346 51.7991 25.1186 51.2333 24.713C50.6674 24.3074 50.0253 24.0206 49.3456 23.8699C48.6659 23.7191 47.9628 23.7076 47.2785 23.836L26.7184 27.3461H26.6949C25.4044 27.5929 24.2567 28.3231 23.4863 29.3875C24.6469 28.562 26.0363 28.1193 27.4605 28.1211Z" fill="white"/>
<path d="M52.4609 29.9995H27.4609C26.1353 30.001 24.8644 30.5282 23.927 31.4656C22.9896 32.4029 22.4624 33.6739 22.4609 34.9995V49.9995C22.4624 51.3251 22.9896 52.5961 23.927 53.5334C24.8644 54.4708 26.1353 54.9981 27.4609 54.9995H52.4609C53.7866 54.9981 55.0575 54.4708 55.9949 53.5334C56.9322 52.5961 57.4595 51.3251 57.4609 49.9995V34.9995C57.4595 33.6739 56.9322 32.4029 55.9949 31.4656C55.0575 30.5282 53.7866 30.001 52.4609 29.9995ZM48.75 44.9995C48.2555 44.9995 47.7722 44.8529 47.3611 44.5782C46.9499 44.3035 46.6295 43.913 46.4403 43.4562C46.2511 42.9994 46.2016 42.4967 46.298 42.0118C46.3945 41.5268 46.6326 41.0814 46.9822 40.7317C47.3319 40.3821 47.7773 40.144 48.2623 40.0475C48.7472 39.9511 49.2499 40.0006 49.7067 40.1898C50.1635 40.379 50.554 40.6995 50.8287 41.1106C51.1034 41.5217 51.25 42.0051 51.25 42.4995C51.25 43.1625 50.9866 43.7984 50.5178 44.2673C50.0489 44.7361 49.413 44.9995 48.75 44.9995Z" fill="white"/>
<path d="M22.5 40.269V32.4956C22.5 30.8026 23.4375 27.9644 26.6914 27.3495C29.4531 26.8315 32.1875 26.8315 32.1875 26.8315C32.1875 26.8315 33.9844 28.0815 32.5 28.0815C31.0156 28.0815 31.0547 29.9956 32.5 29.9956C33.9453 29.9956 32.5 31.8315 32.5 31.8315L26.6797 38.4331L22.5 40.269Z" fill="white"/>
</svg>
