<svg width="80" height="80" viewBox="0 0 80 80" fill="none" xmlns="http://www.w3.org/2000/svg">
<rect width="80" height="80" rx="40" fill="#25B0BF"/>
<g filter="url(#filter0_d)">
<path opacity="0.3" d="M62.1273 64.4806C62.1273 64.9784 61.7211 65.3845 61.2233 65.3845H15.2184C14.7206 65.3845 14.3145 64.9784 14.3145 64.4806C14.3145 63.9828 14.7206 63.5767 15.2184 63.5767H61.219C61.7211 63.5767 62.1273 63.9784 62.1273 64.4806Z" fill="#333333"/>
<path d="M58.9044 15.6897C53.4676 13.7464 47.4894 16.5805 45.5461 22.0173C43.6029 27.454 46.437 33.4323 51.8737 35.3755C57.3105 37.3188 63.2887 34.4847 65.232 29.0479C67.1709 23.6112 64.3367 17.6286 58.9044 15.6897ZM58.1969 26.2488C58.6817 24.8645 59.0616 23.5238 59.3323 22.288L62.0267 23.2487C61.983 24.5544 61.7341 25.9431 61.2625 27.3448L58.1969 26.2488ZM52.1663 34.5502C52.0397 34.5065 51.5899 33.8951 51.7427 31.7466C51.782 31.2183 51.8519 30.6462 51.9523 30.0523L55.1838 31.2052C54.8825 31.7292 54.5768 32.2139 54.2711 32.6506C53.0266 34.4061 52.2973 34.5938 52.1663 34.5502ZM52.0964 29.2663C52.3453 28.0173 52.7165 26.668 53.1838 25.288L57.245 26.7378C56.734 28.1003 56.1663 29.3798 55.5681 30.5065L52.0964 29.2663ZM53.4458 24.55C53.9392 23.1876 54.4982 21.9081 55.079 20.7683L58.638 22.0391C58.3672 23.2924 57.9873 24.6374 57.507 25.9998L53.4458 24.55ZM58.6424 16.4189C58.769 16.4626 59.2188 17.074 59.066 19.2225C59.0223 19.8513 58.9306 20.5369 58.7996 21.2618L55.4589 20.0696C55.817 19.4277 56.1794 18.8382 56.5419 18.3229C57.7821 16.5631 58.5114 16.3753 58.6424 16.4189ZM59.4895 21.5107C59.852 19.5806 59.9218 17.9604 59.6817 16.9211C61.114 17.9779 61.9393 19.9998 62.0267 22.4147L59.4895 21.5107ZM57.5201 16.1482C56.6773 16.7989 55.7035 18.0958 54.7602 19.8207L52.2231 18.9124C53.817 17.1002 55.7384 16.0565 57.5201 16.1482ZM54.389 20.5238C53.8126 21.6504 53.258 22.9299 52.7558 24.3099L49.6859 23.2138C50.2056 21.8339 50.8955 20.598 51.6903 19.5631L54.389 20.5238ZM49.0047 22.9649L46.3278 22.0085C46.8606 20.633 47.6815 19.4452 48.6903 18.4845L50.9829 19.3011C50.1968 20.3579 49.52 21.5937 49.0047 22.9649ZM48.747 23.7029C48.2973 25.1046 48.0614 26.4977 48.0265 27.8121L45.7819 27.0086C45.5636 25.6199 45.6466 24.1701 46.0745 22.7465L48.747 23.7029ZM49.4326 23.9518L52.4982 25.0479C52.0222 26.4453 51.6597 27.7903 51.4065 29.0217L48.7427 28.0697C48.7558 26.764 48.9785 25.3623 49.4326 23.9518ZM51.258 29.799C50.9348 31.668 50.8955 33.2183 51.1663 34.1877C49.7427 33.1833 48.8999 31.2445 48.7601 28.9082L51.258 29.799ZM53.1707 34.9039C53.9917 34.3231 54.9436 33.1004 55.8781 31.4497L58.376 32.3405C56.7908 34.0655 54.9087 35.0305 53.1707 34.9039ZM56.258 30.7554C56.8432 29.6418 57.4153 28.3667 57.9306 26.9868L60.9961 28.0828C60.4502 29.4628 59.7384 30.6899 58.9218 31.7073L56.258 30.7554ZM61.6817 28.323L64.3586 29.2794C63.7865 30.6506 62.9306 31.8252 61.8826 32.7641L59.638 31.9606C60.4415 30.9213 61.1446 29.6942 61.6817 28.323ZM61.9524 27.5894C62.4241 26.2007 62.6817 24.8164 62.7428 23.5064L65.0354 24.323C65.2101 25.7029 65.0922 27.144 64.6337 28.5457L61.9524 27.5894ZM64.8782 23.4365L62.7559 22.6767C62.7297 20.9037 62.3324 19.3054 61.6118 18.0609C63.2712 19.4452 64.4154 21.3491 64.8782 23.4365ZM55.3061 15.8076C53.9611 16.3141 52.6379 17.3054 51.4982 18.6548L49.3759 17.8949C51.0528 16.5805 53.1401 15.8294 55.3061 15.8076ZM45.9654 27.9082L48.0265 28.6462C48.0876 30.3143 48.4807 31.8165 49.1663 33.0043C47.5767 31.6768 46.4632 29.882 45.9654 27.9082ZM55.472 35.2532C56.7515 34.7685 58.0092 33.8558 59.114 32.6025L61.1751 33.3405C59.5376 34.5502 57.5375 35.2358 55.472 35.2532Z" fill="#FEFFFF"/>
<path d="M44.8305 56.7465V54.3491H30.5946V56.7465C30.5946 59.4933 29.2801 61.93 27.2539 63.4759H48.1625C46.1406 61.9256 44.8305 59.4889 44.8305 56.7465Z" fill="#CECECE"/>
<path d="M44.8346 54.3491H30.5986V56.2094H44.8346V54.3491Z" fill="#B2B2B2"/>
<path d="M46.3502 61.5723H29.0749C28.5683 62.2972 27.957 62.9391 27.2539 63.4719H48.1625C47.4638 62.9391 46.8524 62.2972 46.3502 61.5723Z" fill="#EFEFEF"/>
<path d="M48.7611 63.9343C48.7611 64.2967 48.4642 64.5937 48.1017 64.5937H27.2805C26.918 64.5937 26.6211 64.2967 26.6211 63.9343C26.6211 63.5718 26.918 63.2749 27.2805 63.2749H48.1017C48.4642 63.2749 48.7611 63.5675 48.7611 63.9343Z" fill="#E2E3E5"/>
<path d="M61.5285 54.2181C61.5285 54.6548 61.1748 55.0085 60.7381 55.0085H14.6371C14.2004 55.0085 13.8467 54.6548 13.8467 54.2181V24.6195C13.8467 24.1828 14.2004 23.8291 14.6371 23.8291H60.7337C61.1704 23.8291 61.5241 24.1828 61.5241 24.6195V54.2181H61.5285Z" fill="#393B36"/>
<path d="M60.4841 24.9819H15.0469V50.253H60.4841V24.9819Z" fill="#07AA83"/>
<path d="M13.8467 51.4102V54.218C13.8467 54.6547 14.2004 55.0084 14.6371 55.0084H60.7337C61.1704 55.0084 61.5241 54.6547 61.5241 54.218V51.4102H13.8467Z" fill="#E2E3E5"/>
<path d="M27.0254 43.7643V28.917H26.5625V43.7731H17.9248V44.236H26.5581V48.8299H27.021V44.2272H55.4013V43.7643H27.0254Z" fill="#E2E3E5"/>
<path d="M24.6066 28.5676L23.624 26.6724H23.9908L24.6328 27.965L24.7769 28.2968L24.921 27.9606L25.5498 26.6767H25.921L24.9384 28.572V29.6811H24.6066V28.5676Z" fill="#E2E3E5"/>
<path d="M55.3499 46.4799L54.3936 45.0083H54.7735L55.5508 46.2529L56.3106 45.0083H56.6949L55.756 46.4712L56.7997 48.0171H56.4023L55.5595 46.7157L54.7691 48.0171H54.3936L55.3499 46.4799Z" fill="#E2E3E5"/>
<path d="M22.6636 48.5413L22.2793 48.2138C23.4802 46.8164 24.275 44.1613 25.1178 41.349C26.6156 36.3577 28.3099 30.7026 32.8864 30.7026C36.5852 30.7026 38.2402 35.1743 39.8472 39.4975C41.345 43.5412 42.7643 47.3622 45.6377 47.3622C49.022 47.3622 49.9128 44.7115 50.7032 42.3753C51.3146 40.5586 51.891 38.8425 53.5897 38.8425V39.349C52.2535 39.349 51.7818 40.7552 51.1792 42.5412C50.3801 44.9168 49.3844 47.8731 45.6377 47.8731C42.4149 47.8731 40.9389 43.8906 39.3756 39.6765C37.8341 35.5149 36.2358 31.2092 32.8908 31.2092C28.6899 31.2092 27.0523 36.6721 25.6068 41.4932C24.7422 44.3578 23.9343 47.0609 22.6636 48.5413Z" fill="#E2E3E5"/>
<path d="M31.2627 14.6152V42.2051H58.8526L31.2627 14.6152ZM35.123 38.3448V23.9385L49.5293 38.3448H35.123Z" fill="#F5BB11"/>
<path d="M32.3537 41.1964H31.3887V41.0305H32.3537V41.1964ZM34.2795 41.1353V42.1003H34.1136V41.1353H34.2795ZM37.1486 41.1353V42.1003H36.9826V41.1353H37.1486ZM40.022 41.1353V42.1003H39.856V41.1353H40.022ZM42.891 41.1353V42.1003H42.7251V41.1353H42.891ZM45.76 41.1353V42.1003H45.5941V41.1353H45.76ZM48.6291 41.1353V42.1003H48.4631V41.1353H48.6291ZM51.4981 41.1353V42.1003H51.3321V41.1353H51.4981ZM54.3715 41.1353V42.1003H54.2056V41.1353H54.3715ZM57.2405 41.1353V42.1003H57.0746V41.1353H57.2405ZM32.3537 39.8558H31.3887V40.0217H32.3537V39.8558ZM32.3537 38.6811H31.3887V38.847H32.3537V38.6811ZM32.3537 37.5064H31.3887V37.6724H32.3537V37.5064ZM32.3537 36.3361H31.3887V36.502H32.3537V36.3361ZM32.3537 35.1614H31.3887V35.3273H32.3537V35.1614ZM32.3537 33.9867H31.3887V34.1527H32.3537V33.9867ZM32.3537 32.812H31.3887V32.978H32.3537V32.812ZM32.3537 31.6373H31.3887V31.8033H32.3537V31.6373ZM32.3537 30.467H31.3887V30.633H32.3537V30.467ZM32.3537 29.2923H31.3887V29.4583H32.3537V29.2923ZM32.3537 28.1176H31.3887V28.2836H32.3537V28.1176ZM32.3537 26.943H31.3887V27.1089H32.3537V26.943ZM32.3537 25.7683H31.3887V25.9342H32.3537V25.7683ZM32.3537 24.598H31.3887V24.7639H32.3537V24.598ZM32.3537 23.4233H31.3887V23.5892H32.3537V23.4233ZM32.3537 22.2486H31.3887V22.4145H32.3537V22.2486ZM32.3537 21.0739H31.3887V21.2398H32.3537V21.0739ZM32.3537 19.8992H31.3887V20.0651H32.3537V19.8992ZM32.3537 18.7289H31.3887V18.8948H32.3537V18.7289ZM32.3537 17.5542H31.3887V17.7201H32.3537V17.5542Z" fill="#393B36"/>
</g>
<defs>
<filter id="filter0_d" x="11.8467" y="13.6152" width="55.9956" height="54.7693" filterUnits="userSpaceOnUse" color-interpolation-filters="sRGB">
<feFlood flood-opacity="0" result="BackgroundImageFix"/>
<feColorMatrix in="SourceAlpha" type="matrix" values="0 0 0 0 0 0 0 0 0 0 0 0 0 0 0 0 0 0 127 0" result="hardAlpha"/>
<feOffset dy="1"/>
<feGaussianBlur stdDeviation="1"/>
<feColorMatrix type="matrix" values="0 0 0 0 0 0 0 0 0 0 0 0 0 0 0 0 0 0 0.05 0"/>
<feBlend mode="normal" in2="BackgroundImageFix" result="effect1_dropShadow"/>
<feBlend mode="normal" in="SourceGraphic" in2="effect1_dropShadow" result="shape"/>
</filter>
</defs>
</svg>
