<svg width="80" height="80" viewBox="0 0 80 80" fill="none" xmlns="http://www.w3.org/2000/svg">
<rect width="80" height="80" rx="40" fill="#2E5970"/>
<g filter="url(#filter0_d)">
<path opacity="0.3" d="M64.0469 60.5772C64.0469 60.9922 63.7084 61.3307 63.2934 61.3307H16.1373C15.7223 61.3307 15.3838 60.9922 15.3838 60.5772C15.3838 60.1622 15.7223 59.8237 16.1373 59.8237H63.2898C63.7084 59.8237 64.0469 60.1622 64.0469 60.5772Z" fill="#333333"/>
<path d="M46.6876 52.4531V50.0361H32.3206V52.4531C32.3206 55.2268 30.9956 57.6838 28.9463 59.2453H50.051C48.0053 57.6838 46.6876 55.2231 46.6876 52.4531Z" fill="#CECECE"/>
<path d="M46.6874 50.0361H32.3203V51.9144H46.6874V50.0361Z" fill="#B2B2B2"/>
<path d="M48.2203 57.3271H30.7848C30.2752 58.0588 29.6564 58.7067 28.9502 59.2454H50.0549C49.3451 58.7067 48.7263 58.0588 48.2203 57.3271Z" fill="#EFEFEF"/>
<path d="M50.6513 59.7071C50.6513 60.0748 50.3529 60.3733 49.9852 60.3733H28.9679C28.6002 60.3733 28.3018 60.0748 28.3018 59.7071C28.3018 59.3395 28.6002 59.041 28.9679 59.041H49.9852C50.3529 59.0447 50.6513 59.3395 50.6513 59.7071Z" fill="#E2E3E5"/>
<path d="M63.5433 49.9047C63.5433 50.3452 63.1866 50.7019 62.7462 50.7019H16.2161C15.7757 50.7019 15.4189 50.3452 15.4189 49.9047V20.0276C15.4189 19.5872 15.7757 19.2305 16.2161 19.2305H62.7462C63.1866 19.2305 63.5433 19.5872 63.5433 20.0276V49.9047Z" fill="#393B36"/>
<path d="M62.489 20.3911H16.625V45.9002H62.489V20.3911Z" fill="#1BB1BF"/>
<path d="M15.4131 47.0688V49.9008C15.4131 50.3412 15.7698 50.6979 16.2102 50.6979H62.7403C63.1808 50.6979 63.5375 50.3412 63.5375 49.9008V47.0688H15.4131Z" fill="#E2E3E5"/>
<path d="M44.6245 31.5959C46.2698 24.1667 40.7297 22.1793 39.2046 23.2676C37.6794 22.1793 32.1357 24.1667 33.7846 31.5959C34.1777 33.3759 37.0097 36.6301 39.2046 35.4179C41.3995 36.6337 44.2314 33.3795 44.6245 31.5959Z" fill="#914A03"/>
<path d="M43.3904 33.8197C43.1502 32.4001 43.3831 30.5619 43.496 29.1278C43.7471 25.859 41.1518 24.7998 38.7822 24.7998C36.4125 24.7998 34.7636 27.4461 34.8983 30.7221C34.9857 32.8806 35.6263 33.8124 36.5035 35.1374C37.3771 35.6798 38.3381 35.8981 39.2044 35.4213C40.6095 36.1966 42.2693 35.1447 43.3904 33.8197Z" fill="#5B2B00"/>
<path d="M41.0932 31.7271H37.3076V37.005H41.0932V31.7271Z" fill="#EFB589"/>
<path d="M43.2892 29.4849C43.2892 32.6044 41.4582 35.1379 39.1978 35.1379C36.9374 35.1379 35.1064 32.6081 35.1064 29.4849C35.1064 26.3655 36.9374 23.832 39.1978 23.832C41.4582 23.832 43.2892 26.3618 43.2892 29.4849Z" fill="#EFB589"/>
<path d="M34.3372 30.074C34.3372 30.074 36.1244 29.7646 37.0999 28.2577C37.9444 29.1495 40.0411 30.1031 42.8257 29.2805C41.5407 29.0767 40.8746 28.4069 40.8746 28.4069C40.8746 28.4069 42.418 29.1276 43.4954 29.1276C44.5729 29.1276 43.095 22.7977 39.2293 23.2709C38.3557 22.8595 33.5327 24.0316 34.3372 30.074Z" fill="#914A03"/>
<path d="M35.2405 44.1936H42.768C42.9573 43.2691 43.2885 42.137 43.7945 40.6665C45.1121 36.8445 43.3686 36.3604 40.3437 36.3604H38.8149C35.2769 36.3604 33.2639 36.9937 34.2831 40.4808C34.7418 42.0569 35.0512 43.2436 35.2405 44.1936Z" fill="#EFB589"/>
<path d="M32.2485 45.9008H34.5999L34.6108 41.5219C34.3961 40.8958 33.4824 40.1969 32.6889 40.3389C31.8954 40.4808 32.1065 41.9987 32.1065 41.9987L32.2485 45.9008Z" fill="#EFB589"/>
<path d="M33.4354 45.9012L28.1538 36.9541L26.665 37.9078L30.76 45.9012H33.4354Z" fill="#EFB589"/>
<path d="M46.1794 45.9008L46.2777 42.7085C46.3432 41.9696 46.5507 40.4808 45.7571 40.3389C44.9636 40.1969 44.0463 40.8958 43.8352 41.5219L43.7988 45.9008H46.1794Z" fill="#EFB589"/>
<path d="M34.7023 42.3523L34.7205 42.0793C34.7242 42.123 34.8225 43.7064 34.9389 45.905H40.2388V38.443C39.9803 38.8616 39.6491 39.2874 39.2269 39.6514C38.3096 38.8179 37.3049 36.2881 37.3049 36.2881C36.2675 36.3609 33.4356 37.0707 32.8787 37.7732C31.8923 39.0108 31.9141 42.3341 31.9141 42.3341L34.7023 42.3523Z" fill="#275B73"/>
<path d="M43.5108 45.9007C43.6309 43.7058 43.7255 42.1224 43.7292 42.0751L43.7474 42.3481L46.5356 42.319C46.5356 42.319 46.5574 38.9957 45.571 37.7581C45.0105 37.0555 42.1822 36.3494 41.1448 36.2729C41.1448 36.2729 40.1401 38.8027 39.2229 39.6363C38.8006 39.2723 38.4694 38.8501 38.2109 38.4278V45.8898H43.5108V45.9007Z" fill="#275B73"/>
<path d="M37.3079 35.5308C37.3079 35.5308 36.3979 35.9566 36.3506 36.3534C36.0557 37.096 36.1286 38.4027 36.0303 39.1453C36.427 38.6029 37.6282 38.4828 39.2335 39.644C38.4873 38.905 37.3079 36.1787 37.3079 35.5308Z" fill="#FCF4ED"/>
<path d="M41.0941 35.5347C41.0941 35.5347 42.0078 35.9569 42.0587 36.3537C42.3536 37.0962 42.2808 38.403 42.3791 39.1455C41.9823 38.6032 40.8357 38.4831 39.2305 39.6442C39.973 38.9053 41.0941 36.1826 41.0941 35.5347Z" fill="#FCF4ED"/>
<path d="M28.2047 37.0701C28.201 36.9681 28.1464 36.8771 28.0591 36.8262C28.0372 36.8007 28.019 36.7788 27.9972 36.7534L25.3691 35.6905C25.3 35.625 25.1544 35.665 25.0415 35.7851C24.9287 35.9052 24.8923 36.0508 24.9614 36.1164L25.1398 36.2874L22.4025 35.7997C22.2424 35.7706 22.0895 35.8798 22.0604 36.0399C22.0312 36.2001 22.1405 36.353 22.3006 36.3821L26.5594 38.2094C26.7996 38.253 26.9998 38.2567 27.1746 38.2421L27.342 38.4023C27.4112 38.4678 27.5568 38.4278 27.6696 38.3076C27.7606 38.2094 28.4049 37.6379 28.2047 37.0701Z" fill="#EFB589"/>
<g opacity="0.9">
<path opacity="0.9" d="M39.4035 28.021C36.0293 28.021 33.292 30.7546 33.292 34.1325C33.292 37.5105 36.0256 40.2441 39.4035 40.2441C42.7778 40.2441 45.5151 37.5105 45.5151 34.1325C45.5151 30.7546 42.7778 28.021 39.4035 28.021ZM39.4035 39.3377C36.5279 39.3377 34.1984 37.0081 34.1984 34.1325C34.1984 31.257 36.5279 28.9274 39.4035 28.9274C42.2791 28.9274 44.6087 31.257 44.6087 34.1325C44.6051 37.0045 42.2755 39.3377 39.4035 39.3377ZM37.6673 30.8092L42.9016 33.8304C43.1891 33.9979 43.1891 34.2672 42.9016 34.4347L37.6673 37.4559C37.3797 37.6233 37.1431 37.4886 37.1431 37.1537V31.1114C37.1431 30.7765 37.3761 30.6418 37.6673 30.8092Z" fill="#FEFFFF"/>
</g>
<g opacity="0.6">
<path opacity="0.6" d="M62.4899 43.1812H16.626V45.9002H62.4899V43.1812Z" fill="#364153"/>
</g>
<g opacity="0.6">
<path opacity="0.6" d="M61.0258 44.2153H17.8154V44.8705H61.0258V44.2153Z" fill="white"/>
</g>
<g opacity="0.6">
<path opacity="0.6" d="M45.1518 44.2153H17.8154V44.8705H45.1518V44.2153Z" fill="white"/>
</g>
<path d="M34.4638 44.2153H17.8145V44.8705H34.4638V44.2153Z" fill="#FF6F40"/>
<path d="M34.8038 43.8467H34.0977V45.1607H34.8038V43.8467Z" fill="#C03413"/>
<path d="M62.489 20.3628H16.625V22.4048H62.489V20.3628Z" fill="#EB5052"/>
<path d="M58.0406 21.3675C58.0406 21.7861 57.7021 22.1246 57.2835 22.1246C56.8649 22.1246 56.5264 21.7861 56.5264 21.3675C56.5264 20.9489 56.8649 20.6104 57.2835 20.6104C57.7021 20.6104 58.0406 20.9489 58.0406 21.3675ZM59.2673 20.6104C58.8487 20.6104 58.5102 20.9489 58.5102 21.3675C58.5102 21.7861 58.8487 22.1246 59.2673 22.1246C59.6859 22.1246 60.0244 21.7861 60.0244 21.3675C60.0244 20.9489 59.6859 20.6104 59.2673 20.6104ZM61.2511 20.6104C60.8325 20.6104 60.494 20.9489 60.494 21.3675C60.494 21.7861 60.8325 22.1246 61.2511 22.1246C61.6697 22.1246 62.0082 21.7861 62.0082 21.3675C62.0082 20.9489 61.6697 20.6104 61.2511 20.6104Z" fill="#C03413"/>
<path d="M51.1469 40.2371C50.8921 40.2371 50.6846 40.0296 50.6846 39.7748V28.0868C50.6846 27.832 50.8921 27.6245 51.1469 27.6245H59.173C59.4278 27.6245 59.6353 27.832 59.6353 28.0868V39.7748C59.6353 40.0296 59.4278 40.2371 59.173 40.2371H51.1469Z" fill="#F5BB11"/>
<path d="M59.035 28.2251H51.2891V39.6328H59.035V28.2251Z" fill="white"/>
<path d="M56.9158 30.1401H53.8291V31.1812H56.9158V30.1401Z" fill="#E03D17"/>
<path d="M58.3356 32.1416H52.0566V32.4364H58.3356V32.1416Z" fill="#275B73"/>
<path d="M58.3356 32.9971H52.0566V33.2919H58.3356V32.9971Z" fill="#275B73"/>
<path d="M53.8657 35.6362H52.0566V35.9311H53.8657V35.6362Z" fill="#275B73"/>
<path d="M53.8657 36.2764H52.0566V36.5712H53.8657V36.2764Z" fill="#275B73"/>
<path d="M56.2063 35.6362H55.0742V35.9311H56.2063V35.6362Z" fill="#275B73"/>
<path d="M56.2063 36.2764H55.0742V36.5712H56.2063V36.2764Z" fill="#275B73"/>
<path d="M56.527 33.8491H53.8662V34.144H56.527V33.8491Z" fill="#275B73"/>
<path d="M58.5147 39.3558L57.5319 38.868L56.5527 39.3558V36.877H58.5147V39.3558Z" fill="#E15C2F"/>
<path d="M58.7305 37.5288C58.7305 38.1913 58.1918 38.73 57.5293 38.73C56.8668 38.73 56.3281 38.1913 56.3281 37.5288C56.3281 36.8664 56.8668 36.3276 57.5293 36.3276C58.1918 36.3276 58.7305 36.8664 58.7305 37.5288Z" fill="#F5BB11"/>
<path d="M57.5283 36.6108C57.0187 36.6108 56.6074 37.0222 56.6074 37.5318C56.6074 38.0414 57.0187 38.4527 57.5283 38.4527C58.0379 38.4527 58.4493 38.0414 58.4493 37.5318C58.4456 37.0222 58.0343 36.6108 57.5283 36.6108ZM57.5283 38.2743C57.117 38.2743 56.7821 37.9394 56.7821 37.5281C56.7821 37.1168 57.117 36.7819 57.5283 36.7819C57.9397 36.7819 58.2745 37.1168 58.2745 37.5281C58.2745 37.9394 57.9397 38.2743 57.5283 38.2743Z" fill="#E15C2F"/>
<path d="M24.7741 31.8171C26.7602 31.8171 28.3704 30.207 28.3704 28.2208C28.3704 26.2346 26.7602 24.6245 24.7741 24.6245C22.7879 24.6245 21.1777 26.2346 21.1777 28.2208C21.1777 30.207 22.7879 31.8171 24.7741 31.8171Z" fill="#E2E3E5"/>
<path d="M25.624 33.8525C25.624 34.3221 25.2454 34.7006 24.7759 34.7006C24.3063 34.7006 23.9277 34.3221 23.9277 33.8525C23.9277 33.383 24.3063 33.0044 24.7759 33.0044C25.2454 33.0044 25.624 33.383 25.624 33.8525Z" fill="#393B36"/>
<path d="M25.983 34.1258C26.4999 33.5725 26.5545 32.5533 26.5581 31.3594H22.9873C22.9909 32.5569 23.0455 33.5725 23.5624 34.1258H25.983Z" fill="#333333"/>
<path d="M24.8243 34.1257L26.2403 33.7508C26.3277 33.5652 26.3932 33.3541 26.4369 33.1211L23.3975 33.9292C23.4448 34.002 23.4957 34.0675 23.554 34.1294H24.8243V34.1257Z" fill="#4D4D4D"/>
<path d="M23.2505 33.6411L26.4901 32.7821C26.512 32.5964 26.5265 32.3999 26.5375 32.1924L23.0977 33.106C23.1377 33.2989 23.185 33.4773 23.2505 33.6411Z" fill="#4D4D4D"/>
<path d="M25.033 31.3594H22.9873C22.9873 31.545 22.9909 31.7234 22.9946 31.9017L25.033 31.3594Z" fill="#4D4D4D"/>
<path d="M23.0525 32.7894L26.5541 31.8612C26.5578 31.6974 26.5578 31.53 26.5614 31.3589H26.2666L23.0088 32.2252C23.0161 32.4218 23.0306 32.611 23.0525 32.7894Z" fill="#4D4D4D"/>
<path d="M27.8178 27.9773L26.0051 26.9981L24.6692 29.5389L23.4789 26.4121L21.8555 28.1047L23.3442 27.0455L24.6146 30.4925L26.1507 27.4058L27.8178 27.9773Z" fill="#F5BB11"/>
<path opacity="0.6" d="M27.3341 26.5218C27.3341 27.4209 26.1875 28.1526 24.7715 28.1526C23.3556 28.1526 22.209 27.4209 22.209 26.5218C22.209 25.6228 23.3556 24.8911 24.7715 24.8911C26.1875 24.8911 27.3341 25.6228 27.3341 26.5218Z" fill="#FFFFFD"/>
<path d="M24.4871 24.3702L24.7746 22.7358L25.0622 24.3702H24.4871ZM23.0747 24.7597L22.0119 23.4893L22.5797 25.0472L23.0747 24.7597ZM21.5496 26.0919L19.9917 25.5241L21.262 26.587L21.5496 26.0919ZM20.898 28.0066L19.2637 28.2941L20.898 28.5817V28.0066ZM21.2875 29.9903L20.0171 31.0532L21.5751 30.4854L21.2875 29.9903ZM28.0397 30.4453L29.5976 31.0132L28.3273 29.9503L28.0397 30.4453ZM28.6949 28.5307L30.3293 28.2432L28.6949 27.9556V28.5307ZM28.3054 26.5469L29.5758 25.484L28.0179 26.0519L28.3054 26.5469ZM26.9732 25.0218L27.541 23.4638L26.4781 24.7342L26.9732 25.0218Z" fill="#F5BB11"/>
</g>
<defs>
<filter id="filter0_d" x="13.3838" y="18.2305" width="52.6631" height="46.1002" filterUnits="userSpaceOnUse" color-interpolation-filters="sRGB">
<feFlood flood-opacity="0" result="BackgroundImageFix"/>
<feColorMatrix in="SourceAlpha" type="matrix" values="0 0 0 0 0 0 0 0 0 0 0 0 0 0 0 0 0 0 127 0" result="hardAlpha"/>
<feOffset dy="1"/>
<feGaussianBlur stdDeviation="1"/>
<feColorMatrix type="matrix" values="0 0 0 0 0 0 0 0 0 0 0 0 0 0 0 0 0 0 0.05 0"/>
<feBlend mode="normal" in2="BackgroundImageFix" result="effect1_dropShadow"/>
<feBlend mode="normal" in="SourceGraphic" in2="effect1_dropShadow" result="shape"/>
</filter>
</defs>
</svg>
