<svg width="291" height="85" viewBox="0 0 291 85" fill="none" xmlns="http://www.w3.org/2000/svg">
<path d="M250.941 84.2967H39.4049C17.6444 84.2967 0 70.4888 0 53.4407V43.5708C0 28.3297 14.2026 15.3817 33.4345 13.0637L139.203 0.364934C143.164 -0.108624 147.196 -0.108624 151.157 0.364934L256.926 13.0637C276.157 15.3692 290.36 28.3297 290.36 43.5708V53.4407C290.346 70.4888 272.702 84.2967 250.941 84.2967Z" fill="#F7A02D"/>
<path d="M250.941 77.4048H39.4051C17.6446 77.4048 0.000244141 64.7185 0.000244141 49.0662V40.0062C0.000244141 26.0114 14.2029 14.1226 33.4347 11.9916L139.203 0.327128C143.164 -0.109043 147.196 -0.109043 151.158 0.327128L256.926 11.9916C276.158 14.1101 290.36 26.0114 290.36 40.0062V49.0662C290.346 64.7185 272.702 77.4048 250.941 77.4048Z" fill="#FFD159"/>
<path d="M247.626 73.4291H42.7202C21.634 73.4291 4.55151 62.0513 4.55151 48.0066V39.8813C4.55151 27.332 18.3046 16.6645 36.9324 14.7579L139.385 4.28974C143.22 3.90342 147.126 3.90342 150.961 4.28974L253.413 14.7579C272.041 16.6645 285.794 27.332 285.794 39.8813V48.0066C285.808 62.0388 268.712 73.4291 247.626 73.4291Z" fill="url(#paint0_linear_5946_145867)"/>
<defs>
<linearGradient id="paint0_linear_5946_145867" x1="124.207" y1="-22.5757" x2="175.318" y2="183.499" gradientUnits="userSpaceOnUse">
<stop offset="0.106793" stop-color="#F8BF2A"/>
<stop offset="0.48132" stop-color="#F8BF2A" stop-opacity="0.24"/>
</linearGradient>
</defs>
</svg>
