<svg width="22" height="22" viewBox="0 0 22 22" fill="none" xmlns="http://www.w3.org/2000/svg">
<path d="M9.95309 3.21979C10.2831 2.20669 11.7164 2.20669 12.0453 3.21979L13.2223 6.84099C13.2942 7.06152 13.434 7.25368 13.6217 7.39C13.8094 7.52632 14.0353 7.59981 14.2673 7.59999H18.0755C19.1414 7.59999 19.5836 8.96399 18.7223 9.59099L15.6423 11.8284C15.4542 11.9648 15.3142 12.1573 15.2423 12.3782C15.1703 12.5992 15.1702 12.8372 15.2419 13.0582L16.4189 16.6794C16.7489 17.6925 15.5884 18.5362 14.7249 17.9092L11.6449 15.6718C11.457 15.5354 11.2308 15.4619 10.9986 15.4619C10.7665 15.4619 10.5403 15.5354 10.3524 15.6718L7.27239 17.9092C6.40999 18.5362 5.25059 17.6925 5.57949 16.6794L6.75649 13.0582C6.82818 12.8372 6.82805 12.5992 6.75612 12.3782C6.68419 12.1573 6.54416 11.9648 6.35609 11.8284L3.27719 9.59209C2.41589 8.96509 2.85919 7.60109 3.92399 7.60109H7.73109C7.96324 7.60115 8.18946 7.52776 8.37737 7.39142C8.56527 7.25509 8.70522 7.0628 8.77719 6.84209L9.95419 3.22089L9.95309 3.21979Z" fill="#75767E"/>
</svg>
