<svg width="76" height="32" viewBox="0 0 76 32" fill="none" xmlns="http://www.w3.org/2000/svg">
<mask id="path-1-inside-1_8658_39895" fill="white">
<path fill-rule="evenodd" clip-rule="evenodd" d="M0 2.19691C0 0.983588 0.983588 0 2.19691 0H73.8031C75.0164 0 76 0.983588 76 2.19691V11.2136C75.8132 11.2046 75.6245 11.2 75.4342 11.2C71.2681 11.2 67.8908 13.4041 67.8908 16.1231C67.8908 18.842 71.2681 21.0462 75.4342 21.0462C75.6245 21.0462 75.8132 21.0416 76 21.0325V29.8031C76 31.0164 75.0164 32 73.8031 32H2.1969C0.983588 32 0 31.0164 0 29.8031V21.0276C3.85718 20.8095 6.88371 18.6969 6.88371 16.1231C6.88371 13.5492 3.85718 11.4367 0 11.2186V2.19691Z"/>
</mask>
<path fill-rule="evenodd" clip-rule="evenodd" d="M0 2.19691C0 0.983588 0.983588 0 2.19691 0H73.8031C75.0164 0 76 0.983588 76 2.19691V11.2136C75.8132 11.2046 75.6245 11.2 75.4342 11.2C71.2681 11.2 67.8908 13.4041 67.8908 16.1231C67.8908 18.842 71.2681 21.0462 75.4342 21.0462C75.6245 21.0462 75.8132 21.0416 76 21.0325V29.8031C76 31.0164 75.0164 32 73.8031 32H2.1969C0.983588 32 0 31.0164 0 29.8031V21.0276C3.85718 20.8095 6.88371 18.6969 6.88371 16.1231C6.88371 13.5492 3.85718 11.4367 0 11.2186V2.19691Z" fill="white"/>
<path d="M76 11.2136L75.9758 11.7131L76.5 11.7384V11.2136H76ZM76 21.0325H76.5V20.5077L75.9758 20.5331L76 21.0325ZM0 21.0276L-0.0282271 20.5284L-0.5 20.5551V21.0276H0ZM0 11.2186H-0.5V11.6911L-0.0282271 11.7178L0 11.2186ZM2.19691 -0.5C1.83215 -0.5 1.48311 -0.427312 1.16443 -0.295161L1.54748 0.628565C1.74687 0.545884 1.9659 0.5 2.19691 0.5V-0.5ZM-0.295161 1.16443C-0.427312 1.48311 -0.5 1.83215 -0.5 2.19691H0.5C0.5 1.9659 0.545884 1.74687 0.628565 1.54748L-0.295161 1.16443ZM-0.5 2.19691V3.32461H0.5V2.19691H-0.5ZM-0.5 5.58003V7.83544H0.5V5.58003H-0.5ZM-0.5 10.0909V11.2186H0.5V10.0909H-0.5ZM-0.0282271 11.7178C0.346951 11.739 0.713461 11.7789 1.06907 11.836L1.22758 10.8486C0.837887 10.7861 0.437309 10.7425 0.0282271 10.7194L-0.0282271 11.7178ZM3.17807 12.4223C3.89697 12.7192 4.5189 13.0938 5.01785 13.521L5.66818 12.7613C5.07849 12.2565 4.36278 11.8297 3.55983 11.498L3.17807 12.4223ZM6.21304 15.1609C6.32527 15.4722 6.38371 15.7938 6.38371 16.1231H7.38371C7.38371 15.6734 7.30354 15.2372 7.15379 14.8217L6.21304 15.1609ZM6.38371 16.1231C6.38371 16.4523 6.32527 16.774 6.21304 17.0853L7.15378 17.4244C7.30354 17.009 7.38371 16.5728 7.38371 16.1231H6.38371ZM5.01785 18.7252C4.5189 19.1523 3.89697 19.5269 3.17807 19.8239L3.55983 20.7481C4.36278 20.4165 5.07849 19.9897 5.66818 19.4848L5.01785 18.7252ZM1.06907 20.4102C0.713461 20.4672 0.346951 20.5072 -0.0282271 20.5284L0.0282271 21.5268C0.437309 21.5037 0.837887 21.4601 1.22758 21.3975L1.06907 20.4102ZM-0.5 21.0276V22.1245H0.5V21.0276H-0.5ZM-0.5 24.3184V26.5123H0.5V24.3184H-0.5ZM-0.5 28.7062V29.8031H0.5V28.7062H-0.5ZM-0.5 29.8031C-0.5 30.1679 -0.427312 30.5169 -0.295161 30.8356L0.628565 30.4525C0.545884 30.2531 0.5 30.0341 0.5 29.8031H-0.5ZM1.16443 32.2952C1.48311 32.4273 1.83215 32.5 2.1969 32.5V31.5C1.9659 31.5 1.74687 31.4541 1.54748 31.3714L1.16443 32.2952ZM2.1969 32.5H3.19144V31.5H2.1969V32.5ZM5.1805 32.5H7.16956V31.5H5.1805V32.5ZM9.15862 32.5H11.1477V31.5H9.15862V32.5ZM13.1367 32.5H15.1258V31.5H13.1367V32.5ZM17.1149 32.5H19.1039V31.5H17.1149V32.5ZM21.093 32.5H23.082V31.5H21.093V32.5ZM25.0711 32.5H27.0602V31.5H25.0711V32.5ZM29.0492 32.5H31.0383V31.5H29.0492V32.5ZM33.0274 32.5H35.0164V31.5H33.0274V32.5ZM37.0055 32.5H38.9945V31.5H37.0055V32.5ZM40.9836 32.5H42.9726V31.5H40.9836V32.5ZM44.9617 32.5H46.9508V31.5H44.9617V32.5ZM48.9398 32.5H50.9289V31.5H48.9398V32.5ZM52.9179 32.5H54.907V31.5H52.9179V32.5ZM56.8961 32.5H58.8851V31.5H56.8961V32.5ZM60.8742 32.5H62.8632V31.5H60.8742V32.5ZM64.8523 32.5H66.8414V31.5H64.8523V32.5ZM68.8304 32.5H70.8195V31.5H68.8304V32.5ZM72.8085 32.5H73.8031V31.5H72.8085V32.5ZM73.8031 32.5C74.1678 32.5 74.5169 32.4273 74.8356 32.2952L74.4525 31.3714C74.2531 31.4541 74.0341 31.5 73.8031 31.5V32.5ZM76.2952 30.8356C76.4273 30.5169 76.5 30.1679 76.5 29.8031H75.5C75.5 30.0341 75.4541 30.2531 75.3714 30.4525L76.2952 30.8356ZM76.5 29.8031V28.7068H75.5V29.8031H76.5ZM76.5 26.5141V24.3215H75.5V26.5141H76.5ZM76.5 22.1288V21.0325H75.5V22.1288H76.5ZM75.9758 20.5331C75.9309 20.5353 75.8857 20.5372 75.8405 20.5388L75.8767 21.5382C75.926 21.5364 75.9751 21.5343 76.0242 21.5319L75.9758 20.5331ZM75.5697 20.5453C75.5246 20.5459 75.4795 20.5462 75.4342 20.5462V21.5462C75.4835 21.5462 75.5326 21.5459 75.5817 21.5453L75.5697 20.5453ZM75.4342 20.5462C75.0312 20.5462 74.6362 20.5246 74.252 20.4833L74.1451 21.4776C74.565 21.5227 74.9956 21.5462 75.4342 21.5462V20.5462ZM71.96 19.9644C71.1727 19.6804 70.4863 19.3058 69.9322 18.8693L69.3134 19.6549C69.9625 20.1661 70.7462 20.5896 71.6207 20.9051L71.96 19.9644ZM68.5863 17.1518C68.4578 16.8197 68.3908 16.4756 68.3908 16.1231H67.3908C67.3908 16.6049 67.4828 17.071 67.6536 17.5126L68.5863 17.1518ZM68.3908 16.1231C68.3908 15.7705 68.4578 15.4265 68.5863 15.0944L67.6536 14.7335C67.4828 15.1751 67.3908 15.6412 67.3908 16.1231H68.3908ZM69.9322 13.3768C70.4863 12.9404 71.1727 12.5657 71.96 12.2817L71.6207 11.3411C70.7462 11.6565 69.9625 12.08 69.3134 12.5913L69.9322 13.3768ZM74.252 11.7629C74.6362 11.7215 75.0312 11.7 75.4342 11.7V10.7C74.9956 10.7 74.565 10.7234 74.1451 10.7686L74.252 11.7629ZM75.4342 11.7C75.4795 11.7 75.5246 11.7003 75.5697 11.7008L75.5817 10.7009C75.5326 10.7003 75.4835 10.7 75.4342 10.7V11.7ZM75.8405 11.7073C75.8857 11.709 75.9308 11.7109 75.9758 11.7131L76.0242 10.7142C75.9751 10.7119 75.926 10.7098 75.8767 10.708L75.8405 11.7073ZM76.5 11.2136V10.0865H75.5V11.2136H76.5ZM76.5 7.83236V5.57818H75.5V7.83236H76.5ZM76.5 3.324V2.19691H75.5V3.324H76.5ZM76.5 2.19691C76.5 1.83215 76.4273 1.48311 76.2952 1.16443L75.3714 1.54748C75.4541 1.74687 75.5 1.9659 75.5 2.19691H76.5ZM74.8356 -0.295161C74.5169 -0.427312 74.1678 -0.5 73.8031 -0.5V0.5C74.0341 0.5 74.2531 0.545884 74.4525 0.628565L74.8356 -0.295161ZM73.8031 -0.5H72.8086V0.5H73.8031V-0.5ZM70.8195 -0.5H68.8304V0.5H70.8195V-0.5ZM66.8414 -0.5H64.8523V0.5H66.8414V-0.5ZM62.8633 -0.5H60.8742V0.5H62.8633V-0.5ZM58.8851 -0.5H56.8961V0.5H58.8851V-0.5ZM54.907 -0.5H52.918V0.5H54.907V-0.5ZM50.9289 -0.5H48.9398V0.5H50.9289V-0.5ZM46.9508 -0.5H44.9617V0.5H46.9508V-0.5ZM42.9726 -0.5H40.9836V0.5H42.9726V-0.5ZM38.9945 -0.5H37.0055V0.5H38.9945V-0.5ZM35.0164 -0.5H33.0273V0.5H35.0164V-0.5ZM31.0383 -0.5H29.0492V0.5H31.0383V-0.5ZM27.0602 -0.5H25.0711V0.5H27.0602V-0.5ZM23.0821 -0.5H21.093V0.5H23.0821V-0.5ZM19.1039 -0.5H17.1149V0.5H19.1039V-0.5ZM15.1258 -0.5H13.1368V0.5H15.1258V-0.5ZM11.1477 -0.5H9.15864V0.5H11.1477V-0.5ZM7.16958 -0.5H5.18052V0.5H7.16958V-0.5ZM3.19146 -0.5H2.19691V0.5H3.19146V-0.5ZM76 11.2136L75.9517 12.2125L77 12.2632V11.2136H76ZM76 21.0325H77V19.983L75.9517 20.0337L76 21.0325ZM0 21.0276L-0.0564542 20.0292L-1 20.0825V21.0276H0ZM0 11.2186H-1V12.1636L-0.0564542 12.217L0 11.2186ZM2.19691 -1C1.76527 -1 1.35123 -0.91391 0.972903 -0.757024L1.73901 1.09043C1.87875 1.03248 2.03277 1 2.19691 1V-1ZM-0.757024 0.972902C-0.91391 1.35123 -1 1.76527 -1 2.19691H1C1 2.03277 1.03248 1.87875 1.09043 1.73901L-0.757024 0.972902ZM-1 2.19691V3.32461H1V2.19691H-1ZM-1 5.58003V7.83544H1V5.58003H-1ZM-1 10.0909V11.2186H1V10.0909H-1ZM-0.0564542 12.217C0.301772 12.2372 0.651248 12.2753 0.989816 12.3297L1.30684 10.355C0.9001 10.2897 0.482487 10.2443 0.0564542 10.2202L-0.0564542 12.217ZM2.98718 12.8844C3.66407 13.164 4.2391 13.5125 4.69268 13.9008L5.99335 12.3815C5.35829 11.8378 4.59569 11.3849 3.75072 11.0359L2.98718 12.8844ZM5.74267 15.3304C5.83613 15.5897 5.88371 15.854 5.88371 16.1231H7.88371C7.88371 15.6132 7.79268 15.1197 7.62416 14.6522L5.74267 15.3304ZM5.88371 16.1231C5.88371 16.3921 5.83613 16.6565 5.74267 16.9157L7.62416 17.594C7.79268 17.1265 7.88371 16.633 7.88371 16.1231H5.88371ZM4.69268 18.3454C4.2391 18.7337 3.66407 19.0822 2.98718 19.3618L3.75072 21.2103C4.59569 20.8613 5.35829 20.4083 5.99335 19.8647L4.69268 18.3454ZM0.989816 19.9165C0.651248 19.9708 0.301772 20.0089 -0.0564542 20.0292L0.0564542 22.026C0.482487 22.0019 0.9001 21.9565 1.30684 21.8912L0.989816 19.9165ZM-1 21.0276V22.1245H1V21.0276H-1ZM-1 24.3184V26.5123H1V24.3184H-1ZM-1 28.7062V29.8031H1V28.7062H-1ZM-1 29.8031C-1 30.2347 -0.91391 30.6488 -0.757024 31.0271L1.09043 30.261C1.03248 30.1213 1 29.9672 1 29.8031H-1ZM0.972902 32.757C1.35123 32.9139 1.76527 33 2.1969 33V31C2.03277 31 1.87875 30.9675 1.73901 30.9096L0.972902 32.757ZM2.1969 33H3.19144V31H2.1969V33ZM5.1805 33H7.16956V31H5.1805V33ZM9.15862 33H11.1477V31H9.15862V33ZM13.1367 33H15.1258V31H13.1367V33ZM17.1149 33H19.1039V31H17.1149V33ZM21.093 33H23.082V31H21.093V33ZM25.0711 33H27.0602V31H25.0711V33ZM29.0492 33H31.0383V31H29.0492V33ZM33.0274 33H35.0164V31H33.0274V33ZM37.0055 33H38.9945V31H37.0055V33ZM40.9836 33H42.9726V31H40.9836V33ZM44.9617 33H46.9508V31H44.9617V33ZM48.9398 33H50.9289V31H48.9398V33ZM52.9179 33H54.907V31H52.9179V33ZM56.8961 33H58.8851V31H56.8961V33ZM60.8742 33H62.8632V31H60.8742V33ZM64.8523 33H66.8414V31H64.8523V33ZM68.8304 33H70.8195V31H68.8304V33ZM72.8085 33H73.8031V31H72.8085V33ZM73.8031 33C74.2347 33 74.6488 32.9139 75.0271 32.757L74.261 30.9096C74.1213 30.9675 73.9672 31 73.8031 31V33ZM76.757 31.0271C76.9139 30.6488 77 30.2347 77 29.8031H75C75 29.9672 74.9675 30.1213 74.9096 30.261L76.757 31.0271ZM77 29.8031V28.7068H75V29.8031H77ZM77 26.5141V24.3215H75V26.5141H77ZM77 22.1288V21.0325H75V22.1288H77ZM75.9517 20.0337C75.9087 20.0358 75.8656 20.0376 75.8224 20.0391L75.8948 22.0378C75.9461 22.036 75.9973 22.0338 76.0483 22.0313L75.9517 20.0337ZM75.5637 20.0454C75.5206 20.0459 75.4775 20.0462 75.4342 20.0462V22.0462C75.4855 22.0462 75.5366 22.0458 75.5877 22.0452L75.5637 20.0454ZM75.4342 20.0462C75.049 20.0462 74.6719 20.0256 74.3055 19.9862L74.0916 21.9747C74.5293 22.0218 74.9778 22.0462 75.4342 22.0462V20.0462ZM72.1297 19.4941C71.386 19.2258 70.7483 18.8756 70.2416 18.4765L69.0041 20.0477C69.7006 20.5963 70.5329 21.0442 71.4511 21.3754L72.1297 19.4941ZM69.0526 16.9713C68.9453 16.694 68.8908 16.411 68.8908 16.1231H66.8908C66.8908 16.6695 66.9953 17.1967 67.1873 17.693L69.0526 16.9713ZM68.8908 16.1231C68.8908 15.8352 68.9453 15.5522 69.0526 15.2748L67.1873 14.5531C66.9953 15.0495 66.8908 15.5766 66.8908 16.1231H68.8908ZM70.2416 13.7696C70.7483 13.3705 71.386 13.0204 72.1297 12.7521L71.4511 10.8707C70.5329 11.2019 69.7006 11.6499 69.004 12.1985L70.2416 13.7696ZM74.3055 12.26C74.6719 12.2206 75.049 12.2 75.4342 12.2V10.2C74.9778 10.2 74.5293 10.2244 74.0916 10.2715L74.3055 12.26ZM75.4342 12.2C75.4775 12.2 75.5206 12.2003 75.5637 12.2008L75.5877 10.2009C75.5366 10.2003 75.4855 10.2 75.4342 10.2V12.2ZM75.8224 12.207C75.8656 12.2086 75.9087 12.2104 75.9517 12.2125L76.0483 10.2148C75.9973 10.2123 75.9461 10.2102 75.8948 10.2083L75.8224 12.207ZM77 11.2136V10.0865H75V11.2136H77ZM77 7.83236V5.57818H75V7.83236H77ZM77 3.324V2.19691H75V3.324H77ZM77 2.19691C77 1.76527 76.9139 1.35123 76.757 0.972902L74.9096 1.73901C74.9675 1.87875 75 2.03277 75 2.19691H77ZM75.0271 -0.757024C74.6488 -0.91391 74.2347 -1 73.8031 -1V1C73.9672 1 74.1213 1.03248 74.261 1.09043L75.0271 -0.757024ZM73.8031 -1H72.8086V1H73.8031V-1ZM70.8195 -1H68.8304V1H70.8195V-1ZM66.8414 -1H64.8523V1H66.8414V-1ZM62.8633 -1H60.8742V1H62.8633V-1ZM58.8851 -1H56.8961V1H58.8851V-1ZM54.907 -1H52.918V1H54.907V-1ZM50.9289 -1H48.9398V1H50.9289V-1ZM46.9508 -1H44.9617V1H46.9508V-1ZM42.9726 -1H40.9836V1H42.9726V-1ZM38.9945 -1H37.0055V1H38.9945V-1ZM35.0164 -1H33.0273V1H35.0164V-1ZM31.0383 -1H29.0492V1H31.0383V-1ZM27.0602 -1H25.0711V1H27.0602V-1ZM23.0821 -1H21.093V1H23.0821V-1ZM19.1039 -1H17.1149V1H19.1039V-1ZM15.1258 -1H13.1368V1H15.1258V-1ZM11.1477 -1H9.15864V1H11.1477V-1ZM7.16958 -1H5.18052V1H7.16958V-1ZM3.19146 -1H2.19691V1H3.19146V-1Z" fill="#336CCE" mask="url(#path-1-inside-1_8658_39895)"/>
</svg>
