<svg width="69" height="32" viewBox="0 0 69 32" fill="none" xmlns="http://www.w3.org/2000/svg">
<mask id="path-1-inside-1_8658_39901" fill="white">
<path fill-rule="evenodd" clip-rule="evenodd" d="M0 2.19691C0 0.983588 0.983588 0 2.1969 0H66.8031C68.0164 0 69 0.983588 69 2.19691V11.2136C68.8304 11.2046 68.6591 11.2 68.4863 11.2C64.7039 11.2 61.6377 13.4041 61.6377 16.1231C61.6377 18.842 64.7039 21.0462 68.4863 21.0462C68.6591 21.0462 68.8304 21.0416 69 21.0325V29.8031C69 31.0164 68.0164 32 66.8031 32H2.19691C0.983591 32 0 31.0164 0 29.8031V21.0276C3.50191 20.8095 6.24967 18.6969 6.24967 16.1231C6.24967 13.5492 3.50191 11.4367 0 11.2186V2.19691Z"/>
</mask>
<path fill-rule="evenodd" clip-rule="evenodd" d="M0 2.19691C0 0.983588 0.983588 0 2.1969 0H66.8031C68.0164 0 69 0.983588 69 2.19691V11.2136C68.8304 11.2046 68.6591 11.2 68.4863 11.2C64.7039 11.2 61.6377 13.4041 61.6377 16.1231C61.6377 18.842 64.7039 21.0462 68.4863 21.0462C68.6591 21.0462 68.8304 21.0416 69 21.0325V29.8031C69 31.0164 68.0164 32 66.8031 32H2.19691C0.983591 32 0 31.0164 0 29.8031V21.0276C3.50191 20.8095 6.24967 18.6969 6.24967 16.1231C6.24967 13.5492 3.50191 11.4367 0 11.2186V2.19691Z" fill="white"/>
<path d="M69 11.2136L68.9734 11.7129L69.5 11.741V11.2136H69ZM69 21.0325H69.5V20.5051L68.9734 20.5332L69 21.0325ZM0 21.0276L-0.0310804 20.5286L-0.5 20.5578V21.0276H0ZM0 11.2186H-0.5V11.6884L-0.0310806 11.7176L0 11.2186ZM2.1969 -0.5C1.83215 -0.5 1.48311 -0.427312 1.16443 -0.295161L1.54748 0.628565C1.74687 0.545884 1.9659 0.5 2.1969 0.5V-0.5ZM-0.295161 1.16443C-0.427312 1.48311 -0.5 1.83215 -0.5 2.19691H0.5C0.5 1.9659 0.545884 1.74687 0.628565 1.54748L-0.295161 1.16443ZM-0.5 2.19691V3.32461H0.5V2.19691H-0.5ZM-0.5 5.58003V7.83544H0.5V5.58003H-0.5ZM-0.5 10.0909V11.2186H0.5V10.0909H-0.5ZM-0.0310806 11.7176C0.318925 11.7394 0.660505 11.7811 0.991425 11.8411L1.16975 10.8571C0.800176 10.7902 0.419805 10.7437 0.0310806 10.7195L-0.0310806 11.7176ZM2.93783 12.4552C3.58666 12.761 4.14494 13.1452 4.58832 13.5825L5.29054 12.8706C4.758 12.3453 4.10344 11.899 3.36413 11.5506L2.93783 12.4552ZM5.60904 15.1984C5.70135 15.4971 5.74967 15.8063 5.74967 16.1231H6.74967C6.74967 15.7033 6.68548 15.2948 6.56446 14.9031L5.60904 15.1984ZM5.74967 16.1231C5.74967 16.4399 5.70135 16.749 5.60904 17.0478L6.56446 17.343C6.68548 16.9514 6.74967 16.5428 6.74967 16.1231H5.74967ZM4.58832 18.6636C4.14494 19.101 3.58666 19.4852 2.93783 19.791L3.36412 20.6956C4.10344 20.3471 4.758 19.9009 5.29054 19.3756L4.58832 18.6636ZM0.991425 20.405C0.660505 20.465 0.318925 20.5068 -0.0310804 20.5286L0.0310804 21.5266C0.419805 21.5024 0.800176 21.456 1.16975 21.389L0.991425 20.405ZM-0.5 21.0276V22.1245H0.5V21.0276H-0.5ZM-0.5 24.3184V26.5123H0.5V24.3184H-0.5ZM-0.5 28.7062V29.8031H0.5V28.7062H-0.5ZM-0.5 29.8031C-0.5 30.1679 -0.427312 30.5169 -0.29516 30.8356L0.628566 30.4525C0.545884 30.2531 0.5 30.0341 0.5 29.8031H-0.5ZM1.16443 32.2952C1.48311 32.4273 1.83215 32.5 2.19691 32.5V31.5C1.9659 31.5 1.74687 31.4541 1.54749 31.3714L1.16443 32.2952ZM2.19691 32.5H3.20638V31.5H2.19691V32.5ZM5.22532 32.5H7.24427V31.5H5.22532V32.5ZM9.26321 32.5H11.2822V31.5H9.26321V32.5ZM13.3011 32.5H15.32V31.5H13.3011V32.5ZM17.339 32.5H19.3579V31.5H17.339V32.5ZM21.3769 32.5H23.3958V31.5H21.3769V32.5ZM25.4148 32.5H27.4337V31.5H25.4148V32.5ZM29.4526 32.5H31.4716V31.5H29.4526V32.5ZM33.4905 32.5H35.5095V31.5H33.4905V32.5ZM37.5284 32.5H39.5474V31.5H37.5284V32.5ZM41.5663 32.5H43.5853V31.5H41.5663V32.5ZM45.6042 32.5H47.6231V31.5H45.6042V32.5ZM49.6421 32.5H51.661V31.5H49.6421V32.5ZM53.68 32.5H55.6989V31.5H53.68V32.5ZM57.7179 32.5H59.7368V31.5H57.7179V32.5ZM61.7557 32.5H63.7747V31.5H61.7557V32.5ZM65.7936 32.5H66.8031V31.5H65.7936V32.5ZM66.8031 32.5C67.1678 32.5 67.5169 32.4273 67.8356 32.2952L67.4525 31.3714C67.2531 31.4541 67.0341 31.5 66.8031 31.5V32.5ZM69.2952 30.8356C69.4273 30.5169 69.5 30.1679 69.5 29.8031H68.5C68.5 30.0341 68.4541 30.2531 68.3714 30.4525L69.2952 30.8356ZM69.5 29.8031V28.7068H68.5V29.8031H69.5ZM69.5 26.5141V24.3215H68.5V26.5141H69.5ZM69.5 22.1288V21.0325H68.5V22.1288H69.5ZM68.9734 20.5332C68.9329 20.5354 68.8924 20.5373 68.8517 20.5389L68.8916 21.5381C68.9367 21.5363 68.9817 21.5342 69.0266 21.5318L68.9734 20.5332ZM68.6082 20.5453C68.5676 20.5459 68.527 20.5462 68.4863 20.5462V21.5462C68.5314 21.5462 68.5765 21.5459 68.6214 21.5453L68.6082 20.5453ZM68.4863 20.5462C68.1108 20.5462 67.7432 20.5233 67.3861 20.4794L67.2642 21.472C67.6619 21.5208 68.0702 21.5462 68.4863 21.5462V20.5462ZM65.2698 19.9324C64.5577 19.6383 63.9405 19.2524 63.4474 18.8041L62.7747 19.5441C63.3624 20.0784 64.081 20.5233 64.888 20.8567L65.2698 19.9324ZM62.2981 17.1096C62.1929 16.7917 62.1377 16.4617 62.1377 16.1231H61.1377C61.1377 16.5719 61.2111 17.0078 61.3487 17.4238L62.2981 17.1096ZM62.1377 16.1231C62.1377 15.7844 62.1929 15.4545 62.2981 15.1365L61.3487 14.8223C61.2111 15.2384 61.1377 15.6743 61.1377 16.1231H62.1377ZM63.4474 13.442C63.9405 12.9938 64.5577 12.6079 65.2698 12.3137L64.888 11.3895C64.081 11.7228 63.3624 12.1678 62.7747 12.7021L63.4474 13.442ZM67.3861 11.7667C67.7432 11.7229 68.1108 11.7 68.4863 11.7V10.7C68.0702 10.7 67.6619 10.7254 67.2642 10.7742L67.3861 11.7667ZM68.4863 11.7C68.527 11.7 68.5676 11.7003 68.6082 11.7008L68.6214 10.7009C68.5765 10.7003 68.5314 10.7 68.4863 10.7V11.7ZM68.8517 11.7073C68.8924 11.7089 68.9329 11.7108 68.9734 11.7129L69.0266 10.7143C68.9817 10.712 68.9367 10.7099 68.8916 10.7081L68.8517 11.7073ZM69.5 11.2136V10.0865H68.5V11.2136H69.5ZM69.5 7.83236V5.57818H68.5V7.83236H69.5ZM69.5 3.324V2.19691H68.5V3.324H69.5ZM69.5 2.19691C69.5 1.83215 69.4273 1.48311 69.2952 1.16443L68.3714 1.54748C68.4541 1.74687 68.5 1.9659 68.5 2.19691H69.5ZM67.8356 -0.295161C67.5169 -0.427312 67.1678 -0.5 66.8031 -0.5V0.5C67.0341 0.5 67.2531 0.545884 67.4525 0.628565L67.8356 -0.295161ZM66.8031 -0.5H65.7936V0.5H66.8031V-0.5ZM63.7747 -0.5H61.7557V0.5H63.7747V-0.5ZM59.7368 -0.5H57.7178V0.5H59.7368V-0.5ZM55.6989 -0.5H53.68V0.5H55.6989V-0.5ZM51.661 -0.5H49.6421V0.5H51.661V-0.5ZM47.6231 -0.5H45.6042V0.5H47.6231V-0.5ZM43.5852 -0.5H41.5663V0.5H43.5852V-0.5ZM39.5474 -0.5H37.5284V0.5H39.5474V-0.5ZM35.5095 -0.5H33.4905V0.5H35.5095V-0.5ZM31.4716 -0.5H29.4526V0.5H31.4716V-0.5ZM27.4337 -0.5H25.4147V0.5H27.4337V-0.5ZM23.3958 -0.5H21.3769V0.5H23.3958V-0.5ZM19.3579 -0.5H17.339V0.5H19.3579V-0.5ZM15.32 -0.5H13.3011V0.5H15.32V-0.5ZM11.2821 -0.5H9.2632V0.5H11.2821V-0.5ZM7.24425 -0.5H5.22531V0.5H7.24425V-0.5ZM3.20637 -0.5H2.1969V0.5H3.20637V-0.5ZM69 11.2136L68.9468 12.2122L70 12.2684V11.2136H69ZM69 21.0325H70V19.9778L68.9468 20.0339L69 21.0325ZM0 21.0276L-0.0621609 20.0295L-1 20.0879V21.0276H0ZM0 11.2186H-1V12.1582L-0.0621612 12.2166L0 11.2186ZM2.1969 -1C1.76527 -1 1.35123 -0.91391 0.972902 -0.757024L1.73901 1.09043C1.87875 1.03248 2.03277 1 2.1969 1V-1ZM-0.757024 0.972903C-0.91391 1.35123 -1 1.76527 -1 2.19691H1C1 2.03277 1.03248 1.87875 1.09043 1.73901L-0.757024 0.972903ZM-1 2.19691V3.32461H1V2.19691H-1ZM-1 5.58003V7.83544H1V5.58003H-1ZM-1 10.0909V11.2186H1V10.0909H-1ZM-0.0621612 12.2166C0.268486 12.2372 0.59067 12.2766 0.902263 12.3331L1.25891 10.3652C0.870011 10.2947 0.470245 10.2459 0.0621612 10.2205L-0.0621612 12.2166ZM2.72469 12.9075C3.32827 13.1919 3.83841 13.5451 4.2372 13.9385L5.64165 12.5146C5.06453 11.9453 4.36183 11.468 3.57727 11.0983L2.72469 12.9075ZM5.13132 15.346C5.20929 15.5983 5.24967 15.8577 5.24967 16.1231H7.24967C7.24967 15.6519 7.17754 15.1936 7.04217 14.7555L5.13132 15.346ZM5.24967 16.1231C5.24967 16.3884 5.20929 16.6478 5.13132 16.9001L7.04217 17.4906C7.17754 17.0526 7.24967 16.5943 7.24967 16.1231H5.24967ZM4.2372 18.3077C3.8384 18.701 3.32827 19.0542 2.72469 19.3387L3.57727 21.1478C4.36183 20.7781 5.06453 20.3008 5.64165 19.7316L4.2372 18.3077ZM0.902263 19.9131C0.59067 19.9695 0.268486 20.0089 -0.0621609 20.0295L0.0621609 22.0257C0.470244 22.0002 0.870011 21.9515 1.25891 21.881L0.902263 19.9131ZM-1 21.0276V22.1245H1V21.0276H-1ZM-1 24.3184V26.5123H1V24.3184H-1ZM-1 28.7062V29.8031H1V28.7062H-1ZM-1 29.8031C-1 30.2347 -0.913909 30.6488 -0.757023 31.0271L1.09043 30.261C1.03248 30.1213 1 29.9672 1 29.8031H-1ZM0.972906 32.757C1.35123 32.9139 1.76528 33 2.19691 33V31C2.03278 31 1.87875 30.9675 1.73901 30.9096L0.972906 32.757ZM2.19691 33H3.20638V31H2.19691V33ZM5.22532 33H7.24427V31H5.22532V33ZM9.26321 33H11.2822V31H9.26321V33ZM13.3011 33H15.32V31H13.3011V33ZM17.339 33H19.3579V31H17.339V33ZM21.3769 33H23.3958V31H21.3769V33ZM25.4148 33H27.4337V31H25.4148V33ZM29.4526 33H31.4716V31H29.4526V33ZM33.4905 33H35.5095V31H33.4905V33ZM37.5284 33H39.5474V31H37.5284V33ZM41.5663 33H43.5853V31H41.5663V33ZM45.6042 33H47.6231V31H45.6042V33ZM49.6421 33H51.661V31H49.6421V33ZM53.68 33H55.6989V31H53.68V33ZM57.7179 33H59.7368V31H57.7179V33ZM61.7557 33H63.7747V31H61.7557V33ZM65.7936 33H66.8031V31H65.7936V33ZM66.8031 33C67.2347 33 67.6488 32.9139 68.0271 32.757L67.261 30.9096C67.1213 30.9675 66.9672 31 66.8031 31V33ZM69.757 31.0271C69.9139 30.6488 70 30.2347 70 29.8031H68C68 29.9672 67.9675 30.1213 67.9096 30.261L69.757 31.0271ZM70 29.8031V28.7068H68V29.8031H70ZM70 26.5141V24.3215H68V26.5141H70ZM70 22.1288V21.0325H68V22.1288H70ZM68.9468 20.0339C68.9086 20.036 68.8702 20.0378 68.8318 20.0393L68.9115 22.0377C68.9588 22.0358 69.0061 22.0336 69.0532 22.0311L68.9468 20.0339ZM68.6016 20.0454C68.5632 20.0459 68.5248 20.0462 68.4863 20.0462V22.0462C68.5336 22.0462 68.5809 22.0458 68.628 22.0452L68.6016 20.0454ZM68.4863 20.0462C68.1311 20.0462 67.7839 20.0245 67.447 19.9831L67.2033 21.9682C67.6212 22.0195 68.0499 22.0462 68.4863 22.0462V20.0462ZM65.4607 19.4703C64.7961 19.1958 64.2295 18.8394 63.7838 18.4342L62.4384 19.914C63.0734 20.4914 63.8427 20.9658 64.6972 21.3188L65.4607 19.4703ZM62.7728 16.9525C62.6838 16.6836 62.6377 16.4066 62.6377 16.1231H60.6377C60.6377 16.627 60.7201 17.1159 60.8741 17.5809L62.7728 16.9525ZM62.6377 16.1231C62.6377 15.8395 62.6838 15.5626 62.7728 15.2936L60.8741 14.6652C60.7201 15.1303 60.6377 15.6192 60.6377 16.1231H62.6377ZM63.7838 13.812C64.2295 13.4068 64.7961 13.0504 65.4607 12.7758L64.6972 10.9273C63.8427 11.2803 63.0734 11.7548 62.4384 12.3321L63.7838 13.812ZM67.447 12.263C67.7839 12.2217 68.1311 12.2 68.4863 12.2V10.2C68.0499 10.2 67.6212 10.2266 67.2033 10.2779L67.447 12.263ZM68.4863 12.2C68.5248 12.2 68.5632 12.2003 68.6016 12.2008L68.628 10.2009C68.5809 10.2003 68.5336 10.2 68.4863 10.2V12.2ZM68.8318 12.2069C68.8702 12.2084 68.9086 12.2102 68.9468 12.2122L69.0532 10.2151C69.0061 10.2125 68.9588 10.2103 68.9115 10.2085L68.8318 12.2069ZM70 11.2136V10.0865H68V11.2136H70ZM70 7.83236V5.57818H68V7.83236H70ZM70 3.324V2.19691H68V3.324H70ZM70 2.19691C70 1.76527 69.9139 1.35123 69.757 0.972902L67.9096 1.73901C67.9675 1.87875 68 2.03277 68 2.19691H70ZM68.0271 -0.757024C67.6488 -0.91391 67.2347 -1 66.8031 -1V1C66.9672 1 67.1213 1.03248 67.261 1.09043L68.0271 -0.757024ZM66.8031 -1H65.7936V1H66.8031V-1ZM63.7747 -1H61.7557V1H63.7747V-1ZM59.7368 -1H57.7178V1H59.7368V-1ZM55.6989 -1H53.68V1H55.6989V-1ZM51.661 -1H49.6421V1H51.661V-1ZM47.6231 -1H45.6042V1H47.6231V-1ZM43.5852 -1H41.5663V1H43.5852V-1ZM39.5474 -1H37.5284V1H39.5474V-1ZM35.5095 -1H33.4905V1H35.5095V-1ZM31.4716 -1H29.4526V1H31.4716V-1ZM27.4337 -1H25.4147V1H27.4337V-1ZM23.3958 -1H21.3769V1H23.3958V-1ZM19.3579 -1H17.339V1H19.3579V-1ZM15.32 -1H13.3011V1H15.32V-1ZM11.2821 -1H9.2632V1H11.2821V-1ZM7.24425 -1H5.22531V1H7.24425V-1ZM3.20637 -1H2.1969V1H3.20637V-1Z" fill="#CF3135" mask="url(#path-1-inside-1_8658_39901)"/>
</svg>
