<svg width="16" height="16" viewBox="0 0 16 16" fill="none" xmlns="http://www.w3.org/2000/svg">
<path fill-rule="evenodd" clip-rule="evenodd" d="M8.00039 7.19999C8.63691 7.19999 9.24736 6.94714 9.69745 6.49705C10.1475 6.04696 10.4004 5.43651 10.4004 4.79999C10.4004 4.16347 10.1475 3.55303 9.69745 3.10294C9.24736 2.65285 8.63691 2.39999 8.00039 2.39999C7.36387 2.39999 6.75342 2.65285 6.30333 3.10294C5.85325 3.55303 5.60039 4.16347 5.60039 4.79999C5.60039 5.43651 5.85325 6.04696 6.30333 6.49705C6.75342 6.94714 7.36387 7.19999 8.00039 7.19999ZM2.40039 14.4C2.40039 13.6646 2.54524 12.9364 2.82667 12.257C3.10809 11.5775 3.52058 10.9602 4.04059 10.4402C4.5606 9.92019 5.17794 9.5077 5.85736 9.22627C6.53679 8.94484 7.26499 8.79999 8.00039 8.79999C8.73579 8.79999 9.464 8.94484 10.1434 9.22627C10.8228 9.5077 11.4402 9.92019 11.9602 10.4402C12.4802 10.9602 12.8927 11.5775 13.1741 12.257C13.4555 12.9364 13.6004 13.6646 13.6004 14.4H2.40039Z" fill="#75767E"/>
</svg>
