<svg width="36" height="40" viewBox="0 0 36 40" fill="none" xmlns="http://www.w3.org/2000/svg">
<g filter="url(#filter0_d_5946_145845)">
<path d="M12.2804 17.8087C12.2693 17.8198 12.262 17.8308 12.2546 17.8382C12.0922 18.0227 11.9114 18.1592 11.7158 18.2515C11.5387 18.3327 11.3505 18.377 11.1586 18.377C11.0627 18.377 10.9705 18.3659 10.8745 18.3474L11.5276 17.1998C11.9446 16.7238 12.1254 15.7165 11.904 15.0781C11.7417 14.6131 11.4502 14.5578 11.3542 14.543L11.3136 14.5356C9.48706 14.0412 7.83762 13.115 6.45017 11.8751C6.23246 11.6796 6.02582 11.4766 5.81918 11.27C5.59777 11.0375 5.38006 10.8013 5.17342 10.5541C4.70848 9.99691 4.28413 9.39913 3.91512 8.76444C2.87823 7.0043 2.21771 4.9711 2.04428 2.80136L2 2.27738L2.2583 2.11133L7.71954 2.27738L7.6974 2.78291C7.6974 2.79398 7.65312 4.16298 8.45016 5.00799C8.63098 5.19988 8.845 5.35486 9.09223 5.46556C9.3985 5.60209 9.75643 5.67958 10.1586 5.68696L10.4169 6.74231C10.0406 6.73124 9.40957 6.59471 9.09223 6.49877C8.56086 6.33641 8.10699 6.05965 7.73799 5.66482C7.01105 4.88991 6.80441 3.85302 6.74906 3.24416H3.05904C3.19926 4.41021 3.49077 5.53198 3.91512 6.57626C4.25461 7.41758 4.67896 8.21094 5.17342 8.94525C5.37637 9.24414 5.59039 9.53566 5.81918 9.81241C6.01844 10.0596 6.22877 10.2995 6.45017 10.5283C7.845 11.9821 9.58669 13.0596 11.5498 13.5947C11.631 13.6094 11.7121 13.6353 11.7859 13.6611C12.2656 13.8309 12.6273 14.2146 12.8192 14.7644C13.1476 15.7128 12.904 17.0707 12.2804 17.8087Z" fill="url(#paint0_linear_5946_145845)"/>
<path opacity="0.3" d="M7.16542 2.92649L6.74476 3.24383H3.14698L2.98462 2.67188L7.16542 2.92649Z" fill="#808080"/>
<path opacity="0.2" d="M12.2799 17.8086C12.2689 17.8197 12.2615 17.8307 12.2541 17.8381C12.0917 18.0226 11.9109 18.1591 11.7153 18.2514C11.5382 18.3326 11.35 18.3769 11.1582 18.3769C11.0622 18.3769 10.97 18.3658 10.874 18.3473L11.1323 18.1813L12.2799 17.8086Z" fill="#808080"/>
<path d="M12.5077 17.6759C12.3453 17.8604 12.1608 17.9969 11.969 18.0891C11.7918 18.1703 11.6036 18.2146 11.4118 18.2146C11.3158 18.2146 11.2236 18.2035 11.1276 18.1851L11.7808 17.0375C12.1977 16.5615 12.3785 15.5541 12.1571 14.9157C11.9948 14.4508 11.7033 14.3954 11.6073 14.377L11.5704 14.3696C9.74387 13.8751 8.09443 12.9489 6.70698 11.7091C6.48927 11.5135 6.27893 11.3106 6.07598 11.1039C5.85458 10.8714 5.63687 10.6353 5.43023 10.3881C4.96529 9.83086 4.54093 9.23308 4.17193 8.59839C3.13503 6.83825 2.47821 4.80505 2.30109 2.63531L2.2605 2.11133H7.98004L7.9579 2.61686C7.9579 2.62793 7.91731 3.99693 8.71066 4.84194C8.89147 5.03383 9.10549 5.18512 9.35273 5.29951C9.659 5.43604 10.0169 5.51353 10.4191 5.52091L10.397 6.49139C10.0206 6.48032 9.67376 6.42866 9.35273 6.33272C8.82136 6.17036 8.36749 5.8936 7.99849 5.49877C7.27155 4.72386 7.06491 3.68697 7.00956 3.07811H3.31584C3.45607 4.24416 3.74758 5.36593 4.17193 6.41021C4.51141 7.25153 4.93577 8.04489 5.43023 8.7792C5.63318 9.07809 5.8472 9.36961 6.07598 9.64636C6.27525 9.89359 6.48558 10.1334 6.70698 10.3622C8.10181 11.8161 9.8435 12.8936 11.8066 13.4286C11.8878 13.4434 11.969 13.4692 12.0428 13.4951C12.5225 13.6648 12.8878 14.0486 13.0797 14.5984C13.4081 15.5578 13.1571 16.9415 12.5077 17.6759Z" fill="url(#paint1_linear_5946_145845)"/>
<path opacity="0.3" d="M12.5102 17.6767C12.3478 17.8612 12.1633 17.9977 11.9714 18.09C12.9714 16.3003 12.4253 14.4147 12.0415 13.4922C12.5213 13.6619 12.8866 14.0457 13.0784 14.5955C13.4105 15.5586 13.1596 16.9424 12.5102 17.6767Z" fill="#808080"/>
<path opacity="0.3" d="M9.34595 5.29688C9.65222 5.43341 10.0102 5.5109 10.4124 5.51828L10.3902 6.48876C10.0138 6.47769 9.66698 6.42602 9.34595 6.33008V5.29688Z" fill="#808080"/>
<path d="M33.6206 2.27304L33.5764 2.79702C33.4214 4.74167 32.8716 6.57561 32.0155 8.20291C31.842 8.52763 31.6612 8.84498 31.4657 9.15125C31.2738 9.45383 31.0671 9.74903 30.8531 10.0369C30.5026 10.4981 30.1262 10.9335 29.724 11.3431C28.2332 12.8523 26.3808 13.9704 24.307 14.5313L24.2664 14.5387C24.1705 14.5571 23.8753 14.6088 23.7166 15.0737C23.5358 15.6014 23.6244 16.3837 23.8974 16.9077C23.9565 17.0147 24.0229 17.1143 24.093 17.1955L25.1262 18.177L24.7461 18.3431C24.6502 18.3615 24.5542 18.3726 24.462 18.3726C24.3181 18.3726 24.1779 18.3505 24.0413 18.3025C23.9048 18.2545 23.772 18.1844 23.6502 18.0922C23.5506 18.0221 23.4583 17.9335 23.3697 17.8339C22.724 17.0996 22.4694 15.7195 22.8052 14.7527C23.0081 14.1697 23.403 13.7749 23.9269 13.6199C23.9749 13.6051 24.0266 13.594 24.0782 13.583C26.3107 12.9741 28.259 11.6678 29.7313 9.89663C30.1446 9.39848 30.5247 8.86342 30.8605 8.29516C31.0819 7.91878 31.2885 7.53133 31.473 7.12542C31.6834 6.67155 31.8642 6.19923 32.0229 5.71214C32.2775 4.91879 32.462 4.08853 32.5653 3.23614H28.8753C28.8199 3.84499 28.6133 4.88189 27.8863 5.65679C27.5136 6.05901 27.0524 6.33945 26.51 6.49812C26.1963 6.59037 25.8568 6.64203 25.4915 6.64941L25.4694 5.67893C25.8642 5.66786 26.2111 5.59775 26.5136 5.46491C26.7719 5.35421 26.997 5.19554 27.1852 4.99259C27.9712 4.15495 27.9343 2.78226 27.9343 2.77119L27.9122 2.26566L28.2922 2.09961L33.6206 2.27304Z" fill="url(#paint2_linear_5946_145845)"/>
<path opacity="0.2" d="M33.0111 3.02284L32.5573 3.24424H28.8931V2.7793L33.0111 3.02284Z" fill="#808080"/>
<path d="M34.0001 2.1072L33.9558 2.63119C33.8008 4.57584 33.251 6.40978 32.3949 8.03708C32.2215 8.3618 32.0406 8.67914 31.8451 8.98541C31.6495 9.29168 31.4466 9.5832 31.2325 9.87102C30.8857 10.3323 30.5056 10.7677 30.1034 11.1773C28.6126 12.6865 26.7602 13.8046 24.6864 14.3655L24.6458 14.3728C24.5499 14.3913 24.2584 14.443 24.096 14.9116C23.9152 15.4393 24.0038 16.2216 24.2768 16.7455C24.3359 16.8525 24.4023 16.9522 24.4724 17.0334L25.1255 18.181C25.0296 18.1994 24.9374 18.2105 24.8414 18.2105C24.6975 18.2105 24.5573 18.1883 24.4171 18.1404C24.2805 18.0924 24.1477 18.0223 24.0259 17.93C23.9263 17.8599 23.834 17.7714 23.7455 17.6717C23.0997 16.9374 22.8451 15.5537 23.1809 14.5906C23.3839 14.0075 23.7787 13.6127 24.3027 13.4577C24.3506 13.443 24.4023 13.4319 24.4503 13.4208C26.6827 12.812 28.6311 11.5057 30.1034 9.73449C30.5167 9.23634 30.8967 8.70128 31.2325 8.13302C31.4539 7.75663 31.6606 7.36918 31.8451 6.96328C32.0554 6.50941 32.2399 6.03339 32.3949 5.55C32.6495 4.75664 32.834 3.92639 32.9373 3.07399H29.251C29.1956 3.68285 28.989 4.71974 28.2621 5.49465C27.8894 5.89686 27.4281 6.1773 26.8857 6.33598C26.572 6.42823 26.2325 6.47989 25.8672 6.48727L25.8451 5.51679C26.2399 5.50941 26.5868 5.43561 26.8894 5.30277C27.1477 5.19207 27.3728 5.0334 27.561 4.83044C28.3469 3.99281 28.31 2.62012 28.31 2.60905L28.2879 2.10352H34.0001V2.1072Z" fill="url(#paint3_linear_5946_145845)"/>
<path opacity="0.3" d="M24.0286 17.9313C23.929 17.8612 23.8367 17.7726 23.7482 17.673C23.1024 16.9387 22.8478 15.5549 23.1836 14.5918C23.3865 14.0088 23.7814 13.614 24.3054 13.459C23.881 14.2708 23.1725 16.0789 24.0286 17.9313Z" fill="#808080"/>
<path opacity="0.2" d="M26.8846 5.30664V6.33616C26.5709 6.42841 26.2314 6.48007 25.8661 6.48745L25.844 5.51697C26.2351 5.50959 26.582 5.43948 26.8846 5.30664Z" fill="#808080"/>
<path d="M26.3067 1.46094C26.3067 1.87053 26.2957 2.30226 26.2809 2.75245C26.2735 2.94064 26.2625 3.13621 26.2514 3.33547C26.0853 6.14358 25.5577 9.49781 24.5651 12.3982C23.2699 16.1841 21.1776 19.1952 18.0706 19.1952C12.5024 19.1952 10.2035 9.53841 9.87506 3.05134C9.86768 2.95171 9.86399 2.85208 9.8603 2.75614C9.84185 2.30596 9.83447 1.87422 9.83447 1.46463H26.3067V1.46094Z" fill="url(#paint4_linear_5946_145845)"/>
<path d="M17.0411 12.2818V11.4884H17.4101V6.65079H16.9673V5.79102H19.2477V11.4884H19.6167V12.2818H17.0411Z" fill="#FF9D09"/>
<g opacity="0.3">
<path opacity="0.3" d="M19.2474 11.4884V5.79102H16.9707V6.09359H18.9855V11.7947H19.3545V12.2855H19.6201V11.4921H19.2474V11.4884Z" fill="#767676"/>
</g>
<path opacity="0.2" d="M18.9851 6.09446L19.2471 5.80664V11.4635L18.9851 11.7956V6.09446Z" fill="#767676"/>
<path opacity="0.2" d="M19.6155 11.4883V12.2816H19.3535V11.8278L19.6155 11.4883Z" fill="#767676"/>
<path opacity="0.3" d="M26.3055 1.46094C26.3055 1.87053 26.2944 2.30226 26.2797 2.75245C26.2723 2.94064 26.2612 3.13621 26.2501 3.33547C24.7631 3.16204 20.7336 2.75245 15.2982 2.75245C11.8701 2.75245 10.4421 2.89636 9.8775 3.04765C9.87012 2.94802 9.86643 2.84839 9.86274 2.75245C9.84429 2.30226 9.83691 1.87053 9.83691 1.46094H26.3055Z" fill="#808080"/>
<path d="M27.3382 0.978516L27.2017 1.43608L26.9508 2.27372H9.1907L8.79956 0.978516H27.3382Z" fill="url(#paint5_linear_5946_145845)"/>
<path d="M20.8447 19.7563C20.8447 19.7563 20.7857 19.8043 20.6934 19.8855C20.5384 20.022 20.2912 20.2508 20.1067 20.4833C19.9628 20.6678 19.8558 20.8486 19.8558 20.9925C19.8558 21.5608 19.7783 22.0958 19.6417 22.5644C19.5901 22.7489 19.5274 22.9187 19.4572 23.0774C19.4462 23.0995 19.4388 23.1253 19.4277 23.1475C19.3982 23.2139 19.365 23.2766 19.3318 23.3394C19.0107 23.9408 18.5643 24.3135 18.0735 24.3135C17.8078 24.3135 17.5569 24.2065 17.3281 24.0109C17.0919 23.808 16.8853 23.5165 16.7192 23.1512C16.4499 22.5718 16.2875 21.8191 16.2875 20.9962C16.2875 20.5571 15.2986 19.76 15.2986 19.76L15.306 19.7379L15.686 18.5312H20.4572L20.6491 19.1438L20.7893 19.5866L20.8373 19.7379L20.8447 19.7563Z" fill="#FFBD26"/>
<path d="M20.8375 19.7359H15.3062L15.6862 18.5293H20.4574L20.6493 19.1418L20.7895 19.5846L20.8375 19.7359Z" fill="url(#paint6_linear_5946_145845)"/>
<path d="M19.7527 24.3147H16.3911L16.7158 23.1523H18.3173C18.3173 23.1523 18.3173 23.1523 18.321 23.1523H19.4243L19.5055 23.4512L19.6974 24.1597L19.7527 24.3147Z" fill="url(#paint7_linear_5946_145845)"/>
<path d="M20.5284 32.5801H15.6169L16.3918 24.3145H19.7535L19.7682 24.4731L20.5284 32.5801Z" fill="#FFBD26"/>
<path d="M21.9337 33.034C21.4872 33.0007 21.0149 32.9749 20.5241 32.9528H20.5204C19.9116 32.9269 19.2769 32.9122 18.6201 32.9048C18.4429 32.9048 18.2621 32.9048 18.0813 32.9048C17.7677 32.9048 17.4577 32.9048 17.1551 32.9122C16.4798 32.9233 15.8304 32.9454 15.2142 32.9749C14.8673 32.9934 14.5315 33.0118 14.2068 33.034L14.3249 32.5801H21.8156L21.8451 32.7018L21.9337 33.034Z" fill="url(#paint8_linear_5946_145845)"/>
<path d="M26.6598 34.0645H9.479V35.6143H26.6598V34.0645Z" fill="url(#paint9_linear_5946_145845)"/>
<path d="M26.6598 34.0625H9.479C9.60077 33.6123 11.4938 33.2212 14.2059 33.0293C15.1063 32.9666 16.0952 32.9223 17.1432 32.9039C17.4495 32.9002 17.7631 32.8965 18.0805 32.8965C19.4642 32.8965 20.7742 32.9445 21.9328 33.0256C23.2908 33.1216 24.4421 33.2655 25.2686 33.4426C25.5491 33.5017 25.7926 33.5644 25.9919 33.6308C26.3867 33.771 26.6192 33.9149 26.6598 34.0625Z" fill="#FFBD26"/>
<path opacity="0.7" d="M20.846 19.7569C20.846 19.7569 20.787 19.8048 20.6947 19.886C19.6726 19.9008 18.2409 19.8233 17.739 19.8159C18.0305 19.8048 18.311 19.779 18.573 19.7347C19.477 19.5908 20.2003 19.303 20.6468 19.1406L20.787 19.5834L20.8349 19.7347L20.846 19.7569Z" fill="white"/>
<path opacity="0.7" d="M19.7673 24.4736C19.1622 24.433 17.4758 24.3112 17.4758 24.3112L19.6972 24.1562L19.7489 24.3112L19.7673 24.4736Z" fill="white"/>
<path opacity="0.7" d="M21.8476 32.6982L20.7554 32.5801H21.8144L21.8476 32.6982Z" fill="white"/>
<path opacity="0.7" d="M27.3398 0.978516L27.2033 1.43608L13.5022 0.978516H27.3398Z" fill="white"/>
<path opacity="0.3" d="M17.8007 23.1523L17.5166 24.3147H16.3911L16.7158 23.1523H17.8007Z" fill="#808080"/>
<path opacity="0.2" d="M16.8526 2.27393H9.19214L8.80469 0.982422H12.0962C11.7383 1.21489 10.7124 2.15585 16.8526 2.27393Z" fill="#808080"/>
<path opacity="0.2" d="M10.2977 2.27372H9.1907L8.79956 0.978516H9.73314L10.2977 2.27372Z" fill="#808080"/>
<mask id="mask0_5946_145845" style="mask-type:alpha" maskUnits="userSpaceOnUse" x="12" y="3" width="4" height="9">
<path d="M15.4627 11.4181C15.4627 11.4181 13.721 7.39601 14.0605 3.52148H12.4627C12.459 3.52148 12.8686 8.80191 15.4627 11.4181Z" fill="url(#paint10_linear_5946_145845)"/>
</mask>
<g mask="url(#mask0_5946_145845)">
<path opacity="0.8" d="M15.4627 11.4181C15.4627 11.4181 13.721 7.39601 14.0605 3.52148H12.4627C12.459 3.52148 12.8686 8.80191 15.4627 11.4181Z" fill="url(#paint11_linear_5946_145845)"/>
</g>
<mask id="mask1_5946_145845" style="mask-type:alpha" maskUnits="userSpaceOnUse" x="21" y="3" width="5" height="11">
<path d="M21.011 13.3992C21.0184 13.3919 21.0221 13.3513 21.0257 13.2738C21.0959 12.1373 21.011 3.51367 21.011 3.51367H25.5792C25.5792 3.51736 25.6604 12.6723 21.011 13.3992Z" fill="url(#paint12_linear_5946_145845)"/>
</mask>
<g mask="url(#mask1_5946_145845)">
<path opacity="0.8" d="M21.011 13.3992C21.0184 13.3919 21.0221 13.3513 21.0257 13.2738C21.0959 12.1373 21.011 3.51367 21.011 3.51367H25.5792C25.5792 3.51736 25.6604 12.6723 21.011 13.3992Z" fill="url(#paint13_linear_5946_145845)"/>
<path opacity="0.7" d="M20.8529 13.5433C20.923 12.4068 20.8381 3.7832 20.8381 3.7832H22.6536C22.6462 5.79427 22.4765 11.1485 20.8529 13.5433Z" fill="white"/>
</g>
</g>
<defs>
<filter id="filter0_d_5946_145845" x="0" y="0.978516" width="36" height="38.6367" filterUnits="userSpaceOnUse" color-interpolation-filters="sRGB">
<feFlood flood-opacity="0" result="BackgroundImageFix"/>
<feColorMatrix in="SourceAlpha" type="matrix" values="0 0 0 0 0 0 0 0 0 0 0 0 0 0 0 0 0 0 127 0" result="hardAlpha"/>
<feOffset dy="2"/>
<feGaussianBlur stdDeviation="1"/>
<feComposite in2="hardAlpha" operator="out"/>
<feColorMatrix type="matrix" values="0 0 0 0 0 0 0 0 0 0 0 0 0 0 0 0 0 0 0.25 0"/>
<feBlend mode="normal" in2="BackgroundImageFix" result="effect1_dropShadow_5946_145845"/>
<feBlend mode="normal" in="SourceGraphic" in2="effect1_dropShadow_5946_145845" result="shape"/>
</filter>
<linearGradient id="paint0_linear_5946_145845" x1="12.0792" y1="9.65651" x2="-2.69733" y2="11.2795" gradientUnits="userSpaceOnUse">
<stop offset="0.00490196" stop-color="#E07022"/>
<stop offset="1" stop-color="#FFBB26"/>
</linearGradient>
<linearGradient id="paint1_linear_5946_145845" x1="9.71549" y1="10.6837" x2="0.559102" y2="-2.92976" gradientUnits="userSpaceOnUse">
<stop offset="0.0147" stop-color="#FFA11F"/>
<stop offset="1" stop-color="#FFE226"/>
</linearGradient>
<linearGradient id="paint2_linear_5946_145845" x1="22.6531" y1="10.2421" x2="33.6192" y2="10.2421" gradientUnits="userSpaceOnUse">
<stop offset="0.00490196" stop-color="#E07022"/>
<stop offset="1" stop-color="#FFBB26"/>
</linearGradient>
<linearGradient id="paint3_linear_5946_145845" x1="23.0343" y1="10.1591" x2="34.0007" y2="10.1591" gradientUnits="userSpaceOnUse">
<stop offset="0.0147" stop-color="#FFA11F"/>
<stop offset="1" stop-color="#FFE226"/>
</linearGradient>
<linearGradient id="paint4_linear_5946_145845" x1="9.8354" y1="10.328" x2="26.3077" y2="10.328" gradientUnits="userSpaceOnUse">
<stop stop-color="#FFAD39"/>
<stop offset="0.4412" stop-color="#FFBD26"/>
<stop offset="1" stop-color="#FFE226"/>
</linearGradient>
<linearGradient id="paint5_linear_5946_145845" x1="8.80129" y1="1.62593" x2="27.3384" y2="1.62593" gradientUnits="userSpaceOnUse">
<stop stop-color="#FFAD39"/>
<stop offset="0.4412" stop-color="#FFBD26"/>
<stop offset="1" stop-color="#FFE226"/>
</linearGradient>
<linearGradient id="paint6_linear_5946_145845" x1="15.3059" y1="19.1328" x2="20.8362" y2="19.1328" gradientUnits="userSpaceOnUse">
<stop offset="0.00490196" stop-color="#FF8C28"/>
<stop offset="0.4412" stop-color="#FFBD26"/>
<stop offset="1" stop-color="#FFE226"/>
</linearGradient>
<linearGradient id="paint7_linear_5946_145845" x1="16.5238" y1="23.7547" x2="21.4971" y2="23.6902" gradientUnits="userSpaceOnUse">
<stop offset="0.00490196" stop-color="#FF9130"/>
<stop offset="0.4412" stop-color="#FFBD26"/>
<stop offset="1" stop-color="#FFE226"/>
</linearGradient>
<linearGradient id="paint8_linear_5946_145845" x1="14.2074" y1="32.8057" x2="21.9352" y2="32.8057" gradientUnits="userSpaceOnUse">
<stop stop-color="#FFA526"/>
<stop offset="0.4412" stop-color="#FFBD26"/>
<stop offset="1" stop-color="#FFE226"/>
</linearGradient>
<linearGradient id="paint9_linear_5946_145845" x1="9.47959" y1="34.8412" x2="26.6605" y2="34.8412" gradientUnits="userSpaceOnUse">
<stop offset="0.00490196" stop-color="#FF9130"/>
<stop offset="0.4412" stop-color="#FFBD26"/>
<stop offset="1" stop-color="#FFE226"/>
</linearGradient>
<linearGradient id="paint10_linear_5946_145845" x1="12.4604" y1="7.46808" x2="15.4623" y2="7.46808" gradientUnits="userSpaceOnUse">
<stop/>
<stop offset="1" stop-color="white"/>
</linearGradient>
<linearGradient id="paint11_linear_5946_145845" x1="12.4604" y1="7.46808" x2="15.4623" y2="7.46808" gradientUnits="userSpaceOnUse">
<stop stop-color="white"/>
<stop offset="1" stop-color="white"/>
</linearGradient>
<linearGradient id="paint12_linear_5946_145845" x1="21.0114" y1="8.45882" x2="25.5812" y2="8.45882" gradientUnits="userSpaceOnUse">
<stop/>
<stop offset="1" stop-color="white"/>
</linearGradient>
<linearGradient id="paint13_linear_5946_145845" x1="21.0114" y1="8.45882" x2="25.5812" y2="8.45882" gradientUnits="userSpaceOnUse">
<stop stop-color="white"/>
<stop offset="1" stop-color="white"/>
</linearGradient>
</defs>
</svg>
