<svg width="18" height="19" viewBox="0 0 18 19" fill="none" xmlns="http://www.w3.org/2000/svg">
<path fill-rule="evenodd" clip-rule="evenodd" d="M0.381819 3.49917C3.56647 3.45957 6.62851 2.26548 8.99922 0.138672C11.3698 2.26588 14.4318 3.46037 17.6166 3.50027C17.7376 4.21527 17.7992 4.95227 17.7992 5.70137C17.7992 11.4489 14.1252 16.3384 8.99922 18.1501C3.87322 16.3373 0.199219 11.4478 0.199219 5.70027C0.199219 4.95007 0.261919 4.21527 0.381819 3.49917ZM13.0769 7.57797C13.2773 7.37051 13.3882 7.09265 13.3857 6.80423C13.3832 6.51582 13.2675 6.23992 13.0635 6.03597C12.8596 5.83202 12.5837 5.71634 12.2953 5.71383C12.0068 5.71133 11.729 5.8222 11.5215 6.02257L7.89922 9.64487L6.47692 8.22257C6.26946 8.0222 5.99159 7.91133 5.70318 7.91383C5.41476 7.91634 5.13887 8.03202 4.93492 8.23597C4.73097 8.43992 4.61528 8.71582 4.61278 9.00423C4.61027 9.29265 4.72114 9.57051 4.92152 9.77797L7.12152 11.978C7.3278 12.1842 7.60754 12.3 7.89922 12.3C8.1909 12.3 8.47064 12.1842 8.67692 11.978L13.0769 7.57797Z" fill="#75767E"/>
</svg>
