<svg width="18" height="18" viewBox="0 0 18 18" fill="none" xmlns="http://www.w3.org/2000/svg">
<path fill-rule="evenodd" clip-rule="evenodd" d="M17.7992 9.00019C17.7992 11.3341 16.8721 13.5724 15.2218 15.2227C13.5714 16.8731 11.3331 17.8002 8.99922 17.8002C6.66531 17.8002 4.427 16.8731 2.77668 15.2227C1.12636 13.5724 0.199219 11.3341 0.199219 9.00019C0.199219 6.66629 1.12636 4.42798 2.77668 2.77766C4.427 1.12734 6.66531 0.200195 8.99922 0.200195C11.3331 0.200195 13.5714 1.12734 15.2218 2.77766C16.8721 4.42798 17.7992 6.66629 17.7992 9.00019ZM8.99922 5.70019C8.80595 5.70001 8.61604 5.75074 8.44861 5.8473C8.28119 5.94385 8.14215 6.08282 8.04552 6.25019C7.97574 6.37986 7.88064 6.49419 7.76586 6.58642C7.65107 6.67865 7.51894 6.74689 7.37729 6.78711C7.23564 6.82732 7.08736 6.83869 6.94123 6.82053C6.79511 6.80237 6.65412 6.75506 6.52662 6.68141C6.39912 6.60775 6.28771 6.50924 6.19898 6.39173C6.11026 6.27422 6.04603 6.14008 6.01011 5.99729C5.97419 5.85449 5.9673 5.70593 5.98985 5.56042C6.01241 5.41491 6.06395 5.27542 6.14142 5.1502C6.50466 4.52112 7.06532 4.02947 7.73645 3.7515C8.40757 3.47353 9.15167 3.42478 9.85333 3.61279C10.555 3.8008 11.175 4.21508 11.6172 4.79137C12.0595 5.36767 12.2992 6.07378 12.2992 6.80019C12.2994 7.48287 12.088 8.14882 11.694 8.70633C11.3 9.26384 10.7428 9.68548 10.0992 9.91319V10.1002C10.0992 10.3919 9.98333 10.6717 9.77703 10.878C9.57075 11.0843 9.29096 11.2002 8.99922 11.2002C8.70748 11.2002 8.42769 11.0843 8.2214 10.878C8.01511 10.6717 7.89922 10.3919 7.89922 10.1002V9.00019C7.89922 8.70846 8.01511 8.42867 8.2214 8.22238C8.42769 8.01609 8.70748 7.90019 8.99922 7.90019C9.29096 7.90019 9.57075 7.7843 9.77703 7.57801C9.98333 7.37172 10.0992 7.09193 10.0992 6.80019C10.0992 6.50846 9.98333 6.22867 9.77703 6.02238C9.57075 5.81609 9.29096 5.70019 8.99922 5.70019ZM8.99922 14.5002C9.29096 14.5002 9.57075 14.3843 9.77703 14.178C9.98333 13.9717 10.0992 13.6919 10.0992 13.4002C10.0992 13.1085 9.98333 12.8287 9.77703 12.6224C9.57075 12.4161 9.29096 12.3002 8.99922 12.3002C8.70748 12.3002 8.42769 12.4161 8.2214 12.6224C8.01511 12.8287 7.89922 13.1085 7.89922 13.4002C7.89922 13.6919 8.01511 13.9717 8.2214 14.178C8.42769 14.3843 8.70748 14.5002 8.99922 14.5002Z" fill="#75767E"/>
</svg>
