<svg width="18" height="19" viewBox="0 0 18 19" fill="none" xmlns="http://www.w3.org/2000/svg">
<path d="M1.29922 0.0996094C1.00748 0.0996094 0.727691 0.215502 0.521401 0.421792C0.315111 0.628082 0.199219 0.907871 0.199219 1.19961C0.199219 1.49135 0.315111 1.77114 0.521401 1.97743C0.727691 2.18372 1.00748 2.29961 1.29922 2.29961H2.64122L2.97672 3.64381C2.98005 3.65929 2.98372 3.67469 2.98772 3.69001L4.48152 9.66301L3.49922 10.6442C2.11322 12.0302 3.09442 14.3996 5.05462 14.3996H14.4992C14.791 14.3996 15.0707 14.2837 15.277 14.0774C15.4833 13.8711 15.5992 13.5913 15.5992 13.2996C15.5992 13.0079 15.4833 12.7281 15.277 12.5218C15.0707 12.3155 14.791 12.1996 14.4992 12.1996H5.05462L6.15462 11.0996H13.3992C13.6034 11.0995 13.8036 11.0425 13.9773 10.9351C14.151 10.8277 14.2913 10.674 14.3826 10.4913L17.6826 3.89131C17.7664 3.72365 17.8059 3.53736 17.7975 3.35012C17.7891 3.16288 17.7329 2.9809 17.6344 2.82144C17.5359 2.66199 17.3983 2.53036 17.2346 2.43903C17.0709 2.3477 16.8866 2.29971 16.6992 2.29961H4.90722L4.56622 0.932309C4.50663 0.694438 4.36927 0.483299 4.17595 0.33243C3.98263 0.181562 3.74444 0.0996158 3.49922 0.0996094H1.29922ZM15.5992 17.1496C15.5992 17.5872 15.4254 18.0069 15.1159 18.3163C14.8065 18.6258 14.3868 18.7996 13.9492 18.7996C13.5116 18.7996 13.0919 18.6258 12.7825 18.3163C12.4731 18.0069 12.2992 17.5872 12.2992 17.1496C12.2992 16.712 12.4731 16.2923 12.7825 15.9829C13.0919 15.6734 13.5116 15.4996 13.9492 15.4996C14.3868 15.4996 14.8065 15.6734 15.1159 15.9829C15.4254 16.2923 15.5992 16.712 15.5992 17.1496ZM5.14922 18.7996C5.58683 18.7996 6.00651 18.6258 6.31594 18.3163C6.62538 18.0069 6.79922 17.5872 6.79922 17.1496C6.79922 16.712 6.62538 16.2923 6.31594 15.9829C6.00651 15.6734 5.58683 15.4996 5.14922 15.4996C4.71161 15.4996 4.29193 15.6734 3.98249 15.9829C3.67306 16.2923 3.49922 16.712 3.49922 17.1496C3.49922 17.5872 3.67306 18.0069 3.98249 18.3163C4.29193 18.6258 4.71161 18.7996 5.14922 18.7996Z" fill="#75767E"/>
</svg>
